<svg width="32" height="32" viewBox="0 0 32 32" fill="none" xmlns="http://www.w3.org/2000/svg">
<circle cx="16" cy="16" r="15.25" stroke="#4D1F1F" stroke-width="1.5"/>
<path fill-rule="evenodd" clip-rule="evenodd" d="M13.5037 11.2951L11.713 6.63922C11.4401 5.92963 11.9639 5.16699 12.7241 5.16699H19.3194C20.0796 5.16699 20.6034 5.92963 20.3305 6.63922L18.5398 11.2952L21.1075 20.4535C21.3128 21.1857 21.1192 21.972 20.5973 22.5252L16.8097 26.54C16.3822 26.9933 15.6613 26.9933 15.2337 26.54L11.4462 22.5252C10.9243 21.972 10.7307 21.1857 10.936 20.4535L13.5037 11.2951ZM15.3431 10.042L14.3015 7.33366H17.742L16.7004 10.042H15.3431ZM15.4978 12.2087L13.0222 21.0384L16.0217 24.2179L19.0213 21.0384L16.5457 12.2087H15.4978Z" fill="#4D1F1F"/>
</svg>
