<svg width="18" height="17" viewBox="0 0 18 17" fill="none" xmlns="http://www.w3.org/2000/svg">
<circle cx="9" cy="8" r="8" fill="#FFE88C"/>
<path d="M9.08128 6.47499C9.29887 6.4981 9.49281 6.35166 9.51445 6.14791C9.53608 5.94416 9.37722 5.76025 9.15962 5.73715C8.94202 5.71404 8.74809 5.86048 8.72645 6.06423C8.70482 6.26799 8.86368 6.45189 9.08128 6.47499Z" fill="#FF5C4D"/>
<path d="M10.9875 9.34999C11.2051 9.3731 11.3991 9.22666 11.4207 9.02291C11.4423 8.81916 11.2835 8.63525 11.0659 8.61215C10.8483 8.58904 10.6543 8.73548 10.6327 8.93923C10.6111 9.14299 10.7699 9.32689 10.9875 9.34999Z" fill="#FF5C4D"/>
<path d="M7.94281 9.71624L7.60792 9.56583C6.36127 9.00608 5.6147 7.76928 5.75071 6.48838L6 4.14062L11.0132 4.67294L10.7639 7.02069C10.6279 8.3016 9.63821 9.35404 8.30182 9.63951L7.94281 9.71624ZM6.56732 4.79738L6.38066 6.55527C6.27125 7.58563 6.87178 8.58071 7.87507 9.03109L8.00917 9.09127L8.15292 9.0606C9.22841 8.83095 10.0245 7.98417 10.1339 6.9538L10.3206 5.19591L6.56732 4.79738Z" fill="#FF5C4D"/>
<path d="M9.86078 12.5912L9.52588 12.4408C8.27924 11.8811 7.53267 10.6443 7.66868 9.36338L7.91797 7.01562L12.9311 7.54794L12.6818 9.89569C12.5458 11.1766 11.5562 12.229 10.2198 12.5145L9.86078 12.5912ZM8.48522 7.67307L8.29856 9.43096C8.18915 10.4613 8.78968 11.4564 9.79296 11.9068L9.92707 11.967L10.0708 11.9363C11.1463 11.7066 11.9424 10.8599 12.0518 9.82949L12.2385 8.0716L8.48522 7.67307Z" fill="#FF5C4D"/>
<path d="M17 8C17 12.4183 13.4183 16 9 16C4.58172 16 1 12.4183 1 8" stroke="#FF5C4D" stroke-width="0.75" stroke-linecap="round"/>
</svg>
