<svg width="486" height="160" viewBox="0 0 486 160" fill="none" xmlns="http://www.w3.org/2000/svg">
<path d="M264.572 160.001C296.698 160.001 322.742 133.895 322.742 101.692C322.742 69.4886 296.698 43.3828 264.572 43.3828C232.446 43.3828 206.402 69.4886 206.402 101.692C206.402 133.895 232.446 160.001 264.572 160.001Z" fill="#00BFE6"/>
<path d="M282.469 141.421L285.817 74.5087L265.394 63.0859L250.894 71.7323C241.194 73.9905 226.642 87.0593 237.566 121.591L245.413 122.893L243.468 134.676L281.735 141.281C281.981 141.324 282.225 141.373 282.469 141.421Z" fill="#FFBB99"/>
<path d="M293.44 145.764C294.511 141.771 294.875 137.587 294.468 133.471C293.753 126.248 290.999 118.845 286.14 113.464C293.249 108.738 298.853 100.956 298.572 92.4842C298.347 85.7255 294.557 79.7537 290.635 74.4316C286.85 69.2948 283.512 63.1055 278.079 59.4187C273.421 56.2609 267.187 55.5037 261.921 57.4585C261.642 57.5606 261.382 57.7002 261.112 57.8183C240.688 60.5814 240.332 78.3896 240.332 78.3896C243.49 74.9955 250.557 71.1262 256.26 70.7878C258.377 70.6616 260.52 70.9033 262.547 71.5209C273.442 74.8505 276.343 85.2959 274.763 94.9867L281.155 92.9004C282.414 95.9239 281.396 107.806 272.172 107.089L268.596 128.549C267.659 134.172 271.43 139.496 277.035 140.463L281.722 141.271C285.899 141.994 289.877 143.524 293.445 145.753L293.44 145.764Z" fill="#FF5C4D"/>
<path d="M239.016 80.9465C241.56 78.4335 246.112 78.5168 248.373 81.2123" stroke="#FF5B4D" stroke-width="1.60905" stroke-linecap="round" stroke-linejoin="round"/>
<path d="M247.667 90.8672L237.562 92.8274L245.77 101.31" stroke="#4D1F1F" stroke-width="1.60905" stroke-linecap="round" stroke-linejoin="round"/>
<path d="M237.562 121.592L251.551 123.912C256.153 124.675 260.798 122.803 263.589 119.055" stroke="#4D1F1F" stroke-width="1.60905" stroke-linecap="round" stroke-linejoin="round"/>
<path d="M292.894 72.4693C287.486 69.8942 283.985 65.4959 279.862 61.3768C275.967 57.4859 270.143 55.456 264.705 56.4978C251.887 58.9574 250.898 71.7336 250.898 71.7336" stroke="#4D1F1F" stroke-width="1.60905" stroke-linecap="round" stroke-linejoin="round"/>
<path d="M263.641 73.5112C266.595 71.5215 270.501 71.3496 273.689 72.9903C278.173 75.2968 280.239 80.4847 283.97 83.8519C287.562 87.0929 292.781 88.4892 297.52 87.4742" stroke="#4D1F1F" stroke-width="1.60905" stroke-linecap="round" stroke-linejoin="round"/>
<path d="M276.478 99.4121C274.33 101.018 272.816 103.426 272.312 106.042" stroke="#4D1F1F" stroke-width="1.60905" stroke-linecap="round" stroke-linejoin="round"/>
<path d="M224.063 111.412L218.625 113.173" stroke="#4D1F1F" stroke-width="1.60905" stroke-linecap="round" stroke-linejoin="round"/>
<path d="M227.727 85.3622L223.211 81.7969" stroke="#4D1F1F" stroke-width="1.60905" stroke-linecap="round" stroke-linejoin="round"/>
<path d="M255.266 81.5822C259.49 79.8908 263.08 81.2573 265.576 84.1703" stroke="#FF5B4D" stroke-width="1.60905" stroke-linecap="round" stroke-linejoin="round"/>
<path d="M254.141 87.9488C255.392 86.9582 257.079 86.542 258.649 86.8373C260.216 87.1327 261.638 88.1341 262.447 89.514" stroke="#4D1F1F" stroke-width="1.60905" stroke-linecap="round" stroke-linejoin="round"/>
<path d="M237.562 85.1803C238.813 84.1896 240.501 83.7735 242.071 84.0688C243.638 84.3641 245.06 85.3655 245.869 86.7455" stroke="#4D1F1F" stroke-width="1.60905" stroke-linecap="round" stroke-linejoin="round"/>
<path d="M293.392 145.742C289.832 143.524 285.868 142.004 281.705 141.285L230.529 132.45C226.492 131.755 222.388 131.83 218.426 132.644" stroke="#4D1F1F" stroke-width="1.60905" stroke-linecap="round" stroke-linejoin="round"/>
<path d="M281.135 92.9092C282.394 95.9327 281.376 107.815 272.153 107.098L268.577 128.558C267.639 134.181 271.411 139.505 277.015 140.472" stroke="#4D1F1F" stroke-width="1.60905" stroke-linecap="round" stroke-linejoin="round"/>
<path d="M278.262 121.75C282.074 127.384 283.467 134.601 282.031 141.253" stroke="#4D1F1F" stroke-width="1.60905" stroke-linecap="round" stroke-linejoin="round"/>
<path d="M248.441 109.268L248.91 115.143C248.977 116.518 250.48 118.094 252.301 117.935C253.67 117.817 254.911 117.004 255.706 115.881C256.628 114.579 257.126 113.051 257.447 111.518C257.541 111.077 257.718 110.065 257.814 109.49C254.49 110.481 250.477 110.095 248.441 109.268Z" fill="#FF5C4D"/>
<path d="M248.89 115.145C248.957 116.52 250.46 118.096 252.281 117.937C253.65 117.819 254.89 117.006 255.686 115.883C256.607 114.581 257.106 113.053 257.427 111.52C257.778 109.85 258.231 106.587 258.3 106.579C254.462 107.143 251.29 107.154 247.652 105.795" stroke="#4D1F1F" stroke-width="1.60905" stroke-linecap="round" stroke-linejoin="round"/>
<path d="M58.6698 116.748C90.7961 116.748 116.84 90.6419 116.84 58.4388C116.84 26.2357 90.7961 0.129883 58.6698 0.129883C26.5435 0.129883 0.5 26.2357 0.5 58.4388C0.5 90.6419 26.5435 116.748 58.6698 116.748Z" fill="#FF5B4D"/>
<path d="M71.6094 84.2168C72.0728 88.3708 75.4614 91.5823 79.6242 91.8159L100.818 93.0054" stroke="#4D1F1F" stroke-width="1.60905" stroke-linecap="round" stroke-linejoin="round"/>
<path d="M68.9085 19.6299C72.648 20.2743 76.1545 22.2345 78.6806 25.0942C81.2066 27.954 82.7362 31.6945 82.9451 35.5235L65.6484 23.6523L68.9112 19.6299H68.9085Z" fill="#4D1F1F" stroke="#4D1F1F" stroke-width="1.60905" stroke-linecap="round" stroke-linejoin="round"/>
<path d="M87.4416 51.9544L87.163 43.9015C86.9299 37.1375 82.9063 31.0878 76.7665 28.271L72.3598 26.2491L65.628 22.8281L35.1297 33.3084L30.2569 49.535C23.592 59.4675 36.2923 65.6354 40.565 67.3674L41.8615 75.7076C42.6303 80.6591 45.9601 84.8426 50.6186 86.6605C50.707 86.6954 50.7954 86.7303 50.8865 86.7625C55.8798 88.6502 61.3124 89.0557 66.5682 88.1159L83.702 85.0547C80.6615 64.0861 87.4443 51.9544 87.4443 51.9544H87.4416Z" fill="#FFBB99" stroke="#FFBB99" stroke-width="1.60905" stroke-linecap="round" stroke-linejoin="round"/>
<path d="M70.99 64.0854C70.4945 64.2975 70.7088 65.0467 71.2418 64.9635L78.9754 63.7605L84.5901 58.2451L70.9927 64.0881L70.99 64.0854Z" fill="#FF5C4D" stroke="#FF5C4D" stroke-width="1.60905" stroke-linecap="round" stroke-linejoin="round"/>
<path d="M56.2188 49.5378C57.6787 48.0263 59.6717 47.041 61.7557 46.7994C63.8398 46.5578 66.0042 47.0625 67.7695 48.2035" stroke="#4D1F1F" stroke-width="1.60905" stroke-linecap="round" stroke-linejoin="round"/>
<path d="M75.3438 40.303C78.5556 38.1606 82.6835 38.0264 85.9918 39.9594" stroke="#4D1F1F" stroke-width="1.60905" stroke-linecap="round" stroke-linejoin="round"/>
<path d="M55.1328 43.4022C58.4384 40.6154 63.1583 39.6113 67.3104 40.8114" stroke="#4D1F1F" stroke-width="1.60905" stroke-linecap="round" stroke-linejoin="round"/>
<path d="M54.2969 61.9141C54.2969 61.9141 56.9381 67.126 63.7904 66.4655L64.1199 80.6164C55.7621 82.0235 54.2969 61.9141 54.2969 61.9141Z" fill="#4D1F1F" stroke="#4D1F1F" stroke-width="1.60905" stroke-linecap="round" stroke-linejoin="round"/>
<path d="M73.4453 77.9111C75.1276 78.3622 76.6304 79.4336 77.592 80.8648C78.5537 82.296 78.9662 84.0763 78.7332 85.7761" stroke="#FF5C4D" stroke-width="1.60905" stroke-linecap="round" stroke-linejoin="round"/>
<path d="M70.3406 18.3357C68.6047 13.9427 63.5444 11.8992 59.2181 13.7789C54.5731 15.7954 50.1959 18.7223 46.108 21.5794C39.928 25.8971 33.7024 30.4647 26.4562 32.5269C26.4562 32.5269 24.8114 42.5856 30.1798 49.6369C30.2039 49.602 30.2226 49.5671 30.2467 49.5322L41.1308 53.6432C41.6638 51.4763 41.3692 49.1858 40.3003 47.2256L39.8342 46.3691C37.9965 43.0018 38.9904 38.7861 42.1353 36.5976L51.404 30.1451C53.2283 28.875 55.508 28.4508 57.6671 28.9771L72.1863 32.5323C72.8051 27.7499 72.1193 22.8253 70.3459 18.333L70.3406 18.3357Z" fill="#4D1F1F" stroke="#4D1F1F" stroke-width="1.60905" stroke-linecap="round" stroke-linejoin="round"/>
<path d="M35.7109 57.916L36.6244 58.6222C38.5102 60.0803 39.7666 62.2096 40.1336 64.5699L40.2273 65.1821L41.8614 75.7081" stroke="#4D1F1F" stroke-width="1.60905" stroke-linecap="round" stroke-linejoin="round"/>
<path d="M84.1866 45.778C84.1866 45.778 79.3434 42.3571 75.3815 47.4321L84.6286 58.2454L71.0312 64.0883" stroke="#4D1F1F" stroke-width="1.60905" stroke-linecap="round" stroke-linejoin="round"/>
<path d="M61.8352 74.236C60.5441 72.5524 58.0368 70.3989 55.5938 69.9854C56.901 75.3987 59.4217 81.4055 64.1175 80.616L64.0774 78.8438C63.6166 77.1924 62.8987 75.6216 61.8352 74.236Z" fill="#FF5C4D" stroke="#FF5C4D" stroke-width="1.60905" stroke-linecap="round" stroke-linejoin="round"/>
<path d="M54.2969 61.9141C54.2969 61.9141 56.9381 67.126 63.7904 66.4655L64.1199 80.6164C55.7621 82.0235 54.2969 61.9141 54.2969 61.9141Z" stroke="#4D1F1F" stroke-width="1.60905" stroke-linecap="round" stroke-linejoin="round"/>
<path d="M40.5996 67.3691L41.3925 83.2359C41.6898 89.1782 38.0173 94.597 32.3973 96.5088L23.4609 99.5485" stroke="#4D1F1F" stroke-width="1.60905" stroke-linecap="round" stroke-linejoin="round"/>
<path d="M30.2578 60.2803C33.0357 63.9858 38.1576 66.3891 40.5766 67.3692L41.8732 75.7094C42.642 80.6609 45.9717 84.8444 50.6302 86.6623C50.7186 86.6972 50.807 86.7321 50.8981 86.7643C55.8914 88.652 61.324 89.0575 66.5799 88.1177L83.7136 85.0565" stroke="#4D1F1F" stroke-width="1.60905" stroke-linecap="round" stroke-linejoin="round"/>
<path d="M61.9701 13.082C53.4731 13.4875 46.6316 20.9255 38.1641 21.7418C42.943 22.8024 47.7888 23.0683 52.5436 21.9002" fill="#4D1F1F"/>
<path d="M61.9701 13.082C53.4731 13.4875 46.6316 20.9255 38.1641 21.7418C42.943 22.8024 47.7888 23.0683 52.5436 21.9002" stroke="#4D1F1F" stroke-width="1.60905" stroke-linecap="round" stroke-linejoin="round"/>
<path d="M54.9115 19.8887C49.9102 21.8301 45.7796 25.9196 43.7812 30.9087" stroke="#FF5B4D" stroke-width="1.60905" stroke-linecap="round" stroke-linejoin="round"/>
<path d="M95.0703 41.8575L99.2492 37.1719" stroke="#4D1F1F" stroke-width="1.60905" stroke-linecap="round" stroke-linejoin="round"/>
<path d="M98.6953 70.7139L105.349 73.2295" stroke="#4D1F1F" stroke-width="1.60905" stroke-linecap="round" stroke-linejoin="round"/>
<path d="M79.6773 91.8148C76.5324 91.6376 73.8322 89.7633 72.4981 87.0647L66.6127 88.1173C61.3569 89.0572 55.927 88.6517 50.931 86.764C50.8426 86.7291 50.7542 86.6969 50.6631 86.662C48.0753 85.6523 45.9001 83.9123 44.3438 81.7158L44.5259 82.8812C45.2947 87.8327 48.6245 92.0162 53.283 93.8341C53.3714 93.869 53.4598 93.9039 53.5508 93.9361C58.5442 95.8238 62.5383 95.8158 67.7941 94.8759L79.68 91.8148H79.6773Z" fill="#4D1F1F" stroke="#4D1F1F" stroke-width="1.60905" stroke-linecap="round" stroke-linejoin="round"/>
<path d="M157.841 72.6575C175.427 65.7807 184.179 45.9963 177.508 28.3385C170.894 10.8283 151.28 1.75239 133.707 8.10018C118.481 13.5994 109.592 28.6499 111.114 43.9421L96.568 58.1118C95.6063 59.0463 96.2412 60.6816 97.5806 60.7165C103.56 60.8803 115.18 61.1971 117.857 61.2696C126.895 73.3234 143.142 78.4038 157.843 72.6548L157.841 72.6575Z" fill="#FBFCF9" stroke="#C4F5F5" stroke-width="1.60905" stroke-linecap="round" stroke-linejoin="round"/>
<path d="M149.266 22.2942L151.136 30.6585C151.411 31.8964 152.453 32.8147 153.713 32.9329L162.226 33.7331C165.044 33.9989 165.877 37.7233 163.442 39.1679L156.086 43.5367C154.996 44.1838 154.447 45.4593 154.725 46.6972L156.595 55.0615C157.214 57.83 153.938 59.774 151.813 57.8998L145.395 52.2367C144.444 51.3989 143.064 51.2673 141.974 51.9145L134.618 56.2833C132.183 57.7279 129.325 55.2065 130.447 52.6019L133.838 44.7343C134.339 43.5689 134.037 42.2129 133.086 41.3751L126.667 35.712C124.543 33.8378 126.054 30.3336 128.872 30.5994L137.385 31.3996C138.644 31.5178 139.839 30.8089 140.34 29.6462L143.731 21.7786C144.854 19.174 148.644 19.5311 149.263 22.2995L149.266 22.2942Z" fill="#FFE28D"/>
<path d="M162.25 33.7324C165.068 33.9983 165.901 37.7226 163.466 39.1672L156.11 43.5361C155.02 44.1832 154.471 45.4587 154.749 46.6965L156.619 55.0609C157.238 57.8293 153.962 59.7734 151.837 57.8991L145.419 52.2361C144.468 51.3983 143.088 51.2667 141.998 51.9138L134.642 56.2826C132.207 57.7273 129.349 55.2059 130.471 52.6013L133.863 44.7336C134.364 43.5683 134.061 42.2122 133.11 41.3745L126.691 35.7114" stroke="#FF5B4D" stroke-width="1.60905" stroke-linecap="round" stroke-linejoin="round"/>
<path d="M427.33 116.618C459.456 116.618 485.5 90.512 485.5 58.3089C485.5 26.1058 459.456 0 427.33 0C395.204 0 369.16 26.1058 369.16 58.3089C369.16 90.512 395.204 116.618 427.33 116.618Z" fill="#FFE28D"/>
<path d="M445.601 31.6846L447.551 73.2701C448.114 85.2622 438.84 95.4283 426.874 95.9331L403.308 96.9293C398.419 97.1361 394.607 92.7324 395.502 87.9098L399.113 68.426L398.135 50.9589C398.023 48.9691 398.165 46.9714 398.556 45.0192L400.643 34.5524L445.599 31.6846H445.601Z" fill="#FF5B4D"/>
<path d="M415.032 69.4184L407.62 66.709C404.717 65.6483 403.755 62.0099 405.756 59.647L409.83 54.8351C410.607 53.9167 410.979 52.7218 410.872 51.5243C410.72 49.8272 410.347 48.1248 409.621 46.6292C408.51 44.3387 406.195 42.6792 403.675 42.3678C402.016 42.161 400.302 42.5423 398.855 43.3801" stroke="#4D1F1F" stroke-width="1.60905" stroke-linecap="round" stroke-linejoin="round"/>
<path d="M417.66 43.0137C421.019 41.2713 425.244 41.3223 428.56 43.1506" stroke="#4D1F1F" stroke-width="1.60905" stroke-linecap="round" stroke-linejoin="round"/>
<path d="M405.328 49.9414V52.5054" stroke="#4D1F1F" stroke-width="1.60905" stroke-linecap="round" stroke-linejoin="round"/>
<path d="M423.578 49.0312V51.6006" stroke="#4D1F1F" stroke-width="1.60905" stroke-linecap="round" stroke-linejoin="round"/>
<path d="M446.259 48.0418L450.628 43.3938C451.625 42.3331 453.377 42.5479 454.063 43.8341C455.836 47.1611 456.267 51.4681 454.93 54.8488C453.248 59.1021 449.024 62.2277 444.473 62.5848" fill="#FF5B4D"/>
<path d="M407.744 44.2012C406.6 43.2132 405.175 42.5501 403.675 42.3648C402.016 42.1581 400.302 42.5393 398.855 43.377" stroke="#4D1F1F" stroke-width="1.60905" stroke-linecap="round" stroke-linejoin="round"/>
<path d="M447.551 73.2661L446.416 49.0859L440.177 49.6928L440.621 61.8352C440.704 64.1042 439.713 66.2819 437.945 67.7024L431.902 72.5652C430.538 73.6635 428.709 73.9911 427.05 73.4352L411.773 68.3173L404.91 72.1383C403.354 73.0056 401.39 72.4847 400.466 70.9568L399.07 68.6556L395.502 87.9057C394.607 92.7283 398.419 97.132 403.308 96.9253L426.874 95.9291C438.84 95.4243 448.114 85.2581 447.551 73.2661Z" fill="#4D1F1F" stroke="#4D1F1F" stroke-width="1.60905" stroke-linecap="round" stroke-linejoin="round"/>
<path d="M400.631 34.5486C399.524 33.163 399.146 31.3317 399.615 29.6186L401.745 21.8637C402.09 20.6017 403.569 20.0512 404.654 20.7762L407.756 22.8545L410.529 19.6404C411.225 18.8321 412.449 18.7489 413.248 19.4605L416.2 22.0839L418.305 19.4336C419.045 18.5019 420.446 18.4642 421.233 19.353L423.165 21.5307L425.351 19.0818C426.055 18.2897 427.269 18.2253 428.056 18.9342L430.698 21.3106L433.486 18.8885C434.279 18.2011 435.474 18.279 436.17 19.0631L438.455 21.6408L440.778 19.5679C441.799 18.6549 443.419 19.0819 443.861 20.3788L446.034 26.7427C446.591 28.3753 446.43 30.1717 445.594 31.6781L400.639 34.5459L400.631 34.5486Z" fill="#4D1F1F" stroke="#4D1F1F" stroke-width="1.60905" stroke-linecap="round" stroke-linejoin="round"/>
<path d="M452.021 50.2705C449.956 51.5621 448.341 53.5438 447.505 55.8154C447.012 57.1553 446.792 58.5892 446.848 60.0124" stroke="#4D1F1F" stroke-width="1.60905" stroke-linecap="round" stroke-linejoin="round"/>
<path d="M407.586 75.1902C409.796 75.3782 414.088 75.5339 419.464 74.7015C420.257 74.578 420.771 75.4345 420.227 75.9716L415.746 80.4021C414.685 81.4494 412.872 81.4735 411.779 80.4532L407.11 76.087C406.729 75.7326 407.04 75.1419 407.584 75.1875L407.586 75.1902Z" fill="#FBFCF9" stroke="#FBFCF9" stroke-width="1.60905" stroke-linecap="round" stroke-linejoin="round"/>
<path d="M446.131 45.6387L439.895 46.2454" stroke="#4D1F1F" stroke-width="1.60905" stroke-linecap="round" stroke-linejoin="round"/>
<path d="M445.961 42.3828L439.723 42.9896" stroke="#4D1F1F" stroke-width="1.60905" stroke-linecap="round" stroke-linejoin="round"/>
<path d="M445.704 39.2383L439.465 39.845" stroke="#4D1F1F" stroke-width="1.60905" stroke-linecap="round" stroke-linejoin="round"/>
<path d="M445.469 35.7637L439.23 36.3704" stroke="#4D1F1F" stroke-width="1.60905" stroke-linecap="round" stroke-linejoin="round"/>
<path d="M456.613 28.5822C458.601 27.1563 460.589 25.7305 462.574 24.3047" stroke="#4D1F1F" stroke-width="1.60905" stroke-linecap="round" stroke-linejoin="round"/>
<path d="M461.668 37.8586C464.015 37.523 466.364 37.1901 468.71 36.8545" stroke="#4D1F1F" stroke-width="1.60905" stroke-linecap="round" stroke-linejoin="round"/>
<path d="M447.457 61.9512C447.516 69.373 453.117 75.5705 460.478 76.3626L478.429 78.2932" stroke="#4D1F1F" stroke-width="1.60905" stroke-linecap="round" stroke-linejoin="round"/>
<path d="M384.199 86.3633L397.944 81.2051" stroke="#4D1F1F" stroke-width="1.60905" stroke-linecap="round" stroke-linejoin="round"/>
<path d="M401.186 87.6582C400.291 92.4808 404.103 96.8845 408.991 96.6778" stroke="#FF5B4D" stroke-width="1.60905" stroke-linecap="round" stroke-linejoin="round"/>
<path d="M408.67 87.3262C407.775 92.1488 411.587 96.5525 416.476 96.3457" stroke="#FF5B4D" stroke-width="1.60905" stroke-linecap="round" stroke-linejoin="round"/>
<path d="M416.178 86.998C415.283 91.8206 419.095 96.2244 423.984 96.0176" stroke="#FF5B4D" stroke-width="1.60905" stroke-linecap="round" stroke-linejoin="round"/>
<path d="M423.631 86.6641C422.848 90.8825 425.669 94.7814 429.661 95.552" stroke="#FF5B4D" stroke-width="1.60905" stroke-linecap="round" stroke-linejoin="round"/>
<path d="M355.28 139.32C338.17 147.311 317.855 139.979 309.73 122.946C301.675 106.052 308.681 85.5719 325.402 77.2236C339.89 69.9916 356.884 73.9493 366.863 85.6196L387.132 84.8696C388.47 84.8217 389.21 86.4089 388.31 87.4028C384.297 91.8488 376.496 100.486 374.698 102.476C377.145 117.353 369.583 132.638 355.278 139.318L355.28 139.32Z" fill="#FBFCF9" stroke="#C4F5F5" stroke-width="1.60905" stroke-linecap="round" stroke-linejoin="round"/>
<path d="M351.911 101.837L364.637 103.442L362.074 123.852L349.348 122.247L351.911 101.837Z" fill="#00BFE6" stroke="#00BFE6" stroke-width="1.60905" stroke-linecap="round" stroke-linejoin="round"/>
<path d="M351.931 101.841L350.743 101.692C349.042 101.478 347.559 100.424 346.794 98.8838L344.238 93.7463C344.013 93.293 343.924 92.7814 343.989 92.2779L344.372 89.2244C344.461 88.5206 343.963 87.8774 343.261 87.7883C341.152 87.5235 339.227 89.0211 338.963 91.1324L338.162 97.51C337.984 98.9203 336.701 99.9187 335.296 99.7403L325.116 98.4566C323.709 98.2784 322.428 99.2766 322.25 100.687C322.073 102.097 323.068 103.381 324.475 103.559C323.068 103.381 321.788 104.379 321.61 105.789C321.432 107.2 322.428 108.483 323.835 108.662C322.428 108.483 321.147 109.482 320.97 110.892C320.792 112.302 321.788 113.586 323.195 113.764L330.832 114.728L325.741 114.086C324.334 113.908 323.054 114.906 322.876 116.317C322.698 117.727 323.694 119.011 325.101 119.189L349.378 122.251L351.942 101.84L351.931 101.841Z" fill="#FFE28D"/>
<path d="M324.475 103.559C323.068 103.381 322.073 102.097 322.25 100.687C322.428 99.2766 323.709 98.2784 325.116 98.4566L335.296 99.7403C336.701 99.9187 337.984 98.9203 338.162 97.51L338.963 91.1324C339.227 89.0211 341.152 87.5235 343.261 87.7883C343.963 87.8774 344.461 88.5206 344.372 89.2244L343.989 92.2779C343.924 92.7814 344.013 93.293 344.238 93.7463L346.794 98.8838C347.559 100.424 349.042 101.478 350.743 101.692L351.931 101.841L351.942 101.84L349.378 122.251L325.101 119.189C323.694 119.011 322.698 117.727 322.876 116.317C323.054 114.906 324.334 113.908 325.741 114.086L330.832 114.728L323.195 113.764C321.788 113.586 320.792 112.302 320.97 110.892C321.147 109.482 322.428 108.483 323.835 108.662M324.475 103.559L332.112 104.523M324.475 103.559C323.068 103.381 321.788 104.379 321.61 105.789C321.432 107.2 322.428 108.483 323.835 108.662M323.835 108.662L331.472 109.626" stroke="#FFE28D" stroke-width="1.60905" stroke-miterlimit="10"/>
<path d="M339.716 115.852L337.936 103.152" stroke="#FF5B4D" stroke-width="1.60905" stroke-linecap="round" stroke-linejoin="round"/>
<path d="M338.15 97.5121L337.858 99.8212C337.439 103.17 338.683 106.511 341.187 108.763L341.832 109.345" stroke="#FF5B4D" stroke-width="1.60905" stroke-linecap="round" stroke-linejoin="round"/>
<path d="M332.739 99.4203C334.146 99.5985 335.142 100.885 334.964 102.293C334.786 103.703 333.503 104.701 332.098 104.523L323.216 103.402" stroke="#FF5B4D" stroke-width="1.60905" stroke-linecap="round" stroke-linejoin="round"/>
<path d="M329.553 104.203L332.099 104.525C333.506 104.704 334.502 105.99 334.324 107.397C334.146 108.807 332.863 109.805 331.459 109.627L328.913 109.305" stroke="#FF5B4D" stroke-width="1.60905" stroke-linecap="round" stroke-linejoin="round"/>
<path d="M322.565 108.504L331.455 109.625C332.862 109.803 333.858 111.089 333.68 112.497C333.502 113.907 332.219 114.906 330.815 114.727L323.764 113.837" stroke="#FF5B4D" stroke-width="1.60905" stroke-linecap="round" stroke-linejoin="round"/>
<path d="M328.256 114.411L330.802 114.733C332.209 114.912 333.205 116.198 333.027 117.605C332.849 119.015 331.566 120.013 330.162 119.835L327.616 119.513" stroke="#FF5B4D" stroke-width="1.60905" stroke-linecap="round" stroke-linejoin="round"/>
<path d="M333.031 117.611L332.71 120.163L330.164 119.841C331.571 120.019 332.851 119.021 333.029 117.611L333.031 117.611Z" stroke="#FF5B4D" stroke-width="1.60905" stroke-linecap="round" stroke-linejoin="round"/>
<path d="M332.096 104.529C333.503 104.707 334.783 103.709 334.961 102.299L334.321 107.4C334.499 105.99 333.503 104.707 332.096 104.529Z" stroke="#FF5B4D" stroke-width="1.60905" stroke-linecap="round" stroke-linejoin="round"/>
<path d="M333.719 112.505L333.079 117.606C333.256 116.196 332.261 114.913 330.854 114.735C332.261 114.913 333.541 113.915 333.719 112.505Z" stroke="#FF5B4D" stroke-width="1.60905" stroke-linecap="round" stroke-linejoin="round"/>
<path d="M334.289 107.407L333.649 112.509C333.827 111.099 332.831 109.815 331.424 109.637C332.831 109.815 334.111 108.817 334.289 107.407Z" stroke="#FF5B4D" stroke-width="1.60905" stroke-linecap="round" stroke-linejoin="round"/>
<path d="M349.346 122.254L325.071 119.192" stroke="#FF5B4D" stroke-width="1.60905" stroke-linecap="round" stroke-linejoin="round"/>
<path d="M351.071 122.472L362.072 123.86" stroke="#4D1F1F" stroke-width="1.60905" stroke-linecap="round" stroke-linejoin="round"/>
<path d="M188.77 50.9532C170.902 44.8497 151.489 54.3284 145.239 72.1366C139.04 89.7998 148.202 109.407 165.721 115.908C180.902 121.539 197.371 115.774 206.043 103.097L226.276 101.66C227.612 101.566 228.178 99.9069 227.176 99.0154C222.708 95.0279 214.028 87.2811 212.027 85.4928C212.866 70.4369 203.709 56.0577 188.772 50.9558L188.77 50.9532Z" fill="#FBFCF9" stroke="#C4F5F5" stroke-width="1.60905" stroke-linecap="round" stroke-linejoin="round"/>
<path d="M188.77 50.9532C170.902 44.8497 151.489 54.3284 145.239 72.1366C139.04 89.7998 148.202 109.407 165.721 115.908C180.902 121.539 197.371 115.774 206.043 103.097L226.276 101.66C227.612 101.566 228.178 99.9069 227.176 99.0154C222.708 95.0279 214.028 87.2811 212.027 85.4928C212.866 70.4369 203.709 56.0577 188.772 50.9558L188.77 50.9532Z" fill="#FBFCF9" stroke="#C4F5F5" stroke-width="1.60905" stroke-linecap="round" stroke-linejoin="round"/>
<path d="M181.358 67.7688C178.065 69.2135 175.491 72.5109 175.226 76.195C173.064 74.3207 170.696 72.8814 167.739 73.0372C162.997 73.2869 158.998 76.399 158.365 81.2082C158.073 83.4262 158.483 85.5555 159.501 87.5479C160.985 90.448 164.503 92.1665 167.235 93.6379C169.182 94.6879 171.186 95.6304 173.236 96.4628C175.14 97.2361 180.123 100.284 180.98 102.196C181.042 102.142 181.709 99.3869 183.297 96.8387C184.079 95.5847 184.896 94.3576 185.839 93.2244C188.301 90.2707 191.237 87.5936 192.936 84.084C195.633 78.5123 193.937 69.5088 187.463 67.3929C185.389 66.7162 183.252 66.9337 181.355 67.7661L181.358 67.7688Z" fill="#FF5B4D" stroke="#FF5B4D" stroke-width="1.60905" stroke-linecap="round" stroke-linejoin="round"/>
<path d="M158.373 81.209C158.081 83.427 158.491 85.5563 159.509 87.5487C160.993 90.4487 164.51 92.1672 167.243 93.6387C169.19 94.6886 171.194 95.6311 173.243 96.4635C175.148 97.2369 180.131 100.285 180.988 102.196C181.049 102.143 181.716 99.3877 183.305 96.8395C184.087 95.5855 184.904 94.3584 185.847 93.2252C188.309 90.2715 191.245 87.5944 192.943 84.0848" stroke="#4D1F1F" stroke-width="1.60905" stroke-linecap="round" stroke-linejoin="round"/>
</svg>
