<svg width="622" height="391" viewBox="0 0 622 391" fill="none" xmlns="http://www.w3.org/2000/svg">
<path d="M113.032 233.574L127.199 201.166L123.15 154.898L83.9198 195.305C79.7883 199.562 77.0836 204.99 76.1756 210.851L69.1953 255.976L99.2783 246.084C105.432 244.062 110.429 239.512 113.023 233.579L113.032 233.574Z" fill="#FFBB99" stroke="#FFBB99" stroke-width="3.74184" stroke-linecap="round" stroke-linejoin="round"/>
<path d="M120.044 195.445L108.86 211.726L106.429 233.243C105.68 239.882 101.13 245.474 94.7891 247.559L99.2905 246.079C105.444 244.057 110.441 239.507 113.035 233.574L127.202 201.166L125.04 176.459C125.626 183.175 123.863 189.886 120.044 195.445Z" fill="#FF5C4D" stroke="#FF5C4D" stroke-width="3.74184" stroke-linecap="round" stroke-linejoin="round"/>
<path d="M108.859 211.726L113.836 211.187C118.064 210.731 121.749 208.103 123.565 204.26L126.313 198.438" stroke="#FF5C4D" stroke-width="3.74184" stroke-linecap="round" stroke-linejoin="round"/>
<path d="M416.995 90.8292L124.508 116.419C121.984 116.639 120.117 118.865 120.337 121.389L138.73 331.614C138.95 334.138 141.176 336.005 143.7 335.784L436.187 310.195C438.712 309.974 440.579 307.749 440.358 305.225L421.966 94.9997C421.745 92.4755 419.52 90.6083 416.995 90.8292Z" fill="#FFE28D" stroke="#FFE28D" stroke-width="3.74184" stroke-linecap="round" stroke-linejoin="round"/>
<path d="M423.931 187.082L426.41 205.673C427.836 216.386 421.067 226.484 410.614 229.228L405.594 230.544L407.405 237.438C408.596 241.978 408.438 246.618 407.078 250.879L436.162 257.274L440.356 305.218C440.577 307.74 438.708 309.969 436.186 310.19L365.787 316.349L357.116 295.029C355.535 291.147 355.622 286.79 357.346 282.971L362.708 271.119L362.746 271.138C362.857 270.826 362.977 270.518 363.116 270.211C364.629 266.867 367.517 264.571 370.812 263.697C365.931 260.497 362.319 255.568 360.772 249.678L358.961 242.785L353.94 244.101C343.487 246.849 332.63 241.382 328.609 231.351L321.628 213.941C320.298 210.626 317.9 207.845 314.816 206.043L309.844 203.142C308.609 202.421 308.859 200.562 310.247 200.201L319.827 197.684C322.772 196.911 325.899 197.867 327.907 200.153L344.803 219.398C346.97 221.868 350.342 222.896 353.518 222.065L364.332 219.226L332.543 98.2113L344.683 97.1496L356.823 96.0879L387.122 211.429L387.199 211.443L387.636 213.105L400.151 209.819C403.326 208.983 405.757 206.427 406.429 203.214L411.685 178.146C412.31 175.167 414.563 172.799 417.508 172.026L423.926 187.072L423.931 187.082Z" fill="#FF5C4D" stroke="#FF5C4D" stroke-width="3.74184" stroke-linecap="round" stroke-linejoin="round"/>
<path d="M440.366 305.223C440.587 307.745 438.718 309.974 436.196 310.195L143.711 335.786C141.189 336.007 138.959 334.138 138.738 331.616L120.344 121.391" stroke="#FF5C4D" stroke-width="3.74184" stroke-linecap="round" stroke-linejoin="round"/>
<path d="M327.391 224.731L296.789 204.174C285.97 196.91 271.543 198.222 262.219 207.325L236.008 232.902" fill="#FFE28D"/>
<path d="M327.391 224.731L296.789 204.174C285.97 196.91 271.543 198.222 262.219 207.325L236.008 232.902" stroke="#FF5C4D" stroke-width="3.74184" stroke-linecap="round" stroke-linejoin="round"/>
<path d="M479.408 366.825L441.562 356.304L380.531 262.187L396.687 233.824L457.286 243.552C464.295 244.677 470.799 247.895 475.945 252.781L619.399 388.918L514.92 388.88L497.034 381.953" fill="#FFBB99"/>
<path d="M479.408 366.825L441.562 356.304L380.531 262.187L396.687 233.824L457.286 243.552C464.295 244.677 470.799 247.895 475.945 252.781L619.399 388.918L514.92 388.88L497.034 381.953" stroke="#FFBB99" stroke-width="3.74184" stroke-linecap="round" stroke-linejoin="round"/>
<path d="M437.621 271.348L465.667 288.499L464.24 284.266C464.24 284.266 474.031 279.506 475.77 278.66C471.307 280.831 466.046 280.558 461.828 277.944L447.969 269.35C442.886 266.198 440.417 260.121 441.863 254.318C440.556 259.559 435.046 262.557 429.939 260.808L418.568 256.917C413.149 255.063 408.916 250.763 407.144 245.315L404.891 238.383L405.193 258.896L431.241 268.283C433.465 269.086 435.603 270.109 437.621 271.343V271.348Z" fill="#FF5C4D" stroke="#FF5C4D" stroke-width="3.74184" stroke-linecap="round" stroke-linejoin="round"/>
<path d="M368.593 258.983L363.919 271.118C362.415 275.029 362.578 279.386 364.375 283.172L389.789 336.675C391.609 340.508 395.006 343.367 399.094 344.5L455.191 360.094C457.497 360.709 459.894 359.46 460.706 357.217L460.74 357.125C461.523 354.964 461.403 352.605 460.408 350.554C453.952 337.29 429.662 287.279 429.662 287.279L368.588 258.983H368.593Z" fill="#FFBB99" stroke="#FFBB99" stroke-width="3.74184" stroke-linecap="round" stroke-linejoin="round"/>
<path d="M393.155 270.359L377.945 263.312L403.003 340.431C403.791 342.857 401.562 345.182 399.107 344.5L410.738 347.733L418.775 349.223L393.15 270.359H393.155Z" fill="#FF5C4D" stroke="#FF5C4D" stroke-width="3.74184" stroke-linecap="round" stroke-linejoin="round"/>
<path d="M386.461 318.232C393.806 314.436 397.328 305.876 394.772 298.011L384.482 266.348L377.943 263.316L387.191 291.776C389.747 299.64 387.403 307.816 381.657 311.093C380.163 311.948 378.294 311.371 377.055 309.853L380 316.051C381.153 318.472 384.078 319.461 386.461 318.232Z" fill="#FF5C4D" stroke="#FF5C4D" stroke-width="3.74184" stroke-linecap="round" stroke-linejoin="round"/>
<path d="M460.418 350.553C453.962 337.289 429.672 287.278 429.672 287.278L397.648 272.443L423.24 351.211L455.196 360.093C457.502 360.708 459.899 359.459 460.711 357.216L460.745 357.124C461.528 354.963 461.408 352.604 460.413 350.553H460.418Z" fill="#FF5C4D" stroke="#FF5C4D" stroke-width="3.74184" stroke-linecap="round" stroke-linejoin="round"/>
<path d="M389.789 336.674C391.61 340.507 395.006 343.366 399.095 344.5L469.882 364.177" stroke="#4D1F1F" stroke-width="3.74184" stroke-linecap="round" stroke-linejoin="round"/>
<path d="M376.844 309.406L380 316.05C381.153 318.472 384.079 319.461 386.461 318.231C393.807 314.436 397.328 305.875 394.772 298.011L379.914 252.286" stroke="#4D1F1F" stroke-width="3.74184" stroke-linecap="round" stroke-linejoin="round"/>
<path d="M452.695 340.475C449.265 335.31 444.321 331.323 438.547 329.07L408.406 317.295L417.726 286.856L440.93 296.407L452.7 340.475" fill="#4D1F1F"/>
<path d="M452.695 340.475C449.265 335.31 444.321 331.323 438.547 329.07L408.406 317.295L417.726 286.856L440.93 296.407L452.7 340.475" stroke="#4D1F1F" stroke-width="3.74184" stroke-linecap="round" stroke-linejoin="round"/>
<path d="M339.495 43.9779L313.227 2L381.516 212.173L392.94 208.459L339.495 43.9779Z" fill="#C4F5F5"/>
<path d="M316.652 51.4001L370.097 215.881L393.008 208.44L389.616 198.006L376.318 196.166L313.227 2L316.652 51.4001Z" fill="#00BFE6"/>
<path d="M313.227 2L316.652 51.4001L370.097 215.881L381.516 212.173L392.94 208.459L339.495 43.9779L313.227 2Z" stroke="#00BFE6" stroke-width="3.74184" stroke-linecap="round" stroke-linejoin="round"/>
<path d="M371.33 213.46L318.557 51.0297L315.68 9.53711L337.745 44.7941L390.522 207.224L371.33 213.46Z" stroke="#C4F5F5" stroke-width="3.74184" stroke-miterlimit="10" stroke-linecap="round"/>
<path d="M389.744 204.827L337.745 44.7941L315.68 9.53711" stroke="#FBFCF9" stroke-width="3.74184" stroke-linecap="round" stroke-linejoin="round"/>
<path d="M313.227 2L316.652 51.4001L370.097 215.881" stroke="#4D1F1F" stroke-width="3.74184" stroke-linecap="round" stroke-linejoin="round"/>
<path d="M368.094 216.53L412.723 353.888C414.65 359.816 420.218 363.323 425.161 361.718L434.111 358.812C439.054 357.207 441.5 351.096 439.569 345.168L394.939 207.811L368.094 216.535V216.53Z" fill="#4D1F1F" stroke="#4D1F1F" stroke-width="3.74184" stroke-linecap="round" stroke-linejoin="round"/>
<path d="M403.492 325.448C413.586 322.171 420.993 313.582 422.632 303.267L422.949 301.283" stroke="#FF5C4D" stroke-width="3.74184" stroke-linecap="round" stroke-linejoin="round"/>
<path d="M394.938 299.132C404.992 295.865 412.376 287.309 414.01 277.033L414.322 275.054" stroke="#FF5C4D" stroke-width="3.74184" stroke-linecap="round" stroke-linejoin="round"/>
<path d="M412.016 351.702C422.071 348.435 429.454 339.879 431.088 329.603L431.4 327.624" stroke="#FF5C4D" stroke-width="3.74184" stroke-linecap="round" stroke-linejoin="round"/>
<path d="M386.375 272.819C396.468 269.542 403.876 260.953 405.514 250.638L405.831 248.654" stroke="#FF5C4D" stroke-width="3.74184" stroke-linecap="round" stroke-linejoin="round"/>
<path d="M392.789 208.508L437.419 345.865C438.961 350.612 436.362 355.704 431.62 357.246" stroke="#FF5C4D" stroke-width="3.74184" stroke-linecap="round" stroke-linejoin="round"/>
<path d="M440.201 260.952L438.717 266.919C438.058 269.556 439.192 272.314 441.508 273.731L458.269 283.978C460.08 285.083 462.328 285.193 464.236 284.266L475.765 278.66" stroke="#4D1F1F" stroke-width="3.74184" stroke-linecap="round" stroke-linejoin="round"/>
<path d="M437.609 271.349L451.517 279.852L441.505 273.727C439.19 272.31 438.056 269.552 438.714 266.915L439.425 264.057C438.541 267.607 434.77 269.577 431.335 268.323C431.302 268.308 431.268 268.299 431.234 268.284C433.459 269.086 435.596 270.11 437.614 271.344L437.609 271.349Z" fill="#4D1F1F" stroke="#4D1F1F" stroke-width="3.74184" stroke-linecap="round" stroke-linejoin="round"/>
<path d="M467.811 289.729L466.942 289.211C464.458 287.726 464.617 284.08 467.22 282.816L464.232 284.272C462.325 285.199 460.077 285.094 458.266 283.984L465.659 288.504C466.365 288.937 467.086 289.345 467.816 289.734L467.811 289.729Z" fill="#4D1F1F" stroke="#4D1F1F" stroke-width="3.74184" stroke-linecap="round" stroke-linejoin="round"/>
<path d="M127.391 123.072L263.024 214.479C273.813 221.781 288.25 220.523 297.608 211.453L415.307 97.8799" fill="#FFE28D"/>
<path d="M127.391 123.072L263.024 214.479C273.813 221.781 288.25 220.523 297.608 211.453L415.307 97.8799" stroke="#FF5C4D" stroke-width="3.74184" stroke-linecap="round" stroke-linejoin="round"/>
<path d="M127.391 123.072L147.697 121.78L154.173 120.06L160.788 119.897L167.384 119.536L174 119.416L180.576 118.792L187.067 117.192L193.711 117.394L200.244 116.274L206.903 116.649L213.431 115.477L220.085 115.784L226.59 114.362L233.075 112.705L239.791 113.709L246.267 111.941L259.526 111.965L279.127 108.727L292.381 108.665L358.98 102.813" stroke="#FF5C4D" stroke-width="3.74184" stroke-linecap="round" stroke-linejoin="round"/>
<path d="M166.299 140.842C159.977 138.781 153.121 141.861 150.455 147.952L127.194 201.167L113.027 233.575C110.432 239.508 105.431 244.057 99.2822 246.08L69.1992 255.971L62.7713 297.531C61.9306 302.96 59.8264 308.119 56.6269 312.582L2 388.847L109.548 388.876L139.199 338.332L147.126 324.823C154.942 311.497 158.42 296.066 157.075 280.679L154.111 246.781C153.525 240.08 154.12 233.325 155.864 226.83L174.783 156.484C176.57 149.845 172.842 142.97 166.308 140.842H166.299Z" fill="#FFBB99" stroke="#FFBB99" stroke-width="3.74184" stroke-linecap="round" stroke-linejoin="round"/>
<path d="M139.898 187.466C146.514 187.773 153.038 189.868 158.596 193.466" stroke="#FF5C4D" stroke-width="3.74184" stroke-linecap="round" stroke-linejoin="round"/>
<path d="M152.875 163.513C156.834 163.839 160.701 165.233 163.953 167.51" stroke="#FF5C4D" stroke-width="3.74184" stroke-linecap="round" stroke-linejoin="round"/>
<path d="M127.201 201.162L113.033 233.57C110.439 239.503 105.438 244.053 99.2891 246.075" stroke="#4D1F1F" stroke-width="3.74184" stroke-linecap="round" stroke-linejoin="round"/>
<path d="M109.555 388.875L139.205 338.332L147.132 324.823C154.948 311.496 158.426 296.066 157.081 280.678L154.117 246.781C153.531 240.079 154.127 233.325 155.871 226.83L174.789 156.484C176.576 149.845 172.848 142.97 166.315 140.842" stroke="#FF5C4D" stroke-width="3.74184" stroke-linecap="round" stroke-linejoin="round"/>
<path d="M166.709 162.422C162.645 160.097 157.884 158.584 153.229 157.95C152.047 157.786 151.336 156.552 151.783 155.442L157.673 140.924C159.326 136.855 163.837 134.746 168.016 136.101C172.282 137.48 174.708 141.971 173.522 146.3L169.395 161.322C169.078 162.48 167.752 163.023 166.709 162.427V162.422Z" fill="#FFBB99" stroke="#FF5C4D" stroke-width="3.74184" stroke-linecap="round" stroke-linejoin="round"/>
<path d="M166.299 140.842C169.417 141.856 171.891 143.951 173.433 146.583L173.51 146.295C174.696 141.971 172.27 137.475 168.004 136.096C163.825 134.746 159.309 136.85 157.661 140.919L157.594 141.087C160.294 140.031 163.354 139.877 166.299 140.838V140.842Z" fill="#FBFCF9" stroke="#FFBB99" stroke-width="3.74184" stroke-linecap="round" stroke-linejoin="round"/>
<path d="M153.602 156.062L159.448 141.65C160.366 139.387 162.446 137.855 164.877 137.638C165.737 137.561 166.592 137.662 167.423 137.927" stroke="#FBFCF9" stroke-width="3.74184" stroke-linecap="round" stroke-linejoin="round"/>
<path d="M108.859 211.726L115.326 213.028C118.909 213.749 122.517 211.875 123.983 208.522L127.201 201.162" stroke="#4D1F1F" stroke-width="3.74184" stroke-linecap="round" stroke-linejoin="round"/>
<path d="M139.196 338.331L147.123 324.822C153.416 314.095 156.895 302.003 157.308 289.666C156.582 309.367 145.101 330.717 128.186 341.151C124.914 343.169 122.099 345.854 119.947 349.039L93.0391 388.798L109.551 388.87L139.201 338.326L139.196 338.331Z" fill="#FF5C4D" stroke="#FF5C4D" stroke-width="3.74184" stroke-linecap="round" stroke-linejoin="round"/>
<path d="M108.855 211.726L99.7422 212.524L101.313 212.384C106.088 211.966 110.431 209.435 113.146 205.481L120.044 195.44L108.86 211.721L108.855 211.726Z" fill="#4D1F1F" stroke="#4D1F1F" stroke-width="3.74184" stroke-linecap="round" stroke-linejoin="round"/>
<path d="M87.5938 149.177L97.1298 151.603" stroke="#FFBB99" stroke-width="3.74184" stroke-linecap="round" stroke-linejoin="round"/>
<path d="M97.6562 132.877L103.378 139.641" stroke="#FFBB99" stroke-width="3.74184" stroke-linecap="round" stroke-linejoin="round"/>
<path d="M120.07 108.093C165.536 54.0332 230.53 16.7633 300.15 4.8252" stroke="#00BFE6" stroke-width="3.74184" stroke-linecap="round" stroke-linejoin="round"/>
<path d="M231.969 74.1576C253.4 61.9457 277.478 52.9429 302.694 47.9707" stroke="#00BFE6" stroke-width="3.74184" stroke-linecap="round" stroke-linejoin="round"/>
<path d="M432.328 224.552L442.08 218.312" stroke="#FFBB99" stroke-width="3.74184" stroke-linecap="round" stroke-linejoin="round"/>
<path d="M495.342 298.756L476.068 293.111C472.412 292.04 468.915 290.488 465.662 288.504L437.616 271.353C435.599 270.119 433.461 269.095 431.236 268.293L383.893 251.229C377.883 249.062 371.243 252.099 368.947 258.06C366.814 263.604 369.077 269.878 374.265 272.78L422.488 299.76C425.318 301.345 427.739 303.569 429.555 306.255L462.496 354.997C470.591 366.973 482.15 376.187 495.63 381.409L514.928 388.88" fill="#FFBB99"/>
<path d="M495.342 298.756L476.068 293.111C472.412 292.04 468.915 290.488 465.662 288.504L437.616 271.353C435.599 270.119 433.461 269.095 431.236 268.293L383.893 251.229C377.883 249.062 371.243 252.099 368.947 258.06C366.814 263.604 369.077 269.878 374.265 272.78L422.488 299.76C425.318 301.345 427.739 303.569 429.555 306.255L462.496 354.997C470.591 366.973 482.15 376.187 495.63 381.409L514.928 388.88" stroke="#FF5C4D" stroke-width="3.74184" stroke-linecap="round" stroke-linejoin="round"/>
<path d="M383.342 272.801C384.403 273.343 385.7 272.748 385.965 271.58C387.002 266.997 388.929 262.39 391.605 258.542C392.292 257.557 391.869 256.188 390.74 255.77L377.385 250.803C373.666 251.629 370.423 254.238 368.958 258.052C368.06 260.382 367.949 262.832 368.497 265.114C368.785 265.311 369.078 265.494 369.395 265.657L383.342 272.796V272.801Z" fill="#FFBB99" stroke="#FF5C4D" stroke-width="3.74184" stroke-linecap="round" stroke-linejoin="round"/>
<path d="M368.956 258.056C370.422 254.247 373.664 251.633 377.383 250.807L376.134 250.341C371.93 248.78 367.241 250.802 365.493 254.929C363.917 258.647 365.233 262.894 368.49 265.114C367.948 262.832 368.058 260.382 368.952 258.052L368.956 258.056Z" fill="#FBFCF9" stroke="#FFBB99" stroke-width="3.74184" stroke-linecap="round" stroke-linejoin="round"/>
<path d="M389.214 257.306L375.215 252.099C374.686 251.902 374.12 251.806 373.558 251.83C372.433 251.883 370.579 252.181 369.383 253.492" stroke="#FBFCF9" stroke-width="3.74184" stroke-linecap="round" stroke-linejoin="round"/>
<path d="M395.172 260.904C393.034 264.493 391.521 268.451 390.719 272.549" stroke="#FF5C4D" stroke-width="3.74184" stroke-linecap="round" stroke-linejoin="round"/>
<path d="M433.706 274.842C430.276 279.012 427.854 284.013 426.711 289.292" stroke="#FF5C4D" stroke-width="3.74184" stroke-linecap="round" stroke-linejoin="round"/>
</svg>
