<svg width="320.000000" height="320.000000" viewBox="0 0 320 320" fill="none" xmlns="http://www.w3.org/2000/svg" xmlns:xlink="http://www.w3.org/1999/xlink">
	<desc>
			Created with Pixso.
	</desc>
	<defs>
		<clipPath id="clip379_80248">
			<rect id="Background" rx="-1.896184" width="316.207581" height="316.207611" transform="translate(1.896184 1.896184)" fill="white" fill-opacity="0"/>
		</clipPath>
		<clipPath id="clip379_80250">
			<rect id="Outfit" rx="-1.896184" width="316.207611" height="316.207611" transform="translate(1.896184 1.896184)" fill="white" fill-opacity="0"/>
		</clipPath>
		<clipPath id="clip379_80251">
			<rect id="Hair" rx="-1.896184" width="316.207611" height="316.207611" transform="translate(1.896184 1.896184)" fill="white" fill-opacity="0"/>
		</clipPath>
		<clipPath id="clip379_80252">
			<rect id="Eye" rx="-1.896184" width="316.207611" height="316.207611" transform="translate(1.896184 1.896184)" fill="white" fill-opacity="0"/>
		</clipPath>
		<clipPath id="clip379_80254">
			<rect id="Mouth" rx="-1.896184" width="316.207611" height="316.207611" transform="translate(1.896184 1.896184)" fill="white" fill-opacity="0"/>
		</clipPath>
	</defs>
	<rect id="Background" rx="-1.896184" width="316.207581" height="316.207611" transform="translate(1.896184 1.896184)" fill="#FFFFFF" fill-opacity="0"/>
	<g clip-path="url(#clip379_80248)">
		<path id="Vector" d="M320 160C320 248.36 248.36 320 160 320C71.63 320 0 248.36 0 160C0 71.63 71.63 0 160 0C248.36 0 320 71.63 320 160Z" fill="#C4F5F5" fill-opacity="1.000000" fill-rule="evenodd"/>
	</g>
	<path id="Vector" d="M287.56 256.62C258.55 249.46 219.53 240.77 207.81 238.16C205.04 226.63 201.82 211.76 198.59 193.6C191.84 155.33 192.71 135.95 192.71 135.95C192.71 135.95 196.24 134.36 200.03 131.29C202.99 128.9 206.1 125.6 207.85 121.43C211.68 112.36 209.1 104.93 203.1 101.97C197.57 99.24 189.94 105.88 189.94 105.88C189.94 105.88 194.87 69.28 171.06 58.66C147.51 48.16 123.28 54.76 116.22 82.97C102.61 137.24 113.15 166.97 128.51 175.09C133.85 177.9 139.51 177.33 139.51 177.33L139.58 177.25L134.88 238.08C120.39 241.3 63.43 254.01 36.2 261.4C65.55 297.17 110.08 320 159.95 320C209.82 320 258.28 295.08 287.52 256.55L287.56 256.62Z" fill="#FFBB99" fill-opacity="1.000000" fill-rule="nonzero"/>
	<g opacity="0.200000">
		<path id="Vector" d="M139.59 177.33C139.59 177.33 153.69 177.82 169.39 159.35L169.39 173.91C169.39 173.91 157.11 190.79 137.96 198.37L139.59 177.33Z" fill="#4D1F1F" fill-opacity="1.000000" fill-rule="nonzero"/>
	</g>
	<path id="Vector" d="M119.97 132.69L120.05 132.69C120.05 132.69 120.01 132.69 119.97 132.69Z" fill="#4D1F1F" fill-opacity="1.000000" fill-rule="nonzero"/>
	<path id="Vector" d="M119.99 132.69L120.06 132.69C120.06 132.69 120.03 132.69 119.99 132.69Z" fill="#4D1F1F" fill-opacity="1.000000" fill-rule="nonzero"/>
	<path id="Vector" d="M191.32 116.57C191.13 116.57 190.94 116.57 190.75 116.46C189.96 116.15 189.54 115.21 189.88 114.41C191.85 109.44 196.48 108.3 196.67 108.27C197.5 108.08 198.34 108.61 198.57 109.44C198.75 110.28 198.23 111.11 197.39 111.34C197.24 111.34 194.17 112.17 192.8 115.59C192.57 116.19 191.97 116.57 191.32 116.57Z" fill="#4D1F1F" fill-opacity="1.000000" fill-rule="nonzero"/>
	<path id="Vector" d="M128.75 136.06C128.75 136.06 128.59 136.06 128.52 136.06C128.52 136.06 122.07 135.15 120.48 134.74C119.76 134.55 119.41 133.98 119.41 133.98C119.07 133.45 119 132.8 119.19 132.23L127 108.87C127.27 108.04 128.14 107.58 128.97 107.89C129.8 108.15 130.22 109.06 129.96 109.86L122.56 131.97L128.93 132.95C129.8 133.07 130.37 133.9 130.26 134.74C130.15 135.53 129.46 136.06 128.71 136.06L128.75 136.06Z" fill="#4D1F1F" fill-opacity="1.000000" fill-rule="nonzero"/>
	<g clip-path="url(#clip379_80250)">
		<path id="Vector" d="M155.89 271.38C151.68 271.38 130.25 249.57 126.88 239.82C105.64 244.56 59.79 254.96 36.2 261.37C65.55 297.13 110.08 320 159.98 320C209.89 320 258.32 295.08 287.56 256.59C263.37 250.59 232.23 243.58 215.73 239.9C212.55 239.41 209.59 238.95 206.86 238.54C192.45 249.5 164.27 271.41 155.89 271.41L155.89 271.38Z" fill="#47D3FF" fill-opacity="1.000000" fill-rule="nonzero"/>
		<path id="Vector" d="M206.57 233.23L155.9 271.34L173.42 288.29C175.39 290.07 178.43 289.85 180.13 287.8L221.89 240.85L206.6 233.23L206.57 233.23Z" fill="#0C6FFF" fill-opacity="1.000000" fill-rule="nonzero"/>
		<path id="Vector" d="M134.88 234.67L155.89 271.34L129.72 283.28C126.77 285.52 122.52 283.59 122.29 279.91L118.19 241.42L134.88 234.67Z" fill="#0C6FFF" fill-opacity="1.000000" fill-rule="nonzero"/>
		<path id="Vector" d="M155.89 286.66C155.89 288.44 154.43 289.88 152.63 289.88C150.83 289.88 149.37 288.44 149.37 286.66C149.37 284.88 150.83 283.44 152.63 283.44C154.43 283.44 155.89 284.88 155.89 286.66Z" fill="#FFFFFF" fill-opacity="1.000000" fill-rule="evenodd"/>
		<path id="Vector" d="M154.11 304.03C154.11 305.81 152.65 307.25 150.85 307.25C149.05 307.25 147.59 305.81 147.59 304.03C147.59 302.25 149.05 300.81 150.85 300.81C152.65 300.81 154.11 302.25 154.11 304.03Z" fill="#FFFFFF" fill-opacity="1.000000" fill-rule="evenodd"/>
	</g>
	<g clip-path="url(#clip379_80251)">
		<path id="Vector" d="M204.62 77.65C203.84 71.6 201.78 64.68 197 59.12C179.09 38.18 112.23 43.3 114.41 91.81C114.41 91.81 120.26 72.58 129.14 76.16C134.97 79.49 136.9 81.41 140.67 81.24C150.48 80.76 151.73 75.88 162.68 75.22C168.73 74.87 179.55 77.37 182.61 94.32C183.94 101.68 178.83 112.21 181.46 118.47C182.38 120.71 186.23 119.79 186.93 118.47C186.93 118.47 187 108.74 192.32 104.25C194.75 102.19 198.71 101.11 201.96 101.84C204.94 92.02 205.34 83.09 204.62 77.65Z" fill="#4D1F1F" fill-opacity="1.000000" fill-rule="nonzero"/>
	</g>
	<g clip-path="url(#clip379_80252)">
		<path id="Vector" d="M121.99 103.69C122.93 104.63 122.93 106.14 121.99 107.07C121.06 108.01 119.55 108.01 118.61 107.08C117.68 106.14 117.68 104.63 118.61 103.7C119.54 102.76 121.06 102.76 121.99 103.69Z" fill="#4D1F1F" fill-opacity="1.000000" fill-rule="evenodd"/>
		<path id="Vector" d="M143.96 106.84C144.89 107.78 144.89 109.29 143.96 110.22C143.03 111.16 141.52 111.16 140.58 110.22C139.65 109.29 139.65 107.78 140.58 106.84C141.51 105.91 143.03 105.91 143.96 106.84Z" fill="#4D1F1F" fill-opacity="1.000000" fill-rule="evenodd"/>
	</g>
	<g clip-path="url(#clip379_80254)">
		<path id="Vector" d="M132.25 147.68C131.45 147.68 130.81 147.08 130.73 146.28C130.66 145.45 131.27 144.69 132.14 144.61C132.17 144.61 136.87 144.12 138.81 140.44C139.23 139.68 140.14 139.42 140.9 139.8C141.66 140.17 141.96 141.12 141.54 141.88C138.85 147.04 132.7 147.64 132.44 147.68C132.4 147.68 132.36 147.68 132.29 147.68L132.25 147.68Z" fill="#4D1F1F" fill-opacity="1.000000" fill-rule="nonzero"/>
	</g>
</svg>
