<svg width="585" height="268" viewBox="0 0 585 268" fill="none" xmlns="http://www.w3.org/2000/svg">
<path d="M91.3088 267.001C140.952 267.001 181.196 266.125 181.196 265.044C181.196 263.962 140.952 263.086 91.3088 263.086C41.6656 263.086 1.42188 263.962 1.42188 265.044C1.42188 266.125 41.6656 267.001 91.3088 267.001Z" fill="#4D1F1F" stroke="#4D1F1F" stroke-width="1.53541" stroke-linecap="round" stroke-linejoin="round"/>
<path d="M169.689 123.973H59.9688V163.16H169.689V123.973Z" fill="#FFE88C"/>
<path d="M12.9453 241.535H59.9673V202.352H12.9453" fill="#FFE88C"/>
<path d="M12.9453 241.535H59.9673V202.352H12.9453" stroke="#4D1F1F" stroke-width="1.53541" stroke-linecap="round" stroke-linejoin="round"/>
<path d="M169.693 202.352H59.9688V241.535H169.693" fill="#FFE88C"/>
<path d="M169.693 202.352H59.9688V241.535H169.693" stroke="#FF5C4D" stroke-width="1.53541" stroke-linecap="round" stroke-linejoin="round"/>
<path d="M12.9453 202.352H59.9673V163.164H12.9453" fill="#FFE88C"/>
<path d="M12.9453 202.352H59.9673V163.164H12.9453" stroke="#FF5C4D" stroke-width="1.53541" stroke-linecap="round" stroke-linejoin="round"/>
<path d="M169.693 163.164H59.9688V202.352H169.693" fill="#FFE88C"/>
<path d="M169.693 163.164H59.9688V202.352H169.693" stroke="#FF5C4D" stroke-width="1.53541" stroke-linecap="round" stroke-linejoin="round"/>
<path d="M59.9673 123.977H12.9453V163.164H59.9673V123.977Z" fill="#FFE88C"/>
<path d="M12.9453 163.164H59.9673V123.977" stroke="#FF5C4D" stroke-width="1.53541" stroke-linecap="round" stroke-linejoin="round"/>
<path d="M169.69 241.539H122.664V265.054L130.502 249.377H161.852L169.69 265.054" fill="#4D1F1F"/>
<path d="M169.69 241.539H122.664V265.054L130.502 249.377H161.852L169.69 265.054" stroke="#4D1F1F" stroke-width="1.53541" stroke-linecap="round" stroke-linejoin="round"/>
<path d="M59.9673 241.539H12.9453V265.054L20.7836 249.377H52.1329L59.9673 265.054L67.8056 249.377H161.853L169.692 265.054V241.539H59.9673Z" fill="#C4F5F5" stroke="#C4F5F5" stroke-width="1.53541" stroke-linecap="round" stroke-linejoin="round"/>
<path d="M96.4766 145.895L97.8968 144.475C98.1118 144.713 98.3037 144.912 98.4764 145.07C98.6492 145.227 98.8603 145.392 99.1136 145.565C99.3631 145.737 99.6395 145.864 99.9351 145.952C100.231 146.041 100.549 146.083 100.891 146.083C101.559 146.083 102.062 145.918 102.399 145.588C102.737 145.258 102.906 144.878 102.906 144.44C102.906 144.183 102.841 143.952 102.707 143.745C102.576 143.538 102.396 143.365 102.177 143.219C101.954 143.073 101.697 142.939 101.409 142.816C101.121 142.693 100.814 142.567 100.499 142.444C100.181 142.321 99.8622 142.191 99.5436 142.052C99.225 141.914 98.9179 141.749 98.6261 141.553C98.3344 141.361 98.0772 141.147 97.8508 140.909C97.6281 140.671 97.4477 140.379 97.3134 140.022C97.179 139.669 97.1138 139.273 97.1138 138.84C97.1138 137.742 97.5015 136.874 98.273 136.237C99.0445 135.6 100.043 135.281 101.271 135.281C102.499 135.281 103.601 135.669 104.703 136.448L103.532 138.152C102.856 137.577 102.065 137.289 101.163 137.289C100.599 137.289 100.165 137.404 99.8506 137.638C99.5397 137.872 99.3823 138.199 99.3823 138.617C99.3823 138.947 99.4898 139.235 99.7048 139.481C99.9197 139.726 100.196 139.926 100.538 140.079C100.879 140.233 101.256 140.386 101.67 140.532C102.085 140.678 102.495 140.851 102.906 141.043C103.317 141.235 103.693 141.461 104.031 141.722C104.372 141.983 104.649 142.336 104.86 142.778C105.075 143.223 105.179 143.738 105.179 144.333C105.179 145.469 104.806 146.378 104.065 147.058C103.325 147.737 102.261 148.079 100.879 148.079C100.33 148.079 99.8238 148.021 99.3555 147.906C98.891 147.791 98.3997 147.568 97.8853 147.231C97.3709 146.893 96.9026 146.444 96.4804 145.883L96.4766 145.895Z" fill="#FF5C4D"/>
<path d="M106.039 143.931C106.039 142.775 106.465 141.796 107.313 140.99C108.162 140.184 109.191 139.781 110.403 139.781C111.202 139.781 111.939 139.966 112.611 140.334C113.282 140.702 113.812 141.205 114.196 141.839C114.58 142.476 114.776 143.171 114.776 143.927C114.776 144.683 114.584 145.37 114.196 146.007C113.812 146.645 113.282 147.151 112.611 147.524C111.939 147.896 111.202 148.08 110.403 148.08C109.605 148.08 108.876 147.896 108.204 147.524C107.532 147.151 107.003 146.645 106.619 146.007C106.231 145.37 106.039 144.675 106.039 143.927V143.931ZM108.127 143.931C108.127 144.522 108.35 145.032 108.799 145.466C109.248 145.896 109.782 146.115 110.403 146.115C111.025 146.115 111.574 145.9 112.02 145.466C112.465 145.036 112.687 144.522 112.687 143.931C112.687 143.34 112.465 142.837 112.02 142.403C111.574 141.973 111.037 141.754 110.403 141.754C109.77 141.754 109.248 141.969 108.799 142.403C108.35 142.833 108.127 143.343 108.127 143.931Z" fill="#FF5C4D"/>
<path d="M114.766 139.934H117.092L119.188 145.315L121.303 139.934H123.621L120.316 147.868H118.082L114.766 139.934Z" fill="#FF5C4D"/>
<path d="M123.617 143.973C123.617 143.413 123.717 142.879 123.916 142.372C124.116 141.866 124.396 141.417 124.757 141.037C125.118 140.653 125.567 140.349 126.104 140.123C126.642 139.896 127.229 139.785 127.866 139.785C128.657 139.785 129.367 139.977 130.004 140.357C130.642 140.737 131.137 141.244 131.486 141.869C131.835 142.499 132.012 143.182 132.012 143.927C132.012 144.161 131.997 144.38 131.962 144.579H125.686C125.809 145.078 126.074 145.474 126.477 145.773C126.88 146.073 127.379 146.219 127.978 146.219C128.373 146.219 128.749 146.146 129.11 146C129.471 145.854 129.766 145.635 129.997 145.343L131.452 146.457C131.079 146.963 130.588 147.362 129.97 147.654C129.356 147.942 128.695 148.088 127.989 148.088C127.175 148.088 126.435 147.907 125.767 147.55C125.095 147.194 124.569 146.698 124.185 146.065C123.801 145.435 123.609 144.737 123.609 143.977L123.617 143.973ZM125.767 143.067H129.87C129.809 142.664 129.586 142.326 129.202 142.058C128.818 141.789 128.369 141.651 127.859 141.651C127.348 141.651 126.937 141.781 126.565 142.038C126.193 142.296 125.928 142.641 125.77 143.071L125.767 143.067Z" fill="#FF5C4D"/>
<path d="M133.398 147.865V139.931H135.529V140.522C135.924 140.238 136.346 140.046 136.803 139.943C137.256 139.839 137.886 139.785 138.692 139.785V141.758C138.154 141.758 137.698 141.789 137.318 141.846C136.938 141.908 136.63 141.988 136.4 142.096C136.17 142.203 135.989 142.345 135.859 142.534C135.728 142.718 135.64 142.914 135.598 143.117C135.552 143.32 135.529 143.57 135.529 143.862V147.869H133.398V147.865Z" fill="#FF5C4D"/>
<path d="M140.028 138.238C139.767 137.989 139.641 137.682 139.641 137.317C139.641 136.952 139.771 136.645 140.028 136.4C140.289 136.154 140.608 136.027 140.992 136.027C141.376 136.027 141.687 136.15 141.94 136.396C142.193 136.642 142.32 136.949 142.32 137.317C142.32 137.686 142.193 137.997 141.94 138.242C141.687 138.488 141.372 138.615 140.992 138.615C140.612 138.615 140.286 138.488 140.028 138.238ZM139.921 147.869V139.935H142.051V147.869H139.921Z" fill="#FF5C4D"/>
<path d="M144.148 147.865V139.931H146.279V140.522C146.486 140.369 146.663 140.25 146.809 140.165C146.951 140.081 147.173 139.996 147.473 139.912C147.772 139.827 148.094 139.785 148.444 139.785C148.904 139.785 149.334 139.854 149.73 139.989C150.125 140.123 150.478 140.33 150.797 140.599C151.112 140.871 151.361 141.236 151.538 141.697C151.714 142.157 151.802 142.687 151.802 143.29V147.865H149.672V143.631C149.672 142.384 149.104 141.758 147.972 141.758C146.839 141.758 146.279 142.372 146.279 143.601V147.869H144.148V147.865Z" fill="#FF5C4D"/>
<path d="M153.661 147.609C153.4 147.36 153.273 147.053 153.273 146.688C153.273 146.324 153.404 146.016 153.661 145.771C153.922 145.525 154.241 145.398 154.625 145.398C155.008 145.398 155.319 145.521 155.573 145.767C155.826 146.013 155.953 146.32 155.953 146.688C155.953 147.057 155.826 147.368 155.573 147.613C155.319 147.859 155.005 147.986 154.625 147.986C154.245 147.986 153.918 147.859 153.661 147.609Z" fill="#FF5C4D"/>
<path d="M88.5372 145.419C89.0842 145.419 89.5276 144.991 89.5276 144.464C89.5276 143.936 89.0842 143.508 88.5372 143.508C87.9903 143.508 87.5469 143.936 87.5469 144.464C87.5469 144.991 87.9903 145.419 88.5372 145.419Z" fill="#FF5C4D"/>
<path d="M79.6132 139.691V143.764L80.6036 144.24L81.5939 143.764V141.603H91.505V147.61C91.505 149.43 90.4532 151.065 88.7643 151.883L86.5494 152.95L84.3346 151.883C82.7723 151.13 81.7628 149.679 81.6169 148.025L80.6036 148.512L79.6286 148.044C79.7859 150.416 81.2177 152.516 83.4479 153.591L86.5494 155.084L89.651 153.591C92.0155 152.451 93.4857 150.159 93.4857 147.61V139.691H79.6094H79.6132Z" fill="#FF5C4D"/>
<path d="M83.7135 145.946C85.2374 145.213 86.3851 144 87.0108 142.553H84.7806C84.3084 143.259 83.6444 143.843 82.8268 144.238L80.6119 145.305L78.3971 144.238C76.7082 143.424 75.6564 141.789 75.6564 139.966V133.959H85.5675V138.734H87.5482V132.051H73.6719V139.97C73.6719 142.518 75.142 144.81 77.5066 145.95L80.6081 147.443L83.7096 145.95L83.7135 145.946Z" fill="#FF5C4D"/>
<path d="M82.5919 137.783C83.1389 137.783 83.5822 137.355 83.5822 136.827C83.5822 136.299 83.1389 135.871 82.5919 135.871C82.045 135.871 81.6016 136.299 81.6016 136.827C81.6016 137.355 82.045 137.783 82.5919 137.783Z" fill="#FF5C4D"/>
<path d="M79.5742 185.633C81.1642 185.633 82.4531 184.344 82.4531 182.754C82.4531 181.164 81.1642 179.875 79.5742 179.875C77.9842 179.875 76.6953 181.164 76.6953 182.754C76.6953 184.344 77.9842 185.633 79.5742 185.633Z" fill="#00BFE6" stroke="#00BFE6" stroke-width="1.53541" stroke-linecap="round" stroke-linejoin="round"/>
<path d="M94.9258 185.633C96.5157 185.633 97.8047 184.344 97.8047 182.754C97.8047 181.164 96.5157 179.875 94.9258 179.875C93.3358 179.875 92.0469 181.164 92.0469 182.754C92.0469 184.344 93.3358 185.633 94.9258 185.633Z" fill="#00BFE6" stroke="#00BFE6" stroke-width="1.53541" stroke-linecap="round" stroke-linejoin="round"/>
<path d="M110.27 185.633C111.859 185.633 113.148 184.344 113.148 182.754C113.148 181.164 111.859 179.875 110.27 179.875C108.68 179.875 107.391 181.164 107.391 182.754C107.391 184.344 108.68 185.633 110.27 185.633Z" fill="#00BFE6" stroke="#00BFE6" stroke-width="1.53541" stroke-linecap="round" stroke-linejoin="round"/>
<path d="M125.629 185.633C127.219 185.633 128.508 184.344 128.508 182.754C128.508 181.164 127.219 179.875 125.629 179.875C124.039 179.875 122.75 181.164 122.75 182.754C122.75 184.344 124.039 185.633 125.629 185.633Z" fill="#00BFE6" stroke="#00BFE6" stroke-width="1.53541" stroke-linecap="round" stroke-linejoin="round"/>
<path d="M400.945 1.46875H297.109V241.527H400.945V1.46875Z" fill="#C4F5F5" stroke="#C4F5F5" stroke-width="1.53541" stroke-linecap="round" stroke-linejoin="round"/>
<path d="M272.619 267.001C339.709 267.001 394.097 266.125 394.097 265.044C394.097 263.962 339.709 263.086 272.619 263.086C205.528 263.086 151.141 263.962 151.141 265.044C151.141 266.125 205.528 267.001 272.619 267.001Z" fill="#4D1F1F" stroke="#4D1F1F" stroke-width="1.53541" stroke-linecap="round" stroke-linejoin="round"/>
<path d="M462.642 267.001C529.733 267.001 584.12 266.125 584.12 265.044C584.12 263.962 529.733 263.086 462.642 263.086C395.552 263.086 341.164 263.962 341.164 265.044C341.164 266.125 395.552 267.001 462.642 267.001Z" fill="#4D1F1F" stroke="#4D1F1F" stroke-width="1.53541" stroke-linecap="round" stroke-linejoin="round"/>
<path d="M280.877 80.3795C288.554 80.0072 296.273 79.0092 303.505 76.4067C310.737 73.8041 317.497 69.4973 322.145 63.3787C328.045 55.6133 331.546 42.1516 323.082 34.8354C319.658 31.8759 314.894 30.5976 310.411 31.2271C307.206 31.6801 304.165 33.0735 301.651 35.1041C299.279 37.0195 297.421 39.7257 294.327 40.574C290.093 41.7332 286.8 39.1806 283.276 37.2997C277.426 34.1751 270.229 33.9717 264.08 36.3439C258.518 38.4896 254.299 42.5508 252.495 48.2856C250.764 53.7862 251.332 60.0814 254.468 64.9794L280.873 80.3834L280.877 80.3795Z" fill="#4D1F1F" stroke="#4D1F1F" stroke-width="1.53541" stroke-linecap="round" stroke-linejoin="round"/>
<path d="M253.612 97.5046C250.492 94.4684 248.899 89.9389 249.428 85.6167C250.016 80.8147 253.513 76.8572 252.492 71.9554C252.039 69.7904 251.148 67.7445 250.645 65.5911C249.294 59.7949 251.041 53.3692 255.136 49.0547L265.024 94.7332L253.616 97.5046H253.612Z" fill="#4D1F1F" stroke="#4D1F1F" stroke-width="1.53541" stroke-linecap="round" stroke-linejoin="round"/>
<path d="M245.359 221.844H254.51V238.964C254.51 241.489 252.461 243.539 249.935 243.539C247.409 243.539 245.359 241.489 245.359 238.964V221.844Z" fill="#4D1F1F" stroke="#4D1F1F" stroke-width="1.53541" stroke-linecap="round" stroke-linejoin="round"/>
<path d="M297.826 204.435H289.539C281.301 204.435 274.115 203.003 266.719 199.38L225.692 259.537C223.343 262.98 219.447 265.038 215.282 265.038C206.86 265.038 200.807 256.935 203.198 248.859L215.397 207.66C220.449 190.597 230.168 175.289 243.457 163.459L298.164 156.922V161.551C298.164 164.468 300.528 166.837 303.446 166.837C309.203 166.837 317.103 166.837 321.36 166.837C328.726 166.837 335.555 170.687 339.413 177.047L339.593 177.347C344.583 185.58 343.186 196.175 336.23 202.827L314.554 223.563C313.172 224.883 310.988 224.86 309.633 223.509L298.889 212.765C296.678 210.554 296.241 207.13 297.822 204.431L305.016 192.171C307.649 187.684 311.357 183.926 315.81 181.239" fill="#00BFE6"/>
<path d="M225.692 259.534C223.343 262.977 219.447 265.035 215.282 265.035C206.86 265.035 200.807 256.932 203.198 248.855" stroke="#4D1F1F" stroke-width="1.53541" stroke-linecap="round" stroke-linejoin="round"/>
<path d="M215.281 265.041C219.446 265.041 223.346 262.98 225.691 259.54L266.718 199.383" stroke="#4D1F1F" stroke-width="1.53541" stroke-linecap="round" stroke-linejoin="round"/>
<path d="M313.996 223.999C313.801 224.121 313.597 224.225 313.386 224.306C312.86 224.509 312.296 224.582 311.743 224.521C310.968 224.44 310.219 224.102 309.628 223.511L298.884 212.767C296.673 210.556 296.235 207.132 297.817 204.434L277.833 238.497C276.34 241.042 276.002 244.097 276.897 246.907L280.639 258.634C281.856 262.445 285.399 265.033 289.399 265.033H300.3C302.531 265.033 304.339 263.225 304.339 260.994V260.396L298.35 254.565C297.214 253.459 296.681 251.874 296.911 250.308L298.182 241.725C298.462 239.829 299.368 238.078 300.753 236.75C302.358 235.215 304.496 234.355 306.718 234.355H317.106C318.967 234.355 320.48 232.846 320.48 230.981V217.88L314.545 223.557C314.372 223.722 314.188 223.868 313.992 223.991L313.996 223.999Z" fill="#4D1F1F" stroke="#4D1F1F" stroke-width="1.53541" stroke-linecap="round" stroke-linejoin="round"/>
<path d="M288.148 224.543L305.679 224.754C307.479 224.777 308.351 226.965 307.061 228.216L294.547 240.377C292.901 241.978 291.972 244.177 291.972 246.476V251.762" stroke="#FF5B4D" stroke-width="1.53541" stroke-linecap="round" stroke-linejoin="round"/>
<path d="M319.583 73.2275L325.855 74.2716H330.906L333.751 91.9365L333.182 92.0209C327.812 92.8347 322.354 92.8693 316.972 92.1246L315.61 91.9365L310.508 97.7903C308.631 99.9437 308.351 103.061 309.817 105.517L309.913 108.98C295.097 119.217 292.425 125.616 292.425 125.616C276.104 115.256 256.769 127.424 256.769 127.424C256.769 127.424 256.285 152.351 255.084 163.675C255.084 163.675 257.828 173.171 256.289 188.134C254.504 205.48 255.506 214.274 255.506 214.274H241.833C241.714 204.759 240.563 197.496 237.826 185.965C235.054 174.281 237.707 163.464 237.707 163.464C233.369 142.022 235.296 129.232 235.296 129.232L234.333 126.027C231.603 116.96 235.695 107.233 244.082 102.842L295.592 75.8722C303.196 72.8014 311.495 71.8878 319.583 73.2313V73.2275Z" fill="#FFBB99"/>
<path d="M256.031 150.746H255.982C255.759 155.253 255.486 159.605 255.156 162.941L255.241 163.448C285.753 176.925 298.82 164.5 298.82 164.5C298.597 160.519 298.512 155.671 298.881 152.377C279.009 165.839 256.035 150.746 256.035 150.746H256.031Z" fill="#4D1F1F"/>
<path d="M292.42 125.608C276.098 115.248 256.763 127.416 256.763 127.416C256.763 127.416 256.529 139.557 255.977 150.743H256.026C256.026 150.743 279 165.836 298.872 152.374C299.617 146.516 302.219 141.63 309.328 134.318C317.635 125.773 316.741 117.106 316.741 117.106L307.355 101.395C292.539 111.636 292.42 125.608 292.42 125.608Z" fill="#FF5C4D"/>
<path d="M281.914 47.0932C282.912 46.4406 284.071 46.003 285.246 45.7996C287.595 45.3927 290.013 45.8073 292.316 46.433C294.62 47.0586 296.865 47.8993 299.203 48.3676C303.644 49.2581 308.523 48.6977 312.219 46.0798C315.916 43.4619 318.123 38.5793 316.895 34.2188" stroke="#00BFE6" stroke-width="1.53541" stroke-linecap="round" stroke-linejoin="round"/>
<path d="M265.672 48.5121C264.466 46.1629 264.42 43.2533 265.553 40.8696C266.685 38.4858 268.969 36.6817 271.552 36.1328" stroke="#00BFE6" stroke-width="1.53541" stroke-linecap="round" stroke-linejoin="round"/>
<path d="M271.082 59.7852C263.259 59.7852 256.799 66.1264 255.82 74.337C256.319 81.423 258.93 88.6931 260.791 93.0959C261.87 95.6486 264.223 97.2799 266.81 97.2799H275.358C277.946 97.2799 280.299 95.6486 281.377 93.0959C283.239 88.6893 285.849 81.423 286.348 74.337C285.369 66.1264 278.909 59.7852 271.086 59.7852H271.082Z" fill="#FF5C4D"/>
<path d="M271.092 46.1836C261.131 46.1836 253.055 54.2599 253.055 64.2209C253.055 65.5643 253.108 66.9001 253.212 68.2206C254.36 59.3651 261.926 54.4326 271.092 54.4326C280.258 54.4326 287.824 59.3689 288.972 68.2206C289.072 66.904 289.129 65.5682 289.129 64.2209C289.129 54.2599 281.053 46.1836 271.092 46.1836Z" fill="#FF5C4D"/>
<path d="M275.858 24.6781L275.57 19.2734" stroke="#4D1F1F" stroke-width="1.53541" stroke-linecap="round" stroke-linejoin="round"/>
<path d="M288.5 27.8675L291.59 23.2344" stroke="#4D1F1F" stroke-width="1.53541" stroke-linecap="round" stroke-linejoin="round"/>
<path d="M256.773 127.418L259.886 118.559V122.777L256.773 127.418Z" stroke="#4D1F1F" stroke-width="1.53541" stroke-linecap="round" stroke-linejoin="round"/>
<path d="M271.008 146.279C275.798 148.502 281.886 147.538 285.755 143.945" stroke="#4D1F1F" stroke-width="1.53541" stroke-linecap="round" stroke-linejoin="round"/>
<path d="M235.797 151.263C236.2 154.933 236.78 159.009 237.616 163.462C237.616 163.462 246.299 159.036 255.147 163.673C255.147 163.673 255.358 161.205 255.585 158.103C255.734 155.796 255.865 153.286 255.984 150.722C249.93 147.248 241.747 147.444 235.797 151.259V151.263Z" fill="#FFE88C"/>
<path d="M265.555 137.626C265.555 137.626 281.723 130.383 298.167 136.617C298.167 136.617 299.434 122.472 312.082 112.445" stroke="#4D1F1F" stroke-width="1.53541" stroke-linecap="round" stroke-linejoin="round"/>
<path d="M292.415 125.612C292.415 125.612 290.788 120.849 288.5 117.355" stroke="#4D1F1F" stroke-width="1.53541" stroke-linecap="round" stroke-linejoin="round"/>
<path d="M255.984 150.722C249.93 147.248 241.747 147.444 235.797 151.259" stroke="#FF5C4D" stroke-width="1.53541" stroke-linecap="round" stroke-linejoin="round"/>
<path d="M237.617 163.457C237.617 163.457 246.3 159.031 255.148 163.668" stroke="#4D1F1F" stroke-width="1.53541" stroke-linecap="round" stroke-linejoin="round"/>
<path d="M289.945 58.6719C295.688 56.2843 302.839 57.8351 307.077 62.3838" stroke="#00BFE6" stroke-width="1.53541" stroke-linecap="round" stroke-linejoin="round"/>
<path d="M334.377 91.9375C328.216 92.8088 321.963 92.8165 315.802 91.9644L315.614 91.9375L310.516 97.7874C308.639 99.9408 308.359 103.062 309.825 105.514" stroke="#4D1F1F" stroke-width="1.53541" stroke-linecap="round" stroke-linejoin="round"/>
<path d="M256.763 127.418C256.763 127.418 256.28 152.345 255.078 163.669C255.078 163.669 257.823 173.166 256.283 188.128C254.499 205.475 255.5 214.269 255.5 214.269" stroke="#4D1F1F" stroke-width="1.53541" stroke-linecap="round" stroke-linejoin="round"/>
<path d="M237.844 217.426L237.874 224.627C237.882 226.316 238.777 227.874 240.231 228.734L248.565 233.659C249.82 234.4 251.378 234.396 252.634 233.651L261.95 228.093C262.51 227.759 262.71 227.049 262.41 226.469C261.359 224.45 258.867 223.671 256.852 224.731L251.87 227.348" fill="#FFBB99"/>
<path d="M314.782 168.883C299.083 173.485 288.746 168.883 288.746 168.883C288.746 168.883 279.733 177.324 261.711 179.669" stroke="#4D1F1F" stroke-width="1.53541" stroke-linecap="round" stroke-linejoin="round"/>
<path d="M291.803 168.317L288.725 170.682L286.268 169.879C284.407 169.273 283.566 167.196 284.092 164.513L285.781 155.911L298.152 152.418L296.463 161.02C295.938 163.699 294.13 166.525 291.8 168.317H291.803Z" fill="#FFE88C"/>
<path d="M294.168 158.003C293.976 158.982 293.128 159.968 292.276 160.21C291.423 160.452 290.886 159.853 291.078 158.878C291.27 157.899 292.118 156.913 292.97 156.671C293.822 156.429 294.36 157.028 294.168 158.003Z" fill="#FF5C4D"/>
<path d="M298.156 152.422L296.467 161.024C295.941 163.703 294.133 166.528 291.803 168.321L288.725 170.686L286.268 169.883C284.407 169.277 283.566 167.2 284.092 164.517L285.781 155.915" stroke="#4D1F1F" stroke-width="1.53541" stroke-linecap="round" stroke-linejoin="round"/>
<circle cx="315.815" cy="181.24" r="0.767706" fill="#4D1F1F"/>
<path d="M297.828 204.442L305.022 192.182C307.655 187.695 311.363 183.937 315.816 181.25" stroke="#4D1F1F" stroke-width="1.53541" stroke-linecap="round" stroke-linejoin="round"/>
<path d="M297.826 204.438H289.539C281.301 204.438 274.116 203.006 266.719 199.383" stroke="#4D1F1F" stroke-width="1.53541" stroke-linecap="round" stroke-linejoin="round"/>
<path d="M225.691 259.535C223.342 262.978 219.446 265.035 215.281 265.035H229.207C233.783 265.035 237.687 261.726 238.435 257.212L242.02 235.594L225.695 259.535H225.691Z" fill="#4D1F1F" stroke="#4D1F1F" stroke-width="1.53541" stroke-linecap="round" stroke-linejoin="round"/>
<path d="M237.844 217.426L237.874 224.627C237.882 226.316 238.777 227.874 240.231 228.734L248.565 233.659C249.82 234.4 251.378 234.396 252.634 233.651L261.95 228.093C262.51 227.759 262.71 227.049 262.41 226.469" stroke="#4D1F1F" stroke-width="1.53541" stroke-linecap="round" stroke-linejoin="round"/>
<path d="M249.938 228.092C256.881 228.092 262.51 222.463 262.51 215.52C262.51 208.578 256.881 202.949 249.938 202.949C242.996 202.949 237.367 208.578 237.367 215.52C237.367 222.463 242.996 228.092 249.938 228.092Z" fill="#FFE88C"/>
<path d="M262.51 215.52C262.51 222.463 256.882 228.091 249.938 228.091C242.994 228.091 237.367 222.463 237.367 215.52" stroke="#FF5C4D" stroke-width="1.53541" stroke-linecap="round" stroke-linejoin="round"/>
<path d="M248.023 216.206L248.91 228.055C249.555 228.109 250.211 228.113 250.875 228.063C251.54 228.013 252.188 227.913 252.818 227.764L251.931 215.914L248.023 216.206Z" fill="#FF5C4D" stroke="#FF5C4D" stroke-width="1.53541" stroke-linecap="round" stroke-linejoin="round"/>
<path d="M248.021 216.199L244.682 172.144C244.252 166.398 245.165 160.629 247.349 155.297L251.929 215.903L248.021 216.195V216.199Z" fill="#00BFE6" stroke="#00BFE6" stroke-width="1.53541" stroke-linecap="round" stroke-linejoin="round"/>
<path d="M248.021 216.199L244.682 172.144C244.252 166.398 245.165 160.629 247.349 155.297" stroke="#C4F5F5" stroke-width="1.53541" stroke-linecap="round" stroke-linejoin="round"/>
<path d="M247.352 155.305L251.931 215.915L248.023 216.207" stroke="#4D1F1F" stroke-width="1.53541" stroke-linecap="round" stroke-linejoin="round"/>
<path d="M333.75 91.9345L330.906 74.2695H330.322V77.6513C330.322 85.7084 323.663 92.1763 315.609 91.9345H329.205H333.75Z" fill="#4D1F1F"/>
<path d="M325.879 43.8711L333.698 90.6551C336.216 105.71 343.041 119.248 351.516 125.981L362.633 134.814H367.742L365.677 131.524L370.797 125.985C377.023 119.252 379.327 105.718 376.808 90.659L368.989 43.8749H325.875L325.879 43.8711Z" fill="#FF5C4D" stroke="#FF5B4D" stroke-width="1.53541" stroke-linecap="round" stroke-linejoin="round"/>
<path d="M367.746 134.814L356.63 125.981C348.154 119.248 341.326 105.71 338.811 90.6551L330.992 43.8711H374.107L381.926 90.6551C384.444 105.71 382.137 119.248 375.915 125.981L367.75 134.814H367.746Z" fill="#FFE88C" stroke="#FFE680" stroke-width="1.53541" stroke-linecap="round" stroke-linejoin="round"/>
<path d="M339.023 55.1562L344.958 90.655C346.754 101.411 351.633 111.08 357.686 115.889L365.628 122.196L371.459 115.889C375.904 111.08 377.551 101.411 375.754 90.655L369.82 55.1562H339.023Z" stroke="#FF5B4D" stroke-width="1.53541" stroke-linecap="round" stroke-linejoin="round"/>
<path d="M360.338 72.0841C359.816 68.9672 360.775 66.4414 362.476 66.4414C364.176 66.4414 365.976 68.9672 366.498 72.0841C367.02 75.2009 366.061 77.7267 364.36 77.7267C362.66 77.7267 360.86 75.2009 360.338 72.0841Z" fill="#FF5C4D" stroke="#FF5B4D" stroke-width="1.53541" stroke-linecap="round" stroke-linejoin="round"/>
<path d="M374.103 43.8711L381.922 90.6551C384.44 105.71 382.133 119.248 375.911 125.981L367.746 134.814L356.63 125.981C348.154 119.248 341.326 105.71 338.811 90.6551L330.992 43.8711" stroke="#FF5B4D" stroke-width="1.53541" stroke-linecap="round" stroke-linejoin="round"/>
<path d="M325.875 43.8711L333.694 90.6551C336.212 105.71 343.037 119.248 351.513 125.981L362.629 134.814H367.738L375.903 125.981" stroke="#4D1F1F" stroke-width="1.53541" stroke-linecap="round" stroke-linejoin="round"/>
<path d="M210.876 96.9453C209.559 110.937 214.2 127.419 223.785 135.818" stroke="#4D1F1F" stroke-width="1.53541" stroke-linecap="round" stroke-linejoin="round"/>
<path d="M201.172 110.461C202.105 125.596 209.329 142.513 220.15 150.063" stroke="#4D1F1F" stroke-width="1.53541" stroke-linecap="round" stroke-linejoin="round"/>
<path d="M226.104 230.266C224.419 230.266 223.029 228.93 222.972 227.234C222.799 222.067 220.473 217.104 216.581 213.618C213.08 210.482 208.689 208.947 204.205 209.292C199.806 209.63 195.78 211.753 191.515 213.998C189.27 215.181 186.951 216.401 184.521 217.38C175.988 220.812 166.25 220.635 159.106 216.919C151.556 212.989 146.37 205.342 145.572 196.963C144.558 186.311 150.581 175.632 160.223 170.991C161.786 170.239 163.659 170.895 164.407 172.458C165.16 174.016 164.503 175.889 162.941 176.642C155.732 180.112 151.053 188.411 151.813 196.372C152.412 202.659 156.316 208.402 162.001 211.361C167.482 214.213 175.401 214.294 182.184 211.569C184.314 210.713 186.395 209.615 188.594 208.455C193.235 206.01 198.033 203.485 203.725 203.047C209.929 202.571 215.978 204.667 220.761 208.954C225.916 213.572 229.006 220.163 229.233 227.03C229.29 228.761 227.935 230.208 226.204 230.266C226.169 230.266 226.135 230.266 226.096 230.266H226.104Z" fill="#FF5C4D" stroke="#FF5C4D" stroke-width="1.53541" stroke-linecap="round" stroke-linejoin="round"/>
<path d="M229.24 227.031C229.298 228.762 227.943 230.209 226.212 230.267C226.177 230.267 226.142 230.267 226.104 230.267C224.419 230.267 223.029 228.931 222.972 227.234C222.799 222.068 220.473 217.104 216.581 213.619C213.08 210.483 208.689 208.948 204.205 209.293C199.806 209.631 195.78 211.754 191.515 213.999C189.27 215.181 186.951 216.402 184.521 217.381C175.988 220.813 166.25 220.636 159.106 216.92C151.556 212.99 146.37 205.343 145.572 196.964C144.558 186.312 150.581 175.633 160.223 170.992" stroke="#4D1F1F" stroke-width="1.53541" stroke-linecap="round" stroke-linejoin="round"/>
<path d="M195.776 143.589C196.425 144.713 196.042 146.153 194.915 146.803L183.376 153.465L181.025 149.393L192.564 142.731C193.687 142.082 195.127 142.466 195.778 143.592L195.776 143.589Z" fill="#C4F5F5" stroke="#C4F5F5" stroke-width="1.53541" stroke-linecap="round" stroke-linejoin="round"/>
<path d="M204.526 158.734C205.175 159.857 204.792 161.297 203.665 161.948L192.126 168.61L189.775 164.538L201.314 157.876C202.437 157.227 203.877 157.61 204.528 158.737L204.526 158.734Z" fill="#C4F5F5" stroke="#C4F5F5" stroke-width="1.53541" stroke-linecap="round" stroke-linejoin="round"/>
<path d="M192.117 168.611L203.656 161.951C204.781 161.302 205.164 159.863 204.516 158.738" stroke="#00BFE6" stroke-width="1.53541" stroke-linecap="round" stroke-linejoin="round"/>
<path d="M183.375 153.463L194.914 146.803C196.038 146.154 196.422 144.715 195.773 143.59" stroke="#00BFE6" stroke-width="1.53541" stroke-linecap="round" stroke-linejoin="round"/>
<path d="M195.389 174.274L191.47 167.487L188.53 162.397L184.611 155.611L181.67 150.521L177.751 143.734C176.669 141.861 174.273 141.216 172.396 142.299L164.312 146.966C163.026 147.707 162.27 149.112 162.359 150.594L162.62 154.931L163.161 163.944C163.31 166.409 164.608 168.654 166.665 170.017L167.053 170.27L167.08 170.731C167.23 173.195 168.527 175.441 170.585 176.803L178.12 181.778L181.747 184.173C182.987 184.991 184.58 185.041 185.866 184.296L193.95 179.628C195.823 178.546 196.468 176.151 195.385 174.274H195.389Z" fill="#FF5C4D" stroke="#FF5C4D" stroke-width="1.53541" stroke-linecap="round" stroke-linejoin="round"/>
<path d="M165.758 160.359C165.835 161.611 165.305 162.824 164.338 163.618L159.241 167.814C157.763 169.031 157.379 171.138 158.339 172.8L160.596 176.712L162.853 180.623C163.812 182.281 165.828 183.007 167.62 182.335L173.804 180.02C174.979 179.579 176.291 179.729 177.339 180.42" fill="#FF5C4D"/>
<path d="M165.758 160.359C165.835 161.611 165.305 162.824 164.338 163.618L159.241 167.814C157.763 169.031 157.379 171.138 158.339 172.8L160.596 176.712L162.853 180.623C163.812 182.281 165.828 183.007 167.62 182.335L173.804 180.02C174.979 179.579 176.291 179.729 177.339 180.42" stroke="#FF5C4D" stroke-width="1.53541" stroke-linecap="round" stroke-linejoin="round"/>
<path d="M163.407 156.285C163.484 157.537 162.954 158.749 161.987 159.544L156.889 163.74C155.411 164.956 155.027 167.064 155.987 168.726L158.244 172.637L160.501 176.549C161.461 178.207 163.476 178.932 165.269 178.261L170.489 176.303" fill="#FF5C4D"/>
<path d="M163.407 156.285C163.484 157.537 162.954 158.749 161.987 159.544L156.889 163.74C155.411 164.956 155.027 167.064 155.987 168.726L158.244 172.637L160.501 176.549C161.461 178.207 163.476 178.932 165.269 178.261L170.489 176.303" stroke="#FF5C4D" stroke-width="1.53541" stroke-linecap="round" stroke-linejoin="round"/>
<path d="M159.383 166.77L163.901 174.596" stroke="#4D1F1F" stroke-width="1.53541" stroke-linecap="round" stroke-linejoin="round"/>
<path d="M162.836 158.562L163.158 163.948C163.308 166.412 164.606 168.658 166.663 170.021L174.198 174.995L177.825 177.391C179.065 178.208 180.658 178.258 181.944 177.513L190.028 172.846" fill="#FF5C4D"/>
<path d="M162.836 158.562L163.158 163.948C163.308 166.412 164.606 168.658 166.663 170.021L174.198 174.995L177.825 177.391C179.065 178.208 180.658 178.258 181.944 177.513L190.028 172.846" stroke="#4D1F1F" stroke-width="1.53541" stroke-linecap="round" stroke-linejoin="round"/>
<path d="M155.984 168.727L160.594 176.711L162.852 180.622C163.811 182.28 165.826 183.006 167.619 182.334L173.803 180.02C174.977 179.578 176.29 179.728 177.338 180.419" stroke="#4D1F1F" stroke-width="1.53541" stroke-linecap="round" stroke-linejoin="round"/>
<path d="M175.086 179.771L178.118 181.775L181.746 184.17C182.986 184.987 184.579 185.037 185.865 184.293L193.948 179.625" stroke="#4D1F1F" stroke-width="1.53541" stroke-linecap="round" stroke-linejoin="round"/>
<path d="M208.078 190.777L215.279 191.914" stroke="#00BFE6" stroke-width="1.53541" stroke-linecap="round" stroke-linejoin="round"/>
<path d="M214.18 179.629L218.368 184.822" stroke="#00BFE6" stroke-width="1.53541" stroke-linecap="round" stroke-linejoin="round"/>
<path d="M270.093 230.203C269.54 230.203 268.976 230.057 268.469 229.746C266.987 228.848 266.519 226.921 267.417 225.439C275.839 211.563 291.116 202.032 307.28 200.565C317.594 199.629 327.782 201.794 337.328 204.093C338.246 204.316 339.167 204.538 340.088 204.761C348.418 206.788 357.028 208.88 365.526 209.029C375.794 209.217 384.688 206.312 390.557 200.876C391.828 199.702 393.812 199.779 394.987 201.045C396.162 202.316 396.089 204.3 394.818 205.475C387.755 212.012 377.314 215.501 365.419 215.294C356.222 215.136 347.266 212.956 338.607 210.849C337.693 210.626 336.776 210.404 335.862 210.185C326.822 208.008 317.214 205.955 307.845 206.807C293.623 208.097 280.184 216.484 272.772 228.69C272.181 229.661 271.148 230.199 270.089 230.199L270.093 230.203Z" fill="#FF5C4D" stroke="#FF5C4D" stroke-width="1.53541" stroke-linecap="round" stroke-linejoin="round"/>
<path d="M394.814 205.477C387.751 212.014 377.31 215.503 365.415 215.296C356.218 215.138 347.262 212.958 338.603 210.851C337.689 210.628 336.772 210.405 335.858 210.186C326.818 208.01 317.21 205.956 307.841 206.809C293.619 208.098 280.18 216.485 272.768 228.692C272.177 229.663 271.144 230.201 270.085 230.201C269.532 230.201 268.968 230.055 268.461 229.744C266.979 228.846 266.511 226.919 267.409 225.437" stroke="#4D1F1F" stroke-width="1.53541" stroke-linecap="round" stroke-linejoin="round"/>
<path d="M547.76 264.954L510.688 265.035V163.148L547.76 264.954Z" fill="#4D1F1F" stroke="#4D1F1F" stroke-width="1.53541" stroke-linecap="round" stroke-linejoin="round"/>
<path d="M353.953 241.524H400.975V202.34H353.953" fill="#00BFE6"/>
<path d="M353.953 241.524H400.975V202.34H353.953" stroke="#4D1F1F" stroke-width="1.53541" stroke-linecap="round" stroke-linejoin="round"/>
<path d="M510.701 202.34H400.977V241.524H510.701" fill="#00BFE6"/>
<path d="M510.701 202.34H400.977V241.524H510.701" stroke="#4D1F1F" stroke-width="1.53541" stroke-linecap="round" stroke-linejoin="round"/>
<path d="M419.651 224.869C421.275 224.869 422.592 223.552 422.592 221.929C422.592 220.305 421.275 218.988 419.651 218.988C418.027 218.988 416.711 220.305 416.711 221.929C416.711 223.552 418.027 224.869 419.651 224.869Z" fill="#FF5C4D" stroke="#FF5C4D" stroke-width="1.53541" stroke-linecap="round" stroke-linejoin="round"/>
<path d="M435.323 224.869C436.947 224.869 438.263 223.552 438.263 221.929C438.263 220.305 436.947 218.988 435.323 218.988C433.699 218.988 432.383 220.305 432.383 221.929C432.383 223.552 433.699 224.869 435.323 224.869Z" fill="#FF5C4D" stroke="#FF5C4D" stroke-width="1.53541" stroke-linecap="round" stroke-linejoin="round"/>
<path d="M451.003 224.869C452.627 224.869 453.943 223.552 453.943 221.929C453.943 220.305 452.627 218.988 451.003 218.988C449.379 218.988 448.062 220.305 448.062 221.929C448.062 223.552 449.379 224.869 451.003 224.869Z" fill="#FF5C4D" stroke="#FF5C4D" stroke-width="1.53541" stroke-linecap="round" stroke-linejoin="round"/>
<path d="M416.624 84.7695H369.602V123.957H416.624V84.7695Z" fill="#00BFE6"/>
<path d="M526.346 84.7695H416.625V123.957H526.346V84.7695Z" fill="#00BFE6"/>
<path d="M435.308 107.306C436.931 107.306 438.248 105.99 438.248 104.366C438.248 102.742 436.931 101.426 435.308 101.426C433.684 101.426 432.367 102.742 432.367 104.366C432.367 105.99 433.684 107.306 435.308 107.306Z" fill="#FF5C4D" stroke="#FF5C4D" stroke-width="1.53541" stroke-linecap="round" stroke-linejoin="round"/>
<path d="M450.987 107.306C452.611 107.306 453.928 105.99 453.928 104.366C453.928 102.742 452.611 101.426 450.987 101.426C449.363 101.426 448.047 102.742 448.047 104.366C448.047 105.99 449.363 107.306 450.987 107.306Z" fill="#FF5C4D" stroke="#FF5C4D" stroke-width="1.53541" stroke-linecap="round" stroke-linejoin="round"/>
<path d="M466.667 107.306C468.291 107.306 469.607 105.99 469.607 104.366C469.607 102.742 468.291 101.426 466.667 101.426C465.043 101.426 463.727 102.742 463.727 104.366C463.727 105.99 465.043 107.306 466.667 107.306Z" fill="#FF5C4D" stroke="#FF5C4D" stroke-width="1.53541" stroke-linecap="round" stroke-linejoin="round"/>
<path d="M416.641 84.7695V123.953" stroke="#4D1F1F" stroke-width="1.53541" stroke-linecap="round" stroke-linejoin="round"/>
<path d="M369.602 123.953H526.348" stroke="#4D1F1F" stroke-width="1.53541" stroke-linecap="round" stroke-linejoin="round"/>
<path d="M584.142 251.711L547.76 264.954L510.688 163.091L547.065 149.852" fill="#00BFE6"/>
<path d="M584.142 251.711L547.76 264.954L510.688 163.091L547.065 149.852" stroke="#4D1F1F" stroke-width="1.53541" stroke-linecap="round" stroke-linejoin="round"/>
<path d="M535.191 176.714C536.794 176.714 538.093 175.415 538.093 173.812C538.093 172.209 536.794 170.91 535.191 170.91C533.588 170.91 532.289 172.209 532.289 173.812C532.289 175.415 533.588 176.714 535.191 176.714Z" fill="#FF5C4D" stroke="#FF5C4D" stroke-width="1.53541" stroke-linecap="round" stroke-linejoin="round"/>
<path d="M540.488 191.265C542.091 191.265 543.39 189.966 543.39 188.363C543.39 186.76 542.091 185.461 540.488 185.461C538.885 185.461 537.586 186.76 537.586 188.363C537.586 189.966 538.885 191.265 540.488 191.265Z" fill="#FF5C4D" stroke="#FF5C4D" stroke-width="1.53541" stroke-linecap="round" stroke-linejoin="round"/>
<path d="M545.769 205.816C547.372 205.816 548.671 204.516 548.671 202.914C548.671 201.311 547.372 200.012 545.769 200.012C544.166 200.012 542.867 201.311 542.867 202.914C542.867 204.516 544.166 205.816 545.769 205.816Z" fill="#FF5C4D" stroke="#FF5C4D" stroke-width="1.53541" stroke-linecap="round" stroke-linejoin="round"/>
<path d="M353.938 202.336H400.96V163.148H353.938" fill="#00BFE6"/>
<path d="M353.938 202.336H400.96V163.148H353.938" stroke="#4D1F1F" stroke-width="1.53541" stroke-linecap="round" stroke-linejoin="round"/>
<path d="M510.685 163.148H400.961V202.336H510.685" fill="#00BFE6"/>
<path d="M510.685 163.148H400.961V202.336H510.685" stroke="#4D1F1F" stroke-width="1.53541" stroke-linecap="round" stroke-linejoin="round"/>
<path d="M510.682 202.331C477.862 178.89 433.777 178.89 400.961 202.331H510.682Z" fill="#4D1F1F" stroke="#4D1F1F" stroke-width="1.53541" stroke-linecap="round" stroke-linejoin="round"/>
<path d="M499.942 200.734L496.023 194.416L492.104 200.734L486.227 190.723L480.346 200.734L472.508 187.487L464.673 200.734L456.774 186.332L448.878 200.734L441.04 187.487L433.205 200.734L427.324 190.723L421.448 200.734L417.529 194.416L413.609 200.734" stroke="#FF5C4D" stroke-width="1.53541" stroke-linecap="round" stroke-linejoin="round"/>
<path d="M400.96 123.965H353.938V163.152H400.96V123.965Z" fill="#00BFE6"/>
<path d="M510.685 123.965H400.961V163.152H510.685" fill="#00BFE6"/>
<path d="M510.685 123.965H400.961V163.152H510.685" stroke="#4D1F1F" stroke-width="1.53541" stroke-linecap="round" stroke-linejoin="round"/>
<path d="M430.413 153.354C435.823 153.354 440.209 148.968 440.209 143.558C440.209 138.148 435.823 133.762 430.413 133.762C425.003 133.762 420.617 138.148 420.617 143.558C420.617 148.968 425.003 153.354 430.413 153.354Z" fill="#FF5C4D" stroke="#FF5C4D" stroke-width="1.53541" stroke-linecap="round" stroke-linejoin="round"/>
<path d="M481.296 153.354C486.706 153.354 491.092 148.968 491.092 143.558C491.092 138.148 486.706 133.762 481.296 133.762C475.886 133.762 471.5 138.148 471.5 143.558C471.5 148.968 475.886 153.354 481.296 153.354Z" fill="#FF5C4D" stroke="#FF5C4D" stroke-width="1.53541" stroke-linecap="round" stroke-linejoin="round"/>
<path d="M481.286 147.479C483.451 147.479 485.205 145.724 485.205 143.56C485.205 141.395 483.451 139.641 481.286 139.641C479.122 139.641 477.367 141.395 477.367 143.56C477.367 145.724 479.122 147.479 481.286 147.479Z" fill="#FFE88C" stroke="#FFE88C" stroke-width="1.53541" stroke-linecap="round" stroke-linejoin="round"/>
<path d="M430.419 147.479C432.584 147.479 434.338 145.724 434.338 143.56C434.338 141.395 432.584 139.641 430.419 139.641C428.255 139.641 426.5 141.395 426.5 143.56C426.5 145.724 428.255 147.479 430.419 147.479Z" fill="#FFE88C" stroke="#FFE88C" stroke-width="1.53541" stroke-linecap="round" stroke-linejoin="round"/>
<path d="M400.961 123.965C433.78 147.407 477.866 147.407 510.682 123.965H400.961Z" fill="#4D1F1F" stroke="#4D1F1F" stroke-width="1.53541" stroke-linecap="round" stroke-linejoin="round"/>
<path d="M420.617 153.355H440.209" stroke="#4D1F1F" stroke-width="1.53541" stroke-linecap="round" stroke-linejoin="round"/>
<path d="M471.5 153.355H491.092" stroke="#4D1F1F" stroke-width="1.53541" stroke-linecap="round" stroke-linejoin="round"/>
<path d="M353.938 163.152H400.96V123.965H369.61" stroke="#4D1F1F" stroke-width="1.53541" stroke-linecap="round" stroke-linejoin="round"/>
<path d="M510.682 241.516H463.656V265.03L471.495 249.354H502.844L510.682 265.03" fill="#4D1F1F"/>
<path d="M510.682 241.516H463.656V265.03L471.495 249.354H502.844L510.682 265.03" stroke="#4D1F1F" stroke-width="1.53541" stroke-linecap="round" stroke-linejoin="round"/>
<path d="M400.96 241.516H353.938V265.03L361.776 249.354H393.125L400.96 265.03L408.798 249.354H502.846L510.684 265.03V241.516H400.96Z" fill="#C4F5F5" stroke="#C4F5F5" stroke-width="1.53541" stroke-linecap="round" stroke-linejoin="round"/>
<path d="M547.065 149.852L510.688 163.148V149.852" fill="#00BFE6"/>
<path d="M547.065 149.852L510.688 163.148V149.852" stroke="#4D1F1F" stroke-width="1.53541" stroke-linecap="round" stroke-linejoin="round"/>
<path d="M547.056 120.906L538.082 127.351L543.866 130.998L534.742 137.439" stroke="#4D1F1F" stroke-width="1.53541" stroke-linecap="round" stroke-linejoin="round"/>
<path d="M486.848 55.3281L481.805 65.1548L488.614 65.7613L483.436 75.6531" stroke="#4D1F1F" stroke-width="1.53541" stroke-linecap="round" stroke-linejoin="round"/>
<path d="M510.684 265.036L502.846 249.359H408.798L400.96 265.036L393.125 249.359H361.776L353.938 265.036" stroke="#4D1F1F" stroke-width="1.53541" stroke-linecap="round" stroke-linejoin="round"/>
<path d="M400.961 265.03V241.516" stroke="#4D1F1F" stroke-width="1.53541" stroke-linecap="round" stroke-linejoin="round"/>
<path d="M288.005 177.062L282.961 186.889L289.77 187.496L284.592 197.391" stroke="#FBFCF9" stroke-width="1.53541" stroke-linecap="round" stroke-linejoin="round"/>
<path d="M225.688 195.805L228.175 202.921L231.679 199.839L234.136 207.052" stroke="#FBFCF9" stroke-width="1.53541" stroke-linecap="round" stroke-linejoin="round"/>
<path d="M520.148 71.5958L523.012 63.9609" stroke="#00BFE6" stroke-width="1.53541" stroke-linecap="round" stroke-linejoin="round"/>
<path d="M537.32 95.1436L545.278 91.3242" stroke="#00BFE6" stroke-width="1.53541" stroke-linecap="round" stroke-linejoin="round"/>
<path d="M310.555 148.244L314.785 143.945" stroke="#FBFCF9" stroke-width="1.53541" stroke-linecap="round" stroke-linejoin="round"/>
<path d="M314.781 156.921L320.481 154.223" stroke="#FBFCF9" stroke-width="1.53541" stroke-linecap="round" stroke-linejoin="round"/>
<path d="M12.9297 265.04L20.768 249.363H52.1173L59.9517 265.04L67.79 249.363H161.838L169.676 265.04" stroke="#4D1F1F" stroke-width="1.53541" stroke-linecap="round" stroke-linejoin="round"/>
<path d="M59.9609 241.527V265.042" stroke="#4D1F1F" stroke-width="1.53541" stroke-linecap="round" stroke-linejoin="round"/>
<path d="M271.084 54.4297C262.824 54.4297 255.861 58.0801 253.726 65.6574C253.293 67.1966 253.212 68.8165 253.458 70.398C254.686 78.2785 259.077 86.0323 261.68 90.082C262.839 91.8861 264.843 92.9685 266.988 92.9685H275.188C277.333 92.9685 279.333 91.8861 280.496 90.082C283.099 86.0323 287.49 78.2785 288.718 70.398C288.964 68.8203 288.883 67.1966 288.45 65.6574C286.315 58.0763 279.352 54.4297 271.092 54.4297H271.084Z" fill="#FFBB99" stroke="#4D1F1F" stroke-width="1.53541" stroke-linecap="round" stroke-linejoin="round"/>
<path d="M269.245 71.3594L264.102 77.0673L268.547 79.5393" stroke="#4D1F1F" stroke-width="1.53541" stroke-linecap="round" stroke-linejoin="round"/>
<path d="M265.576 69.0544C264.751 68.2714 263.664 67.7685 262.532 67.6495C261.4 67.5305 260.233 67.7877 259.258 68.375" stroke="#4D1F1F" stroke-width="1.53541" stroke-linecap="round" stroke-linejoin="round"/>
<path d="M280.502 68.3367C279.519 67.7609 278.349 67.5191 277.22 67.6534C276.092 67.7916 275.009 68.306 274.195 69.1005" stroke="#4D1F1F" stroke-width="1.53541" stroke-linecap="round" stroke-linejoin="round"/>
<path d="M281.871 63.992C279.134 63.635 276.22 64.3106 273.994 65.8268L273.875 64.4143L278.88 64.0035" stroke="#4D1F1F" stroke-width="1.53541" stroke-linecap="round" stroke-linejoin="round"/>
<path d="M258.969 64.0815C261.36 63.3214 264.243 63.9663 265.986 65.6591L266.289 64.3425L262.028 63.8051" stroke="#4D1F1F" stroke-width="1.53541" stroke-linecap="round" stroke-linejoin="round"/>
<path d="M268.539 81.2507C271.928 81.9493 275.437 81.838 278.776 80.9321L279.091 80.8477L276.074 85.8339C275.08 87.4768 272.712 87.5305 271.648 85.926L268.539 81.2469V81.2507Z" fill="#4D1F1F" stroke="#4D1F1F" stroke-width="1.53541" stroke-linecap="round" stroke-linejoin="round"/>
<path d="M273.241 56.3822L270.416 57.5606L267.591 56.3822C265.453 55.4916 264.102 53.6683 264.102 51.6723V45.2734H276.73V51.6723C276.73 53.6645 275.379 55.4878 273.241 56.3822Z" fill="#FFE88C"/>
<path d="M272.031 50.102C272.902 50.102 273.608 49.5125 273.608 48.7854C273.608 48.0582 272.902 47.4688 272.031 47.4688C271.159 47.4688 270.453 48.0582 270.453 48.7854C270.453 49.5125 271.159 50.102 272.031 50.102Z" fill="#FF5C4D"/>
<path d="M276.73 45.2734V51.6723C276.73 53.6645 275.379 55.4878 273.241 56.3822L270.416 57.5606L267.591 56.3822C265.453 55.4916 264.102 53.6683 264.102 51.6723V45.2734" stroke="#4D1F1F" stroke-width="1.53541" stroke-linecap="round" stroke-linejoin="round"/>
<path d="M286.453 64.5451L290.169 60.9484C291.389 59.7662 293.428 60.6298 293.428 62.3303V63.6968C293.428 67.8616 291.351 71.5658 287.927 73.5849C287.877 73.6156 287.827 73.6425 287.774 73.6732L286.453 74.4332" fill="#FFBB99"/>
<path d="M262.18 70.1172V71.4223" stroke="#4D1F1F" stroke-width="2.30312" stroke-linecap="round" stroke-linejoin="round"/>
<path d="M277.422 70.0586V71.3675" stroke="#4D1F1F" stroke-width="2.30312" stroke-linecap="round" stroke-linejoin="round"/>
</svg>
