<svg width="320.000000" height="320.000977" viewBox="0 0 320 320.001" fill="none" xmlns="http://www.w3.org/2000/svg" xmlns:xlink="http://www.w3.org/1999/xlink">
	<desc>
			Created with Pixso.
	</desc>
	<defs>
		<clipPath id="clip379_79667">
			<rect id="Outfit" rx="-1.896184" width="316.207611" height="316.207611" transform="translate(1.896184 1.896184)" fill="white" fill-opacity="0"/>
		</clipPath>
		<clipPath id="clip379_79668">
			<rect id="Hair" rx="-1.896184" width="316.207611" height="316.207611" transform="translate(1.896184 1.896184)" fill="white" fill-opacity="0"/>
		</clipPath>
		<clipPath id="clip379_79669">
			<rect id="Eye" rx="-1.896184" width="316.207611" height="316.207611" transform="translate(1.896184 1.896184)" fill="white" fill-opacity="0"/>
		</clipPath>
		<clipPath id="clip379_79670">
			<rect id="Cheek" rx="-1.896184" width="316.207611" height="316.207611" transform="translate(1.896184 1.896184)" fill="white" fill-opacity="0"/>
		</clipPath>
		<clipPath id="clip379_79671">
			<rect id="Mouth" rx="-1.896184" width="316.207611" height="316.207611" transform="translate(1.896184 1.896184)" fill="white" fill-opacity="0"/>
		</clipPath>
	</defs>
	<rect id="Background" rx="-1.896184" width="316.207611" height="316.207611" transform="translate(1.896184 1.896184)" fill="#FFFFFF" fill-opacity="0"/>
	<path id="Vector" d="M320 160C320 248.36 248.36 320 160 320C71.63 320 0 248.36 0 160C0 71.63 71.63 0 160 0C248.36 0 320 71.63 320 160Z" fill="#C4F5F5" fill-opacity="1.000000" fill-rule="evenodd"/>
	<path id="Vector" d="M287.52 256.55C258.51 249.38 219.37 240.66 207.69 238.04C204.93 226.51 201.7 211.57 198.52 193.48C191.77 155.22 192.64 135.84 192.64 135.84C192.64 135.84 203.75 130.8 207.73 121.35C211.52 112.29 208.98 104.89 203.03 101.94C197.49 99.2 189.87 105.84 189.87 105.84C189.87 105.84 195.03 71.07 171.1 58.66C159.3 52.52 125.44 46.45 118.38 74.67C104.81 128.86 99.73 172.09 115.35 179.64C124.11 183.89 139.47 177.21 139.47 177.21L134.8 238.04C120.35 241.23 63.47 253.93 36.2 261.37C65.55 297.13 110.08 320 159.98 320C209.89 320 258.32 295.08 287.56 256.59L287.52 256.55Z" fill="#FFBB99" fill-opacity="1.000000" fill-rule="nonzero"/>
	<g opacity="0.200000">
		<path id="Vector" d="M139.47 177.21C139.47 177.21 156.31 171.6 169.28 159.24L169.28 173.8C169.28 173.8 157 190.68 137.84 198.26L139.47 177.21Z" fill="#4D1F1F" fill-opacity="1.000000" fill-rule="nonzero"/>
	</g>
	<path id="Vector" d="M119.87 132.58L119.95 132.58C119.95 132.58 119.91 132.58 119.87 132.58Z" fill="#4D1F1F" fill-opacity="1.000000" fill-rule="nonzero"/>
	<path id="Vector" d="M191.21 116.46C191.02 116.46 190.83 116.46 190.64 116.35C189.84 116.04 189.43 115.1 189.77 114.3C191.74 109.33 196.37 108.19 196.56 108.16C197.39 107.97 198.23 108.5 198.45 109.33C198.64 110.16 198.11 111 197.28 111.23C197.12 111.23 194.05 112.06 192.69 115.47C192.46 116.08 191.85 116.46 191.21 116.46Z" fill="#4D1F1F" fill-opacity="1.000000" fill-rule="nonzero"/>
	<path id="Vector" d="M128.67 135.95C128.67 135.95 128.52 135.95 128.44 135.95C128.44 135.95 122 135.04 120.41 134.63C119.69 134.44 119.34 133.87 119.34 133.87C119 133.34 118.93 132.69 119.12 132.12L126.93 108.76C127.19 107.93 128.07 107.47 128.9 107.78C129.73 108.04 130.15 108.95 129.89 109.75L122.49 131.86L128.86 132.84C129.73 132.96 130.3 133.79 130.19 134.63C130.08 135.42 129.39 135.95 128.64 135.95L128.67 135.95Z" fill="#4D1F1F" fill-opacity="1.000000" fill-rule="nonzero"/>
	<g clip-path="url(#clip379_79667)">
		<path id="Vector" d="M208.57 238.27C207.54 233.83 206.86 225.72 206.63 221.77C206.52 219.8 204.93 218.25 202.69 219.61C191.8 226.17 156.72 231.37 137.19 222.38C135.83 221.74 134.09 223.44 134.01 225.68C133.93 228.33 134.01 233.99 133.36 238.38C116.91 242.03 62.64 254.2 36.2 261.37C65.55 297.13 110.08 320 159.98 320C209.89 320 258.32 295.08 287.56 256.59C259.16 249.57 221.16 241.08 208.57 238.31L208.57 238.27Z" fill="#FFDD2A" fill-opacity="1.000000" fill-rule="nonzero"/>
		<path id="Vector" d="M194.12 249.23C194.12 249.23 194.05 249.23 194.01 249.23C193.06 249.15 192.38 248.36 192.42 247.41C192.42 247.33 193.02 238.73 189.84 232.32C189.42 231.48 189.76 230.46 190.6 230.04C191.43 229.62 192.45 229.97 192.87 230.8C196.48 238.08 195.83 247.26 195.79 247.68C195.71 248.59 194.96 249.27 194.09 249.27L194.12 249.23Z" fill="#4D1F1F" fill-opacity="1.000000" fill-rule="nonzero"/>
		<path id="Vector" d="M147.22 250.03C146.42 250.03 145.7 249.46 145.55 248.62C145.47 248.32 144.14 240.81 147.14 233.57C147.52 232.7 148.51 232.28 149.38 232.66C150.25 233 150.67 234.02 150.29 234.89C147.67 241.19 148.89 247.94 148.89 248.02C149.04 248.93 148.43 249.84 147.52 249.99C147.41 249.99 147.29 249.99 147.22 249.99L147.22 250.03Z" fill="#4D1F1F" fill-opacity="1.000000" fill-rule="nonzero"/>
		<path id="Vector" d="M169.92 251.24C169.92 251.24 169.81 251.24 169.73 251.24C168.78 251.13 168.1 250.29 168.22 249.34C168.22 249.27 168.94 242.48 167.69 234.82C167.53 233.87 168.18 233 169.09 232.85C170 232.69 170.91 233.34 171.06 234.25C172.39 242.4 171.63 249.38 171.63 249.68C171.52 250.56 170.8 251.2 169.92 251.2L169.92 251.24Z" fill="#4D1F1F" fill-opacity="1.000000" fill-rule="nonzero"/>
	</g>
	<g clip-path="url(#clip379_79668)">
		<path id="Vector" d="M204.33 91C206.48 86.18 205.56 82.68 203.32 80.44C207.84 72.29 199.12 69.97 199.12 69.97C203.19 62.22 194.3 60.12 194.3 60.12C196.23 50 184.53 51.44 184.53 51.44C181.07 42.33 170.03 46.67 170.03 46.67C161.84 36.64 152.12 46.93 152.12 46.93C142.13 42.02 137.7 52.45 137.7 52.45C127.45 51.62 126.14 61.47 126.14 61.47C126.14 61.47 121.5 62.66 119.13 67.12C118.12 69.05 117.86 71.2 117.82 72.91C114.09 76.59 109.41 83.42 114.44 91.92C115.27 89.47 115.73 86.82 117.82 83.43C119.44 87.37 124.69 86.22 124.69 86.22C131.04 95.03 140.55 87.63 140.55 87.63C149.53 93.58 155.62 85.92 155.62 85.92C164.82 91.35 170.47 84.47 170.47 84.47C168.06 94.77 178.84 95.82 178.84 95.82C176.87 100.72 176.75 104.14 180.84 107.61C180.97 110.55 181.32 113.22 182.15 115.15C183.59 118.49 186.37 118.03 187.07 116.71C187.07 116.71 187.86 108.13 194.08 104.14C196.58 102.52 199.6 101.43 203.54 102.65C203.54 102.65 205.16 101.73 205.82 99.23C207.31 93.54 204.37 90.96 204.37 90.96L204.33 91Z" fill="#4D1F1F" fill-opacity="1.000000" fill-rule="nonzero"/>
	</g>
	<g clip-path="url(#clip379_79669)">
		<path id="Vector" d="M122 103.69C122.93 104.63 122.93 106.14 122 107.07C121.07 108.01 119.55 108.01 118.62 107.08C117.68 106.14 117.68 104.63 118.62 103.7C119.55 102.76 121.06 102.76 122 103.69Z" fill="#4D1F1F" fill-opacity="1.000000" fill-rule="evenodd"/>
		<path id="Vector" d="M143.96 106.84C144.9 107.78 144.9 109.29 143.96 110.22C143.03 111.16 141.52 111.16 140.59 110.22C139.65 109.29 139.65 107.78 140.59 106.84C141.52 105.91 143.03 105.91 143.96 106.84Z" fill="#4D1F1F" fill-opacity="1.000000" fill-rule="evenodd"/>
	</g>
	<g clip-path="url(#clip379_79670)">
		<path id="Vector" d="M115.7 115.3C115.7 119 112.71 122 109.01 122C105.31 122 102.32 119 102.32 115.3C102.32 111.61 105.31 108.61 109.01 108.61C112.71 108.61 115.7 111.61 115.7 115.3Z" fill="#FF88A2" fill-opacity="1.000000" fill-rule="evenodd"/>
		<path id="Vector" d="M157.39 122.67C157.39 126.58 154.22 129.75 150.32 129.75C146.41 129.75 143.25 126.58 143.25 122.67C143.25 118.77 146.41 115.6 150.32 115.6C154.22 115.6 157.39 118.77 157.39 122.67Z" fill="#FF88A2" fill-opacity="1.000000" fill-rule="evenodd"/>
	</g>
	<g clip-path="url(#clip379_79671)">
		<path id="Vector" d="M132.25 147.68C131.46 147.68 130.81 147.08 130.74 146.28C130.66 145.45 131.27 144.69 132.14 144.61C132.18 144.61 136.88 144.12 138.82 140.44C139.23 139.68 140.14 139.42 140.9 139.8C141.66 140.17 141.96 141.12 141.55 141.88C138.85 147.04 132.71 147.64 132.44 147.68C132.41 147.68 132.37 147.68 132.29 147.68L132.25 147.68Z" fill="#4D1F1F" fill-opacity="1.000000" fill-rule="nonzero"/>
	</g>
</svg>
