<svg width="1297" height="700" viewBox="0 0 1297 700" fill="none" xmlns="http://www.w3.org/2000/svg">
<g opacity="0.4">
<path d="M657.258 690.933H903.618V609.937V2.46875" stroke="#00BFE6" stroke-width="3.55257" stroke-linecap="round" stroke-linejoin="round"/>
<path opacity="0.4" d="M656.836 4.35156V619.428V690.48" stroke="#00BFE6" stroke-width="3.55257" stroke-linecap="round" stroke-linejoin="round"/>
<path d="M697.698 690.934H13.1562" stroke="url(#paint0_linear_400_8077)" stroke-width="3.55257" stroke-linecap="round" stroke-linejoin="round"/>
<path d="M903.203 690.906H1294.28" stroke="#00BFE6" stroke-width="3.55257" stroke-linecap="round" stroke-linejoin="round"/>
<path opacity="0.6" d="M903.639 2.47266L372.367 617.576" stroke="#C4F5F5" stroke-width="3.55257" stroke-miterlimit="10"/>
<path opacity="0.6" d="M1148.58 2L532.406 616.453" stroke="#C4F5F5" stroke-width="3.55257" stroke-miterlimit="10"/>
<path d="M1149.56 688.778V4.34375" stroke="#00BFE6" stroke-width="3.55257" stroke-linecap="round" stroke-linejoin="round"/>
<path opacity="0.4" d="M369.109 619.424V5.75781" stroke="#BEEDF5" stroke-width="3.55257" stroke-linecap="round" stroke-linejoin="round"/>
</g>
<g clip-path="url(#clip0_400_8077)">
<path d="M1385.04 503.198C1384.14 485.042 1370.86 469.883 1352.98 466.592L1348.96 465.853C1345.99 465.306 1343.75 462.842 1343.48 459.837L1342.35 446.92C1340.95 431.004 1328.06 418.545 1312.1 417.686L1300.5 417.062C1297.59 416.909 1295.19 419.296 1295.33 422.206L1295.74 430.953C1295.96 435.492 1292.7 439.458 1288.2 440.14L1287.98 440.172C1278.01 441.68 1270.7 450.313 1270.85 460.391C1270.89 462.428 1269.02 463.982 1267.01 463.644L1260.44 462.556C1257.05 461.995 1254.29 459.525 1253.35 456.215L1252.11 451.809C1250.89 447.474 1247.8 443.902 1243.69 442.056L1209.24 426.598L1188.61 459.073L1179.41 451.052L1167.69 454.891C1159.79 457.482 1153.85 464.058 1152.09 472.182L1149.44 484.43L1135.29 485.621L1131.25 470.832C1129.24 463.453 1123.76 457.513 1116.57 454.91L1111.23 452.974L1107.81 434.9C1105.71 423.765 1095.04 416.139 1083.9 418.252C1073.85 420.162 1066.81 429.183 1067.33 439.325L1067.5 442.744L1052.49 449.454L1052.27 446.907C1050.87 430.991 1037.98 418.532 1022.02 417.673L1010.42 417.049C1007.51 416.896 1005.11 419.284 1005.24 422.193L1005.66 430.94C1005.87 435.48 1002.62 439.446 998.123 440.127L997.894 440.159C990.639 441.26 984.792 446.137 982.206 452.599L978.945 452.522C972.532 452.376 967.035 447.894 965.608 441.642L962.857 429.616L954.29 433.111C951.137 434.397 948.328 436.288 945.978 438.618L919.164 426.586L894.68 465.115L861.509 421.614L821.147 452.974L817.727 434.9C815.625 423.765 804.95 416.132 793.817 418.252C783.76 420.162 776.722 429.183 777.244 439.325L777.416 461.613L765.41 466.076C764.913 466.261 763.83 466.751 763.34 466.948C761.537 467.661 759.486 466.719 758.932 464.835L753.773 447.404C753.27 445.704 751.608 444.622 749.85 444.851L721.22 448.531C719.417 448.76 718.073 450.294 718.073 452.108V463.517C718.073 465.802 715.978 467.496 713.742 467.044C712.959 466.885 712.169 466.77 711.367 466.687L696.157 465.179L692.456 448.149C690.195 437.74 680.278 430.838 669.724 432.328H669.712C659.992 433.697 651.801 440.592 649.241 450.065C648.948 451.141 648.731 452.236 648.579 453.363C648.037 457.373 648.547 461.461 649.846 465.293L652.719 473.767C654.827 479.987 652.368 486.843 646.782 490.307L633.783 498.373C624.248 504.287 616.872 513.378 613.93 524.201L613.433 526.639C612.936 529.059 610.79 530.777 608.318 530.733L600.752 530.599C595.726 530.51 591.682 534.642 591.816 539.665C593.23 591.258 614.624 609.758 624.452 615.552C627.191 617.169 630.56 617.277 633.407 615.857L646.069 609.567C647.489 608.861 649.171 609.822 649.286 611.401L653.789 673.517C653.871 674.67 654.82 675.561 655.973 675.58L682.788 676.058C684.011 676.077 685.017 675.096 685.017 673.868C685.017 671.951 684.049 670.156 682.444 669.106L676.196 665.006C675.482 664.541 675.1 663.713 675.208 662.867L680.368 621.6C680.699 618.945 684.578 619.021 684.8 621.689L689.074 672.766C689.17 673.906 690.113 674.784 691.253 674.81L716.379 675.255C717.609 675.275 718.628 674.3 718.647 673.065L718.685 671.022C718.71 669.532 718.137 668.1 717.086 667.043L712.781 662.707C712.322 662.249 712.093 661.606 712.144 660.963L714.628 629.997C714.851 627.253 718.87 627.272 719.073 630.016L722.322 674.727C722.405 675.879 723.354 676.771 724.506 676.79L752.34 677.044V677.286L816.829 678.432C817.045 678.432 817.262 678.407 817.466 678.356L841.255 672.002C842.064 671.786 842.688 671.156 842.898 670.347L846.299 657.111C846.892 654.807 850.165 654.794 850.771 657.092L854.229 670.175C854.49 671.175 855.388 671.875 856.42 671.894L883.368 672.371L905.457 672.766C906.699 672.785 907.737 671.824 907.807 670.583L909.622 637.191C909.763 634.638 913.329 634.167 914.126 636.593L926.253 673.422C926.495 674.167 927.1 674.733 927.858 674.931L938.539 677.757C938.717 677.802 938.902 677.834 939.087 677.834L963.92 678.273C965.194 678.299 966.251 677.28 966.271 676.007V675.924L972.837 676.038C974.028 676.058 975.06 675.141 975.105 673.944C975.175 672.015 974.226 670.201 972.621 669.144L966.086 664.859L966.073 664.827L970.079 645.881C970.85 642.233 973.13 639.146 976.2 637.35L979.162 672.753C979.258 673.893 980.2 674.772 981.34 674.797L989.327 674.937C989.741 675.421 990.346 675.739 991.041 675.752L1013.07 676.147C1013.47 676.529 1014 676.771 1014.59 676.783L1042.42 677.038V677.28L1106.91 678.426C1107.13 678.426 1107.34 678.4 1107.55 678.349L1131.34 671.996C1132.15 671.779 1132.77 671.149 1132.98 670.341L1136.38 657.105C1136.97 654.8 1140.25 654.788 1140.85 657.086L1144.31 670.169C1144.57 671.168 1145.47 671.869 1146.5 671.888L1173.45 672.365L1195.54 672.76C1196.78 672.779 1197.82 671.818 1197.89 670.576L1199.7 637.185C1199.84 634.632 1203.41 634.161 1204.21 636.586L1216.33 673.416C1216.58 674.16 1217.18 674.727 1217.94 674.924L1228.62 677.751C1228.8 677.796 1228.98 677.827 1229.17 677.827L1254 678.267C1255.28 678.292 1256.33 677.274 1256.35 676V675.51C1256.36 675.23 1256.32 674.95 1256.22 674.682L1255.08 671.531C1254.94 671.13 1254.91 670.691 1255 670.271L1260.15 645.875C1261.33 640.272 1266.06 635.969 1271.78 635.695C1278.25 635.377 1283.81 640.011 1284.74 646.32L1287.47 664.872C1287.61 665.827 1287.15 666.763 1286.31 667.227L1280.05 670.691C1279.33 671.092 1278.87 671.843 1278.86 672.671L1278.85 673.396C1278.82 674.67 1279.84 675.727 1281.12 675.746L1310.02 676.261C1311.26 676.28 1312.3 675.319 1312.37 674.078L1314.32 638.649C1314.39 637.407 1315.43 636.446 1316.67 636.465L1323.04 636.58C1324.17 636.599 1325.13 637.439 1325.29 638.566L1328.6 662.039C1328.73 662.879 1328.37 663.72 1327.68 664.229L1317 672.06C1316.5 672.429 1316.11 672.951 1316.01 673.562C1315.74 675.052 1316.91 676.344 1318.36 676.293L1352.36 675.134C1353.59 675.09 1354.57 674.097 1354.6 672.868L1355.22 637.955C1355.24 636.726 1356.23 635.727 1357.46 635.689L1389.21 634.664C1390.51 634.619 1391.51 633.53 1391.45 632.238L1385.05 503.186L1385.04 503.198Z" fill="#DAF8F7"/>
<path d="M999.733 682.388C1210.79 682.388 1381.89 679.939 1381.89 676.919C1381.89 673.899 1210.79 671.45 999.733 671.45C788.675 671.45 617.578 673.899 617.578 676.919C617.578 679.939 788.675 682.388 999.733 682.388Z" fill="#DAF8F7"/>
<path d="M1037.76 249.494C1042.48 243.911 1044.97 236.487 1044.55 229.192C1044.2 222.902 1041.53 215.16 1036.61 210.914C1034.9 209.43 1033.19 207.909 1031.48 206.375C1029.3 200.702 1024.81 195.921 1019.21 193.521C1015.84 192.076 1012.2 191.395 1008.55 191.382L1008.56 191.369H1002.51H1002.53C998.973 191.426 995.432 192.114 992.146 193.521C986.547 195.921 982.063 200.702 979.878 206.375C978.165 207.909 976.458 209.43 974.745 210.914C969.828 215.16 967.159 222.902 966.802 229.192C966.388 236.494 968.872 243.917 973.598 249.494C963.516 258.19 959.006 270.611 964.337 286.852H1047.02C1052.34 270.611 1047.84 258.19 1037.76 249.494Z" fill="#4D1F1F" stroke="#4D1F1F" stroke-width="2.54626" stroke-linecap="round" stroke-linejoin="round"/>
<path d="M995.55 699.824C1080.18 699.824 1148.79 698.191 1148.79 696.176C1148.79 694.162 1080.18 692.528 995.55 692.528C910.919 692.528 842.312 694.162 842.312 696.176C842.312 698.191 910.919 699.824 995.55 699.824Z" fill="#4D1F1F"/>
<path d="M1041.35 375.228L1048.95 389.978C1056.73 405.079 1061.69 421.473 1063.58 438.356L1071.72 511.327L1089.89 640.711H1065.54L1041.58 565.104C1038.33 554.854 1036.14 544.299 1035.05 533.603L1032.73 510.735L1008.94 439.922C1007.89 436.79 1003.45 436.79 1002.4 439.922L978.609 510.735L976.285 533.603C975.196 544.299 973.011 554.854 969.763 565.104L945.795 640.711H921.445L939.617 511.327L947.763 438.356C949.648 421.473 954.604 405.079 962.387 389.978L969.992 375.228H1041.35H1041.35Z" fill="#00BFE6"/>
<path d="M1063.58 438.351L1005.67 378.781L947.766 438.351" stroke="#4D1F1F" stroke-width="2.54626" stroke-linecap="round" stroke-linejoin="round"/>
<path d="M1089.89 640.703H1065.54L1041.58 565.096C1038.33 554.846 1036.14 544.291 1035.05 533.595L1032.73 510.728L1008.94 439.915C1007.89 436.782 1003.45 436.782 1002.4 439.915L978.609 510.728L976.285 533.595C975.196 544.291 973.011 554.846 969.763 565.096L945.795 640.703H921.445" stroke="#4D1F1F" stroke-width="2.54626" stroke-linecap="round" stroke-linejoin="round"/>
<path d="M1069.62 310.812L1067.2 299.945C1065.22 291.025 1057.57 284.506 1048.45 283.965L1027.16 282.698C1022.1 282.399 1018.15 278.21 1018.15 273.142V263.727L1005.68 266.973L993.205 263.727V273.142C993.205 278.21 989.256 282.399 984.192 282.698L965.091 283.965C955.97 284.506 948.314 291.032 946.333 299.945L944.467 310.812C944.467 310.812 928.818 329.332 925.672 352.728C918.812 352.843 907.755 355.657 901.94 358.413C899.169 359.731 896.462 361.393 893.488 361.877C890.513 362.36 887.087 361.335 885.571 358.394C884.322 355.969 884.634 352.849 883.507 350.347C882.501 348.106 880.278 346.782 878.08 346.757H873.953L880.857 375.551H930.831L932.487 373.896C945.263 361.164 955.55 346.158 962.83 329.656H1048.52L1067.48 354.307C1067.94 354.937 1068.04 355.759 1067.74 356.472L1066.55 359.324C1065.83 361.036 1063.66 361.565 1062.23 360.368L1057.66 356.516C1055.85 354.988 1053.38 354.466 1051.1 355.135L1042.06 357.783L1040.18 363.207V376.64C1040.18 378.073 1041.34 379.231 1042.77 379.231H1085.65C1098.56 345.057 1069.62 310.812 1069.62 310.812H1069.62Z" fill="#FFBB99"/>
<path d="M1049.06 367.838L1040.14 368.57" stroke="#4D1F1F" stroke-width="2.54626" stroke-linecap="round" stroke-linejoin="round"/>
<path d="M1049.06 361.668L1040.14 363.133" stroke="#4D1F1F" stroke-width="2.54626" stroke-linecap="round" stroke-linejoin="round"/>
<path d="M1049.06 355.499L1040.14 357.689" stroke="#4D1F1F" stroke-width="2.54626" stroke-linecap="round" stroke-linejoin="round"/>
<path d="M1040.16 359.2H971.172V375.231H1040.16V359.2Z" fill="#4D1F1F"/>
<path d="M1040.83 303.79H1036.47C1026.19 303.79 1016.23 307.323 1008.25 313.804L1005.67 315.898L1003.09 313.804C995.108 307.329 985.146 303.79 974.866 303.79H970.51L960.141 323.633C960.141 332.916 967.484 341.065 967.484 341.065L971.172 359.202H1040.16L1043.85 341.065C1043.85 341.065 1051.19 332.916 1051.19 323.633L1040.82 303.79H1040.83Z" fill="#FF5C4D"/>
<path d="M974.876 318.861C985.156 318.861 995.117 323.12 1003.1 330.925L1005.68 333.446L1008.26 330.925C1016.24 323.12 1026.2 318.861 1036.48 318.861H1048.71L1040.84 303.785H1036.48C1026.2 303.785 1016.24 307.318 1008.26 313.799L1005.68 315.894L1003.1 313.799C995.117 307.325 985.156 303.785 974.876 303.785H970.519L962.641 318.861H974.876Z" fill="#FF5C4D"/>
<path d="M1048.71 318.86H1036.48C1026.2 318.86 1016.24 323.119 1008.26 330.925L1005.68 333.446L1003.1 330.925C995.117 323.119 985.156 318.86 974.876 318.86H962.641" stroke="#4D1F1F" stroke-width="2.54626" stroke-linecap="round" stroke-linejoin="round"/>
<path d="M1005.68 315.897V308.633" stroke="#4D1F1F" stroke-width="2.54626" stroke-linecap="round" stroke-linejoin="round"/>
<path d="M1009.88 376.677L1005.68 378.771L1001.48 376.677C998.303 375.085 996.297 371.838 996.297 368.292V356.896H1015.06V368.292C1015.06 371.845 1013.05 375.091 1009.88 376.677Z" fill="#FFE88C"/>
<path d="M1008.08 365.487C1009.37 365.487 1010.42 364.438 1010.42 363.144C1010.42 361.851 1009.37 360.802 1008.08 360.802C1006.78 360.802 1005.73 361.851 1005.73 363.144C1005.73 364.438 1006.78 365.487 1008.08 365.487Z" fill="#FF5C4D"/>
<path d="M1015.06 356.898V368.294C1015.06 371.846 1013.05 375.093 1009.88 376.678L1005.68 378.773L1001.48 376.678C998.303 375.087 996.297 371.84 996.297 368.294V356.898" stroke="#4D1F1F" stroke-width="2.54626" stroke-linecap="round" stroke-linejoin="round"/>
<path d="M1007.45 184.61V174.723" stroke="#4D1F1F" stroke-width="2.54626" stroke-linecap="round" stroke-linejoin="round"/>
<path d="M1047.77 206.217L1053.03 202.003" stroke="#4D1F1F" stroke-width="2.54626" stroke-linecap="round" stroke-linejoin="round"/>
<path d="M1075.25 330.47C1069.2 330.967 1063.36 333.692 1059.07 337.976L1067.5 349.569C1067.96 350.199 1068.05 351.021 1067.75 351.734L1066.62 354.446C1068.66 349.792 1073.16 346.641 1078.28 346.558C1082.2 346.494 1086.01 348.341 1088.79 351.135C1088.24 344.107 1086.52 337.397 1084.32 331.368C1081.38 330.547 1078.3 330.222 1075.25 330.47H1075.25Z" fill="#FFE88C"/>
<path d="M1084.3 331.368C1081.37 330.547 1078.28 330.222 1075.24 330.47C1069.19 330.967 1063.36 333.692 1059.06 337.976" stroke="#FF5B4D" stroke-width="2.54626" stroke-linecap="round" stroke-linejoin="round"/>
<path d="M1066.59 353.716C1068.63 349.062 1073.14 345.911 1078.26 345.828C1082.18 345.764 1085.99 347.61 1088.77 350.405C1089.36 357.968 1088.61 365.907 1085.64 373.763H1041.3C1039.86 373.763 1038.7 372.605 1038.7 371.172" stroke="#4D1F1F" stroke-width="2.54626" stroke-linecap="round" stroke-linejoin="round"/>
<path d="M967.484 341.06C967.484 341.06 960.141 332.911 960.141 323.629L970.51 303.785L966.714 306.058" stroke="#4D1F1F" stroke-width="2.54626" stroke-linecap="round" stroke-linejoin="round"/>
<path d="M1067.47 350.304L1050.81 327.366" stroke="#4D1F1F" stroke-width="2.54626" stroke-linecap="round" stroke-linejoin="round"/>
<path d="M1043.85 341.058C1043.85 341.058 1051.19 332.909 1051.19 323.627L1040.82 303.783L1044.62 306.056" stroke="#4D1F1F" stroke-width="2.54626" stroke-linecap="round" stroke-linejoin="round"/>
<path d="M943.941 338.217C939.789 336.077 935.101 335.002 930.432 335.065C928.305 340.419 926.528 346.391 925.674 352.725C925.445 352.725 925.197 352.745 924.961 352.751C929.54 353.126 934.024 354.603 937.91 357.048C939.948 358.334 941.808 359.888 943.457 361.638C944.387 360.473 945.298 359.295 946.19 358.105C946.247 358.029 946.304 357.952 946.362 357.869C947.177 356.774 947.979 355.667 948.769 354.546C948.852 354.425 948.935 354.311 949.018 354.19C950.718 351.751 952.349 349.268 953.896 346.728C951.285 343.176 947.865 340.222 943.948 338.204L943.941 338.217Z" fill="#FFE88C"/>
<path d="M953.88 346.747C951.268 343.195 947.848 340.241 943.931 338.223C939.778 336.084 935.091 335.001 930.422 335.065" stroke="#FF5C4D" stroke-width="2.54626" stroke-linecap="round" stroke-linejoin="round"/>
<path d="M925.664 352.827C929.995 353.292 934.224 354.737 937.906 357.061C939.944 358.347 941.804 359.9 943.453 361.651" stroke="#4D1F1F" stroke-width="2.54626" stroke-linecap="round" stroke-linejoin="round"/>
<path d="M1048.96 389.981L1046.42 318.869H1024.53V387.989C1024.53 410.233 1031.07 430.229 1046 440.18L1065.22 452.995L1063.59 438.366C1061.71 421.482 1056.75 405.089 1048.97 389.988L1048.96 389.981Z" fill="#4D1F1F" stroke="#4D1F1F" stroke-width="2.54626" stroke-linecap="round" stroke-linejoin="round"/>
<path d="M1024.55 318.859L1036.75 387.978C1040.67 410.222 1053.47 430.219 1070.15 440.17L1092.04 453.214H1099.34L1098.48 448.351L1109.32 440.163C1122.49 430.213 1128.23 410.216 1124.31 387.972L1112.12 318.853H1024.55V318.859Z" fill="#FF5C4D" stroke="#FF5B4D" stroke-width="2.54626" stroke-linecap="round" stroke-linejoin="round"/>
<path d="M1099.34 453.213L1077.46 440.168C1060.78 430.218 1047.97 410.221 1044.05 387.977L1031.86 318.857H1119.42L1131.61 387.977C1135.54 410.221 1129.79 430.218 1116.62 440.168L1099.34 453.213Z" fill="#FFE88C" stroke="#FFE680" stroke-width="2.54626" stroke-linecap="round" stroke-linejoin="round"/>
<path d="M1047.3 335.531L1056.56 387.977C1059.36 403.868 1068.51 418.147 1080.42 425.259L1096.05 434.579L1108.4 425.259C1117.81 418.154 1121.91 403.868 1119.11 387.977L1109.86 335.531H1047.31H1047.3Z" stroke="#FF5B4D" stroke-width="2.54626" stroke-linecap="round" stroke-linejoin="round"/>
<path d="M1089.25 360.539C1088.44 355.936 1090.58 352.205 1094.03 352.205C1097.49 352.205 1100.95 355.936 1101.76 360.539C1102.58 365.142 1100.43 368.872 1096.98 368.872C1093.52 368.872 1090.07 365.142 1089.25 360.539Z" fill="#FF5C4D" stroke="#FF5B4D" stroke-width="2.54626" stroke-linecap="round" stroke-linejoin="round"/>
<path d="M998.367 437.565H1012.97" stroke="#4D1F1F" stroke-width="2.54626" stroke-linecap="round" stroke-linejoin="round"/>
<path d="M971.429 559.572H921.418V655.399C921.418 661.517 918.558 667.278 913.686 670.977L888.75 689.911C888.75 693.367 891.553 696.169 895.011 696.169H944.545V665.712C944.545 662.847 944.914 659.989 945.647 657.219L971.423 559.566L971.429 559.572Z" fill="#4D1F1F" stroke="#4D1F1F" stroke-width="2.54626" stroke-linecap="round" stroke-linejoin="round"/>
<path d="M1099.3 453.216L1116.58 440.171C1129.75 430.221 1135.49 410.224 1131.57 387.98L1119.38 318.86" stroke="#FF5B4D" stroke-width="2.54626" stroke-linecap="round" stroke-linejoin="round"/>
<path d="M1039.93 559.572H1089.94V655.399C1089.94 661.517 1092.8 667.278 1097.67 670.977L1122.61 689.911C1122.61 693.367 1119.81 696.169 1116.35 696.169H1066.81V665.712C1066.81 662.847 1066.44 659.989 1065.71 657.219L1039.94 559.566L1039.93 559.572Z" fill="#4D1F1F" stroke="#4D1F1F" stroke-width="2.54626" stroke-linecap="round" stroke-linejoin="round"/>
<path d="M1024.53 318.86L1036.72 387.98C1040.65 410.224 1053.45 430.221 1070.13 440.171L1092.01 453.216H1099.31L1116.59 440.171" stroke="#4D1F1F" stroke-width="2.54626" stroke-linecap="round" stroke-linejoin="round"/>
<path d="M924.359 640.708L932.837 559.575L966.715 577.376" stroke="#FF5B4D" stroke-width="2.54626" stroke-linecap="round" stroke-linejoin="round"/>
<path d="M1086.98 640.708L1078.51 559.575L1044.63 577.376" stroke="#FF5B4D" stroke-width="2.54626" stroke-linecap="round" stroke-linejoin="round"/>
<path d="M1085.64 307.869L1090.8 302.745" stroke="#FF5B4D" stroke-width="2.54626" stroke-linecap="round" stroke-linejoin="round"/>
<path d="M961.015 334.864C953.71 349.774 943.449 362.832 930.825 375.558H878.336" stroke="#4D1F1F" stroke-width="2.54626" stroke-linecap="round" stroke-linejoin="round"/>
<path d="M853.783 353.723L861.293 371.485C861.91 372.949 863.624 373.605 865.063 372.936L872.592 369.422C873.967 368.779 874.585 367.156 873.974 365.761L866.713 349.139C866.14 347.834 864.681 347.165 863.318 347.579L855.548 349.96C853.955 350.444 853.14 352.201 853.783 353.729V353.723Z" fill="#FFBB99"/>
<path d="M861.281 371.472C861.899 372.936 863.612 373.592 865.052 372.923L872.58 369.409C873.956 368.766 874.574 367.143 873.962 365.749L868.364 349.126" stroke="#4D1F1F" stroke-width="2.54626" stroke-linecap="round" stroke-linejoin="round"/>
<path d="M855.82 358.558L868.782 353.886" stroke="#4D1F1F" stroke-width="2.54626" stroke-linecap="round" stroke-linejoin="round"/>
<path d="M859.117 366.349L872.136 360.314" stroke="#4D1F1F" stroke-width="2.54626" stroke-linecap="round" stroke-linejoin="round"/>
<path d="M843.773 151.673L891.498 696.926C891.638 698.518 894.855 699.543 898.683 699.205C902.511 698.868 905.504 697.308 905.364 695.71L857.639 150.458L843.773 151.667V151.673Z" fill="#FF5C4D" stroke="#FF5C4D" stroke-width="2.54626" stroke-linecap="round" stroke-linejoin="round"/>
<path d="M862.202 202.707L848.336 203.923L855.164 281.917L868.507 274.793L862.202 202.707Z" fill="#4D1F1F" stroke="#4D1F1F" stroke-width="2.54626" stroke-linecap="round" stroke-linejoin="round"/>
<path d="M872.819 323.978L858.953 325.187L865.794 403.309L879.137 396.172L872.819 323.978Z" fill="#4D1F1F" stroke="#4D1F1F" stroke-width="2.54626" stroke-linecap="round" stroke-linejoin="round"/>
<path d="M869.57 446.455L876.405 524.563L889.754 517.427L883.436 445.239L869.57 446.455Z" fill="#4D1F1F" stroke="#4D1F1F" stroke-width="2.54626" stroke-linecap="round" stroke-linejoin="round"/>
<path d="M857.639 150.458L843.773 151.667L891.498 696.92C891.638 698.511 894.855 699.536 898.683 699.199L990.062 698.556" stroke="#4D1F1F" stroke-width="2.54626" stroke-linecap="round" stroke-linejoin="round"/>
<path d="M849.434 151.117C857.44 151.117 863.93 144.63 863.93 136.628C863.93 128.625 857.44 122.138 849.434 122.138C841.428 122.138 834.938 128.625 834.938 136.628C834.938 144.63 841.428 151.117 849.434 151.117Z" fill="#FFE88C" stroke="#FF5C4D" stroke-width="2.54626" stroke-linecap="round" stroke-linejoin="round"/>
<path d="M848.796 134.912C851.997 134.912 854.592 132.318 854.592 129.119C854.592 125.919 851.997 123.325 848.796 123.325C845.595 123.325 843 125.919 843 129.119C843 132.318 845.595 134.912 848.796 134.912Z" fill="#FBFCF9"/>
<path d="M850.095 144.132C845.032 144.578 840.484 141.516 838.809 136.97C838.637 137.912 838.58 138.893 838.662 139.892C839.191 145.953 844.535 150.435 850.598 149.907C856.662 149.378 861.146 144.037 860.617 137.976C860.528 136.977 860.299 136.022 859.968 135.124C859.108 139.892 855.159 143.693 850.095 144.132Z" fill="#FF5C4D"/>
<path d="M906.301 163.331L790.758 173.436L791.769 184.985L907.312 174.88L906.301 163.331Z" fill="#FF5C4D" stroke="#FF5C4D" stroke-width="2.54626" stroke-linecap="round" stroke-linejoin="round"/>
<path d="M790.867 174.599L791.778 184.989L907.323 174.886L906.31 163.337" stroke="#4D1F1F" stroke-width="2.54626" stroke-linecap="round" stroke-linejoin="round"/>
<path d="M790.772 173.432L778.709 168.67L762.391 181.734L780.734 191.768L791.778 184.981L790.772 173.432Z" fill="#FFE88C" stroke="#FF5C4D" stroke-width="2.54626" stroke-linecap="round" stroke-linejoin="round"/>
<path d="M793.008 179.06L780.855 186.527L769.798 181.09L762.391 181.74L793.008 179.06Z" fill="#FF5C4D" stroke="#FF5C4D" stroke-width="2.54626" stroke-linecap="round" stroke-linejoin="round"/>
<path d="M790.772 173.44L791.778 184.989L780.734 191.775L762.391 181.742" stroke="#4D1F1F" stroke-width="2.54626" stroke-linecap="round" stroke-linejoin="round"/>
<path d="M906.32 163.33L917.371 156.544L935.708 166.577L919.39 179.647L907.333 174.879L906.32 163.33Z" fill="#FFE88C" stroke="#FF5C4D" stroke-width="2.54626" stroke-linecap="round" stroke-linejoin="round"/>
<path d="M905.078 169.262L918.345 174.502L928.294 167.231L935.695 166.582L905.078 169.262Z" fill="#FF5C4D" stroke="#FF5C4D" stroke-width="2.54626" stroke-linecap="round" stroke-linejoin="round"/>
<path d="M906.32 163.337L907.333 174.886L919.39 179.654L935.708 166.584" stroke="#4D1F1F" stroke-width="2.54626" stroke-linecap="round" stroke-linejoin="round"/>
<path d="M900.875 239.132L848.743 266.966L796.891 248.224L797.356 170.21L814.686 168.695L814.572 188.494L883.895 182.427L884.016 162.634L901.346 161.119L900.875 239.132Z" fill="#FBFCF9" stroke="#C4F5F5" stroke-width="2.54626" stroke-linecap="round" stroke-linejoin="round"/>
<path d="M816.503 231.222C814.643 228.726 813.541 224.365 813.579 218.75C813.611 213.473 814.605 209.271 816.586 206.145C818.566 203.038 821.127 201.338 824.26 201.065C825.974 200.912 827.375 201.294 828.451 202.179L828.419 207.59C827.324 206.323 826.082 205.75 824.732 205.865C822.859 206.03 821.362 207.183 820.267 209.347C819.146 211.512 818.592 214.472 818.566 218.266C818.541 222.564 819.178 225.83 820.178 227.555C821.184 229.306 822.439 230.082 823.866 229.961C824.088 229.942 824.381 229.872 824.744 229.745L824.808 218.878L824.197 218.929C823.184 219.018 822.299 219.228 821.553 219.591L822.057 214.708L829.254 214.077L829.146 231.769C827.738 233.463 825.885 234.418 823.579 234.622C820.783 234.864 818.35 233.718 816.496 231.216L816.503 231.222Z" fill="#00BFE6"/>
<path d="M831.914 233.444C832.634 230.268 833.016 226.301 833.048 221.571L833.099 212.544C833.124 207.788 832.787 203.892 832.112 200.836L837.889 200.333C841.296 200.034 843.952 201.212 845.831 203.841C847.71 206.496 848.633 210.411 848.602 215.6C848.57 220.807 847.595 224.939 845.684 227.944C843.774 230.974 841.099 232.642 837.691 232.942L831.914 233.444ZM837.608 228.377L838.175 228.326C839.799 228.186 841.137 227.091 842.162 225.047C843.188 223.004 843.729 219.999 843.748 216.02C843.774 211.996 843.207 208.909 842.175 207.177C841.15 205.471 839.818 204.726 838.264 204.86L837.748 204.904L837.608 228.371V228.377Z" fill="#00BFE6"/>
<path d="M850.398 231.826C850.742 230.362 851.029 228.522 851.246 226.319C851.462 224.116 851.564 221.996 851.577 219.946L851.628 210.919C851.641 208.875 851.564 206.768 851.373 204.578C851.182 202.413 850.921 200.618 850.596 199.211L857.093 198.645C859.984 198.39 862.233 199.243 863.844 201.166C865.455 203.114 866.252 205.864 866.232 209.436C866.213 212.912 865.653 215.694 864.538 217.769C863.424 219.87 862.08 220.984 860.57 221.118C858.156 221.328 856.742 219.724 856.583 216.305L856.156 216.343L856.137 219.552C856.124 221.551 856.226 223.632 856.417 225.803C856.608 227.993 856.844 229.789 857.15 231.24L850.405 231.832L850.398 231.826ZM861.385 209.588C861.398 207.564 861.003 205.985 860.194 204.807C859.392 203.629 858.398 203.101 857.252 203.203C856.736 203.247 856.347 203.553 856.233 203.566L856.182 211.772C856.22 213.09 856.462 214.223 856.908 215.165C857.328 216.107 857.914 216.553 858.659 216.489C860.354 216.343 861.36 213.937 861.385 209.595V209.588Z" fill="#00BFE6"/>
<path d="M877.628 227.084C877.074 225.333 876.883 223.124 876.762 220.978C876.577 217.833 876.259 215.045 873.953 215.249C873.456 215.293 873.138 215.363 872.979 215.472L872.953 219.202C872.928 224.022 873.106 227.555 873.52 229.815L867.609 230.331C867.775 229.204 867.915 227.918 867.992 226.479C868.068 225.04 868.119 223.811 868.151 222.78C868.176 221.755 868.189 220.253 868.202 218.228L868.253 209.748C868.291 203.611 868.132 199.6 867.807 197.716L873.673 197.2C879.475 196.691 882.953 199.206 882.921 204.687C882.889 209.691 880.214 212.422 875.679 212.823L875.565 212.836V213.154L876.125 213.103C878.316 212.912 879.845 213.708 880.488 214.994C881.131 216.299 881.437 217.98 881.52 219.61C881.596 222.01 881.673 224.117 883.029 224.002C883.571 223.958 884.048 223.595 884.437 222.946L884.45 228.198C883.927 229.127 882.998 229.643 881.666 229.758C879.52 229.942 878.15 228.835 877.622 227.09L877.628 227.084ZM873.01 211.009L873.507 210.964C876.329 210.716 878.1 208.946 878.119 205.763C878.138 202.828 876.361 201.529 873.565 201.778L873.068 201.822L873.01 211.009Z" fill="#00BFE6"/>
<path d="M916.926 284.597L801.383 294.701L802.394 306.25L917.937 296.146L916.926 284.597Z" fill="#FF5C4D" stroke="#FF5C4D" stroke-width="2.54626" stroke-linecap="round" stroke-linejoin="round"/>
<path d="M801.383 294.702L802.396 306.251L917.934 296.147L916.921 284.599" stroke="#4D1F1F" stroke-width="2.54626" stroke-linecap="round" stroke-linejoin="round"/>
<path d="M911.669 360.377L859.677 388.198L807.685 369.468L807.672 291.499L825.003 289.984V309.771L894.332 303.704L894.325 283.923L911.656 282.408L911.669 360.377Z" fill="#FBFCF9" stroke="#C4F5F5" stroke-width="2.54626" stroke-linecap="round" stroke-linejoin="round"/>
<path d="M796.986 291.015L796.979 291.016C794.747 291.211 793.096 293.178 793.291 295.409L794.303 306.964C794.498 309.196 796.466 310.846 798.698 310.651L798.704 310.65C800.936 310.455 802.588 308.488 802.392 306.257L801.381 294.702C801.186 292.47 799.218 290.82 796.986 291.015Z" fill="#FFE88C" stroke="#FF5C4D" stroke-width="2.54626" stroke-linecap="round" stroke-linejoin="round"/>
<path d="M793.711 300.029C793.908 302.264 795.877 303.912 798.106 303.715C800.341 303.518 801.991 301.55 801.794 299.322L801.997 301.633C802.195 303.868 800.539 305.835 798.31 306.026C796.074 306.223 794.106 304.568 793.915 302.34L793.711 300.029Z" stroke="#FF5C4D" stroke-width="2.54626" stroke-linecap="round" stroke-linejoin="round"/>
<path d="M794.305 306.956C794.502 309.191 796.47 310.84 798.699 310.643C800.935 310.445 802.585 308.478 802.387 306.25L801.374 294.701" stroke="#4D1F1F" stroke-width="2.54626" stroke-linecap="round" stroke-linejoin="round"/>
<path d="M922.327 299.843L922.333 299.842C924.565 299.647 926.217 297.68 926.021 295.449L925.01 283.893C924.815 281.662 922.847 280.012 920.615 280.207L920.608 280.208C918.376 280.403 916.725 282.37 916.92 284.601L917.931 296.156C918.127 298.387 920.095 300.038 922.327 299.843Z" fill="#FFE88C" stroke="#FF5C4D" stroke-width="2.54626" stroke-linecap="round" stroke-linejoin="round"/>
<path d="M925.426 288.508C925.624 290.743 923.968 292.71 921.738 292.901C919.503 293.098 917.535 291.443 917.344 289.215L917.548 291.526C917.745 293.761 919.713 295.409 921.942 295.212C924.178 295.015 925.828 293.048 925.63 290.819L925.426 288.508Z" stroke="#FF5C4D" stroke-width="2.54626" stroke-linecap="round" stroke-linejoin="round"/>
<path d="M926.017 295.441C926.215 297.675 924.559 299.642 922.329 299.833C920.094 300.031 918.126 298.375 917.935 296.147L916.922 284.599" stroke="#4D1F1F" stroke-width="2.54626" stroke-linecap="round" stroke-linejoin="round"/>
<path d="M863.877 135.369C864.577 143.34 858.673 150.368 850.699 151.069C842.724 151.769 835.693 145.867 834.992 137.897" stroke="#4D1F1F" stroke-width="2.54626" stroke-linecap="round" stroke-linejoin="round"/>
<path d="M819.155 356.891C819.766 354.115 820.085 350.645 820.078 346.507V338.613C820.078 334.456 819.76 331.043 819.148 328.376L824.199 327.937C827.18 327.676 829.511 328.707 831.167 331.005C832.823 333.329 833.657 336.754 833.657 341.287C833.657 345.839 832.83 349.455 831.174 352.084C829.518 354.733 827.186 356.19 824.206 356.451L819.155 356.891ZM824.11 352.46L824.607 352.415C826.027 352.288 827.193 351.333 828.084 349.544C828.97 347.755 829.428 345.132 829.428 341.65C829.428 338.129 828.912 335.43 828.008 333.921C827.097 332.431 825.938 331.775 824.575 331.896L824.123 331.935V352.453L824.11 352.46Z" fill="#00BFE6"/>
<path d="M835.312 355.472C835.924 352.696 836.242 349.226 836.242 345.088V337.194C836.242 333.037 835.924 329.624 835.312 326.957L840.682 326.486L843.153 332.954C843.688 334.202 844.019 335.621 844.198 337.219L844.471 337.194C844.573 336.252 844.924 334.768 845.535 332.744L848 325.849L853.369 325.378C853.096 326.677 852.879 328.287 852.701 330.229C852.522 332.171 852.446 334.011 852.446 335.781V343.675C852.446 345.445 852.529 347.265 852.707 349.163C852.885 351.053 853.102 352.626 853.376 353.899L847.51 354.415C847.783 353.097 848 351.486 848.178 349.564C848.357 347.641 848.433 345.801 848.433 344.031V336.735L848.197 336.755L844.886 347.724L843.841 347.813L840.523 337.423L840.268 337.449V344.744C840.268 348.8 840.567 352.212 841.159 354.969L835.319 355.478L835.312 355.472Z" fill="#00BFE6"/>
<path d="M854.602 353.788C855.117 352.508 855.627 350.897 856.124 348.943C856.614 347.007 857.028 345.104 857.347 343.245L858.888 335.217C859.621 330.881 859.894 327.412 859.735 324.821L866.939 324.19C866.862 325.47 866.901 327.055 867.079 328.972C867.238 330.888 867.474 332.696 867.792 334.44L869.314 342.201C870.028 346.256 870.951 349.611 872.079 352.26L866.174 352.775C866.27 350.477 866.098 347.829 865.64 344.849L865.442 343.716L861.238 344.085L861.041 345.295C860.608 348.656 860.429 351.317 860.512 353.278L854.608 353.794L854.602 353.788ZM861.786 340.647L864.862 340.38L864.13 336.707C864.009 336.019 863.792 334.09 863.474 330.939L863.155 330.964C863.117 331.365 863.06 331.989 862.996 332.81C862.939 333.651 862.856 334.377 862.799 334.994C862.741 335.618 862.64 336.223 862.544 336.847L861.773 340.654L861.786 340.647Z" fill="#00BFE6"/>
<path d="M881.767 349.343C881.27 347.815 881.098 345.879 880.977 344.001C880.799 341.251 880.5 338.813 878.487 338.991C878.054 339.029 877.773 339.093 877.64 339.182V342.441C877.64 346.656 877.818 349.744 878.194 351.717L873.022 352.169C873.162 351.182 873.277 350.062 873.334 348.801C873.391 347.541 873.436 346.465 873.455 345.567C873.474 344.67 873.474 343.358 873.474 341.588V334.172C873.474 328.805 873.315 325.297 873.016 323.654L878.149 323.202C883.226 322.757 886.283 324.959 886.283 329.747C886.283 334.121 883.952 336.514 879.984 336.858H879.888V337.145L880.379 337.1C882.296 336.935 883.633 337.628 884.206 338.755C884.78 339.901 885.054 341.365 885.136 342.792C885.219 344.892 885.296 346.732 886.48 346.63C886.952 346.592 887.366 346.274 887.703 345.707L887.741 350.297C887.289 351.112 886.48 351.564 885.315 351.666C883.442 351.832 882.238 350.864 881.761 349.33L881.767 349.343ZM877.64 335.286L878.073 335.247C880.538 335.031 882.079 333.484 882.079 330.702C882.079 328.136 880.519 327.003 878.073 327.213L877.64 327.251V335.286Z" fill="#00BFE6"/>
<path d="M891.352 347.29C889.912 344.972 889.18 341.375 889.18 336.543C889.18 331.609 890.065 327.618 891.568 325.16C893.046 322.703 894.982 321.34 897.275 321.143C898.536 321.035 899.523 321.264 900.256 321.856V327.064C899.485 326.16 898.619 325.733 897.632 325.822C894.887 326.064 893.504 329.502 893.504 336.123C893.504 342.725 894.944 345.902 897.829 345.647C898.918 345.552 899.861 345.074 900.67 344.208V349.021C899.625 349.868 898.421 350.352 897.02 350.473C894.67 350.677 892.797 349.607 891.352 347.29Z" fill="#00BFE6"/>
<path d="M927.543 405.858L812 415.962L813.011 427.511L928.554 417.407L927.543 405.858Z" fill="#FF5C4D" stroke="#FF5C4D" stroke-width="2.54626" stroke-linecap="round" stroke-linejoin="round"/>
<path d="M812 415.963L813.013 427.511L928.557 417.408L927.545 405.859" stroke="#4D1F1F" stroke-width="2.54626" stroke-linecap="round" stroke-linejoin="round"/>
<path d="M922.258 481.638L870.259 509.465L818.273 490.735L818.299 412.76L835.63 411.245L835.623 431.032L904.946 424.971L904.953 405.184L922.283 403.669L922.258 481.638Z" fill="#FBFCF9" stroke="#C4F5F5" stroke-width="2.54626" stroke-linecap="round" stroke-linejoin="round"/>
<path d="M807.595 412.276L807.589 412.276C805.357 412.472 803.705 414.439 803.9 416.67L804.912 428.225C805.107 430.456 807.075 432.107 809.307 431.912L809.314 431.911C811.546 431.716 813.197 429.749 813.002 427.518L811.99 415.962C811.795 413.731 809.827 412.081 807.595 412.276Z" fill="#FFE88C" stroke="#FF5C4D" stroke-width="2.54626" stroke-linecap="round" stroke-linejoin="round"/>
<path d="M804.305 421.29C804.502 423.525 806.47 425.174 808.699 424.976C810.935 424.779 812.585 422.812 812.387 420.583L812.591 422.894C812.789 425.129 811.133 427.096 808.903 427.287C806.668 427.485 804.699 425.829 804.508 423.601L804.305 421.29Z" stroke="#FF5C4D" stroke-width="2.54626" stroke-linecap="round" stroke-linejoin="round"/>
<path d="M804.914 428.217C805.112 430.452 807.08 432.101 809.309 431.903C811.544 431.706 813.194 429.739 812.997 427.51L811.984 415.962" stroke="#4D1F1F" stroke-width="2.54626" stroke-linecap="round" stroke-linejoin="round"/>
<path d="M932.936 421.099L932.943 421.099C935.175 420.903 936.826 418.936 936.631 416.705L935.619 405.15C935.424 402.919 933.456 401.268 931.224 401.463L931.218 401.464C928.985 401.659 927.334 403.626 927.529 405.857L928.541 417.413C928.736 419.644 930.704 421.294 932.936 421.099Z" fill="#FFE88C" stroke="#FF5C4D" stroke-width="2.54626" stroke-linecap="round" stroke-linejoin="round"/>
<path d="M936.043 409.774C936.241 412.009 934.585 413.976 932.356 414.167C930.12 414.364 928.152 412.709 927.961 410.481L928.165 412.792C928.362 415.026 930.33 416.675 932.56 416.478C934.795 416.28 936.445 414.313 936.247 412.085L936.043 409.774Z" stroke="#FF5C4D" stroke-width="2.54626" stroke-linecap="round" stroke-linejoin="round"/>
<path d="M936.642 416.701C936.84 418.936 935.184 420.903 932.954 421.094C930.719 421.291 928.751 419.636 928.559 417.408L927.547 405.859" stroke="#4D1F1F" stroke-width="2.54626" stroke-linecap="round" stroke-linejoin="round"/>
<path d="M835.562 477.651C836.263 474.474 836.626 470.514 836.626 465.784V456.757C836.626 452.007 836.269 448.105 835.569 445.049L841.346 444.546C844.753 444.247 847.416 445.425 849.314 448.054C851.205 450.709 852.154 454.624 852.154 459.806C852.154 465.014 851.205 469.139 849.307 472.15C847.409 475.181 844.747 476.842 841.339 477.142L835.562 477.645V477.651ZM841.225 472.583L841.785 472.532C843.409 472.392 844.741 471.297 845.76 469.254C846.772 467.21 847.295 464.212 847.295 460.233C847.295 456.209 846.709 453.121 845.671 451.396C844.632 449.69 843.301 448.945 841.741 449.079L841.225 449.123V472.583Z" fill="#00BFE6"/>
<path d="M864.945 472.218C864.314 470.321 864.04 467.908 863.932 465.559C863.754 462.096 863.461 459.053 861.384 459.237C860.594 459.307 860.053 459.581 859.716 460.039V463.77C859.716 465.839 859.805 467.946 860.002 470.085C860.206 472.25 860.454 474.045 860.792 475.446L854.047 476.038C854.747 472.861 855.111 468.901 855.111 464.171V455.144C855.111 450.394 854.754 446.492 854.06 443.436L860.805 442.844C860.079 445.951 859.722 449.465 859.716 453.374V455.417L860.684 455.335C861.696 455.245 862.537 454.743 863.301 453.603C864.066 452.47 864.524 450.292 864.524 447.358C864.524 445.696 864.276 444.104 863.76 442.583L868.792 442.144C869.174 443.404 869.378 445.002 869.378 446.931C869.378 451.566 867.161 456.353 862.493 456.761L862.314 456.773V457.136L863.512 457.034C865.792 456.837 867.346 457.741 868.002 459.212C868.658 460.676 868.925 462.56 868.995 464.375C869.085 467.074 869.155 469.455 870.734 469.315C871.25 469.271 871.728 468.908 872.155 468.258L872.199 473.593C871.677 474.504 870.754 475.013 869.448 475.128C867.123 475.331 865.588 474.103 864.957 472.199L864.945 472.218Z" fill="#00BFE6"/>
<path d="M874.508 474.247C875.208 471.07 875.571 467.11 875.571 462.38V453.353C875.571 448.603 875.215 444.701 874.514 441.645L881.266 441.053C880.565 444.23 880.202 448.189 880.202 452.945V461.973C880.202 466.703 880.559 470.599 881.259 473.655L874.508 474.247Z" fill="#00BFE6"/>
<path d="M884.374 473.38C885.074 470.203 885.437 466.243 885.437 461.513V452.485C885.437 447.736 885.081 443.834 884.386 440.778L890.526 440.243L893.342 447.634C893.953 449.06 894.335 450.684 894.539 452.511L894.857 452.485C894.972 451.41 895.38 449.71 896.08 447.399L898.902 439.517L905.042 438.982C904.723 440.466 904.475 442.306 904.271 444.528C904.067 446.749 903.978 448.85 903.972 450.875V459.902C903.972 461.927 904.061 464.009 904.258 466.173C904.462 468.338 904.711 470.133 905.023 471.585L898.322 472.17C898.641 470.668 898.889 468.828 899.093 466.625C899.297 464.422 899.386 462.328 899.386 460.303V451.963L899.118 451.989L895.322 464.524L894.125 464.626L890.335 452.753L890.042 452.778V461.118C890.042 465.753 890.373 469.656 891.049 472.807L884.367 473.393L884.374 473.38Z" fill="#00BFE6"/>
<path d="M900.875 239.129L848.743 266.963L796.891 248.22" stroke="#00BFE6" stroke-width="2.54626" stroke-linecap="round" stroke-linejoin="round"/>
<path d="M911.664 360.38L859.672 388.201L807.68 369.472" stroke="#00BFE6" stroke-width="2.54626" stroke-linecap="round" stroke-linejoin="round"/>
<path d="M922.258 481.637L870.259 509.464L818.273 490.734" stroke="#00BFE6" stroke-width="2.54626" stroke-linecap="round" stroke-linejoin="round"/>
<path d="M812.506 127.667L806.188 120.944" stroke="#FF5C4D" stroke-width="2.54626" stroke-linecap="round" stroke-linejoin="round"/>
<path d="M886.375 125.273L893.088 116.609" stroke="#FF5C4D" stroke-width="2.54626" stroke-linecap="round" stroke-linejoin="round"/>
<path d="M1208.77 239.668L1219.15 240.572L1214.04 299.016L1204.04 293.674L1208.77 239.668Z" fill="#00BFE6" stroke="#00BFE6" stroke-width="2.54626" stroke-linecap="round" stroke-linejoin="round"/>
<path d="M1200.81 330.521L1211.2 331.425L1206.08 389.957L1196.08 384.609L1200.81 330.521Z" fill="#00BFE6" stroke="#00BFE6" stroke-width="2.54626" stroke-linecap="round" stroke-linejoin="round"/>
<path d="M1212.19 200.511L1222.58 201.422L1196.08 504.192" stroke="#00BFE6" stroke-width="2.54626" stroke-linecap="round" stroke-linejoin="round"/>
<path d="M1218.34 201.013C1224.33 201.013 1229.2 196.153 1229.2 190.158C1229.2 184.163 1224.33 179.304 1218.34 179.304C1212.34 179.304 1207.48 184.163 1207.48 190.158C1207.48 196.153 1212.34 201.013 1218.34 201.013Z" fill="#C4F5F5" stroke="#C4F5F5" stroke-width="2.54626" stroke-linecap="round" stroke-linejoin="round"/>
<path d="M1218.8 188.87C1221.2 188.87 1223.15 186.926 1223.15 184.528C1223.15 182.13 1221.2 180.187 1218.8 180.187C1216.41 180.187 1214.46 182.13 1214.46 184.528C1214.46 186.926 1216.41 188.87 1218.8 188.87Z" fill="#C4F5F5" stroke="#C4F5F5" stroke-width="0.636565" stroke-miterlimit="10"/>
<path d="M1174.97 218.81L1261.54 226.38L1262.3 217.73L1175.73 210.16L1174.97 218.81Z" fill="#C4F5F5" stroke="#C4F5F5" stroke-width="2.54626" stroke-linecap="round" stroke-linejoin="round"/>
<path d="M1262.21 218.604L1261.53 226.39L1174.97 218.82L1175.73 210.168" stroke="#00BFE6" stroke-width="2.54626" stroke-linecap="round" stroke-linejoin="round"/>
<path d="M1262.29 217.739L1271.33 214.167L1283.56 223.958L1269.81 231.471L1261.53 226.39L1262.29 217.739Z" fill="#C4F5F5" stroke="#C4F5F5" stroke-width="2.54626" stroke-linecap="round" stroke-linejoin="round"/>
<path d="M1262.29 217.735L1261.53 226.387L1269.81 231.467L1283.56 223.955" stroke="#00BFE6" stroke-width="2.54626" stroke-linecap="round" stroke-linejoin="round"/>
<path d="M1175.72 210.17L1167.44 205.083L1153.7 212.602L1165.93 222.387L1174.96 218.822L1175.72 210.17Z" fill="#C4F5F5" stroke="#C4F5F5" stroke-width="2.54626" stroke-linecap="round" stroke-linejoin="round"/>
<path d="M1175.72 210.167L1174.96 218.818L1165.93 222.384L1153.7 212.598" stroke="#00BFE6" stroke-width="2.54626" stroke-linecap="round" stroke-linejoin="round"/>
<path d="M1179.8 266.954L1218.86 287.804L1257.7 273.766L1257.35 215.317L1244.37 214.184L1244.46 229.011L1192.52 224.472L1192.43 209.638L1179.45 208.505L1179.8 266.954Z" fill="#C4F5F5" stroke="#C4F5F5" stroke-width="2.54626" stroke-linecap="round" stroke-linejoin="round"/>
<path d="M1201.38 260.155L1201.41 256.157C1201.95 256.825 1202.59 257.366 1203.32 257.78C1204.04 258.213 1204.69 258.449 1205.29 258.506C1206.01 258.57 1206.62 258.372 1207.11 257.927C1207.6 257.481 1207.84 256.851 1207.85 256.061C1207.86 254.788 1207.11 253.349 1206.15 252.178C1205.65 251.599 1205.13 250.949 1204.57 250.23C1203.41 248.804 1202.41 247.6 1201.75 245.799C1201.43 244.914 1201.27 244.016 1201.27 243.093C1201.29 241.266 1201.83 239.84 1202.92 238.847C1203.99 237.854 1205.35 237.414 1206.99 237.561C1208.48 237.688 1209.75 238.216 1210.76 239.127L1210.73 243.125C1209.76 241.922 1208.66 241.272 1207.46 241.17C1206.76 241.107 1206.16 241.291 1205.69 241.737C1205.21 242.183 1204.97 242.762 1204.96 243.481C1204.95 245.506 1207.13 247.435 1208.96 249.892C1210.32 251.669 1211.57 253.922 1211.53 256.577C1211.52 258.404 1210.96 259.824 1209.84 260.836C1208.72 261.842 1207.32 262.275 1205.66 262.135C1204.03 261.995 1202.41 261.25 1201.39 260.155H1201.38Z" fill="#00BFE6"/>
<path d="M1213.08 262.445C1213.35 261.413 1213.57 260.089 1213.73 258.497C1213.9 256.906 1213.98 255.352 1213.99 253.85L1214.04 247.203C1214.05 245.695 1214 244.135 1213.86 242.499C1213.72 240.882 1213.52 239.519 1213.27 238.443L1218.21 238.87C1220.4 239.061 1222.11 239.978 1223.33 241.607C1224.56 243.256 1225.15 245.383 1225.14 248.012C1225.12 250.571 1224.69 252.545 1223.84 253.926C1222.98 255.327 1221.97 255.976 1220.82 255.874C1218.98 255.715 1217.91 254.347 1217.79 251.813L1217.47 251.787L1217.45 254.149C1217.43 255.62 1217.51 257.167 1217.65 258.79C1217.79 260.426 1217.97 261.782 1218.21 262.89L1213.08 262.445H1213.08ZM1221.45 247.496C1221.47 246.007 1221.17 244.791 1220.56 243.817C1219.94 242.843 1219.19 242.327 1218.32 242.25C1217.93 242.219 1217.63 242.39 1217.55 242.384L1217.5 248.426C1217.53 249.4 1217.71 250.272 1218.05 251.017C1218.37 251.762 1218.82 252.169 1219.38 252.22C1220.67 252.328 1221.43 250.692 1221.46 247.49L1221.45 247.496Z" fill="#00BFE6"/>
<path d="M1226.4 263.591C1226.95 261.344 1227.25 258.472 1227.27 254.99L1227.32 248.344C1227.35 244.848 1227.1 241.926 1226.58 239.59L1235.84 240.392L1236.35 244.39C1235.58 244.008 1234.55 243.747 1233.26 243.639L1230.86 243.429L1230.81 250.324L1231.7 250.4C1233.12 250.521 1234.19 250.546 1234.9 250.476L1234.86 254.309C1234.12 254.131 1232.98 253.978 1231.42 253.844L1230.78 253.787L1230.77 255.627C1230.74 258.74 1231 261.541 1231.53 264.03L1226.4 263.585V263.591Z" fill="#00BFE6"/>
<path d="M1167.02 309.672L1253.59 317.242L1254.34 308.592L1167.78 301.022L1167.02 309.672Z" fill="#C4F5F5" stroke="#C4F5F5" stroke-width="2.54626" stroke-linecap="round" stroke-linejoin="round"/>
<path d="M1254.34 308.586L1253.58 317.238L1167.02 309.668L1167.77 301.017" stroke="#00BFE6" stroke-width="2.54626" stroke-linecap="round" stroke-linejoin="round"/>
<path d="M1171.71 357.794L1210.67 378.637L1249.62 364.606L1249.63 306.188L1236.65 305.055L1236.64 319.876L1184.7 315.33V300.509L1171.72 299.376L1171.71 357.794Z" fill="#C4F5F5" stroke="#C4F5F5" stroke-width="2.54626" stroke-linecap="round" stroke-linejoin="round"/>
<path d="M1253.57 317.235C1253.43 318.909 1254.66 320.385 1256.34 320.531C1258.01 320.678 1259.49 319.439 1259.63 317.765L1260.39 309.121C1260.54 307.446 1259.3 305.97 1257.62 305.824C1255.95 305.678 1254.48 306.916 1254.33 308.591L1253.57 317.235Z" fill="#C4F5F5" stroke="#C4F5F5" stroke-width="2.54626" stroke-linecap="round" stroke-linejoin="round"/>
<path d="M1259.62 317.772C1259.47 319.446 1257.99 320.681 1256.32 320.535C1254.65 320.388 1253.41 318.911 1253.56 317.243L1254.32 308.591" stroke="#00BFE6" stroke-width="2.54626" stroke-linecap="round" stroke-linejoin="round"/>
<path d="M1167.76 301.02C1167.91 299.346 1166.67 297.87 1165 297.723C1163.33 297.577 1161.85 298.816 1161.7 300.49L1160.95 309.134C1160.8 310.809 1162.04 312.284 1163.71 312.431C1165.38 312.577 1166.86 311.338 1167.01 309.664L1167.76 301.02Z" fill="#C4F5F5" stroke="#C4F5F5" stroke-width="2.54626" stroke-linecap="round" stroke-linejoin="round"/>
<path d="M1160.94 309.136C1160.79 310.811 1162.03 312.281 1163.71 312.428C1165.38 312.574 1166.85 311.339 1167 309.665L1167.76 301.013" stroke="#00BFE6" stroke-width="2.54626" stroke-linecap="round" stroke-linejoin="round"/>
<path d="M1207.51 189.207C1206.99 195.179 1211.41 200.444 1217.38 200.972C1223.36 201.494 1228.62 197.076 1229.15 191.104" stroke="#00BFE6" stroke-width="2.54626" stroke-linecap="round" stroke-linejoin="round"/>
<path d="M1183.59 351.517C1184.09 349.269 1184.35 346.398 1184.32 342.916L1184.26 336.269C1184.23 332.774 1183.93 329.852 1183.38 327.516L1187.78 327.898C1190.37 328.12 1192.41 329.336 1193.87 331.52C1195.33 333.723 1196.08 336.728 1196.11 340.548C1196.15 344.38 1195.45 347.296 1194.02 349.263C1192.6 351.249 1190.58 352.128 1187.99 351.899L1183.59 351.517ZM1187.87 348.531L1188.29 348.569C1189.53 348.677 1190.53 348.047 1191.3 346.672C1192.06 345.297 1192.44 343.158 1192.41 340.229C1192.38 337.269 1191.91 334.92 1191.11 333.513C1190.3 332.125 1189.29 331.399 1188.1 331.297L1187.71 331.265L1187.86 348.537L1187.87 348.531Z" fill="#00BFE6"/>
<path d="M1196.51 352.643C1196.95 351.643 1197.39 350.363 1197.8 348.791C1198.21 347.238 1198.57 345.697 1198.83 344.182L1200.11 337.656C1200.71 334.116 1200.93 331.239 1200.77 329.036L1207.04 329.577C1206.99 330.64 1207.03 331.984 1207.2 333.62C1207.35 335.256 1207.57 336.816 1207.86 338.325L1209.24 345.086C1209.89 348.606 1210.72 351.573 1211.72 353.967L1206.58 353.521C1206.65 351.605 1206.48 349.345 1206.06 346.773L1205.88 345.786L1202.22 345.468L1202.06 346.454C1201.71 349.217 1201.57 351.427 1201.65 353.095L1196.51 352.649L1196.51 352.643ZM1202.67 342.654L1205.35 342.889L1204.69 339.687C1204.58 339.095 1204.38 337.433 1204.08 334.734L1203.81 334.709C1203.78 335.04 1203.73 335.555 1203.69 336.236C1203.64 336.937 1203.58 337.529 1203.53 338.045C1203.49 338.56 1203.41 339.057 1203.32 339.566L1202.68 342.654H1202.67Z" fill="#00BFE6"/>
<path d="M1212.77 354.049C1213.01 353.018 1213.21 351.693 1213.35 350.102C1213.49 348.51 1213.55 346.957 1213.54 345.454L1213.48 338.808C1213.47 337.299 1213.38 335.739 1213.22 334.103C1213.05 332.486 1212.83 331.124 1212.56 330.048L1216.67 330.404L1221.39 343.876L1221.65 343.901L1221.59 337.923C1221.5 335.071 1221.21 332.69 1220.72 330.755L1225.86 331.2C1225.36 333.518 1225.14 336.389 1225.17 339.82L1225.3 355.138L1222.02 354.851L1217.23 341.291L1216.97 341.265L1217.01 345.754C1217.02 347.224 1217.12 348.771 1217.29 350.395C1217.46 352.031 1217.66 353.387 1217.91 354.495L1212.77 354.049Z" fill="#00BFE6"/>
<path d="M1228.31 355.399C1228.56 354.367 1228.76 353.043 1228.9 351.451C1229.04 349.86 1229.1 348.306 1229.08 346.804L1229.03 340.158C1229.01 338.649 1228.93 337.089 1228.77 335.453C1228.59 333.829 1228.38 332.473 1228.11 331.397L1237.39 332.2L1237.96 336.159C1237.32 335.803 1236.29 335.561 1234.86 335.44L1232.49 335.236L1232.54 341.214L1234.34 341.374C1235.67 341.488 1236.73 341.514 1237.54 341.431L1237.57 345.282C1236.66 345.085 1235.59 344.926 1234.38 344.824L1232.57 344.665L1232.64 352.311L1235.36 352.546C1236.61 352.655 1237.64 352.578 1238.45 352.298L1237.71 356.213L1228.33 355.399H1228.31Z" fill="#00BFE6"/>
<path d="M1159.09 400.527L1245.66 408.097L1246.41 399.446L1159.85 391.876L1159.09 400.527Z" fill="#C4F5F5" stroke="#C4F5F5" stroke-width="2.54626" stroke-linecap="round" stroke-linejoin="round"/>
<path d="M1246.41 399.441L1245.65 408.099L1159.09 400.523L1159.84 391.871" stroke="#00BFE6" stroke-width="2.54626" stroke-linecap="round" stroke-linejoin="round"/>
<path d="M1163.79 448.654L1202.75 469.498L1241.7 455.466L1241.68 397.049L1228.7 395.909L1228.7 410.736L1176.76 406.191V391.37L1163.77 390.23L1163.79 448.654Z" fill="#C4F5F5" stroke="#C4F5F5" stroke-width="2.54626" stroke-linecap="round" stroke-linejoin="round"/>
<path d="M1245.63 408.084C1245.48 409.758 1246.72 411.234 1248.39 411.38C1250.07 411.526 1251.54 410.288 1251.69 408.613L1252.44 399.969C1252.59 398.295 1251.35 396.819 1249.68 396.673C1248.01 396.526 1246.53 397.765 1246.38 399.439L1245.63 408.084Z" fill="#C4F5F5" stroke="#C4F5F5" stroke-width="2.54626" stroke-linecap="round" stroke-linejoin="round"/>
<path d="M1251.67 408.625C1251.52 410.299 1250.05 411.534 1248.38 411.388C1246.7 411.241 1245.47 409.764 1245.61 408.096L1246.37 399.444" stroke="#00BFE6" stroke-width="2.54626" stroke-linecap="round" stroke-linejoin="round"/>
<path d="M1159.83 391.879C1159.97 390.205 1158.73 388.729 1157.06 388.583C1155.39 388.436 1153.91 389.675 1153.77 391.349L1153.01 399.994C1152.86 401.668 1154.1 403.144 1155.77 403.29C1157.45 403.437 1158.92 402.198 1159.07 400.524L1159.83 391.879Z" fill="#C4F5F5" stroke="#C4F5F5" stroke-width="2.54626" stroke-linecap="round" stroke-linejoin="round"/>
<path d="M1153 399.996C1152.86 401.67 1154.09 403.141 1155.77 403.287C1157.44 403.433 1158.91 402.198 1159.06 400.524L1159.82 391.872" stroke="#00BFE6" stroke-width="2.54626" stroke-linecap="round" stroke-linejoin="round"/>
<path d="M1181.11 442.71C1181.68 440.52 1181.96 437.649 1181.96 434.122L1181.98 422.255L1181.4 422.198C1180.13 422.077 1179.08 422.147 1178.26 422.389L1178.83 418.493L1188.66 419.422L1189.18 423.42C1188.41 423.032 1187.37 422.764 1186.06 422.637L1185.49 422.586L1185.47 434.453C1185.47 437.935 1185.74 440.858 1186.26 443.2L1181.1 442.71H1181.11Z" fill="#00BFE6"/>
<path d="M1196.05 444.055C1195.04 443.711 1194.13 443.488 1193.36 443.418C1192.49 443.335 1191.54 443.514 1190.49 443.934C1190.72 442.902 1190.93 441.534 1191.08 439.821C1191.24 438.109 1191.31 436.511 1191.31 435.008L1191.33 428.362C1191.33 426.872 1191.26 425.325 1191.11 423.689C1190.96 422.053 1190.77 420.697 1190.53 419.602L1195.61 420.079C1195.09 422.39 1194.82 425.261 1194.82 428.693L1194.8 440.477L1197.44 440.725C1198.75 440.846 1199.72 440.725 1200.39 440.349L1200.35 444.43L1200.23 444.488C1199.92 444.577 1199.27 444.768 1198.48 444.691C1197.86 444.634 1197.06 444.424 1196.05 444.061L1196.05 444.055Z" fill="#00BFE6"/>
<path d="M1201.59 443.374V439.376C1202.15 440.044 1202.79 440.592 1203.52 441.012C1204.24 441.445 1204.89 441.693 1205.49 441.75C1206.21 441.82 1206.82 441.623 1207.31 441.184C1207.8 440.744 1208.03 440.114 1208.04 439.325C1208.04 438.051 1207.29 436.606 1206.31 435.428C1205.82 434.843 1205.29 434.193 1204.72 433.468C1203.56 432.035 1202.55 430.819 1201.88 429.011C1201.56 428.126 1201.38 427.222 1201.39 426.305C1201.39 424.478 1201.93 423.059 1203.01 422.072C1204.07 421.085 1205.43 420.658 1207.08 420.818C1208.57 420.958 1209.84 421.499 1210.85 422.416V426.414C1209.87 425.198 1208.77 424.542 1207.57 424.427C1206.87 424.364 1206.26 424.536 1205.8 424.981C1205.32 425.421 1205.08 426 1205.07 426.719C1205.07 428.744 1207.26 430.692 1209.11 433.162C1210.48 434.951 1211.75 437.211 1211.72 439.872C1211.72 441.699 1211.17 443.119 1210.05 444.119C1208.93 445.118 1207.54 445.538 1205.87 445.379C1204.24 445.226 1202.61 444.469 1201.59 443.367L1201.59 443.374Z" fill="#00BFE6"/>
<path d="M1212.12 445.639C1212.56 444.645 1213.02 443.366 1213.45 441.793C1213.88 440.246 1214.24 438.706 1214.52 437.19L1215.87 430.671C1216.51 427.132 1216.75 424.26 1216.62 422.051L1222.88 422.643C1222.81 423.707 1222.84 425.05 1223 426.686C1223.13 428.322 1223.33 429.882 1223.61 431.397L1224.92 438.164C1225.53 441.685 1226.33 444.658 1227.31 447.065L1222.18 446.581C1222.27 444.665 1222.12 442.404 1221.73 439.826L1221.56 438.839L1217.9 438.496L1217.73 439.482C1217.35 442.239 1217.19 444.454 1217.25 446.116L1212.12 445.632L1212.12 445.639ZM1218.38 435.701L1221.06 435.955L1220.43 432.747C1220.33 432.148 1220.14 430.493 1219.87 427.787L1219.59 427.762C1219.56 428.093 1219.51 428.609 1219.45 429.29C1219.4 429.99 1219.33 430.582 1219.28 431.098C1219.23 431.614 1219.14 432.104 1219.06 432.619L1218.38 435.701Z" fill="#00BFE6"/>
<path d="M1179.77 266.958L1218.84 287.807L1257.68 273.77" stroke="#00BFE6" stroke-width="2.54626" stroke-linecap="round" stroke-linejoin="round"/>
<path d="M1171.7 357.801L1210.66 378.644L1249.61 364.613" stroke="#00BFE6" stroke-width="2.54626" stroke-linecap="round" stroke-linejoin="round"/>
<path d="M1163.76 448.652L1202.72 469.496L1241.67 455.464" stroke="#00BFE6" stroke-width="2.54626" stroke-linecap="round" stroke-linejoin="round"/>
<path d="M1245.58 173.964L1249.53 166.853" stroke="#00BFE6" stroke-width="2.54626" stroke-linecap="round" stroke-linejoin="round"/>
<path d="M1259.81 189.362L1266.92 185.015" stroke="#00BFE6" stroke-width="2.54626" stroke-linecap="round" stroke-linejoin="round"/>
<path d="M1272.87 384.047L1276.82 376.936" stroke="#C4F5F5" stroke-width="2.54626" stroke-linecap="round" stroke-linejoin="round"/>
<path d="M1287.1 399.439L1294.21 395.098" stroke="#C4F5F5" stroke-width="2.54626" stroke-linecap="round" stroke-linejoin="round"/>
<path d="M741.471 421.031L735 416.098" stroke="#C4F5F5" stroke-width="2.54626" stroke-linecap="round" stroke-linejoin="round"/>
<path d="M758.766 409.185L755.492 401.526" stroke="#C4F5F5" stroke-width="2.54626" stroke-linecap="round" stroke-linejoin="round"/>
<path d="M996.383 196.297C996.593 195.591 996.912 194.91 997.319 194.299C998.23 192.936 999.593 191.912 1001.13 191.428" stroke="#00BFE6" stroke-width="2.54626" stroke-linecap="round" stroke-linejoin="round"/>
<path d="M1000.49 268.317H1010.89C1014.92 268.317 1018.19 265.21 1018.19 261.378V255.062C1018.19 253.91 1017.21 252.98 1016 252.98H995.386C994.176 252.98 993.195 253.91 993.195 255.062V261.378C993.195 265.21 996.463 268.317 1000.49 268.317H1000.49Z" fill="#FF5C4D"/>
<path d="M1027.93 215.751C1029.63 224.613 1029.46 237.301 1023.21 252.51C1021.73 256.126 1018.25 258.475 1014.41 258.475H990.848C981.963 240.618 981.504 225.752 983.421 215.757C985.485 204.985 994.949 197.371 1005.67 197.371C1016.39 197.371 1025.85 204.985 1027.92 215.757L1027.93 215.751Z" fill="#FF5C4D"/>
<path d="M1027.93 222.706C1025.87 212.698 1016.4 205.625 1005.68 205.625C994.962 205.625 985.497 212.698 983.434 222.706C982.421 227.608 982.077 233.777 983.281 240.946C983.879 244.523 988.274 253.271 990.981 258.421C992.261 260.853 994.873 262.394 997.739 262.394H1013.65C1016.5 262.394 1019.11 260.866 1020.39 258.44C1023.08 253.36 1027.43 244.772 1028.04 241.264C1029.3 233.962 1028.96 227.684 1027.94 222.712L1027.93 222.706Z" fill="#FFBB99"/>
<path d="M997.732 262.397H1013.64C1016.5 262.397 1019.11 260.869 1020.39 258.444C1023.08 253.364 1027.43 244.769 1028.04 241.261V234.328C1028.04 234.328 1022.03 246.24 1019.95 250.378C1018.19 253.905 1014.44 256.152 1010.34 256.152H1001.29C997.178 256.152 993.439 253.905 991.675 250.378C990.261 247.557 982.516 234.328 982.516 234.328L983.28 240.949C983.879 244.521 988.273 253.274 990.987 258.425C992.267 260.857 994.878 262.397 997.745 262.397H997.732Z" fill="#FF5C4D"/>
<path d="M1027.93 222.706C1025.87 212.698 1016.4 205.625 1005.68 205.625C994.962 205.625 985.497 212.698 983.434 222.706C982.421 227.608 982.077 233.777 983.281 240.946C983.879 244.523 988.274 253.271 990.981 258.421C992.261 260.853 994.873 262.394 997.739 262.394H1013.65C1016.5 262.394 1019.11 260.866 1020.39 258.44C1023.08 253.36 1027.43 244.772 1028.04 241.264C1029.3 233.962 1028.96 227.684 1027.94 222.712L1027.93 222.706Z" stroke="#4D1F1F" stroke-width="2.54626" stroke-linecap="round" stroke-linejoin="round"/>
<path d="M990.336 218.042C993.476 216.947 998.247 217.545 1000.87 219.582L1001.03 218.144L995.68 217.628" stroke="#4D1F1F" stroke-width="2.54626" stroke-linecap="round" stroke-linejoin="round"/>
<path d="M1020.7 218.149C1017.59 216.984 1012.81 217.5 1010.14 219.473L1010.01 218.028L1015.83 217.596" stroke="#4D1F1F" stroke-width="2.54626" stroke-linecap="round" stroke-linejoin="round"/>
<path d="M1009.85 211.175L1005.68 212.773L1001.5 211.175C998.345 209.965 996.352 207.489 996.352 204.776V196.086H1015V204.776C1015 207.482 1013.01 209.959 1009.85 211.175Z" fill="#FFE88C"/>
<path d="M1008.07 202.645C1009.35 202.645 1010.4 201.844 1010.4 200.856C1010.4 199.868 1009.35 199.067 1008.07 199.067C1006.78 199.067 1005.73 199.868 1005.73 200.856C1005.73 201.844 1006.78 202.645 1008.07 202.645Z" fill="#FF5C4D"/>
<path d="M1015 196.086V204.776C1015 207.482 1013.01 209.959 1009.85 211.175L1005.68 212.773L1001.5 211.175C998.345 209.965 996.352 207.489 996.352 204.776V196.086" stroke="#4D1F1F" stroke-width="2.54626" stroke-linecap="round" stroke-linejoin="round"/>
<path d="M973.741 200.85L969.219 196.299" stroke="#4D1F1F" stroke-width="2.54626" stroke-linecap="round" stroke-linejoin="round"/>
<path d="M1004.35 227.461L996.695 232.057L1001.71 237.08" stroke="#4D1F1F" stroke-width="2.54626" stroke-linecap="round" stroke-linejoin="round"/>
<path d="M999.949 224.194C998.687 222.902 997.108 222.183 995.528 222.176C993.949 222.17 992.363 222.883 991.102 224.162" stroke="#4D1F1F" stroke-width="2.54626" stroke-linecap="round" stroke-linejoin="round"/>
<path d="M1019.39 224.027C1018.09 222.779 1016.48 222.124 1014.9 222.175C1013.32 222.226 1011.76 222.996 1010.55 224.326" stroke="#4D1F1F" stroke-width="2.54626" stroke-linecap="round" stroke-linejoin="round"/>
<path d="M995.523 224.127V225.852" stroke="#4D1F1F" stroke-width="3.81939" stroke-linecap="round" stroke-linejoin="round"/>
<path d="M1014.93 224.127V225.852" stroke="#4D1F1F" stroke-width="3.81939" stroke-linecap="round" stroke-linejoin="round"/>
<path d="M975.797 230.16C980.115 229.803 983.625 226.327 985.491 222.425C987.357 218.522 987.956 214.155 988.956 209.94C989.956 205.732 991.516 201.422 994.765 198.564C994.765 198.564 986.134 197.328 979.204 212.767" fill="#4D1F1F"/>
<path d="M975.797 230.16C980.115 229.803 983.625 226.327 985.491 222.425C987.357 218.522 987.956 214.155 988.956 209.94C989.956 205.732 991.516 201.422 994.765 198.564C994.765 198.564 986.134 197.328 979.204 212.767" stroke="#4D1F1F" stroke-width="2.54626" stroke-linecap="round" stroke-linejoin="round"/>
<path d="M1017.02 198.754C1021.39 198.092 1026.05 199.989 1028.7 203.509C1030.75 206.215 1031.58 209.627 1032.19 212.963C1032.81 216.299 1033.28 219.718 1034.76 222.774C1036.23 225.83 1038.95 228.523 1042.32 228.949" stroke="#00BFE6" stroke-width="2.54626" stroke-linecap="round" stroke-linejoin="round"/>
<path d="M1007.25 242.149C1010.34 243.193 1013.93 242.626 1016.55 240.685" stroke="#4D1F1F" stroke-width="2.54626" stroke-linecap="round" stroke-linejoin="round"/>
</g>
<defs>
<linearGradient id="paint0_linear_400_8077" x1="13.1563" y1="691.434" x2="673.758" y2="690.522" gradientUnits="userSpaceOnUse">
<stop stop-color="#FBFCF9"/>
<stop offset="0.75809" stop-color="#E9F8F8"/>
<stop offset="0.963262" stop-color="#00BFE6"/>
</linearGradient>
<clipPath id="clip0_400_8077">
<rect width="738.242" height="584.907" fill="white" transform="translate(556 115)"/>
</clipPath>
</defs>
</svg>
