<svg width="540" height="327" viewBox="0 0 540 327" fill="none" xmlns="http://www.w3.org/2000/svg">
<path d="M1.00003 280.289H233.5V295.29H1.00003V280.289Z" fill="#4D1F1F" stroke="#4D1F1F" stroke-width="1.50007" stroke-linecap="round" stroke-linejoin="round"/>
<path d="M0.998047 291.539H517.016V291.539C529.157 291.539 539 301.382 539 313.523V325.5" stroke="#4D1F1F" stroke-width="1.50007" stroke-linecap="round" stroke-linejoin="round"/>
<path d="M1.00394 280.289H218.504L233.504 295.29V194.031H1.00394" fill="#FBFCF9"/>
<path d="M1.00394 280.289H218.504L233.504 295.29V194.031H1.00394" stroke="#C4F5F5" stroke-width="1.50007" stroke-linecap="round" stroke-linejoin="round"/>
<path d="M106.004 205.281V280.288" stroke="#C4F5F5" stroke-width="1.50007" stroke-linecap="round" stroke-linejoin="round"/>
<path d="M1.00394 205.281H233.504V194.03H1.00394" fill="#FBFCF9"/>
<path d="M1.00394 205.281H233.504V194.03H1.00394" stroke="#C4F5F5" stroke-width="1.50007" stroke-linecap="round" stroke-linejoin="round"/>
<path d="M1.00394 280.29H218.504L233.504 295.291" stroke="#00BFE6" stroke-width="1.50007" stroke-linecap="round" stroke-linejoin="round"/>
<path d="M113.289 21.5078H428.289V179.022H113.289V21.5078Z" fill="#C4F5F5" stroke="#C4F5F5" stroke-width="1.50007" stroke-linecap="round" stroke-linejoin="round"/>
<path d="M241.742 119.67V116.846" stroke="#00BFE6" stroke-width="1.50007" stroke-linecap="round" stroke-linejoin="round"/>
<path d="M236.266 122.13L233.502 118.882" stroke="#00BFE6" stroke-width="1.50007" stroke-linecap="round" stroke-linejoin="round"/>
<path d="M198.361 157.611L207.567 155.436L226.137 147.538C230.041 145.876 233.198 143.041 235.279 139.549C237.046 136.587 238.032 133.898 238.032 130.301V129.551C238.032 129.551 237.818 124.976 242.138 124.976C243.128 124.976 244.107 125.249 244.962 125.744C246.218 126.472 247.006 127.796 247.051 129.24C248.581 130.871 248.974 133.028 248.764 136.849L247.786 134.348C247.624 133.939 247.369 133.609 247.058 133.361C247.058 134.074 247.058 134.794 247.058 135.495C247.058 138.507 247.497 141.496 248.359 144.406C248.528 144.969 248.708 145.531 248.907 146.09L248.982 146.304C250.658 150.995 249.979 155.957 247.553 159.895C246.038 162.355 243.837 164.414 241.107 165.757H241.118L234.991 168.881C233.513 169.635 232.583 171.154 232.583 172.811C232.583 173.287 232.381 173.715 232.058 174.019V174.908C232.058 175.658 232.557 176.314 233.277 176.52L237.507 177.709C237.796 177.792 237.998 178.054 237.998 178.358C237.998 178.729 237.698 179.033 237.323 179.033H224.877C224.442 179.033 224.093 178.68 224.093 178.249C224.093 177.885 224.344 177.567 224.701 177.484L225.267 177.353C225.799 177.229 226.178 176.753 226.178 176.205V174.218C225.938 174.068 225.736 173.858 225.597 173.603L224.851 172.219C224.146 170.91 223.182 169.758 222.019 168.836L217.174 164.988L217.103 164.932C214.077 164.707 211.193 163.657 208.752 161.931H204.199C201.874 161.931 199.624 161.088 197.873 159.557C197.187 158.957 197.464 157.836 198.353 157.626L198.361 157.611Z" fill="#00BFE6" stroke="#00BFE6" stroke-width="1.50007" stroke-linecap="round" stroke-linejoin="round"/>
<path d="M235.193 144.151C237.08 144.818 238.704 146.206 239.66 147.969C241.839 151.985 240.102 157.018 236.716 159.771C234.83 161.305 232.572 162.213 230.304 162.918C226.13 164.215 221.795 164.894 217.456 164.935" stroke="#C4F5F5" stroke-width="1.50007" stroke-linecap="round" stroke-linejoin="round"/>
<path d="M428.289 59.0078H113.289" stroke="#FBFCF9" stroke-width="1.50007" stroke-linecap="round" stroke-linejoin="round"/>
<path d="M218.289 21.5078V179.022" stroke="#FBFCF9" stroke-width="1.50007" stroke-linecap="round" stroke-linejoin="round"/>
<path d="M323.289 21.5078V179.022" stroke="#FBFCF9" stroke-width="1.50007" stroke-linecap="round" stroke-linejoin="round"/>
<path d="M113.289 179.024H428.289" stroke="#00BFE6" stroke-width="1.50007" stroke-linecap="round" stroke-linejoin="round"/>
<path d="M113.504 194.014L121.004 186.513H196.004L203.504 194.014V179.013H113.504V194.014Z" fill="#FBFCF9" stroke="#C4F5F5" stroke-width="1.50007" stroke-linecap="round" stroke-linejoin="round"/>
<path d="M203.504 179.013H113.504" stroke="#00BFE6" stroke-width="1.50007" stroke-linecap="round" stroke-linejoin="round"/>
<path d="M83.5039 194.014L91.0039 186.513H106.004L113.504 194.014V179.013H83.5039V194.014Z" fill="#FBFCF9" stroke="#C4F5F5" stroke-width="1.50007" stroke-linecap="round" stroke-linejoin="round"/>
<path d="M113.504 160.263H203.504V179.014H113.504H83.5039V160.263H113.504Z" fill="#C4F5F5" stroke="#C4F5F5" stroke-width="1.50007" stroke-linecap="round" stroke-linejoin="round"/>
<path d="M203.504 179.013H83.5039" stroke="#00BFE6" stroke-width="1.50007" stroke-linecap="round" stroke-linejoin="round"/>
<path d="M98.5039 173.409H188.504V179.034H98.5039V173.409Z" fill="#4D1F1F" stroke="#4D1F1F" stroke-width="1.50007" stroke-linecap="round" stroke-linejoin="round"/>
<path d="M142.345 165.909H98.5039V173.41H188.504" stroke="#00BFE6" stroke-width="1.50007" stroke-linecap="round" stroke-linejoin="round"/>
<path d="M142.371 173.41L134.871 169.66V165.909H142.371V173.41Z" fill="#00BFE6" stroke="#00BFE6" stroke-width="1.50007" stroke-linecap="round" stroke-linejoin="round"/>
<path d="M113.913 179.014L113.504 160.263H203.504V179.014" stroke="#FBFCF9" stroke-width="1.50007" stroke-linecap="round" stroke-linejoin="round"/>
<path d="M83.5039 179.014V160.263H113.504V179.014" stroke="#FBFCF9" stroke-width="1.50007" stroke-linecap="round" stroke-linejoin="round"/>
<path d="M203.5 194.034L196 186.533H121L113.5 194.034H203.5Z" fill="#00BFE6" stroke="#00BFE6" stroke-width="1.50007" stroke-linecap="round" stroke-linejoin="round"/>
<path d="M113.5 194.034L106 186.533H91L83.5 194.034H113.5Z" fill="#00BFE6" stroke="#00BFE6" stroke-width="1.50007" stroke-linecap="round" stroke-linejoin="round"/>
<path d="M132.227 222.512H208.738L222.227 299.03H145.719L132.227 222.512Z" fill="#4D1F1F" stroke="#4D1F1F" stroke-width="1.50007" stroke-linecap="round" stroke-linejoin="round"/>
<path d="M162.922 295.454H203.719L195.172 246.98H154.376L162.922 295.454Z" fill="#FF5C4D" stroke="#FF5C4D" stroke-width="0.750034" stroke-linecap="round" stroke-linejoin="round"/>
<path d="M148.006 290.354C148.501 293.171 151.19 295.455 154.006 295.455C156.823 295.455 158.705 293.171 158.21 290.354C157.715 287.538 155.026 285.254 152.21 285.254C149.394 285.254 147.511 287.538 148.006 290.354Z" fill="#4D1F1F" stroke="#4D1F1F" stroke-width="1.50007" stroke-linecap="round" stroke-linejoin="round"/>
<path d="M155.992 289.332L155.002 292.392L153.442 289.332L152.182 290.862L150.232 291.372" fill="#4D1F1F"/>
<path d="M155.992 289.332L155.002 292.392L153.442 289.332L152.182 290.862L150.232 291.372" stroke="#4D1F1F" stroke-width="1.50007" stroke-linecap="round" stroke-linejoin="round"/>
<path d="M171.896 257.645L166.252 262.299L173.632 267.508L177.277 265.168L171.896 257.645Z" fill="#FFE28D" stroke="#FFE28D" stroke-width="0.750034" stroke-linecap="round" stroke-linejoin="round"/>
<path d="M185.951 261.723L183.791 263.212L190.432 271.215L191.605 269.208L188.905 262.574L185.951 261.723Z" fill="#FFE28D" stroke="#FFE28D" stroke-width="0.375017" stroke-linecap="round" stroke-linejoin="round"/>
<path d="M188.291 275.078L186.112 276.481L186.697 279.8L188.988 279.035L188.291 275.078Z" fill="#FFE28D" stroke="#FFE28D" stroke-width="0.375017" stroke-linecap="round" stroke-linejoin="round"/>
<path d="M183.232 283.234L180.599 283.871L179.212 280.684L176.703 287.442L184.199 288.721L183.232 283.234Z" fill="#FFE28D" stroke="#FFE28D" stroke-width="0.375017" stroke-linecap="round" stroke-linejoin="round"/>
<path d="M194.315 284.712L196.629 287.708L195.043 288.732L192.114 285.256L194.315 284.712Z" fill="#FFE28D" stroke="#FFE28D" stroke-width="0.375017" stroke-linecap="round" stroke-linejoin="round"/>
<path d="M173.566 279.157L171.346 282.472L169.659 281.587L173.071 276.348L173.566 279.157Z" fill="#FFE28D" stroke="#FFE28D" stroke-width="0.375017" stroke-linecap="round" stroke-linejoin="round"/>
<path d="M192.243 262.838L184.537 261.818L184.267 260.287L188.512 259.777L192.461 261.18L192.243 262.838Z" fill="#4D1F1F" stroke="#4D1F1F" stroke-width="1.50007" stroke-linecap="round" stroke-linejoin="round"/>
<path d="M169.069 263.082L165.154 264.74L168.469 271.247L171.094 270.226L169.069 263.082Z" fill="#4D1F1F" stroke="#4D1F1F" stroke-width="1.50007" stroke-linecap="round" stroke-linejoin="round"/>
<path d="M178.248 271L177.063 271.51L178.736 275.208L179.898 274.57L178.248 271Z" fill="#4D1F1F" stroke="#4D1F1F" stroke-width="1.50007" stroke-linecap="round" stroke-linejoin="round"/>
<path d="M169.076 279.672L172.398 284.772L171.836 285.92L167.471 280.692L169.076 279.672Z" fill="#4D1F1F" stroke="#4D1F1F" stroke-width="1.50007" stroke-linecap="round" stroke-linejoin="round"/>
<path d="M194.57 243.418H174.163" stroke="#FFE28D" stroke-width="0.750034" stroke-linecap="round" stroke-linejoin="round"/>
<path d="M194.047 240.367H183.843" stroke="#FFE28D" stroke-width="0.750034" stroke-linecap="round" stroke-linejoin="round"/>
<path d="M175.458 236.27H193.312L193.492 237.29H175.638L175.458 236.27Z" fill="#FF5C4D" stroke="#FF5C4D" stroke-width="0.750034" stroke-linecap="round" stroke-linejoin="round"/>
<path d="M179.816 232.191H192.57L192.75 233.211H179.996L179.816 232.191Z" fill="#FF5C4D" stroke="#FF5C4D" stroke-width="0.750034" stroke-linecap="round" stroke-linejoin="round"/>
<path d="M180.789 226.095H191.503L192.039 229.14H181.325L180.789 226.095Z" fill="#FFE28D" stroke="#FFE28D" stroke-width="0.750034" stroke-linecap="round" stroke-linejoin="round"/>
<path d="M153.746 226.094H177.214L177.75 229.139H154.282L153.746 226.094Z" fill="#FFE28D" stroke="#FFE28D" stroke-width="0.750034" stroke-linecap="round" stroke-linejoin="round"/>
<path d="M132.238 222.512V295.46L145.73 299.03L132.238 222.512Z" fill="#4D1F1F" stroke="#4D1F1F" stroke-width="1.50007" stroke-linecap="round" stroke-linejoin="round"/>
<path d="M145.73 299.03L132.238 222.512" stroke="#00BFE6" stroke-width="1.50007" stroke-linecap="round" stroke-linejoin="round"/>
<path d="M94.7267 149.034L88.273 187.771C87.6692 191.387 84.5417 194.038 80.8742 194.038H63.583C59.9155 194.038 56.7881 191.387 56.1843 187.771L49.7305 149.034H94.7305H94.7267Z" fill="#FBFCF9" stroke="#C4F5F5" stroke-width="1.50007" stroke-linecap="round" stroke-linejoin="round"/>
<path d="M46.2515 136.05L41.234 130.63C39.584 128.849 40.3603 125.957 42.6778 125.241L49.7314 123.058L48.0927 115.858C47.5527 113.491 49.6715 111.376 52.0378 111.912L59.2377 113.551L61.4203 106.497C62.1365 104.179 65.0277 103.403 66.809 105.053L72.2277 110.071L77.6465 105.053C79.4278 103.403 82.319 104.179 83.0352 106.497L85.2177 113.551L92.4177 111.912C94.784 111.372 96.899 113.491 96.3627 115.858L94.7239 123.058L101.778 125.241C104.095 125.957 104.871 128.849 103.221 130.63L98.2039 136.05L103.221 141.469C104.871 143.25 104.095 146.142 101.778 146.858L94.7239 149.041H49.7314L42.6778 146.858C40.3603 146.142 39.584 143.25 41.234 141.469L46.2515 136.05Z" fill="#C4F5F5" stroke="#C4F5F5" stroke-width="1.50007" stroke-linecap="round" stroke-linejoin="round"/>
<path d="M98.1953 136.059L92.0566 139.603C91.0891 140.162 89.8778 139.464 89.8778 138.346V133.771C89.8778 132.653 91.0891 131.956 92.0566 132.515L98.1953 136.059Z" fill="#FBFCF9" stroke="#FBFCF9" stroke-width="1.50007" stroke-linecap="round" stroke-linejoin="round"/>
<path d="M46.245 136.059L52.3837 132.515C53.3512 131.956 54.5625 132.653 54.5625 133.771V138.346C54.5625 139.464 53.3512 140.162 52.3837 139.603L46.245 136.059Z" fill="#FBFCF9" stroke="#FBFCF9" stroke-width="1.50007" stroke-linecap="round" stroke-linejoin="round"/>
<path d="M59.2294 113.548L65.3681 117.092C66.3356 117.651 66.3356 119.05 65.3681 119.608L61.4082 121.896C60.4407 122.455 59.2294 121.757 59.2294 120.64V113.548Z" fill="#FBFCF9" stroke="#FBFCF9" stroke-width="1.50007" stroke-linecap="round" stroke-linejoin="round"/>
<path d="M85.2109 113.548V120.64C85.2109 121.757 83.9997 122.455 83.0322 121.896L79.0721 119.608C78.1046 119.05 78.1046 117.651 79.0721 117.092L85.2109 113.548Z" fill="#FBFCF9" stroke="#FBFCF9" stroke-width="1.50007" stroke-linecap="round" stroke-linejoin="round"/>
<path d="M94.7305 149.034H49.7417" stroke="#00BFE6" stroke-width="1.50007" stroke-linecap="round" stroke-linejoin="round"/>
<path d="M15.9779 134.883L30.75 132.278L41.1689 191.372L26.3968 193.977L15.9779 134.883Z" fill="#C4F5F5" stroke="#C4F5F5" stroke-width="1.50007" stroke-linecap="round" stroke-linejoin="round"/>
<path d="M41.1953 191.371L26.424 193.974L16.0028 134.88" stroke="#00BFE6" stroke-width="1.50007" stroke-linecap="round" stroke-linejoin="round"/>
<path d="M16.0084 134.88V194.012L26.4297 193.974L16.0084 134.88Z" fill="#00BFE6" stroke="#00BFE6" stroke-width="1.50007" stroke-linecap="round" stroke-linejoin="round"/>
<path d="M1 194.019H16V126.513H1" fill="#FBFCF9"/>
<path d="M1 194.019H16V126.513H1" stroke="#C4F5F5" stroke-width="1.50007" stroke-linecap="round" stroke-linejoin="round"/>
<path d="M293.674 165.981L289.549 132.809H313.309L309.184 165.981H293.674Z" fill="#FBFCF9" stroke="#FBFCF9" stroke-width="1.50007" stroke-linecap="round" stroke-linejoin="round"/>
<path d="M313.309 132.809L309.559 164.481H293.674" stroke="#00BFE6" stroke-width="1.50007" stroke-linecap="round" stroke-linejoin="round"/>
<path d="M358.816 309.919C294.613 309.919 242.566 309.08 242.566 308.044C242.566 307.008 294.613 306.169 358.816 306.169C423.02 306.169 475.066 307.008 475.066 308.044C475.066 309.08 423.02 309.919 358.816 309.919Z" fill="#4D1F1F" stroke="#4D1F1F" stroke-width="1.50007" stroke-linecap="round" stroke-linejoin="round"/>
<path d="M439.315 264.632L442.637 302.87C442.84 305.214 440.995 307.228 438.64 307.228C436.671 307.228 434.995 305.799 434.68 303.856L428.342 264.628H439.311L439.315 264.632Z" fill="#FF5C4D" stroke="#FF5C4D" stroke-width="1.50007" stroke-linecap="round" stroke-linejoin="round"/>
<path d="M427.748 260.878H438.998L439.324 264.628H428.355L427.748 260.878Z" fill="#4D1F1F" stroke="#4D1F1F" stroke-width="1.50007" stroke-linecap="round" stroke-linejoin="round"/>
<path d="M375.565 264.632L378.887 302.87C379.09 305.214 377.245 307.228 374.89 307.228C372.921 307.228 371.245 305.799 370.93 303.856L364.592 264.628H375.561L375.565 264.632Z" fill="#FF5C4D" stroke="#FF5C4D" stroke-width="1.50007" stroke-linecap="round" stroke-linejoin="round"/>
<path d="M363.998 260.878H375.248L375.574 264.628H364.605L363.998 260.878Z" fill="#4D1F1F" stroke="#4D1F1F" stroke-width="1.50007" stroke-linecap="round" stroke-linejoin="round"/>
<path d="M299.027 260.855H287.777L287.451 264.606H298.42L299.027 260.855Z" fill="#4D1F1F" stroke="#4D1F1F" stroke-width="1.50007" stroke-linecap="round" stroke-linejoin="round"/>
<path d="M287.445 264.609L284.123 302.848C283.92 305.192 285.765 307.206 288.12 307.206C290.089 307.206 291.765 305.777 292.08 303.834L298.418 264.605H287.449L287.445 264.609Z" fill="#4D1F1F" stroke="#4D1F1F" stroke-width="1.50007" stroke-linecap="round" stroke-linejoin="round"/>
<path d="M362.777 260.855H351.527L351.201 264.606H362.17L362.777 260.855Z" fill="#4D1F1F" stroke="#4D1F1F" stroke-width="1.50007" stroke-linecap="round" stroke-linejoin="round"/>
<path d="M351.195 264.609L347.873 302.848C347.67 305.192 349.515 307.206 351.87 307.206C353.839 307.206 355.515 305.777 355.83 303.834L362.168 264.605H351.199L351.195 264.609Z" fill="#4D1F1F" stroke="#4D1F1F" stroke-width="1.50007" stroke-linecap="round" stroke-linejoin="round"/>
<path d="M352.566 266.105L349.364 302.975" stroke="#FF5C4D" stroke-width="1.50007" stroke-linecap="round" stroke-linejoin="round"/>
<path d="M311.713 151.815L309.95 165.984H360.035L359.964 140.804L327.631 151.061C325.149 151.849 322.43 151.215 320.551 149.411L318.309 147.255C316.959 145.957 315.163 145.233 313.291 145.233H303.47C302.769 145.233 302.203 145.803 302.203 146.501C302.203 148.312 303.451 149.888 305.218 150.3L311.72 151.815" fill="#FFBB99"/>
<path d="M441.063 165.982H282.352C277.713 165.982 274.046 169.908 274.361 174.536L278.872 240.996C279.633 252.187 288.929 260.881 300.149 260.881H437.816C449.628 260.881 459.716 252.36 461.696 240.715L478.252 143.341C479.279 137.307 474.629 131.801 468.509 131.801H446.231L441.067 165.986L441.063 165.982Z" fill="#FFE28D"/>
<path d="M457.526 131.784H468.509C474.629 131.784 479.279 137.29 478.252 143.324L461.696 240.698C459.716 252.343 449.624 260.863 437.816 260.863H300.149C288.933 260.863 279.633 252.174 278.872 240.979L274.361 174.519C274.046 169.891 277.717 165.965 282.352 165.965H323.189" stroke="#FF5C4D" stroke-width="1.50007" stroke-linecap="round" stroke-linejoin="round"/>
<path d="M300.153 260.877H437.819C449.632 260.877 459.719 252.356 461.699 240.711" stroke="#4D1F1F" stroke-width="1.50007" stroke-linecap="round" stroke-linejoin="round"/>
<path d="M296.578 201.484H291.181C286.839 201.484 283.318 205.005 283.318 209.348V224.744C283.318 229.086 286.839 232.608 291.181 232.608H302.191" stroke="#FF5C4D" stroke-width="1.50007" stroke-linecap="round" stroke-linejoin="round"/>
<path d="M407.186 51.9908C400.23 54.8673 390.982 66.3921 403.384 90.743H409.395V107.252H440.152L433.575 49.7481L416.936 43.77L407.186 51.9945V51.9908Z" fill="#FFBB99"/>
<path d="M435.183 99.9145L438.779 99.937L446.437 108.679C448.435 103.582 448.754 97.8406 447.329 92.5526C445.904 87.2646 442.942 82.0967 438.652 78.6913C443.373 74.2959 446.594 67.8116 445.342 61.5448C444.341 56.5418 440.778 52.5665 437.197 49.0899C433.739 45.7333 430.488 41.5405 425.984 39.4665C422.122 37.6889 417.378 37.8989 413.688 40.0028C413.493 40.1153 413.317 40.2503 413.129 40.3704C398.234 44.9495 400.162 58.2445 400.162 58.2445C402.101 55.3267 406.893 51.5764 411.108 50.62C412.672 50.2638 414.299 50.1775 415.886 50.3913C424.421 51.5239 427.871 58.942 427.886 66.349L432.397 64.0088C433.709 66.1052 434.414 75.0723 427.443 75.6761L427.417 92.0876C427.409 96.3892 430.878 99.8845 435.179 99.9145H435.183Z" fill="#FF5C4D"/>
<path d="M416.949 51.7371C418.906 49.8919 421.801 49.2806 424.381 50.1094C428.011 51.272 430.19 54.8761 433.389 56.9238C436.468 58.8927 440.533 59.2865 443.941 57.9439" stroke="#4D1F1F" stroke-width="1.50007" stroke-linecap="round" stroke-linejoin="round"/>
<path d="M451.432 83.3419L454.293 80.1016" stroke="#4D1F1F" stroke-width="1.50007" stroke-linecap="round" stroke-linejoin="round"/>
<path d="M396.331 99.645H440.896C445.644 99.645 450.181 101.591 453.455 105.027C457.344 109.107 459.005 114.819 457.921 120.347L450.474 158.229C449.589 162.733 445.64 165.985 441.046 165.985H359.945V138.045C359.945 136.747 360.646 135.555 361.779 134.921L365.551 132.817L379.119 109.542C382.689 103.418 389.244 99.6488 396.331 99.6488V99.645Z" fill="#00BFE6"/>
<path d="M389.707 114.786L374.925 136.616C374.925 136.616 374.835 142.103 378.517 146.937" stroke="#4D1F1F" stroke-width="1.50007" stroke-linecap="round" stroke-linejoin="round"/>
<path d="M407.34 68.52L400.62 71.8091L407.212 76.527" stroke="#4D1F1F" stroke-width="1.50007" stroke-linecap="round" stroke-linejoin="round"/>
<path d="M409.402 90.7388V100.516" stroke="#4D1F1F" stroke-width="1.50007" stroke-linecap="round" stroke-linejoin="round"/>
<path d="M429.691 69.4341C428.285 70.893 427.453 72.8731 427.4 74.8833" stroke="#4D1F1F" stroke-width="1.50007" stroke-linecap="round" stroke-linejoin="round"/>
<path d="M455.257 91.9295L459.449 90.7856" stroke="#4D1F1F" stroke-width="1.50007" stroke-linecap="round" stroke-linejoin="round"/>
<path d="M411.706 59.3981C414.755 57.8042 417.56 58.5543 419.66 60.5457" stroke="#FF5B4D" stroke-width="1.50007" stroke-linecap="round" stroke-linejoin="round"/>
<path d="M412.055 65.147C412.865 64.2544 414.073 63.7369 415.28 63.7632C416.488 63.7894 417.669 64.3595 418.441 65.2858" stroke="#4D1F1F" stroke-width="1.50007" stroke-linecap="round" stroke-linejoin="round"/>
<path d="M398.368 65.147C399.178 64.2544 400.385 63.7369 401.593 63.7632C402.8 63.7894 403.981 64.3595 404.754 65.2858" stroke="#4D1F1F" stroke-width="1.50007" stroke-linecap="round" stroke-linejoin="round"/>
<path d="M375.283 126.464L364.46 98.7111C364.108 97.8073 364.775 96.8322 365.746 96.8359L380.953 96.8772C382.025 96.8772 382.985 97.5373 383.375 98.5386L394.198 126.291C394.55 127.195 393.883 128.17 392.911 128.166L377.705 128.125C376.633 128.125 375.673 127.465 375.283 126.464Z" fill="#4D1F1F" stroke="#4D1F1F" stroke-width="1.50007" stroke-linecap="round" stroke-linejoin="round"/>
<path d="M374.036 113.547L391.181 118.517L389.722 114.777L393.862 115.374C395.272 115.576 396.476 116.491 397.046 117.796L400.338 125.166C401.212 127.12 402.637 128.774 404.441 129.929L431.55 147.255C438.656 158.829 430.743 165.977 430.743 165.977H427.713C423.555 165.977 419.583 164.256 416.741 161.222L397.747 140.947C396.401 139.511 394.676 138.487 392.767 137.996L383.122 135.509C381.922 135.202 380.842 134.553 380.002 133.642L372.041 124.997C371.302 124.195 370.942 123.114 371.051 122.031L371.748 115.096C371.861 113.979 372.96 113.24 374.036 113.551V113.547Z" fill="#FFBB99"/>
<path d="M385.855 122.659L371.553 116.895" stroke="#FF5C4D" stroke-width="1.50007" stroke-linecap="round" stroke-linejoin="round"/>
<path d="M383.754 128.477L371.165 120.695" stroke="#FF5C4D" stroke-width="1.50007" stroke-linecap="round" stroke-linejoin="round"/>
<path d="M430.743 165.976C430.743 165.976 438.656 158.828 431.55 147.258L431.19 145.06C430.927 143.444 431.325 141.79 432.292 140.47L433.552 138.749L432.626 120.698" stroke="#4D1F1F" stroke-width="1.50007" stroke-linecap="round" stroke-linejoin="round"/>
<path d="M383.368 98.5435L391.16 118.525L374.015 113.556C372.939 113.245 371.84 113.984 371.728 115.101L371.03 122.036C370.921 123.119 371.281 124.2 372.02 125.002L379.981 133.647C380.818 134.558 381.901 135.207 383.101 135.514L392.746 138.001C394.651 138.492 396.38 139.516 397.726 140.952L416.72 161.227C419.563 164.261 423.534 165.982 427.693 165.982H430.723" stroke="#4D1F1F" stroke-width="1.50007" stroke-linecap="round" stroke-linejoin="round"/>
<path d="M350.829 224.747V209.352C350.829 205.009 354.35 201.487 358.693 201.487H364.52L371.004 179.818L356.889 227.001C356.386 228.674 355.366 230.084 354.031 231.07C352.093 229.637 350.829 227.342 350.829 224.747Z" fill="#FF5C4D"/>
<path d="M325.95 167.732L320.666 169.731L298.953 168.407C297.255 168.302 295.556 168.572 293.973 169.199L270.086 178.627C267.127 179.794 265.342 182.824 265.751 185.978C266.223 189.619 269.448 192.267 273.112 192.012L298.398 190.268C300.446 190.126 302.418 189.447 304.117 188.299L317.827 179.028L329.617 176.865L325.953 167.74L325.95 167.732Z" fill="#4D1F1F" stroke="#4D1F1F" stroke-width="1.50007" stroke-linecap="round" stroke-linejoin="round"/>
<path d="M327.877 162.576L313.334 169.001C312.592 169.327 311.782 169.473 310.976 169.424L305.006 169.061C303.693 168.982 302.377 169.188 301.151 169.672L282.659 176.97C280.368 177.874 278.988 180.218 279.303 182.659C279.667 185.48 282.164 187.527 285.003 187.332L304.574 185.982C306.157 185.873 307.683 185.348 308.999 184.459L313.533 181.392C314.212 180.934 314.992 180.645 315.806 180.552L331.391 178.785L327.877 162.576Z" fill="#FFBB99"/>
<path d="M298.132 191.803L280.226 260.881H306.277L325.357 206.606C326.433 203.542 329.328 201.494 332.58 201.494H364.526L372.832 174.39L311.696 180.233C305.193 180.856 299.775 185.476 298.136 191.803H298.132Z" fill="#FF5C4D"/>
<path d="M318.67 189.025C308.613 180.695 315.982 167.408 315.982 167.408L368.737 145.21C373.57 143.177 379.023 142.993 383.909 144.887C394.147 148.859 394.293 158.392 394.293 158.392V165.979H381.007C377.53 165.979 374.47 168.259 373.473 171.59L371.954 176.668L325.675 190.428C323.253 191.148 320.617 190.638 318.67 189.025Z" fill="#FF5C4D"/>
<path d="M264.629 294.954L274.165 279.813C275.639 277.473 276.34 274.994 276.948 272.133L280.18 260.878H296.969L292.375 271.278C292.233 271.956 292.157 272.65 292.157 273.344V278.167L273.242 298.996L264.629 294.95V294.954Z" fill="#FFBB99"/>
<path d="M292.167 278.159V273.336C292.167 272.642 292.238 271.948 292.384 271.27L298.797 256.756" stroke="#FF5C4D" stroke-width="1.50007" stroke-linecap="round" stroke-linejoin="round"/>
<path d="M264.642 294.951H270.526C273.181 294.951 275.731 293.934 277.624 292.119L292.167 278.168C293.033 278.914 293.491 279.946 293.532 281.003H293.547L293.536 281.089C293.543 281.42 293.513 281.753 293.431 282.08L290.791 307.229L288.518 289.884L279.968 302.706C278.089 305.527 274.868 307.229 271.414 307.229H253.186C251.929 307.229 250.913 306.239 250.913 305.017L264.642 294.958V294.951Z" fill="#4D1F1F" stroke="#4D1F1F" stroke-width="1.50007" stroke-linecap="round" stroke-linejoin="round"/>
<path d="M280.18 260.871H296.969L294.715 265.972L280.18 260.871Z" fill="#FF5C4D" stroke="#FF5C4D" stroke-width="1.50007" stroke-linecap="round" stroke-linejoin="round"/>
<path d="M315.969 167.406C315.969 167.406 308.6 180.693 318.658 189.023C320.604 190.635 323.24 191.145 325.663 190.425L371.941 176.665" stroke="#4D1F1F" stroke-width="1.50007" stroke-linecap="round" stroke-linejoin="round"/>
<path d="M280.237 260.882H306.288L325.368 206.607C326.444 203.543 329.339 201.495 332.591 201.495H364.537L373.48 171.598" stroke="#4D1F1F" stroke-width="1.50007" stroke-linecap="round" stroke-linejoin="round"/>
<path d="M316.185 232.61H349.331C352.807 232.61 355.867 230.33 356.865 227L373.44 171.589C374.437 168.258 377.497 165.978 380.974 165.978H441.637C448.545 165.978 454.909 162.235 458.269 156.201L467.434 139.729" stroke="#FF5C4D" stroke-width="1.50007" stroke-linecap="round" stroke-linejoin="round"/>
<path d="M324.941 207.738L322.053 215.952C321.543 217.403 321.281 218.933 321.281 220.474V224.754C321.281 229.096 324.802 232.618 329.145 232.618H316.192L324.937 207.738H324.941Z" fill="#4D1F1F" stroke="#4D1F1F" stroke-width="1.50007" stroke-linecap="round" stroke-linejoin="round"/>
<path d="M355.323 260.889C367.135 260.889 377.223 252.368 379.203 240.723L391.199 170.168" stroke="#FF5C4D" stroke-width="1.50007" stroke-linecap="round" stroke-linejoin="round"/>
<path d="M323.186 235.312L319.732 257.166C319.424 259.112 320.928 260.871 322.897 260.871H306.255L316.192 232.608H327.363H326.351C324.776 232.608 323.433 233.756 323.186 235.312Z" fill="#4D1F1F" stroke="#4D1F1F" stroke-width="1.50007" stroke-linecap="round" stroke-linejoin="round"/>
<path d="M330.832 232.608H317.703" stroke="#FF5C4D" stroke-width="1.50007" stroke-linecap="round" stroke-linejoin="round"/>
<path d="M296.518 126.878C292.168 123.495 289.033 118.582 287.799 113.212C286.565 107.841 287.233 102.054 289.663 97.1076C290.015 96.3875 290.428 95.6599 291.088 95.2061C291.748 94.7524 292.719 94.6586 293.315 95.1949C293.791 95.6262 293.908 96.3275 293.911 96.9726C293.941 100.637 291.223 103.963 287.833 105.366C284.446 106.768 280.554 106.491 277.063 105.377C273.616 104.278 270.358 102.332 268.183 99.4403C264.613 94.6886 264.526 87.7992 267.391 82.59C270.256 77.3808 275.716 73.8667 281.54 72.6703C287.36 71.474 293.488 72.4416 299.004 74.6505C304.52 76.8595 309.485 80.2648 314.098 84.0151" stroke="#FBFCF9" stroke-width="1.50007" stroke-linecap="round" stroke-linejoin="round"/>
<path d="M302.175 146.5C302.175 148.311 303.424 149.886 305.19 150.299L311.692 151.814C311.805 154.409 313.425 157.556 315.465 159.161" stroke="#FF5C4D" stroke-width="1.50007" stroke-linecap="round" stroke-linejoin="round"/>
<path d="M320.928 141.428L325.48 138.859" stroke="#FFBB99" stroke-width="1.50007" stroke-linecap="round" stroke-linejoin="round"/>
<path d="M461.699 240.711C459.719 252.356 449.628 260.877 437.819 260.877H306.273" stroke="#4D1F1F" stroke-width="1.50007" stroke-linecap="round" stroke-linejoin="round"/>
<path d="M399.547 59.7142C401.445 58.2366 404.366 58.0866 406.207 59.6167" stroke="#FF5B4D" stroke-width="1.50007" stroke-linecap="round" stroke-linejoin="round"/>
<path d="M417.652 78.4609C416.276 80.1748 413.831 80.9399 411.724 80.3249" stroke="#4D1F1F" stroke-width="1.50007" stroke-linecap="round" stroke-linejoin="round"/>
<path d="M438.637 47.3476C434.283 46.0987 431.133 43.2559 427.548 40.702C424.162 38.2867 419.568 37.4954 415.642 38.943C406.383 42.3559 407.219 51.9867 407.219 51.9867C400.263 54.8632 391.015 66.388 403.417 90.739H414.138C417.667 90.739 420.899 88.7701 422.519 85.6386" stroke="#4D1F1F" stroke-width="1.50007" stroke-linecap="round" stroke-linejoin="round"/>
<path d="M442.637 302.861C442.84 305.205 440.995 307.219 438.64 307.219C436.671 307.219 434.995 305.79 434.68 303.848L428.342 264.619" stroke="#4D1F1F" stroke-width="1.50007" stroke-linecap="round" stroke-linejoin="round"/>
<path d="M378.887 302.861C379.09 305.205 377.245 307.219 374.89 307.219C372.921 307.219 371.245 305.79 370.93 303.848L364.592 264.619" stroke="#4D1F1F" stroke-width="1.50007" stroke-linecap="round" stroke-linejoin="round"/>
<path d="M433.529 138.757C433.529 138.757 440.481 139.717 443.684 148.654" stroke="#4D1F1F" stroke-width="1.50007" stroke-linecap="round" stroke-linejoin="round"/>
<path d="M369.602 141.065L365.563 132.807" stroke="#4D1F1F" stroke-width="1.50007" stroke-linecap="round" stroke-linejoin="round"/>
<path d="M51.7109 100.069L49.8846 95.396" stroke="#C4F5F5" stroke-width="1.50007" stroke-linecap="round" stroke-linejoin="round"/>
<path d="M38.3125 116.115L34.2512 113.272" stroke="#C4F5F5" stroke-width="1.50007" stroke-linecap="round" stroke-linejoin="round"/>
<path d="M122.37 150.012L124.602 145.545" stroke="#FBFCF9" stroke-width="1.50007" stroke-linecap="round" stroke-linejoin="round"/>
<path d="M309.86 56.3624C298.663 40.0746 302.698 17.8351 318.83 6.50159C334.831 -4.73818 357.144 -1.04035 368.638 14.7786C378.598 28.4861 377.465 46.7165 367.175 59.0364L371.458 79.8358C371.739 81.2084 370.231 82.2472 369.054 81.4897C363.778 78.1144 353.533 71.555 351.17 70.0399C336.271 75.1404 319.22 69.9724 309.86 56.3586V56.3624Z" fill="#FFE28D"/>
<path d="M375.522 35.1094C375.717 43.7127 372.826 52.2634 367.174 59.0291L371.457 79.8284C371.738 81.2011 370.231 82.2399 369.053 81.4823C363.777 78.107 353.532 71.5477 351.17 70.0326C336.271 75.133 319.22 69.9651 309.86 56.3513C305.401 49.8632 303.357 42.43 303.533 35.1169" stroke="#FF5C4D" stroke-width="1.50007" stroke-linecap="round" stroke-linejoin="round"/>
<path d="M339.869 27.9158C338.849 28.032 337.926 27.2932 337.81 26.2731C337.694 25.253 338.433 24.3305 339.453 24.2142C340.473 24.0979 341.395 24.8367 341.511 25.8568C341.628 26.8769 340.889 27.7995 339.869 27.9158Z" fill="#FF5C4D"/>
<path d="M331.064 42.3499C330.044 42.4661 329.122 41.7273 329.006 40.7072C328.889 39.6871 329.628 38.7645 330.648 38.6483C331.668 38.532 332.59 39.2708 332.707 40.2909C332.823 41.311 332.084 42.2336 331.064 42.3499Z" fill="#FF5C4D"/>
<path d="M332.219 32.1189C332.118 31.6351 332.036 31.1476 331.979 30.6525L330.652 18.869L354.209 16.21L355.537 27.9935C356.261 34.4254 352.833 40.6284 346.998 43.4337L346.807 43.5237C347.043 49.5505 343.683 55.2135 338.186 57.8538L336.618 58.6076L334.923 58.2213C328.612 56.7849 323.887 51.5007 323.163 45.0688L321.836 33.2853L332.216 32.1152L332.219 32.1189ZM352.578 28.3273L351.584 19.5028L333.948 21.4904L334.942 30.315C334.998 30.8138 335.084 31.3013 335.201 31.7814L345.401 30.63L346.496 40.3322C350.707 37.9169 353.129 33.2028 352.578 28.3236V28.3273ZM336.281 34.6616C337.781 37.5044 340.368 39.6983 343.529 40.6659L342.768 33.9303L336.277 34.6616H336.281ZM326.129 44.7388C326.714 49.9105 330.517 54.1634 335.591 55.3185L336.269 55.4723L336.896 55.1685C341.261 53.0683 343.953 48.6017 343.837 43.82L343.739 43.7975C338.932 42.7024 335.047 39.3758 333.146 35.0067L325.132 35.9105L326.126 44.7351L326.129 44.7388Z" fill="#FF5C4D"/>
</svg>
