<svg width="320.000000" height="320.000000" viewBox="0 0 320 320" fill="none" xmlns="http://www.w3.org/2000/svg" xmlns:xlink="http://www.w3.org/1999/xlink">
	<desc>
			Created with Pixso.
	</desc>
	<defs>
		<clipPath id="clip379_79647">
			<rect id="Outfit" rx="-1.896184" width="316.207642" height="316.207642" transform="translate(1.896184 1.896184)" fill="white" fill-opacity="0"/>
		</clipPath>
		<clipPath id="clip379_79648">
			<rect id="Hair" rx="-1.896184" width="316.207642" height="316.207642" transform="translate(1.896184 1.896184)" fill="white" fill-opacity="0"/>
		</clipPath>
		<clipPath id="clip379_79649">
			<rect id="Eye" rx="-1.896184" width="316.207642" height="316.207642" transform="translate(1.896184 1.896184)" fill="white" fill-opacity="0"/>
		</clipPath>
		<clipPath id="clip379_79651">
			<rect id="Mouth" rx="-1.896184" width="316.207642" height="316.207642" transform="translate(1.896184 1.896184)" fill="white" fill-opacity="0"/>
		</clipPath>
		<clipPath id="clip379_79652">
			<rect id="Hat" rx="-1.896184" width="316.207642" height="316.207642" transform="translate(1.896184 1.896184)" fill="white" fill-opacity="0"/>
		</clipPath>
		<clipPath id="clip379_79653">
			<rect id="Glasses" rx="-1.896184" width="316.207642" height="316.207642" transform="translate(1.896184 1.896184)" fill="white" fill-opacity="0"/>
		</clipPath>
	</defs>
	<rect id="Background" rx="-1.896184" width="316.207642" height="316.207642" transform="translate(1.896184 1.896184)" fill="#FFFFFF" fill-opacity="0"/>
	<path id="Vector" d="M320 160C320 248.36 248.36 320 160 320C71.63 320 0 248.36 0 160C0 71.63 71.63 0 160 0C248.36 0 320 71.63 320 160Z" fill="#C4F5F5" fill-opacity="1.000000" fill-rule="evenodd"/>
	<path id="Vector" d="M287.58 256.59C258.53 249.42 219.28 240.66 207.56 238.04C204.79 226.55 201.57 211.61 198.38 193.52C191.75 155.82 192.5 136.52 192.5 135.95C192.5 135.95 203.62 130.91 207.6 121.46C209.5 116.91 209.8 112.82 208.89 109.44C207.98 106.07 205.85 103.49 202.86 102.01C197.36 99.28 189.77 105.84 189.74 105.92C189.77 105.35 192.77 69.09 162.73 57.11C145.82 50.4 122.57 55.1 115.98 84.15C103.61 138.64 106.68 159.01 111.57 165.99C117.49 174.37 139.26 177.33 139.3 177.36L134.63 238.08C120.26 241.27 63.53 253.93 36.18 261.33C65.53 297.13 110.1 320 160 320C209.91 320 258.3 295.12 287.54 256.62L287.58 256.59Z" fill="#FFBB99" fill-opacity="1.000000" fill-rule="nonzero"/>
	<g opacity="0.200000">
		<path id="Vector" d="M139.33 177.25C139.33 177.25 156.17 179.45 169.14 167.09L169.14 177.74C169.14 177.74 156.85 190.71 137.7 198.3L139.33 177.25Z" fill="#4D1F1F" fill-opacity="1.000000" fill-rule="nonzero"/>
	</g>
	<path id="Vector" d="M119.73 132.65L119.81 132.65C119.81 132.65 119.77 132.65 119.73 132.65Z" fill="#4D1F1F" fill-opacity="1.000000" fill-rule="nonzero"/>
	<path id="Vector" d="M119.73 132.65L119.81 132.65C119.81 132.65 119.77 132.65 119.73 132.65Z" fill="#4D1F1F" fill-opacity="1.000000" fill-rule="nonzero"/>
	<path id="Vector" d="M191.07 116.53C190.88 116.53 190.69 116.53 190.5 116.42C189.7 116.12 189.28 115.17 189.63 114.37C191.6 109.4 196.23 108.27 196.42 108.23C197.25 108.04 198.09 108.57 198.31 109.4C198.5 110.24 197.97 111.07 197.14 111.3C196.98 111.3 193.91 112.13 192.55 115.55C192.32 116.15 191.71 116.53 191.07 116.53Z" fill="#4D1F1F" fill-opacity="1.000000" fill-rule="nonzero"/>
	<path id="Vector" d="M128.53 135.99C128.53 135.99 128.38 135.99 128.3 135.99C128.3 135.99 121.86 135.08 120.27 134.66C119.55 134.47 119.2 133.9 119.2 133.9C118.86 133.37 118.78 132.73 118.98 132.16L126.79 108.8C127.05 107.96 127.93 107.51 128.76 107.81C129.59 108.08 130.01 108.99 129.75 109.78L122.35 131.89L128.72 132.88C129.59 132.99 130.16 133.83 130.05 134.66C129.94 135.46 129.25 135.99 128.5 135.99L128.53 135.99Z" fill="#4D1F1F" fill-opacity="1.000000" fill-rule="nonzero"/>
	<g clip-path="url(#clip379_79647)">
		<path id="Vector" d="M252.59 248.25C266.02 238.92 274.97 209.18 257.75 194.2C244.21 182.45 221.8 187.68 199.01 196.25L205.35 238.44C167.36 246.93 155.4 260.99 149.21 259.85C139.89 258.14 136.09 232.17 136.09 232.17L136.96 209.83C131.47 209.52 126.88 210.51 122.78 211.31C119.44 211.95 116.11 212.82 113.03 214.3C97.79 221.51 99.19 237.47 101.47 245.55C79.4 250.6 52.51 256.93 36.2 261.37C65.55 297.13 110.08 320 159.98 320C209.89 320 258.32 295.08 287.56 256.59C276.68 253.9 264.35 250.98 252.59 248.28L252.59 248.25Z" fill="#00BFE6" fill-opacity="1.000000" fill-rule="nonzero"/>
		<path id="Vector" d="M251.09 245.78C205.96 238.16 174.03 256.89 154.95 268.08L154.61 268.27L154.54 267.43C154.46 266.6 153.78 265.99 152.91 266.07C152.07 266.14 151.46 266.86 151.54 267.7L151.73 269.97L151.24 270.24C148.47 271.83 145.17 271.26 142.82 268.87L143.46 265.16C143.62 264.32 143.05 263.57 142.21 263.41C141.34 263.26 140.62 263.83 140.47 264.66L140.24 265.95C123.82 246.92 104.02 243.96 103.15 243.85C102.35 243.73 101.56 244.3 101.44 245.13C101.33 245.97 101.9 246.73 102.73 246.84C102.96 246.84 123.63 249.95 139.59 269.82L136.37 288.44C136.22 289.28 136.79 290.04 137.62 290.19C137.7 290.19 137.81 290.19 137.89 290.19C138.61 290.19 139.25 289.66 139.37 288.94L142.25 272.29C144 273.5 145.96 274.18 147.94 274.18C149.3 274.18 150.71 273.8 152 273.2L153.97 295.91C154.04 296.71 154.69 297.32 155.48 297.32C155.52 297.32 155.56 297.32 155.6 297.32C156.43 297.24 157.04 296.52 156.96 295.69L154.88 271.68L156.47 270.77C175.21 259.77 206.53 241.38 250.6 248.85C251.47 249 252.19 248.43 252.34 247.6C252.5 246.77 251.93 246.01 251.09 245.85L251.09 245.78Z" fill="#4D1F1F" fill-opacity="1.000000" fill-rule="nonzero"/>
		<path id="Vector" d="M207.75 238.03C208.05 238.03 208.39 237.95 208.66 237.72C208.77 237.65 221.25 228.66 237.97 228.66C238.12 228.66 238.35 228.66 238.39 228.66C239.23 228.66 239.91 227.98 239.91 227.14C239.91 226.31 239.23 225.62 238.39 225.62C220.53 225.4 207.37 234.84 206.84 235.26C206.16 235.75 206 236.7 206.5 237.38C206.8 237.8 207.25 237.99 207.71 237.99L207.75 238.03Z" fill="#4D1F1F" fill-opacity="1.000000" fill-rule="nonzero"/>
		<path id="Vector" d="M132.19 234.76C132.46 235.37 133.12 235.7 133.76 235.62C133.91 235.6 134.06 235.58 134.2 235.48C134.96 235.15 135.3 234.23 134.96 233.47C134.81 233.18 131.48 225.97 122.74 220.63C122.03 220.19 121.1 220.43 120.66 221.14C120.22 221.84 120.46 222.77 121.17 223.21C129.08 228.05 132.18 234.68 132.18 234.72L132.19 234.76Z" fill="#4D1F1F" fill-opacity="1.000000" fill-rule="nonzero"/>
	</g>
	<g clip-path="url(#clip379_79648)">
		<path id="Vector" d="M204.33 91C206.48 86.18 205.56 82.68 203.32 80.44C207.84 72.29 199.12 69.97 199.12 69.97C203.19 62.22 194.3 60.12 194.3 60.12C196.23 50 184.53 51.44 184.53 51.44C181.07 42.33 170.03 46.67 170.03 46.67C161.84 36.64 152.12 46.93 152.12 46.93C142.13 42.02 137.7 52.45 137.7 52.45C127.45 51.62 126.14 61.47 126.14 61.47C126.14 61.47 121.5 62.66 119.13 67.12C118.12 69.05 117.86 71.2 117.82 72.91C114.09 76.59 109.41 83.42 114.44 91.92C115.27 89.47 115.73 86.82 117.82 83.43C119.44 87.37 124.69 86.22 124.69 86.22C131.04 95.03 140.55 87.63 140.55 87.63C149.53 93.58 155.62 85.92 155.62 85.92C164.82 91.35 170.47 84.47 170.47 84.47C168.06 94.77 178.84 95.82 178.84 95.82C176.87 100.72 176.75 104.14 180.84 107.61C180.97 110.55 181.32 113.22 182.15 115.15C183.59 118.49 186.37 118.03 187.07 116.71C187.07 116.71 187.86 108.13 194.08 104.14C196.58 102.52 199.6 101.43 203.54 102.65C203.54 102.65 205.16 101.73 205.82 99.23C207.31 93.54 204.37 90.96 204.37 90.96L204.33 91Z" fill="#4D1F1F" fill-opacity="1.000000" fill-rule="nonzero"/>
	</g>
	<g clip-path="url(#clip379_79649)">
		<path id="Vector" d="M125.06 107.43C124.53 107.43 124.03 107.16 123.73 106.67C123.2 105.79 122.59 105.26 121.91 105.15C120.93 104.96 119.75 105.64 119.41 105.91C118.73 106.44 117.78 106.33 117.25 105.64C116.71 105 116.83 104.01 117.47 103.48C117.7 103.29 119.86 101.66 122.4 102.08C123.5 102.27 125.06 102.95 126.31 105.04C126.77 105.76 126.5 106.7 125.78 107.16C125.52 107.31 125.25 107.39 124.98 107.39L125.06 107.43Z" fill="#4D1F1F" fill-opacity="1.000000" fill-rule="nonzero"/>
		<path id="Vector" d="M150.66 110.8C150.16 110.8 149.67 110.57 149.41 110.12C149.37 110.08 148.34 108.64 146.86 108.41C145.99 108.26 145.16 108.52 144.21 109.21C143.53 109.7 142.58 109.55 142.09 108.87C141.59 108.18 141.75 107.2 142.42 106.7C144.06 105.53 145.77 105.11 147.43 105.41C150.16 105.91 151.79 108.14 151.94 108.41C152.44 109.09 152.25 110.08 151.53 110.53C151.27 110.72 150.96 110.8 150.66 110.8Z" fill="#4D1F1F" fill-opacity="1.000000" fill-rule="nonzero"/>
	</g>
	<g clip-path="url(#clip379_79651)">
		<path id="Vector" d="M132.19 144.64C132.19 144.64 138.23 144.64 146.38 141.6C146.49 141.56 146.64 141.53 146.68 141.68C147.21 143.2 147.93 147.18 144.07 149.11C139.25 151.54 133.86 149.49 132.61 144.71L132.19 144.64Z" fill="#FF5C4D" fill-opacity="1.000000" fill-rule="nonzero"/>
		<path id="Vector" d="M146.01 144.94C146.01 144.94 142.41 147.48 134.93 147.17L133.38 145.28L147.03 142.09L146.01 144.94Z" fill="#FFFFFF" fill-opacity="1.000000" fill-rule="nonzero"/>
		<path id="Vector" d="M140.24 151.61C138.53 151.61 136.75 151.2 135.27 150.4C133.45 149.41 132.09 147.9 131.36 146.04C130.83 146.04 130.49 146.04 130.45 146.04C129.62 146.04 128.94 145.36 128.94 144.48C128.94 143.61 129.62 142.97 130.49 142.97C130.49 142.97 138.72 142.97 145.85 140.2L145.85 140.2C146.67 139.87 147.62 140.21 148.05 140.98L148.12 141.11C148.66 142.63 148.89 145.13 147.82 147.29C146.91 149.11 145.28 150.44 142.97 151.2C142.14 151.46 141.19 151.61 140.24 151.61ZM134.7 145.81C135.19 146.57 135.88 147.21 136.75 147.67C138.61 148.66 140.73 148.69 142.02 148.28C143.5 147.78 144.52 147.02 145.05 145.96C145.43 145.17 145.51 144.33 145.47 143.61C141.57 144.94 137.59 145.55 134.7 145.85L134.7 145.81Z" fill="#4D1F1F" fill-opacity="1.000000" fill-rule="nonzero"/>
	</g>
	<g clip-path="url(#clip379_79652)">
		<path id="Vector" d="M115.28 73.37C115.28 73.37 129.47 43.28 151.24 33.05C173.32 22.69 186.77 25.82 195.09 29.92C202.1 33.36 211.29 49.42 213.77 64.14C215.47 74.29 215.6 94.62 212.03 100.59C208.89 105.81 115.28 73.37 115.28 73.37Z" fill="#FF5C4D" fill-opacity="1.000000" fill-rule="nonzero"/>
		<g opacity="0.310000">
			<path id="Vector" d="M136.85 76.25C136.85 76.25 136.5 76.25 136.32 76.16C135.45 75.9 135.02 74.94 135.28 74.11C146.6 39.41 171.59 29.66 185.53 26.96C186.44 26.78 187.27 27.35 187.44 28.26C187.62 29.18 187.05 30 186.14 30.18C170.03 33.31 148.64 43.68 138.37 75.16C138.15 75.85 137.5 76.29 136.8 76.29L136.85 76.25Z" fill="#4D1F1F" fill-opacity="1.000000" fill-rule="nonzero"/>
		</g>
		<g opacity="0.310000">
			<path id="Vector" d="M194.15 93.27C194.15 93.27 193.76 93.27 193.54 93.14C192.71 92.84 192.28 91.88 192.62 91.01C201.16 69.06 200.68 50.08 198.81 38.02C198.68 37.14 199.28 36.27 200.16 36.14C201.07 36.01 201.9 36.62 202.03 37.49C203.99 49.95 204.43 69.54 195.67 92.14C195.41 92.79 194.8 93.18 194.15 93.18L194.15 93.27Z" fill="#4D1F1F" fill-opacity="1.000000" fill-rule="nonzero"/>
		</g>
		<g opacity="0.310000">
			<path id="Vector" d="M169.59 81.08C169.59 81.08 169.41 81.08 169.32 81.08C168.41 80.95 167.84 80.12 167.98 79.21C171.77 55.09 184.57 38.5 191.84 30.75C192.44 30.09 193.49 30.05 194.14 30.66C194.8 31.27 194.84 32.31 194.23 32.97C187.18 40.46 174.85 56.43 171.2 79.69C171.07 80.51 170.37 81.08 169.59 81.08Z" fill="#4D1F1F" fill-opacity="1.000000" fill-rule="nonzero"/>
		</g>
		<path id="Vector" d="M113.24 87.52C124.25 88.09 159.83 91.7 207.64 114.35C209.47 115.22 212.21 114.7 213.04 112.82C214.43 109.56 216.18 104.38 214.56 98.63C214.3 97.71 213.21 96.84 212.43 96.36C204.85 91.83 165.58 68.89 116.42 70.93C115.11 70.98 113.37 72.15 112.63 73.29C110.19 76.81 109.89 79.43 110.19 83.65C110.32 85.48 111.45 87.44 113.24 87.52Z" fill="#FF5C4D" fill-opacity="1.000000" fill-rule="nonzero"/>
		<g opacity="0.340000">
			<path id="Vector" d="M118.55 87.44C117.63 87.44 116.94 86.65 116.94 85.78C117.16 74.94 121.73 71.28 121.94 71.15C122.68 70.59 123.69 70.72 124.25 71.46C124.77 72.15 124.69 73.2 123.99 73.72C123.91 73.81 120.42 76.86 120.25 85.87C120.25 86.74 119.51 87.48 118.59 87.48L118.55 87.44Z" fill="#4D1F1F" fill-opacity="1.000000" fill-rule="nonzero"/>
		</g>
		<g opacity="0.340000">
			<path id="Vector" d="M201.16 110.38C201.16 110.38 200.77 110.38 200.59 110.3C199.76 109.99 199.33 109.03 199.68 108.21C203.07 99.41 201.77 94.23 201.72 94.19C201.5 93.31 201.98 92.4 202.85 92.18C203.73 91.92 204.6 92.44 204.85 93.31C204.94 93.58 206.51 99.45 202.68 109.38C202.42 110.04 201.81 110.43 201.16 110.43L201.16 110.38Z" fill="#4D1F1F" fill-opacity="1.000000" fill-rule="nonzero"/>
		</g>
		<g opacity="0.340000">
			<path id="Vector" d="M158 94.4C158 94.4 157.92 94.4 157.87 94.4C156.96 94.32 156.31 93.53 156.39 92.66C157.27 82.17 160.62 76.99 160.75 76.77C161.23 76.03 162.27 75.81 163.01 76.29C163.75 76.77 163.97 77.81 163.49 78.56C163.49 78.6 160.44 83.35 159.66 92.88C159.57 93.75 158.87 94.36 158.05 94.36L158 94.4Z" fill="#4D1F1F" fill-opacity="1.000000" fill-rule="nonzero"/>
		</g>
	</g>
	<g clip-path="url(#clip379_79653)">
		<path id="Vector" d="M181.39 108.63L161.12 108.46C160.71 106.36 159.88 104.33 158.52 102.6C156.25 99.71 153.03 97.89 149.35 97.44C142.87 96.65 136.85 100.58 134.78 106.56C132.47 105.78 130.41 105.74 128.96 105.82C128.8 103.26 128.01 100.86 126.61 98.8C124.62 95.91 121.78 94.09 118.52 93.68C111.83 92.9 105.68 98.35 104.77 105.86C103.86 113.37 108.53 120.14 115.17 120.93C115.62 120.97 116.04 121.01 116.45 121.01C122.44 121.01 127.72 116.02 128.75 109.2C129.87 109.08 131.85 109.04 134.08 109.86C133.46 117.17 138.7 123.78 146.05 124.64C146.63 124.73 147.17 124.73 147.75 124.73C150.8 124.73 153.73 123.69 156.17 121.8C159.06 119.52 160.87 116.3 161.33 112.63C161.33 112.34 161.33 112.05 161.33 111.76L181.35 111.93C182.26 111.93 183 111.19 183.04 110.28C183.04 109.37 182.3 108.58 181.39 108.58L181.39 108.63ZM125.53 108.38C124.83 114.08 120.37 118.2 115.54 117.63C110.71 117.05 107.37 111.97 108.07 106.27C108.73 100.95 112.69 96.98 117.15 96.98C117.44 96.98 117.77 96.98 118.06 97.02C120.33 97.31 122.4 98.59 123.8 100.7C125.25 102.85 125.91 105.57 125.53 108.38ZM157.98 112.3C157.28 118 152.08 122 146.46 121.34C143.7 121.01 141.27 119.61 139.57 117.46C137.88 115.27 137.09 112.55 137.42 109.82C138.04 104.58 142.54 100.7 147.7 100.7C148.12 100.7 148.53 100.7 148.94 100.78C151.71 101.11 154.14 102.52 155.84 104.66C157.53 106.85 158.31 109.53 157.98 112.3Z" fill="#4D1F1F" fill-opacity="1.000000" fill-rule="nonzero"/>
	</g>
</svg>
