<svg width="148" height="120" viewBox="0 0 148 120" fill="none" xmlns="http://www.w3.org/2000/svg">
<g clip-path="url(#clip0_379_75485)">
<path d="M139.694 108.355C100.389 109.151 61.0838 109.867 21.7789 110.513C12.3163 110.662 1.44914 111.697 1.31965 99.5543C1.06067 74.2655 1.01086 48.9766 1.15031 23.6778C1.15031 22.3154 1.23996 20.774 2.27587 19.889C3.13249 19.1531 4.37758 19.1133 5.5131 19.1133C51.0136 19.1332 96.524 19.1431 142.024 19.163C143.021 19.163 144.096 19.1928 144.873 19.7995C145.879 20.5851 146.019 22.0171 146.078 23.29C147.393 50.4384 147.403 77.6366 146.118 104.785C146.078 105.65 146.009 106.585 145.461 107.261C144.714 108.186 143.359 108.276 142.174 108.305C141.347 108.325 140.51 108.335 139.684 108.355H139.694Z" fill="#F8F7F5"/>
<path d="M139.724 108.862C138.459 109.041 137.154 109.061 135.889 109.061C95.5684 109.031 55.2376 109.001 14.9167 108.972C11.1914 108.972 6.55963 109.757 3.68099 106.883C1.25058 104.467 0.971679 100.409 0.971679 97.1874C0.951757 74.504 0.941796 51.8305 0.921875 29.1471C0.921875 26.9892 0.951757 24.7119 2.06736 22.8721C4.16906 19.4015 8.98008 19.0137 13.044 19.0137C54.5005 19.0435 95.9569 19.0733 137.413 19.1032C139.216 19.1032 141.109 19.1231 142.712 19.9485C146.438 21.8578 146.926 26.8798 146.926 31.0565C146.926 53.1233 146.926 75.1901 146.926 97.257C146.926 100.827 146.707 104.904 143.948 107.182C142.752 108.166 141.278 108.633 139.734 108.862H139.724Z" stroke="#2D274F" stroke-linecap="round" stroke-linejoin="round"/>
<path d="M115.601 15.5532C115.491 13.1765 115.382 10.7898 115.272 8.41304C105.73 8.12465 96.1673 8.05504 86.625 8.20421C86.6449 10.6008 86.6549 12.9975 86.6748 15.3941C90.2507 15.1753 93.8365 15.1952 97.4124 15.4637C97.4423 47.9026 97.4622 80.3316 97.4921 112.771C93.8764 112.741 90.2507 112.721 86.635 112.691C86.6848 115.078 86.7346 117.474 86.7943 119.861C96.3964 120 106.009 120.04 115.611 120C115.541 117.554 115.471 115.117 115.401 112.671C111.826 112.602 108.25 112.542 104.674 112.472C104.674 80.0731 104.674 47.6739 104.674 15.2747C108.319 15.3742 111.965 15.4637 115.601 15.5631V15.5532Z" fill="#3ABAFF"/>
<path d="M112.972 113.228C109.924 113.208 106.876 113.198 103.818 113.178C101.865 113.168 95.3511 114.222 93.857 113.128C92.5023 112.134 93.3789 106.893 93.3988 105.054C96.9946 104.715 100.62 104.715 104.216 105.054C104.007 72.9726 103.987 40.8817 104.156 8.80074C100.501 8.80074 96.8352 8.80074 93.1796 8.80074C93.2992 6.07595 93.4187 3.35116 93.5382 0.616421C103.419 0.387697 113.31 0.377753 123.191 0.596532C123.221 3.34121 123.241 6.08589 123.271 8.82063C119.655 8.81069 116.029 8.80074 112.414 8.7908C112.354 40.822 112.304 72.8632 112.244 104.894C115.87 104.904 119.486 104.924 123.112 104.934C123.171 107.709 123.231 110.483 123.291 113.268C119.854 113.248 116.408 113.228 112.972 113.208V113.228Z" fill="#2D274F"/>
<path d="M103.438 0.765726L108.239 1.03423C112.99 1.30273 117.851 1.03423 122.612 1.09389C122.811 3.47063 122.821 5.85731 122.642 8.23404L113.966 8.16443C113.329 8.16443 112.601 8.19427 112.203 8.69149C111.914 9.05944 111.904 9.55666 111.904 10.0241C111.854 40.663 111.795 71.312 111.745 101.951C111.745 103.184 111.665 104.676 111.765 105.541H115.301H122.492C122.542 107.908 122.582 110.284 122.632 112.651C114.733 112.79 106.834 112.81 98.9354 112.701C97.013 112.671 95.1702 112.621 95.1702 112.621L94.7619 105.601L101.107 105.551L104.762 105.521C104.752 104.099 104.643 103.91 104.643 103.453C104.593 71.7794 104.553 40.1062 104.503 8.43293C100.967 8.36332 97.4313 8.30365 93.8953 8.23404C93.5168 6.73242 93.1681 5.17114 93.4969 3.65957C93.716 2.66513 94.3037 1.67068 95.1702 1.11378C96.3257 0.367946 97.3516 0.904949 98.6167 0.815449L103.428 0.775671M103.458 0.0497225C99.9912 0.0497225 96.5349 0.0696115 93.0685 0.079556C92.9291 3.15241 92.7996 6.22526 92.6602 9.29811C96.3058 9.29811 99.9514 9.30805 103.597 9.31799C103.597 41.0509 103.597 72.7838 103.597 104.517L93.0984 104.487C93.1582 104.487 92.9988 113.596 92.9988 113.596L97.9792 113.646C99.7024 113.666 101.426 113.666 103.139 113.676L123.787 113.775C123.718 110.672 123.658 107.57 123.588 104.477C119.962 104.457 116.347 104.427 112.721 104.407C112.771 72.7042 112.821 40.9912 112.88 9.28816C116.506 9.30805 120.122 9.31799 123.747 9.33788C123.718 6.22526 123.698 3.11263 123.668 0C116.924 0.019889 110.191 0.0298335 103.448 0.0497225H103.458Z" fill="#F8F7F5"/>
<path d="M67.1005 70.586C67.0607 72.3661 67.1205 74.1461 67.3197 75.9262C70.5171 74.4445 72.6785 71.3219 73.9236 68.0303C75.6468 63.4558 75.8261 58.2548 74.073 53.7003C71.5928 47.2662 65.3076 42.6121 58.4845 41.5183C51.6615 40.4244 44.4997 42.6818 39.1309 47.0176C37.9854 47.9424 36.9097 48.9667 36.0232 50.1401C34.549 52.0992 33.6426 54.4361 32.9652 56.7831C31.0428 63.426 30.8237 70.8645 34.031 76.9903C37.1587 82.957 43.3144 87.0442 49.9183 88.4165C56.5223 89.7888 63.4848 88.6452 69.6903 85.99C71.792 87.7999 73.9037 89.6098 76.0054 91.4197C69.2521 94.6318 61.8612 96.7798 54.3807 96.6306C34.5689 96.2329 20.6837 77.0002 24.9369 57.8869C27.3574 47.0275 35.9734 37.6797 46.721 34.7659C57.4686 31.8522 69.8597 35.7504 76.6927 44.5414C77.8382 46.0231 78.8342 47.6142 79.5913 49.3247C81.175 52.8848 81.683 56.8527 81.5734 60.7509C81.3543 68.9551 77.9478 77.6267 70.8259 81.704C69.3019 82.5791 67.5488 83.2354 65.8057 82.9967C63.2657 82.6487 61.3831 80.5405 59.7396 78.5714C56.4725 81.8133 51.5619 83.4741 47.0696 82.4398C42.5474 81.3957 38.852 77.7162 37.3181 73.3506C35.7841 68.9849 36.2821 64.0326 38.1747 59.8062C40.2266 55.2417 44.0515 51.3235 48.8725 49.9412C53.6934 48.559 59.4208 50.1401 62.2696 54.2671C62.5784 52.9146 62.8772 51.5622 63.186 50.2097C65.7658 50.0904 68.3357 49.9611 70.9155 49.8418C69.0927 56.6438 67.2599 63.605 67.1005 70.596V70.586ZM51.8507 74.0069C52.8269 73.997 53.9225 73.6787 55.0979 72.9826C57.2295 71.7197 58.6041 69.3827 59.0423 66.9463C59.391 65.0569 59.2117 63.0381 58.2853 61.3575C57.359 59.6769 55.6358 58.3941 53.7233 58.2449C51.8906 58.1057 50.0677 59.0206 48.8426 60.3929C47.6174 61.7652 46.9401 63.5553 46.6213 65.3652C45.8843 69.5518 48.0158 74.0666 51.8408 74.0069H51.8507Z" fill="#3ABAFF"/>
<path d="M113.009 112.94C109.961 112.92 106.913 112.91 103.855 112.89C101.902 112.88 93.2963 112.731 93.2963 112.731C93.2963 112.731 93.4158 106.605 93.4457 104.765H104.263C104.054 72.6746 104.034 40.5936 104.203 8.51266C100.548 8.51266 96.8821 8.51266 93.2266 8.51266C93.3461 5.78786 93.4656 3.06307 93.5851 0.328335C103.466 0.0996115 113.357 0.089667 123.238 0.308446C123.268 3.05313 123.288 5.79781 123.318 8.53255C119.702 8.5226 116.076 8.51266 112.461 8.50271C112.401 40.5339 112.351 72.5751 112.291 104.606C115.917 104.616 119.533 104.636 123.158 104.646C123.218 107.421 123.278 110.195 123.338 112.98C119.901 112.96 116.455 112.94 113.018 112.92L113.009 112.94Z" fill="#2D274F"/>
</g>
<defs>
<clipPath id="clip0_379_75485">
<rect width="147" height="120" fill="white" transform="translate(0.414062)"/>
</clipPath>
</defs>
</svg>
