<svg width="320.000000" height="320.000977" viewBox="0 0 320 320.001" fill="none" xmlns="http://www.w3.org/2000/svg" xmlns:xlink="http://www.w3.org/1999/xlink">
	<desc>
			Created with Pixso.
	</desc>
	<defs>
		<clipPath id="clip29_7082">
			<rect id="Outfit=Red T-Shirt" rx="-1.896184" width="316.207611" height="316.207611" transform="translate(1.896184 1.896184)" fill="white" fill-opacity="0"/>
		</clipPath>
		<clipPath id="clip29_7091">
			<rect id="Hair=Ponytail Hair" rx="-1.896184" width="316.207611" height="316.207611" transform="translate(1.896184 1.896184)" fill="white" fill-opacity="0"/>
		</clipPath>
		<clipPath id="clip29_7095">
			<rect id="Eye=Close Eye" rx="-1.896184" width="316.207611" height="316.207611" transform="translate(1.896184 1.896184)" fill="white" fill-opacity="0"/>
		</clipPath>
		<clipPath id="clip29_7099">
			<rect id="Shape=Elips, Color=Pink" rx="-1.896184" width="316.207611" height="316.207611" transform="translate(1.896184 1.896184)" fill="white" fill-opacity="0"/>
		</clipPath>
		<clipPath id="clip29_7103">
			<rect id="Mouth" rx="-1.896184" width="316.207611" height="316.207611" transform="translate(1.896184 1.896184)" fill="white" fill-opacity="0"/>
		</clipPath>
	</defs>
	<rect id="Background=Coral" rx="-1.896184" width="316.207611" height="316.207611" transform="translate(1.896184 1.896184)" fill="#FFFFFF" fill-opacity="0"/>
	<path id="Vector" d="M320 160C320 248.36 248.36 320 160 320C71.63 320 0 248.36 0 160C0 71.63 71.63 0 160 0C248.36 0 320 71.63 320 160Z" fill="#C4F5F5" fill-opacity="1.000000" fill-rule="evenodd"/>
	<path id="Vector" d="M287.57 256.63C258.56 249.46 219.54 240.77 207.82 238.16C205.05 226.63 201.83 211.76 198.6 193.6C191.85 155.33 192.73 135.95 192.73 135.95C192.73 135.95 196.25 134.36 200.05 131.29C203 128.9 206.11 125.6 207.86 121.43C211.69 112.36 209.11 104.93 203.12 101.97C197.58 99.24 189.96 105.88 189.96 105.88C189.96 105.88 194.89 69.28 171.07 58.66C147.52 48.16 123.29 54.76 116.23 82.97C102.62 137.24 113.16 166.97 128.52 175.09C133.87 177.9 139.52 177.33 139.52 177.33L139.59 177.25L134.89 238.08C120.41 241.31 63.44 254.01 36.21 261.4C65.57 297.17 110.09 320 159.96 320C209.83 320 258.3 295.08 287.53 256.55L287.57 256.63Z" fill="#FFBB99" fill-opacity="1.000000" fill-rule="nonzero"/>
	<g opacity="0.200000">
		<path id="Vector" d="M139.59 177.32C139.59 177.32 153.69 177.82 169.39 159.35L169.39 173.91C169.39 173.91 157.11 190.79 137.96 198.37L139.59 177.32Z" fill="#4D1F1F" fill-opacity="1.000000" fill-rule="nonzero"/>
	</g>
	<path id="Vector" d="M119.99 132.69L120.06 132.69C120.06 132.69 120.03 132.69 119.99 132.69Z" fill="#4D1F1F" fill-opacity="1.000000" fill-rule="nonzero"/>
	<path id="Vector" d="M119.99 132.69L120.06 132.69C120.06 132.69 120.03 132.69 119.99 132.69Z" fill="#4D1F1F" fill-opacity="1.000000" fill-rule="nonzero"/>
	<path id="Vector" d="M191.32 116.57C191.13 116.57 190.94 116.57 190.75 116.46C189.96 116.15 189.54 115.21 189.88 114.41C191.85 109.44 196.48 108.3 196.67 108.27C197.5 108.08 198.34 108.61 198.57 109.44C198.75 110.28 198.23 111.11 197.39 111.34C197.24 111.34 194.17 112.17 192.8 115.58C192.57 116.19 191.97 116.57 191.32 116.57Z" fill="#4D1F1F" fill-opacity="1.000000" fill-rule="nonzero"/>
	<path id="Vector" d="M128.75 136.06C128.75 136.06 128.59 136.06 128.52 136.06C128.52 136.06 122.07 135.15 120.48 134.74C119.76 134.55 119.41 133.98 119.41 133.98C119.07 133.45 119 132.8 119.19 132.23L127 108.87C127.27 108.04 128.14 107.58 128.97 107.89C129.8 108.15 130.22 109.06 129.96 109.86L122.56 131.97L128.93 132.96C129.8 133.07 130.37 133.9 130.26 134.74C130.15 135.53 129.46 136.06 128.71 136.06L128.75 136.06Z" fill="#4D1F1F" fill-opacity="1.000000" fill-rule="nonzero"/>
	<g clip-path="url(#clip29_7082)">
		<path id="Vector" d="M287.53 256.59C258.52 249.42 219.39 240.7 207.71 238.08C207.71 237.97 207.63 237.81 207.63 237.7C201.48 242.21 170.92 263.41 142.59 260.04C122.49 257.61 130.15 243.28 133.37 238.38C116.92 242.02 62.65 254.2 36.21 261.36C65.57 297.13 110.09 319.99 160 319.99C209.91 319.99 258.33 295.08 287.57 256.59L287.53 256.59Z" fill="#FF5C4D" fill-opacity="1.000000" fill-rule="nonzero"/>
		<path id="Vector" d="M224.17 283.7C224.17 291.28 217.98 297.43 210.33 297.43C202.69 297.43 196.49 291.28 196.49 283.7C196.49 276.12 202.69 269.97 210.33 269.97C217.98 269.97 224.17 276.12 224.17 283.7Z" fill="#FFE1E1" fill-opacity="1.000000" fill-rule="evenodd"/>
		<path id="Vector" d="M230.65 243.27C231.86 249.72 237.55 254.61 244.37 254.61C248.96 254.61 253.02 252.41 255.56 249C246.77 246.95 238.19 244.98 230.65 243.27Z" fill="#FFE1E1" fill-opacity="1.000000" fill-rule="nonzero"/>
		<path id="Vector" d="M132.8 304.82C129.27 298.98 121.73 297.05 115.92 300.54C111.83 303 109.74 307.52 110.08 312.03C117.4 314.42 124.91 316.39 132.68 317.72C135.07 313.93 135.3 308.96 132.84 304.86L132.8 304.82Z" fill="#FFE1E1" fill-opacity="1.000000" fill-rule="nonzero"/>
		<path id="Vector" d="M73.76 274.87C81.34 274.87 87.52 268.76 87.52 261.21C87.52 256.66 85.25 252.64 81.8 250.18C74.97 251.77 68.11 253.4 61.58 254.99C60.6 256.89 59.99 258.97 59.99 261.21C59.99 268.76 66.14 274.87 73.76 274.87Z" fill="#FFE1E1" fill-opacity="1.000000" fill-rule="nonzero"/>
		<path id="Vector" d="M142.59 260.07C123.55 257.8 129.39 244.79 132.8 239.29C132.99 238.99 133.14 238.69 133.3 238.46C132.35 238.69 131.21 238.91 130.03 239.18C121.35 248.43 114.83 261.02 122.14 268.23C131.06 276.99 145.13 265.61 149.98 260.38C147.52 260.42 145.02 260.38 142.55 260.07L142.59 260.07Z" fill="#FFFFFF" fill-opacity="1.000000" fill-rule="nonzero"/>
		<path id="Vector" d="M207.7 238.12C207.7 238.12 207.63 237.85 207.63 237.74C202.05 241.83 176.19 259.73 150.21 260.34C150.67 265.12 152.9 276.27 163.67 276.65C176.87 277.14 196.18 262.58 209.6 238.5C208.95 238.34 208.27 238.19 207.74 238.08L207.7 238.12Z" fill="#FFFFFF" fill-opacity="1.000000" fill-rule="nonzero"/>
	</g>
	<g clip-path="url(#clip29_7091)">
		<path id="Vector" d="M226.25 162.95C199.05 106.48 210.4 67.01 204.05 52.16C199.62 41.82 185.64 39.32 179.82 49.14C173.77 45.37 165.89 43.4 159.62 43.22C141.36 42.7 121.59 49.14 113 87.42C112.39 91.5 112.31 94.56 112.33 96.3C112.34 96.71 112.84 96.78 112.98 96.4C115.57 89.46 119.05 81.57 125.24 75.38C125.24 75.38 132.25 87.56 145.39 95.48C162.08 105.6 167.38 104.6 162.25 93.6C162.25 93.6 180.07 124.13 184.46 115.68C184.46 115.68 185.7 109.2 192.76 104.73C195.08 103.24 198.3 102.42 200.45 102.76C202.43 103.06 204.35 103.89 205.27 104.73C210.96 109.68 209.69 117.3 206.19 124.13C202.86 130.75 192.22 136.27 192.22 136.27C191.39 145.6 195.11 179.9 196.95 187.22C198.92 186.6 198 186.47 199.8 185.77C200.63 185.42 199.8 178.06 200.63 177.71C201.59 177.27 203.26 183.75 204.27 183.75C207.68 183.67 210.66 182.31 212.72 179.33C213.16 178.72 208.69 168.9 209.21 159.49C209.3 158.17 211.97 175.69 216.4 176.92C219.99 177.93 222.97 173.68 224.68 171.27C226.47 168.73 227.66 165.84 226.3 162.95L226.25 162.95Z" fill="#4D1F1F" fill-opacity="1.000000" fill-rule="nonzero"/>
		<path id="Vector 1" d="M179.91 49.27C182.28 49.81 187.97 53.06 191.76 61.67C192.43 57.54 191 49.27 179.91 49.27Z" fill="#FFDD2A" fill-opacity="1.000000" fill-rule="evenodd"/>
	</g>
	<g clip-path="url(#clip29_7095)">
		<path id="Vector" d="M125.05 107.43C124.52 107.43 124.03 107.16 123.73 106.67C123.19 105.8 122.59 105.27 121.91 105.15C120.92 104.96 119.75 105.64 119.4 105.91C118.72 106.44 117.77 106.33 117.24 105.64C116.71 105 116.82 104.01 117.47 103.48C117.7 103.29 119.86 101.66 122.4 102.08C123.5 102.27 125.05 102.95 126.3 105.04C126.76 105.76 126.5 106.71 125.78 107.16C125.51 107.31 125.25 107.39 124.98 107.39L125.05 107.43Z" fill="#4D1F1F" fill-opacity="1.000000" fill-rule="nonzero"/>
		<path id="Vector" d="M150.66 110.8C150.16 110.8 149.67 110.57 149.41 110.12C149.37 110.08 148.34 108.64 146.86 108.41C145.99 108.26 145.16 108.53 144.21 109.21C143.53 109.7 142.58 109.55 142.09 108.87C141.59 108.19 141.75 107.2 142.42 106.71C144.06 105.53 145.77 105.11 147.43 105.42C150.16 105.91 151.79 108.15 151.94 108.41C152.44 109.1 152.25 110.08 151.53 110.54C151.27 110.73 150.96 110.8 150.66 110.8Z" fill="#4D1F1F" fill-opacity="1.000000" fill-rule="nonzero"/>
	</g>
	<g clip-path="url(#clip29_7099)">
		<path id="Vector" d="M118.02 115.79C117.57 118.12 113.8 119.35 109.6 118.54C105.41 117.73 102.38 115.18 102.83 112.84C103.28 110.51 107.05 109.28 111.24 110.09C115.44 110.9 118.47 113.45 118.02 115.79Z" fill="#FF88A2" fill-opacity="1.000000" fill-rule="evenodd"/>
		<path id="Vector" d="M157.32 120.54C157.32 123.02 153.77 125.03 149.4 125.03C145.03 125.03 141.48 123.02 141.48 120.54C141.48 118.06 145.03 116.05 149.4 116.05C153.77 116.05 157.32 118.06 157.32 120.54Z" fill="#FF88A2" fill-opacity="1.000000" fill-rule="evenodd"/>
	</g>
	<g clip-path="url(#clip29_7103)">
		<path id="Vector" d="M132.25 147.68C131.45 147.68 130.81 147.08 130.73 146.28C130.66 145.45 131.27 144.69 132.14 144.61C132.17 144.61 136.87 144.12 138.81 140.44C139.23 139.68 140.14 139.42 140.9 139.8C141.66 140.17 141.96 141.12 141.54 141.88C138.85 147.04 132.7 147.64 132.44 147.68C132.4 147.68 132.36 147.68 132.29 147.68L132.25 147.68Z" fill="#4D1F1F" fill-opacity="1.000000" fill-rule="nonzero"/>
	</g>
</svg>
