<svg width="373" height="380" viewBox="0 0 373 380" fill="none" xmlns="http://www.w3.org/2000/svg">
<g clip-path="url(#clip0_379_73344)">
<path d="M186.3 378.871C288.49 378.871 371.331 377.535 371.331 375.887C371.331 374.239 288.49 372.902 186.3 372.902C84.1106 372.902 1.26953 374.239 1.26953 375.887C1.26953 377.535 84.1106 378.871 186.3 378.871Z" fill="#4D1F1F" stroke="#4D1F1F" stroke-width="2.34077" stroke-linecap="round" stroke-linejoin="round"/>
<path d="M198.816 94.3486C210.509 93.781 222.267 92.2595 233.282 88.2919C244.297 84.3243 254.593 77.7585 261.674 68.4305C270.66 56.5921 275.992 36.0694 263.1 24.9157C257.885 20.4038 250.629 18.4552 243.8 19.4149C238.918 20.1054 234.288 22.2296 230.458 25.3253C226.845 28.2454 224.015 32.371 219.302 33.6643C212.854 35.4316 207.837 31.54 202.47 28.6726C193.559 23.9091 182.597 23.599 173.23 27.2155C164.759 30.4867 158.333 36.678 155.585 45.4208C152.948 53.8066 153.814 63.4037 158.59 70.8708L198.81 94.3545L198.816 94.3486Z" fill="#4D1F1F" stroke="#4D1F1F" stroke-width="2.34077" stroke-linecap="round" stroke-linejoin="round"/>
<path d="M157.385 120.448C152.632 115.819 150.205 108.914 151.012 102.324C151.907 95.0037 157.233 88.9704 155.678 81.4975C154.988 78.197 153.632 75.0779 152.866 71.795C150.808 62.9586 153.468 53.1625 159.706 46.585L174.767 116.223L157.391 120.448H157.385Z" fill="#4D1F1F" stroke="#4D1F1F" stroke-width="2.34077" stroke-linecap="round" stroke-linejoin="round"/>
<path d="M144.809 309.991H158.747V336.091C158.747 339.941 155.625 343.066 151.778 343.066C147.931 343.066 144.809 339.941 144.809 336.091V309.991Z" fill="#4D1F1F" stroke="#4D1F1F" stroke-width="2.34077" stroke-linecap="round" stroke-linejoin="round"/>
<path d="M224.658 283.447H212.035C199.488 283.447 188.543 281.264 177.276 275.74L114.786 367.451C111.208 372.7 105.274 375.837 98.9302 375.837C86.1025 375.837 76.8823 363.483 80.5248 351.171L99.1056 288.362C106.8 262.351 121.604 239.013 141.845 220.978L225.172 211.012V218.069C225.172 222.517 228.774 226.127 233.217 226.127C241.987 226.127 254.02 226.127 260.504 226.127C271.724 226.127 282.125 231.997 288.001 241.693L288.276 242.15C295.876 254.702 293.748 270.853 283.154 280.995L250.138 312.607C248.033 314.62 244.706 314.585 242.642 312.525L226.277 296.145C222.91 292.775 222.243 287.555 224.652 283.441L235.609 264.75C239.619 257.909 245.267 252.18 252.05 248.084" fill="#00BFE6"/>
<path d="M114.786 367.454C111.208 372.703 105.274 375.84 98.9302 375.84C86.1025 375.84 76.8823 363.486 80.5248 351.174" stroke="#4D1F1F" stroke-width="2.34077" stroke-linecap="round" stroke-linejoin="round"/>
<path d="M99.0156 375.818C105.359 375.818 111.3 372.675 114.872 367.432L177.361 275.721" stroke="#4D1F1F" stroke-width="2.34077" stroke-linecap="round" stroke-linejoin="round"/>
<path d="M249.373 313.274C249.075 313.461 248.765 313.619 248.443 313.742C247.642 314.052 246.783 314.163 245.941 314.069C244.76 313.946 243.62 313.432 242.719 312.53L226.354 296.151C222.987 292.78 222.32 287.56 224.729 283.446L194.291 335.376C192.017 339.256 191.502 343.914 192.864 348.198L198.565 366.075C200.418 371.886 205.815 375.83 211.907 375.83H228.512C231.909 375.83 234.663 373.074 234.663 369.674V368.761L225.542 359.872C223.811 358.187 222.998 355.77 223.349 353.383L225.284 340.298C225.711 337.407 227.091 334.738 229.202 332.714C231.646 330.373 234.902 329.062 238.288 329.062H254.109C256.944 329.062 259.248 326.762 259.248 323.918V303.946L250.209 312.601C249.946 312.852 249.665 313.075 249.367 313.262L249.373 313.274Z" fill="#4D1F1F" stroke="#4D1F1F" stroke-width="2.34077" stroke-linecap="round" stroke-linejoin="round"/>
<path d="M209.949 314.099L236.651 314.42C239.393 314.456 240.72 317.791 238.756 319.699L219.696 338.238C217.187 340.678 215.773 344.031 215.773 347.536V355.595" stroke="#FF5B4D" stroke-width="2.34077" stroke-linecap="round" stroke-linejoin="round"/>
<path d="M257.805 83.438L267.359 85.0297H275.053L279.386 111.96L278.52 112.089C270.341 113.33 262.027 113.382 253.83 112.247L251.754 111.96L243.984 120.884C241.125 124.167 240.698 128.919 242.931 132.664L243.077 137.943C220.509 153.55 216.44 163.305 216.44 163.305C191.58 147.511 162.13 166.061 162.13 166.061C162.13 166.061 161.393 204.063 159.563 221.327C159.563 221.327 163.744 235.804 161.399 258.615C158.68 285.06 160.206 298.467 160.206 298.467H139.38C139.199 283.96 137.445 272.888 133.276 255.309C129.055 237.495 133.095 221.005 133.095 221.005C126.488 188.316 129.423 168.817 129.423 168.817L127.956 163.931C123.799 150.109 130.031 135.28 142.807 128.585L221.263 87.4699C232.846 82.7884 245.486 81.3956 257.805 83.4438V83.438Z" fill="#FFBB99"/>
<path d="M161.052 201.609H160.976C160.637 208.48 160.222 215.116 159.719 220.201L159.847 220.973C206.323 241.519 226.225 222.577 226.225 222.577C225.886 216.508 225.757 209.117 226.319 204.096C196.05 224.619 161.058 201.609 161.058 201.609H161.052Z" fill="#4D1F1F"/>
<path d="M216.52 163.28C191.66 147.486 162.21 166.036 162.21 166.036C162.21 166.036 161.854 184.546 161.012 201.598H161.088C161.088 201.598 196.08 224.608 226.349 204.086C227.483 195.155 231.447 187.706 242.275 176.558C254.927 163.532 253.565 150.318 253.565 150.318L239.27 126.366C216.702 141.979 216.52 163.28 216.52 163.28Z" fill="#FF5C4D"/>
<path d="M200.441 43.5648C201.962 42.57 203.727 41.9029 205.516 41.5927C209.095 40.9724 212.778 41.6044 216.286 42.5583C219.794 43.5122 223.214 44.7937 226.775 45.5077C233.54 46.8653 240.971 46.0109 246.601 42.0199C252.232 38.0289 255.593 30.5853 253.722 23.9375" stroke="#00BFE6" stroke-width="2.34077" stroke-linecap="round" stroke-linejoin="round"/>
<path d="M175.732 45.7299C173.896 42.1485 173.826 37.7127 175.551 34.0787C177.276 30.4446 180.755 27.6942 184.689 26.8574" stroke="#00BFE6" stroke-width="2.34077" stroke-linecap="round" stroke-linejoin="round"/>
<path d="M183.938 62.957C172.022 62.957 162.182 72.6244 160.691 85.1416C161.451 95.9443 165.427 107.028 168.263 113.74C169.906 117.631 173.49 120.119 177.431 120.119H190.451C194.392 120.119 197.976 117.631 199.619 113.74C202.454 107.022 206.43 95.9443 207.19 85.1416C205.699 72.6244 195.859 62.957 183.944 62.957H183.938Z" fill="#FF5C4D"/>
<path d="M183.958 42.2061C168.786 42.2061 156.484 54.5185 156.484 69.7042C156.484 71.7524 156.566 73.7888 156.724 75.8019C158.472 62.3015 169.996 54.7818 183.958 54.7818C197.92 54.7818 209.444 62.3074 211.192 75.8019C211.344 73.7947 211.432 71.7582 211.432 69.7042C211.432 54.5185 199.13 42.2061 183.958 42.2061Z" fill="#FF5C4D"/>
<path d="M191.263 9.41723L190.824 1.17773" stroke="#4D1F1F" stroke-width="2.34077" stroke-linecap="round" stroke-linejoin="round"/>
<path d="M210.484 14.2449L215.185 7.18164" stroke="#4D1F1F" stroke-width="2.34077" stroke-linecap="round" stroke-linejoin="round"/>
<path d="M162.102 166.035L166.843 152.528V158.96L162.102 166.035Z" stroke="#4D1F1F" stroke-width="2.34077" stroke-linecap="round" stroke-linejoin="round"/>
<path d="M183.906 194.787C191.203 198.176 200.476 196.707 206.369 191.229" stroke="#4D1F1F" stroke-width="2.34077" stroke-linecap="round" stroke-linejoin="round"/>
<path d="M130.23 202.369C130.844 207.963 131.727 214.178 133.002 220.966C133.002 220.966 146.227 214.219 159.704 221.288C159.704 221.288 160.025 217.525 160.37 212.797C160.598 209.28 160.797 205.453 160.978 201.544C151.758 196.248 139.293 196.546 130.23 202.363V202.369Z" fill="#FFE88C"/>
<path d="M175.5 181.621C175.5 181.621 200.126 170.578 225.174 180.082C225.174 180.082 227.103 158.518 246.368 143.232" stroke="#4D1F1F" stroke-width="2.34077" stroke-linecap="round" stroke-linejoin="round"/>
<path d="M216.448 163.279C216.448 163.279 213.969 156.017 210.484 150.691" stroke="#4D1F1F" stroke-width="2.34077" stroke-linecap="round" stroke-linejoin="round"/>
<path d="M160.978 201.544C151.758 196.248 139.293 196.546 130.23 202.363" stroke="#FF5C4D" stroke-width="2.34077" stroke-linecap="round" stroke-linejoin="round"/>
<path d="M132.941 220.999C132.941 220.999 146.167 214.252 159.643 221.321" stroke="#4D1F1F" stroke-width="2.34077" stroke-linecap="round" stroke-linejoin="round"/>
<path d="M212.652 61.2031C221.399 57.5632 232.291 59.9274 238.746 66.8619" stroke="#00BFE6" stroke-width="2.34077" stroke-linecap="round" stroke-linejoin="round"/>
<path d="M280.409 111.938C271.025 113.267 261.501 113.279 252.117 111.979L251.83 111.938L244.066 120.857C241.207 124.14 240.78 128.897 243.014 132.637" stroke="#4D1F1F" stroke-width="2.34077" stroke-linecap="round" stroke-linejoin="round"/>
<path d="M162.078 166.043C162.078 166.043 161.342 204.045 159.512 221.308C159.512 221.308 163.692 235.786 161.348 258.597C158.629 285.042 160.155 298.448 160.155 298.448" stroke="#4D1F1F" stroke-width="2.34077" stroke-linecap="round" stroke-linejoin="round"/>
<path d="M133.363 303.281L133.41 314.259C133.422 316.834 134.784 319.21 137 320.521L149.693 328.029C151.605 329.158 153.979 329.153 155.891 328.017L170.081 319.544C170.934 319.035 171.238 317.952 170.782 317.068C169.18 313.99 165.386 312.802 162.316 314.417L154.727 318.408" fill="#FFBB99"/>
<path d="M250.501 229.233C226.588 236.25 210.842 229.233 210.842 229.233C210.842 229.233 197.114 242.102 169.664 245.677" stroke="#4D1F1F" stroke-width="2.34077" stroke-linecap="round" stroke-linejoin="round"/>
<path d="M215.489 228.386L210.8 231.991L207.058 230.768C204.222 229.843 202.942 226.677 203.743 222.587L206.315 209.473L225.159 204.147L222.587 217.262C221.786 221.346 219.032 225.653 215.483 228.386H215.489Z" fill="#FFE88C"/>
<path d="M219.074 212.643C218.782 214.135 217.49 215.639 216.192 216.008C214.894 216.376 214.075 215.463 214.368 213.977C214.66 212.485 215.952 210.981 217.25 210.612C218.548 210.243 219.367 211.156 219.074 212.643Z" fill="#FF5C4D"/>
<path d="M225.161 204.146L222.589 217.26C221.788 221.344 219.034 225.651 215.485 228.384L210.796 231.989L207.054 230.766C204.218 229.841 202.938 226.675 203.739 222.585L206.312 209.471" stroke="#4D1F1F" stroke-width="2.34077" stroke-linecap="round" stroke-linejoin="round"/>
<ellipse cx="252.06" cy="248.127" rx="1.16934" ry="1.17038" fill="#4D1F1F"/>
<path d="M224.734 283.453L235.691 264.762C239.702 257.921 245.35 252.192 252.132 248.096" stroke="#4D1F1F" stroke-width="2.34077" stroke-linecap="round" stroke-linejoin="round"/>
<path d="M224.714 283.428H212.091C199.544 283.428 188.599 281.245 177.332 275.721" stroke="#4D1F1F" stroke-width="2.34077" stroke-linecap="round" stroke-linejoin="round"/>
<path d="M114.872 367.459C111.294 372.708 105.359 375.845 99.0156 375.845H120.227C127.197 375.845 133.143 370.801 134.283 363.919L139.744 330.961L114.878 367.459H114.872Z" fill="#4D1F1F" stroke="#4D1F1F" stroke-width="2.34077" stroke-linecap="round" stroke-linejoin="round"/>
<path d="M133.363 303.281L133.41 314.259C133.422 316.834 134.784 319.21 137 320.521L149.693 328.029C151.605 329.158 153.979 329.153 155.891 328.017L170.081 319.544C170.934 319.035 171.238 317.952 170.782 317.068" stroke="#4D1F1F" stroke-width="2.34077" stroke-linecap="round" stroke-linejoin="round"/>
<path d="M151.761 319.558C162.336 319.558 170.909 310.977 170.909 300.393C170.909 289.808 162.336 281.228 151.761 281.228C141.186 281.228 132.613 289.808 132.613 300.393C132.613 310.977 141.186 319.558 151.761 319.558Z" fill="#FFE88C"/>
<path d="M170.909 300.365C170.909 310.951 162.338 319.53 151.761 319.53C141.185 319.53 132.613 310.951 132.613 300.365" stroke="#FF5C4D" stroke-width="2.34077" stroke-linecap="round" stroke-linejoin="round"/>
<path d="M148.816 301.403L150.167 319.468C151.149 319.55 152.149 319.555 153.161 319.479C154.172 319.403 155.16 319.251 156.119 319.023L154.768 300.958L148.816 301.403Z" fill="#FF5C4D" stroke="#FF5C4D" stroke-width="2.34077" stroke-linecap="round" stroke-linejoin="round"/>
<path d="M148.803 301.389L143.716 234.226C143.061 225.466 144.453 216.67 147.78 208.542L154.755 300.938L148.803 301.383V301.389Z" fill="#00BFE6" stroke="#00BFE6" stroke-width="2.34077" stroke-linecap="round" stroke-linejoin="round"/>
<path d="M148.803 301.389L143.716 234.226C143.061 225.466 144.453 216.67 147.78 208.542" stroke="#C4F5F5" stroke-width="2.34077" stroke-linecap="round" stroke-linejoin="round"/>
<path d="M147.844 208.578L154.819 300.974L148.867 301.419" stroke="#4D1F1F" stroke-width="2.34077" stroke-linecap="round" stroke-linejoin="round"/>
<path d="M279.389 111.946L275.057 85.0156H274.168V90.1712C274.168 102.454 264.024 112.315 251.758 111.946H272.467H279.389Z" fill="#4D1F1F"/>
<path d="M267.389 38.6826L279.298 110.006C283.134 132.957 293.529 153.597 306.439 163.861L323.371 177.326H331.153L328.007 172.311L335.807 163.867C345.29 153.603 348.798 132.969 344.963 110.012L333.053 38.6885H267.383L267.389 38.6826Z" fill="#FF5C4D" stroke="#FF5B4D" stroke-width="2.34077" stroke-linecap="round" stroke-linejoin="round"/>
<path d="M331.142 177.326L314.21 163.861C301.301 153.597 290.899 132.957 287.07 110.006L275.16 38.6826H340.83L352.74 110.006C356.576 132.957 353.062 153.597 343.584 163.861L331.148 177.326H331.142Z" fill="#FFE88C" stroke="#FFE680" stroke-width="2.34077" stroke-linecap="round" stroke-linejoin="round"/>
<path d="M287.371 55.9238L296.41 110.042C299.146 126.439 306.578 141.18 315.798 148.513L327.895 158.128L336.776 148.513C343.546 141.18 346.054 126.439 343.318 110.042L334.279 55.9238H287.371Z" stroke="#FF5B4D" stroke-width="2.34077" stroke-linecap="round" stroke-linejoin="round"/>
<path d="M319.881 81.7156C319.086 76.9638 320.547 73.1133 323.137 73.1133C325.728 73.1133 328.47 76.9638 329.265 81.7156C330.06 86.4674 328.598 90.3179 326.008 90.3179C323.418 90.3179 320.676 86.4674 319.881 81.7156Z" fill="#FF5C4D" stroke="#FF5B4D" stroke-width="2.34077" stroke-linecap="round" stroke-linejoin="round"/>
<path d="M340.825 38.6836L352.734 110.007C356.57 132.958 353.056 153.598 343.578 163.862L331.142 177.327L314.21 163.862C301.301 153.598 290.9 132.958 287.07 110.007L275.16 38.6836" stroke="#FF5B4D" stroke-width="2.34077" stroke-linecap="round" stroke-linejoin="round"/>
<path d="M267.383 38.6836L279.293 110.007C283.128 132.958 293.523 153.598 306.433 163.862L323.365 177.327H331.147L343.583 163.862" stroke="#4D1F1F" stroke-width="2.34077" stroke-linecap="round" stroke-linejoin="round"/>
<path d="M92.233 119.605C90.2275 140.936 97.2962 166.064 111.895 178.868" stroke="#4D1F1F" stroke-width="2.34077" stroke-linecap="round" stroke-linejoin="round"/>
<path d="M77.4258 140.204C78.8465 163.278 89.85 189.068 106.332 200.578" stroke="#4D1F1F" stroke-width="2.34077" stroke-linecap="round" stroke-linejoin="round"/>
<path d="M88 262.636L98.9743 264.368" stroke="#00BFE6" stroke-width="2.34077" stroke-linecap="round" stroke-linejoin="round"/>
<path d="M97.293 245.658L103.678 253.576" stroke="#00BFE6" stroke-width="2.34077" stroke-linecap="round" stroke-linejoin="round"/>
<path d="M209.745 241.717L202.062 256.704L212.435 257.622L204.547 272.709" stroke="#FBFCF9" stroke-width="2.34077" stroke-linecap="round" stroke-linejoin="round"/>
<path d="M114.793 270.313L118.582 281.163L123.92 276.464L127.662 287.46" stroke="#FBFCF9" stroke-width="2.34077" stroke-linecap="round" stroke-linejoin="round"/>
<path d="M244.078 197.789L250.521 191.234" stroke="#FBFCF9" stroke-width="2.34077" stroke-linecap="round" stroke-linejoin="round"/>
<path d="M250.551 211.023L259.233 206.909" stroke="#FBFCF9" stroke-width="2.34077" stroke-linecap="round" stroke-linejoin="round"/>
<path d="M183.971 54.749C171.389 54.749 160.783 60.3142 157.533 71.8659C156.872 74.2125 156.749 76.682 157.123 79.093C158.994 91.107 165.683 102.928 169.647 109.102C171.413 111.852 174.465 113.502 177.733 113.502H190.221C193.49 113.502 196.536 111.852 198.307 109.102C202.271 102.928 208.96 91.107 210.831 79.093C211.205 76.6879 211.082 74.2125 210.422 71.8659C207.171 60.3083 196.565 54.749 183.983 54.749H183.971Z" fill="#FFBB99" stroke="#4D1F1F" stroke-width="2.34077" stroke-linecap="round" stroke-linejoin="round"/>
<path d="M181.161 80.584L173.332 89.2858L180.097 93.0544" stroke="#4D1F1F" stroke-width="2.34077" stroke-linecap="round" stroke-linejoin="round"/>
<path d="M175.608 77.0396C174.351 75.8458 172.696 75.0792 170.972 74.8978C169.247 74.7164 167.469 75.1085 165.984 76.0038" stroke="#4D1F1F" stroke-width="2.34077" stroke-linecap="round" stroke-linejoin="round"/>
<path d="M198.286 75.9514C196.789 75.0736 195.006 74.7049 193.287 74.9097C191.568 75.1204 189.919 75.9046 188.68 77.1159" stroke="#4D1F1F" stroke-width="2.34077" stroke-linecap="round" stroke-linejoin="round"/>
<path d="M200.413 69.3712C196.244 68.827 191.807 69.8569 188.416 72.1684L188.234 70.0149L195.858 69.3887" stroke="#4D1F1F" stroke-width="2.34077" stroke-linecap="round" stroke-linejoin="round"/>
<path d="M165.547 69.4952C169.189 68.3365 173.58 69.3196 176.235 71.9003L176.697 69.8931L170.207 69.0738" stroke="#4D1F1F" stroke-width="2.34077" stroke-linecap="round" stroke-linejoin="round"/>
<path d="M180.031 95.6789C185.194 96.744 190.538 96.5742 195.624 95.1932L196.104 95.0645L191.508 102.666C189.994 105.171 186.387 105.253 184.767 102.807L180.031 95.6731V95.6789Z" fill="#4D1F1F" stroke="#4D1F1F" stroke-width="2.34077" stroke-linecap="round" stroke-linejoin="round"/>
<path d="M187.222 57.7304L182.919 59.5269L178.615 57.7304C175.359 56.3727 173.301 53.5931 173.301 50.5501V40.7949H192.536V50.5501C192.536 53.5872 190.478 56.3669 187.222 57.7304Z" fill="#FFE88C"/>
<path d="M185.419 48.1609C186.746 48.1609 187.822 47.2622 187.822 46.1537C187.822 45.0451 186.746 44.1465 185.419 44.1465C184.091 44.1465 183.016 45.0451 183.016 46.1537C183.016 47.2622 184.091 48.1609 185.419 48.1609Z" fill="#FF5C4D"/>
<path d="M192.536 40.793V50.5481C192.536 53.5853 190.478 56.3649 187.222 57.7284L182.919 59.525L178.615 57.7284C175.359 56.3708 173.301 53.5911 173.301 50.5481V40.793" stroke="#4D1F1F" stroke-width="2.34077" stroke-linecap="round" stroke-linejoin="round"/>
<path d="M207.352 70.1966L213.011 64.7134C214.87 62.911 217.975 64.2277 217.975 66.8201V68.9034C217.975 75.2527 214.812 80.8998 209.597 83.9779C209.521 84.0247 209.445 84.0657 209.363 84.1125L207.352 85.2712" fill="#FFBB99"/>
<path d="M170.414 78.6914V80.6811" stroke="#4D1F1F" stroke-width="3.51115" stroke-linecap="round" stroke-linejoin="round"/>
<path d="M193.637 78.584V80.5795" stroke="#4D1F1F" stroke-width="3.51115" stroke-linecap="round" stroke-linejoin="round"/>
</g>
<defs>
<clipPath id="clip0_379_73344">
<rect width="372.4" height="380" fill="white"/>
</clipPath>
</defs>
</svg>
