<svg width="154" height="155" viewBox="0 0 154 155" fill="none" xmlns="http://www.w3.org/2000/svg">
<path d="M71.9476 149.519C32.2836 146.692 2.42072 112.247 5.24691 72.5834C8.07309 32.9195 42.5181 3.05656 82.1821 5.88274C121.846 8.70893 151.709 43.154 148.883 82.8179C146.057 122.482 111.612 152.345 71.9476 149.519Z" fill="#FFE28D"/>
<path d="M56.8362 43.3078L50.7788 94.3563C49.0319 109.077 59.5897 122.414 74.3193 124.089L103.326 127.389C109.344 128.074 114.437 122.985 113.756 116.966L111.007 92.6511L113.747 71.2232C114.061 68.7824 114.061 66.3092 113.749 63.8704L112.092 50.795L56.8395 43.308L56.8362 43.3078Z" fill="#FF5B4D"/>
<path d="M91.258 92.4626L100.647 89.7776C104.325 88.7267 105.832 84.3299 103.569 81.2435L98.9605 74.9583C98.082 73.7589 97.7272 72.2544 97.9646 70.7888C98.3021 68.712 98.9112 66.6479 99.9387 64.8696C101.512 62.1463 104.515 60.306 107.655 60.1441C109.72 60.0353 111.803 60.6558 113.516 61.8149" stroke="#4D1F1F" stroke-width="1.9935" stroke-linecap="round" stroke-linejoin="round"/>
<path d="M90.3337 59.7184C86.3393 57.2768 81.1193 56.968 76.8645 58.9282" stroke="#4D1F1F" stroke-width="1.9935" stroke-linecap="round" stroke-linejoin="round"/>
<path d="M104.961 69.3242L104.736 72.4822" stroke="#4D1F1F" stroke-width="1.9935" stroke-linecap="round" stroke-linejoin="round"/>
<path d="M82.5156 66.6094L82.2901 69.774" stroke="#4D1F1F" stroke-width="1.9935" stroke-linecap="round" stroke-linejoin="round"/>
<path d="M54.6002 63.3938L49.614 57.2845C48.4767 55.8904 46.295 56.0009 45.3354 57.5248C42.854 61.4665 41.9436 66.7335 43.2972 71.0149C45.0009 76.4017 49.9421 80.623 55.5298 81.4632" fill="#FF5B4D"/>
<path d="M102.47 62.048C103.969 60.9317 105.786 60.2403 107.655 60.1441C109.72 60.0354 111.803 60.6557 113.516 61.8147" stroke="#4D1F1F" stroke-width="1.9935" stroke-linecap="round" stroke-linejoin="round"/>
<path d="M50.7751 94.3481L54.2995 64.6658L61.949 65.9621L60.3344 80.8786C60.0328 83.6659 61.0654 86.4353 63.1235 88.3404L70.1581 94.8616C71.7451 96.3342 73.9753 96.8987 76.0713 96.3599L95.3822 91.4002L103.52 96.7102C105.366 97.9154 107.836 97.4465 109.111 95.646L111.036 92.9344L113.752 116.958C114.433 122.977 109.34 128.066 103.323 127.381L74.3155 124.081C59.586 122.406 49.0281 109.069 50.7751 94.3481Z" fill="#4D1F1F" stroke="#4D1F1F" stroke-width="1.9935" stroke-linecap="round" stroke-linejoin="round"/>
<path d="M112.127 50.7821C113.614 49.1728 114.241 46.9505 113.813 44.7992L111.864 35.0604C111.548 33.4756 109.771 32.6675 108.368 33.465L104.355 35.7519L101.214 31.5492C100.425 30.4925 98.9212 30.2822 97.8731 31.0884L93.9982 34.06L91.6312 30.6104C90.8002 29.3978 89.0737 29.2282 88.0234 30.2536L85.4477 32.7659L82.9638 29.5574C82.1635 28.5198 80.6709 28.3336 79.6364 29.1375L76.1668 31.8321L72.9364 28.6036C72.0178 27.6871 70.5358 27.678 69.6071 28.5824L66.5597 31.5564L63.8742 28.7989C62.6943 27.5846 60.6558 27.9679 59.9963 29.5264L56.7556 37.1736C55.9244 39.1354 55.9651 41.3621 56.8648 43.291L112.117 50.7781L112.127 50.7821Z" fill="#4D1F1F" stroke="#4D1F1F" stroke-width="1.9935" stroke-linecap="round" stroke-linejoin="round"/>
<path d="M47.2827 65.634C49.7193 67.4065 51.5396 69.9894 52.3721 72.8609C52.8631 74.5546 53.0085 76.34 52.8141 78.088" stroke="#4D1F1F" stroke-width="1.9935" stroke-linecap="round" stroke-linejoin="round"/>
<path d="M99.9566 100.236C97.2116 100.273 91.8997 100.087 85.3351 98.589C84.367 98.3671 83.6569 99.3769 84.2811 100.086L89.4253 105.937C90.6431 107.321 92.88 107.51 94.3189 106.349L100.467 101.382C100.967 100.979 100.636 100.224 99.9601 100.233L99.9566 100.236Z" fill="#FBFCF9" stroke="#FBFCF9" stroke-width="1.9935" stroke-linecap="round" stroke-linejoin="round"/>
<path d="M54.957 60.4436L62.603 61.7401" stroke="#4D1F1F" stroke-width="1.9935" stroke-linecap="round" stroke-linejoin="round"/>
<path d="M55.4693 56.4551L63.1186 57.7519" stroke="#4D1F1F" stroke-width="1.9935" stroke-linecap="round" stroke-linejoin="round"/>
<path d="M56.0552 52.5957L63.7045 53.8925" stroke="#4D1F1F" stroke-width="1.9935" stroke-linecap="round" stroke-linejoin="round"/>
<path d="M56.6333 48.334L64.2826 49.6308" stroke="#4D1F1F" stroke-width="1.9935" stroke-linecap="round" stroke-linejoin="round"/>
<path d="M43.523 38.5146C41.1942 36.5836 38.8653 34.6526 36.5398 32.7218" stroke="#4D1F1F" stroke-width="1.9935" stroke-linecap="round" stroke-linejoin="round"/>
<path d="M36.4588 49.4906C33.5911 48.8709 30.7198 48.2542 27.8521 47.6344" stroke="#4D1F1F" stroke-width="1.9935" stroke-linecap="round" stroke-linejoin="round"/>
<path d="M51.8984 80.4141C51.1743 89.5502 43.715 96.6907 34.5571 97.0188L12.2258 97.8176" stroke="#4D1F1F" stroke-width="1.9935" stroke-linecap="round" stroke-linejoin="round"/>
<path d="M127.852 116.045L111.335 108.482" stroke="#4D1F1F" stroke-width="1.9935" stroke-linecap="round" stroke-linejoin="round"/>
<path d="M106.784 116.145C107.465 122.163 102.372 127.252 96.3549 126.567" stroke="#FF5B4D" stroke-width="1.9935" stroke-linecap="round" stroke-linejoin="round"/>
<path d="M97.5884 115.078C98.2698 121.097 93.1771 126.186 87.1595 125.501" stroke="#FF5B4D" stroke-width="1.9935" stroke-linecap="round" stroke-linejoin="round"/>
<path d="M88.3384 114.016C89.0198 120.034 83.9271 125.123 77.9095 124.438" stroke="#FF5B4D" stroke-width="1.9935" stroke-linecap="round" stroke-linejoin="round"/>
<path d="M79.1668 112.949C79.7623 118.214 75.9376 122.768 70.9422 123.366" stroke="#FF5B4D" stroke-width="1.9935" stroke-linecap="round" stroke-linejoin="round"/>
</svg>
