<svg width="103" height="104" viewBox="0 0 103 104" fill="none" xmlns="http://www.w3.org/2000/svg">
<path d="M60.2949 94.359C36.8788 99.2169 13.9581 84.1725 9.1002 60.7563C4.2423 37.3402 19.2867 14.4195 42.7029 9.56164C66.119 4.70373 89.0397 19.7482 93.8976 43.1643C98.7555 66.5805 83.7111 89.5011 60.2949 94.359Z" fill="#FF5B4D"/>
<path d="M45.9531 72.6602C46.242 75.7508 44.2565 78.5984 41.2576 79.3977L25.989 83.4675" stroke="#4D1F1F" stroke-width="1.20297" stroke-linecap="round" stroke-linejoin="round"/>
<path d="M38.1863 25.2859C35.5579 26.32 33.2978 28.2755 31.888 30.7369C30.4782 33.1983 29.9276 36.1495 30.3529 38.9653L41.1693 27.7178L38.1844 25.2863L38.1863 25.2859Z" fill="#4D1F1F" stroke="#4D1F1F" stroke-width="1.20297" stroke-linecap="round" stroke-linejoin="round"/>
<path d="M29.5488 51.5972L28.5371 45.6995C27.6866 40.7459 29.7067 35.7385 33.7569 32.7619L36.6638 30.6253L41.0545 27.1199L64.865 30.1288L70.8645 41.1909C77.2207 47.4054 68.8942 53.8108 66.0412 55.7162L66.3543 61.9768C66.5409 65.6934 64.745 69.239 61.6237 71.2652C61.5646 71.304 61.5054 71.3427 61.4439 71.3799C58.0891 73.5076 54.1906 74.6239 50.2179 74.7353L37.2678 75.1003C36.3207 59.3934 29.5468 51.5976 29.5468 51.5976L29.5488 51.5972Z" fill="#FFBB99" stroke="#FFBB99" stroke-width="1.20297" stroke-linecap="round" stroke-linejoin="round"/>
<path d="M43.3573 57.9295C43.7505 58.0088 43.7073 58.586 43.3062 58.6061L37.4879 58.9007L32.5635 55.7393L43.3557 57.9319L43.3573 57.9295Z" fill="#FF5C4D" stroke="#FF5C4D" stroke-width="1.20297" stroke-linecap="round" stroke-linejoin="round"/>
<path d="M51.9533 45.1163C50.6612 44.2379 49.0599 43.8229 47.5044 43.9623C45.9489 44.1017 44.4474 44.796 43.3329 45.8927" stroke="#4D1F1F" stroke-width="1.20297" stroke-linecap="round" stroke-linejoin="round"/>
<path d="M36.6088 41.2869C33.9446 40.2147 30.9156 40.7413 28.7959 42.6472" stroke="#4D1F1F" stroke-width="1.20297" stroke-linecap="round" stroke-linejoin="round"/>
<path d="M51.8098 40.4927C48.9801 38.9662 45.3883 38.9498 42.543 40.4503" stroke="#4D1F1F" stroke-width="1.20297" stroke-linecap="round" stroke-linejoin="round"/>
<path d="M55.2188 53.8281C55.2188 53.8281 54.0798 58.0173 48.9857 58.5732L50.8803 68.9127C57.1843 68.672 55.2188 53.8281 55.2188 53.8281Z" fill="#4D1F1F" stroke="#4D1F1F" stroke-width="1.20297" stroke-linecap="round" stroke-linejoin="round"/>
<path d="M43.6641 68.3594C42.506 68.9418 41.5722 69.9481 41.0872 71.1342C40.6021 72.3203 40.57 73.6772 40.9963 74.8779" stroke="#FF5C4D" stroke-width="1.20297" stroke-linecap="round" stroke-linejoin="round"/>
<path d="M36.9459 24.5714C37.5484 21.1147 40.9285 18.8636 44.3654 19.5762C48.0553 20.3401 51.6872 21.8065 55.0978 23.2658C60.2536 25.4709 65.4803 27.8508 71.073 28.2546C71.073 28.2546 73.7893 35.3199 70.9401 41.259C70.9172 41.2372 70.8983 41.2147 70.8755 41.1929L63.5625 45.8281C62.8471 44.333 62.7163 42.6229 63.1997 41.036L63.4102 40.3427C64.2417 37.6163 62.8813 34.7012 60.2589 33.5854L52.5298 30.2951C51.0085 29.6474 49.2829 29.6837 47.7886 30.3928L37.7422 35.1734C36.5697 31.7896 36.3267 28.105 36.9416 24.5703L36.9459 24.5714Z" fill="#4D1F1F" stroke="#4D1F1F" stroke-width="1.20297" stroke-linecap="round" stroke-linejoin="round"/>
<path d="M68.1641 48.1094L67.6048 48.761C66.4502 50.1064 65.8557 51.8447 65.9443 53.6164L65.9683 54.0758L66.3651 61.9767" stroke="#4D1F1F" stroke-width="1.20297" stroke-linecap="round" stroke-linejoin="round"/>
<path d="M30.9877 46.6061C30.9877 46.6061 34.0017 43.3862 37.655 46.4774L32.5463 55.7384L43.3385 57.931" stroke="#4D1F1F" stroke-width="1.20297" stroke-linecap="round" stroke-linejoin="round"/>
<path d="M51.5841 63.9213C52.2712 62.5019 53.7739 60.5568 55.4922 59.8867C55.356 64.0206 54.4248 68.7696 50.883 68.9056L50.645 67.6109C50.7317 66.3404 51.018 65.0896 51.5841 63.9213Z" fill="#FF5C4D" stroke="#FF5C4D" stroke-width="1.20297" stroke-linecap="round" stroke-linejoin="round"/>
<path d="M55.2188 53.8281C55.2188 53.8281 54.0798 58.0173 48.9857 58.5732L50.8803 68.9127C57.1843 68.672 55.2188 53.8281 55.2188 53.8281Z" stroke="#4D1F1F" stroke-width="1.20297" stroke-linecap="round" stroke-linejoin="round"/>
<path d="M66.0158 55.7205L67.8314 67.3777C68.5111 71.7436 72.0054 75.1284 76.3901 75.6688L83.3621 76.5277" stroke="#4D1F1F" stroke-width="1.20297" stroke-linecap="round" stroke-linejoin="round"/>
<path d="M72.4844 49.0078C71.0186 52.1223 67.6479 54.6443 66.0326 55.7228L66.3457 61.9833C66.5323 65.7 64.7364 69.2455 61.6152 71.2718C61.556 71.3105 61.4968 71.3493 61.4353 71.3865C58.0805 73.5141 54.182 74.6304 50.2093 74.7418L37.2592 75.1068" stroke="#4D1F1F" stroke-width="1.20297" stroke-linecap="round" stroke-linejoin="round"/>
<path d="M42.2498 19.4787C48.5043 18.4887 54.613 22.8626 60.9079 22.1757C57.5847 23.6696 54.0927 24.5957 50.4509 24.4653" fill="#4D1F1F"/>
<path d="M42.2498 19.4787C48.5043 18.4887 54.613 22.8626 60.9079 22.1757C57.5847 23.6696 54.0927 24.5957 50.4509 24.4653" stroke="#4D1F1F" stroke-width="1.20297" stroke-linecap="round" stroke-linejoin="round"/>
<path d="M48.4265 23.3627C52.3646 24.0181 55.9923 26.3672 58.2015 29.6928" stroke="#FF5B4D" stroke-width="1.20297" stroke-linecap="round" stroke-linejoin="round"/>
<path d="M22.4568 45.4032L18.7041 42.628" stroke="#4D1F1F" stroke-width="1.20297" stroke-linecap="round" stroke-linejoin="round"/>
<path d="M24.1797 66.9375L19.7092 69.7729" stroke="#4D1F1F" stroke-width="1.20297" stroke-linecap="round" stroke-linejoin="round"/>
<path d="M41.2227 79.4089C43.4882 78.8045 45.1737 77.0333 45.7389 74.8694L50.1874 74.7448C54.1601 74.6334 58.0567 73.5175 61.4134 71.3894C61.4725 71.3507 61.5321 71.3139 61.5932 71.2747C63.3271 70.1493 64.65 68.5552 65.4531 66.7227L65.4962 67.5976C65.6827 71.3143 63.8868 74.8598 60.7656 76.886C60.7064 76.9248 60.6473 76.9635 60.5857 77.0007C57.231 79.1284 54.3185 79.7265 50.3459 79.8379L41.2208 79.4093L41.2227 79.4089Z" fill="#4D1F1F" stroke="#4D1F1F" stroke-width="1.20297" stroke-linecap="round" stroke-linejoin="round"/>
</svg>
