<svg width="60" height="50" viewBox="0 0 60 50" fill="none" xmlns="http://www.w3.org/2000/svg">
<g clip-path="url(#clip0_379_74963)">
<path d="M43.9568 47.772C56.3346 42.899 62.4943 28.8791 57.7996 16.3662C53.1445 3.95806 39.3394 -2.47342 26.9709 2.02481C16.2523 5.92175 9.9983 16.587 11.0692 27.4234L0.829462 37.4645C0.152593 38.1267 0.59944 39.2855 1.54215 39.3103C5.75043 39.4263 13.9294 39.6509 15.813 39.7022C22.1744 48.2439 33.6095 51.844 43.9568 47.7701V47.772Z" fill="#C4F5F5" stroke="#00BFE6" stroke-width="1.13126" stroke-linecap="round" stroke-linejoin="round"/>
<path d="M28.3379 20.9609L19.4531 22.5742L22.011 36.9212L30.8957 35.3079L28.3379 20.9609Z" fill="#00BFE6" stroke="#00BFE6" stroke-width="1.13126" stroke-linecap="round" stroke-linejoin="round"/>
<path d="M28.3513 21.0082L29.1809 20.8578C30.3687 20.6428 31.3717 19.8417 31.8525 18.7229L33.4589 14.9915C33.6003 14.6623 33.6437 14.297 33.5796 13.943L33.1968 11.7967C33.1082 11.3019 33.4344 10.8281 33.9246 10.7387C35.3971 10.4723 36.8056 11.4599 37.0695 12.9441L37.8689 17.4271C38.0462 18.4184 38.9851 19.0768 39.9655 18.8979L47.0736 17.6078C48.0559 17.429 48.993 18.0873 49.1702 19.0787C49.3474 20.0701 48.6951 21.0158 47.7128 21.1946C48.6951 21.0158 49.6321 21.6741 49.8093 22.6655C49.9866 23.6569 49.3342 24.6025 48.3519 24.7814C49.3342 24.6025 50.2713 25.2609 50.4485 26.2523C50.6257 27.2436 49.9734 28.1893 48.9911 28.3682L43.6591 29.3367L47.2131 28.6917C48.1954 28.5128 49.1325 29.1712 49.3097 30.1625C49.4869 31.1539 48.8346 32.0996 47.8523 32.2785L30.9023 35.3553L28.3438 21.0082H28.3513Z" fill="#FFE28D"/>
<path d="M47.7128 21.1946C48.6951 21.0158 49.3474 20.0701 49.1702 19.0787C48.993 18.0873 48.0559 17.429 47.0736 17.6078L39.9655 18.8979C38.9851 19.0768 38.0462 18.4184 37.8689 17.4271L37.0695 12.9441C36.8056 11.4599 35.3971 10.4723 33.9246 10.7387C33.4344 10.8281 33.1082 11.3019 33.1968 11.7967L33.5796 13.943C33.6437 14.297 33.6003 14.6623 33.4589 14.9915L31.8525 18.7229C31.3717 19.8417 30.3687 20.6428 29.1809 20.8578L28.3513 21.0082H28.3438L30.9023 35.3553L47.8523 32.2785C48.8346 32.0996 49.4869 31.1539 49.3097 30.1625C49.1325 29.1712 48.1954 28.5128 47.2131 28.6917L43.6591 29.3367L48.9911 28.3682C49.9734 28.1893 50.6257 27.2436 50.4485 26.2523C50.2713 25.2609 49.3342 24.6025 48.3519 24.7814M47.7128 21.1946L42.3808 22.1632M47.7128 21.1946C48.6951 21.0158 49.6321 21.6741 49.8093 22.6655C49.9866 23.6569 49.3342 24.6025 48.3519 24.7814M48.3519 24.7814L43.0199 25.7499" stroke="#FFE28D" stroke-width="1.13126" stroke-miterlimit="10"/>
<path d="M37.3516 30.4305L38.1321 21.3789" stroke="#FF5B4D" stroke-width="1.13126" stroke-linecap="round" stroke-linejoin="round"/>
<path d="M37.9306 17.3789L38.221 19.002C38.6396 21.3558 37.8892 23.7666 36.213 25.4544L35.7812 25.8902" stroke="#FF5B4D" stroke-width="1.13126" stroke-linecap="round" stroke-linejoin="round"/>
<path d="M41.6583 18.541C40.676 18.7199 40.0237 19.6675 40.2009 20.6569C40.3781 21.6483 41.3171 22.3067 42.2975 22.1278L48.4987 21.0013" stroke="#FF5B4D" stroke-width="1.13126" stroke-linecap="round" stroke-linejoin="round"/>
<path d="M44.2176 21.8281L42.4396 22.1516C41.4573 22.3305 40.8049 23.2781 40.9822 24.2675C41.1594 25.2589 42.0983 25.9173 43.0788 25.7384L44.8567 25.4149" stroke="#FF5B4D" stroke-width="1.13126" stroke-linecap="round" stroke-linejoin="round"/>
<path d="M49.2089 24.6348L43.0021 25.7612C42.0198 25.9401 41.3674 26.8877 41.5447 27.8771C41.7219 28.8685 42.6608 29.5269 43.6413 29.348L48.5641 28.4537" stroke="#FF5B4D" stroke-width="1.13126" stroke-linecap="round" stroke-linejoin="round"/>
<path d="M45.3269 28.9648L43.549 29.2883C42.5667 29.4672 41.9143 30.4148 42.0915 31.4042C42.2688 32.3956 43.2077 33.054 44.1881 32.8751L45.9661 32.5516" stroke="#FF5B4D" stroke-width="1.13126" stroke-linecap="round" stroke-linejoin="round"/>
<path d="M42.0859 31.4004L42.4065 33.1947L44.1844 32.8713C43.2021 33.0501 42.2651 32.3918 42.0878 31.4004H42.0859Z" stroke="#FF5B4D" stroke-width="1.13126" stroke-linecap="round" stroke-linejoin="round"/>
<path d="M42.2841 22.1672C41.3018 22.346 40.3647 21.6877 40.1875 20.6963L40.8267 24.2831C40.6494 23.2917 41.3018 22.346 42.2841 22.1672Z" stroke="#FF5B4D" stroke-width="1.13126" stroke-linecap="round" stroke-linejoin="round"/>
<path d="M41.5234 27.832L42.1626 31.4188C41.9854 30.4275 42.6377 29.4818 43.62 29.3029C42.6377 29.4818 41.7007 28.8234 41.5234 27.832Z" stroke="#FF5B4D" stroke-width="1.13126" stroke-linecap="round" stroke-linejoin="round"/>
<path d="M40.75 24.2646L41.3892 27.8514C41.2119 26.8601 41.8643 25.9144 42.8466 25.7355C41.8643 25.9144 40.9272 25.256 40.75 24.2646Z" stroke="#FF5B4D" stroke-width="1.13126" stroke-linecap="round" stroke-linejoin="round"/>
<path d="M30.8438 35.3444L47.7938 32.2676" stroke="#FF5B4D" stroke-width="1.13126" stroke-linecap="round" stroke-linejoin="round"/>
<path d="M29.6363 35.5664L21.9531 36.9612" stroke="#4D1F1F" stroke-width="1.13126" stroke-linecap="round" stroke-linejoin="round"/>
</g>
<defs>
<clipPath id="clip0_379_74963">
<rect width="60" height="50" fill="white" transform="translate(0.00390625)"/>
</clipPath>
</defs>
</svg>
