<svg width="32" height="32" viewBox="0 0 32 32" fill="none" xmlns="http://www.w3.org/2000/svg">
<circle cx="16" cy="16" r="15.25" stroke="#4D1F1F" stroke-width="1.5"/>
<path fill-rule="evenodd" clip-rule="evenodd" d="M16 26C21.5228 26 26 21.5228 26 16C26 10.4772 21.5228 6 16 6C10.4772 6 6 10.4772 6 16C6 21.5228 10.4772 26 16 26ZM16.7554 23.9648C18.8714 23.7666 20.748 22.7443 22.0607 21.222L20.2 17.9997L16.7554 23.9648ZM14.506 23.8607L16.3679 20.6364H9.4797C10.6547 22.2858 12.4399 23.4705 14.506 23.8607ZM17.5229 18.6364L19.0452 16L17.5228 13.3636H14.4772L12.9548 16L14.4773 18.6364H17.5229ZM8.72321 12.6714L12.1677 18.6364H8.44457C8.15655 17.8109 8 16.9237 8 16C8 14.8122 8.25885 13.6849 8.72321 12.6714ZM9.93929 10.7779L11.8001 14.0003L15.2447 8.03519C13.1286 8.23334 11.2521 9.25568 9.93929 10.7779ZM22.5203 11.3636H15.6322L17.4941 8.13928C19.5601 8.52957 21.3453 9.71419 22.5203 11.3636ZM23.5554 13.3636H19.8323L23.2768 19.3285C23.7412 18.315 24 17.1877 24 16C24 15.0763 23.8434 14.1891 23.5554 13.3636Z" fill="#4D1F1F"/>
</svg>
