<svg width="150" height="150" viewBox="0 0 150 150" fill="none" xmlns="http://www.w3.org/2000/svg">
<path d="M75 150C116.421 150 150 116.421 150 75C150 33.5786 116.421 0 75 0C33.5786 0 0 33.5786 0 75C0 116.421 33.5786 150 75 150Z" fill="#00BFE6"/>
<path d="M98.0664 126.102L102.384 40.0364L76.0514 25.3438L57.3556 36.4651C44.8491 39.3698 26.0877 56.1796 40.1726 100.596L50.289 102.271L47.7815 117.426L97.1201 125.923C97.4378 125.978 97.7521 126.04 98.0664 126.102Z" fill="#FFBB99"/>
<path d="M112.215 131.688C113.597 126.552 114.067 121.171 113.542 115.876C112.619 106.585 109.069 97.0632 102.803 90.1418C111.97 84.063 119.196 74.0538 118.833 63.157C118.543 54.4637 113.656 46.7823 108.599 39.9368C103.719 33.3297 99.4152 25.3686 92.4108 20.6265C86.4045 16.5648 78.3673 15.5908 71.577 18.1052C71.2178 18.2364 70.8828 18.416 70.5339 18.568C44.2016 22.122 43.7422 45.0278 43.7422 45.0278C47.8143 40.6621 56.9256 35.6852 64.2789 35.25C67.0075 35.0877 69.7706 35.3985 72.3852 36.1929C86.4321 40.4757 90.1727 53.9111 88.1349 66.376L96.3758 63.6923C97.9991 67.5813 96.6867 82.8645 84.795 81.9424L80.184 109.545C78.9752 116.778 83.8382 123.627 91.0638 124.87L97.108 125.91C102.493 126.839 107.622 128.807 112.222 131.674L112.215 131.688Z" fill="#FF5C4D"/>
<path d="M42.0469 48.3168C45.328 45.0845 51.196 45.1916 54.111 48.6587" stroke="#FF5B4D" stroke-width="2.07684" stroke-linecap="round" stroke-linejoin="round"/>
<path d="M53.2074 61.0742L40.1797 63.5955L50.7621 74.5062" stroke="#4D1F1F" stroke-width="2.07684" stroke-linecap="round" stroke-linejoin="round"/>
<path d="M40.1797 100.596L58.2154 103.58C64.149 104.561 70.1379 102.154 73.7367 97.332" stroke="#4D1F1F" stroke-width="2.07684" stroke-linecap="round" stroke-linejoin="round"/>
<path d="M111.506 37.4118C104.532 34.0996 100.018 28.4422 94.7027 23.144C89.6808 18.1394 82.172 15.5283 75.1607 16.8684C58.6339 20.0321 57.3594 36.4655 57.3594 36.4655" stroke="#4D1F1F" stroke-width="2.07684" stroke-linecap="round" stroke-linejoin="round"/>
<path d="M73.7969 38.7505C77.6065 36.1912 82.6423 35.9702 86.7524 38.0804C92.5342 41.0473 95.1971 47.7201 100.008 52.0512C104.64 56.22 111.368 58.016 117.478 56.7104" stroke="#4D1F1F" stroke-width="2.07684" stroke-linecap="round" stroke-linejoin="round"/>
<path d="M90.3472 72.0664C87.5773 74.1318 85.6259 77.2299 84.9766 80.5939" stroke="#4D1F1F" stroke-width="2.07684" stroke-linecap="round" stroke-linejoin="round"/>
<path d="M22.769 87.5L15.7578 89.7653" stroke="#4D1F1F" stroke-width="2.07684" stroke-linecap="round" stroke-linejoin="round"/>
<path d="M27.4871 53.9961L21.6641 49.4102" stroke="#4D1F1F" stroke-width="2.07684" stroke-linecap="round" stroke-linejoin="round"/>
<path d="M62.9922 49.1321C68.4388 46.9566 73.0669 48.7143 76.2858 52.4611" stroke="#FF5B4D" stroke-width="2.07684" stroke-linecap="round" stroke-linejoin="round"/>
<path d="M61.5547 57.3191C63.1676 56.0448 65.3435 55.5096 67.3674 55.8894C69.3879 56.2693 71.2219 57.5573 72.2649 59.3323" stroke="#4D1F1F" stroke-width="2.07684" stroke-linecap="round" stroke-linejoin="round"/>
<path d="M40.1797 53.7644C41.7926 52.4901 43.9685 51.9549 45.9924 52.3347C48.0129 52.7146 49.8469 54.0026 50.8899 55.7776" stroke="#4D1F1F" stroke-width="2.07684" stroke-linecap="round" stroke-linejoin="round"/>
<path d="M112.157 131.659C107.566 128.806 102.455 126.851 97.0874 125.926L31.1046 114.562C25.8996 113.668 20.6083 113.765 15.5 114.811" stroke="#4D1F1F" stroke-width="2.07684" stroke-linecap="round" stroke-linejoin="round"/>
<path d="M96.3523 63.7031C97.9756 67.5921 96.6631 82.8753 84.7717 81.9532L80.1609 109.556C78.9521 116.789 83.815 123.637 91.0403 124.881" stroke="#4D1F1F" stroke-width="2.07684" stroke-linecap="round" stroke-linejoin="round"/>
<path d="M92.6484 100.801C97.5632 108.047 99.3592 117.331 97.5079 125.886" stroke="#4D1F1F" stroke-width="2.07684" stroke-linecap="round" stroke-linejoin="round"/>
<path d="M54.2031 84.7461L54.8075 92.303C54.8939 94.0714 56.8315 96.0988 59.18 95.895C60.9449 95.7431 62.544 94.6965 63.5698 93.2528C64.7579 91.5777 65.4003 89.6125 65.8148 87.6404C65.9357 87.0739 66.1636 85.7719 66.2879 85.0327C62.0018 86.3072 56.828 85.8099 54.2031 84.7461Z" fill="#FF5C4D"/>
<path d="M54.7753 92.2997C54.8617 94.068 56.7993 96.0954 59.1478 95.8917C60.9127 95.7397 62.5118 94.6932 63.5376 93.2495C64.7257 91.5744 65.3681 89.6091 65.7826 87.637C66.235 85.4887 66.8187 81.2923 66.9085 81.282C61.9592 82.0073 57.8699 82.0211 53.1797 80.2734" stroke="#4D1F1F" stroke-width="2.07684" stroke-linecap="round" stroke-linejoin="round"/>
</svg>
