<svg width="576" height="364" viewBox="0 0 576 364" fill="none" xmlns="http://www.w3.org/2000/svg">
<path d="M1 344.115H133.462V34.8477H1" stroke="#C4F5F5" stroke-width="1.76616" stroke-linecap="round" stroke-linejoin="round"/>
<path d="M1 344.115H120.215V48.1016H1" stroke="#C4F5F5" stroke-width="1.76616" stroke-linecap="round" stroke-linejoin="round"/>
<path d="M433.707 317.609C441.019 317.609 446.953 323.547 446.953 330.864V344.118H420.461V330.864C420.461 323.547 426.395 317.609 433.707 317.609Z" fill="#C4F5F5" stroke="#C4F5F5" stroke-width="1.76616" stroke-linecap="round" stroke-linejoin="round"/>
<path d="M133.461 308.77H574.999" stroke="#C4F5F5" stroke-width="1.76616" stroke-linecap="round" stroke-linejoin="round"/>
<path d="M274.607 257.564L230.453 98.5117H354.084L398.238 257.564H274.607Z" fill="#C4F5F5" stroke="#C4F5F5" stroke-width="1.76616" stroke-linecap="round" stroke-linejoin="round"/>
<path d="M389.414 225.753V248.727H283.445L281.586 107.348H356.542" stroke="#FBFCF9" stroke-width="1.76616" stroke-linecap="round" stroke-linejoin="round"/>
<path d="M334.562 107.348L336.421 248.727" stroke="#FBFCF9" stroke-width="1.76616" stroke-linecap="round" stroke-linejoin="round"/>
<path d="M282.516 178.035H376.166" stroke="#FBFCF9" stroke-width="1.76616" stroke-linecap="round" stroke-linejoin="round"/>
<path d="M274.609 257.564L272.75 98.5117" stroke="#FBFCF9" stroke-width="1.76616" stroke-linecap="round" stroke-linejoin="round"/>
<path d="M451.365 257.564L407.211 98.5117H530.842L574.996 257.564H451.365Z" fill="#C4F5F5" stroke="#C4F5F5" stroke-width="1.76616" stroke-linecap="round" stroke-linejoin="round"/>
<path d="M566.172 225.753V248.727H460.203L458.344 107.348H533.299" stroke="#FBFCF9" stroke-width="1.76616" stroke-linecap="round" stroke-linejoin="round"/>
<path d="M511.32 107.348L513.179 248.727" stroke="#FBFCF9" stroke-width="1.76616" stroke-linecap="round" stroke-linejoin="round"/>
<path d="M459.266 178.035H552.92" stroke="#FBFCF9" stroke-width="1.76616" stroke-linecap="round" stroke-linejoin="round"/>
<path d="M451.367 257.564L449.508 98.5117" stroke="#FBFCF9" stroke-width="1.76616" stroke-linecap="round" stroke-linejoin="round"/>
<path d="M1 344.117H575" stroke="#4D1F1F" stroke-width="1.76616" stroke-linecap="round" stroke-linejoin="round"/>
<path d="M261.517 363.003C372.471 363.003 462.417 361.292 462.417 359.181C462.417 357.07 372.471 355.359 261.517 355.359C150.563 355.359 60.6172 357.07 60.6172 359.181C60.6172 361.292 150.563 363.003 261.517 363.003Z" fill="#4D1F1F" stroke="#4D1F1F" stroke-width="1.76616" stroke-linecap="round" stroke-linejoin="round"/>
<path d="M113.543 346.959C115.248 346.954 116.188 344.962 115.146 343.61L114.444 342.7L111.256 335.763C109.45 331.84 110.916 327.183 114.638 325.001L117.491 323.326L135.355 314.724L103.233 306.586C103.233 306.586 99.551 309.153 96.1114 311.552C92.7248 313.916 91.5061 318.356 93.2105 322.12L100.73 338.719C103.008 343.747 108.02 346.972 113.539 346.954L113.543 346.959Z" fill="#FFBB99"/>
<path d="M127.514 355.206L123.209 352.325C121.376 351.097 119.751 349.581 118.405 347.832L115.146 343.608C115.212 343.692 115.27 343.78 115.318 343.869C115.504 344.2 115.583 344.554 115.579 344.903C115.579 344.929 115.579 344.96 115.579 344.987C115.579 345.009 115.575 345.031 115.57 345.053C115.486 346.051 114.687 346.953 113.543 346.957C113.535 346.957 113.526 346.957 113.517 346.957C113.512 346.957 113.508 346.957 113.504 346.957C113.331 346.957 113.159 346.944 112.991 346.939C112.828 346.935 112.665 346.935 112.501 346.922C112.325 346.908 112.148 346.886 111.971 346.864C111.808 346.847 111.649 346.833 111.486 346.811C111.309 346.785 111.137 346.749 110.96 346.714C110.806 346.683 110.647 346.661 110.492 346.63C110.32 346.59 110.148 346.542 109.976 346.497C109.821 346.458 109.671 346.422 109.517 346.378C109.349 346.33 109.181 346.268 109.018 346.21C108.867 346.162 108.717 346.113 108.572 346.06C108.404 345.998 108.245 345.923 108.082 345.857C107.94 345.795 107.795 345.742 107.653 345.676C107.494 345.601 107.34 345.517 107.181 345.437C107.044 345.366 106.903 345.3 106.766 345.229C106.611 345.146 106.466 345.048 106.311 344.96C106.179 344.88 106.042 344.805 105.914 344.721C105.763 344.624 105.622 344.518 105.476 344.421C105.348 344.333 105.22 344.249 105.097 344.156C104.951 344.05 104.814 343.931 104.677 343.816C104.558 343.719 104.439 343.63 104.324 343.533C104.183 343.409 104.05 343.277 103.913 343.149C103.807 343.051 103.697 342.954 103.596 342.853C103.463 342.72 103.335 342.574 103.207 342.437C103.11 342.331 103.008 342.23 102.916 342.124C102.787 341.973 102.668 341.819 102.545 341.664C102.461 341.558 102.368 341.452 102.284 341.342C102.161 341.174 102.046 341.001 101.926 340.829C101.856 340.723 101.776 340.621 101.706 340.515C101.582 340.321 101.467 340.118 101.352 339.919C101.299 339.826 101.238 339.733 101.189 339.641C101.026 339.34 100.871 339.035 100.73 338.722L93.2105 322.123C91.5062 318.359 92.7249 313.918 96.1115 311.555L90.2743 315.641C86.6493 318.469 84.5078 322.821 84.5078 327.455V357.852C84.5078 358.426 84.9715 358.89 85.5455 358.89C86.0135 358.89 86.4241 358.577 86.5478 358.126L89.3118 348.053C89.7313 346.52 91.8108 346.294 92.5482 347.699L94.5086 351.415C96.9327 356.014 101.701 358.89 106.898 358.89H126.401C127.509 358.89 128.41 357.989 128.41 356.88C128.41 356.208 128.074 355.581 127.518 355.21L127.514 355.206Z" fill="#4D1F1F" stroke="#4D1F1F" stroke-width="1.76616" stroke-linecap="round" stroke-linejoin="round"/>
<path d="M114.451 342.705L111.263 335.769C109.457 331.846 110.923 327.189 114.645 325.007L117.497 323.332" stroke="#4D1F1F" stroke-width="1.76616" stroke-linecap="round" stroke-linejoin="round"/>
<path d="M160.715 346.959C162.42 346.954 163.36 344.962 162.318 343.61L161.616 342.7L158.428 335.763C156.622 331.84 158.088 327.183 161.81 325.001L164.663 323.326L182.527 314.724L150.405 306.586C150.405 306.586 146.723 309.153 143.283 311.552C139.897 313.916 138.678 318.356 140.382 322.12L147.902 338.719C150.18 343.747 155.192 346.972 160.711 346.954L160.715 346.959Z" fill="#FFBB99"/>
<path d="M174.685 355.206L170.38 352.325C168.548 351.097 166.923 349.581 165.577 347.832L162.318 343.608C162.384 343.692 162.442 343.78 162.49 343.869C162.676 344.2 162.755 344.554 162.751 344.903C162.751 344.929 162.751 344.96 162.751 344.987C162.751 345.009 162.746 345.031 162.742 345.053C162.658 346.051 161.859 346.953 160.715 346.957C160.706 346.957 160.698 346.957 160.689 346.957C160.684 346.957 160.68 346.957 160.675 346.957C160.503 346.957 160.331 346.944 160.163 346.939C160 346.935 159.837 346.935 159.673 346.922C159.497 346.908 159.32 346.886 159.143 346.864C158.98 346.847 158.821 346.833 158.658 346.811C158.481 346.785 158.309 346.749 158.132 346.714C157.978 346.683 157.819 346.661 157.664 346.63C157.492 346.59 157.32 346.542 157.148 346.497C156.993 346.458 156.843 346.422 156.688 346.378C156.521 346.33 156.353 346.268 156.189 346.21C156.039 346.162 155.889 346.113 155.744 346.06C155.576 345.998 155.417 345.923 155.253 345.857C155.112 345.795 154.966 345.742 154.825 345.676C154.666 345.601 154.512 345.517 154.353 345.437C154.216 345.366 154.074 345.3 153.938 345.229C153.783 345.146 153.637 345.048 153.483 344.96C153.35 344.88 153.214 344.805 153.085 344.721C152.935 344.624 152.794 344.518 152.648 344.421C152.52 344.333 152.392 344.249 152.269 344.156C152.123 344.05 151.986 343.931 151.849 343.816C151.73 343.719 151.611 343.63 151.496 343.533C151.355 343.409 151.222 343.277 151.085 343.149C150.979 343.051 150.869 342.954 150.767 342.853C150.635 342.72 150.507 342.574 150.379 342.437C150.282 342.331 150.18 342.23 150.087 342.124C149.959 341.973 149.84 341.819 149.716 341.664C149.633 341.558 149.54 341.452 149.456 341.342C149.332 341.174 149.218 341.001 149.098 340.829C149.028 340.723 148.948 340.621 148.878 340.515C148.754 340.321 148.639 340.118 148.524 339.919C148.471 339.826 148.41 339.733 148.361 339.641C148.198 339.34 148.043 339.035 147.902 338.722L140.382 322.123C138.678 318.359 139.897 313.918 143.283 311.555L137.446 315.641C133.821 318.469 131.68 322.821 131.68 327.455V357.852C131.68 358.426 132.143 358.89 132.717 358.89C133.185 358.89 133.596 358.577 133.72 358.126L136.484 348.053C136.903 346.52 138.983 346.294 139.72 347.699L141.68 351.415C144.105 356.014 148.873 358.89 154.07 358.89H173.573C174.681 358.89 175.582 357.989 175.582 356.88C175.582 356.208 175.246 355.581 174.69 355.21L174.685 355.206Z" fill="#4D1F1F" stroke="#4D1F1F" stroke-width="1.76616" stroke-linecap="round" stroke-linejoin="round"/>
<path d="M161.615 342.705L158.427 335.769C156.621 331.846 158.087 327.189 161.809 325.007L164.661 323.332" stroke="#4D1F1F" stroke-width="1.76616" stroke-linecap="round" stroke-linejoin="round"/>
<path d="M193.351 270.293L155.202 292.702C147.625 297.151 145.152 307.144 150.124 314.39C152.323 317.593 155.917 320.182 161.728 320.933C166.933 321.605 172.219 320.518 176.842 318.031L243.09 282.337" fill="#FF5C4D"/>
<path d="M193.351 270.293L155.202 292.702C147.625 297.151 145.152 307.144 150.124 314.39C152.323 317.593 155.917 320.182 161.728 320.933C166.933 321.605 172.219 320.518 176.842 318.031L243.09 282.337" stroke="#FF5C4D" stroke-width="1.76616" stroke-linecap="round" stroke-linejoin="round"/>
<path d="M127.838 176.512C125.184 183.66 121.179 190.226 116.035 195.85L103.359 209.714C91.3004 222.902 90.0155 242.704 100.272 257.341C107.403 267.52 119.051 273.582 131.476 273.582H150.634L110.26 296.088C102.242 299.68 98.6874 309.342 102.833 317.087C104.666 320.511 107.955 323.48 113.651 324.863C118.751 326.1 124.124 325.601 128.99 323.635L152.749 309.607L198.749 291.007V231.106" fill="#FF5C4D"/>
<path d="M102.828 317.088C104.661 320.512 107.95 323.481 113.646 324.864C118.746 326.101 124.119 325.602 128.985 323.636L152.744 309.608L198.744 291.008" stroke="#4D1F1F" stroke-width="1.76616" stroke-linecap="round" stroke-linejoin="round"/>
<path d="M162.929 223.093H154.098C143.117 222.917 125.274 219.974 119.565 200.914C118.4 197.022 119 192.829 121.146 189.414C119.596 191.672 117.892 193.823 116.037 195.851L110.814 201.564C110.381 204.104 110.518 206.742 111.278 209.278C118.214 232.442 139.907 236.021 153.25 236.233H174.894L174.148 232.734H166.046L162.929 223.084V223.093Z" fill="#4D1F1F"/>
<path d="M220.462 154.633C216.02 150.524 210.982 148.359 205.852 148.359H172.546H159.353C151.141 148.359 143.074 150.524 135.965 154.633L127.841 176.52C126.269 180.757 124.216 184.791 121.734 188.547C121.712 188.577 121.694 188.608 121.672 188.635C121.496 188.9 121.323 189.161 121.142 189.421C118.997 192.836 118.396 197.025 119.562 200.922C125.266 219.977 143.113 222.924 154.094 223.101H162.925L166.042 232.75H226.154V201.235L220.462 154.638V154.633Z" fill="#00BFE6"/>
<path d="M187.847 221.114C187.847 221.114 170.53 216.422 166.039 232.742L166.079 232.875C166.874 235.393 168.459 237.584 170.596 239.131L198.996 241.728L207.535 227.626L187.838 221.118L187.847 221.114Z" fill="#FFBB99"/>
<path d="M162.398 154.234C166.381 155.661 169.896 158.361 172.307 161.838C174.263 164.666 175.486 167.997 175.839 171.416C176.161 174.536 176.731 177.619 177.362 180.69L183.27 209.474L186.171 212.302C187.248 213.349 187.853 214.789 187.853 216.291V221.111" stroke="#4D1F1F" stroke-width="1.76616" stroke-linecap="round" stroke-linejoin="round"/>
<path d="M166.508 214.854C170.848 210.793 177.33 208.969 183.255 209.472" stroke="#4D1F1F" stroke-width="1.76616" stroke-linecap="round" stroke-linejoin="round"/>
<path d="M209.109 169.328C207.065 173.817 206.16 178.748 206.473 183.674L208.041 208.048C208.041 208.048 203.948 221.122 189.735 221.122H187.836" stroke="#4D1F1F" stroke-width="1.76616" stroke-linecap="round" stroke-linejoin="round"/>
<path d="M209.953 108.516C215.097 110.994 218.183 116.981 218.863 122.654C219.543 128.326 218.046 134.057 215.843 139.327C212.862 146.449 205.572 158.577 205.572 158.577H192.295C187.986 158.577 183.964 156.408 181.597 152.807L178.263 148.358H172.537L167.883 128.888L172.537 108.516H209.953Z" fill="#FFBB99"/>
<path d="M205.698 88.0955C200.917 86.5801 193.221 87.3887 188.735 89.6331L166.507 101.315C153.31 108.251 148.135 124.51 154.886 137.804C151.102 140.804 148.382 145.222 147.031 150.011C151.032 148.915 155.173 148.354 159.355 148.354H172.548L176.23 137.212C173.325 135.436 171.214 131.866 171.391 128.782C171.568 125.698 173.086 122.716 175.484 120.763L181.467 126.697C189.454 103.864 211.853 107.858 216.825 115.726C216.825 115.726 227.06 94.8773 205.707 88.1044L205.698 88.0955Z" fill="#FF5B4D"/>
<path d="M193.995 110.572C192.927 107.391 189.832 105.222 186.582 104.4C183.332 103.578 179.91 103.901 176.585 104.333C173.261 104.771 169.9 105.319 166.571 104.934C163.242 104.55 159.86 103.092 157.992 100.309" stroke="#4D1F1F" stroke-width="1.76616" stroke-linecap="round" stroke-linejoin="round"/>
<path d="M213.547 143.629L210.461 146.147H203.516L213.547 143.629ZM213.547 143.629L208.006 134.457" stroke="#4D1F1F" stroke-width="1.76616" stroke-linecap="round" stroke-linejoin="round"/>
<path d="M191.797 146.303C191.797 146.303 195.515 148.26 203.52 146.148L198.19 155.837C197.303 157.45 194.905 157.18 194.402 155.409L191.797 146.299V146.303Z" fill="#4D1F1F" stroke="#4D1F1F" stroke-width="1.76616" stroke-linecap="round" stroke-linejoin="round"/>
<path d="M198.211 149.398C197.35 148.589 196.194 147.746 194.918 147.043C192.816 146.831 191.805 146.301 191.805 146.301L194.41 155.411C194.918 157.183 197.311 157.452 198.198 155.84L200.265 152.084C199.735 151.103 199.064 150.193 198.211 149.398Z" fill="#FF5C4D" stroke="#4D1F1F" stroke-width="1.76616" stroke-linecap="round" stroke-linejoin="round"/>
<path d="M199.345 128.984C199.093 129.793 198.846 130.602 198.594 131.411" stroke="#4D1F1F" stroke-width="1.76616" stroke-linecap="round" stroke-linejoin="round"/>
<path d="M214.298 128.984C214.046 129.793 213.799 130.602 213.547 131.411" stroke="#4D1F1F" stroke-width="1.76616" stroke-linecap="round" stroke-linejoin="round"/>
<path d="M193.961 125.69C196.822 124.197 200.452 124.286 203.238 125.915" stroke="#FF5C4D" stroke-width="1.76616" stroke-linecap="round" stroke-linejoin="round"/>
<path d="M211.242 125.69C213.278 124.197 215.852 124.286 217.83 125.915" stroke="#FF5C4D" stroke-width="1.76616" stroke-linecap="round" stroke-linejoin="round"/>
<path d="M169.484 94.5429C174.443 95.5547 179.481 93.6107 184.113 91.5784C188.744 89.546 193.597 87.3414 198.635 87.8097C203.249 88.2427 207.567 91.0836 209.792 95.1482C212.018 99.2129 212.08 104.386 209.96 108.509C215.104 110.987 218.191 116.974 218.87 122.647C219.55 128.319 218.054 134.05 215.85 139.32C212.87 146.442 205.58 158.57 205.58 158.57H192.303C187.994 158.57 183.971 156.401 181.605 152.8L178.271 148.351" stroke="#4D1F1F" stroke-width="1.76616" stroke-linecap="round" stroke-linejoin="round"/>
<path d="M176.219 137.205L176.414 136.449C177.178 133.449 177.027 130.29 175.977 127.379" stroke="#4D1F1F" stroke-width="1.76616" stroke-linecap="round" stroke-linejoin="round"/>
<path d="M171.385 128.777C171.209 131.861 173.319 135.431 176.225 137.207L172.542 148.35" stroke="#4D1F1F" stroke-width="1.76616" stroke-linecap="round" stroke-linejoin="round"/>
<path d="M181.599 152.808L178.266 148.359H172.539L179.983 158.428C182.266 161.543 185.264 163.443 188.911 163.443H191.927C195.517 163.443 198.841 161.596 200.753 158.578H192.298C187.988 158.578 183.966 156.409 181.599 152.808Z" fill="#4D1F1F" stroke="#4D1F1F" stroke-width="1.76616" stroke-linecap="round" stroke-linejoin="round"/>
<path d="M147.922 186.668L148.531 187.326C151.383 190.406 153.529 194.068 154.823 198.062L162.917 223.091L166.078 232.868C166.873 235.386 168.458 237.578 170.595 239.124L198.995 241.722" stroke="#4D1F1F" stroke-width="1.76616" stroke-linecap="round" stroke-linejoin="round"/>
<path d="M211.508 274.789H260.96" stroke="#FBFCF9" stroke-width="1.76616" stroke-linecap="round" stroke-linejoin="round"/>
<path d="M150.633 273.591L159.459 269.637" stroke="#4D1F1F" stroke-width="1.76616" stroke-linecap="round" stroke-linejoin="round"/>
<path d="M100.273 257.344C107.404 267.523 119.052 273.585 131.477 273.585H150.635" stroke="#4D1F1F" stroke-width="1.76616" stroke-linecap="round" stroke-linejoin="round"/>
<path d="M196.516 244.302C196.516 219.901 216.283 200.121 240.669 200.121C265.056 200.121 284.823 219.901 284.823 244.302V257.556H196.516V244.302Z" fill="#FF5C4D" stroke="#FF5C4D" stroke-width="1.76616" stroke-linecap="round" stroke-linejoin="round"/>
<path d="M284.823 257.555H196.516V359.171H284.823V257.555Z" fill="#FF5C4D" stroke="#FF5C4D" stroke-width="1.76616" stroke-linecap="round" stroke-linejoin="round"/>
<path d="M426.12 257.555H284.828V359.171H426.12V257.555Z" fill="#4D1F1F" stroke="#4D1F1F" stroke-width="1.76616" stroke-linecap="round" stroke-linejoin="round"/>
<path d="M381.956 200.121H240.664C265.05 200.121 284.818 219.901 284.818 244.302V257.556H426.11V244.302C426.11 219.901 406.343 200.121 381.956 200.121Z" fill="#FF5C4D" stroke="#FF5C4D" stroke-width="1.76616" stroke-linecap="round" stroke-linejoin="round"/>
<path d="M272.195 213.375C280.006 221.345 284.823 232.258 284.823 244.302V257.556H426.116V244.302C426.116 232.258 421.298 221.345 413.488 213.375H272.195Z" fill="#4D1F1F" stroke="#4D1F1F" stroke-width="1.76616" stroke-linecap="round" stroke-linejoin="round"/>
<path d="M298.07 200.121C322.456 200.121 342.224 219.901 342.224 244.302V359.173" stroke="#4D1F1F" stroke-width="1.76616" stroke-linecap="round" stroke-linejoin="round"/>
<path d="M328.977 200.121C353.363 200.121 373.13 219.901 373.13 244.302V359.173" stroke="#4D1F1F" stroke-width="1.76616" stroke-linecap="round" stroke-linejoin="round"/>
<path d="M329.289 213.062C337.281 221.059 342.222 232.105 342.222 244.303V359.174" stroke="#FF5C4D" stroke-width="1.76616" stroke-linecap="round" stroke-linejoin="round"/>
<path d="M360.195 213.062C368.187 221.059 373.128 232.105 373.128 244.303V359.174" stroke="#FF5C4D" stroke-width="1.76616" stroke-linecap="round" stroke-linejoin="round"/>
<path d="M196.516 359.176H426.116" stroke="#4D1F1F" stroke-width="1.76616" stroke-linecap="round" stroke-linejoin="round"/>
<path d="M240.664 200.121C265.05 200.121 284.818 219.901 284.818 244.302V257.556" stroke="#4D1F1F" stroke-width="1.76616" stroke-linecap="round" stroke-linejoin="round"/>
<path d="M368.715 200.121C393.101 200.121 412.869 219.901 412.869 244.302V359.173H399.623V244.302C399.623 219.901 379.855 200.121 355.469 200.121H368.715Z" fill="#FFE28D" stroke="#FF5C4D" stroke-width="1.76616" stroke-linecap="round" stroke-linejoin="round"/>
<path d="M373.812 201.895C394.772 204.439 411.061 222.35 411.061 243.999V357.103" stroke="#FBFCF9" stroke-width="1.76616" stroke-linecap="round" stroke-linejoin="round"/>
<path d="M412.871 250.93H399.625V264.184H412.871V250.93Z" stroke="#FF5C4D" stroke-width="1.76616" stroke-linecap="round" stroke-linejoin="round"/>
<path d="M267.113 199.816C291.5 199.816 311.267 219.596 311.267 243.997V358.868H298.021V243.997C298.021 219.596 278.253 199.816 253.867 199.816H267.113Z" fill="#FFE28D" stroke="#FF5C4D" stroke-width="1.76616" stroke-linecap="round" stroke-linejoin="round"/>
<path d="M272.258 201.895C293.218 204.439 309.506 222.35 309.506 243.999V357.103" stroke="#FBFCF9" stroke-width="1.76616" stroke-linecap="round" stroke-linejoin="round"/>
<path d="M311.316 250.93H298.07V264.184H311.316V250.93Z" stroke="#FF5C4D" stroke-width="1.76616" stroke-linecap="round" stroke-linejoin="round"/>
<path d="M284.828 257.555H426.12" stroke="#FF5C4D" stroke-width="1.76616" stroke-linecap="round" stroke-linejoin="round"/>
<path d="M196.516 359.173V244.302C196.516 219.901 216.283 200.121 240.669 200.121" stroke="#FFE28D" stroke-width="1.76616" stroke-linecap="round" stroke-linejoin="round"/>
<path d="M255.375 359.171V202.633" stroke="#4D1F1F" stroke-width="1.76616" stroke-linecap="round" stroke-linejoin="round"/>
<path d="M225.961 359.171V202.633" stroke="#4D1F1F" stroke-width="1.76616" stroke-linecap="round" stroke-linejoin="round"/>
<path d="M240.664 341.505L228.818 335.581C219.784 331.061 214.172 321.977 214.172 311.873V279.656H267.156V311.873C267.156 321.977 261.544 331.061 252.511 335.581L240.664 341.51V341.505Z" fill="#4D1F1F" stroke="#4D1F1F" stroke-width="1.76616" stroke-linecap="round" stroke-linejoin="round"/>
<path d="M240.672 337.088H236.257C227.223 332.568 214.18 317.555 214.18 307.451V275.234H267.164V307.451C267.164 317.555 261.552 326.639 252.518 331.159L240.672 337.088Z" fill="#FF5C4D" stroke="#FFE28D" stroke-width="1.76616" stroke-linecap="round" stroke-linejoin="round"/>
<path d="M236.242 337.091L224.396 331.167C215.362 326.647 209.75 317.563 209.75 307.459V275.242H262.735V307.459C262.735 317.563 257.123 326.647 248.089 331.167L236.242 337.096V337.091Z" fill="#FFE28D" stroke="#FF5C4D" stroke-width="1.76616" stroke-linecap="round" stroke-linejoin="round"/>
<path d="M243.815 297.006C245.905 297.006 247.599 295.311 247.599 293.22C247.599 291.129 245.905 289.434 243.815 289.434C241.725 289.434 240.031 291.129 240.031 293.22C240.031 295.311 241.725 297.006 243.815 297.006Z" fill="#FFE28D" stroke="#FF5C4D" stroke-width="1.76616" stroke-linecap="round" stroke-linejoin="round"/>
<path d="M236.242 337.087L224.396 331.163C215.362 326.643 209.75 317.559 209.75 307.455V275.238H262.735V307.455C262.735 317.559 257.123 326.643 248.089 331.163L236.242 337.092V337.087ZM217.318 282.806V307.451C217.318 314.67 221.327 321.156 227.778 324.385L236.242 328.618L244.707 324.385C251.157 321.156 255.167 314.665 255.167 307.451V282.806H217.322H217.318Z" fill="#FFE28D" stroke="#FF5C4D" stroke-width="1.76616" stroke-linecap="round" stroke-linejoin="round"/>
<path d="M196.516 257.555H284.823" stroke="#4D1F1F" stroke-width="1.76616" stroke-linecap="round" stroke-linejoin="round"/>
<path d="M279.805 167.478L287.85 162.645" stroke="#FF5B4D" stroke-width="1.76616" stroke-linecap="round" stroke-linejoin="round"/>
<path d="M283 183.084L293.698 182.391" stroke="#4D1F1F" stroke-width="1.76616" stroke-linecap="round" stroke-linejoin="round"/>
<path d="M122.056 151.282L112.016 150.566" stroke="#00BFE6" stroke-width="1.76616" stroke-linecap="round" stroke-linejoin="round"/>
<path d="M123.744 137.184L116.211 130.367" stroke="#FF5B4D" stroke-width="1.76616" stroke-linecap="round" stroke-linejoin="round"/>
<path d="M338.736 10.4388C305.099 -8.99203 262.093 2.53922 242.674 36.1964C225.468 66.0142 232.559 103.197 257.793 124.802L243.257 168.258C241.906 172.296 247.068 175.278 249.889 172.089L280.232 137.764C311.546 148.827 347.271 136.381 364.477 106.564C383.896 72.9064 372.372 29.8741 338.736 10.4432V10.4388Z" fill="#FF5C4D" stroke="#FF5C4D" stroke-width="1.76616" stroke-linecap="round" stroke-linejoin="round"/>
<path d="M291.383 2.0791C282.565 3.63427 274.423 6.77553 267.195 11.1495L289.974 140.423C298.262 142.062 306.987 142.226 315.804 140.671C324.622 139.115 332.764 135.974 339.992 131.6L317.213 2.32651C308.925 0.687395 300.2 0.523926 291.383 2.0791Z" fill="#FFE28D" stroke="#FFE28D" stroke-width="1.76616" stroke-linecap="round" stroke-linejoin="round"/>
<path d="M275.57 13.6484L296.994 135.221" stroke="#FF5C4D" stroke-width="1.76616" stroke-linecap="round" stroke-linejoin="round"/>
<path d="M310.195 7.53125L331.619 129.104" stroke="#FF5C4D" stroke-width="1.76616" stroke-linecap="round" stroke-linejoin="round"/>
<path d="M364.689 80.4448L357.907 41.9454C353.659 42.6965 349.606 39.8557 348.855 35.6055L248.82 53.2558C249.571 57.506 246.732 61.5618 242.484 62.3129L249.266 100.812C253.514 100.061 257.567 102.902 258.318 107.152L358.353 89.502C357.602 85.2517 360.441 81.1959 364.689 80.4448Z" fill="#FFE28D" stroke="#FFE28D" stroke-width="1.76616" stroke-linecap="round" stroke-linejoin="round"/>
<path d="M346.356 43.9788L254.02 60.2703C251.895 60.6452 250.476 62.6732 250.85 64.7998L256.277 95.5961C256.652 97.7228 258.679 99.1428 260.804 98.7678L353.14 82.4764C355.266 82.1014 356.685 80.0734 356.31 77.9468L350.883 47.1505C350.508 45.0239 348.482 43.6039 346.356 43.9788Z" fill="#4D1F1F" stroke="#4D1F1F" stroke-width="1.76616" stroke-linecap="round" stroke-linejoin="round"/>
<path d="M271.339 57.2199L254.028 60.2741C251.903 60.6491 250.483 62.6771 250.858 64.8037L256.285 95.6C256.66 97.7267 258.687 99.1466 260.812 98.7717L278.123 95.7174C280.248 95.3425 281.667 93.3145 281.292 91.1879L275.865 60.3916C275.491 58.265 273.464 56.845 271.339 57.2199Z" fill="#FBFCF9" stroke="#4D1F1F" stroke-width="1.76616" stroke-linecap="round" stroke-linejoin="round"/>
<path d="M296.338 52.8098L279.028 55.864C276.903 56.239 275.483 58.2669 275.858 60.3936L281.285 91.1899C281.66 93.3165 283.687 94.7365 285.812 94.3615L303.122 91.3073C305.248 90.9323 306.667 88.9044 306.292 86.7777L300.865 55.9814C300.491 53.8548 298.464 52.4348 296.338 52.8098Z" fill="#FBFCF9" stroke="#4D1F1F" stroke-width="1.76616" stroke-linecap="round" stroke-linejoin="round"/>
<path d="M321.354 48.3996L304.044 51.4538C301.918 51.8288 300.499 53.8568 300.874 55.9834L306.301 86.7797C306.675 88.9063 308.702 90.3263 310.828 89.9513L328.138 86.8971C330.264 86.5221 331.683 84.4942 331.308 82.3676L325.881 51.5713C325.506 49.4446 323.48 48.0246 321.354 48.3996Z" fill="#FBFCF9" stroke="#4D1F1F" stroke-width="1.76616" stroke-linecap="round" stroke-linejoin="round"/>
<path d="M346.362 43.9817L329.051 47.0359C326.926 47.4109 325.507 49.4388 325.882 51.5655L331.309 82.3617C331.683 84.4884 333.71 85.9084 335.835 85.5334L353.146 82.4792C355.271 82.1042 356.69 80.0762 356.316 77.9496L350.889 47.1533C350.514 45.0267 348.487 43.6067 346.362 43.9817Z" fill="#FBFCF9" stroke="#4D1F1F" stroke-width="1.76616" stroke-linecap="round" stroke-linejoin="round"/>
<path d="M273.477 47.3211L323.582 38.4805" stroke="#FF5C4D" stroke-width="1.76616" stroke-linecap="round" stroke-linejoin="round"/>
<path d="M333.614 95.4609L283.508 104.302" stroke="#FF5C4D" stroke-width="1.76616" stroke-linecap="round" stroke-linejoin="round"/>
<path d="M267.106 83.7716L265.07 72.2227" stroke="#4D1F1F" stroke-width="3.53231" stroke-linecap="round" stroke-linejoin="round"/>
<path d="M260.312 79.0211L271.854 76.9844" stroke="#4D1F1F" stroke-width="3.53231" stroke-linecap="round" stroke-linejoin="round"/>
<path d="M262.727 82.7964L269.447 73.1914" stroke="#4D1F1F" stroke-width="3.53231" stroke-linecap="round" stroke-linejoin="round"/>
<path d="M261.289 74.6367L270.888 81.3611" stroke="#4D1F1F" stroke-width="3.53231" stroke-linecap="round" stroke-linejoin="round"/>
<path d="M292.101 79.358L290.07 67.8047" stroke="#4D1F1F" stroke-width="3.53231" stroke-linecap="round" stroke-linejoin="round"/>
<path d="M285.312 74.6031L296.854 72.5664" stroke="#4D1F1F" stroke-width="3.53231" stroke-linecap="round" stroke-linejoin="round"/>
<path d="M287.727 78.3828L294.447 68.7734" stroke="#4D1F1F" stroke-width="3.53231" stroke-linecap="round" stroke-linejoin="round"/>
<path d="M286.289 70.2188L295.888 76.9475" stroke="#4D1F1F" stroke-width="3.53231" stroke-linecap="round" stroke-linejoin="round"/>
<path d="M317.114 74.9435L315.078 63.3945" stroke="#4D1F1F" stroke-width="3.53231" stroke-linecap="round" stroke-linejoin="round"/>
<path d="M310.328 70.1891L321.87 68.1523" stroke="#4D1F1F" stroke-width="3.53231" stroke-linecap="round" stroke-linejoin="round"/>
<path d="M312.742 73.9682L319.462 64.3633" stroke="#4D1F1F" stroke-width="3.53231" stroke-linecap="round" stroke-linejoin="round"/>
<path d="M311.305 65.8086L320.904 72.5329" stroke="#4D1F1F" stroke-width="3.53231" stroke-linecap="round" stroke-linejoin="round"/>
<path d="M342.098 70.5333L340.062 58.9844" stroke="#4D1F1F" stroke-width="3.53231" stroke-linecap="round" stroke-linejoin="round"/>
<path d="M335.312 65.7829L346.854 63.7461" stroke="#4D1F1F" stroke-width="3.53231" stroke-linecap="round" stroke-linejoin="round"/>
<path d="M337.727 69.5581L344.447 59.9531" stroke="#4D1F1F" stroke-width="3.53231" stroke-linecap="round" stroke-linejoin="round"/>
<path d="M336.289 61.3984L345.888 68.1228" stroke="#4D1F1F" stroke-width="3.53231" stroke-linecap="round" stroke-linejoin="round"/>
<path d="M233.279 69.5705C232.767 90.3577 241.496 110.831 257.807 124.797L243.271 168.253C241.92 172.291 247.082 175.274 249.903 172.084L280.246 137.76C311.56 148.822 347.284 136.377 364.491 106.559C371.684 94.091 374.633 80.3374 373.781 66.9727" stroke="#4D1F1F" stroke-width="1.76616" stroke-linecap="round" stroke-linejoin="round"/>
</svg>
