<svg width="556" height="381" viewBox="0 0 556 381" fill="none" xmlns="http://www.w3.org/2000/svg">
<path d="M156.781 131.731H49.7344V322.533H156.781V131.731Z" fill="#C4F5F5" stroke="#C4F5F5" stroke-width="2.76" stroke-miterlimit="10"/>
<path d="M156.781 131.73V46.8672" stroke="#C4F5F5" stroke-width="2.76" stroke-miterlimit="10"/>
<path d="M49.7344 91.7578H506.266" stroke="#C4F5F5" stroke-width="2.76" stroke-miterlimit="10"/>
<path d="M445.625 322.531V46.8672" stroke="#C4F5F5" stroke-width="2.76" stroke-miterlimit="10"/>
<path d="M338.659 118.371C347.597 107.796 352.293 93.7234 351.507 79.886C350.831 67.961 345.789 53.2896 336.488 45.2397C333.245 42.4289 330.016 39.5398 326.777 36.6369C322.651 25.8868 314.164 16.8185 303.579 12.2752C297.204 9.53815 290.318 8.24795 283.422 8.2203L283.45 8.19727H272.023L272.046 8.2157C265.326 8.30785 258.628 9.60727 252.414 12.2752C241.829 16.8231 233.337 25.8914 229.216 36.6369C225.977 39.5398 222.748 42.4289 219.505 45.2397C210.204 53.2942 205.162 67.9656 204.486 79.886C203.7 93.7188 208.401 107.791 217.334 118.371C198.267 134.853 189.743 158.394 199.813 189.175H356.176C366.245 158.39 357.726 134.848 338.654 118.371H338.659Z" fill="#4D1F1F" stroke="#4D1F1F" stroke-width="2.76" stroke-linecap="round" stroke-linejoin="round"/>
<path d="M260.406 17.5613C260.806 16.2158 261.404 14.9348 262.177 13.7736C263.898 11.1978 266.478 9.24411 269.381 8.32715" stroke="#00BFE6" stroke-width="2.76" stroke-linecap="round" stroke-linejoin="round"/>
<path d="M468.308 215.016L413.135 183.438C406.824 179.826 402.928 173.098 402.928 165.818V144.668C402.928 139.673 401.088 134.858 397.767 131.135L354.596 82.8078C353.869 81.9968 352.7 81.7526 351.711 82.2134C348.349 83.7754 347.332 88.0791 349.641 90.9821L346.334 86.8166C345.621 85.9181 344.393 85.6232 343.349 86.0932L343.326 86.1024C340.041 87.5861 338.947 91.7147 341.063 94.6315L357.443 117.247C358.878 119.228 359.651 121.61 359.651 124.062V133.305C359.651 134.946 358.588 136.457 357.001 136.862C355.405 137.272 353.8 136.554 353.023 135.194L349.103 128.366C347.461 125.504 344.407 123.748 341.108 123.781C339.379 123.795 338.201 125.559 338.772 127.195L345.133 145.35C346.808 150.124 350.147 154.133 354.536 156.639L366.408 163.413C368.336 164.509 369.946 166.09 371.082 167.993L382.674 189.194C376.404 182.95 367.95 178.978 358.662 178.425V178.444L321.466 176.066C311.875 175.494 304.387 167.537 304.387 157.911V140.028H251.597V157.911C251.597 167.537 244.108 175.494 234.517 176.066L196.931 178.467C179.644 179.494 165.131 191.885 161.382 208.823L156.809 229.471C131.293 284.954 138.929 307.481 147.931 325.056L182.694 288.239L192.542 265.767L359.048 255.182V236.06C359.048 236.06 394.413 264.979 424.157 264.979H455.06C469.803 264.979 481.753 253.008 481.753 238.239C481.753 228.646 476.62 219.785 468.303 215.025L468.308 215.016Z" fill="#FFBB99"/>
<path d="M435.405 254.297C421.647 249.316 410.174 239.473 403.146 226.617L401.724 224.019C400.639 228.986 400.22 234.101 400.528 239.178C401.039 247.569 403.527 255.822 407.658 263.135C413.04 264.263 418.606 264.959 424.163 264.959H445.898C440.042 264.959 435.318 260.158 435.405 254.292V254.297Z" fill="#FFE88C"/>
<path d="M478.995 238.23C478.995 251.45 468.258 262.205 455.061 262.205H424.158C399.925 262.205 370.881 241.783 360.37 233.853C358.742 232.622 356.414 233.784 356.414 235.829V252.514" stroke="#FF5C4D" stroke-width="2.76" stroke-linecap="round" stroke-linejoin="round"/>
<path d="M380.602 118.823L394.342 134.204C396.913 137.084 398.33 140.798 398.33 144.664V165.814C398.33 174.73 403.132 183.015 410.856 187.434L466.024 219.012C470.858 221.781 474.405 226.246 476.079 231.416" stroke="#FFE88C" stroke-width="2.76" stroke-linecap="round" stroke-linejoin="round"/>
<path d="M386.19 137.282C382.138 134.108 379.254 129.652 377.354 124.864L376.245 133.504C375.992 135.49 374.304 136.974 372.308 136.974H369.801C368.582 136.974 367.593 135.983 367.593 134.762V131.776V132.992C367.593 135.19 365.812 136.969 363.623 136.969H361.856C360.637 136.969 359.648 135.978 359.648 134.757C359.648 139.89 363.802 144.056 368.931 144.056H379.424C383.159 144.056 386.19 141.019 386.19 137.278V137.282Z" fill="#FF5C4D"/>
<path d="M386.19 137.282L379.906 146.632" stroke="#FF5C4D" stroke-width="2.76" stroke-linecap="round" stroke-linejoin="round"/>
<path d="M401.724 224.019C400.639 228.986 400.22 234.101 400.528 239.178C400.942 245.984 402.658 252.698 405.492 258.895" stroke="#FF5C4D" stroke-width="2.76" stroke-linecap="round" stroke-linejoin="round"/>
<path d="M351.715 82.209C348.353 83.771 347.336 88.0748 349.645 90.9777L367.02 112.847" stroke="#4D1F1F" stroke-width="2.76" stroke-linecap="round" stroke-linejoin="round"/>
<path d="M361.859 136.973H378.212" stroke="#4D1F1F" stroke-width="2.76" stroke-linecap="round" stroke-linejoin="round"/>
<path d="M343.327 86.0967C340.052 87.6081 338.975 91.7413 341.091 94.6673L357.444 117.241C358.879 119.222 359.652 121.605 359.652 124.056" stroke="#4D1F1F" stroke-width="2.76" stroke-linecap="round" stroke-linejoin="round"/>
<path d="M435.407 254.298C435.32 260.164 440.044 264.965 445.9 264.965H446.236" stroke="#FF5C4D" stroke-width="2.76" stroke-linecap="round" stroke-linejoin="round"/>
<path d="M337.68 124.058L345.141 145.346C346.815 150.12 350.155 154.128 354.543 156.635L366.416 163.409C368.343 164.505 369.953 166.086 371.09 167.989L403.147 226.624C410.176 239.479 421.648 249.322 435.407 254.303" stroke="#4D1F1F" stroke-width="2.76" stroke-linecap="round" stroke-linejoin="round"/>
<path d="M362.41 136.973V124.057C362.41 121.007 361.462 118.09 359.678 115.62L343.297 93.0049" stroke="#FF5C4D" stroke-width="2.76" stroke-linecap="round" stroke-linejoin="round"/>
<path d="M436.35 251.698C423.213 246.943 412.283 237.562 405.572 225.291L373.491 166.61L373.464 166.564C372.985 165.767 372.429 165.002 371.794 164.283C371.302 163.726 370.782 163.205 370.244 162.74C369.485 162.085 368.657 161.5 367.787 161.002L355.915 154.229C355.363 153.916 354.82 153.561 354.249 153.151C351.227 150.962 348.978 147.944 347.75 144.428L341.484 126.545" stroke="#FF5C4D" stroke-width="2.76" stroke-linecap="round" stroke-linejoin="round"/>
<path d="M351.797 89.2539L370.464 112.749" stroke="#FF5C4D" stroke-width="2.76" stroke-linecap="round" stroke-linejoin="round"/>
<path d="M384.116 115.849C382.354 113.877 379.833 112.748 377.188 112.748H367.988C366.383 112.748 364.874 113.527 363.94 114.831L360.996 118.955C360.122 120.18 359.648 121.655 359.648 123.162V134.755C359.648 135.976 360.637 136.967 361.856 136.967H363.623C365.817 136.967 367.593 135.184 367.593 132.99V131.774V134.76C367.593 135.981 368.582 136.971 369.801 136.971H372.308C374.304 136.971 375.992 135.483 376.245 133.502L377.354 124.862C379.254 129.65 382.142 134.11 386.19 137.28" stroke="#4D1F1F" stroke-width="2.76" stroke-linecap="round" stroke-linejoin="round"/>
<path d="M372.994 136.973H369.802C368.583 136.973 367.594 135.982 367.594 134.761V123.168C367.594 121.661 368.063 120.186 368.942 118.961L371.886 114.837C372.819 113.528 374.328 112.754 375.933 112.754" stroke="#4D1F1F" stroke-width="2.76" stroke-linecap="round" stroke-linejoin="round"/>
<path d="M203.709 230.361L211.363 226.509L196.938 255.17L203.709 230.361Z" fill="#FF5C4D"/>
<path d="M359.055 255.168V236.046C359.055 236.046 394.415 264.965 424.163 264.965H455.066C469.809 264.965 481.76 252.994 481.76 238.225" stroke="#4D1F1F" stroke-width="2.76" stroke-linecap="round" stroke-linejoin="round"/>
<path d="M305.336 172.789C309.223 177.296 314.849 180.272 321.201 180.65L359.478 183.092C363.774 183.493 367.919 184.737 371.686 186.732" stroke="#FFE88C" stroke-width="2.76" stroke-linecap="round" stroke-linejoin="round"/>
<path d="M148.672 261.019C151.551 251.421 155.632 241.602 160.889 231.612L161.179 231.064L165.885 209.812C169.174 194.961 182.059 183.962 197.216 183.059L234.802 180.659C240.805 180.299 246.155 177.622 250.005 173.53" stroke="#FFE88C" stroke-width="2.76" stroke-linecap="round" stroke-linejoin="round"/>
<path d="M268.171 165.297H287.84C295.462 165.297 301.64 159.109 301.64 151.474V138.894C301.64 136.604 299.786 134.747 297.5 134.747H258.515C256.229 134.747 254.375 136.604 254.375 138.894V151.474C254.375 159.109 260.553 165.297 268.175 165.297H268.171Z" fill="#FF5C4D"/>
<path d="M195.722 258.518C186.118 253.703 175.101 251.726 164.429 252.984C157.745 253.772 151.222 255.832 145.26 258.956C140.398 274.544 138.986 286.612 139.557 296.45C139.681 297.528 139.819 298.593 139.97 299.634C143.991 293.653 149.962 289.335 156.756 287.027C153.798 288.013 150.96 289.358 148.347 291.059C150.964 289.358 153.798 288.013 156.756 287.027C157.073 286.921 157.391 286.815 157.708 286.718C157.722 286.718 157.731 286.709 157.745 286.709C160.988 285.714 164.406 285.17 167.874 285.115C167.92 285.115 167.971 285.115 168.017 285.115C168.417 285.11 168.817 285.115 169.222 285.119C169.323 285.119 169.42 285.119 169.521 285.124C169.976 285.138 170.432 285.156 170.887 285.188C170.887 285.188 170.887 285.188 170.892 285.188C171.352 285.221 171.803 285.262 172.249 285.308C173.275 285.419 174.273 285.571 175.243 285.769C175.708 285.866 176.168 285.967 176.623 286.082C178.44 286.538 182.705 288.229 182.705 288.229L195.539 259.454L195.722 258.518Z" fill="#FFE88C"/>
<path d="M181.234 284.695L193.217 257.343" stroke="#FF5B4D" stroke-width="2.76" stroke-linecap="round" stroke-linejoin="round"/>
<path d="M195.724 258.518C186.12 253.703 175.103 251.726 164.431 252.984C157.747 253.772 151.224 255.827 145.258 258.951" stroke="#FF5B4D" stroke-width="2.76" stroke-linecap="round" stroke-linejoin="round"/>
<path d="M320.082 54.4285C323.293 71.2241 322.976 95.2724 311.163 124.094C308.352 130.951 301.774 135.397 294.52 135.397H249.965C233.165 101.553 232.296 73.3759 235.921 54.4285C239.826 34.0157 257.729 19.584 278.002 19.584C298.274 19.584 316.177 34.0157 320.082 54.4285Z" fill="#FF5C4D"/>
<path d="M320.078 69.2504C316.173 49.3215 298.269 35.2354 277.997 35.2354C257.725 35.2354 239.822 49.3261 235.916 69.2504C234.003 79.0191 233.35 91.299 235.622 105.579C236.758 112.702 245.071 130.125 250.19 140.386C252.61 145.234 257.555 148.303 262.965 148.303H293.048C298.444 148.303 303.38 145.257 305.804 140.428C310.892 130.304 319.112 113.205 320.267 106.21C322.663 91.663 322.015 79.1665 320.073 69.2551L320.078 69.2504Z" fill="#FFBB99"/>
<path d="M262.974 148.298H293.058C298.454 148.298 303.39 145.252 305.814 140.423C310.902 130.3 319.126 113.191 320.276 106.196V92.3818C320.276 92.3818 308.91 120.462 304.991 128.705C301.651 135.728 294.576 140.202 286.811 140.202H269.686C261.921 140.202 254.846 135.728 251.506 128.705C248.829 123.084 234.188 92.3818 234.188 92.3818L235.632 105.574C236.768 112.693 245.08 130.12 250.2 140.382C252.62 145.229 257.565 148.298 262.974 148.298Z" fill="#FF5C4D"/>
<path d="M320.078 69.2504C316.173 49.3215 298.269 35.2354 277.997 35.2354C257.725 35.2354 239.822 49.3261 235.916 69.2504C234.003 79.0191 233.35 91.299 235.622 105.579C236.758 112.702 245.071 130.125 250.19 140.386C252.61 145.234 257.555 148.303 262.965 148.303H293.048C298.444 148.303 303.38 145.257 305.804 140.428C310.892 130.304 319.112 113.205 320.267 106.21C322.663 91.663 322.015 79.1665 320.073 69.2551L320.078 69.2504Z" stroke="#4D1F1F" stroke-width="2.76" stroke-linecap="round" stroke-linejoin="round"/>
<path d="M248.859 59.6037C255.203 56.9449 263.101 57.3781 269.15 60.7188L269.127 58.2029L258.46 57.8895" stroke="#4D1F1F" stroke-width="2.76" stroke-linecap="round" stroke-linejoin="round"/>
<path d="M306.953 59.5693C300.476 56.9198 292.417 57.3667 286.234 60.7166L286.262 58.3851L297.035 57.869" stroke="#4D1F1F" stroke-width="2.76" stroke-linecap="round" stroke-linejoin="round"/>
<path d="M344.632 217.292H336.375C316.894 217.292 298.006 224.006 282.886 236.309L278.001 240.285L273.116 236.309C257.996 224.006 239.108 217.292 219.627 217.292H211.37L191.719 254.98C191.719 281.272 205.643 292.699 205.643 292.699L212.63 322.53H343.381L350.368 292.699C350.368 292.699 364.292 280.023 364.292 254.98L344.641 217.292H344.632Z" fill="#FF5C4D"/>
<path d="M219.618 245.921C239.099 245.921 257.987 254.012 273.107 268.835L277.992 273.627L282.878 268.835C297.998 254.012 316.885 245.921 336.366 245.921H359.555L344.623 217.292H336.366C316.885 217.292 297.998 224.006 282.878 236.309L277.992 240.285L273.107 236.309C257.987 224.006 239.099 217.292 219.618 217.292H211.361L196.43 245.921H219.618Z" fill="#FF5C4D"/>
<path d="M275.492 97.7377C275.492 97.7377 278.846 124.491 289.15 124.491C298.515 124.491 300.397 101.788 300.663 97.6455L275.492 97.7377Z" fill="#4D1F1F" stroke="#4D1F1F" stroke-width="2.76" stroke-linecap="round" stroke-linejoin="round"/>
<path d="M358.431 245.921H336.374C316.893 245.921 298.006 254.012 282.885 268.836L278 273.628L273.115 268.836C257.995 254.012 239.107 245.921 219.626 245.921H196.438" stroke="#4D1F1F" stroke-width="2.76" stroke-linecap="round" stroke-linejoin="round"/>
<path d="M278 240.287V226.481" stroke="#4D1F1F" stroke-width="2.76" stroke-linecap="round" stroke-linejoin="round"/>
<path d="M285.885 45.7388L277.996 48.7708L270.107 45.7388C264.131 43.4441 260.359 38.7487 260.359 33.6156V17.1426H295.632V33.6156C295.632 38.7487 291.86 43.4441 285.885 45.7388Z" fill="#FFE88C"/>
<path d="M282.513 29.5665C284.949 29.5665 286.924 28.0502 286.924 26.1797C286.924 24.3093 284.949 22.793 282.513 22.793C280.077 22.793 278.102 24.3093 278.102 26.1797C278.102 28.0502 280.077 29.5665 282.513 29.5665Z" fill="#FF5C4D"/>
<path d="M295.64 17.1445V33.6176C295.64 38.7507 291.868 43.4461 285.893 45.7408L278.004 48.7728L270.115 45.7408C264.139 43.4461 260.367 38.7507 260.367 33.6176V17.1445" stroke="#4D1F1F" stroke-width="2.76" stroke-linecap="round" stroke-linejoin="round"/>
<path d="M350.36 292.699C350.36 292.699 364.284 280.77 364.284 254.98L344.633 217.292L352.287 221.144" stroke="#4D1F1F" stroke-width="2.76" stroke-linecap="round" stroke-linejoin="round"/>
<path d="M205.627 292.699C205.627 292.699 191.703 280.77 191.703 254.98L211.354 217.292L203.7 221.144" stroke="#4D1F1F" stroke-width="2.76" stroke-linecap="round" stroke-linejoin="round"/>
<path d="M291.038 109.313C288.011 109.829 285.389 111.433 283.218 113.423C282.22 114.336 281.309 115.327 280.453 116.363C282.537 120.907 285.38 124.492 289.152 124.492C294.428 124.492 297.326 117.294 298.899 110.263C296.502 109.147 293.361 108.917 291.033 109.313H291.038Z" fill="#FF5C4D" stroke="#4D1F1F" stroke-width="2.76" stroke-linecap="round" stroke-linejoin="round"/>
<path d="M554 322.531H2" stroke="#4D1F1F" stroke-width="2.76" stroke-linecap="round" stroke-linejoin="round"/>
<path d="M182.706 288.225C185.784 289.616 188.727 291.386 191.74 293.367C192.187 293.657 194.114 295.04 196.354 296.648C201.322 300.224 208.011 300.247 213.006 296.708C217.142 293.777 222.013 290.326 225.642 287.755C229.065 285.331 233.325 284.414 237.437 285.216L263.266 290.248C265.915 290.764 267.825 293.086 267.825 295.791C267.825 298.643 265.276 300.823 262.465 300.371L246.2 297.777L263.919 300.601C266.168 300.961 267.825 302.901 267.825 305.182V306.398C267.825 309.154 265.437 311.305 262.705 311.011L246.2 309.255L263.685 311.117C266.04 311.365 267.829 313.356 267.829 315.729V316.996C267.829 319.655 265.603 321.77 262.949 321.632L246.2 320.738L263.441 321.659C265.902 321.793 267.825 323.825 267.825 326.295V327.124C267.825 329.686 265.75 331.764 263.192 331.764H158.938C154.301 331.764 150.055 329.17 147.939 325.037C147.939 325.037 145.087 319.484 143.68 314.946" fill="#FFBB99"/>
<path d="M241.719 320.514L263.44 321.67" stroke="#4D1F1F" stroke-width="2.76" stroke-linecap="round" stroke-linejoin="round"/>
<path d="M241.719 308.79L263.684 311.131" stroke="#4D1F1F" stroke-width="2.76" stroke-linecap="round" stroke-linejoin="round"/>
<path d="M241.719 297.072L263.159 300.395" stroke="#4D1F1F" stroke-width="2.76" stroke-linecap="round" stroke-linejoin="round"/>
<path d="M267.426 329.009H158.94C158.443 329.009 157.946 328.968 157.454 328.89C154.225 328.369 151.511 326.18 150.117 323.217C148.424 319.619 145.039 311.564 143.461 301.855" stroke="#FF5B4D" stroke-width="2.76" stroke-linecap="round" stroke-linejoin="round"/>
<path d="M262.393 294.782L236.564 289.75C235.887 289.616 235.197 289.552 234.507 289.552C232.272 289.552 230.128 290.234 228.302 291.529L215.666 300.482C212.45 302.758 208.669 303.965 204.727 303.965C200.739 303.965 196.916 302.735 193.673 300.403C190.002 297.763 189.335 297.307 189.216 297.228C187.141 295.86 185.352 294.772 183.71 293.879C178.82 291.215 173.567 290.307 168.01 290.542C162.453 290.773 156.97 292.648 152.43 295.865" stroke="#FFE88C" stroke-width="2.76" stroke-linecap="round" stroke-linejoin="round"/>
<path d="M263.441 321.67C265.902 321.804 267.824 323.836 267.824 326.305V327.135C267.824 329.697 265.75 331.775 263.192 331.775H158.938C154.301 331.775 150.055 329.181 147.939 325.047L146.711 322.532" stroke="#4D1F1F" stroke-width="2.76" stroke-linecap="round" stroke-linejoin="round"/>
<path d="M219.625 248.685C238.319 248.685 256.627 256.541 271.186 270.811L278.004 277.493L284.821 270.811C299.375 256.541 317.688 248.685 336.382 248.685" stroke="#FFE88C" stroke-width="2.76" stroke-linecap="round" stroke-linejoin="round"/>
<path d="M339.072 301.164C332.995 304.606 326.072 306.541 319.094 306.753" stroke="#4D1F1F" stroke-width="2.76" stroke-linecap="round" stroke-linejoin="round"/>
<path d="M219.523 118.667H262.639" stroke="#4D1F1F" stroke-width="4.6" stroke-linecap="round" stroke-linejoin="round"/>
<path d="M229.985 71.0166C223.389 84.5268 219.516 100.949 219.516 118.662H236.352" stroke="#00BFE6" stroke-width="4.6" stroke-linecap="round" stroke-linejoin="round"/>
<path d="M265.562 126.264C269.751 126.264 273.147 122.862 273.147 118.666C273.147 114.469 269.751 111.067 265.562 111.067C261.373 111.067 257.977 114.469 257.977 118.666C257.977 122.862 261.373 126.264 265.562 126.264Z" fill="#4D1F1F" stroke="#4D1F1F" stroke-width="2.76" stroke-linecap="round" stroke-linejoin="round"/>
<path d="M346.91 2L338.607 10.824L345.567 14.3997L335.953 22.9519" stroke="#00BFE6" stroke-width="2.76" stroke-linecap="round" stroke-linejoin="round"/>
<path d="M376.294 30.3115L362.347 33.0578L366.583 39.541L353.883 43.0338" stroke="#00BFE6" stroke-width="2.76" stroke-linecap="round" stroke-linejoin="round"/>
<path d="M183.923 168.879L178.32 162.146" stroke="#FFBB99" stroke-width="2.76" stroke-linecap="round" stroke-linejoin="round"/>
<path d="M165.2 331.287H382.606C383.714 331.287 384.8 331.6 385.743 332.19L418.32 352.585C420.05 353.667 421.103 355.57 421.103 357.612C421.103 360.888 418.453 363.542 415.183 363.542H132.623C129.353 363.542 126.703 360.888 126.703 357.612C126.703 355.566 127.756 353.667 129.486 352.585L162.063 332.19C163.006 331.6 164.092 331.287 165.2 331.287Z" fill="#FBFCF9" stroke="#C4F5F5" stroke-width="2.76" stroke-linecap="round" stroke-linejoin="round"/>
<path d="M415.817 352.612H131.988C128.869 352.612 126.334 355.326 126.757 358.423C126.776 358.556 126.799 358.695 126.826 358.828C127.401 361.611 129.945 363.542 132.783 363.542H415.025C417.859 363.542 420.408 361.611 420.983 358.828C421.01 358.695 421.033 358.556 421.051 358.423C421.475 355.326 418.94 352.612 415.821 352.612H415.817Z" fill="#C4F5F5" stroke="#C4F5F5" stroke-width="2.76" stroke-linecap="round" stroke-linejoin="round"/>
<path d="M421.103 357.658C421.103 360.907 418.472 363.542 415.229 363.542H132.577C129.334 363.542 126.703 360.907 126.703 357.658" stroke="#4D1F1F" stroke-width="2.76" stroke-linecap="round" stroke-linejoin="round"/>
<path d="M132.575 363.542L123.375 368.15H424.427L415.227 363.542H132.575Z" fill="#4D1F1F" stroke="#4D1F1F" stroke-width="2.76" stroke-linecap="round" stroke-linejoin="round"/>
<path d="M104.729 362.181C92.1897 368.208 71.5081 369.959 58.5315 366.102C45.5549 362.241 45.2007 354.228 57.7403 348.201C70.2799 342.174 91.6101 340.423 104.587 344.28C117.563 348.141 117.269 356.154 104.729 362.181Z" fill="#4D1F1F" stroke="#4D1F1F" stroke-width="2.76" stroke-linecap="round" stroke-linejoin="round"/>
<path d="M113.433 343.778C111.763 340.23 104.141 328.024 79.1398 330.738C49.8976 333.917 48.6372 350.953 48.6372 350.953C48.0116 354.607 51.3189 358.03 58.5225 360.173C71.4991 364.034 92.1808 362.279 104.72 356.252C112.798 352.372 115.783 347.662 113.424 343.773L113.433 343.778Z" fill="#00BFE6" stroke="#00BFE6" stroke-width="2.76" stroke-linecap="round" stroke-linejoin="round"/>
<path d="M49.7578 347.059C52.8536 341.175 59.2844 339.004 65.6232 338.746C71.962 338.488 78.2732 340.792 83.347 344.603C88.4208 348.418 92.3676 353.952 95.1138 359.68" stroke="#4D1F1F" stroke-width="2.76" stroke-linecap="round" stroke-linejoin="round"/>
<path d="M71.1248 339.147C71.1248 339.147 61.75 345.382 61.75 360.984" stroke="#4D1F1F" stroke-width="2.76" stroke-linecap="round" stroke-linejoin="round"/>
<path d="M113.424 343.777C115.783 347.666 112.798 352.371 104.72 356.255C92.1808 362.282 71.4991 364.033 58.5225 360.177C51.3189 358.034 48.0116 354.61 48.6372 350.956C48.6372 350.956 48.789 348.934 49.7504 347.058" stroke="#4D1F1F" stroke-width="2.76" stroke-linecap="round" stroke-linejoin="round"/>
<path d="M85.5482 307.524L85.125 296.175" stroke="#00BFE6" stroke-width="2.76" stroke-linecap="round" stroke-linejoin="round"/>
<path d="M63.9127 312.697L57.1875 302.712" stroke="#00BFE6" stroke-width="2.76" stroke-linecap="round" stroke-linejoin="round"/>
<path d="M217.594 26.1818L209.047 17.5605" stroke="#4D1F1F" stroke-width="2.76" stroke-linecap="round" stroke-linejoin="round"/>
<path d="M479.914 378.999C498.968 378.999 514.414 376.42 514.414 373.239C514.414 370.058 498.968 367.479 479.914 367.479C460.86 367.479 445.414 370.058 445.414 373.239C445.414 376.42 460.86 378.999 479.914 378.999Z" fill="#4D1F1F" stroke="#4D1F1F" stroke-width="2.76" stroke-linecap="round" stroke-linejoin="round"/>
<path d="M445.414 290.299V359.73C445.414 365.204 449.255 369.945 454.614 371.019C459.725 372.037 467.646 372.858 479.914 372.858C492.182 372.858 500.103 372.037 505.214 371.019C510.573 369.95 514.414 365.208 514.414 359.73V290.299H445.414Z" fill="#FBFCF9" stroke="#C4F5F5" stroke-width="2.76" stroke-linecap="round" stroke-linejoin="round"/>
<path d="M479.914 296.059C498.968 296.059 514.414 293.48 514.414 290.299C514.414 287.118 498.968 284.539 479.914 284.539C460.86 284.539 445.414 287.118 445.414 290.299C445.414 293.48 460.86 296.059 479.914 296.059Z" fill="#4D1F1F" stroke="#C4F5F5" stroke-width="2.76" stroke-linecap="round" stroke-linejoin="round"/>
<path d="M445.417 304.123V350.201C437.8 350.201 431.617 344.009 431.617 336.378V317.947C431.617 310.316 437.8 304.123 445.417 304.123Z" fill="#FBFCF9" stroke="#C4F5F5" stroke-width="2.76" stroke-linecap="round" stroke-linejoin="round"/>
<path d="M445.412 313.341V340.988C442.873 340.988 440.812 338.924 440.812 336.38V317.949C440.812 315.405 442.873 313.341 445.412 313.341Z" fill="#C4F5F5" stroke="#C4F5F5" stroke-width="2.76" stroke-linecap="round" stroke-linejoin="round"/>
<path d="M478.359 309.502C479.408 309.511 480.452 309.511 481.501 309.502" stroke="#FF5C4D" stroke-width="2.76" stroke-linecap="round" stroke-linejoin="round"/>
<path d="M478.359 318.718C479.408 318.727 480.452 318.727 481.501 318.718" stroke="#FF5C4D" stroke-width="2.76" stroke-linecap="round" stroke-linejoin="round"/>
<path d="M479.93 309.511V318.726" stroke="#FF5C4D" stroke-width="2.76" stroke-linecap="round" stroke-linejoin="round"/>
<path d="M488.231 330.423C488.231 327.732 486.373 325.64 484.082 325.69C481.786 325.741 479.928 327.921 479.928 330.612C479.928 327.921 478.07 325.746 475.774 325.69C473.479 325.64 471.625 327.732 471.625 330.423C471.625 331.805 472.122 333.081 472.913 333.998C475.25 336.832 477.591 339.624 479.933 342.371C482.292 339.601 484.657 336.781 487.017 333.92C487.766 333.012 488.231 331.768 488.231 330.423Z" fill="#FF5C4D" stroke="#FF5C4D" stroke-width="2.76" stroke-linecap="round" stroke-linejoin="round"/>
<path d="M452.32 345.823C454.786 346.196 457.261 346.519 459.736 346.791V348.634" stroke="#FF5C4D" stroke-width="2.76" stroke-linecap="round" stroke-linejoin="round"/>
<path d="M452.32 355.04C454.786 355.413 457.261 355.735 459.736 356.007V354.164" stroke="#FF5C4D" stroke-width="2.76" stroke-linecap="round" stroke-linejoin="round"/>
<path d="M453.875 346.049C453.875 349.122 453.875 352.191 453.875 355.265" stroke="#FF5C4D" stroke-width="2.76" stroke-linecap="round" stroke-linejoin="round"/>
<path d="M453.875 350.657C454.915 350.804 455.954 350.942 456.994 351.076" stroke="#FF5C4D" stroke-width="2.76" stroke-linecap="round" stroke-linejoin="round"/>
<path d="M465.211 356.523V347.308C466.517 349.561 467.824 351.805 469.13 354.03C470.437 351.957 471.748 349.87 473.054 347.768V356.984" stroke="#FF5C4D" stroke-width="2.76" stroke-linecap="round" stroke-linejoin="round"/>
<path d="M463.641 356.396C464.685 356.488 465.729 356.57 466.773 356.644" stroke="#FF5C4D" stroke-width="2.76" stroke-linecap="round" stroke-linejoin="round"/>
<path d="M471.484 356.919C472.529 356.965 473.577 357.006 474.626 357.034" stroke="#FF5C4D" stroke-width="2.76" stroke-linecap="round" stroke-linejoin="round"/>
<path d="M478.555 357.104C479.603 357.114 480.648 357.109 481.697 357.104" stroke="#FF5C4D" stroke-width="2.76" stroke-linecap="round" stroke-linejoin="round"/>
<path d="M485.617 357.026C486.666 356.993 487.71 356.952 488.759 356.901" stroke="#FF5C4D" stroke-width="2.76" stroke-linecap="round" stroke-linejoin="round"/>
<path d="M479.734 357.115C481.045 354.046 482.352 350.959 483.663 347.862C484.969 350.908 486.28 353.94 487.587 356.958" stroke="#FF5C4D" stroke-width="2.76" stroke-linecap="round" stroke-linejoin="round"/>
<path d="M481.297 353.418C482.87 353.404 484.439 353.376 486.007 353.321" stroke="#FF5C4D" stroke-width="2.76" stroke-linecap="round" stroke-linejoin="round"/>
<path d="M492.68 347.458C493.724 347.384 494.768 347.306 495.812 347.214" stroke="#FF5C4D" stroke-width="2.76" stroke-linecap="round" stroke-linejoin="round"/>
<path d="M492.68 356.673C493.724 356.6 494.768 356.522 495.812 356.43" stroke="#FF5C4D" stroke-width="2.76" stroke-linecap="round" stroke-linejoin="round"/>
<path d="M494.25 347.344V356.559" stroke="#FF5C4D" stroke-width="2.76" stroke-linecap="round" stroke-linejoin="round"/>
<path d="M499.727 346.834C500.771 346.724 501.81 346.6 502.85 346.471" stroke="#FF5C4D" stroke-width="2.76" stroke-linecap="round" stroke-linejoin="round"/>
<path d="M499.727 356.05C502.335 355.769 504.934 355.433 507.533 355.041V353.198" stroke="#FF5C4D" stroke-width="2.76" stroke-linecap="round" stroke-linejoin="round"/>
<path d="M501.289 346.659V355.875" stroke="#FF5C4D" stroke-width="2.76" stroke-linecap="round" stroke-linejoin="round"/>
<path d="M489.414 275.654C497.745 272.208 504.157 264.453 505.997 255.615C507.832 246.777 505.04 237.101 498.78 230.608C500.022 237.345 506.917 242.188 513.753 242.146C520.593 242.105 526.968 237.856 530.722 232.133C534.476 226.41 535.874 219.402 535.934 212.55C536.058 197.252 529.581 182.014 518.481 171.508C507.386 160.998 491.829 155.376 476.594 156.362" stroke="#C4F5F5" stroke-width="2.76" stroke-linecap="round" stroke-linejoin="round"/>
<path d="M266.169 68.3617C263.786 65.9149 260.801 64.5464 257.806 64.5372C254.807 64.5279 251.817 65.8734 249.43 68.3064" stroke="#4D1F1F" stroke-width="2.76" stroke-linecap="round" stroke-linejoin="round"/>
<path d="M303.904 68.3617C301.521 65.9149 298.535 64.5464 295.541 64.5372C292.541 64.5279 289.551 65.8734 287.164 68.3064" stroke="#4D1F1F" stroke-width="2.76" stroke-linecap="round" stroke-linejoin="round"/>
<path d="M275.494 70.8545L262.062 77.5036L270.508 89.8296" stroke="#4D1F1F" stroke-width="2.76" stroke-linecap="round" stroke-linejoin="round"/>
<path d="M257.805 67.2061V70.4776" stroke="#4D1F1F" stroke-width="4.6" stroke-linecap="round" stroke-linejoin="round"/>
<path d="M295.539 67.2061V70.4776" stroke="#4D1F1F" stroke-width="4.6" stroke-linecap="round" stroke-linejoin="round"/>
<path d="M221.484 81.7388C229.645 81.0661 236.283 74.4769 239.82 67.0767C243.357 59.6765 244.48 51.4008 246.375 43.42C248.27 35.4392 251.214 27.2741 257.364 21.8553C257.364 21.8553 241.039 19.5099 227.943 48.7743" fill="#4D1F1F"/>
<path d="M221.484 81.7388C229.645 81.0661 236.283 74.4769 239.82 67.0767C243.357 59.6765 244.48 51.4008 246.375 43.42C248.27 35.4392 251.214 27.2741 257.364 21.8553C257.364 21.8553 241.039 19.5099 227.943 48.7743" stroke="#4D1F1F" stroke-width="2.76" stroke-linecap="round" stroke-linejoin="round"/>
<path d="M256.515 22.2148C248.263 20.9523 239.449 24.551 234.421 31.2278C230.557 36.3609 228.984 42.8303 227.816 49.1477C226.647 55.4696 225.755 61.9528 222.967 67.7403C220.18 73.5277 215.046 78.6378 208.68 79.4488" stroke="#00BFE6" stroke-width="2.76" stroke-linecap="round" stroke-linejoin="round"/>
<path d="M299.484 22.2148C307.737 20.9523 316.55 24.551 321.578 31.2278C325.442 36.3609 327.015 42.8303 328.184 49.1477C329.352 55.4696 330.245 61.9528 333.032 67.7403C335.82 73.5277 340.953 78.6378 347.32 79.4488" stroke="#00BFE6" stroke-width="2.76" stroke-linecap="round" stroke-linejoin="round"/>
<path d="M326.097 112.269C323.47 112.269 321.336 110.135 321.336 107.5V69.356C321.336 66.725 323.466 64.5869 326.097 64.5869C335.297 64.5869 342.758 72.0608 342.758 81.2765V95.5792C342.758 104.795 335.297 112.269 326.097 112.269Z" fill="#C4F5F5" stroke="#4D1F1F" stroke-width="2.76" stroke-linecap="round" stroke-linejoin="round"/>
<path d="M330.383 105.836V71.0146" stroke="#4D1F1F" stroke-width="2.76" stroke-linecap="round" stroke-linejoin="round"/>
<path d="M148.344 291.055C154.972 286.751 163.009 284.659 170.893 285.184C174.918 285.452 179.32 286.788 182.701 288.23L192.55 265.758" stroke="#4D1F1F" stroke-width="2.76" stroke-linecap="round" stroke-linejoin="round"/>
</svg>
