<svg width="151" height="102" viewBox="0 0 151 102" fill="none" xmlns="http://www.w3.org/2000/svg">
<path d="M127.913 89.2676L122.648 89.6537L117.384 89.5986L112.119 89.6979L106.854 89.2786L101.59 89.5103L96.3143 89.7089L91.0498 89.5875L85.7852 89.6427L80.5206 89.6758L75.256 89.5765L69.9805 89.5324L64.7269 89.5103L59.4514 89.6096L54.1868 89.2235L48.9222 89.5875L43.6576 89.3779L38.3931 89.2566H33.1175L27.8529 89.6758L22.5884 89.5544L17.3128 89.4662L12.0372 89.3228L6.76162 89.2566L2.85176 87.8886L1.06754 83.9722L1.51907 78.8313L1.21072 73.6793L1.37589 68.5273L1.34288 63.3864L1.2327 58.2454L1.08952 53.1045V47.9525V42.8005L1.51907 37.6596L1.02344 32.5076L1.21072 27.3556L1.26577 22.2147L1.13362 17.0627L1.16662 11.8997V6.74771L2.84073 2.82029L6.76162 1.47438L12.0262 1.40819L17.2907 1.46335L22.5553 1.48541L27.8199 1.07722L33.0845 1.01103L38.349 1.09929L43.6136 1.35303L48.8892 1.47438L54.1538 1.01103L59.4183 1.25374L64.6829 1.49644L69.9474 1.22064L75.212 1.04413L80.4765 1.25374L85.7411 1.3089L91.0167 1.46335L96.2813 1.50748L101.546 1.40819L106.821 1L112.086 1.2758L117.362 1.23167L122.637 1.43025L127.913 1.3089L131.668 2.98577L133.155 6.74771L133.365 11.8997L133.607 17.0406L133.309 22.1926L133.409 27.3336L133.265 32.4745L133.177 37.6265L133.475 42.7674V47.9194L133.574 53.0714L133.376 58.2123L133.442 63.3643L133.695 68.5052L133.331 73.6572L133.431 78.8202L133.276 83.9722L131.977 88.043L127.913 89.2676Z" fill="#FAF9F7"/>
<path d="M127.93 89.3333C126.641 89.565 125.253 89.6091 123.976 89.6091C86.8264 89.5429 49.6881 89.4877 12.5388 89.4215C9.92854 89.4215 7.06496 89.6753 4.60889 88.6052C0.599895 86.8511 0.93035 81.6439 1.07353 78.0475C2.02071 55.1339 1.2057 32.1982 1.15063 9.27353C1.15063 7.46427 1.17266 5.53366 2.18593 4.0333C3.849 1.54005 7.34031 1.28632 10.3361 1.28632C48.7079 1.27528 87.0798 1.26425 125.452 1.24219C127.005 1.24219 128.635 1.25322 130 1.99237C133.007 3.60305 133.393 7.69595 133.393 11.1049C133.426 34.5039 133.448 57.9029 133.481 81.3019C133.481 83.1994 133.448 85.2404 132.379 86.8069C131.366 88.2852 129.725 88.9913 127.93 89.3222V89.3333Z" stroke="#2D274F" stroke-width="1.10321" stroke-linecap="round" stroke-linejoin="round"/>
<path d="M127.744 83.8056L122.667 83.938L117.414 83.9601L112.16 84.0263L106.906 84.0814L101.653 84.1366L96.3883 83.9932L91.1347 83.7836L85.8812 83.8939L80.6276 84.0263H75.3631L70.1205 84.1035L64.8559 84.2028L59.6134 83.8829L54.3488 84.0484L49.0953 83.9932L43.8418 84.0484L38.5772 83.7946L33.3236 84.0925L28.0701 83.7615L22.8055 84.0042L17.541 83.7284L12.0891 84.1807L12.2984 78.8412L12.0891 73.6892L12.5297 68.5373L12.0781 63.3963L12.2874 58.2554L12.1002 53.1144L12.1442 47.9624L12.5407 42.8105L12.1002 37.6695L12.2213 32.5175L12.4746 27.3656L12.2653 22.2246L12.4967 17.0726L12.4195 11.9096L12.4636 6.94519L17.5299 6.74661H22.7834L28.037 6.73558L33.2906 6.62526L38.5441 6.51494L43.7977 6.98932L49.0512 6.54803H54.3158L59.5693 6.82384L64.8229 6.50391L70.0764 6.71351L75.33 6.60319L80.5836 6.97828L85.8371 6.54803L91.1017 6.86796L96.3552 6.64732H101.609L106.873 6.73558H112.127L117.391 6.8459L122.656 6.94519H127.733V11.9096L127.866 17.0506L128.031 22.2025L127.888 27.3435L127.987 32.4844L127.788 37.6364L127.987 42.7774L128.02 47.9293L127.822 53.0813V58.2223L127.678 63.3742L127.843 68.5152L127.799 73.6672L128.108 78.8302L127.744 83.8056Z" fill="#58B8FF"/>
<path d="M127.744 83.7971C126.059 83.8413 117.413 83.9516 117.413 83.9516L12.1875 83.6868C12.1875 83.6868 12.2646 28.2617 12.4628 6.93668C50.9008 5.42529 89.2947 6.87049 127.733 6.93668C127.733 6.93668 128.063 36.4695 128.019 48.7703C127.975 60.3319 128.724 72.2686 127.744 83.7861V83.7971Z" stroke="#2D274F" stroke-width="1.10321" stroke-linecap="round" stroke-linejoin="round"/>
<path d="M9.29769 45.3575L6.67641 48.1817L3.75781 45.3575L6.67641 42.7539L9.29769 45.3575Z" fill="#FAF9F7"/>
<path d="M9.29769 45.3575L6.67641 48.1817L3.75781 45.3575L6.67641 42.7539L9.29769 45.3575Z" stroke="#2D274F" stroke-width="1.10321" stroke-linecap="round" stroke-linejoin="round"/>
<path d="M144.413 100.19C143.246 100.4 142.023 100.466 140.867 100.488C135.833 100.587 130.811 100.676 125.778 100.775C124.467 100.797 123.135 100.819 121.879 100.455C117.793 99.2746 117.132 95.5679 117.11 91.9052C117.077 86.7312 117.044 81.5571 117.022 76.3831C116.956 66.035 116.901 55.698 116.835 45.3499C116.813 41.5438 116.791 37.6826 117.738 33.9868C117.881 33.4352 118.057 32.8616 118.476 32.4644C118.817 32.1445 119.291 31.979 119.742 31.8576C122.947 30.953 126.34 30.964 129.677 30.9751C133.113 30.9971 136.56 31.0082 139.997 31.0302C141.891 31.0302 143.829 31.0523 145.614 31.6701C147.398 32.2879 149.072 33.5897 149.601 35.421C149.832 36.2153 149.832 37.0427 149.832 37.8701C149.887 56.1503 149.931 74.4304 149.986 92.7106C149.986 94.3102 149.975 95.9981 149.171 97.3771C148.191 99.065 146.385 99.8373 144.413 100.19Z" fill="#2D274F"/>
<path d="M144.427 100.301C143.634 100.533 142.819 100.687 142.015 100.742C138.942 100.985 137.279 100.842 134.195 100.886C131.1 100.93 126.607 101.184 123.545 100.753C119.018 100.102 117.157 96.9693 117.08 92.7329C116.97 86.8749 117.036 81.0169 117.003 75.1589L116.86 40.0217C116.849 37.1203 117.069 33.7445 119.459 32.1007C120.935 31.0857 122.84 31.0526 124.624 31.0416C129.889 31.0416 135.154 31.0306 140.418 31.0195C143.337 31.0195 146.685 31.2071 148.491 33.5128C149.802 35.1897 149.868 37.5064 149.868 39.6356C149.912 57.0773 149.956 74.53 150 91.9717C150 93.3838 150 94.829 149.482 96.1419C148.656 98.26 146.652 99.617 144.416 100.279L144.427 100.301Z" stroke="#2D274F" stroke-width="1.10321" stroke-linecap="round" stroke-linejoin="round"/>
<path d="M147.63 90.4598C147.63 90.4598 147.63 90.526 147.63 90.5591C139.535 90.3495 131.44 90.4598 123.356 90.9011C122.64 90.9453 121.098 90.8791 120.052 90.8349C119.435 90.8018 118.962 90.3054 118.962 89.6986C118.962 87.3598 118.973 81.9321 118.962 80.3765C118.951 75.721 119.094 71.3413 119.138 66.8291C119.215 57.7939 119.215 48.7696 119.138 39.7344L147.564 39.8778C147.917 56.7348 147.939 73.6028 147.641 90.4598H147.63Z" fill="#FF5553"/>
<path d="M147.19 90.0692C147.135 90.1134 147.08 90.1575 147.014 90.1906C146.573 90.4443 146.045 90.4554 145.538 90.4664C137.707 90.5547 129.877 90.6539 122.046 90.7422C121.297 90.7422 120.614 90.8746 119.964 90.5105C118.577 89.7383 118.995 86.6383 119.072 85.3917C119.226 82.9867 119.226 81.4422 119.281 79.0261C119.579 66.3282 119.347 53.5862 119.347 40.8772C119.347 40.5463 119.369 40.1602 119.634 39.9506C119.832 39.7961 120.096 39.7851 120.35 39.774C129.403 39.6637 138.467 39.7299 147.521 39.9836C147.675 55.7926 147.829 71.5905 147.983 87.3995C147.983 88.3593 147.917 89.4845 147.19 90.0582V90.0692Z" stroke="#2D274F" stroke-width="1.1694" stroke-linecap="round" stroke-linejoin="round"/>
<path d="M131.219 36.5859L135.624 36.6521" stroke="#FF5553" stroke-width="1.1694" stroke-linecap="round" stroke-linejoin="round"/>
<path d="M133.42 34.9546C133.742 34.9546 134.003 34.6928 134.003 34.3699C134.003 34.0469 133.742 33.7852 133.42 33.7852C133.097 33.7852 132.836 34.0469 132.836 34.3699C132.836 34.6928 133.097 34.9546 133.42 34.9546Z" fill="#2D274F"/>
<path d="M136.962 95.5539L133.966 98.4995L131.422 95.5539L133.966 92.9062L136.962 95.5539Z" fill="#2D274F"/>
<path d="M136.962 95.5539L133.966 98.4995L131.422 95.5539L133.966 92.9062L136.962 95.5539Z" stroke="#FF5553" stroke-width="1.10321" stroke-linecap="round" stroke-linejoin="round"/>
</svg>
