<svg width="320.000000" height="320.000000" viewBox="0 0 320 320" fill="none" xmlns="http://www.w3.org/2000/svg" xmlns:xlink="http://www.w3.org/1999/xlink">
	<desc>
			Created with Pixso.
	</desc>
	<defs>
		<clipPath id="clip29_7010">
			<rect id="Outfit=Blue Jumpsuit" rx="-1.896184" width="316.207611" height="316.207611" transform="translate(1.896184 1.896184)" fill="white" fill-opacity="0"/>
		</clipPath>
		<clipPath id="clip29_7016">
			<rect id="Hair=Straight Long Hair" rx="-1.896184" width="316.207611" height="316.207611" transform="translate(1.896184 1.896184)" fill="white" fill-opacity="0"/>
		</clipPath>
		<clipPath id="clip29_7020">
			<rect id="Eye=Close Eye" rx="-1.896184" width="316.207611" height="316.207611" transform="translate(1.896184 1.896184)" fill="white" fill-opacity="0"/>
		</clipPath>
		<clipPath id="clip29_7024">
			<rect id="Shape=Elips, Color=Pink" rx="-1.896184" width="316.207611" height="316.207611" transform="translate(1.896184 1.896184)" fill="white" fill-opacity="0"/>
		</clipPath>
		<clipPath id="clip29_7028">
			<rect id="Mouth=Open" rx="-1.896184" width="316.207611" height="316.207611" transform="translate(1.896184 1.896184)" fill="white" fill-opacity="0"/>
		</clipPath>
	</defs>
	<rect id="Background=Coral" rx="-1.896184" width="316.207611" height="316.207611" transform="translate(1.896184 1.896184)" fill="#FFFFFF" fill-opacity="0"/>
	<path id="Vector" d="M320 160C320 248.36 248.36 320 160 320C71.63 320 0 248.36 0 160C0 71.63 71.63 0 160 0C248.36 0 320 71.63 320 160Z" fill="#C4F5F5" fill-opacity="1.000000" fill-rule="evenodd"/>
	<path id="Vector" d="M287.59 256.59C258.55 249.42 219.29 240.66 207.58 238.04C204.81 226.55 201.59 211.61 198.4 193.52C191.76 155.82 192.52 136.52 192.52 135.95C192.52 135.95 203.63 130.91 207.61 121.46C209.51 116.91 209.81 112.82 208.9 109.44C207.99 106.07 205.87 103.49 202.87 102.01C197.37 99.28 189.79 105.84 189.75 105.92C189.79 105.35 192.78 69.09 162.75 57.11C145.84 50.4 122.59 55.1 115.99 84.15C103.63 138.64 106.7 159.01 111.59 165.99C117.51 174.37 139.28 177.33 139.31 177.36L134.65 238.08C120.28 241.27 63.54 253.93 36.2 261.33C65.55 297.13 110.11 320 160.02 320C209.93 320 258.32 295.12 287.56 256.62L287.59 256.59Z" fill="#FFBB99" fill-opacity="1.000000" fill-rule="nonzero"/>
	<g opacity="0.200000">
		<path id="Vector" d="M139.35 177.25C139.35 177.25 156.19 179.45 169.16 167.09L169.16 177.74C169.16 177.74 156.87 190.71 137.72 198.3L139.35 177.25Z" fill="#4D1F1F" fill-opacity="1.000000" fill-rule="nonzero"/>
	</g>
	<path id="Vector" d="M119.75 132.65L119.82 132.65C119.82 132.65 119.79 132.65 119.75 132.65Z" fill="#4D1F1F" fill-opacity="1.000000" fill-rule="nonzero"/>
	<path id="Vector" d="M119.75 132.65L119.82 132.65C119.82 132.65 119.78 132.65 119.75 132.65Z" fill="#4D1F1F" fill-opacity="1.000000" fill-rule="nonzero"/>
	<path id="Vector" d="M191.08 116.53C190.89 116.53 190.7 116.53 190.51 116.42C189.71 116.12 189.3 115.17 189.64 114.37C191.61 109.4 196.24 108.27 196.43 108.23C197.26 108.04 198.1 108.57 198.32 109.4C198.51 110.24 197.98 111.07 197.15 111.3C197 111.3 193.93 112.14 192.56 115.55C192.33 116.16 191.73 116.53 191.08 116.53Z" fill="#4D1F1F" fill-opacity="1.000000" fill-rule="nonzero"/>
	<path id="Vector" d="M128.55 135.99C128.55 135.99 128.39 135.99 128.32 135.99C128.32 135.99 121.87 135.08 120.28 134.66C119.56 134.47 119.21 133.9 119.21 133.9C118.87 133.37 118.8 132.73 118.99 132.16L126.8 108.8C127.07 107.96 127.94 107.51 128.77 107.81C129.6 108.08 130.02 108.99 129.76 109.79L122.36 131.89L128.73 132.88C129.6 132.99 130.17 133.83 130.06 134.66C129.95 135.46 129.27 135.99 128.51 135.99L128.55 135.99Z" fill="#4D1F1F" fill-opacity="1.000000" fill-rule="nonzero"/>
	<g clip-path="url(#clip29_7010)">
		<path id="Vector" d="M287.53 256.59C258.52 249.42 219.39 240.7 207.71 238.08C207.71 237.97 207.63 237.82 207.63 237.7C201.48 242.21 170.92 263.41 142.59 260.04C122.49 257.61 130.15 243.28 133.37 238.38C116.92 242.02 62.65 254.2 36.21 261.37C65.57 297.13 110.09 320 160 320C209.91 320 258.33 295.08 287.57 256.59L287.53 256.59Z" fill="#FFFFFF" fill-opacity="1.000000" fill-rule="nonzero"/>
		<path id="Vector" d="M230.08 243.13C223.9 241.72 218.48 240.51 214.19 239.56C196.78 254.58 190.41 286.97 190.41 286.97C149.65 289.7 112.29 281.09 112.29 281.09C111.72 267.21 115.93 252.19 122.3 240.85C118.13 241.8 113.35 242.86 108.16 244.04C97.73 261.03 100.8 276.95 96.55 283.1C96.55 283.1 92.61 286.02 90.98 287.72C90.18 288.56 88.78 294.51 87.15 302.4C108.99 313.59 133.76 319.96 160 319.96C183.13 319.96 205.13 315.03 225 306.15C224.47 302.7 224.05 300.09 223.86 298.91C223.37 295.88 210.14 288.07 210.14 288.07C208.96 271.72 216.51 255.68 223.64 248.4C225.68 246.31 227.92 244.57 230.12 243.05L230.08 243.13Z" fill="#47D3FF" fill-opacity="1.000000" fill-rule="nonzero"/>
		<path id="Vector" d="M108.05 264.21C107.71 264.21 107.37 264.21 107.03 264.14C104.71 263.83 103.46 262.69 102.82 261.82C101.38 259.85 101.72 257.46 101.76 257.19C101.91 256.32 102.63 255.68 103.62 255.79L112.87 256.74C113.36 256.78 113.82 257.04 114.08 257.46C114.35 257.88 114.46 258.37 114.35 258.86C113.89 260.8 111.96 264.25 108.02 264.25L108.05 264.21ZM105.36 259.39C105.36 259.39 105.51 259.7 105.59 259.81C105.96 260.3 106.57 260.61 107.48 260.76C108.73 260.95 109.53 260.49 110.1 259.89L105.36 259.39Z" fill="#4D1F1F" fill-opacity="1.000000" fill-rule="nonzero"/>
		<path id="Vector" d="M204.25 271.07C203.8 271.07 203.34 271.07 202.85 270.96C200.53 270.62 198.75 269.6 197.61 268C195.83 265.5 196.32 262.54 196.4 262.2C196.55 261.33 197.35 260.68 198.26 260.84L210.77 262.31C211.27 262.39 211.72 262.62 211.99 263.04C212.25 263.45 212.37 263.95 212.21 264.44C211.57 266.87 209.14 271.11 204.25 271.11L204.25 271.07ZM199.78 264.44C199.85 264.97 200.04 265.54 200.42 266.07C200.99 266.87 202.01 267.4 203.38 267.62C205.88 268 207.32 266.68 208.12 265.42L199.81 264.44L199.78 264.44Z" fill="#4D1F1F" fill-opacity="1.000000" fill-rule="nonzero"/>
	</g>
	<g clip-path="url(#clip29_7016)">
		<path id="Vector" d="M220.01 146.52C248.09 197.08 277.7 209.02 275.55 255.02C245.66 248.45 205.13 240.31 205.13 240.31C205.13 240.31 191.01 173.51 192.54 137.02C192.54 137.02 199.94 132.5 204.68 126.77C205.86 125.32 207.09 123.7 207.96 121.95C207.96 121.95 212.69 133.25 220.05 146.52L220.01 146.52Z" fill="#4D1F1F" fill-opacity="1.000000" fill-rule="nonzero"/>
		<path id="Vector" d="M208.75 92.98C210.07 82.82 207.04 69.2 201.48 65.52C201.48 65.52 200.39 59.82 190.53 52.02C171.6 37.04 152.72 43.57 143.74 47.12C113.18 56.98 111.39 95.37 111.32 102.52C111.32 102.89 111.77 103.02 111.98 102.72C118.78 92.82 129.73 75.9 145.8 73.23C145.8 73.23 145.8 90.36 153.03 102.93C163.57 121.24 175.12 127.81 178.61 121.24C184.18 110.77 189.08 105.6 196.4 102.93C200.47 101.44 203.02 102.27 205.47 104.11C205.47 104.11 208.1 98.24 208.8 92.89L208.75 92.98Z" fill="#4D1F1F" fill-opacity="1.000000" fill-rule="nonzero"/>
	</g>
	<g clip-path="url(#clip29_7020)">
		<path id="Vector" d="M125.05 107.43C124.52 107.43 124.03 107.16 123.73 106.67C123.19 105.79 122.59 105.26 121.91 105.15C120.92 104.96 119.75 105.64 119.4 105.91C118.72 106.44 117.77 106.33 117.24 105.64C116.71 105 116.82 104.01 117.47 103.48C117.7 103.29 119.86 101.66 122.4 102.08C123.5 102.27 125.05 102.95 126.3 105.04C126.76 105.76 126.5 106.7 125.78 107.16C125.51 107.31 125.25 107.39 124.98 107.39L125.05 107.43Z" fill="#4D1F1F" fill-opacity="1.000000" fill-rule="nonzero"/>
		<path id="Vector" d="M150.66 110.8C150.16 110.8 149.67 110.57 149.41 110.12C149.37 110.08 148.34 108.64 146.86 108.41C145.99 108.26 145.16 108.52 144.21 109.21C143.53 109.7 142.58 109.55 142.09 108.87C141.59 108.18 141.75 107.2 142.42 106.7C144.06 105.53 145.77 105.11 147.43 105.41C150.16 105.91 151.79 108.14 151.94 108.41C152.44 109.09 152.25 110.08 151.53 110.53C151.27 110.72 150.96 110.8 150.66 110.8Z" fill="#4D1F1F" fill-opacity="1.000000" fill-rule="nonzero"/>
	</g>
	<g clip-path="url(#clip29_7024)">
		<path id="Vector" d="M118.02 115.79C117.57 118.12 113.8 119.36 109.6 118.54C105.41 117.73 102.38 115.18 102.83 112.85C103.28 110.51 107.05 109.28 111.24 110.09C115.44 110.91 118.47 113.46 118.02 115.79Z" fill="#FF88A2" fill-opacity="1.000000" fill-rule="evenodd"/>
		<path id="Vector" d="M157.32 120.54C157.32 123.02 153.77 125.03 149.4 125.03C145.03 125.03 141.48 123.02 141.48 120.54C141.48 118.06 145.03 116.05 149.4 116.05C153.77 116.05 157.32 118.06 157.32 120.54Z" fill="#FF88A2" fill-opacity="1.000000" fill-rule="evenodd"/>
	</g>
	<g clip-path="url(#clip29_7028)">
		<path id="Vector" d="M133.06 143.79C134.01 147.24 137.35 150.92 141.33 148.87C144.89 147.05 143.68 142.73 143.26 141.63C143.26 141.55 143.15 141.51 143.03 141.59C137.57 144.89 130.44 143.52 130.44 143.52L133.02 143.79L133.06 143.79Z" fill="#4D1F1F" fill-opacity="1.000000" fill-rule="nonzero"/>
		<path id="Vector" d="M144.02 144.09C143.71 146.06 142.84 148 140.6 148.57C139.35 148.87 138.17 148.79 137.11 148.38C139.12 143.6 143.82 144.05 143.98 144.09L144.02 144.09Z" fill="#DD2C52" fill-opacity="1.000000" fill-rule="nonzero"/>
		<path id="Vector" d="M139.01 150.99C138.17 150.99 137.34 150.8 136.51 150.46C134.53 149.59 132.79 147.62 131.88 145.23C130.89 145.15 130.25 145.04 130.17 145C129.34 144.85 128.81 144.05 128.96 143.22C129.11 142.38 129.91 141.81 130.74 142C130.82 142 137.38 143.18 142.27 140.26L142.88 139.88C142.88 139.88 143.41 139.54 143.67 139.65C143.94 139.77 144.2 140.07 144.32 140.34C144.39 140.53 144.62 140.9 144.7 141.09C145.95 144.05 145.72 148.34 142 150.23C141.02 150.73 140 150.99 139.01 150.99ZM135.33 145.27C135.98 146.37 136.85 147.2 137.76 147.62C138.71 148.03 139.62 148 140.6 147.47C142.19 146.63 142.35 145 142.19 143.71C139.84 144.73 137.38 145.15 135.33 145.27Z" fill="#4D1F1F" fill-opacity="1.000000" fill-rule="nonzero"/>
	</g>
</svg>
