<svg width="136" height="122" viewBox="0 0 136 122" fill="none" xmlns="http://www.w3.org/2000/svg">
<path d="M40.4173 120.995L23.541 108.517C10.6729 98.9987 7.43708 83.8605 15.091 69L38.8723 22.832L134.417 39.6696L110.636 85.8376C102.982 100.698 85.9829 112.273 66.2711 116.048L40.4173 121V120.995Z" fill="#4D1F1F" stroke="#4D1F1F" stroke-width="1.97711" stroke-linecap="round" stroke-linejoin="round"/>
<path d="M124.852 17.832L11.9133 61.717C10.0764 65.285 8.87058 68.8717 8.2724 72.3927L3.60938 73.8662L9.93977 88.2748C11.9792 93.1891 17.0567 97.8963 21.9458 101.511L38.8222 113.99L63.0934 108.76C82.8052 104.985 99.804 93.4104 107.458 78.5545L131.239 32.3817L124.852 17.832Z" fill="#FF5C4D" stroke="#FF5C4D" stroke-width="1.97711" stroke-linecap="round" stroke-linejoin="round"/>
<path d="M30.8314 99.1634L13.955 86.6848C1.08699 77.1669 -2.14885 62.0285 5.50508 47.168L29.2864 1L124.831 17.8376L101.05 64.0055C93.3958 78.8661 76.397 90.4411 56.6852 94.2162L30.8314 99.1682V99.1634Z" fill="#FFE28D" stroke="#FF5C4D" stroke-width="1.97711" stroke-linecap="round" stroke-linejoin="round"/>
<path d="M84.7214 44.72C83.1388 47.7938 78.7961 49.752 75.0281 49.0836C71.26 48.4199 69.489 45.3885 71.0716 42.3147C72.6541 39.241 76.9969 37.2828 80.7649 37.9512C84.533 38.6149 86.304 41.6463 84.7214 44.72Z" fill="#FF5C4D" stroke="#FF5C4D" stroke-width="1.97711" stroke-linecap="round" stroke-linejoin="round"/>
<path d="M83.1668 40.8724C81.5842 43.9462 77.2415 45.9044 73.4734 45.2359C69.7053 44.5675 67.9343 41.5409 69.5169 38.4671C71.0995 35.3933 75.4422 33.4351 79.2103 34.1035C82.9784 34.7672 84.7494 37.7986 83.1668 40.8724Z" fill="#FFE28D" stroke="#FF5C4D" stroke-width="1.97711" stroke-linecap="round" stroke-linejoin="round"/>
<path d="M70.9458 41.7266C70.5879 41.0064 70.6397 40.1591 71.0966 39.2742C72.1375 37.2548 74.9778 35.7344 77.7096 35.7344C78.1241 35.7344 78.5292 35.7672 78.9154 35.8378C80.2813 36.0779 81.3176 36.7275 81.7603 37.6124" stroke="#FBFCF9" stroke-width="1.97711" stroke-linecap="round" stroke-linejoin="round"/>
<path d="M30.8314 99.1634L13.955 86.6848C1.08699 77.1669 -2.14885 62.0285 5.50508 47.168L29.2864 1L124.831 17.8376L101.05 64.0055C93.3958 78.8661 76.397 90.4411 56.6852 94.2162L30.8314 99.1682V99.1634ZM37.1947 14.5379L19.1503 49.5733C13.6818 60.1879 15.9992 71.0003 25.1887 77.7974L37.2418 86.713L55.7101 83.1778C69.7934 80.4806 81.9361 72.2149 87.3998 61.6002L105.444 26.5647L37.1947 14.5379Z" fill="#FFE28D" stroke="#FF5C4D" stroke-width="1.97711" stroke-linecap="round" stroke-linejoin="round"/>
<path d="M3.59804 67.5207C2.53356 61.3449 3.65458 54.6323 7.08354 47.9717L30.2714 2.95703L122.18 19.1545M15.6183 67.9725C17.0972 72.2608 19.961 76.1205 24.1483 79.2178L36.8232 88.5898L56.0499 84.9089C70.6512 82.1129 83.2696 73.4892 88.9782 62.4085L108.12 25.2455" stroke="#FBFCF9" stroke-width="1.97711" stroke-linecap="round" stroke-linejoin="round"/>
<path d="M20.705 53.4256L38.7494 18.3903L103.749 29.8429L105.44 26.5619L37.1904 14.5352L19.146 49.5705C15.4061 56.8289 15.3119 64.1816 18.5619 70.2774C17.0641 65.0525 17.7282 59.2108 20.705 53.421V53.4256Z" fill="#FF5C4D" stroke="#FF5C4D" stroke-width="1.97711" stroke-linecap="round" stroke-linejoin="round"/>
<path d="M9.9375 88.2913C11.977 93.2055 17.0545 97.9128 21.9436 101.528L38.8199 114.007L63.0911 108.777C82.8029 105.002 99.8017 93.4268 107.456 78.571L131.237 32.3984" stroke="#4D1F1F" stroke-width="1.97711" stroke-linecap="round" stroke-linejoin="round"/>
</svg>
