<svg width="739" height="586" viewBox="0 0 739 586" fill="none" xmlns="http://www.w3.org/2000/svg">
<g clip-path="url(#clip0_379_78962)">
<path d="M829.801 388.374C828.903 370.217 815.622 355.059 797.738 351.768L793.719 351.029C790.744 350.482 788.509 348.018 788.241 345.013L787.107 332.096C785.712 316.18 772.821 303.721 756.86 302.861L745.262 302.237C742.351 302.085 739.949 304.472 740.083 307.381L740.497 316.129C740.714 320.668 737.459 324.634 732.962 325.315L732.733 325.347C722.772 326.856 715.46 335.489 715.612 345.567C715.644 347.604 713.778 349.157 711.765 348.82L705.199 347.731C701.804 347.171 699.046 344.701 698.11 341.391L696.868 336.985C695.645 332.65 692.556 329.078 688.448 327.232L654.003 311.774L633.366 344.249L624.169 336.227L612.443 340.066C604.546 342.657 598.609 349.234 596.851 357.357L594.202 369.606L580.043 370.797L576.011 356.008C573.999 348.629 568.521 342.689 561.33 340.085L555.993 338.15L552.572 320.076C550.471 308.941 539.796 301.314 528.662 303.428C518.605 305.338 511.567 314.359 512.089 324.501L512.261 327.919L497.249 334.629L497.026 332.083C495.631 316.167 482.74 303.708 466.778 302.849L455.18 302.225C452.269 302.072 449.868 304.459 450.002 307.369L450.416 316.116C450.632 320.655 447.378 324.622 442.881 325.303L442.652 325.335C435.397 326.436 429.55 331.313 426.964 337.774L423.703 337.698C417.289 337.552 411.793 333.07 410.366 326.818L407.615 314.792L399.048 318.287C395.895 319.573 393.086 321.464 390.736 323.794L363.921 311.762L339.438 350.291L306.267 306.789L265.905 338.15L262.485 320.076C260.383 308.941 249.708 301.308 238.575 303.428C228.518 305.338 221.479 314.359 222.002 324.501L222.174 346.789L210.168 351.252C209.671 351.437 208.588 351.927 208.098 352.124C206.295 352.837 204.244 351.895 203.69 350.011L198.531 332.579C198.028 330.88 196.365 329.797 194.608 330.027L165.978 333.706C164.175 333.936 162.831 335.47 162.831 337.284V348.693C162.831 350.978 160.736 352.672 158.5 352.22C157.717 352.061 156.927 351.946 156.124 351.863L140.915 350.354L137.214 333.324C134.953 322.915 125.036 316.014 114.482 317.504H114.47C104.75 318.873 96.5591 325.767 93.9987 335.241C93.7057 336.317 93.4893 337.412 93.3364 338.538C92.795 342.549 93.3046 346.636 94.6039 350.469L97.4764 358.943C99.5847 365.162 97.1261 372.019 91.5402 375.482L78.5406 383.548C69.0059 389.463 61.6302 398.554 58.6876 409.377L58.1908 411.815C57.6939 414.234 55.5475 415.953 53.0762 415.909L45.5096 415.775C40.4843 415.686 36.4398 419.818 36.5735 424.841C37.9875 476.434 59.3818 494.934 69.2096 500.728C71.9484 502.345 75.3177 502.453 78.1648 501.033L90.8268 494.743C92.2472 494.037 93.9287 494.998 94.0433 496.577L98.5464 558.693C98.6292 559.846 99.5782 560.737 100.731 560.756L127.546 561.233C128.769 561.252 129.775 560.272 129.775 559.043C129.775 557.127 128.807 555.332 127.202 554.281L120.953 550.181C120.24 549.717 119.858 548.889 119.966 548.042L125.125 506.776C125.457 504.121 129.335 504.197 129.558 506.865L133.832 557.942C133.928 559.082 134.87 559.96 136.01 559.986L161.137 560.431C162.366 560.45 163.385 559.476 163.405 558.241L163.443 556.198C163.468 554.708 162.895 553.275 161.844 552.219L157.538 547.883C157.08 547.425 156.851 546.782 156.901 546.139L159.386 515.173C159.608 512.429 163.627 512.448 163.831 515.192L167.08 559.903C167.162 561.055 168.111 561.946 169.264 561.965L197.098 562.22V562.462L261.587 563.608C261.803 563.608 262.02 563.583 262.224 563.532L286.013 557.178C286.822 556.962 287.446 556.331 287.656 555.523L291.057 542.287C291.649 539.982 294.923 539.97 295.528 542.268L298.987 555.351C299.248 556.35 300.146 557.051 301.178 557.07L328.126 557.547L350.215 557.942C351.457 557.961 352.495 557 352.565 555.758L354.38 522.367C354.52 519.814 358.087 519.343 358.883 521.768L371.01 558.598C371.252 559.343 371.858 559.909 372.615 560.107L383.297 562.933C383.475 562.978 383.66 563.01 383.844 563.01L408.678 563.449C409.952 563.474 411.009 562.456 411.028 561.182V561.1L417.595 561.214C418.786 561.233 419.818 560.317 419.863 559.12C419.933 557.191 418.984 555.376 417.379 554.32L410.844 550.035L410.831 550.003L414.837 531.057C415.608 527.409 417.888 524.321 420.958 522.526L423.92 557.929C424.015 559.069 424.958 559.947 426.098 559.973L434.085 560.113C434.499 560.597 435.104 560.915 435.798 560.928L457.83 561.323C458.225 561.704 458.753 561.946 459.346 561.959L487.179 562.214V562.456L551.668 563.602C551.884 563.602 552.101 563.576 552.305 563.525L576.094 557.172C576.903 556.955 577.527 556.325 577.737 555.516L581.138 542.281C581.731 539.976 585.005 539.963 585.61 542.262L589.068 555.344C589.329 556.344 590.227 557.044 591.259 557.063L618.208 557.541L640.296 557.936C641.538 557.955 642.576 556.993 642.646 555.752L644.462 522.36C644.602 519.808 648.169 519.336 648.965 521.762L661.092 558.591C661.334 559.336 661.939 559.903 662.697 560.1L673.378 562.927C673.556 562.971 673.741 563.003 673.926 563.003L698.759 563.442C700.033 563.468 701.091 562.449 701.11 561.176V560.686C701.122 560.406 701.078 560.126 700.982 559.858L699.842 556.707C699.696 556.306 699.664 555.867 699.753 555.446L704.906 531.05C706.09 525.448 710.816 521.144 716.542 520.871C723.007 520.552 728.568 525.187 729.498 531.496L732.23 550.048C732.37 551.003 731.905 551.939 731.064 552.403L724.81 555.867C724.09 556.268 723.632 557.019 723.619 557.846L723.606 558.572C723.581 559.846 724.6 560.902 725.874 560.921L754.777 561.437C756.019 561.456 757.057 560.495 757.127 559.253L759.076 523.825C759.146 522.583 760.185 521.622 761.427 521.641L767.796 521.756C768.93 521.775 769.885 522.615 770.044 523.742L773.362 547.215C773.483 548.055 773.127 548.895 772.439 549.405L761.758 557.235C761.261 557.605 760.872 558.127 760.764 558.738C760.497 560.228 761.669 561.52 763.114 561.469L797.12 560.31C798.349 560.266 799.33 559.273 799.355 558.044L799.98 523.131C799.999 521.902 800.986 520.903 802.215 520.864L833.972 519.839C835.265 519.795 836.272 518.706 836.208 517.414L829.807 388.361L829.801 388.374Z" fill="#DAF8F7"/>
<path d="M444.491 567.563C655.55 567.563 826.647 565.115 826.647 562.095C826.647 559.074 655.55 556.626 444.491 556.626C233.433 556.626 62.3359 559.074 62.3359 562.095C62.3359 565.115 233.433 567.563 444.491 567.563Z" fill="#DAF8F7"/>
<path d="M482.514 134.671C487.24 129.087 489.724 121.664 489.31 114.368C488.953 108.078 486.284 100.337 481.367 96.0906C479.654 94.6072 477.947 93.0857 476.234 91.5514C474.055 85.879 469.565 81.0978 463.966 78.6977C460.597 77.2526 456.954 76.5714 453.304 76.5586L453.317 76.5459H447.273H447.285C443.731 76.6032 440.19 77.2908 436.903 78.6977C431.305 81.0978 426.821 85.879 424.636 91.5514C422.923 93.0857 421.216 94.6072 419.503 96.0906C414.586 100.337 411.917 108.078 411.56 114.368C411.146 121.671 413.63 129.094 418.356 134.671C408.274 143.367 403.764 155.788 409.095 172.028H491.774C497.099 155.788 492.596 143.367 482.514 134.671Z" fill="#4D1F1F" stroke="#4D1F1F" stroke-width="2.54626" stroke-linecap="round" stroke-linejoin="round"/>
<path d="M440.308 585.001C524.939 585.001 593.546 583.368 593.546 581.353C593.546 579.338 524.939 577.705 440.308 577.705C355.677 577.705 287.07 579.338 287.07 581.353C287.07 583.368 355.677 585.001 440.308 585.001Z" fill="#4D1F1F"/>
<path d="M486.104 260.403L493.709 275.154C501.492 290.255 506.448 306.648 508.333 323.532L516.479 396.503L534.651 525.886H510.301L486.334 450.28C483.085 440.03 480.901 429.474 479.811 418.779L477.487 395.911L453.697 325.098C452.647 321.966 448.207 321.966 447.156 325.098L423.367 395.911L421.042 418.779C419.953 429.474 417.769 440.03 414.52 450.28L390.553 525.886H366.203L384.375 396.503L392.521 323.532C394.406 306.648 399.361 290.255 407.145 275.154L414.75 260.403H486.111H486.104Z" fill="#00BFE6"/>
<path d="M508.342 323.527L450.433 263.957L392.523 323.527" stroke="#4D1F1F" stroke-width="2.54626" stroke-linecap="round" stroke-linejoin="round"/>
<path d="M534.651 525.88H510.301L486.334 450.273C483.085 440.023 480.901 429.468 479.811 418.772L477.487 395.904L453.697 325.091C452.647 321.959 448.207 321.959 447.156 325.091L423.367 395.904L421.042 418.772C419.953 429.468 417.769 440.023 414.52 450.273L390.553 525.88H366.203" stroke="#4D1F1F" stroke-width="2.54626" stroke-linecap="round" stroke-linejoin="round"/>
<path d="M514.375 195.988L511.961 185.121C509.98 176.201 502.324 169.682 493.203 169.141L471.917 167.874C466.853 167.575 462.905 163.386 462.905 158.318V148.902L450.434 152.149L437.962 148.902V158.318C437.962 163.386 434.014 167.575 428.95 167.874L409.849 169.141C400.728 169.682 393.072 176.208 391.091 185.121L389.225 195.988C389.225 195.988 373.576 214.508 370.429 237.904C363.57 238.019 352.513 240.832 346.698 243.589C343.927 244.907 341.22 246.569 338.246 247.052C335.271 247.536 331.844 246.511 330.328 243.57C329.08 241.144 329.392 238.025 328.265 235.523C327.258 233.282 325.036 231.958 322.838 231.932H318.711L325.615 260.727H375.588L377.244 259.072C390.021 246.339 400.307 231.334 407.588 214.832H493.273L512.241 239.483C512.699 240.113 512.795 240.934 512.496 241.647L511.305 244.499C510.585 246.212 508.413 246.74 506.993 245.544L502.419 241.692C500.604 240.164 498.139 239.642 495.859 240.31L486.815 242.959L484.936 248.383V261.816C484.936 263.248 486.095 264.407 487.528 264.407H530.412C543.323 230.232 514.381 195.988 514.381 195.988H514.375Z" fill="#FFBB99"/>
<path d="M493.822 253.015L484.898 253.747" stroke="#4D1F1F" stroke-width="2.54626" stroke-linecap="round" stroke-linejoin="round"/>
<path d="M493.822 246.846L484.898 248.31" stroke="#4D1F1F" stroke-width="2.54626" stroke-linecap="round" stroke-linejoin="round"/>
<path d="M493.822 240.676L484.898 242.866" stroke="#4D1F1F" stroke-width="2.54626" stroke-linecap="round" stroke-linejoin="round"/>
<path d="M484.915 244.377H415.93V260.407H484.915V244.377Z" fill="#4D1F1F"/>
<path d="M485.584 188.966H481.228C470.948 188.966 460.986 192.499 453.005 198.98L450.426 201.075L447.846 198.98C439.866 192.506 429.904 188.966 419.624 188.966H415.268L404.898 208.81C404.898 218.092 412.242 226.241 412.242 226.241L415.93 244.379H484.915L488.603 226.241C488.603 226.241 495.947 218.092 495.947 208.81L485.578 188.966H485.584Z" fill="#FF5C4D"/>
<path d="M419.634 204.036C429.914 204.036 439.875 208.296 447.856 216.101L450.436 218.622L453.015 216.101C460.996 208.296 470.957 204.036 481.237 204.036H493.473L485.594 188.961H481.237C470.957 188.961 460.996 192.494 453.015 198.975L450.436 201.07L447.856 198.975C439.875 192.501 429.914 188.961 419.634 188.961H415.277L407.398 204.036H419.634Z" fill="#FF5C4D"/>
<path d="M493.473 204.036H481.237C470.957 204.036 460.996 208.295 453.015 216.1L450.436 218.621L447.856 216.1C439.875 208.295 429.914 204.036 419.634 204.036H407.398" stroke="#4D1F1F" stroke-width="2.54626" stroke-linecap="round" stroke-linejoin="round"/>
<path d="M450.438 201.073V193.809" stroke="#4D1F1F" stroke-width="2.54626" stroke-linecap="round" stroke-linejoin="round"/>
<path d="M454.634 261.853L450.437 263.947L446.239 261.853C443.061 260.261 441.055 257.014 441.055 253.468V242.072H459.818V253.468C459.818 257.02 457.812 260.267 454.634 261.853Z" fill="#FFE88C"/>
<path d="M452.836 250.663C454.131 250.663 455.18 249.614 455.18 248.32C455.18 247.026 454.131 245.978 452.836 245.978C451.542 245.978 450.492 247.026 450.492 248.32C450.492 249.614 451.542 250.663 452.836 250.663Z" fill="#FF5C4D"/>
<path d="M459.818 242.073V253.469C459.818 257.021 457.812 260.268 454.634 261.853L450.437 263.948L446.239 261.853C443.061 260.262 441.055 257.015 441.055 253.469V242.073" stroke="#4D1F1F" stroke-width="2.54626" stroke-linecap="round" stroke-linejoin="round"/>
<path d="M452.211 69.7864V59.8994" stroke="#4D1F1F" stroke-width="2.54626" stroke-linecap="round" stroke-linejoin="round"/>
<path d="M492.531 91.3937L497.792 87.1797" stroke="#4D1F1F" stroke-width="2.54626" stroke-linecap="round" stroke-linejoin="round"/>
<path d="M520.006 215.646C513.955 216.143 508.121 218.867 503.828 223.152L512.255 234.745C512.713 235.375 512.809 236.197 512.509 236.91L511.376 239.622C513.414 234.968 517.917 231.816 523.038 231.734C526.961 231.67 530.77 233.516 533.547 236.311C532.993 229.283 531.273 222.573 529.076 216.544C526.14 215.722 523.057 215.398 520.012 215.646H520.006Z" fill="#FFE88C"/>
<path d="M529.062 216.544C526.125 215.722 523.043 215.398 519.998 215.646C513.947 216.143 508.113 218.867 503.82 223.152" stroke="#FF5B4D" stroke-width="2.54626" stroke-linecap="round" stroke-linejoin="round"/>
<path d="M511.352 238.891C513.39 234.238 517.893 231.086 523.014 231.004C526.937 230.94 530.746 232.786 533.523 235.581C534.116 243.144 533.364 251.083 530.396 258.939H486.053C484.62 258.939 483.461 257.78 483.461 256.348" stroke="#4D1F1F" stroke-width="2.54626" stroke-linecap="round" stroke-linejoin="round"/>
<path d="M412.242 226.236C412.242 226.236 404.898 218.087 404.898 208.805L415.268 188.961L411.472 191.234" stroke="#4D1F1F" stroke-width="2.54626" stroke-linecap="round" stroke-linejoin="round"/>
<path d="M512.232 235.48L495.57 212.542" stroke="#4D1F1F" stroke-width="2.54626" stroke-linecap="round" stroke-linejoin="round"/>
<path d="M488.604 226.234C488.604 226.234 495.947 218.085 495.947 208.803L485.578 188.959L489.374 191.232" stroke="#4D1F1F" stroke-width="2.54626" stroke-linecap="round" stroke-linejoin="round"/>
<path d="M388.699 223.393C384.546 221.254 379.859 220.178 375.19 220.242C373.063 225.596 371.286 231.568 370.432 237.902C370.203 237.902 369.954 237.921 369.719 237.928C374.298 238.303 378.782 239.78 382.667 242.225C384.706 243.511 386.565 245.064 388.215 246.815C389.145 245.65 390.056 244.472 390.948 243.282C391.005 243.205 391.062 243.129 391.12 243.046C391.935 241.951 392.737 240.843 393.527 239.723C393.61 239.602 393.693 239.487 393.775 239.366C395.476 236.928 397.107 234.445 398.654 231.905C396.043 228.353 392.623 225.399 388.706 223.381L388.699 223.393Z" fill="#FFE88C"/>
<path d="M398.638 231.924C396.026 228.372 392.606 225.418 388.689 223.4C384.536 221.261 379.848 220.178 375.18 220.242" stroke="#FF5C4D" stroke-width="2.54626" stroke-linecap="round" stroke-linejoin="round"/>
<path d="M370.422 238.004C374.753 238.469 378.982 239.914 382.664 242.238C384.702 243.524 386.562 245.077 388.211 246.828" stroke="#4D1F1F" stroke-width="2.54626" stroke-linecap="round" stroke-linejoin="round"/>
<path d="M493.721 275.158L491.18 204.046H469.289V273.165C469.289 295.409 475.824 315.406 490.753 325.357L509.982 338.172L508.352 323.542C506.466 306.659 501.511 290.265 493.728 275.164L493.721 275.158Z" fill="#4D1F1F" stroke="#4D1F1F" stroke-width="2.54626" stroke-linecap="round" stroke-linejoin="round"/>
<path d="M469.312 204.035L481.503 273.154C485.427 295.398 498.229 315.395 514.91 325.346L536.795 338.39H544.094L543.234 333.526L554.074 325.339C567.246 315.389 572.991 295.392 569.068 273.148L556.877 204.028H469.312V204.035Z" fill="#FF5C4D" stroke="#FF5B4D" stroke-width="2.54626" stroke-linecap="round" stroke-linejoin="round"/>
<path d="M544.099 338.389L522.215 325.344C505.534 315.393 492.731 295.397 488.808 273.153L476.617 204.033H564.182L576.372 273.153C580.296 295.397 574.551 315.393 561.379 325.344L544.099 338.389Z" fill="#FFE88C" stroke="#FFE680" stroke-width="2.54626" stroke-linecap="round" stroke-linejoin="round"/>
<path d="M492.062 220.707L501.317 273.153C504.12 289.043 513.266 303.323 525.183 310.434L540.813 319.755L553.156 310.434C562.564 303.33 566.672 289.043 563.869 273.153L554.615 220.707H492.069H492.062Z" stroke="#FF5B4D" stroke-width="2.54626" stroke-linecap="round" stroke-linejoin="round"/>
<path d="M534.009 245.714C533.194 241.112 535.34 237.381 538.792 237.381C542.244 237.381 545.703 241.112 546.518 245.714C547.333 250.317 545.187 254.048 541.735 254.048C538.283 254.048 534.824 250.317 534.009 245.714Z" fill="#FF5C4D" stroke="#FF5B4D" stroke-width="2.54626" stroke-linecap="round" stroke-linejoin="round"/>
<path d="M443.125 322.742H457.723" stroke="#4D1F1F" stroke-width="2.54626" stroke-linecap="round" stroke-linejoin="round"/>
<path d="M416.187 444.749H366.176V540.575C366.176 546.693 363.316 552.454 358.444 556.153L333.508 575.087C333.508 578.544 336.31 581.345 339.769 581.345H389.303V550.888C389.303 548.023 389.672 545.165 390.404 542.396L416.181 444.742L416.187 444.749Z" fill="#4D1F1F" stroke="#4D1F1F" stroke-width="2.54626" stroke-linecap="round" stroke-linejoin="round"/>
<path d="M544.055 338.392L561.334 325.347C574.506 315.396 580.251 295.4 576.328 273.156L564.137 204.036" stroke="#FF5B4D" stroke-width="2.54626" stroke-linecap="round" stroke-linejoin="round"/>
<path d="M484.688 444.749H534.699V540.575C534.699 546.693 537.559 552.454 542.431 556.153L567.367 575.087C567.367 578.544 564.564 581.345 561.106 581.345H511.572V550.888C511.572 548.023 511.203 545.165 510.47 542.396L484.694 444.742L484.688 444.749Z" fill="#4D1F1F" stroke="#4D1F1F" stroke-width="2.54626" stroke-linecap="round" stroke-linejoin="round"/>
<path d="M469.289 204.036L481.48 273.156C485.403 295.4 498.205 315.396 514.886 325.347L536.771 338.392H544.07L561.35 325.347" stroke="#4D1F1F" stroke-width="2.54626" stroke-linecap="round" stroke-linejoin="round"/>
<path d="M369.117 525.884L377.595 444.751L411.473 462.551" stroke="#FF5B4D" stroke-width="2.54626" stroke-linecap="round" stroke-linejoin="round"/>
<path d="M531.74 525.885L523.269 444.752L489.391 462.552" stroke="#FF5B4D" stroke-width="2.54626" stroke-linecap="round" stroke-linejoin="round"/>
<path d="M530.398 193.046L535.557 187.922" stroke="#FF5B4D" stroke-width="2.54626" stroke-linecap="round" stroke-linejoin="round"/>
<path d="M405.773 220.04C398.467 234.95 388.207 248.007 375.583 260.734H323.094" stroke="#4D1F1F" stroke-width="2.54626" stroke-linecap="round" stroke-linejoin="round"/>
<path d="M298.541 238.899L306.05 256.661C306.668 258.126 308.382 258.781 309.821 258.113L317.349 254.599C318.725 253.956 319.343 252.332 318.732 250.938L311.471 234.316C310.897 233.01 309.439 232.342 308.076 232.756L300.305 235.137C298.713 235.621 297.898 237.378 298.541 238.906V238.899Z" fill="#FFBB99"/>
<path d="M306.039 256.648C306.657 258.112 308.37 258.768 309.81 258.099L317.338 254.585C318.714 253.942 319.332 252.319 318.72 250.924L313.122 234.302" stroke="#4D1F1F" stroke-width="2.54626" stroke-linecap="round" stroke-linejoin="round"/>
<path d="M300.578 243.735L313.54 239.062" stroke="#4D1F1F" stroke-width="2.54626" stroke-linecap="round" stroke-linejoin="round"/>
<path d="M303.875 251.526L316.894 245.49" stroke="#4D1F1F" stroke-width="2.54626" stroke-linecap="round" stroke-linejoin="round"/>
<path d="M288.531 36.8507L336.256 582.103C336.396 583.695 339.613 584.72 343.441 584.382C347.269 584.045 350.262 582.485 350.122 580.887L302.397 35.6348L288.531 36.8444V36.8507Z" fill="#FF5C4D" stroke="#FF5C4D" stroke-width="2.54626" stroke-linecap="round" stroke-linejoin="round"/>
<path d="M306.96 87.8838L293.094 89.0998L299.922 167.094L313.265 159.97L306.96 87.8838Z" fill="#4D1F1F" stroke="#4D1F1F" stroke-width="2.54626" stroke-linecap="round" stroke-linejoin="round"/>
<path d="M317.577 209.154L303.711 210.364L310.552 288.485L323.895 281.349L317.577 209.154Z" fill="#4D1F1F" stroke="#4D1F1F" stroke-width="2.54626" stroke-linecap="round" stroke-linejoin="round"/>
<path d="M314.328 331.631L321.162 409.74L334.512 402.603L328.194 330.415L314.328 331.631Z" fill="#4D1F1F" stroke="#4D1F1F" stroke-width="2.54626" stroke-linecap="round" stroke-linejoin="round"/>
<path d="M302.397 35.6348L288.531 36.8444L336.256 582.097C336.396 583.688 339.613 584.713 343.441 584.376L434.82 583.733" stroke="#4D1F1F" stroke-width="2.54626" stroke-linecap="round" stroke-linejoin="round"/>
<path d="M294.192 36.2941C302.198 36.2941 308.688 29.8068 308.688 21.8043C308.688 13.8018 302.198 7.31445 294.192 7.31445C286.186 7.31445 279.695 13.8018 279.695 21.8043C279.695 29.8068 286.186 36.2941 294.192 36.2941Z" fill="#FFE88C" stroke="#FF5C4D" stroke-width="2.54626" stroke-linecap="round" stroke-linejoin="round"/>
<path d="M293.554 20.0887C296.755 20.0887 299.35 17.4949 299.35 14.2953C299.35 11.0957 296.755 8.50195 293.554 8.50195C290.353 8.50195 287.758 11.0957 287.758 14.2953C287.758 17.4949 290.353 20.0887 293.554 20.0887Z" fill="#FBFCF9"/>
<path d="M294.853 29.3092C289.789 29.7548 285.242 26.6926 283.567 22.147C283.395 23.0892 283.337 24.0697 283.42 25.0692C283.949 31.1299 289.293 35.6119 295.356 35.0834C301.42 34.555 305.904 29.2137 305.375 23.1529C305.286 22.1534 305.057 21.1984 304.725 20.3008C303.865 25.0692 299.917 28.8699 294.853 29.3092Z" fill="#FF5C4D"/>
<path d="M351.058 48.5082L235.516 58.6123L236.526 70.1613L352.069 60.0572L351.058 48.5082Z" fill="#FF5C4D" stroke="#FF5C4D" stroke-width="2.54626" stroke-linecap="round" stroke-linejoin="round"/>
<path d="M235.625 59.7757L236.536 70.1656L352.081 60.0622L351.068 48.5137" stroke="#4D1F1F" stroke-width="2.54626" stroke-linecap="round" stroke-linejoin="round"/>
<path d="M235.53 58.6097L223.466 53.8477L207.148 66.9114L225.492 76.9448L236.536 70.1582L235.53 58.6097Z" fill="#FFE88C" stroke="#FF5C4D" stroke-width="2.54626" stroke-linecap="round" stroke-linejoin="round"/>
<path d="M237.765 64.2363L225.613 71.7041L214.556 66.2672L207.148 66.9166L237.765 64.2363Z" fill="#FF5C4D" stroke="#FF5C4D" stroke-width="2.54626" stroke-linecap="round" stroke-linejoin="round"/>
<path d="M235.53 58.6162L236.536 70.1648L225.492 76.9513L207.148 66.9179" stroke="#4D1F1F" stroke-width="2.54626" stroke-linecap="round" stroke-linejoin="round"/>
<path d="M351.078 48.5072L362.129 41.7207L380.466 51.7541L364.148 64.8242L352.091 60.0558L351.078 48.5072Z" fill="#FFE88C" stroke="#FF5C4D" stroke-width="2.54626" stroke-linecap="round" stroke-linejoin="round"/>
<path d="M349.836 54.439L363.103 59.6785L373.052 52.4082L380.453 51.7588L349.836 54.439Z" fill="#FF5C4D" stroke="#FF5C4D" stroke-width="2.54626" stroke-linecap="round" stroke-linejoin="round"/>
<path d="M351.078 48.5137L352.091 60.0622L364.148 64.8306L380.466 51.7605" stroke="#4D1F1F" stroke-width="2.54626" stroke-linecap="round" stroke-linejoin="round"/>
<path d="M345.633 124.309L293.501 152.143L241.648 133.4L242.113 55.387L259.444 53.8719L259.329 73.6712L328.653 67.6041L328.774 47.8111L346.104 46.2959L345.633 124.309Z" fill="#FBFCF9" stroke="#C4F5F5" stroke-width="2.54626" stroke-linecap="round" stroke-linejoin="round"/>
<path d="M261.26 116.398C259.401 113.903 258.299 109.542 258.337 103.927C258.369 98.6489 259.362 94.4471 261.343 91.3212C263.324 88.2144 265.884 86.5146 269.018 86.2408C270.731 86.0881 272.133 86.47 273.209 87.355L273.177 92.7664C272.082 91.4994 270.84 90.9265 269.489 91.0411C267.617 91.2066 266.12 92.3589 265.025 94.5235C263.904 96.688 263.35 99.6484 263.324 103.443C263.299 107.74 263.936 111.006 264.936 112.731C265.942 114.482 267.197 115.259 268.623 115.138C268.846 115.119 269.139 115.049 269.502 114.921L269.566 104.054L268.955 104.105C267.942 104.194 267.056 104.404 266.311 104.767L266.814 99.8839L274.012 99.2537L273.903 116.946C272.496 118.639 270.642 119.594 268.337 119.798C265.541 120.04 263.108 118.894 261.254 116.392L261.26 116.398Z" fill="#00BFE6"/>
<path d="M276.672 118.622C277.392 115.445 277.774 111.479 277.806 106.748L277.857 97.721C277.882 92.9653 277.545 89.0691 276.869 86.0133L282.646 85.5103C286.054 85.2111 288.71 86.3889 290.589 89.0182C292.468 91.673 293.391 95.5883 293.359 100.777C293.328 105.985 292.353 110.116 290.442 113.121C288.532 116.152 285.856 117.82 282.449 118.119L276.672 118.622ZM282.366 113.554L282.933 113.503C284.557 113.363 285.895 112.268 286.92 110.225C287.946 108.181 288.487 105.176 288.506 101.197C288.531 97.1735 287.965 94.0858 286.933 92.3542C285.907 90.648 284.576 89.9031 283.022 90.0368L282.506 90.0814L282.366 113.548V113.554Z" fill="#00BFE6"/>
<path d="M295.156 117.003C295.5 115.538 295.787 113.699 296.003 111.496C296.22 109.293 296.322 107.173 296.335 105.123L296.386 96.0956C296.398 94.052 296.322 91.9448 296.131 89.7547C295.94 87.5902 295.679 85.7949 295.354 84.3879L301.85 83.8213C304.742 83.5667 306.99 84.4197 308.602 86.3424C310.213 88.2905 311.009 91.0407 310.99 94.6123C310.971 98.0883 310.411 100.87 309.296 102.946C308.181 105.047 306.837 106.161 305.328 106.295C302.914 106.505 301.5 104.9 301.341 101.482L300.914 101.52L300.895 104.728C300.882 106.727 300.984 108.809 301.175 110.98C301.366 113.17 301.602 114.965 301.908 116.417L295.163 117.009L295.156 117.003ZM306.143 94.7651C306.156 92.7406 305.761 91.1617 304.952 89.9839C304.15 88.8062 303.156 88.2778 302.01 88.3796C301.494 88.4242 301.105 88.7298 300.991 88.7425L300.94 96.9487C300.978 98.2666 301.22 99.3998 301.666 100.342C302.086 101.284 302.672 101.73 303.417 101.666C305.111 101.52 306.118 99.1133 306.143 94.7714V94.7651Z" fill="#00BFE6"/>
<path d="M322.386 112.261C321.832 110.51 321.641 108.301 321.52 106.155C321.335 103.01 321.017 100.222 318.711 100.425C318.214 100.47 317.896 100.54 317.736 100.648L317.711 104.379C317.686 109.198 317.864 112.732 318.278 114.992L312.367 115.507C312.533 114.381 312.673 113.095 312.749 111.656C312.826 110.217 312.877 108.988 312.909 107.957C312.934 106.932 312.947 105.429 312.959 103.405L313.01 94.9249C313.049 88.7878 312.89 84.777 312.565 82.8925L318.431 82.3769C324.233 81.8676 327.711 84.3823 327.679 89.8637C327.647 94.8677 324.972 97.5988 320.437 97.9999L320.322 98.0126V98.3309L320.883 98.28C323.074 98.089 324.603 98.8848 325.246 100.171C325.889 101.476 326.195 103.157 326.278 104.786C326.354 107.187 326.43 109.294 327.787 109.179C328.329 109.135 328.806 108.772 329.195 108.122L329.207 113.375C328.685 114.304 327.755 114.82 326.424 114.934C324.278 115.119 322.908 114.011 322.38 112.267L322.386 112.261ZM317.768 96.1855L318.265 96.1409C321.087 95.8926 322.857 94.1228 322.876 90.9396C322.896 88.0047 321.119 86.706 318.323 86.9543L317.826 86.9988L317.768 96.1855Z" fill="#00BFE6"/>
<path d="M361.683 169.774L246.141 179.878L247.151 191.427L362.694 181.323L361.683 169.774Z" fill="#FF5C4D" stroke="#FF5C4D" stroke-width="2.54626" stroke-linecap="round" stroke-linejoin="round"/>
<path d="M246.141 179.879L247.153 191.427L362.692 181.324L361.679 169.775" stroke="#4D1F1F" stroke-width="2.54626" stroke-linecap="round" stroke-linejoin="round"/>
<path d="M356.427 245.554L304.435 273.375L252.442 254.645L252.43 176.676L269.76 175.161V194.948L339.09 188.88L339.083 169.1L356.414 167.585L356.427 245.554Z" fill="#FBFCF9" stroke="#C4F5F5" stroke-width="2.54626" stroke-linecap="round" stroke-linejoin="round"/>
<path d="M241.743 176.192L241.737 176.192C239.505 176.388 237.854 178.355 238.049 180.586L239.06 192.141C239.256 194.372 241.223 196.023 243.456 195.828L243.462 195.827C245.694 195.632 247.346 193.665 247.15 191.434L246.139 179.878C245.944 177.647 243.976 175.997 241.743 176.192Z" fill="#FFE88C" stroke="#FF5C4D" stroke-width="2.54626" stroke-linecap="round" stroke-linejoin="round"/>
<path d="M238.469 185.206C238.666 187.44 240.634 189.089 242.864 188.892C245.099 188.694 246.749 186.727 246.551 184.499L246.755 186.81C246.953 189.045 245.297 191.012 243.067 191.203C240.832 191.4 238.864 189.745 238.673 187.517L238.469 185.206Z" stroke="#FF5C4D" stroke-width="2.54626" stroke-linecap="round" stroke-linejoin="round"/>
<path d="M239.062 192.133C239.26 194.368 241.228 196.017 243.457 195.819C245.693 195.622 247.342 193.655 247.145 191.426L246.132 179.878" stroke="#4D1F1F" stroke-width="2.54626" stroke-linecap="round" stroke-linejoin="round"/>
<path d="M367.085 185.02L367.091 185.019C369.323 184.824 370.974 182.857 370.779 180.626L369.768 169.071C369.572 166.84 367.605 165.189 365.372 165.384L365.366 165.385C363.134 165.58 361.483 167.547 361.678 169.778L362.689 181.334C362.885 183.565 364.852 185.215 367.085 185.02Z" fill="#FFE88C" stroke="#FF5C4D" stroke-width="2.54626" stroke-linecap="round" stroke-linejoin="round"/>
<path d="M370.184 173.686C370.382 175.92 368.726 177.887 366.496 178.078C364.261 178.276 362.293 176.62 362.102 174.392L362.305 176.703C362.503 178.938 364.471 180.587 366.7 180.389C368.936 180.192 370.585 178.225 370.388 175.997L370.184 173.686Z" stroke="#FF5C4D" stroke-width="2.54626" stroke-linecap="round" stroke-linejoin="round"/>
<path d="M370.775 180.617C370.972 182.852 369.316 184.819 367.087 185.01C364.852 185.207 362.884 183.552 362.692 181.324L361.68 169.775" stroke="#4D1F1F" stroke-width="2.54626" stroke-linecap="round" stroke-linejoin="round"/>
<path d="M308.635 20.5459C309.335 28.5166 303.431 35.545 295.457 36.2453C287.482 36.9456 280.451 31.044 279.75 23.0733" stroke="#4D1F1F" stroke-width="2.54626" stroke-linecap="round" stroke-linejoin="round"/>
<path d="M263.912 242.067C264.524 239.291 264.843 235.822 264.836 231.683V223.789C264.836 219.632 264.518 216.22 263.906 213.552L268.957 213.113C271.938 212.852 274.269 213.883 275.925 216.181C277.581 218.505 278.415 221.93 278.415 226.463C278.415 231.015 277.587 234.631 275.931 237.26C274.275 239.909 271.944 241.367 268.963 241.628L263.912 242.067ZM268.868 237.636L269.365 237.591C270.785 237.464 271.95 236.509 272.842 234.72C273.728 232.931 274.186 230.308 274.186 226.826C274.186 223.305 273.67 220.606 272.766 219.097C271.855 217.607 270.696 216.952 269.333 217.073L268.881 217.111V237.63L268.868 237.636Z" fill="#00BFE6"/>
<path d="M280.07 240.648C280.682 237.873 281 234.403 281 230.265V222.371C281 218.213 280.682 214.801 280.07 212.134L285.44 211.662L287.911 218.131C288.446 219.378 288.777 220.798 288.955 222.396L289.229 222.371C289.331 221.428 289.682 219.945 290.293 217.921L292.758 211.026L298.127 210.555C297.853 211.853 297.637 213.464 297.458 215.406C297.28 217.348 297.204 219.187 297.204 220.957V228.852C297.204 230.621 297.286 232.442 297.465 234.339C297.643 236.23 297.86 237.803 298.133 239.076L292.267 239.592C292.541 238.274 292.758 236.663 292.936 234.74C293.115 232.818 293.191 230.978 293.191 229.208V221.912L292.955 221.931L289.643 232.901L288.599 232.99L285.28 222.6L285.026 222.625V229.921C285.026 233.976 285.325 237.389 285.917 240.145L280.077 240.655L280.07 240.648Z" fill="#00BFE6"/>
<path d="M299.359 238.964C299.875 237.685 300.385 236.074 300.882 234.12C301.372 232.184 301.786 230.281 302.105 228.422L303.646 220.394C304.378 216.058 304.652 212.589 304.493 209.997L311.697 209.367C311.62 210.647 311.658 212.232 311.837 214.148C311.996 216.065 312.232 217.873 312.55 219.617L314.072 227.378C314.786 231.433 315.709 234.788 316.837 237.436L310.932 237.952C311.028 235.654 310.856 233.005 310.397 230.026L310.2 228.893L305.996 229.262L305.799 230.472C305.365 233.833 305.187 236.494 305.27 238.455L299.366 238.971L299.359 238.964ZM306.544 225.824L309.62 225.557L308.888 221.883C308.767 221.196 308.55 219.267 308.232 216.116L307.913 216.141C307.875 216.542 307.818 217.166 307.754 217.987C307.697 218.828 307.614 219.553 307.557 220.171C307.499 220.795 307.397 221.4 307.302 222.023L306.531 225.831L306.544 225.824Z" fill="#00BFE6"/>
<path d="M326.525 234.519C326.028 232.991 325.856 231.055 325.735 229.177C325.557 226.427 325.257 223.989 323.245 224.167C322.812 224.205 322.531 224.269 322.398 224.358V227.618C322.398 231.832 322.576 234.92 322.952 236.893L317.78 237.345C317.92 236.359 318.035 235.238 318.092 233.978C318.149 232.717 318.194 231.641 318.213 230.744C318.232 229.846 318.232 228.534 318.232 226.765V219.348C318.232 213.981 318.073 210.473 317.773 208.831L322.907 208.379C327.983 207.933 331.041 210.136 331.041 214.923C331.041 219.297 328.709 221.691 324.741 222.034H324.646V222.321L325.136 222.276C327.053 222.111 328.391 222.805 328.964 223.932C329.537 225.077 329.811 226.542 329.894 227.968C329.977 230.069 330.053 231.909 331.238 231.807C331.709 231.769 332.123 231.45 332.461 230.884L332.499 235.474C332.047 236.289 331.238 236.741 330.073 236.843C328.2 237.008 326.996 236.04 326.518 234.506L326.525 234.519ZM322.398 220.462L322.831 220.424C325.295 220.207 326.837 218.66 326.837 215.878C326.837 213.312 325.276 212.179 322.831 212.389L322.398 212.428V220.462Z" fill="#00BFE6"/>
<path d="M336.109 232.466C334.67 230.149 333.938 226.552 333.938 221.72C333.938 216.786 334.823 212.794 336.326 210.337C337.804 207.88 339.74 206.517 342.033 206.32C343.294 206.212 344.281 206.441 345.014 207.033V212.241C344.243 211.337 343.377 210.91 342.39 210.999C339.644 211.241 338.262 214.679 338.262 221.3C338.262 227.902 339.702 231.079 342.587 230.824C343.676 230.728 344.619 230.251 345.428 229.385V234.198C344.383 235.045 343.179 235.529 341.778 235.65C339.428 235.853 337.555 234.784 336.109 232.466Z" fill="#00BFE6"/>
<path d="M372.301 291.035L256.758 301.139L257.769 312.688L373.311 302.584L372.301 291.035Z" fill="#FF5C4D" stroke="#FF5C4D" stroke-width="2.54626" stroke-linecap="round" stroke-linejoin="round"/>
<path d="M256.758 301.14L257.771 312.688L373.315 302.585L372.303 291.036" stroke="#4D1F1F" stroke-width="2.54626" stroke-linecap="round" stroke-linejoin="round"/>
<path d="M367.016 366.814L315.017 394.642L263.031 375.912L263.057 297.937L280.387 296.422L280.381 316.208L349.704 310.148L349.71 290.361L367.041 288.846L367.016 366.814Z" fill="#FBFCF9" stroke="#C4F5F5" stroke-width="2.54626" stroke-linecap="round" stroke-linejoin="round"/>
<path d="M252.353 297.453L252.347 297.453C250.114 297.648 248.463 299.615 248.658 301.847L249.67 313.402C249.865 315.633 251.833 317.284 254.065 317.088L254.072 317.088C256.304 316.893 257.955 314.926 257.76 312.694L256.748 301.139C256.553 298.908 254.585 297.257 252.353 297.453Z" fill="#FFE88C" stroke="#FF5C4D" stroke-width="2.54626" stroke-linecap="round" stroke-linejoin="round"/>
<path d="M249.062 306.466C249.26 308.701 251.228 310.35 253.457 310.153C255.693 309.955 257.342 307.988 257.145 305.76L257.349 308.071C257.546 310.305 255.89 312.273 253.661 312.464C251.425 312.661 249.457 311.006 249.266 308.777L249.062 306.466Z" stroke="#FF5C4D" stroke-width="2.54626" stroke-linecap="round" stroke-linejoin="round"/>
<path d="M249.672 313.394C249.869 315.628 251.837 317.277 254.067 317.08C256.302 316.883 257.952 314.915 257.754 312.687L256.742 301.139" stroke="#4D1F1F" stroke-width="2.54626" stroke-linecap="round" stroke-linejoin="round"/>
<path d="M377.694 306.276L377.7 306.275C379.933 306.08 381.584 304.113 381.389 301.882L380.377 290.327C380.182 288.095 378.214 286.445 375.982 286.64L375.975 286.641C373.743 286.836 372.092 288.803 372.287 291.034L373.299 302.589C373.494 304.821 375.462 306.471 377.694 306.276Z" fill="#FFE88C" stroke="#FF5C4D" stroke-width="2.54626" stroke-linecap="round" stroke-linejoin="round"/>
<path d="M380.801 294.951C380.999 297.186 379.343 299.153 377.114 299.344C374.878 299.541 372.91 297.886 372.719 295.658L372.923 297.969C373.12 300.203 375.088 301.852 377.317 301.655C379.553 301.458 381.203 299.49 381.005 297.262L380.801 294.951Z" stroke="#FF5C4D" stroke-width="2.54626" stroke-linecap="round" stroke-linejoin="round"/>
<path d="M381.4 301.878C381.597 304.113 379.941 306.08 377.712 306.271C375.477 306.468 373.508 304.813 373.317 302.585L372.305 291.036" stroke="#4D1F1F" stroke-width="2.54626" stroke-linecap="round" stroke-linejoin="round"/>
<path d="M280.32 362.827C281.021 359.65 281.384 355.691 281.384 350.96V341.933C281.384 337.184 281.027 333.281 280.327 330.225L286.104 329.722C289.511 329.423 292.174 330.601 294.072 333.23C295.963 335.885 296.912 339.8 296.912 344.982C296.912 350.19 295.963 354.315 294.065 357.327C292.167 360.357 289.505 362.019 286.097 362.318L280.32 362.821V362.827ZM285.983 357.76L286.543 357.709C288.167 357.569 289.498 356.474 290.517 354.43C291.53 352.386 292.053 349.388 292.053 345.409C292.053 341.385 291.467 338.298 290.428 336.572C289.39 334.866 288.059 334.121 286.499 334.255L285.983 334.3V357.76Z" fill="#00BFE6"/>
<path d="M309.703 357.395C309.072 355.498 308.798 353.085 308.69 350.736C308.511 347.272 308.218 344.229 306.142 344.414C305.352 344.484 304.811 344.758 304.473 345.216V348.947C304.473 351.016 304.563 353.123 304.76 355.262C304.964 357.427 305.212 359.222 305.55 360.623L298.805 361.215C299.505 358.038 299.868 354.078 299.868 349.348V340.32C299.868 335.571 299.512 331.669 298.817 328.613L305.563 328.021C304.836 331.127 304.48 334.642 304.473 338.551V340.594L305.442 340.511C306.454 340.422 307.295 339.919 308.059 338.78C308.824 337.647 309.282 335.469 309.282 332.534C309.282 330.873 309.034 329.281 308.518 327.76L313.55 327.32C313.932 328.581 314.136 330.179 314.136 332.108C314.136 336.742 311.919 341.53 307.25 341.937L307.072 341.95V342.313L308.269 342.211C310.55 342.014 312.104 342.918 312.76 344.388C313.416 345.853 313.683 347.737 313.753 349.552C313.842 352.251 313.913 354.632 315.492 354.492C316.008 354.447 316.486 354.084 316.913 353.435L316.957 358.77C316.435 359.68 315.511 360.19 314.206 360.304C311.881 360.508 310.346 359.279 309.715 357.376L309.703 357.395Z" fill="#00BFE6"/>
<path d="M319.266 359.424C319.966 356.247 320.329 352.287 320.329 347.557V338.529C320.329 333.78 319.973 329.877 319.272 326.822L326.023 326.229C325.323 329.406 324.96 333.366 324.96 338.122V347.149C324.96 351.88 325.316 355.776 326.017 358.832L319.266 359.424Z" fill="#00BFE6"/>
<path d="M329.131 358.557C329.832 355.38 330.195 351.42 330.195 346.69V337.662C330.195 332.913 329.838 329.01 329.144 325.954L335.284 325.42L338.099 332.811C338.711 334.237 339.093 335.861 339.297 337.688L339.615 337.662C339.73 336.586 340.138 334.886 340.838 332.575L343.66 324.694L349.8 324.159C349.481 325.643 349.233 327.482 349.029 329.704C348.825 331.926 348.736 334.027 348.73 336.052V345.079C348.73 347.103 348.819 349.185 349.016 351.35C349.22 353.514 349.468 355.31 349.78 356.761L343.08 357.347C343.398 355.845 343.647 354.005 343.851 351.802C344.055 349.599 344.144 347.505 344.144 345.48V337.14L343.876 337.166L340.08 349.701L338.883 349.803L335.093 337.93L334.8 337.955V346.295C334.8 350.93 335.131 354.832 335.806 357.984L329.125 358.569L329.131 358.557Z" fill="#00BFE6"/>
<path d="M345.633 124.306L293.501 152.139L241.648 133.397" stroke="#00BFE6" stroke-width="2.54626" stroke-linecap="round" stroke-linejoin="round"/>
<path d="M356.422 245.557L304.43 273.378L252.438 254.648" stroke="#00BFE6" stroke-width="2.54626" stroke-linecap="round" stroke-linejoin="round"/>
<path d="M367.016 366.813L315.017 394.641L263.031 375.911" stroke="#00BFE6" stroke-width="2.54626" stroke-linecap="round" stroke-linejoin="round"/>
<path d="M257.264 12.843L250.945 6.12012" stroke="#FF5C4D" stroke-width="2.54626" stroke-linecap="round" stroke-linejoin="round"/>
<path d="M331.133 10.4498L337.846 1.78516" stroke="#FF5C4D" stroke-width="2.54626" stroke-linecap="round" stroke-linejoin="round"/>
<path d="M667.328 86.5979L631.571 495.114C631.469 496.311 629.055 497.075 626.189 496.82C623.323 496.572 621.081 495.4 621.183 494.203L656.94 85.6875L667.328 86.5979Z" fill="url(#paint0_linear_379_78962)" stroke="url(#paint1_linear_379_78962)" stroke-width="2.54626" stroke-linecap="round" stroke-linejoin="round"/>
<path d="M653.523 124.846L663.911 125.75L658.797 184.193L648.797 178.851L653.523 124.846Z" fill="#00BFE6" stroke="#00BFE6" stroke-width="2.54626" stroke-linecap="round" stroke-linejoin="round"/>
<path d="M645.568 215.697L655.957 216.601L650.836 275.133L640.836 269.786L645.568 215.697Z" fill="#00BFE6" stroke="#00BFE6" stroke-width="2.54626" stroke-linecap="round" stroke-linejoin="round"/>
<path d="M656.95 85.6875L667.338 86.5979L640.836 389.369" stroke="#00BFE6" stroke-width="2.54626" stroke-linecap="round" stroke-linejoin="round"/>
<path d="M663.094 86.1897C669.091 86.1897 673.954 81.3299 673.954 75.3351C673.954 69.3402 669.091 64.4805 663.094 64.4805C657.096 64.4805 652.234 69.3402 652.234 75.3351C652.234 81.3299 657.096 86.1897 663.094 86.1897Z" fill="#C4F5F5" stroke="#C4F5F5" stroke-width="2.54626" stroke-linecap="round" stroke-linejoin="round"/>
<path d="M663.562 74.047C665.962 74.047 667.907 72.1031 667.907 69.7051C667.907 67.3072 665.962 65.3633 663.562 65.3633C661.163 65.3633 659.219 67.3072 659.219 69.7051C659.219 72.1031 661.163 74.047 663.562 74.047Z" fill="#C4F5F5" stroke="#C4F5F5" stroke-width="0.636565" stroke-miterlimit="10"/>
<path d="M619.732 103.987L706.297 111.557L707.054 102.906L620.489 95.336L619.732 103.987Z" fill="#C4F5F5" stroke="#C4F5F5" stroke-width="2.54626" stroke-linecap="round" stroke-linejoin="round"/>
<path d="M706.973 103.781L706.291 111.567L619.727 103.998L620.484 95.3457" stroke="#00BFE6" stroke-width="2.54626" stroke-linecap="round" stroke-linejoin="round"/>
<path d="M707.047 102.915L716.085 99.3438L728.314 109.135L714.569 116.647L706.289 111.567L707.047 102.915Z" fill="#C4F5F5" stroke="#C4F5F5" stroke-width="2.54626" stroke-linecap="round" stroke-linejoin="round"/>
<path d="M707.047 102.911L706.289 111.563L714.569 116.643L728.314 109.131" stroke="#00BFE6" stroke-width="2.54626" stroke-linecap="round" stroke-linejoin="round"/>
<path d="M620.479 95.3465L612.199 90.2598L598.461 97.7784L610.69 107.564L619.722 103.998L620.479 95.3465Z" fill="#C4F5F5" stroke="#C4F5F5" stroke-width="2.54626" stroke-linecap="round" stroke-linejoin="round"/>
<path d="M620.479 95.3438L619.722 103.996L610.69 107.561L598.461 97.7757" stroke="#00BFE6" stroke-width="2.54626" stroke-linecap="round" stroke-linejoin="round"/>
<path d="M624.553 152.131L663.616 172.981L702.462 158.943L702.112 100.494L689.131 99.3604L689.221 114.188L637.279 109.648L637.19 94.8149L624.203 93.6816L624.553 152.131Z" fill="#C4F5F5" stroke="#C4F5F5" stroke-width="2.54626" stroke-linecap="round" stroke-linejoin="round"/>
<path d="M646.14 145.332L646.171 141.334C646.713 142.002 647.343 142.543 648.082 142.957C648.796 143.39 649.452 143.625 650.05 143.683C650.77 143.746 651.375 143.549 651.872 143.103C652.356 142.658 652.598 142.028 652.604 141.238C652.617 139.965 651.872 138.526 650.904 137.355C650.407 136.775 649.885 136.126 649.324 135.407C648.171 133.98 647.165 132.777 646.509 130.976C646.191 130.091 646.025 129.193 646.031 128.27C646.044 126.443 646.586 125.017 647.675 124.023C648.745 123.03 650.108 122.591 651.751 122.737C653.241 122.865 654.509 123.393 655.515 124.304L655.483 128.302C654.515 127.098 653.42 126.449 652.222 126.347C651.522 126.284 650.917 126.468 650.452 126.914C649.968 127.359 649.726 127.939 649.719 128.658C649.707 130.683 651.885 132.612 653.719 135.069C655.076 136.845 656.33 139.099 656.292 141.754C656.279 143.581 655.719 145.001 654.598 146.013C653.477 147.019 652.082 147.452 650.42 147.312C648.789 147.172 647.165 146.427 646.146 145.332H646.14Z" fill="#00BFE6"/>
<path d="M657.842 147.621C658.11 146.59 658.327 145.266 658.492 143.674C658.658 142.083 658.74 140.529 658.747 139.027L658.798 132.38C658.811 130.871 658.753 129.312 658.613 127.675C658.473 126.058 658.276 124.696 658.027 123.62L662.963 124.047C665.161 124.238 666.868 125.154 668.091 126.784C669.313 128.433 669.912 130.559 669.893 133.189C669.874 135.748 669.447 137.722 668.594 139.103C667.74 140.504 666.727 141.153 665.575 141.051C663.74 140.892 662.67 139.523 662.549 136.989L662.224 136.964L662.205 139.326C662.193 140.797 662.269 142.344 662.409 143.967C662.549 145.603 662.728 146.959 662.963 148.067L657.836 147.621H657.842ZM666.211 132.673C666.224 131.183 665.925 129.967 665.314 128.993C664.702 128.019 663.95 127.504 663.078 127.427C662.683 127.395 662.39 127.567 662.307 127.561L662.263 133.603C662.288 134.577 662.473 135.449 662.81 136.194C663.129 136.939 663.575 137.346 664.141 137.397C665.428 137.505 666.193 135.869 666.218 132.667L666.211 132.673Z" fill="#00BFE6"/>
<path d="M671.156 148.768C671.704 146.52 672.003 143.649 672.029 140.167L672.08 133.52C672.105 130.025 671.857 127.103 671.341 124.767L680.602 125.569L681.105 129.567C680.334 129.185 679.309 128.924 678.022 128.816L675.621 128.606L675.57 135.5L676.462 135.577C677.882 135.698 678.946 135.723 679.653 135.653L679.621 139.486C678.882 139.307 677.736 139.155 676.175 139.021L675.539 138.964L675.526 140.803C675.5 143.917 675.755 146.718 676.284 149.207L671.156 148.761V148.768Z" fill="#00BFE6"/>
<path d="M611.779 194.849L698.344 202.419L699.101 193.768L612.536 186.198L611.779 194.849Z" fill="#C4F5F5" stroke="#C4F5F5" stroke-width="2.54626" stroke-linecap="round" stroke-linejoin="round"/>
<path d="M699.096 193.763L698.338 202.415L611.773 194.845L612.531 186.193" stroke="#00BFE6" stroke-width="2.54626" stroke-linecap="round" stroke-linejoin="round"/>
<path d="M616.469 242.97L655.423 263.814L694.378 249.782L694.384 191.365L681.403 190.232L681.397 205.052L629.462 200.507V185.686L616.475 184.553L616.469 242.97Z" fill="#C4F5F5" stroke="#C4F5F5" stroke-width="2.54626" stroke-linecap="round" stroke-linejoin="round"/>
<path d="M698.311 202.411C698.165 204.085 699.402 205.561 701.075 205.708C702.749 205.854 704.224 204.615 704.371 202.941L705.127 194.297C705.274 192.623 704.036 191.147 702.363 191C700.69 190.854 699.214 192.093 699.068 193.767L698.311 202.411Z" fill="#C4F5F5" stroke="#C4F5F5" stroke-width="2.54626" stroke-linecap="round" stroke-linejoin="round"/>
<path d="M704.354 202.948C704.207 204.622 702.73 205.857 701.061 205.711C699.386 205.564 698.15 204.087 698.297 202.419L699.055 193.768" stroke="#00BFE6" stroke-width="2.54626" stroke-linecap="round" stroke-linejoin="round"/>
<path d="M612.521 186.196C612.667 184.522 611.43 183.046 609.756 182.9C608.083 182.753 606.608 183.992 606.461 185.666L605.705 194.311C605.558 195.985 606.796 197.461 608.469 197.607C610.142 197.753 611.617 196.515 611.764 194.84L612.521 186.196Z" fill="#C4F5F5" stroke="#C4F5F5" stroke-width="2.54626" stroke-linecap="round" stroke-linejoin="round"/>
<path d="M605.699 194.312C605.553 195.986 606.788 197.457 608.464 197.603C610.139 197.75 611.61 196.515 611.756 194.84L612.514 186.188" stroke="#00BFE6" stroke-width="2.54626" stroke-linecap="round" stroke-linejoin="round"/>
<path d="M652.268 74.3838C651.746 80.3554 656.166 85.6204 662.141 86.1488C668.115 86.6708 673.383 82.2526 673.911 76.281" stroke="#00BFE6" stroke-width="2.54626" stroke-linecap="round" stroke-linejoin="round"/>
<path d="M628.343 236.694C628.853 234.446 629.107 231.575 629.075 228.093L629.018 221.446C628.986 217.951 628.687 215.029 628.133 212.692L632.534 213.074C635.126 213.297 637.164 214.513 638.629 216.697C640.088 218.9 640.839 221.904 640.871 225.724C640.903 229.557 640.209 232.473 638.782 234.44C637.356 236.426 635.337 237.305 632.744 237.075L628.343 236.694ZM632.623 233.708L633.05 233.746C634.286 233.854 635.292 233.224 636.056 231.849C636.814 230.474 637.196 228.335 637.165 225.406C637.139 222.446 636.668 220.096 635.865 218.689C635.063 217.302 634.043 216.576 632.859 216.474L632.464 216.442L632.617 233.714L632.623 233.708Z" fill="#00BFE6"/>
<path d="M641.272 237.819C641.712 236.82 642.145 235.54 642.559 233.968C642.973 232.414 643.323 230.874 643.584 229.358L644.865 222.833C645.47 219.293 645.686 216.416 645.527 214.213L651.8 214.754C651.743 215.817 651.788 217.16 651.953 218.797C652.106 220.433 652.323 221.993 652.616 223.501L653.998 230.262C654.648 233.783 655.482 236.75 656.482 239.144L651.342 238.698C651.412 236.782 651.234 234.522 650.82 231.95L650.641 230.963L646.979 230.644L646.813 231.631C646.463 234.394 646.323 236.603 646.406 238.271L641.266 237.826L641.272 237.819ZM647.431 227.831L650.113 228.066L649.45 224.864C649.342 224.272 649.138 222.61 648.839 219.911L648.565 219.885C648.533 220.216 648.488 220.732 648.444 221.413C648.399 222.114 648.336 222.706 648.291 223.221C648.247 223.737 648.164 224.234 648.081 224.743L647.437 227.831H647.431Z" fill="#00BFE6"/>
<path d="M657.524 239.226C657.773 238.194 657.97 236.87 658.11 235.279C658.25 233.687 658.308 232.134 658.295 230.631L658.238 223.985C658.225 222.476 658.142 220.916 657.977 219.28C657.805 217.663 657.588 216.301 657.32 215.225L661.429 215.581L666.148 229.052L666.403 229.078L666.352 223.1C666.256 220.248 665.963 217.867 665.479 215.931L670.62 216.377C670.123 218.694 669.893 221.565 669.925 224.997L670.059 240.314L666.779 240.028L661.989 226.468L661.728 226.442L661.766 230.93C661.779 232.401 661.881 233.948 662.047 235.571C662.219 237.208 662.416 238.564 662.664 239.671L657.524 239.226Z" fill="#00BFE6"/>
<path d="M673.071 240.575C673.319 239.544 673.517 238.22 673.657 236.628C673.797 235.037 673.855 233.483 673.842 231.981L673.784 225.334C673.772 223.825 673.689 222.266 673.523 220.63C673.351 219.006 673.135 217.65 672.867 216.574L682.147 217.376L682.714 221.336C682.077 220.98 681.045 220.738 679.619 220.617L677.249 220.413L677.3 226.391L679.103 226.55C680.428 226.665 681.491 226.69 682.3 226.608L682.332 230.459C681.421 230.262 680.351 230.103 679.134 230.001L677.332 229.842L677.402 237.488L680.115 237.723C681.37 237.831 682.402 237.755 683.204 237.475L682.466 241.39L673.084 240.575H673.071Z" fill="#00BFE6"/>
<path d="M603.849 285.703L690.414 293.273L691.171 284.623L604.606 277.053L603.849 285.703Z" fill="#C4F5F5" stroke="#C4F5F5" stroke-width="2.54626" stroke-linecap="round" stroke-linejoin="round"/>
<path d="M691.166 284.617L690.408 293.276L603.844 285.7L604.602 277.048" stroke="#00BFE6" stroke-width="2.54626" stroke-linecap="round" stroke-linejoin="round"/>
<path d="M608.55 333.831L647.511 354.675L686.459 340.643L686.44 282.226L673.453 281.086L673.46 295.913L621.518 291.368V276.547L608.531 275.407L608.55 333.831Z" fill="#C4F5F5" stroke="#C4F5F5" stroke-width="2.54626" stroke-linecap="round" stroke-linejoin="round"/>
<path d="M690.366 293.261C690.22 294.935 691.457 296.411 693.13 296.557C694.804 296.704 696.279 295.465 696.426 293.791L697.182 285.146C697.329 283.472 696.091 281.996 694.418 281.85C692.745 281.704 691.269 282.942 691.123 284.617L690.366 293.261Z" fill="#C4F5F5" stroke="#C4F5F5" stroke-width="2.54626" stroke-linecap="round" stroke-linejoin="round"/>
<path d="M696.409 293.802C696.262 295.477 694.785 296.712 693.116 296.565C691.441 296.419 690.205 294.942 690.352 293.274L691.11 284.622" stroke="#00BFE6" stroke-width="2.54626" stroke-linecap="round" stroke-linejoin="round"/>
<path d="M604.583 277.057C604.73 275.382 603.492 273.906 601.819 273.76C600.145 273.614 598.67 274.852 598.524 276.527L597.767 285.171C597.621 286.845 598.858 288.321 600.531 288.467C602.205 288.614 603.68 287.375 603.826 285.701L604.583 277.057Z" fill="#C4F5F5" stroke="#C4F5F5" stroke-width="2.54626" stroke-linecap="round" stroke-linejoin="round"/>
<path d="M597.762 285.172C597.615 286.847 598.851 288.317 600.526 288.464C602.201 288.61 603.672 287.375 603.819 285.701L604.577 277.049" stroke="#00BFE6" stroke-width="2.54626" stroke-linecap="round" stroke-linejoin="round"/>
<path d="M625.869 327.888C626.442 325.697 626.716 322.826 626.723 319.299L626.742 307.432L626.156 307.375C624.888 307.254 623.837 307.324 623.016 307.566L623.589 303.67L633.417 304.599L633.939 308.597C633.168 308.209 632.124 307.942 630.818 307.814L630.251 307.763L630.232 319.63C630.232 323.113 630.493 326.035 631.022 328.378L625.856 327.888H625.869Z" fill="#00BFE6"/>
<path d="M640.81 329.232C639.798 328.889 638.887 328.666 638.116 328.596C637.244 328.513 636.295 328.691 635.25 329.111C635.473 328.08 635.683 326.711 635.842 324.999C636.001 323.286 636.072 321.688 636.072 320.186L636.084 313.539C636.084 312.05 636.021 310.503 635.868 308.866C635.715 307.23 635.53 305.874 635.288 304.779L640.364 305.257C639.848 307.568 639.581 310.439 639.575 313.87L639.555 325.655L642.199 325.903C643.504 326.024 644.479 325.903 645.148 325.527L645.11 329.608L644.989 329.665C644.677 329.755 644.027 329.945 643.237 329.869C642.619 329.812 641.817 329.602 640.804 329.239L640.81 329.232Z" fill="#00BFE6"/>
<path d="M646.352 328.55V324.552C646.906 325.221 647.543 325.768 648.276 326.188C648.996 326.621 649.645 326.87 650.25 326.927C650.97 326.997 651.575 326.8 652.072 326.36C652.556 325.921 652.792 325.291 652.798 324.501C652.798 323.228 652.047 321.783 651.072 320.605C650.575 320.019 650.047 319.37 649.48 318.644C648.314 317.212 647.308 315.996 646.639 314.188C646.314 313.303 646.142 312.399 646.149 311.482C646.149 309.655 646.683 308.235 647.766 307.249C648.83 306.262 650.187 305.835 651.836 305.994C653.327 306.134 654.594 306.676 655.607 307.592V311.59C654.626 310.374 653.524 309.719 652.327 309.604C651.626 309.54 651.021 309.712 650.556 310.158C650.078 310.597 649.836 311.177 649.83 311.896C649.83 313.921 652.021 315.869 653.868 318.339C655.237 320.128 656.505 322.388 656.479 325.049C656.479 326.876 655.925 328.296 654.804 329.295C653.69 330.295 652.295 330.715 650.632 330.556C649.002 330.403 647.371 329.645 646.346 328.544L646.352 328.55Z" fill="#00BFE6"/>
<path d="M656.875 330.816C657.321 329.823 657.773 328.543 658.206 326.971C658.639 325.424 659.002 323.883 659.276 322.368L660.627 315.849C661.27 312.309 661.512 309.438 661.378 307.229L667.639 307.821C667.569 308.884 667.601 310.227 667.754 311.863C667.887 313.499 668.091 315.059 668.365 316.574L669.677 323.342C670.289 326.862 671.091 329.835 672.066 332.242L666.939 331.758C667.028 329.842 666.875 327.582 666.486 325.003L666.314 324.017L662.658 323.673L662.486 324.66C662.104 327.416 661.945 329.632 662.009 331.293L656.882 330.809L656.875 330.816ZM663.143 320.878L665.817 321.133L665.187 317.924C665.085 317.326 664.9 315.67 664.626 312.965L664.353 312.939C664.321 313.27 664.263 313.786 664.212 314.467C664.161 315.167 664.091 315.759 664.04 316.275C663.989 316.791 663.901 317.281 663.818 317.797L663.143 320.878Z" fill="#00BFE6"/>
<path d="M624.531 152.135L663.594 172.985L702.44 158.947" stroke="#00BFE6" stroke-width="2.54626" stroke-linecap="round" stroke-linejoin="round"/>
<path d="M616.461 242.978L655.415 263.821L694.37 249.79" stroke="#00BFE6" stroke-width="2.54626" stroke-linecap="round" stroke-linejoin="round"/>
<path d="M608.516 333.829L647.476 354.673L686.424 340.641" stroke="#00BFE6" stroke-width="2.54626" stroke-linecap="round" stroke-linejoin="round"/>
<path d="M690.336 59.1395L694.291 52.0283" stroke="#00BFE6" stroke-width="2.54626" stroke-linecap="round" stroke-linejoin="round"/>
<path d="M704.57 74.5382L711.679 70.1904" stroke="#00BFE6" stroke-width="2.54626" stroke-linecap="round" stroke-linejoin="round"/>
<path d="M717.625 269.223L721.574 262.111" stroke="#C4F5F5" stroke-width="2.54626" stroke-linecap="round" stroke-linejoin="round"/>
<path d="M731.859 284.615L738.968 280.273" stroke="#C4F5F5" stroke-width="2.54626" stroke-linecap="round" stroke-linejoin="round"/>
<path d="M186.229 306.208L179.758 301.274" stroke="#C4F5F5" stroke-width="2.54626" stroke-linecap="round" stroke-linejoin="round"/>
<path d="M203.524 294.362L200.25 286.703" stroke="#C4F5F5" stroke-width="2.54626" stroke-linecap="round" stroke-linejoin="round"/>
<path d="M441.141 81.4732C441.351 80.7667 441.669 80.0855 442.077 79.4744C442.988 78.1122 444.351 77.0873 445.886 76.6035" stroke="#00BFE6" stroke-width="2.54626" stroke-linecap="round" stroke-linejoin="round"/>
<path d="M445.246 153.493H455.647C459.679 153.493 462.946 150.386 462.946 146.553V140.238C462.946 139.086 461.965 138.156 460.755 138.156H440.144C438.934 138.156 437.953 139.086 437.953 140.238V146.553C437.953 150.386 441.221 153.493 445.252 153.493H445.246Z" fill="#FF5C4D"/>
<path d="M472.687 100.927C474.388 109.788 474.216 122.477 467.968 137.686C466.484 141.302 463.006 143.651 459.165 143.651H435.605C426.72 125.794 426.262 110.928 428.179 100.933C430.243 90.161 439.707 82.5469 450.427 82.5469C461.146 82.5469 470.611 90.161 472.674 100.933L472.687 100.927Z" fill="#FF5C4D"/>
<path d="M472.687 107.882C470.623 97.8738 461.159 90.8008 450.439 90.8008C439.72 90.8008 430.255 97.8738 428.191 107.882C427.179 112.784 426.835 118.953 428.038 126.121C428.637 129.699 433.032 138.447 435.739 143.597C437.019 146.029 439.63 147.57 442.497 147.57H458.407C461.26 147.57 463.872 146.042 465.152 143.616C467.84 138.536 472.19 129.947 472.795 126.44C474.063 119.137 473.719 112.86 472.693 107.888L472.687 107.882Z" fill="#FFBB99"/>
<path d="M442.49 147.573H458.4C461.253 147.573 463.865 146.045 465.145 143.62C467.833 138.539 472.183 129.945 472.795 126.437V119.504C472.795 119.504 466.788 131.415 464.712 135.553C462.948 139.08 459.203 141.328 455.101 141.328H446.044C441.936 141.328 438.197 139.08 436.433 135.553C435.019 132.733 427.273 119.504 427.273 119.504L428.038 126.125C428.637 129.696 433.031 138.45 435.745 143.601C437.025 146.032 439.636 147.573 442.502 147.573H442.49Z" fill="#FF5C4D"/>
<path d="M472.687 107.882C470.623 97.8738 461.159 90.8008 450.439 90.8008C439.72 90.8008 430.255 97.8738 428.191 107.882C427.179 112.784 426.835 118.953 428.038 126.121C428.637 129.699 433.032 138.447 435.739 143.597C437.019 146.029 439.63 147.57 442.497 147.57H458.407C461.26 147.57 463.872 146.042 465.152 143.616C467.84 138.536 472.19 129.947 472.795 126.44C474.063 119.137 473.719 112.86 472.693 107.888L472.687 107.882Z" stroke="#4D1F1F" stroke-width="2.54626" stroke-linecap="round" stroke-linejoin="round"/>
<path d="M435.094 103.218C438.234 102.123 443.004 102.721 445.629 104.758L445.788 103.32L440.438 102.804" stroke="#4D1F1F" stroke-width="2.54626" stroke-linecap="round" stroke-linejoin="round"/>
<path d="M465.46 103.325C462.345 102.16 457.568 102.676 454.893 104.649L454.766 103.204L460.587 102.771" stroke="#4D1F1F" stroke-width="2.54626" stroke-linecap="round" stroke-linejoin="round"/>
<path d="M454.606 96.35L450.434 97.9479L446.262 96.35C443.103 95.1404 441.109 92.6639 441.109 89.9518V81.2617H459.758V89.9518C459.758 92.6575 457.765 95.134 454.606 96.35Z" fill="#FFE88C"/>
<path d="M452.823 87.8197C454.111 87.8197 455.154 87.0188 455.154 86.0309C455.154 85.043 454.111 84.2422 452.823 84.2422C451.536 84.2422 450.492 85.043 450.492 86.0309C450.492 87.0188 451.536 87.8197 452.823 87.8197Z" fill="#FF5C4D"/>
<path d="M459.758 81.2617V89.9518C459.758 92.6575 457.765 95.134 454.606 96.35L450.434 97.9479L446.262 96.35C443.103 95.1404 441.109 92.6639 441.109 89.9518V81.2617" stroke="#4D1F1F" stroke-width="2.54626" stroke-linecap="round" stroke-linejoin="round"/>
<path d="M418.499 86.0261L413.977 81.4746" stroke="#4D1F1F" stroke-width="2.54626" stroke-linecap="round" stroke-linejoin="round"/>
<path d="M449.109 112.637L441.453 117.233L446.472 122.256" stroke="#4D1F1F" stroke-width="2.54626" stroke-linecap="round" stroke-linejoin="round"/>
<path d="M444.706 109.37C443.445 108.078 441.866 107.359 440.286 107.353C438.707 107.346 437.12 108.059 435.859 109.339" stroke="#4D1F1F" stroke-width="2.54626" stroke-linecap="round" stroke-linejoin="round"/>
<path d="M464.152 109.203C462.846 107.955 461.241 107.299 459.661 107.35C458.082 107.401 456.521 108.172 455.305 109.502" stroke="#4D1F1F" stroke-width="2.54626" stroke-linecap="round" stroke-linejoin="round"/>
<path d="M440.281 109.303V111.028" stroke="#4D1F1F" stroke-width="3.81939" stroke-linecap="round" stroke-linejoin="round"/>
<path d="M459.688 109.303V111.028" stroke="#4D1F1F" stroke-width="3.81939" stroke-linecap="round" stroke-linejoin="round"/>
<path d="M420.555 115.336C424.873 114.979 428.382 111.503 430.249 107.6C432.115 103.698 432.714 99.3305 433.714 95.116C434.713 90.9078 436.274 86.5978 439.522 83.7393C439.522 83.7393 430.892 82.5042 423.962 97.9426" fill="#4D1F1F"/>
<path d="M420.555 115.336C424.873 114.979 428.382 111.503 430.249 107.6C432.115 103.698 432.714 99.3305 433.714 95.116C434.713 90.9078 436.274 86.5978 439.522 83.7393C439.522 83.7393 430.892 82.5042 423.962 97.9426" stroke="#4D1F1F" stroke-width="2.54626" stroke-linecap="round" stroke-linejoin="round"/>
<path d="M461.781 83.9294C466.144 83.2673 470.806 85.1645 473.462 88.6851C475.507 91.3908 476.335 94.8031 476.953 98.1391C477.571 101.475 478.042 104.894 479.52 107.95C480.991 111.005 483.711 113.698 487.074 114.125" stroke="#00BFE6" stroke-width="2.54626" stroke-linecap="round" stroke-linejoin="round"/>
<path d="M452.008 127.324C455.097 128.368 458.689 127.802 461.307 125.86" stroke="#4D1F1F" stroke-width="2.54626" stroke-linecap="round" stroke-linejoin="round"/>
</g>
<defs>
<linearGradient id="paint0_linear_379_78962" x1="644.254" y1="85.6875" x2="644.254" y2="496.869" gradientUnits="userSpaceOnUse">
<stop stop-color="#C4F5F5"/>
<stop offset="1" stop-color="#DAF8F7"/>
</linearGradient>
<linearGradient id="paint1_linear_379_78962" x1="644.254" y1="85.6875" x2="644.254" y2="496.869" gradientUnits="userSpaceOnUse">
<stop offset="0.68" stop-color="#C4F5F5"/>
<stop offset="1" stop-color="#DAF8F7"/>
</linearGradient>
<clipPath id="clip0_379_78962">
<rect width="738.242" height="584.907" fill="white" transform="translate(0.757812 0.175781)"/>
</clipPath>
</defs>
</svg>
