<svg width="161.000000" height="378.000000" viewBox="0 0 161 378" fill="none" xmlns="http://www.w3.org/2000/svg" xmlns:xlink="http://www.w3.org/1999/xlink">
	<desc>
			Created with Pixso.
	</desc>
	<defs/>
	<path id="Vector" d="M0 371.76C0 375.2 36.04 378 80.5 378C124.95 378 161 375.2 161 371.76C161 368.31 124.95 365.52 80.5 365.52C36.04 365.52 0 368.31 0 371.76Z" fill="#4D1F1F" fill-opacity="1.000000" fill-rule="evenodd"/>
	<path id="Vector" d="M113.9 249.44L47.06 249.44L47.06 293.12L113.9 293.12L113.9 249.44Z" fill="#4D1F1F" fill-opacity="1.000000" fill-rule="evenodd"/>
	<path id="Vector" d="M80.22 218.78L80.51 218.78L120.12 218.78L113.93 287.42L80.22 287.42L47.09 287.42L40.9 218.78L80.22 218.78Z" fill="#4D1F1F" fill-opacity="1.000000" fill-rule="nonzero"/>
	<path id="Vector" d="M123.18 293.12L123.18 302.11C123.18 304.43 122.99 306.75 122.61 309.03C120.93 319.2 120.08 329.5 120.08 339.81L120.08 346.68C120.08 352.49 121.43 358.22 124 363.42L125.74 366.93C126.09 367.63 126.27 368.4 126.27 369.19C126.27 371.98 124.03 374.24 121.26 374.24L100.32 374.24C97.55 374.24 95.31 371.98 95.31 369.19C95.31 368.4 95.49 367.63 95.83 366.93L97.7 363.17C100.16 358.2 100.91 352.56 99.83 347.12L98.09 338.31C96.24 328.99 93.82 319.79 90.83 310.77C89.7 307.34 89.12 303.75 89.12 300.13L89.12 293.11C89.12 289.66 91.89 286.87 95.31 286.87L116.98 286.87C120.4 286.87 123.17 289.66 123.17 293.11L123.18 293.12Z" fill="#00BFE6" fill-opacity="1.000000" fill-rule="nonzero"/>
	<path id="Vector" d="M120.08 339.82L120.08 346.69C120.08 350.12 120.55 353.52 121.47 356.8L110.82 356.8L110.82 286.89L116.98 286.89C120.4 286.89 123.18 289.69 123.18 293.13L123.18 302.13C123.18 304.45 122.98 306.76 122.6 309.05C120.92 319.22 120.08 329.52 120.08 339.83L120.08 339.82Z" fill="#C4F5F5" fill-opacity="1.000000" fill-rule="nonzero"/>
	<path id="Vector" d="M120.69 353.32C121.31 356.82 122.43 360.22 124.02 363.42L125.5 366.42L125.37 366.55C120.84 363.2 115.24 361.37 109.65 361.44C105.15 361.5 100.67 362.78 96.76 365.09L97.71 363.18C99.23 360.13 100.09 356.81 100.28 353.45C103.24 351.42 106.78 350.27 110.36 350.24C114.01 350.19 117.64 351.3 120.69 353.32L120.69 353.32Z" fill="#C4F5F5" fill-opacity="1.000000" fill-rule="nonzero"/>
	<path id="Vector" d="M125.76 366.94C126.1 367.64 126.28 368.41 126.28 369.2C126.28 371.98 124.04 374.24 121.28 374.24L100.33 374.24C97.57 374.24 95.32 371.98 95.32 369.2C95.32 368.41 95.5 367.64 95.85 366.94L97.71 363.18C100.18 358.21 100.93 352.57 99.85 347.12L98.1 338.32C96.25 329 93.83 319.8 90.85 310.77C89.71 307.35 89.13 303.75 89.13 300.14L89.13 293.11C89.13 289.67 91.91 286.87 95.32 286.87L110.84 286.87" stroke="#4D1F1F" stroke-opacity="1.000000" stroke-width="2.495645" stroke-linejoin="round" stroke-linecap="round"/>
	<path id="Vector" d="M123.81 369.2C123.81 368.8 123.71 368.41 123.54 368.05L121.8 364.55C119.07 359.03 117.62 352.85 117.62 346.69L117.62 339.82C117.62 329.4 118.48 318.91 120.18 308.63C120.53 306.48 120.71 304.29 120.71 302.11L120.71 293.11C120.71 291.05 119.05 289.37 117 289.37L95.32 289.37C93.27 289.37 91.61 291.05 91.61 293.11L91.61 300.14C91.61 303.49 92.14 306.81 93.19 309.98C96.19 319.07 98.67 328.43 100.53 337.83L102.28 346.63C103.46 352.59 102.62 358.86 99.93 364.3L98.07 368.05C97.89 368.41 97.8 368.8 97.8 369.2C97.8 370.6 98.93 371.75 100.33 371.75L121.28 371.75C122.68 371.75 123.81 370.61 123.81 369.2Z" stroke="#00BFE6" stroke-opacity="1.000000" stroke-width="2.495645" stroke-linejoin="round"/>
	<path id="Vector" d="M37.78 293.12L37.78 302.11C37.78 304.43 37.98 306.75 38.35 309.03C40.04 319.2 40.88 329.5 40.88 339.81L40.88 346.68C40.88 352.49 39.53 358.22 36.96 363.42L35.22 366.93C34.87 367.63 34.69 368.4 34.69 369.19C34.69 371.98 36.93 374.24 39.7 374.24L60.64 374.24C63.41 374.24 65.66 371.98 65.66 369.19C65.66 368.4 65.48 367.63 65.13 366.93L63.26 363.17C60.8 358.2 60.05 352.56 61.13 347.12L62.87 338.31C64.73 328.99 67.15 319.79 70.13 310.77C71.26 307.34 71.85 303.75 71.85 300.13L71.85 293.11C71.85 289.66 69.07 286.87 65.66 286.87L43.98 286.87C40.56 286.87 37.79 289.66 37.79 293.11L37.78 293.12Z" fill="#00BFE6" fill-opacity="1.000000" fill-rule="nonzero"/>
	<path id="Vector" d="M40.86 339.82L40.86 346.69C40.86 350.12 40.39 353.52 39.47 356.8L50.12 356.8L50.12 286.89L43.96 286.89C40.54 286.89 37.76 289.69 37.76 293.13L37.76 302.13C37.76 304.45 37.96 306.76 38.33 309.05C40.02 319.22 40.86 329.52 40.86 339.83L40.86 339.82Z" fill="#C4F5F5" fill-opacity="1.000000" fill-rule="nonzero"/>
	<path id="Vector" d="M40.28 353.32C39.65 356.82 38.54 360.22 36.94 363.42L35.46 366.42L35.6 366.55C40.13 363.2 45.73 361.37 51.31 361.44C55.82 361.5 60.3 362.78 64.2 365.09L63.25 363.18C61.73 360.13 60.87 356.81 60.68 353.45C57.73 351.42 54.18 350.27 50.6 350.24C46.95 350.19 43.32 351.3 40.28 353.32L40.28 353.32Z" fill="#C4F5F5" fill-opacity="1.000000" fill-rule="nonzero"/>
	<path id="Vector" d="M35.2 366.94C34.86 367.64 34.68 368.41 34.68 369.2C34.68 371.98 36.92 374.24 39.69 374.24L60.63 374.24C63.4 374.24 65.64 371.98 65.64 369.2C65.64 368.41 65.46 367.64 65.11 366.94L63.25 363.18C60.78 358.21 60.03 352.57 61.11 347.12L62.86 338.32C64.71 329 67.13 319.8 70.12 310.77C71.25 307.35 71.83 303.75 71.83 300.14L71.83 293.11C71.83 289.67 69.06 286.87 65.64 286.87L50.13 286.87" stroke="#4D1F1F" stroke-opacity="1.000000" stroke-width="2.495645" stroke-linejoin="round" stroke-linecap="round"/>
	<path id="Vector" d="M37.17 369.2C37.17 368.8 37.26 368.41 37.44 368.05L39.17 364.55C41.91 359.03 43.36 352.85 43.36 346.69L43.36 339.82C43.36 329.4 42.5 318.91 40.8 308.63C40.44 306.48 40.26 304.29 40.26 302.11L40.26 293.11C40.26 291.05 41.93 289.37 43.98 289.37L65.66 289.37C67.71 289.37 69.37 291.05 69.37 293.11L69.37 300.14C69.37 303.49 68.84 306.81 67.78 309.98C64.78 319.07 62.31 328.43 60.45 337.83L58.7 346.63C57.52 352.59 58.35 358.86 61.05 364.3L62.91 368.05C63.08 368.41 63.18 368.8 63.18 369.2C63.18 370.6 62.05 371.75 60.64 371.75L39.7 371.75C38.3 371.75 37.17 370.61 37.17 369.2Z" stroke="#00BFE6" stroke-opacity="1.000000" stroke-width="2.495645" stroke-linejoin="round"/>
	<path id="Vector" d="M116.09 247.59L118.05 251.54C119.38 254.21 119.71 257.26 118.99 260.15L114.47 278.38C112.41 286.7 100.93 287.35 97.94 279.32L90.72 259.91C89.67 257.11 89.14 254.14 89.14 251.15C89.14 246.76 92.67 243.19 97.03 243.19L109.03 243.19C112.02 243.19 114.76 244.9 116.09 247.59L116.09 247.59Z" fill="#00BFE6" fill-opacity="1.000000" fill-rule="nonzero"/>
	<path id="Vector" d="M115.39 259.25C115.89 257.22 115.66 255.08 114.74 253.22L112.77 249.26C112.06 247.83 110.63 246.93 109.04 246.93L97.04 246.93" stroke="#C4F5F5" stroke-opacity="1.000000" stroke-width="2.495645" stroke-linejoin="round" stroke-linecap="round"/>
	<path id="Vector" d="M89.13 243.19L89.13 251.15C89.13 254.15 89.66 257.11 90.71 259.91L97.93 279.32C100.92 287.35 112.4 286.7 114.46 278.38L118.98 260.15" stroke="#4D1F1F" stroke-opacity="1.000000" stroke-width="2.495645" stroke-linejoin="round" stroke-linecap="round"/>
	<path id="Vector" d="M44.91 247.59L42.94 251.54C41.62 254.21 41.29 257.26 42.01 260.15L46.53 278.38C48.59 286.7 60.07 287.35 63.06 279.32L70.28 259.91C71.32 257.11 71.86 254.14 71.86 251.15C71.86 246.76 68.33 243.19 63.97 243.19L51.97 243.19C48.98 243.19 46.25 244.9 44.91 247.59L44.91 247.59Z" fill="#00BFE6" fill-opacity="1.000000" fill-rule="nonzero"/>
	<path id="Vector" d="M45.58 259.25C45.08 257.22 45.32 255.08 46.24 253.22L48.21 249.26C48.92 247.83 50.35 246.93 51.94 246.93L63.94 246.93" stroke="#C4F5F5" stroke-opacity="1.000000" stroke-width="2.495645" stroke-linejoin="round" stroke-linecap="round"/>
	<path id="Vector" d="M71.86 243.19L71.86 251.15C71.86 254.15 71.33 257.11 70.28 259.91L63.06 279.32C60.07 287.35 48.59 286.7 46.53 278.38L42.01 260.15" stroke="#4D1F1F" stroke-opacity="1.000000" stroke-width="2.495645" stroke-linejoin="round" stroke-linecap="round"/>
	<path id="Vector" d="M28.92 202.54L33.35 185.82L38.23 167.35L43.17 148.68L49.53 124.63L43.39 115.35C39.32 109.2 37.15 101.97 37.15 94.58L37.15 62.24L64.72 62.24C70.8 62.24 76.57 64.93 80.5 69.6C84.42 64.93 90.19 62.24 96.26 62.24L123.84 62.24L123.84 94.58C123.84 101.98 121.67 109.2 117.6 115.35L111.46 124.63L132.07 202.54C134.17 210.47 128.24 218.24 120.1 218.24L40.88 218.24C32.75 218.24 26.82 210.46 28.92 202.54Z" fill="#00BFE6" fill-opacity="1.000000" fill-rule="nonzero"/>
	<path id="Vector" d="M43.46 162.09L32.5 203.51" stroke="#C4F5F5" stroke-opacity="1.000000" stroke-width="2.495645" stroke-linejoin="round" stroke-linecap="round"/>
	<path id="Vector" d="M128.49 203.51L117.53 162.09" stroke="#C4F5F5" stroke-opacity="1.000000" stroke-width="2.495645" stroke-linejoin="round" stroke-linecap="round"/>
	<path id="Vector" d="M123.85 62.24L94.61 56.11L66.39 56.11L37.16 62.24L80.5 69.6L123.85 62.24Z" fill="#4D1F1F" fill-opacity="1.000000" fill-rule="nonzero"/>
	<path id="Vector" d="M94.61 56.11L66.39 56.11L37.16 62.24L80.5 69.6L123.85 62.24L94.61 56.11Z" stroke="#4D1F1F" stroke-opacity="1.000000" stroke-width="2.495645" stroke-linejoin="round"/>
	<path id="Vector" d="M102.17 48.96C102.17 53.1 98.7 56.35 94.6 56.11C89.78 55.82 85.47 56.09 82.35 60.28C81.42 61.52 79.57 61.52 78.64 60.28C75.51 56.09 71.22 55.82 66.38 56.11C62.28 56.35 58.82 53.1 58.82 48.96L58.82 24.42C58.82 16.09 63.41 8.61 70.8 4.88L80.5 0L90.19 4.88C97.53 8.58 102.17 16.14 102.17 24.41L102.17 48.96L102.17 48.96Z" fill="#FF5C4D" fill-opacity="1.000000" fill-rule="nonzero"/>
	<path id="Vector" d="M98.45 24.42C98.45 17.52 94.65 11.32 88.52 8.23L80.49 4.19L72.46 8.23C66.33 11.32 62.53 17.52 62.53 24.42" stroke="#FFE88C" stroke-opacity="1.000000" stroke-width="2.495645" stroke-linejoin="round" stroke-linecap="round"/>
	<path id="Vector" d="M65.02 24.96L95.98 24.96L95.98 31.2L65.02 31.2L65.02 24.96Z" fill="#4D1F1F" fill-opacity="1.000000" fill-rule="nonzero"/>
	<path id="Vector" d="M65.02 24.96L65.02 31.2L95.98 31.2L95.98 24.96L65.02 24.96Z" stroke="#4D1F1F" stroke-opacity="1.000000" stroke-width="2.495645" stroke-linejoin="round"/>
	<path id="Vector" d="M49.53 124.64L43.39 115.35C39.32 109.2 37.15 101.97 37.15 94.58L37.15 62.24L41.98 101.23C42.76 107.48 48.03 112.16 54.28 112.16L106.72 112.16C112.97 112.16 118.23 107.48 119.01 101.23L123.85 62.24L123.85 94.58C123.85 101.98 121.68 109.21 117.6 115.35L111.46 124.64" stroke="#4D1F1F" stroke-opacity="1.000000" stroke-width="2.495645" stroke-linejoin="round" stroke-linecap="round"/>
	<path id="Vector" d="M38.24 167.36L38.22 167.4C36.43 174.17 41.49 180.8 48.43 180.8L112.56 180.8C119.51 180.8 124.56 174.17 122.77 167.4L122.3 165.6M122.77 167.4C124.56 174.17 119.5 180.8 112.56 180.8M48.43 180.8C41.49 180.8 36.43 174.17 38.22 167.4" stroke="#4D1F1F" stroke-opacity="1.000000" stroke-width="2.495645" stroke-linejoin="round" stroke-linecap="round"/>
	<path id="Vector" d="M33.35 185.82L33.27 186.12C31.48 192.88 36.54 199.51 43.48 199.51L117.52 199.51C124.46 199.51 129.52 192.88 127.73 186.12C129.52 192.88 124.46 199.51 117.52 199.51M43.48 199.51C36.53 199.51 31.48 192.88 33.27 186.12" stroke="#4D1F1F" stroke-opacity="1.000000" stroke-width="2.495645" stroke-linejoin="round" stroke-linecap="round"/>
	<path id="Vector" d="M132.08 202.53C134.17 210.46 128.25 218.23 120.11 218.23L40.89 218.23C32.75 218.23 26.83 210.45 28.92 202.53" stroke="#4D1F1F" stroke-opacity="1.000000" stroke-width="2.495645" stroke-linejoin="round" stroke-linecap="round"/>
	<path id="Vector" d="M106.73 112.16L54.28 112.16C48.03 112.16 42.77 107.47 41.99 101.23L37.16 62.24L64.73 62.24C70.8 62.24 76.57 64.93 80.5 69.6C84.42 64.93 90.2 62.24 96.27 62.24L123.85 62.24L119.01 101.23C118.24 107.47 112.97 112.16 106.72 112.16L106.73 112.16Z" fill="#C4F5F5" fill-opacity="1.000000" fill-rule="nonzero"/>
	<path id="Vector" d="M54.28 112.16C48.03 112.16 42.77 107.47 41.99 101.23L37.16 62.24L64.73 62.24C70.8 62.24 76.57 64.93 80.5 69.6C84.42 64.93 90.2 62.24 96.27 62.24L123.85 62.24L119.01 101.23C118.24 107.47 112.97 112.16 106.72 112.16L106.73 112.16L54.28 112.16Z" stroke="#00BFE6" stroke-opacity="1.000000" stroke-width="2.495645" stroke-linejoin="round"/>
	<path id="Vector" d="M81.72 69.62L81.74 69.6C81.74 68.9 81.19 68.35 80.5 68.35C79.8 68.35 79.25 68.9 79.25 69.6L79.27 69.62L81.72 69.62ZM79.27 112.14L79.25 112.16C79.25 112.86 79.8 113.41 80.5 113.41C81.19 113.41 81.74 112.86 81.74 112.16L81.72 112.14L79.27 112.14Z" fill="#C4F5F5" fill-opacity="1.000000" fill-rule="nonzero"/>
	<path id="Vector" d="M80.5 69.6L80.5 112.16" stroke="#00BFE6" stroke-opacity="1.000000" stroke-width="2.495645" stroke-linejoin="round" stroke-linecap="round"/>
	<path id="Vector" d="M12.39 93.44L12.39 143.36C12.39 153.7 20.7 162.08 30.96 162.08L38.72 162.08L65.06 147.07L40.29 130.42L49.54 93.43L12.39 93.43L12.39 93.44Z" fill="#4D1F1F" fill-opacity="1.000000" fill-rule="nonzero"/>
	<path id="Vector" d="M49.54 87.19L49.54 93.43C49.54 103.77 41.23 112.15 30.96 112.15C20.71 112.15 12.39 103.77 12.39 93.43L12.39 55.99L49.54 87.19Z" fill="#00BFE6" fill-opacity="1.000000" fill-rule="nonzero"/>
	<path id="Vector" d="M49.54 93.43C49.54 103.77 41.23 112.15 30.96 112.15C20.71 112.15 12.39 103.77 12.39 93.43L12.39 55.99L49.54 87.19L49.54 93.43Z" stroke="#4D1F1F" stroke-opacity="1.000000" stroke-width="2.495645" stroke-linejoin="round"/>
	<path id="Vector" d="M14.86 61.32L14.86 93.44C14.86 102.38 22.08 109.66 30.96 109.66" stroke="#C4F5F5" stroke-opacity="1.000000" stroke-width="2.495645" stroke-linejoin="round" stroke-linecap="round"/>
	<path id="Vector" d="M42.73 134.58C45.18 134.58 47.57 135.31 49.6 136.68L65.06 147.06L65.02 147.1C61.08 151.07 58.87 156.46 58.87 162.07L30.96 162.07C27.55 162.07 24.77 159.28 24.77 155.83L24.77 152.68C24.77 142.68 32.82 134.58 42.73 134.58L42.73 134.58Z" fill="#FFE88C" fill-opacity="1.000000" fill-rule="nonzero"/>
	<path id="Vector" d="M49.6 136.68L65.06 147.06L65.02 147.1C61.08 151.07 58.87 156.46 58.87 162.07L30.96 162.07C27.55 162.07 24.77 159.28 24.77 155.83L24.77 152.68C24.77 142.68 32.82 134.58 42.73 134.58L42.73 134.58C45.18 134.58 47.57 135.31 49.6 136.68Z" stroke="#FF5757" stroke-opacity="1.000000" stroke-width="2.495645" stroke-linejoin="round"/>
	<path id="Vector" d="M15.52 142.91C19.32 135.25 27.07 130.42 35.56 130.42C36.84 130.42 38.12 130.59 39.35 130.89" stroke="#00BFE6" stroke-opacity="1.000000" stroke-width="2.495645" stroke-linejoin="round" stroke-linecap="round"/>
	<path id="Vector" d="M49.54 87.19L24.77 87.19C17.93 87.19 12.39 81.61 12.39 74.71L12.39 55.99L49.54 87.19Z" fill="#4D1F1F" fill-opacity="1.000000" fill-rule="nonzero"/>
	<path id="Vector" d="M24.77 87.19C17.93 87.19 12.39 81.61 12.39 74.71L12.39 55.99L49.54 87.19L24.77 87.19Z" stroke="#4D1F1F" stroke-opacity="1.000000" stroke-width="2.495645" stroke-linejoin="round"/>
	<path id="Vector" d="M38.73 59.91L49.56 87.19L19.69 78.59C11.71 76.29 6.21 68.95 6.21 60.59C6.21 58.05 8.26 55.99 10.78 55.99L32.98 55.99C35.51 55.99 37.79 57.54 38.73 59.91Z" fill="#FFE88C" fill-opacity="1.000000" fill-rule="nonzero"/>
	<path id="Vector" d="M49.56 87.19L19.69 78.59C11.71 76.29 6.21 68.95 6.21 60.59C6.21 58.05 8.26 55.99 10.78 55.99L32.98 55.99C35.51 55.99 37.79 57.54 38.73 59.91L49.56 87.19Z" stroke="#FF5757" stroke-opacity="1.000000" stroke-width="2.495645" stroke-linejoin="round"/>
	<path id="Vector" d="M49.54 87.2L19.67 78.6C11.69 76.3 6.19 68.96 6.19 60.6" stroke="#4D1F1F" stroke-opacity="1.000000" stroke-width="2.495645" stroke-linejoin="round" stroke-linecap="round"/>
	<path id="Vector" d="M45.35 83.4L36.4 60.84C35.83 59.41 34.48 58.49 32.95 58.49L10.75 58.49C9.59 58.49 8.66 59.43 8.66 60.59" stroke="#FBFCF9" stroke-opacity="1.000000" stroke-width="2.495645" stroke-linejoin="round" stroke-linecap="round"/>
	<path id="Vector" d="M61.31 147.56L48.21 138.76C46.58 137.66 44.67 137.08 42.71 137.08C34.17 137.08 27.23 144.08 27.23 152.68L27.23 155.83" stroke="#FBFCF9" stroke-opacity="1.000000" stroke-width="2.495645" stroke-linejoin="round" stroke-linecap="round"/>
	<path id="Vector" d="M81.15 159.59L81.15 149.57L66.12 149.57C63.58 152.41 61.99 155.87 61.5 159.59" stroke="#FBFCF9" stroke-opacity="1.000000" stroke-width="2.495645" stroke-linejoin="round" stroke-linecap="round"/>
	<path id="Vector" d="M27.23 155.83C27.23 157.9 28.9 159.58 30.95 159.58L56.5 159.58C56.96 155.18 58.61 151.04 61.31 147.55M28.46 155.85L28.48 155.83C28.48 155.14 27.93 154.59 27.23 154.59C26.53 154.59 25.98 155.14 25.98 155.83L26 155.85L28.46 155.85ZM62.26 148.32L62.3 148.32C62.72 147.77 62.62 146.99 62.07 146.57C61.52 146.14 60.75 146.24 60.32 146.79L60.32 146.82L62.26 148.32Z" fill="#FFE88C" fill-opacity="1.000000" fill-rule="nonzero"/>
	<path id="Vector" d="M27.23 155.83C27.23 157.9 28.9 159.58 30.95 159.58L56.5 159.58C56.96 155.18 58.61 151.04 61.31 147.55" stroke="#FF5757" stroke-opacity="1.000000" stroke-width="2.495645" stroke-linejoin="round" stroke-linecap="round"/>
	<path id="Vector" d="M61.52 158.36L61.5 158.34C60.8 158.34 60.26 158.89 60.26 159.59C60.26 160.28 60.8 160.83 61.5 160.83L61.52 160.81L61.52 158.36ZM81.13 160.81L81.15 160.83C81.85 160.83 82.4 160.28 82.4 159.59C82.4 158.89 81.85 158.34 81.15 158.34L81.13 158.36L81.13 160.81Z" fill="#C4F5F5" fill-opacity="1.000000" fill-rule="nonzero"/>
	<path id="Vector" d="M61.5 159.59L81.15 159.59" stroke="#00BFE6" stroke-opacity="1.000000" stroke-width="2.495645" stroke-linejoin="round" stroke-linecap="round"/>
	<path id="Vector" d="M76.78 128.34L84.21 128.34L84.21 147.06L76.78 147.06L76.78 128.34Z" fill="#4D1F1F" fill-opacity="1.000000" fill-rule="nonzero"/>
	<path id="Vector" d="M76.78 128.34L76.78 147.06L84.21 147.06L84.21 128.34L76.78 128.34Z" stroke="#4D1F1F" stroke-opacity="1.000000" stroke-width="2.495645" stroke-linejoin="round"/>
	<path id="Vector" d="M8.67 60.6C8.67 67.8 13.47 74.22 20.35 76.2L50.13 84.77M9.9 60.62L9.92 60.6C9.92 59.9 9.37 59.35 8.67 59.35C7.97 59.35 7.42 59.9 7.42 60.6L7.44 60.62L9.9 60.62ZM49.77 85.95L49.78 85.97C50.46 86.16 51.13 85.79 51.33 85.12C51.52 84.44 51.14 83.77 50.47 83.57L50.45 83.59L49.77 85.95Z" fill="#FFE88C" fill-opacity="1.000000" fill-rule="nonzero"/>
	<path id="Vector" d="M8.67 60.6C8.67 67.8 13.47 74.22 20.35 76.2L50.13 84.77" stroke="#FF5757" stroke-opacity="1.000000" stroke-width="2.495645" stroke-linejoin="round" stroke-linecap="round"/>
	<path id="Vector" d="M43.17 148.68L45.19 141.08C46.76 141.4 48.26 142.02 49.6 142.92L65.06 153.31L95.95 153.31L111.41 142.92C112.75 142.02 114.25 141.4 115.82 141.08L123.03 168.32L102.18 168.32C105.6 168.32 108.37 171.12 108.37 174.56L108.37 183.18C108.37 185.31 106.66 187.04 104.54 187.04C103.09 187.04 101.77 186.22 101.12 184.91L97.69 178C96.65 175.89 94.5 174.55 92.16 174.55L68.85 174.55C66.5 174.55 64.36 175.89 63.32 178L59.89 184.91C59.24 186.21 57.91 187.04 56.46 187.04C54.35 187.04 52.64 185.31 52.64 183.18L52.64 174.56C52.64 171.12 55.41 168.32 58.83 168.32L37.98 168.32L38.23 167.36L43.17 148.68Z" fill="#4D1F1F" fill-opacity="1.000000" fill-rule="nonzero"/>
	<path id="Vector" d="M45.19 141.08C46.76 141.4 48.26 142.02 49.6 142.92L65.06 153.31L95.95 153.31L111.41 142.92C112.75 142.02 114.25 141.4 115.82 141.08L123.03 168.32L102.18 168.32C105.6 168.32 108.37 171.12 108.37 174.56L108.37 183.18C108.37 185.31 106.66 187.04 104.54 187.04C103.09 187.04 101.77 186.22 101.12 184.91L97.69 178C96.65 175.89 94.5 174.55 92.16 174.55L68.85 174.55C66.5 174.55 64.36 175.89 63.32 178L59.89 184.91C59.24 186.21 57.91 187.04 56.46 187.04C54.35 187.04 52.64 185.31 52.64 183.18L52.64 174.56C52.64 171.12 55.41 168.32 58.83 168.32L37.98 168.32L38.23 167.36L43.17 148.68L45.19 141.08Z" stroke="#4D1F1F" stroke-opacity="1.000000" stroke-width="2.495645" stroke-linejoin="round"/>
	<path id="Vector" d="M148.62 93.44L148.62 143.36C148.62 153.7 140.3 162.08 130.04 162.08L122.28 162.08L95.95 147.07L120.72 130.42L111.47 93.43L148.62 93.43L148.62 93.44Z" fill="#4D1F1F" fill-opacity="1.000000" fill-rule="nonzero"/>
	<path id="Vector" d="M111.46 87.2L111.46 93.44C111.46 103.78 119.78 112.16 130.03 112.16C140.3 112.16 148.61 103.78 148.61 93.44L148.61 56L111.46 87.2Z" fill="#00BFE6" fill-opacity="1.000000" fill-rule="nonzero"/>
	<path id="Vector" d="M111.46 93.44C111.46 103.78 119.78 112.16 130.03 112.16C140.3 112.16 148.61 103.78 148.61 93.44L148.61 56L111.46 87.2L111.46 93.44Z" stroke="#4D1F1F" stroke-opacity="1.000000" stroke-width="2.495645" stroke-linejoin="round"/>
	<path id="Vector" d="M146.14 61.33L146.14 93.44C146.14 102.39 138.92 109.66 130.03 109.66" stroke="#C4F5F5" stroke-opacity="1.000000" stroke-width="2.495645" stroke-linejoin="round" stroke-linecap="round"/>
	<path id="Vector" d="M118.27 134.58C115.83 134.58 113.44 135.31 111.41 136.68L95.95 147.06L95.99 147.1C99.92 151.07 102.14 156.46 102.14 162.07L130.05 162.07C133.46 162.07 136.24 159.28 136.24 155.83L136.24 152.68C136.24 142.68 128.19 134.58 118.27 134.58L118.27 134.58Z" fill="#FFE88C" fill-opacity="1.000000" fill-rule="nonzero"/>
	<path id="Vector" d="M111.41 136.68L95.95 147.06L95.99 147.1C99.92 151.07 102.14 156.46 102.14 162.07L130.05 162.07C133.46 162.07 136.24 159.28 136.24 155.83L136.24 152.68C136.24 142.68 128.19 134.58 118.27 134.58L118.27 134.58C115.83 134.58 113.44 135.31 111.41 136.68Z" stroke="#FF5757" stroke-opacity="1.000000" stroke-width="2.495645" stroke-linejoin="round"/>
	<path id="Vector" d="M101.05 155.36C101.77 157.5 102.14 159.77 102.14 162.08L130.05 162.08C133.46 162.08 136.24 159.28 136.24 155.84L136.24 152.68C136.24 149.57 135.46 146.64 134.08 144.09L101.05 155.36L101.05 155.36Z" fill="#FF5757" fill-opacity="1.000000" fill-rule="nonzero"/>
	<path id="Vector" d="M65.01 147.11L65.05 147.07L95.94 147.07L95.97 147.11C99.91 151.08 102.13 156.46 102.13 162.08L58.85 162.08C58.85 156.46 61.07 151.08 65.01 147.11Z" fill="#C4F5F5" fill-opacity="1.000000" fill-rule="nonzero"/>
	<path id="Vector" d="M65.05 147.07L95.94 147.07L95.97 147.11C99.91 151.08 102.13 156.46 102.13 162.08L58.85 162.08C58.85 156.46 61.07 151.08 65.01 147.11L65.05 147.07Z" stroke="#00BFE6" stroke-opacity="1.000000" stroke-width="2.495645" stroke-linejoin="round"/>
	<path id="Vector" d="M145.48 142.9C141.68 135.25 133.92 130.42 125.44 130.42C124.16 130.42 122.88 130.58 121.65 130.89" stroke="#00BFE6" stroke-opacity="1.000000" stroke-width="2.495645" stroke-linejoin="round" stroke-linecap="round"/>
	<path id="Vector" d="M111.46 87.2L136.23 87.2C143.07 87.2 148.61 81.61 148.61 74.72L148.61 56L111.46 87.2Z" fill="#4D1F1F" fill-opacity="1.000000" fill-rule="nonzero"/>
	<path id="Vector" d="M136.23 87.2C143.07 87.2 148.61 81.61 148.61 74.72L148.61 56L111.46 87.2L136.23 87.2Z" stroke="#4D1F1F" stroke-opacity="1.000000" stroke-width="2.495645" stroke-linejoin="round"/>
	<path id="Vector" d="M122.29 59.91L111.46 87.19L141.34 78.59C149.31 76.29 154.81 68.95 154.81 60.59C154.81 58.05 152.77 55.99 150.25 55.99L128.04 55.99C125.51 55.99 123.23 57.54 122.29 59.91Z" fill="#FFE88C" fill-opacity="1.000000" fill-rule="nonzero"/>
	<path id="Vector" d="M111.46 87.19L141.34 78.59C149.31 76.29 154.81 68.95 154.81 60.59C154.81 58.05 152.77 55.99 150.25 55.99L128.04 55.99C125.51 55.99 123.23 57.54 122.29 59.91L111.46 87.19Z" stroke="#FF5757" stroke-opacity="1.000000" stroke-width="2.495645" stroke-linejoin="round"/>
	<path id="Vector" d="M111.46 87.19L141.34 78.6C149.31 76.3 154.81 68.95 154.81 60.59" stroke="#4D1F1F" stroke-opacity="1.000000" stroke-width="2.495645" stroke-linejoin="round" stroke-linecap="round"/>
	<path id="Vector" d="M115.64 83.4L124.6 60.84C125.17 59.41 126.52 58.49 128.05 58.49L150.25 58.49C151.41 58.49 152.34 59.43 152.34 60.59" stroke="#FBFCF9" stroke-opacity="1.000000" stroke-width="2.495645" stroke-linejoin="round" stroke-linecap="round"/>
	<path id="Vector" d="M99.68 147.55L112.78 138.75C114.41 137.65 116.31 137.07 118.27 137.07C126.81 137.07 133.76 144.08 133.76 152.67L133.76 155.83" stroke="#FBFCF9" stroke-opacity="1.000000" stroke-width="2.495645" stroke-linejoin="round" stroke-linecap="round"/>
	<path id="Vector" d="M152.33 60.59C152.33 67.8 147.53 74.22 140.65 76.19L112.63 84.26M153.56 60.61L153.58 60.59C153.58 59.89 153.03 59.34 152.33 59.34C151.63 59.34 151.09 59.89 151.09 60.59L151.1 60.61L153.56 60.61ZM112.3 83.08L112.28 83.06C111.61 83.26 111.23 83.94 111.43 84.61C111.62 85.28 112.3 85.65 112.97 85.46L112.98 85.44L112.3 83.08Z" fill="#FFE88C" fill-opacity="1.000000" fill-rule="nonzero"/>
	<path id="Vector" d="M152.33 60.59C152.33 67.8 147.53 74.22 140.65 76.19L112.63 84.26" stroke="#FF5757" stroke-opacity="1.000000" stroke-width="2.495645" stroke-linejoin="round" stroke-linecap="round"/>
	<path id="Vector" d="M108.36 168.32L108.36 176.94C108.36 179.07 106.65 180.8 104.53 180.8C103.09 180.8 101.76 179.97 101.11 178.66L97.69 171.76C96.64 169.65 94.49 168.31 92.15 168.31L68.84 168.31C66.5 168.31 64.35 169.65 63.31 171.76L59.88 178.66C59.23 179.97 57.91 180.8 56.46 180.8C54.35 180.8 52.63 179.07 52.63 176.94L52.63 168.32C52.63 164.87 55.41 162.08 58.82 162.08L102.17 162.08C105.59 162.08 108.36 164.87 108.36 168.32Z" fill="#FFE88C" fill-opacity="1.000000" fill-rule="nonzero"/>
	<path id="Vector" d="M108.36 176.94C108.36 179.07 106.65 180.8 104.53 180.8C103.09 180.8 101.76 179.97 101.11 178.66L97.69 171.76C96.64 169.65 94.49 168.31 92.15 168.31L68.84 168.31C66.5 168.31 64.35 169.65 63.31 171.76L59.88 178.66C59.23 179.97 57.91 180.8 56.46 180.8C54.35 180.8 52.63 179.07 52.63 176.94L52.63 168.32C52.63 164.87 55.41 162.08 58.82 162.08L102.17 162.08C105.59 162.08 108.36 164.87 108.36 168.32L108.36 176.94Z" stroke="#FF5757" stroke-opacity="1.000000" stroke-width="2.495645" stroke-linejoin="round"/>
	<path id="Vector" d="M42.73 134.58C45.18 134.58 47.57 135.31 49.6 136.68L65.06 147.06L65.02 147.1C61.08 151.07 58.87 156.46 58.87 162.07L30.96 162.07C27.55 162.07 24.77 159.28 24.77 155.83L24.77 152.68C24.77 142.68 32.82 134.58 42.73 134.58L42.73 134.58Z" fill="#FFE88C" fill-opacity="1.000000" fill-rule="nonzero"/>
	<path id="Vector" d="M49.6 136.68L65.06 147.06L65.02 147.1C61.08 151.07 58.87 156.46 58.87 162.07L30.96 162.07C27.55 162.07 24.77 159.28 24.77 155.83L24.77 152.68C24.77 142.68 32.82 134.58 42.73 134.58L42.73 134.58C45.18 134.58 47.57 135.31 49.6 136.68Z" stroke="#FF5757" stroke-opacity="1.000000" stroke-width="2.495645" stroke-linejoin="round"/>
	<path id="Vector" d="M59.96 155.36C59.25 157.5 58.87 159.77 58.87 162.08L30.96 162.08C27.55 162.08 24.77 159.28 24.77 155.84L24.77 152.69C24.77 149.57 25.55 146.65 26.93 144.09L59.96 155.36L59.96 155.36Z" fill="#FF5757" fill-opacity="1.000000" fill-rule="nonzero"/>
	<path id="Vector" d="M65.02 147.1L65.06 147.06L95.94 147.06L95.98 147.1C99.92 151.07 102.14 156.45 102.14 162.07L58.86 162.07C58.86 156.45 61.08 151.07 65.02 147.1Z" fill="#C4F5F5" fill-opacity="1.000000" fill-rule="nonzero"/>
	<path id="Vector" d="M65.06 147.06L95.94 147.06L95.98 147.1C99.92 151.07 102.14 156.45 102.14 162.07L58.86 162.07C58.86 156.45 61.08 151.07 65.02 147.1L65.06 147.06Z" stroke="#00BFE6" stroke-opacity="1.000000" stroke-width="2.495645" stroke-linejoin="round"/>
	<path id="Vector" d="M108.36 168.32L108.36 176.94C108.36 179.07 106.65 180.8 104.53 180.8C103.09 180.8 101.76 179.97 101.11 178.66L97.69 171.76C96.64 169.65 94.49 168.31 92.15 168.31L68.84 168.31C66.5 168.31 64.35 169.65 63.31 171.76L59.88 178.66C59.23 179.97 57.91 180.8 56.46 180.8C54.35 180.8 52.63 179.07 52.63 176.94L52.63 168.32C52.63 164.87 55.41 162.08 58.82 162.08L102.17 162.08C105.59 162.08 108.36 164.87 108.36 168.32Z" fill="#FFE88C" fill-opacity="1.000000" fill-rule="nonzero"/>
	<path id="Vector" d="M108.36 176.94C108.36 179.07 106.65 180.8 104.53 180.8C103.09 180.8 101.76 179.97 101.11 178.66L97.69 171.76C96.64 169.65 94.49 168.31 92.15 168.31L68.84 168.31C66.5 168.31 64.35 169.65 63.31 171.76L59.88 178.66C59.23 179.97 57.91 180.8 56.46 180.8C54.35 180.8 52.63 179.07 52.63 176.94L52.63 168.32C52.63 164.87 55.41 162.08 58.82 162.08L102.17 162.08C105.59 162.08 108.36 164.87 108.36 168.32L108.36 176.94Z" stroke="#FF5757" stroke-opacity="1.000000" stroke-width="2.495645" stroke-linejoin="round"/>
	<path id="Vector" d="M66.16 149.57L77.97 149.57" stroke="#FBFCF9" stroke-opacity="1.000000" stroke-width="2.495645" stroke-linejoin="round" stroke-linecap="round"/>
	<path id="Vector" d="M80.8 130.88C75.67 130.88 71.51 126.69 71.51 121.52C71.51 116.35 75.67 112.16 80.8 112.16C85.93 112.16 90.09 116.35 90.09 121.52C90.09 126.69 85.93 130.88 80.8 130.88Z" fill="#FFE88C" fill-opacity="1.000000" fill-rule="nonzero"/>
	<path id="Vector" d="M80.8 130.88C85.93 130.88 90.09 126.69 90.09 121.52C90.09 116.35 85.93 112.16 80.8 112.16C75.67 112.16 71.51 116.35 71.51 121.52C71.51 126.69 75.67 130.88 80.8 130.88Z" stroke="#FF5C4D" stroke-opacity="1.000000" stroke-width="2.495645" stroke-linejoin="round"/>
	<path id="Vector" d="M77.09 117.15C77.09 119.22 78.75 120.89 80.8 120.89C82.85 120.89 84.52 119.22 84.52 117.15C84.52 115.08 82.85 113.41 80.8 113.41C78.75 113.41 77.09 115.08 77.09 117.15Z" fill="#FBFCF9" fill-opacity="1.000000" fill-rule="evenodd"/>
	<path id="Vector" d="M80.81 126.39C84.07 126.39 86.8 124.16 87.62 121.14C87.78 121.74 87.87 122.37 87.87 123.02C87.87 126.95 84.71 130.13 80.81 130.13C76.91 130.13 73.75 126.95 73.75 123.02C73.75 122.37 73.84 121.74 74.01 121.14C74.82 124.16 77.55 126.39 80.81 126.39Z" fill="#FF5C4D" fill-opacity="1.000000" fill-rule="nonzero"/>
	<path id="Vector" d="M71.51 121.52C71.51 126.68 75.67 130.88 80.8 130.88C85.93 130.88 90.09 126.68 90.09 121.52" stroke="#4D1F1F" stroke-opacity="1.000000" stroke-width="2.495645" stroke-linejoin="round" stroke-linecap="round"/>
	<path id="Vector" d="M102.17 24.42L102.17 48.96C102.17 53.1 98.7 56.35 94.6 56.11C89.78 55.82 85.47 56.09 82.35 60.28C81.42 61.53 79.57 61.53 78.64 60.28C75.51 56.09 71.22 55.82 66.38 56.11C62.28 56.35 58.82 53.1 58.82 48.96L58.82 24.42" stroke="#4D1F1F" stroke-opacity="1.000000" stroke-width="2.495645" stroke-linejoin="round" stroke-linecap="round"/>
	<path id="Vector" d="M80.5 43.69L80.5 56.17" stroke="#4D1F1F" stroke-opacity="1.000000" stroke-width="2.495645" stroke-linejoin="round" stroke-linecap="round"/>
	<path id="Vector" d="M65.02 33.7L95.98 33.7" stroke="#FFE88C" stroke-opacity="1.000000" stroke-width="2.495645" stroke-linejoin="round" stroke-linecap="round"/>
	<path id="Vector" d="M80.66 105.24L86.19 102.45C90.42 100.33 93.04 96.05 93.04 91.29L93.04 76.51L68.27 76.51L68.27 91.29C68.27 96.04 70.9 100.33 75.12 102.45L80.66 105.24Z" fill="#FFE88C" fill-opacity="1.000000" fill-rule="nonzero"/>
	<path id="Vector" d="M86.19 102.45C90.42 100.33 93.04 96.05 93.04 91.29L93.04 76.51L68.27 76.51L68.27 91.29C68.27 96.04 70.9 100.33 75.12 102.45L80.66 105.24L86.19 102.45Z" stroke="#FF5757" stroke-opacity="1.000000" stroke-width="2.495645" stroke-linejoin="round"/>
	<path id="Vector" d="M77.11 88.45C78.77 88.45 80.12 87.09 80.12 85.42C80.12 83.75 78.77 82.39 77.11 82.39C75.45 82.39 74.1 83.75 74.1 85.42C74.1 87.09 75.45 88.45 77.11 88.45Z" fill="#00BFE6" fill-opacity="1.000000" fill-rule="nonzero"/>
	<path id="Vector" d="M77.12 83.64C76.14 83.64 75.34 84.44 75.34 85.42C75.34 86.41 76.14 87.21 77.12 87.21C78.09 87.21 78.89 86.41 78.89 85.42C78.89 84.44 78.09 83.64 77.12 83.64ZM77.12 81.14C79.46 81.14 81.36 83.07 81.36 85.42C81.36 87.78 79.46 89.71 77.12 89.71C74.77 89.71 72.87 87.78 72.87 85.42C72.87 83.07 74.77 81.14 77.12 81.14Z" fill="#FF5757" fill-opacity="1.000000" fill-rule="nonzero"/>
	<path id="Vector" d="M68.27 91.29C68.27 96.04 70.9 100.32 75.12 102.45L80.66 105.24L86.19 102.45C90.42 100.32 93.04 96.05 93.04 91.29" stroke="#4D1F1F" stroke-opacity="1.000000" stroke-width="2.495645" stroke-linejoin="round" stroke-linecap="round"/>
	<path id="Vector" d="M71.83 162.09L71.83 349.3L80.5 374.26L80.5 162.09L71.83 162.09Z" fill="#00BFE6" fill-opacity="1.000000" fill-rule="nonzero"/>
	<path id="Vector" d="M80.51 162.09L80.51 374.26L89.17 349.3L89.17 162.09L80.51 162.09Z" fill="#C4F5F5" fill-opacity="1.000000" fill-rule="nonzero"/>
	<path id="Vector" d="M71.83 162.04L71.83 349.3L80.51 374.26L89.17 349.3L89.17 176.42" stroke="#4D1F1F" stroke-opacity="1.000000" stroke-width="2.495645" stroke-linejoin="round" stroke-linecap="round"/>
	<path id="Vector" d="M95.98 147.1C99.92 151.07 102.14 156.46 102.14 162.07C98.4 162.07 95.06 164.39 93.71 167.9L91.45 173.82C90.5 176.31 87.77 177.6 85.26 176.76L75.53 173.49C73.07 172.66 71.66 170.07 72.29 167.54L75.73 153.68C76.69 149.79 80.16 147.07 84.14 147.07L95.94 147.07M96.87 146.25L96.87 146.22C96.37 145.73 95.6 145.73 95.1 146.22C94.6 146.71 94.6 147.49 95.1 147.98L95.12 147.98L96.87 146.25ZM95.92 148.29L95.94 148.31C96.64 148.31 97.19 147.76 97.19 147.07C97.19 146.37 96.64 145.82 95.94 145.82L95.92 145.84L95.92 148.29Z" fill="#C4F5F5" fill-opacity="1.000000" fill-rule="nonzero"/>
	<path id="Vector" d="M95.98 147.1C99.92 151.07 102.14 156.46 102.14 162.07C98.4 162.07 95.06 164.39 93.71 167.9L91.45 173.82C90.5 176.31 87.77 177.6 85.26 176.76L75.53 173.49C73.07 172.66 71.66 170.07 72.29 167.54L75.73 153.68C76.69 149.79 80.16 147.07 84.14 147.07L95.94 147.07" stroke="#00BFE6" stroke-opacity="1.000000" stroke-width="2.495645" stroke-linejoin="round" stroke-linecap="round"/>
	<path id="Vector" d="M82.51 175.74L82.48 175.76C82.28 176.42 82.64 177.11 83.3 177.32C83.97 177.52 84.66 177.16 84.87 176.49L84.85 176.47L82.51 175.74ZM90.39 158.6L90.41 158.59C90.62 157.92 90.26 157.24 89.59 157.03C88.92 156.82 88.24 157.18 88.03 157.85L88.04 157.88L90.39 158.6Z" fill="#C4F5F5" fill-opacity="1.000000" fill-rule="nonzero"/>
	<path id="Vector" d="M83.67 176.12L89.22 158.22" stroke="#00BFE6" stroke-opacity="1.000000" stroke-width="2.495645" stroke-linejoin="round" stroke-linecap="round"/>
	<path id="Vector" d="M83.85 156.2L83.87 156.18C84.07 155.51 83.69 154.83 83.02 154.64C82.35 154.45 81.67 154.82 81.48 155.49L81.49 155.52L83.85 156.2ZM76.3 173.56L76.27 173.58C76.08 174.25 76.46 174.93 77.13 175.12C77.8 175.32 78.48 174.94 78.67 174.27L78.66 174.24L76.3 173.56Z" fill="#C4F5F5" fill-opacity="1.000000" fill-rule="nonzero"/>
	<path id="Vector" d="M82.67 155.84L77.47 173.92" stroke="#00BFE6" stroke-opacity="1.000000" stroke-width="2.495645" stroke-linejoin="round" stroke-linecap="round"/>
	<path id="Vector" d="M82.89 149.56L94.7 149.56" stroke="#FBFCF9" stroke-opacity="1.000000" stroke-width="2.495645" stroke-linejoin="round" stroke-linecap="round"/>
	<path id="Vector" d="M24.76 155.84C24.76 159.29 27.53 162.08 30.95 162.08L73.63 162.04L72.28 167.54C71.66 170.08 73.07 172.66 75.52 173.49L85.25 176.76C87.77 177.6 90.49 176.31 91.44 173.82L93.71 167.9C95.05 164.39 98.39 162.08 102.13 162.08L130.03 162.08C133.45 162.08 136.22 159.28 136.22 155.84" stroke="#4D1F1F" stroke-opacity="1.000000" stroke-width="2.495645" stroke-linejoin="round" stroke-linecap="round"/>
</svg>
