<svg width="132" height="102" viewBox="0 0 132 102" fill="none" xmlns="http://www.w3.org/2000/svg">
<path d="M0.570312 78.5212L2.09842 82.0674L5.63826 83.2882L10.2807 83.1332L14.9327 83.3657L19.5751 83.511L24.2272 83.3851L28.8696 83.5013L33.5217 83.1913L38.1738 83.3366L42.8161 83.3851L47.4682 83.5304L52.1203 83.1525L56.7627 83.4045L61.4148 83.1332L66.0668 83.2688L70.7189 83.1719L75.3613 83.3463L80.0134 83.4045L84.6558 83.3076L89.3079 83.4723L93.9599 83.5498L98.612 83.5885L103.264 83.2688L107.916 83.4432H112.559L117.22 83.3173L121.872 83.4045L126.534 83.2301L129.958 81.9511L131.496 78.5212L131.467 73.6767L131.235 68.9582L126.708 68.6772L122.046 69.026L117.385 68.8516H112.733L108.071 68.6384H103.409L98.7474 69.0454L94.0857 68.9872L89.4239 68.871L84.7622 69.0551L80.1004 68.8032L75.429 69.0066L70.7673 68.716L66.1055 68.6094L61.4438 68.9291L56.782 68.8904L52.1203 68.7741L47.4585 69.0066L42.7968 68.9582L38.1351 68.6869L33.4733 68.7063L28.8019 68.9L24.1402 68.7644L19.4784 68.7256H14.8167L10.1453 68.8322L5.47386 69.0551L0.860451 68.8904L0.889465 73.6767L0.570312 78.5212Z" fill="#FAF9F7"/>
<path d="M0.728573 78.492C0.960693 79.7321 1.39592 80.8173 2.17932 81.5827C3.85252 83.2299 6.46386 83.3364 8.81407 83.3364C47.0945 83.3558 85.375 83.3752 123.655 83.3946C126.093 83.3946 128.926 83.2008 130.31 81.1855C130.958 80.2457 131.141 79.083 131.267 77.9494C131.596 74.9361 131.577 71.8841 131.209 68.8708C87.7639 68.8611 44.3188 68.8417 0.873642 68.832C0.873642 71.3609 0.148264 75.4108 0.718892 78.5016L0.728573 78.492Z" stroke="#2D274F" stroke-width="0.968912" stroke-linecap="round" stroke-linejoin="round"/>
<path d="M126.501 1.28301C125.331 1.06016 124.083 1.01172 122.922 1.01172C84.4969 1.05047 46.0714 1.08923 7.64583 1.13768C5.7792 1.13768 3.69977 1.22488 2.36508 2.54258C1.02072 3.86997 0.924 5.98217 0.914329 7.87152C0.856299 18.6554 0.798265 29.4489 0.759578 40.2327C0.740235 45.707 0.720904 51.191 0.711232 56.6653C0.711232 59.4848 0.566168 62.3139 0.691899 65.1334C0.856318 68.9024 0.604838 68.854 3.51601 68.854C46.139 68.8637 88.7621 68.8831 131.385 68.8928C131.356 48.5943 131.337 28.2959 131.308 7.99748C131.308 6.53444 131.279 4.9842 130.534 3.72463C129.683 2.29066 128.174 1.61244 126.501 1.2927V1.28301ZM126.588 63.8739C125.93 63.9126 36.0418 64.0967 27.8402 64.1161C21.1281 64.1355 14.1839 64.678 7.49108 64.1645C5.32463 63.9998 5.57609 64.2517 5.402 62.0911C5.27626 60.4633 5.42134 58.7581 5.43101 57.1303L5.47936 46.705C5.54706 33.1404 5.61478 19.5661 5.68248 6.00155C44.8721 5.89497 84.0617 5.79808 123.261 5.6915C124.325 5.6915 125.563 5.7787 126.153 6.6604C126.511 7.19329 126.52 7.87152 126.52 8.51099C126.54 26.9685 126.559 45.4163 126.578 63.8739H126.588Z" fill="#2D274F"/>
<path d="M126.485 1.33911C125.179 1.05813 123.767 1 122.471 1C84.123 1.04844 45.7652 1.09689 7.41703 1.14533C5.91792 1.14533 4.31244 1.1744 3.07446 2.02703C1.07243 3.40287 0.869314 6.22236 0.859642 8.6543C0.859642 25.6488 0.762922 42.6433 0.704892 59.6377C0.704892 61.7693 0.695231 63.9106 0.685559 66.0422C0.685559 66.5557 0.385745 68.4353 0.753268 68.7938C1.12079 69.1523 3.23889 68.8423 3.7805 68.8423C8.04571 68.8423 12.3012 68.8423 16.5664 68.8423C25.0872 68.8423 33.6176 68.852 42.1383 68.8617L93.2821 68.9004C105.981 68.9004 118.68 68.9198 131.388 68.9295C131.369 48.6214 131.34 28.3036 131.321 7.99545C131.321 6.68743 131.301 5.32129 130.721 4.15861C129.909 2.54055 128.303 1.73636 126.485 1.35849V1.33911ZM126.524 64.0269C86.744 64.0559 46.9645 64.085 7.18492 64.1141C4.79602 64.1141 5.46336 62.1278 5.46336 60.4129C5.46336 57.9422 5.48271 55.4715 5.49238 53.0008L5.55041 38.1766C5.58909 28.2939 5.61812 18.4111 5.65681 8.52834V5.86387C45.9296 5.89294 86.1927 5.93169 126.466 5.96076C126.485 25.3097 126.514 44.6683 126.533 64.0269H126.524Z" stroke="#2D274F" stroke-width="0.968912" stroke-linecap="round" stroke-linejoin="round"/>
<path d="M6.28632 63.3844C6.66352 63.7817 7.15675 64.0142 7.80475 64.0142C47.3812 63.9949 86.9577 63.9852 126.534 63.9658L126.495 5.8125C86.242 5.83188 45.9788 5.86095 5.72535 5.88032C5.71568 5.88032 5.64798 34.0946 5.63831 36.6622L5.58996 52.0483C5.58996 54.49 4.30363 61.2722 6.28632 63.3748V63.3844Z" fill="#FF5553"/>
<path d="M5.94712 63.6384C6.26629 63.9194 6.82724 64.026 7.78474 64.026C47.3709 64.0066 86.957 63.9775 126.543 63.9581C126.533 44.5802 126.514 25.2022 126.504 5.82422C86.251 5.8436 46.0072 5.86297 5.75368 5.89204C5.67631 24.4368 5.66665 42.9718 5.53125 61.5165C5.53125 62.621 5.5506 63.2799 5.95681 63.6384H5.94712Z" stroke="#2D274F" stroke-width="0.901088" stroke-linecap="round" stroke-linejoin="round"/>
<path d="M83.629 97.9963H79.1414L74.7891 97.7541L70.4369 97.7347L66.0943 98.1223L61.742 98.0738L57.3898 97.977L48.8594 97.7638L49.459 93.0259L50.6583 88.2201L51.4998 83.2788L56.4129 83.2497L61.2391 83.5307L66.0749 83.2303L70.9108 83.2109L75.7466 83.3078L80.6308 83.3272L81.6077 88.2008L82.5651 93.0453L83.629 97.9963Z" fill="#B1E4FF"/>
<path d="M83.629 97.9734C83.629 97.9734 52.8054 99.0101 48.8594 97.7602C49.0431 97.7602 51.2193 84.9223 51.4998 83.2752L56.4129 83.2461C64.4888 83.1977 72.555 83.314 80.6308 83.3236C81.6076 88.2069 82.5748 93.0998 83.6194 97.9734H83.629Z" stroke="#2D274F" stroke-width="0.968912"/>
<path d="M92.1481 100.74H87.4477L82.7086 100.691L77.9598 100.73L73.211 101.001L68.4622 100.73H58.9743L54.2255 100.604H49.4768L44.7183 100.672L39.8728 100.972L39.8438 97.707L44.7183 97.7749L49.4574 97.8717L54.2062 98.0462L58.9453 98.1043L63.6941 98.0558L68.4429 97.9299L73.1917 97.7555L77.9405 97.8524L82.6893 97.7942L87.438 98.0946H92.0901L92.1481 100.74Z" fill="#B1E4FF"/>
<path d="M92.1504 100.743L39.875 100.975C39.875 100.975 39.875 98.863 39.8847 98.117C39.8847 97.9716 40.0007 97.865 40.1458 97.8554C43.2698 97.8457 74.2094 97.7488 86.6762 97.991C92.0923 98.0976 92.0924 98.0394 92.0924 98.0976L92.1504 100.743Z" stroke="#2D274F" stroke-width="0.968912"/>
</svg>
