<svg width="256" height="80" viewBox="0 0 256 80" fill="none" xmlns="http://www.w3.org/2000/svg">
<path d="M70.6641 57.4295V38.082H75.3682V53.3576H82.8615V57.4289L70.6641 57.4295Z" fill="#2C3C69"/>
<path d="M98.3722 50.7763C98.3722 50.9587 98.3722 51.141 98.3722 51.3233C98.3722 51.5057 98.363 51.6782 98.3451 51.8426H88.4726C88.509 52.2252 88.623 52.5714 88.8148 52.8813C89.0065 53.1911 89.2525 53.4591 89.5527 53.6876C89.8536 53.9156 90.1909 54.093 90.5651 54.2199C90.9381 54.348 91.3259 54.4115 91.7272 54.4115C92.4381 54.4115 93.0405 54.2796 93.5324 54.0154C94.0251 53.7511 94.4258 53.4098 94.7359 52.9903L97.8537 54.9579C97.2156 55.8868 96.3728 56.602 95.3241 57.1029C94.2754 57.6031 93.0577 57.8544 91.673 57.8544C90.6514 57.8544 89.6853 57.6943 88.7741 57.3764C87.8622 57.0573 87.065 56.5934 86.3807 55.9823C85.6976 55.3725 85.1594 54.6209 84.7672 53.7283C84.3751 52.8357 84.1797 51.8155 84.1797 50.6673C84.1797 49.5566 84.3708 48.5494 84.7537 47.6481C85.1365 46.7469 85.6563 45.9812 86.3129 45.3528C86.9689 44.7239 87.7432 44.2366 88.6378 43.8904C89.5305 43.5448 90.4973 43.3711 91.5361 43.3711C92.5386 43.3711 93.4597 43.5399 94.2982 43.8768C95.1367 44.2138 95.8568 44.7011 96.4591 45.3387C97.0608 45.9763 97.5294 46.7506 97.8673 47.6617C98.2039 48.5722 98.3722 49.6114 98.3722 50.7763ZM94.2427 49.0545C94.2427 48.3443 94.0195 47.7338 93.5725 47.2237C93.1255 46.7143 92.4554 46.4586 91.5626 46.4586C91.1249 46.4586 90.7241 46.527 90.3592 46.6637C89.9942 46.8005 89.676 46.9872 89.4017 47.2237C89.1286 47.4609 88.9097 47.7387 88.7457 48.0578C88.5817 48.3769 88.4905 48.7096 88.4726 49.0545H94.2427Z" fill="#2C3C69"/>
<path d="M105.517 47.1324V52.3446C105.517 52.9846 105.64 53.4639 105.887 53.7848C106.132 54.1051 106.574 54.2641 107.213 54.2641C107.431 54.2641 107.663 54.2468 107.91 54.2093C108.156 54.1729 108.361 54.1187 108.525 54.0454L108.58 57.3245C108.27 57.4335 107.878 57.529 107.405 57.6115C106.93 57.6935 106.456 57.7341 105.982 57.7341C105.07 57.7341 104.304 57.6196 103.684 57.3916C103.064 57.1637 102.567 56.8347 102.194 56.4048C101.82 55.976 101.551 55.4647 101.387 54.8709C101.223 54.2776 101.141 53.6154 101.141 52.8848V47.1324H98.9531V43.7985H101.113V40.2188H105.517V43.7985H108.716V47.1324H105.517Z" fill="#2C3C69"/>
<path d="M123.243 47.8229C122.878 47.4773 122.45 47.1859 121.958 46.9487C121.466 46.7122 120.946 46.5933 120.399 46.5933C119.979 46.5933 119.592 46.6759 119.237 46.8391C118.881 47.0036 118.704 47.2863 118.704 47.6861C118.704 48.0687 118.899 48.3416 119.291 48.5061C119.683 48.6705 120.317 48.8523 121.192 49.0525C121.702 49.1621 122.218 49.3174 122.738 49.5176C123.257 49.7178 123.726 49.9821 124.146 50.3098C124.565 50.6375 124.902 51.0385 125.158 51.5122C125.413 51.986 125.541 52.5509 125.541 53.2063C125.541 54.0632 125.368 54.7864 125.021 55.3784C124.675 55.9704 124.223 56.4484 123.667 56.8131C123.111 57.1778 122.487 57.4415 121.794 57.6053C121.101 57.7698 120.408 57.8511 119.716 57.8511C118.603 57.8511 117.514 57.6737 116.447 57.3183C115.381 56.9634 114.492 56.4392 113.781 55.7468L116.297 53.096C116.697 53.5334 117.19 53.8981 117.774 54.1889C118.357 54.4809 118.977 54.6262 119.634 54.6262C119.999 54.6262 120.359 54.5394 120.714 54.3663C121.07 54.1938 121.247 53.8882 121.247 53.4515C121.247 53.032 121.029 52.7227 120.591 52.5219C120.154 52.3217 119.471 52.1123 118.54 51.893C118.066 51.7839 117.592 51.6385 117.118 51.4562C116.643 51.2738 116.22 51.0287 115.847 50.7182C115.473 50.4089 115.167 50.0264 114.93 49.5705C114.694 49.1159 114.575 48.5689 114.575 47.9313C114.575 47.1114 114.748 46.4147 115.095 45.8405C115.442 45.2664 115.888 44.7982 116.435 44.4335C116.982 44.0688 117.588 43.8009 118.254 43.6271C118.919 43.4534 119.58 43.3672 120.237 43.3672C121.257 43.3672 122.255 43.5274 123.231 43.8452C124.206 44.1643 125.032 44.6424 125.706 45.2799L123.243 47.8229Z" fill="#2C3C69"/>
<path d="M134.129 57.4295V38.082H147.146V42.0172H138.641V45.6788H146.681V49.4224H138.641V53.4395H147.639V57.4295H134.129Z" fill="#2C3C69"/>
<path d="M159.494 57.4286V49.9957C159.494 49.6131 159.461 49.2491 159.398 48.9029C159.334 48.5567 159.229 48.2517 159.083 47.9874C158.937 47.7238 158.732 47.5137 158.468 47.3585C158.203 47.2045 157.87 47.1262 157.469 47.1262C157.069 47.1262 156.717 47.2045 156.416 47.3585C156.116 47.5137 155.865 47.7281 155.664 48.001C155.464 48.2739 155.313 48.5887 155.214 48.9435C155.113 49.299 155.063 49.668 155.063 50.0505V57.4286H150.551V43.82H154.899V45.7057H154.954C155.119 45.4143 155.332 45.1279 155.597 44.8457C155.861 44.563 156.172 44.3215 156.527 44.1213C156.883 43.9211 157.27 43.7566 157.69 43.6291C158.109 43.5022 158.555 43.4375 159.029 43.4375C159.941 43.4375 160.716 43.602 161.354 43.9297C161.993 44.2574 162.507 44.6813 162.9 45.1999C163.292 45.7192 163.574 46.3162 163.748 46.9895C163.92 47.664 164.007 48.338 164.007 49.0119V57.428L159.494 57.4286Z" fill="#2C3C69"/>
<path d="M175.518 48.2075C175.263 47.8798 174.916 47.6161 174.479 47.4153C174.041 47.2151 173.594 47.1147 173.139 47.1147C172.664 47.1147 172.236 47.2102 171.853 47.4017C171.47 47.5933 171.142 47.849 170.868 48.1668C170.595 48.4859 170.38 48.8549 170.225 49.2738C170.071 49.6933 169.993 50.1387 169.993 50.6131C169.993 51.0868 170.066 51.5328 170.212 51.9517C170.357 52.3712 170.571 52.7402 170.854 53.0587C171.137 53.3778 171.474 53.6285 171.867 53.8102C172.259 53.9926 172.701 54.0831 173.193 54.0831C173.648 54.0831 174.1 53.9969 174.546 53.8238C174.992 53.6507 175.353 53.4 175.626 53.0722L178.115 56.1055C177.55 56.6519 176.82 57.0801 175.927 57.3899C175.034 57.6992 174.086 57.8544 173.083 57.8544C172.007 57.8544 171.003 57.6899 170.07 57.3622C169.138 57.0345 168.328 56.5558 167.64 55.9275C166.952 55.2992 166.412 54.539 166.017 53.6464C165.622 52.7537 165.426 51.7429 165.426 50.6131C165.426 49.5018 165.622 48.4995 166.017 47.6069C166.412 46.7149 166.952 45.9535 167.64 45.3251C168.328 44.6962 169.139 44.2138 170.07 43.8768C171.003 43.5399 171.998 43.3711 173.056 43.3711C173.548 43.3711 174.036 43.4167 174.519 43.5085C175.002 43.599 175.467 43.7228 175.914 43.8775C176.361 44.0321 176.771 44.2237 177.144 44.4516C177.518 44.6795 177.842 44.9296 178.115 45.2031L175.518 48.2075Z" fill="#2C3C69"/>
<path d="M188.689 47.5094C188.488 47.4546 188.292 47.4189 188.101 47.4004C187.91 47.3819 187.722 47.3727 187.541 47.3727C186.939 47.3727 186.433 47.4823 186.023 47.6998C185.613 47.9178 185.285 48.1809 185.038 48.4901C184.792 48.7987 184.614 49.1351 184.505 49.4986C184.396 49.862 184.341 50.1793 184.341 50.4522V57.4286H179.855V43.8367H184.177V45.8043H184.232C184.578 45.1069 185.069 44.5383 185.709 44.0979C186.346 43.6574 187.085 43.4375 187.924 43.4375C188.106 43.4375 188.284 43.4474 188.457 43.4652C188.63 43.4831 188.772 43.5108 188.881 43.5472L188.689 47.5094Z" fill="#2C3C69"/>
<path d="M199.212 59.4934C198.939 60.2037 198.633 60.8369 198.296 61.3926C197.958 61.9476 197.558 62.4214 197.093 62.8138C196.628 63.2056 196.081 63.5006 195.452 63.7015C194.823 63.9017 194.079 64.0021 193.223 64.0021C192.803 64.0021 192.37 63.9744 191.924 63.9195C191.477 63.8647 191.09 63.792 190.762 63.7015L191.254 59.9308C191.473 60.0028 191.714 60.0626 191.979 60.1082C192.243 60.1532 192.485 60.176 192.704 60.176C193.397 60.176 193.898 60.0164 194.208 59.6979C194.518 59.3788 194.782 58.9285 195.001 58.3457L195.439 57.2258L189.75 43.8359H194.727L197.763 52.5804H197.845L200.553 43.8359H205.311L199.212 59.4934Z" fill="#2C3C69"/>
<path d="M221.636 50.5698C221.636 51.5173 221.489 52.4284 221.198 53.3025C220.906 54.1772 220.482 54.9467 219.927 55.6114C219.37 56.2767 218.691 56.8095 217.889 57.2106C217.086 57.6104 216.175 57.8118 215.153 57.8118C214.315 57.8118 213.522 57.6436 212.774 57.3066C212.026 56.9697 211.444 56.5095 211.024 55.9268H210.97V63.988H206.484V43.82H210.751V45.487H210.833C211.253 44.9406 211.831 44.4626 212.57 44.0523C213.308 43.6426 214.178 43.4375 215.181 43.4375C216.166 43.4375 217.058 43.6291 217.861 44.0116C218.663 44.3942 219.342 44.9135 219.899 45.5689C220.456 46.2244 220.883 46.9858 221.184 47.8507C221.485 48.7162 221.636 49.623 221.636 50.5698ZM217.287 50.5698C217.287 50.1324 217.219 49.7049 217.083 49.2854C216.946 48.8665 216.745 48.4975 216.48 48.1784C216.216 47.8599 215.883 47.6006 215.482 47.3998C215.081 47.1989 214.616 47.0991 214.087 47.0991C213.577 47.0991 213.121 47.1996 212.72 47.3998C212.319 47.6 211.976 47.8642 211.694 48.192C211.411 48.5197 211.193 48.8936 211.038 49.3119C210.883 49.7314 210.806 50.1589 210.806 50.5963C210.806 51.0337 210.883 51.4618 211.038 51.8807C211.193 52.3002 211.411 52.6729 211.694 53.0006C211.976 53.3284 212.319 53.5933 212.72 53.7935C213.12 53.9937 213.577 54.0935 214.087 54.0935C214.616 54.0935 215.081 53.9937 215.482 53.7935C215.883 53.5933 216.216 53.3284 216.48 53.0006C216.745 52.6729 216.946 52.2947 217.083 51.8665C217.219 51.4396 217.287 51.0072 217.287 50.5698Z" fill="#2C3C69"/>
<path d="M228.806 47.1324V52.3446C228.806 52.9846 228.929 53.4639 229.176 53.7848C229.421 54.1051 229.863 54.2641 230.502 54.2641C230.72 54.2641 230.953 54.2468 231.199 54.2093C231.445 54.1729 231.65 54.1187 231.814 54.0454L231.869 57.3245C231.559 57.4335 231.167 57.529 230.694 57.6115C230.219 57.6935 229.745 57.7341 229.271 57.7341C228.359 57.7341 227.593 57.6196 226.973 57.3916C226.353 57.1637 225.856 56.8347 225.483 56.4048C225.109 55.976 224.84 55.4647 224.676 54.8709C224.512 54.2776 224.43 53.6154 224.43 52.8848V47.1324H222.242V43.7985H224.403V40.2188H228.806V43.7985H232.006V47.1324H228.806Z" fill="#2C3C69"/>
<path d="M112.825 37.7266C111.479 37.7266 110.426 38.6956 110.426 39.9332C110.426 41.2367 111.313 42.112 112.634 42.112C112.747 42.112 112.854 42.1016 112.954 42.0812C112.743 43.0459 111.812 43.7383 110.933 43.8769L110.754 43.9053V45.9856L110.986 45.9634C112.053 45.8618 113.106 45.3776 113.878 44.6346C114.885 43.6656 115.417 42.2667 115.417 40.5886C115.417 38.9303 114.327 37.7266 112.825 37.7266Z" fill="#2C3C69"/>
<path d="M52.1072 38.1444H47.1503V35.6015C47.1503 33.5705 45.4961 31.9183 43.4634 31.9183C41.4307 31.9183 39.7772 33.5711 39.7772 35.6015V38.1444H34.8203V35.6015C34.8203 30.8396 38.6977 26.9648 43.4641 26.9648C48.2305 26.9648 52.1078 30.839 52.1078 35.6015V38.1444H52.1072Z" fill="#F9A11D"/>
<path d="M54.0864 38.1602H32.8007C31.892 38.1602 31.1484 38.9031 31.1484 39.8111V55.5443C31.1484 56.4523 31.892 57.1953 32.8007 57.1953H54.0864C54.9952 57.1953 55.7387 56.4523 55.7387 55.5443V39.8111C55.7387 38.9031 54.9952 38.1602 54.0864 38.1602ZM44.5222 48.4902V50.6223C44.5222 51.2174 44.0388 51.6997 43.4439 51.6997C42.8489 51.6997 42.3656 51.2168 42.3656 50.6223V48.4909C41.7022 48.1145 41.254 47.4042 41.254 46.5874C41.254 45.3787 42.2349 44.3992 43.4439 44.3992C44.6535 44.3992 45.6338 45.3793 45.6338 46.5874C45.6338 47.4036 45.1856 48.1139 44.5222 48.4902Z" fill="#2C3C69"/>
<path d="M30.6482 35.8105H25.5119C24.679 35.8105 24.0039 35.1359 24.0039 34.3037C24.0039 33.4714 24.679 32.7969 25.5119 32.7969H30.6482C31.4812 32.7969 32.1563 33.4714 32.1563 34.3037C32.1563 35.1359 31.4806 35.8105 30.6482 35.8105Z" fill="#F9A11D"/>
<path d="M34.3278 27.7584C33.9911 27.7584 33.6514 27.6463 33.3709 27.4153L29.308 24.077C28.6649 23.5485 28.5718 22.5992 29.1014 21.9561C29.6304 21.3136 30.5805 21.2205 31.2242 21.7491L35.2871 25.0873C35.9301 25.6159 36.0232 26.5652 35.4936 27.2083C35.1958 27.5711 34.7636 27.7584 34.3278 27.7584Z" fill="#F9A11D"/>
<path d="M43.4651 24.1863C42.6321 24.1863 41.957 23.5118 41.957 22.6795V17.5068C41.957 16.6745 42.6321 16 43.4651 16C44.298 16 44.9731 16.6745 44.9731 17.5068V22.6795C44.9731 23.5118 44.298 24.1863 43.4651 24.1863Z" fill="#F9A11D"/>
<path d="M52.6108 27.7389C52.1749 27.7389 51.7433 27.5516 51.4449 27.1888C50.916 26.5462 51.0084 25.5963 51.6515 25.0678L55.7144 21.7296C56.3581 21.201 57.3081 21.294 57.8371 21.9365C58.3661 22.5791 58.2736 23.529 57.6306 24.0575L53.5676 27.3957C53.2871 27.6268 52.948 27.7389 52.6108 27.7389Z" fill="#F9A11D"/>
<path d="M61.3766 35.8105H56.1916C55.3587 35.8105 54.6836 35.1359 54.6836 34.3037C54.6836 33.4714 55.3587 32.7969 56.1916 32.7969H61.3766C62.2096 32.7969 62.8847 33.4714 62.8847 34.3037C62.8847 35.1359 62.2096 35.8105 61.3766 35.8105Z" fill="#F9A11D"/>
</svg>
