<svg width="252" height="87" viewBox="0 0 252 87" fill="none" xmlns="http://www.w3.org/2000/svg">
<path d="M209 24.5H43C32.7827 24.5 24.5 32.7827 24.5 43C24.5 53.2173 32.7827 61.5 43 61.5H209C219.217 61.5 227.5 53.2173 227.5 43C227.5 32.7827 219.217 24.5 209 24.5Z" fill="white" stroke="#31576B"/>
<path d="M132.244 37.3906H128.711V39.8281H132.842V41.1406H127V32.6094H132.83V33.9277H128.711V36.0723H132.244V37.3906ZM135.338 34.8008L135.408 35.6387C135.611 35.334 135.866 35.0986 136.173 34.9326C136.479 34.7666 136.834 34.6836 137.236 34.6836C137.643 34.6836 137.99 34.7734 138.279 34.9531C138.568 35.1328 138.787 35.4043 138.936 35.7676C139.131 35.4277 139.385 35.1621 139.697 34.9707C140.01 34.7793 140.377 34.6836 140.799 34.6836C141.424 34.6836 141.917 34.8994 142.278 35.3311C142.64 35.7627 142.82 36.4199 142.82 37.3027V41.1406H141.109V37.2969C141.109 36.8164 141.031 36.4824 140.875 36.2949C140.719 36.1074 140.486 36.0137 140.178 36.0137C139.936 36.0137 139.726 36.0674 139.548 36.1748C139.37 36.2822 139.229 36.4316 139.123 36.623C139.123 36.6973 139.125 36.7607 139.129 36.8135C139.133 36.8662 139.135 36.9199 139.135 36.9746V41.1406H137.43V37.2969C137.43 36.8281 137.352 36.4971 137.195 36.3037C137.039 36.1104 136.805 36.0137 136.492 36.0137C136.262 36.0137 136.06 36.0576 135.886 36.1455C135.712 36.2334 135.568 36.3574 135.455 36.5176V41.1406H133.75V34.8008H135.338ZM147.854 41.1406C147.791 40.9961 147.737 40.8438 147.692 40.6836C147.647 40.5234 147.615 40.3594 147.596 40.1914C147.42 40.5 147.188 40.7559 146.901 40.959C146.614 41.1621 146.271 41.2637 145.873 41.2637C145.209 41.2637 144.697 41.0928 144.338 40.751C143.979 40.4092 143.799 39.9434 143.799 39.3535C143.799 38.7324 144.038 38.251 144.517 37.9092C144.995 37.5674 145.693 37.3965 146.611 37.3965H147.566V36.8926C147.566 36.5879 147.486 36.3516 147.326 36.1836C147.166 36.0156 146.93 35.9316 146.617 35.9316C146.34 35.9316 146.126 35.999 145.976 36.1338C145.825 36.2686 145.75 36.4551 145.75 36.6934L144.098 36.6875L144.092 36.6523C144.064 36.1172 144.297 35.6553 144.789 35.2666C145.281 34.8779 145.928 34.6836 146.729 34.6836C147.486 34.6836 148.102 34.876 148.574 35.2607C149.047 35.6455 149.283 36.1934 149.283 36.9043V39.5234C149.283 39.8203 149.306 40.0996 149.351 40.3613C149.396 40.623 149.467 40.8828 149.564 41.1406H147.854ZM146.289 39.998C146.59 39.998 146.857 39.9238 147.092 39.7754C147.326 39.627 147.484 39.4551 147.566 39.2598V38.3633H146.611C146.248 38.3633 145.973 38.4541 145.785 38.6357C145.598 38.8174 145.504 39.0371 145.504 39.2949C145.504 39.5059 145.574 39.6758 145.715 39.8047C145.855 39.9336 146.047 39.998 146.289 39.998ZM152.377 41.1406H150.666V34.8008H152.377V41.1406ZM152.377 33.2832H150.666V32H152.377V33.2832ZM155.582 41.1406H153.871V32H155.582V41.1406ZM162.01 33.248V34.8008H163.076V36.002H162.01V39.2305C162.01 39.4766 162.061 39.6523 162.162 39.7578C162.264 39.8633 162.4 39.916 162.572 39.916C162.662 39.916 162.739 39.9111 162.804 39.9014C162.868 39.8916 162.943 39.875 163.029 39.8516L163.176 41.0879C163.004 41.1465 162.836 41.1904 162.672 41.2197C162.508 41.249 162.33 41.2637 162.139 41.2637C161.549 41.2637 161.095 41.1016 160.776 40.7773C160.458 40.4531 160.299 39.9395 160.299 39.2363V36.002H159.373V34.8008H160.299V33.248H162.01ZM166.973 41.2637C166.059 41.2637 165.328 40.9707 164.781 40.3848C164.234 39.7988 163.961 39.0547 163.961 38.1523V37.918C163.961 36.9766 164.22 36.2012 164.737 35.5918C165.255 34.9824 165.949 34.6797 166.82 34.6835C167.676 34.6835 168.34 34.9414 168.812 35.457C169.285 35.9727 169.521 36.6699 169.521 37.5488V38.4805H165.736L165.725 38.5156C165.756 38.9336 165.896 39.2773 166.144 39.5469C166.392 39.8164 166.729 39.9512 167.154 39.9512C167.533 39.9512 167.848 39.9131 168.098 39.8369C168.348 39.7607 168.621 39.6406 168.918 39.4766L169.381 40.5312C169.123 40.7422 168.785 40.917 168.367 41.0557C167.949 41.1943 167.484 41.2637 166.973 41.2637ZM166.82 36.002C166.504 36.002 166.254 36.123 166.07 36.3652C165.887 36.6074 165.773 36.9258 165.73 37.3203L165.748 37.3496H167.846V37.1973C167.846 36.834 167.761 36.5439 167.591 36.3271C167.421 36.1104 167.164 36.002 166.82 36.002ZM173.945 39.3945C173.945 39.207 173.854 39.0449 173.673 38.9082C173.491 38.7715 173.154 38.6504 172.662 38.5449C171.912 38.3926 171.347 38.167 170.966 37.8682C170.585 37.5693 170.395 37.1621 170.395 36.6465C170.395 36.0996 170.624 35.6357 171.083 35.2549C171.542 34.874 172.156 34.6836 172.926 34.6836C173.734 34.6836 174.378 34.873 174.856 35.252C175.335 35.6309 175.564 36.1094 175.545 36.6875L175.533 36.7227H173.881C173.881 36.4687 173.8 36.2617 173.638 36.1016C173.476 35.9414 173.238 35.8613 172.926 35.8613C172.648 35.8613 172.431 35.9287 172.272 36.0635C172.114 36.1982 172.035 36.3672 172.035 36.5703C172.035 36.7656 172.118 36.9258 172.284 37.0508C172.45 37.1758 172.787 37.2871 173.295 37.3848C174.076 37.541 174.656 37.7705 175.035 38.0732C175.414 38.376 175.604 38.793 175.604 39.3242C175.604 39.8945 175.359 40.3603 174.871 40.7217C174.383 41.083 173.738 41.2637 172.938 41.2637C172.094 41.2637 171.427 41.0498 170.937 40.6221C170.446 40.1943 170.213 39.707 170.236 39.1602L170.248 39.125H171.812C171.824 39.4648 171.936 39.7109 172.146 39.8633C172.357 40.0156 172.633 40.0918 172.973 40.0918C173.289 40.0918 173.53 40.0293 173.696 39.9043C173.862 39.7793 173.945 39.6094 173.945 39.3945ZM178.738 33.248V34.8008H179.805V36.002H178.738V39.2305C178.738 39.4766 178.789 39.6523 178.891 39.7578C178.992 39.8633 179.129 39.916 179.301 39.916C179.391 39.916 179.468 39.9111 179.532 39.9014C179.597 39.8916 179.672 39.875 179.758 39.8516L179.904 41.0879C179.732 41.1465 179.564 41.1904 179.4 41.2197C179.236 41.249 179.059 41.2637 178.867 41.2637C178.277 41.2637 177.823 41.1016 177.505 40.7773C177.187 40.4531 177.027 39.9395 177.027 39.2363V36.002H176.102V34.8008H177.027V33.248H178.738ZM128.477 54.1406H127.316V45.6094H128.477V54.1406ZM131.465 47.8008L131.547 48.7441C131.758 48.4082 132.022 48.1475 132.341 47.9619C132.659 47.7764 133.021 47.6836 133.428 47.6836C134.111 47.6836 134.641 47.8838 135.016 48.2842C135.391 48.6846 135.578 49.3027 135.578 50.1387V54.1406H134.424V50.1621C134.424 49.6035 134.313 49.207 134.093 48.9727C133.872 48.7383 133.535 48.6211 133.082 48.6211C132.75 48.6211 132.456 48.7012 132.2 48.8613C131.944 49.0215 131.74 49.2402 131.588 49.5176V54.1406H130.434V47.8008H131.465ZM138.777 46.2715V47.8008H139.979V48.6562H138.777V52.5059C138.777 52.8027 138.839 53.0117 138.962 53.1328C139.085 53.2539 139.248 53.3145 139.451 53.3145C139.518 53.3145 139.591 53.3066 139.671 53.291C139.751 53.2754 139.822 53.2559 139.885 53.2324L140.037 54.0234C139.951 54.0938 139.825 54.1514 139.659 54.1963C139.493 54.2412 139.326 54.2637 139.158 54.2637C138.689 54.2637 138.316 54.1221 138.039 53.8389C137.762 53.5557 137.623 53.1113 137.623 52.5059V48.6562H136.615V47.8008H137.623V46.2715H138.777ZM144.033 54.2637C143.15 54.2637 142.448 53.9697 141.927 53.3818C141.405 52.7939 141.145 52.0313 141.145 51.0938V50.8359C141.145 49.9336 141.413 49.1826 141.95 48.583C142.487 47.9834 143.123 47.6836 143.857 47.6836C144.713 47.6836 145.359 47.9414 145.797 48.457C146.234 48.9727 146.453 49.6602 146.453 50.5195V51.2402H142.34L142.322 51.2695C142.334 51.8789 142.488 52.3799 142.785 52.7725C143.082 53.165 143.498 53.3613 144.033 53.3613C144.424 53.3613 144.767 53.3057 145.062 53.1943C145.356 53.083 145.611 52.9297 145.826 52.7344L146.277 53.4844C146.051 53.707 145.752 53.8926 145.381 54.041C145.01 54.1895 144.561 54.2637 144.033 54.2637ZM143.857 48.5918C143.471 48.5918 143.141 48.7549 142.867 49.0811C142.594 49.4072 142.426 49.8164 142.363 50.3086L142.375 50.3379H145.299V50.1855C145.299 49.7324 145.178 49.3535 144.936 49.0488C144.693 48.7441 144.334 48.5918 143.857 48.5918ZM150.748 48.8203L150.156 48.7852C149.852 48.7852 149.595 48.8574 149.386 49.002C149.177 49.1465 149.016 49.3496 148.902 49.6113V54.1406H147.748V47.8008H148.779L148.891 48.7266C149.07 48.3984 149.292 48.1426 149.556 47.959C149.819 47.7754 150.123 47.6836 150.467 47.6836C150.553 47.6836 150.635 47.6904 150.713 47.7041C150.791 47.7178 150.855 47.7324 150.906 47.748L150.748 48.8203ZM152.893 47.8008L152.975 48.7441C153.186 48.4082 153.45 48.1475 153.769 47.9619C154.087 47.7764 154.449 47.6836 154.855 47.6836C155.539 47.6836 156.068 47.8838 156.443 48.2842C156.818 48.6846 157.006 49.3027 157.006 50.1387V54.1406H155.852V50.1621C155.852 49.6035 155.741 49.207 155.521 48.9727C155.3 48.7383 154.963 48.6211 154.51 48.6211C154.178 48.6211 153.884 48.7012 153.628 48.8613C153.372 49.0215 153.168 49.2402 153.016 49.5176V54.1406H151.861V47.8008H152.893ZM161.312 54.2637C160.43 54.2637 159.728 53.9697 159.206 53.3818C158.685 52.7939 158.424 52.0313 158.424 51.0938V50.8359C158.424 49.9336 158.692 49.1826 159.229 48.583C159.767 47.9834 160.402 47.6836 161.137 47.6836C161.992 47.6836 162.639 47.9414 163.076 48.457C163.514 48.9727 163.732 49.6602 163.732 50.5195V51.2402H159.619L159.602 51.2695C159.613 51.8789 159.768 52.3799 160.064 52.7725C160.361 53.165 160.777 53.3613 161.312 53.3613C161.703 53.3613 162.046 53.3057 162.341 53.1943C162.636 53.083 162.891 52.9297 163.105 52.7344L163.557 53.4844C163.33 53.707 163.031 53.8926 162.66 54.041C162.289 54.1895 161.84 54.2637 161.312 54.2637ZM161.137 48.5918C160.75 48.5918 160.42 48.7549 160.146 49.0811C159.873 49.4072 159.705 49.8164 159.643 50.3086L159.654 50.3379H162.578V50.1855C162.578 49.7324 162.457 49.3535 162.215 49.0488C161.973 48.7441 161.613 48.5918 161.137 48.5918ZM166.551 46.2715V47.8008H167.752V48.6562H166.551V52.5059C166.551 52.8027 166.612 53.0117 166.735 53.1328C166.858 53.2539 167.021 53.3145 167.225 53.3145C167.291 53.3145 167.364 53.3066 167.444 53.291C167.524 53.2754 167.596 53.2559 167.658 53.2324L167.811 54.0234C167.725 54.0938 167.599 54.1514 167.433 54.1963C167.267 54.2412 167.1 54.2637 166.932 54.2637C166.463 54.2637 166.09 54.1221 165.812 53.8389C165.535 53.5557 165.396 53.1113 165.396 52.5059V48.6562H164.389V47.8008H165.396V46.2715H166.551ZM170.436 54.1406H169.281V52.957H170.436V54.1406ZM173.418 47.8008L173.5 48.7441C173.711 48.4082 173.976 48.1475 174.294 47.9619C174.612 47.7764 174.975 47.6836 175.381 47.6836C176.064 47.6836 176.594 47.8838 176.969 48.2842C177.344 48.6846 177.531 49.3027 177.531 50.1387V54.1406H176.377V50.1621C176.377 49.6035 176.267 49.207 176.046 48.9727C175.825 48.7383 175.488 48.6211 175.035 48.6211C174.703 48.6211 174.409 48.7012 174.153 48.8613C173.897 49.0215 173.693 49.2402 173.541 49.5176V54.1406H172.387V47.8008H173.418ZM180.455 54.1406H179.301V45H180.455V54.1406Z" fill="black"/>
<path d="M210 58C218.284 58 225 51.2843 225 43C225 34.7157 218.284 28 210 28C201.716 28 195 34.7157 195 43C195 51.2843 201.716 58 210 58Z" fill="white"/>
<path fill-rule="evenodd" clip-rule="evenodd" d="M219.562 34.9741L210.397 30.0991C210.272 30.0325 210.135 30 209.998 30C209.862 30 209.723 30.0325 209.6 30.0991L200.435 34.9741C200.167 35.1171 200 35.3901 200 35.6875V42.1875C200 45.7625 200.945 48.6518 202.891 51.0226C204.411 52.8751 206.489 54.3831 209.627 55.9139C209.743 55.9708 209.872 56 210 56C210.128 56 210.255 55.9708 210.373 55.9139C213.511 54.3831 215.589 52.8751 217.109 51.0226C219.053 48.6518 220 45.7609 220 42.1875V35.6875C220 35.3901 219.833 35.1171 219.565 34.9741H219.562Z" fill="#009F33"/>
<path fill-rule="evenodd" clip-rule="evenodd" d="M215.455 37L217 38.5523L209.17 46.416L209.201 46.4477L207.656 48L202 42.319L203.545 40.7667L207.625 44.864L215.455 37Z" fill="white"/>
<path d="M43.5312 58C51.8155 58 58.5312 51.2843 58.5312 43C58.5312 34.7157 51.8155 28 43.5312 28C35.247 28 28.5312 34.7157 28.5312 43C28.5312 51.2843 35.247 58 43.5312 58Z" fill="#00BFD6"/>
<mask id="mask0_400_7648" style="mask-type:luminance" maskUnits="userSpaceOnUse" x="28" y="28" width="31" height="30">
<path d="M43.5312 58C51.8155 58 58.5312 51.2843 58.5312 43C58.5312 34.7157 51.8155 28 43.5312 28C35.247 28 28.5312 34.7157 28.5312 43C28.5312 51.2843 35.247 58 43.5312 58Z" fill="white"/>
</mask>
<g mask="url(#mask0_400_7648)">
<mask id="mask1_400_7648" style="mask-type:luminance" maskUnits="userSpaceOnUse" x="28" y="28" width="18" height="16">
<path fill-rule="evenodd" clip-rule="evenodd" d="M28.5312 28H45.0987V43.6907H28.5312V28Z" fill="white"/>
</mask>
<g mask="url(#mask1_400_7648)">
<path d="M47.2202 47.1452C48.6935 47.6815 50.2951 46.9494 50.8094 45.5363C51.3237 44.1233 50.5674 42.533 49.0941 41.9968C47.6208 41.4605 46.0192 42.1926 45.5049 43.6056C44.9906 45.0187 45.7469 46.609 47.2202 47.1452ZM46.2968 49.6824C43.4307 48.6392 41.9403 45.5051 42.9677 42.6822C43.9952 39.8592 47.1515 38.4164 50.0175 39.4596C52.8836 40.5027 54.374 43.6368 53.3466 46.4598C52.3191 49.2827 49.1628 50.7255 46.2968 49.6824Z" fill="white"/>
<path d="M45.518 51.8308C49.8788 53.418 54.5596 51.3882 56.0139 47.3925C57.4683 43.3968 55.1872 38.8331 50.8265 37.2459C46.4657 35.6587 41.7849 37.6885 40.3306 41.6842C38.8763 45.6799 41.1573 50.2436 45.518 51.8308ZM44.5946 54.368C38.8625 52.2816 35.8175 46.1895 37.7934 40.7608C39.7693 35.332 46.0179 32.6224 51.7499 34.7087C57.482 36.795 60.527 42.8872 58.5511 48.3159C56.5752 53.7447 50.3267 56.4543 44.5946 54.368Z" fill="white"/>
<path d="M43.7274 56.7455C50.9542 59.3758 58.7593 55.9913 61.2016 49.2812C63.6439 42.5711 59.8404 34.9613 52.6136 32.331C45.3868 29.7007 37.5817 33.0852 35.1394 39.7953C32.6971 46.5054 36.5006 54.1151 43.7274 56.7455ZM42.804 59.2826C34.2059 56.1532 29.6384 47.015 32.6022 38.8718C35.5661 30.7287 44.9389 26.6644 53.537 29.7938C62.1351 32.9233 66.7026 42.0615 63.7388 50.2046C60.7749 58.3477 51.4021 62.4121 42.804 59.2826Z" fill="white"/>
</g>
<path fill-rule="evenodd" clip-rule="evenodd" d="M48.1073 38.9775C51.3796 38.9775 54.0323 41.6638 54.0323 44.9775C54.0323 48.2912 51.3796 50.9775 48.1073 50.9775C46.9224 50.9775 45.8188 50.6253 44.8929 50.0187L41.121 53.7909C40.5938 54.3181 39.739 54.3181 39.2118 53.7909C38.6846 53.2637 38.6846 52.4089 39.2118 51.8817L43.0266 48.0662C42.4906 47.164 42.1823 46.1072 42.1823 44.9775C42.1823 41.6638 44.835 38.9775 48.1073 38.9775Z" fill="white"/>
<path d="M48.1805 46.5702C49.0065 46.5702 49.686 45.8821 49.686 45.021C49.686 44.16 49.0065 43.4718 48.1805 43.4718C47.3545 43.4718 46.6749 44.16 46.6749 45.021C46.6749 45.8821 47.3545 46.5702 48.1805 46.5702ZM48.1805 48.5147C46.2751 48.5147 44.7305 46.9505 44.7305 45.021C44.7305 43.0915 46.2751 41.5273 48.1805 41.5273C50.0859 41.5273 51.6305 43.0915 51.6305 45.021C51.6305 46.9505 50.0859 48.5147 48.1805 48.5147Z" fill="#FFAC40"/>
</g>
<path d="M79.1882 33C81.1934 33 82.7838 33.6836 83.9596 35.0508C85.1354 36.418 85.7233 38.3913 85.7233 40.9707V45.5234C85.7233 48.112 85.14 50.0853 83.9733 51.4434C82.8066 52.8014 81.2207 53.4805 79.2155 53.4805C77.2012 53.4805 75.6061 52.8014 74.4303 51.4434C73.2546 50.0853 72.6667 48.112 72.6667 45.5234V40.9707C72.6667 38.3913 73.25 36.418 74.4167 35.0508C75.5833 33.6836 77.1738 33 79.1882 33ZM68.3691 33V52.9062H65.0469V36.1582H61V33.7109L68.3691 33ZM79.1882 35.666C78.14 35.666 77.3447 36.0579 76.8024 36.8418C76.2601 37.6257 75.9889 38.8333 75.9889 40.4648V46.002C75.9889 47.6426 76.2646 48.8571 76.8161 49.6455C77.3675 50.4339 78.1673 50.8281 79.2155 50.8281C80.2637 50.8281 81.0566 50.4362 81.5944 49.6523C82.1322 48.8685 82.401 47.6517 82.401 46.002V40.4648C82.401 38.8333 82.1276 37.6257 81.5807 36.8418C81.0339 36.0579 80.2363 35.666 79.1882 35.666ZM102.057 45.5234C102.057 48.112 101.473 50.0853 100.307 51.4434C99.14 52.8014 97.554 53.4805 95.5488 53.4805C93.5345 53.4805 91.9395 52.8014 90.7637 51.4434C89.5879 50.0853 89 48.112 89 45.5234V40.9707C89 38.3913 89.5833 36.418 90.75 35.0508C91.9167 33.6836 93.5072 33 95.5215 33C97.5267 33 99.1172 33.6836 100.293 35.0508C101.469 36.418 102.057 38.3913 102.057 40.9707V45.5234ZM98.7344 40.4648C98.7344 38.8333 98.4609 37.6257 97.9141 36.8418C97.3672 36.0579 96.5697 35.666 95.5215 35.666C94.4733 35.666 93.6781 36.0579 93.1357 36.8418C92.5934 37.6257 92.3223 38.8333 92.3223 40.4648V46.002C92.3223 47.6426 92.598 48.8571 93.1494 49.6455C93.7008 50.4339 94.5006 50.8281 95.5488 50.8281C96.597 50.8281 97.39 50.4362 97.9277 49.6523C98.4655 48.8685 98.7344 47.6517 98.7344 46.002V40.4648ZM105.333 37.1152C105.333 35.9486 105.709 34.971 106.461 34.1826C107.213 33.3942 108.241 33 109.544 33C110.857 33 111.889 33.3919 112.641 34.1758C113.393 34.9596 113.769 35.9394 113.769 37.1152V38.168C113.769 39.3346 113.393 40.3076 112.641 41.0869C111.889 41.8662 110.866 42.2559 109.572 42.2559C108.259 42.2559 107.225 41.8662 106.468 41.0869C105.712 40.3076 105.333 39.3346 105.333 38.168V37.1152ZM107.644 38.168C107.644 38.7513 107.81 39.2458 108.143 39.6514C108.476 40.057 108.952 40.2598 109.572 40.2598C110.173 40.2598 110.636 40.0592 110.959 39.6582C111.283 39.2572 111.445 38.7604 111.445 38.168V37.1152C111.445 36.5228 111.278 36.0215 110.946 35.6113C110.613 35.2012 110.146 34.9961 109.544 34.9961C108.934 34.9961 108.464 35.2012 108.136 35.6113C107.808 36.0215 107.644 36.5228 107.644 37.1152V38.168ZM114.904 48.3125C114.904 47.1549 115.282 46.182 116.038 45.3936C116.795 44.6051 117.82 44.2109 119.115 44.2109C120.427 44.2109 121.459 44.6029 122.211 45.3867C122.963 46.1706 123.339 47.1458 123.339 48.3125V49.3789C123.339 50.5547 122.963 51.5322 122.211 52.3115C121.459 53.0908 120.436 53.4805 119.142 53.4805C117.829 53.4805 116.795 53.0885 116.038 52.3047C115.282 51.5208 114.904 50.5456 114.904 49.3789V48.3125ZM117.214 49.3789C117.214 49.9622 117.385 50.459 117.727 50.8691C118.069 51.2793 118.54 51.4844 119.142 51.4844C119.78 51.4844 120.254 51.2861 120.564 50.8896C120.874 50.4932 121.029 49.9896 121.029 49.3789V48.3125C121.029 47.7292 120.862 47.2324 120.53 46.8223C120.197 46.4121 119.725 46.207 119.115 46.207C118.504 46.207 118.035 46.4121 117.706 46.8223C117.378 47.2324 117.214 47.7292 117.214 48.3125V49.3789ZM110.255 51.7031L108.546 50.7188L118.267 35.1602L119.976 36.1445L110.255 51.7031Z" fill="black"/>
</svg>
