<svg width="643" height="333" viewBox="0 0 643 333" fill="none" xmlns="http://www.w3.org/2000/svg">
<path d="M37.5047 221.228C26.0814 221.228 14.6581 219.716 3.31493 216.698C1.95268 216.334 1 215.102 1 213.693V97.8758C1 96.9112 1.44963 95.9955 2.21534 95.4088C2.98105 94.822 3.98271 94.622 4.91758 94.8709C26.54 100.627 48.4651 100.627 70.0875 94.8709C71.7524 94.4264 73.4575 95.4176 73.9026 97.0757C74.3478 98.7381 73.3595 100.441 71.6946 100.885C50.3126 106.579 28.6457 106.904 7.23252 101.868V211.284C28.1025 216.44 49.2397 216.24 70.0919 210.688C71.7524 210.244 73.4619 211.231 73.9071 212.893C74.3523 214.556 73.364 216.258 71.699 216.703C60.3558 219.721 48.9325 221.232 37.5092 221.232L37.5047 221.228Z" fill="#C4F5F5"/>
<path d="M73.9045 97.0664C74.3497 98.7289 73.3614 100.431 71.6964 100.876C50.3144 106.57 28.6475 106.895 7.23438 101.858" stroke="#00BFE6" stroke-width="1.78066" stroke-linecap="round" stroke-linejoin="round"/>
<path d="M73.9026 178.885V212.89C74.3478 214.552 73.3595 216.255 71.6946 216.699C60.3514 219.718 48.9281 221.229 37.5047 221.229C26.0814 221.229 14.6581 219.718 3.31493 216.699C1.95268 216.335 1 215.104 1 213.694V97.877" stroke="#00BFE6" stroke-width="1.78066" stroke-linecap="round" stroke-linejoin="round"/>
<path d="M4.91569 149.053L3.30859 173.092L20.586 174.737V150.431L4.91569 149.053Z" fill="#C4F5F5"/>
<path d="M7.23828 173.463L20.5937 174.735V150.429" stroke="#00BFE6" stroke-width="1.78066" stroke-linecap="round" stroke-linejoin="round"/>
<path d="M152.98 29.6523V212.493" stroke="#00BFE6" stroke-width="5.34197" stroke-linecap="round" stroke-linejoin="round"/>
<path d="M208.159 221.93V111.416C208.159 66.2579 183.482 29.6523 153.044 29.6523C122.607 29.6523 97.9297 66.2579 97.9297 111.416V221.93" stroke="#00BFE6" stroke-width="5.34197" stroke-linecap="round" stroke-linejoin="round"/>
<path d="M153.028 258.13C199.744 258.13 237.614 255.145 237.614 251.462C237.614 247.78 199.744 244.794 153.028 244.794C106.312 244.794 68.4414 247.78 68.4414 251.462C68.4414 255.145 106.312 258.13 153.028 258.13Z" fill="#4D1F1F" stroke="#4D1F1F" stroke-width="1.78066" stroke-linecap="round" stroke-linejoin="round"/>
<path d="M68.4414 247.021C68.4414 250.701 106.314 253.688 153.028 253.688C199.742 253.688 237.614 250.701 237.614 247.021V224.795H68.4414V247.021Z" fill="#C4F5F5" stroke="#00BFE6" stroke-width="1.78066" stroke-linecap="round" stroke-linejoin="round"/>
<path d="M68.4414 215.907V224.797C68.4414 228.478 106.314 231.465 153.028 231.465C199.742 231.465 237.614 228.478 237.614 224.797V215.907H68.4414Z" fill="#00BFE6"/>
<path d="M152.993 222.572C199.709 222.572 237.579 219.587 237.579 215.904C237.579 212.222 199.709 209.237 152.993 209.237C106.277 209.237 68.4062 212.222 68.4062 215.904C68.4062 219.587 106.277 222.572 152.993 222.572Z" fill="#00BFE6"/>
<path d="M236.264 215.958C236.264 219.58 199.006 222.519 153.044 222.519C107.082 222.519 69.8242 219.58 69.8242 215.958" stroke="#4D1F1F" stroke-width="1.78066" stroke-linecap="round" stroke-linejoin="round"/>
<path d="M68.4414 247.022C68.4414 250.703 106.314 253.69 153.028 253.69C199.742 253.69 237.614 250.703 237.614 247.022" stroke="#4D1F1F" stroke-width="1.78066" stroke-linecap="round" stroke-linejoin="round"/>
<path d="M152.986 217.235C188.638 217.235 217.539 216.638 217.539 215.901C217.539 215.165 188.638 214.568 152.986 214.568C117.335 214.568 88.4336 215.165 88.4336 215.901C88.4336 216.638 117.335 217.235 152.986 217.235Z" fill="#4D1F1F" stroke="#4D1F1F" stroke-width="1.78066" stroke-linecap="round" stroke-linejoin="round"/>
<path d="M129.997 201.641V205.615C129.997 207.486 128.75 209.131 126.943 209.638L116.365 212.607C115.64 212.812 115.137 213.474 115.137 214.23C115.137 215.159 115.894 215.914 116.824 215.914H147.96C149.046 215.914 149.923 215.039 149.923 213.954C149.923 213.043 149.291 212.247 148.401 212.043L146.985 211.718C145.649 211.411 144.701 210.225 144.701 208.856V202.85L130.001 201.646L129.997 201.641Z" fill="#FF5C4D"/>
<path d="M146.201 190.434C143.29 192.741 140.881 195.617 139.118 198.885L137.249 202.343C136.527 203.677 135.13 204.512 133.612 204.512H132.815C130.531 204.512 128.683 202.667 128.683 200.387C128.683 196.244 126.355 192.453 122.66 190.572L107.328 182.762" fill="#C4F5F5"/>
<path d="M146.201 190.434C143.29 192.741 140.881 195.617 139.118 198.885L137.249 202.343C136.527 203.677 135.13 204.512 133.612 204.512H132.815C130.531 204.512 128.683 202.667 128.683 200.387C128.683 196.244 126.355 192.453 122.66 190.572L107.328 182.762" stroke="#C4F5F5" stroke-width="1.78066" stroke-linecap="round" stroke-linejoin="round"/>
<path d="M195.036 158.574L191.275 156.978L138.119 134.503C129.79 130.978 120.147 133.019 113.963 139.615C113.91 139.669 113.861 139.726 113.808 139.78C107.887 146.096 106.311 155.329 109.837 163.326L110.001 163.699C114.591 174.109 124.906 180.822 136.298 180.813L164.345 180.786C165.369 180.786 166.393 180.742 167.408 180.666C174.976 180.101 182.193 177.483 188.301 173.167C191.43 170.958 194.271 168.304 196.724 165.25C198.518 163.019 197.681 159.689 195.041 158.569L195.036 158.574Z" fill="#00BFE6" stroke="#00BFE6" stroke-width="1.78066" stroke-linecap="round" stroke-linejoin="round"/>
<path d="M94.1707 146.283C94.1707 146.283 89.0868 154.676 91.2236 168.118C95.7289 175.416 102.634 181.311 111.328 184.462L131.561 191.806C135.172 193.117 137.58 196.544 137.58 200.38C137.58 202.661 139.428 204.505 141.711 204.505H142.508C144.026 204.505 145.424 203.674 146.145 202.336L148.015 198.878C149.778 195.611 152.191 192.735 155.098 190.428L167.216 180.813H136.289C93.1824 180.813 94.1707 146.283 94.1707 146.283Z" fill="#FBFCF9" stroke="#C4F5F5" stroke-width="1.78066" stroke-linecap="round" stroke-linejoin="round"/>
<path d="M94.1774 146.281C91.6354 140.915 89.828 135.239 89.2181 129.438C88.7996 130.847 88.3455 132.247 87.8469 133.643L87.6555 134.172C83.4619 145.889 85.1625 158.282 91.2303 168.115C89.0934 154.673 94.1774 146.281 94.1774 146.281Z" fill="#00BFE6" stroke="#00BFE6" stroke-width="1.78066" stroke-linecap="round" stroke-linejoin="round"/>
<path d="M113.967 139.612C120.151 133.02 129.794 130.98 138.123 134.501L191.279 156.975L144.819 137.248C135.056 133.1 127.149 126.019 121.945 117.293C101.755 120.89 95.6563 139.115 94.1738 146.28C94.1738 146.28 93.1854 180.81 136.293 180.81H167.221L167.403 180.663C166.388 180.739 165.369 180.783 164.341 180.783L136.302 180.81C124.91 180.819 114.59 174.107 109.996 163.696L109.831 163.323C106.305 155.321 107.881 146.089 113.802 139.777C113.856 139.724 113.905 139.666 113.958 139.612H113.967Z" fill="#00BFE6" stroke="#00BFE6" stroke-width="1.78066" stroke-linecap="round" stroke-linejoin="round"/>
<path d="M124.479 133.444C120.539 134.426 116.871 136.52 113.963 139.618C113.91 139.671 113.861 139.729 113.808 139.783C107.887 146.099 106.311 155.332 109.837 163.328L110.001 163.702C114.591 174.112 124.906 180.824 136.298 180.815L164.345 180.789C165.369 180.789 166.393 180.744 167.408 180.669C174.976 180.104 182.193 177.486 188.301 173.17C191.43 170.961 194.271 168.307 196.724 165.253C198.518 163.022 197.681 159.692 195.041 158.572L191.279 156.976" stroke="#4D1F1F" stroke-width="1.78066" stroke-linecap="round" stroke-linejoin="round"/>
<path d="M140.352 121.814L141.798 114.755" stroke="#4D1F1F" stroke-width="1.78066" stroke-linecap="round" stroke-linejoin="round"/>
<path d="M164.059 133.465L168.074 128.331" stroke="#4D1F1F" stroke-width="1.78066" stroke-linecap="round" stroke-linejoin="round"/>
<path d="M191.27 156.975L144.811 137.247C135.048 133.1 127.142 126.019 121.938 117.293" stroke="#C4F5F5" stroke-width="1.78066" stroke-linecap="round" stroke-linejoin="round"/>
<path d="M121.941 117.298C117.524 109.897 115.054 103.181 115.054 94.1972V92.3258C115.054 92.3258 115.583 80.9019 104.779 80.9019C102.304 80.9019 99.8596 81.5909 97.7139 82.8266H97.7094C94.473 84.6936 92.4786 88.1385 92.4786 91.868C92.4786 96.0819 92.4741 101.887 92.4697 107.181C92.4652 114.698 91.3745 122.166 89.2109 129.443C89.8208 135.243 91.6327 140.92 94.1702 146.285C95.6527 139.115 101.752 120.895 121.941 117.298Z" fill="#4D1F1F" stroke="#4D1F1F" stroke-width="1.78066" stroke-linecap="round" stroke-linejoin="round"/>
<path d="M88.199 110.566C87.4956 97.631 89.539 92.328 97.7125 87.5806C97.7125 87.5806 101.67 94.5105 101.67 103.276L99.9295 101.872C96.8044 99.3468 92.1211 100.583 90.652 104.321L88.2035 110.566H88.199Z" fill="#4D1F1F" stroke="#4D1F1F" stroke-width="1.78066" stroke-linecap="round" stroke-linejoin="round"/>
<path d="M88.9609 99.1871V93.4841C88.9609 92.4795 90.0427 91.666 91.3783 91.666C92.6203 91.666 93.4261 92.6573 92.8563 93.4885L88.9609 99.1871Z" fill="#FF5C4D" stroke="#FF5C4D" stroke-width="1.78066" stroke-linecap="round" stroke-linejoin="round"/>
<path d="M88.1992 110.561L89.833 106.396C91.7028 101.627 97.6771 100.049 101.666 103.271C101.653 100.684 100.134 98.0528 97.7439 97.0571" stroke="#00BFE6" stroke-width="1.78066" stroke-linecap="round" stroke-linejoin="round"/>
<path d="M107.323 94.5819C109.29 94.5819 110.885 92.9898 110.885 91.0258C110.885 89.0618 109.29 87.4697 107.323 87.4697C105.356 87.4697 103.762 89.0618 103.762 91.0258C103.762 92.9898 105.356 94.5819 107.323 94.5819Z" stroke="#C4F5F5" stroke-width="1.78066" stroke-linecap="round" stroke-linejoin="round"/>
<path d="M214.296 162.414L191.267 156.978L195.029 158.573C197.669 159.693 198.506 163.018 196.712 165.254C194.259 168.304 191.419 170.962 188.289 173.171H199.672C205.491 173.171 211.113 171.064 215.494 167.241C217.208 165.743 216.513 162.938 214.296 162.414Z" fill="#4D1F1F" stroke="#4D1F1F" stroke-width="1.78066" stroke-linecap="round" stroke-linejoin="round"/>
<path d="M162.518 170.432C167.366 164.143 170.634 156.661 172.04 148.851L159.393 143.504C158.022 151.43 154.727 159.022 149.817 165.401C144.876 171.815 138.314 176.967 130.941 180.318C132.682 180.647 134.472 180.816 136.288 180.816L151.624 180.803C155.751 177.918 159.451 174.42 162.522 170.432H162.518Z" fill="#4D1F1F" stroke="#4D1F1F" stroke-width="1.78066" stroke-linecap="round" stroke-linejoin="round"/>
<path d="M137.567 205.62C137.567 207.491 136.321 209.136 134.513 209.642L123.936 212.612C123.21 212.816 122.707 213.479 122.707 214.234C122.707 215.163 123.464 215.919 124.394 215.919" stroke="#4D1F1F" stroke-width="1.78066" stroke-linecap="round" stroke-linejoin="round"/>
<path d="M115.137 215.907H149.683" stroke="#4D1F1F" stroke-width="1.78066" stroke-linecap="round" stroke-linejoin="round"/>
<path d="M153.037 0C145.585 0 139.539 6.03205 139.539 13.4776C139.539 20.9232 145.58 26.9552 153.037 26.9552C160.494 26.9552 166.535 20.9232 166.535 13.4776C166.535 6.03205 160.494 0 153.037 0ZM153.037 20.2164C149.311 20.2164 146.288 17.1982 146.288 13.4776C146.288 9.75706 149.311 6.73881 153.037 6.73881C156.763 6.73881 159.786 9.75706 159.786 13.4776C159.786 17.1982 156.763 20.2164 153.037 20.2164Z" fill="#C4F5F5"/>
<path d="M139.547 13.478C139.547 20.9192 145.588 26.9556 153.045 26.9556C160.501 26.9556 166.543 20.9236 166.543 13.478" stroke="#00BFE6" stroke-width="1.78066" stroke-linecap="round" stroke-linejoin="round"/>
<path d="M146.293 13.4825C146.293 9.7619 149.316 6.74365 153.042 6.74365C156.768 6.74365 159.791 9.7619 159.791 13.4825" stroke="#00BFE6" stroke-width="1.78066" stroke-linecap="round" stroke-linejoin="round"/>
<path d="M234.927 225.506C233.436 225.506 232.229 224.297 232.229 222.812V111.409C232.229 67.8112 196.707 32.3436 153.043 32.3436C109.379 32.3436 73.8567 67.8112 73.8567 111.409V222.812C73.8567 224.302 72.6457 225.506 71.1588 225.506C69.6719 225.506 68.4609 224.297 68.4609 222.812V111.409C68.4609 64.8374 106.405 26.9517 153.047 26.9517C199.69 26.9517 237.634 64.8374 237.634 111.409V222.812C237.634 224.302 236.423 225.506 234.936 225.506H234.927Z" fill="#C4F5F5"/>
<path d="M237.625 222.816C237.625 224.306 236.414 225.51 234.927 225.51C233.44 225.51 232.229 224.301 232.229 222.816V111.413C232.229 67.8152 196.707 32.3477 153.043 32.3477C109.379 32.3477 73.8567 67.8152 73.8567 111.413V222.816C73.8567 224.306 72.6457 225.51 71.1588 225.51C69.6719 225.51 68.4609 224.301 68.4609 222.816" stroke="#00BFE6" stroke-width="1.78066" stroke-linecap="round" stroke-linejoin="round"/>
<path d="M184.534 229.929C183.043 229.929 181.836 228.72 181.836 227.236V111.414C181.836 89.895 178.622 69.7097 172.79 54.5652C167.35 40.443 160.151 32.344 153.042 32.344C145.932 32.344 138.729 40.443 133.289 54.5652C127.457 69.7052 124.243 89.895 124.243 111.414V227.236C124.243 228.725 123.032 229.929 121.545 229.929C120.059 229.929 118.848 228.72 118.848 227.236V111.414C118.848 89.2504 122.187 68.3761 128.25 52.6315C134.629 36.0735 143.43 26.9565 153.037 26.9565C162.644 26.9565 171.45 36.0735 177.825 52.6315C183.888 68.3761 187.227 89.2504 187.227 111.414V227.236C187.227 228.725 186.016 229.929 184.529 229.929H184.534Z" fill="#C4F5F5"/>
<path d="M187.232 227.235C187.232 228.724 186.021 229.929 184.534 229.929C183.047 229.929 181.836 228.72 181.836 227.235V111.413C181.836 89.8942 178.622 69.7089 172.79 54.5644C167.35 40.4423 160.151 32.3433 153.042 32.3433C145.932 32.3433 138.729 40.4423 133.289 54.5644C127.457 69.7045 124.243 89.8942 124.243 111.413V227.235C124.243 228.724 123.032 229.929 121.545 229.929C120.059 229.929 118.848 228.72 118.848 227.235" stroke="#00BFE6" stroke-width="1.78066" stroke-linecap="round" stroke-linejoin="round"/>
<path d="M122.496 15.7418L119.242 5.99365" stroke="#00BFE6" stroke-width="1.78066" stroke-linecap="round" stroke-linejoin="round"/>
<path d="M108.384 22.9627L101.875 14.6592" stroke="#00BFE6" stroke-width="1.78066" stroke-linecap="round" stroke-linejoin="round"/>
<path d="M95.9742 55.7568C91.055 56.2102 89.0294 55.7746 88.8602 53.9343C88.6599 51.7829 90.4317 50.8182 92.346 50.0226C94.1445 49.3602 95.5112 48.6802 95.3776 47.2666C95.2663 46.0398 94.3537 45.5641 92.6932 45.7197C89.5547 46.0087 88.3082 48.6001 84.2481 48.9735C79.6984 49.3914 77.9978 47.1332 77.6773 43.6305C77.0941 37.3051 82.2181 34.3536 94.6431 33.2112C106.943 32.0777 111.547 36.2383 112.05 41.7058C112.53 46.9243 110.572 48.529 106.503 50.1426C104.112 51.1072 103.631 51.9562 103.288 52.9786C102.843 54.1965 102.251 55.1789 95.9786 55.7568H95.9742ZM88.0144 65.7849C87.5736 60.9887 90.6053 58.5083 96.3081 57.9838C102.015 57.4593 105.497 59.3395 105.937 64.1358C106.356 68.6921 103.24 70.2256 97.4833 70.7546C91.7272 71.2836 88.4239 70.2967 88.0099 65.7849H88.0144Z" fill="#FF5C4D"/>
<path d="M217.385 290.252L162.119 271.858L39.3086 290.252L88.9876 306.788C92.6604 308.01 96.5692 308.348 100.398 307.774L217.385 290.252Z" fill="#4D1F1F" stroke="#4D1F1F" stroke-width="1.78066" stroke-linecap="round" stroke-linejoin="round"/>
<path d="M43.5068 285.516L88.9876 300.651C92.6604 301.874 96.5692 302.212 100.398 301.638L212.154 284.902C215.16 284.453 217.385 281.875 217.385 278.839V251.751C217.385 249.11 215.694 246.768 213.187 245.932L167.706 230.796C164.034 229.574 160.125 229.236 156.296 229.81L44.5396 246.545C41.5346 246.994 39.3086 249.573 39.3086 252.609V279.697C39.3086 282.338 41.0003 284.68 43.5068 285.516Z" fill="#FFBB99"/>
<path d="M212.763 250.478L100.392 267.307C96.5632 267.881 92.6544 267.543 88.9815 266.32L44.3555 251.469" stroke="#FF5C4D" stroke-width="1.78066" stroke-linecap="round" stroke-linejoin="round"/>
<path d="M39.3086 279.7C39.3086 282.341 41.0003 284.683 43.5068 285.519L88.9876 300.655C92.6604 301.877 96.5692 302.215 100.398 301.641L212.154 284.905C215.16 284.456 217.385 281.878 217.385 278.842" stroke="#FF5C4D" stroke-width="1.78066" stroke-linecap="round" stroke-linejoin="round"/>
<path d="M94.5078 271.858V297.284" stroke="#FF5C4D" stroke-width="1.78066" stroke-linecap="round" stroke-linejoin="round"/>
<path d="M123.162 234.772L68.0977 243.018L91.5987 250.841L146.734 242.582L123.162 234.772Z" fill="#FBFCF9"/>
<path d="M91.5977 250.845L106.845 255.921L159.483 248.036C160.124 247.938 160.2 247.049 159.586 246.849L146.733 242.59L91.5977 250.849V250.845Z" fill="#FF5C4D"/>
<path d="M68.0977 243.016L106.847 255.911L159.366 248.048" stroke="#FF5C4D" stroke-width="1.78066" stroke-linecap="round" stroke-linejoin="round"/>
<path d="M524.347 259.375C548.934 259.375 568.865 257.385 568.865 254.93C568.865 252.475 548.934 250.485 524.347 250.485C499.76 250.485 479.828 252.475 479.828 254.93C479.828 257.385 499.76 259.375 524.347 259.375Z" fill="#4D1F1F" stroke="#4D1F1F" stroke-width="1.78066" stroke-linecap="round" stroke-linejoin="round"/>
<path d="M559.962 219.374H488.732L479.828 241.6V250.49C479.828 252.944 499.759 254.935 524.347 254.935C548.934 254.935 568.865 252.944 568.865 250.49V241.6L559.962 219.374Z" fill="#FFE88C"/>
<path d="M524.347 246.042C499.759 246.042 479.828 244.05 479.828 241.597V250.487C479.828 252.941 499.759 254.932 524.347 254.932C548.934 254.932 568.865 252.941 568.865 250.487V241.597C568.865 244.05 548.934 246.042 524.347 246.042Z" fill="#FFBB99"/>
<path d="M524.353 222.929C544.022 222.929 559.967 221.337 559.967 219.373C559.967 217.409 544.022 215.817 524.353 215.817C504.683 215.817 488.738 217.409 488.738 219.373C488.738 221.337 504.683 222.929 524.353 222.929Z" fill="#FF5C4D"/>
<path d="M488.738 219.371L490.207 218.931C491.979 218.402 493.19 216.771 493.19 214.926C493.19 213.081 491.975 211.45 490.207 210.921L488.738 210.481H559.967L558.498 210.921C556.726 211.45 555.515 213.081 555.515 214.926C555.515 216.771 556.731 218.402 558.498 218.931L559.967 219.371" fill="#FF5C4D"/>
<path d="M506.539 250.489V241.599L510.1 219.373C510.1 218.849 510.563 218.347 511.387 217.898C511.699 217.129 511.881 216.071 511.881 214.928C511.881 213.786 511.694 212.724 511.387 211.959C510.563 211.51 510.1 211.012 510.1 210.483V206.038C510.1 204.091 516.373 202.509 524.15 202.482C504.571 202.491 488.732 204.082 488.732 206.038V210.483C488.732 211.008 489.885 211.51 491.941 211.959C492.716 212.728 493.184 213.786 493.184 214.928C493.184 216.071 492.716 217.133 491.941 217.898C489.885 218.347 488.732 218.844 488.732 219.373L479.828 241.599V250.489C479.828 252.93 499.496 254.908 523.856 254.934C514.249 254.868 506.539 252.907 506.539 250.494V250.489Z" fill="#FF5C4D" stroke="#FF5C4D" stroke-width="1.78066" stroke-linecap="round" stroke-linejoin="round"/>
<path d="M488.738 210.48C488.738 212.445 504.685 214.036 524.353 214.036C544.021 214.036 559.967 212.445 559.967 210.48V206.035H488.738V210.48Z" fill="#FFBB99"/>
<path d="M524.353 209.594C544.022 209.594 559.967 208.002 559.967 206.038C559.967 204.074 544.022 202.482 524.353 202.482C504.683 202.482 488.738 204.074 488.738 206.038C488.738 208.002 504.683 209.594 524.353 209.594Z" fill="#FFE88C"/>
<path d="M568.865 241.597C568.865 244.05 548.934 246.042 524.347 246.042C499.759 246.042 479.828 244.05 479.828 241.597" stroke="#FFE88C" stroke-width="1.78066" stroke-linecap="round" stroke-linejoin="round"/>
<path d="M559.967 219.374C559.967 221.339 544.021 222.93 524.353 222.93C504.685 222.93 488.738 221.339 488.738 219.374" stroke="#FFE88C" stroke-width="1.78066" stroke-linecap="round" stroke-linejoin="round"/>
<path d="M559.962 219.373C559.962 218.849 558.809 218.347 556.752 217.898C555.977 217.129 555.51 216.071 555.51 214.928C555.51 213.786 555.977 212.724 556.752 211.959C558.809 211.51 559.962 211.012 559.962 210.483V206.038C559.962 204.073 544.015 202.482 524.347 202.482C504.678 202.482 488.732 204.073 488.732 206.038V210.483C488.732 211.008 489.885 211.51 491.942 211.959C492.716 212.728 493.184 213.786 493.184 214.928C493.184 216.071 492.716 217.133 491.942 217.898C489.885 218.347 488.732 218.844 488.732 219.373L479.828 241.599V250.489C479.828 252.943 499.759 254.934 524.347 254.934C548.934 254.934 568.865 252.943 568.865 250.489V241.599L559.962 219.373Z" stroke="#FFBB99" stroke-width="1.78066" stroke-linecap="round" stroke-linejoin="round"/>
<path d="M488.738 210.481C488.738 212.446 504.685 214.037 524.353 214.037C544.021 214.037 559.967 212.446 559.967 210.481" stroke="#FF5C4D" stroke-width="1.78066" stroke-linecap="round" stroke-linejoin="round"/>
<path d="M564.413 174.919C555.808 174.919 548.832 181.884 548.832 190.477C548.832 199.069 555.808 206.035 564.413 206.035C573.019 206.035 579.995 199.069 579.995 190.477C579.995 181.884 573.019 174.919 564.413 174.919ZM564.413 199.367C559.494 199.367 555.51 195.389 555.51 190.477C555.51 185.565 559.494 181.587 564.413 181.587C569.333 181.587 573.317 185.565 573.317 190.477C573.317 195.389 569.333 199.367 564.413 199.367Z" fill="#FFE88C" stroke="#FFBB99" stroke-width="1.78066" stroke-linecap="round" stroke-linejoin="round"/>
<path d="M524.353 206.035H488.738V207.368H524.353V206.035Z" stroke="#FF5C4D" stroke-width="1.78066" stroke-linecap="round" stroke-linejoin="round"/>
<path d="M488.732 206.035V210.48C488.732 211.004 489.885 211.507 491.942 211.956C492.716 212.725 493.184 213.783 493.184 214.925C493.184 216.77 491.968 218.401 490.201 218.93L488.732 219.37L479.828 241.596V250.486C479.828 252.94 499.759 254.931 524.347 254.931C548.934 254.931 568.865 252.94 568.865 250.486" stroke="#4D1F1F" stroke-width="1.78066" stroke-linecap="round" stroke-linejoin="round"/>
<path d="M530.576 90.4644H518.111C514.176 90.4644 510.988 93.6471 510.988 97.5765V204.175C510.988 205.473 511.923 206.593 513.205 206.802C515.022 207.1 518.329 207.371 524.344 207.371C530.358 207.371 533.666 207.1 535.482 206.802C536.764 206.593 537.699 205.473 537.699 204.175V97.5765C537.699 93.6471 534.512 90.4644 530.576 90.4644Z" fill="#FBFCF9" stroke="#C4F5F5" stroke-width="1.78066" stroke-linecap="round" stroke-linejoin="round"/>
<path d="M511.008 99.3525V204.173C511.008 205.471 511.943 206.591 513.225 206.8C515.041 207.098 518.349 207.369 524.363 207.369C530.378 207.369 533.685 207.098 535.502 206.8C536.784 206.591 537.719 205.471 537.719 204.173V202.75" stroke="#00BFE6" stroke-width="1.78066" stroke-linecap="round" stroke-linejoin="round"/>
<path d="M535.276 247.962L404.434 252.896C404.434 254.23 405.271 255.421 406.526 255.875L507.651 292.422L638.663 284.443L535.271 247.962H535.276Z" fill="#4D1F1F" stroke="#4D1F1F" stroke-width="1.78066" stroke-linecap="round" stroke-linejoin="round"/>
<path d="M409.469 252.251C407.786 252.34 406.103 252.554 404.434 252.901L409.469 252.251Z" fill="#FBFCF9" stroke="#4D1F1F" stroke-width="1.78066" stroke-linecap="round" stroke-linejoin="round"/>
<path d="M511.632 259.542C511.458 258.87 511.249 258.208 510.987 257.568C508.747 252.109 502.666 248.558 496.816 249.056L561.663 249.593C552.812 245.584 542.328 244.464 533.544 245.166L409.465 252.256C418.338 251.776 427.322 254.643 435.348 258.666C444.898 263.453 453.552 269.854 462.999 274.842C472.446 279.829 483.14 283.425 493.717 281.91C493.936 281.878 494.154 281.843 494.367 281.807C499.541 280.976 504.625 279.042 508.146 275.02C511.592 271.081 512.936 265.054 511.703 259.835C511.681 259.737 511.65 259.639 511.628 259.542H511.632Z" fill="#FBFCF9" stroke="#C4F5F5" stroke-width="1.78066" stroke-linecap="round" stroke-linejoin="round"/>
<path d="M640.112 249.829C637.735 244.024 631.008 240.379 624.833 241.459L496.827 249.051C502.677 248.553 508.758 252.105 510.997 257.563C511.26 258.199 511.469 258.861 511.643 259.537C511.67 259.635 511.696 259.733 511.719 259.83C512.952 265.049 511.607 271.081 508.162 275.015C504.64 279.042 499.551 280.971 494.383 281.803L621.263 274.353C621.792 274.304 622.318 274.241 622.848 274.166C628.243 273.392 633.608 271.468 637.281 267.276C641.238 262.755 642.427 255.465 640.116 249.824L640.112 249.829Z" fill="#FBFCF9" stroke="#C4F5F5" stroke-width="1.78066" stroke-linecap="round" stroke-linejoin="round"/>
<path d="M511.68 259.532C511.507 258.861 511.298 258.199 511.035 257.559C508.796 252.1 502.715 248.549 496.865 249.046C496.331 249.091 495.796 249.166 495.267 249.282C488.967 250.651 484.115 256.919 484.373 263.351L512.094 261.813C512.072 261.715 511.703 259.63 511.676 259.532H511.68Z" fill="#C4F5F5" stroke="#C4F5F5" stroke-width="1.78066" stroke-linecap="round" stroke-linejoin="round"/>
<path d="M637.304 267.273C633.631 271.469 628.267 273.394 622.871 274.163C622.341 274.239 621.816 274.297 621.286 274.35C621.286 274.35 493.97 281.871 493.757 281.902C483.179 283.418 472.485 279.822 463.038 274.834C453.591 269.847 444.937 263.446 435.387 258.659C427.361 254.636 418.377 251.769 409.504 252.249" stroke="#4D1F1F" stroke-width="1.78066" stroke-linecap="round" stroke-linejoin="round"/>
<path d="M496.858 249.046C502.708 248.549 508.789 252.1 511.028 257.559C511.291 258.194 511.5 258.857 511.674 259.532C511.7 259.63 511.727 259.728 511.749 259.826C512.983 265.044 511.638 271.076 508.192 275.01C504.671 279.038 499.583 280.967 494.414 281.798" stroke="#4D1F1F" stroke-width="1.78066" stroke-linecap="round" stroke-linejoin="round"/>
<path d="M496.865 249.042C496.331 249.086 495.796 249.162 495.267 249.278C488.967 250.647 484.115 256.914 484.373 263.346" stroke="#4D1F1F" stroke-width="1.78066" stroke-linecap="round" stroke-linejoin="round"/>
<path d="M537.29 107.245C536.074 107.245 535.086 106.267 535.073 105.053L535.015 98.3543H529.259C528.034 98.3543 527.042 99.3456 527.042 100.568V100.586C527.042 101.808 526.049 102.799 524.825 102.799H524.807C523.583 102.799 522.59 103.791 522.59 105.013V118.366C522.59 119.589 521.597 120.58 520.373 120.58H520.355C519.131 120.58 518.138 119.589 518.138 118.366V100.568C518.138 99.3456 517.145 98.3543 515.921 98.3543H513.686V109.476C513.686 110.698 512.693 111.69 511.469 111.69H511.451C510.227 111.69 509.234 110.698 509.234 109.476V96.5763C509.234 91.6644 513.219 87.686 518.138 87.686H530.603C535.522 87.686 539.507 91.6644 539.507 96.5763V105.031C539.507 106.253 538.514 107.245 537.29 107.245Z" fill="#FBFCF9" stroke="#C4F5F5" stroke-width="1.78066" stroke-linecap="round" stroke-linejoin="round"/>
<path d="M522.606 118.369C522.606 119.592 521.613 120.583 520.389 120.583H520.371C519.147 120.583 518.154 119.592 518.154 118.369V100.571C518.154 99.3487 517.161 98.3574 515.937 98.3574H513.702V109.479C513.702 110.702 512.71 111.693 511.485 111.693H511.031V114.733" stroke="#00BFE6" stroke-width="1.78066" stroke-linecap="round" stroke-linejoin="round"/>
<path d="M537.301 107.248C536.086 107.248 535.098 106.27 535.084 105.056L535.027 98.3574H529.27C528.046 98.3574 527.053 99.3487 527.053 100.571V100.589C527.053 101.811 526.061 102.803 524.836 102.803H524.819C523.594 102.803 522.602 103.794 522.602 105.016" stroke="#00BFE6" stroke-width="1.78066" stroke-linecap="round" stroke-linejoin="round"/>
<path d="M531.417 71.6258C530.215 67.0429 526.654 63.229 522.295 61.411C521.886 61.2421 521.561 61.771 521.89 62.0688C522.776 62.869 523.457 63.8869 523.76 65.0382C524.459 67.7008 523.382 70.4612 522.175 72.8038C521.142 74.8086 520.007 76.8178 519.624 78.9914C518.957 82.7742 520.862 86.7748 524.348 88.9218C530.015 85.5835 533.087 77.9824 531.417 71.6303V71.6258Z" fill="#FF5C4D" stroke="#FF5C4D" stroke-width="1.78066" stroke-linecap="round" stroke-linejoin="round"/>
<path d="M524.471 86.7725C524.471 86.7725 518.425 80.3315 525.86 73.9395C525.86 73.9395 531.936 80.3538 524.471 86.7725Z" fill="#FFE88C" stroke="#FFE88C" stroke-width="1.78066" stroke-linecap="round" stroke-linejoin="round"/>
<path d="M525.694 65.6489C527.631 67.4047 529.064 69.654 529.701 72.0765C531.09 77.3573 528.775 83.585 524.39 86.7721C524.39 86.7721 518.781 80.1845 525.859 73.9391" stroke="#FFE88C" stroke-width="1.78066" stroke-linecap="round" stroke-linejoin="round"/>
<path d="M518.495 56.7689C518.254 56.6487 518.014 56.524 517.773 56.4038" stroke="#FF5C4D" stroke-width="1.78066" stroke-linecap="round" stroke-linejoin="round"/>
<path d="M534.863 80.5024C535.024 80.0623 535.184 79.6222 535.344 79.1777" stroke="#FF5C4D" stroke-width="1.78066" stroke-linecap="round" stroke-linejoin="round"/>
<path d="M524.349 88.9121C524.349 88.9121 523.655 83.7069 524.398 80.4976" stroke="#FF5C4D" stroke-width="1.78066" stroke-linecap="round" stroke-linejoin="round"/>
<path d="M405.675 273.803C398.405 271.385 393.499 264.588 393.499 256.934V234.188H286.653V256.934C286.653 264.588 281.747 271.38 274.477 273.803L263.481 277.461C261.366 278.164 259.941 280.137 259.941 282.364C259.941 285.218 262.256 287.529 265.115 287.529H415.033C417.891 287.529 420.206 285.218 420.206 282.364C420.206 280.142 418.782 278.168 416.667 277.461L405.671 273.803H405.675Z" fill="#00BFE6" stroke="#00BFE6" stroke-width="1.78066" stroke-linecap="round" stroke-linejoin="round"/>
<path d="M482.543 29.7217H197.62C187.785 29.7217 179.812 37.6823 179.812 47.5021V216.417C179.812 226.236 187.785 234.197 197.62 234.197H482.543C492.378 234.197 500.351 226.236 500.351 216.417V47.5021C500.351 37.6823 492.378 29.7217 482.543 29.7217Z" fill="#4D1F1F" stroke="#4D1F1F" stroke-width="1.78066" stroke-linecap="round" stroke-linejoin="round"/>
<path d="M482.55 38.6099H197.627C192.709 38.6099 188.723 42.5902 188.723 47.5001V216.415C188.723 221.324 192.709 225.305 197.627 225.305H482.55C487.467 225.305 491.453 221.324 491.453 216.415V47.5001C491.453 42.5902 487.467 38.6099 482.55 38.6099Z" fill="#FBFCF9" stroke="#4D1F1F" stroke-width="1.78066" stroke-linecap="round" stroke-linejoin="round"/>
<path d="M393.502 234.197H286.656V247.533H393.502V234.197Z" fill="#4D1F1F" stroke="#4D1F1F" stroke-width="1.78066" stroke-linecap="round" stroke-linejoin="round"/>
<path d="M197.627 38.6099C192.707 38.6099 188.723 42.5882 188.723 47.5001V216.415C188.723 221.326 192.707 225.305 197.627 225.305H286.665V38.6099H197.627Z" fill="#FFE88C"/>
<path d="M482.55 38.6099H197.627C192.709 38.6099 188.723 42.5902 188.723 47.5001V216.415C188.723 221.324 192.709 225.305 197.627 225.305H482.55C487.467 225.305 491.453 221.324 491.453 216.415V47.5001C491.453 42.5902 487.467 38.6099 482.55 38.6099Z" stroke="#4D1F1F" stroke-width="1.78066" stroke-linecap="round" stroke-linejoin="round"/>
<path d="M405.678 273.803C401.249 272.327 397.7 269.229 395.604 265.304H284.559C282.458 269.229 278.91 272.327 274.485 273.803L263.488 277.461H416.683L405.687 273.803H405.678Z" fill="#C4F5F5" stroke="#C4F5F5" stroke-width="1.78066" stroke-linecap="round" stroke-linejoin="round"/>
<path d="M288.445 234.197H391.73" stroke="#00BFE6" stroke-width="1.78066" stroke-linecap="round" stroke-linejoin="round"/>
<path d="M259.941 282.367C259.941 285.221 262.256 287.532 265.115 287.532H415.033C417.891 287.532 420.206 285.221 420.206 282.367" stroke="#4D1F1F" stroke-width="1.78066" stroke-linecap="round" stroke-linejoin="round"/>
<path d="M265.127 287.536L258.004 290.203H422.173L415.05 287.536H265.127Z" fill="#4D1F1F" stroke="#4D1F1F" stroke-width="1.78066" stroke-linecap="round" stroke-linejoin="round"/>
<path d="M223.809 209.32L224.886 208.227C225.051 208.413 225.198 208.564 225.327 208.684C225.456 208.804 225.616 208.933 225.807 209.067C225.999 209.2 226.204 209.298 226.431 209.365C226.653 209.431 226.898 209.467 227.152 209.467C227.659 209.467 228.042 209.338 228.296 209.085C228.55 208.831 228.679 208.538 228.679 208.2C228.679 208.004 228.63 207.827 228.527 207.667C228.43 207.507 228.292 207.373 228.127 207.262C227.958 207.151 227.766 207.049 227.544 206.951C227.321 206.853 227.094 206.76 226.854 206.666C226.613 206.573 226.373 206.471 226.128 206.364C225.888 206.257 225.652 206.129 225.433 205.982C225.211 205.831 225.015 205.666 224.846 205.484C224.677 205.302 224.543 205.075 224.441 204.799C224.338 204.524 224.289 204.222 224.289 203.888C224.289 203.039 224.583 202.372 225.166 201.879C225.75 201.39 226.506 201.141 227.437 201.141C228.367 201.141 229.2 201.443 230.037 202.043L229.151 203.359C228.639 202.915 228.042 202.692 227.357 202.692C226.929 202.692 226.6 202.781 226.364 202.964C226.128 203.146 226.008 203.395 226.008 203.719C226.008 203.977 226.088 204.199 226.253 204.386C226.413 204.577 226.622 204.728 226.88 204.848C227.139 204.968 227.423 205.084 227.735 205.2C228.047 205.315 228.358 205.444 228.67 205.595C228.982 205.746 229.267 205.92 229.52 206.12C229.778 206.32 229.988 206.591 230.148 206.933C230.308 207.275 230.393 207.675 230.393 208.133C230.393 209.009 230.112 209.711 229.551 210.236C228.99 210.76 228.185 211.023 227.139 211.023C226.725 211.023 226.337 210.978 225.986 210.889C225.634 210.8 225.26 210.627 224.873 210.365C224.485 210.102 224.129 209.76 223.809 209.325V209.32Z" fill="#FF5C4D"/>
<path d="M231.043 207.811C231.043 206.922 231.363 206.162 232.009 205.544C232.65 204.921 233.434 204.61 234.351 204.61C234.956 204.61 235.513 204.753 236.025 205.037C236.532 205.322 236.933 205.708 237.226 206.202C237.52 206.695 237.663 207.233 237.663 207.815C237.663 208.398 237.516 208.931 237.226 209.424C236.933 209.918 236.532 210.309 236.025 210.593C235.517 210.882 234.956 211.025 234.351 211.025C233.745 211.025 233.193 210.882 232.686 210.593C232.178 210.305 231.778 209.918 231.484 209.424C231.19 208.931 231.043 208.398 231.043 207.815V207.811ZM232.628 207.811C232.628 208.269 232.797 208.664 233.135 208.993C233.474 209.327 233.879 209.491 234.351 209.491C234.823 209.491 235.237 209.327 235.575 208.993C235.913 208.66 236.082 208.264 236.082 207.811C236.082 207.357 235.913 206.966 235.575 206.633C235.237 206.299 234.831 206.135 234.351 206.135C233.87 206.135 233.478 206.299 233.135 206.633C232.797 206.966 232.628 207.357 232.628 207.811Z" fill="#FF5C4D"/>
<path d="M237.656 204.721H239.419L241.008 208.877L242.611 204.721H244.365L241.859 210.847H240.167L237.656 204.721Z" fill="#FF5C4D"/>
<path d="M244.368 207.842C244.368 207.41 244.443 206.997 244.595 206.606C244.746 206.215 244.96 205.868 245.231 205.574C245.503 205.277 245.846 205.046 246.255 204.868C246.665 204.694 247.11 204.605 247.591 204.605C248.187 204.605 248.731 204.752 249.211 205.046C249.692 205.339 250.066 205.73 250.333 206.215C250.596 206.699 250.729 207.228 250.729 207.806C250.729 207.988 250.716 208.153 250.689 208.308H245.935C246.028 208.691 246.229 209.002 246.536 209.228C246.843 209.46 247.221 209.571 247.671 209.571C247.969 209.571 248.254 209.513 248.53 209.402C248.806 209.291 249.029 209.122 249.202 208.895L250.306 209.753C250.026 210.144 249.652 210.451 249.185 210.678C248.717 210.9 248.219 211.011 247.684 211.011C247.07 211.011 246.509 210.873 245.997 210.593C245.49 210.317 245.089 209.935 244.8 209.446C244.51 208.957 244.363 208.424 244.363 207.833L244.368 207.842ZM245.993 207.144H249.1C249.051 206.832 248.886 206.575 248.592 206.361C248.303 206.152 247.96 206.046 247.573 206.046C247.186 206.046 246.874 206.143 246.594 206.344C246.313 206.544 246.113 206.81 245.993 207.139V207.144Z" fill="#FF5C4D"/>
<path d="M251.793 210.846V204.721H253.409V205.174C253.707 204.957 254.028 204.806 254.375 204.725C254.718 204.645 255.194 204.605 255.808 204.605V206.13C255.403 206.13 255.056 206.152 254.767 206.201C254.477 206.246 254.246 206.312 254.072 206.392C253.899 206.472 253.761 206.588 253.663 206.73C253.565 206.872 253.498 207.024 253.462 207.179C253.427 207.335 253.409 207.53 253.409 207.753V210.846H251.793Z" fill="#FF5C4D"/>
<path d="M256.821 203.404C256.625 203.213 256.527 202.973 256.527 202.693C256.527 202.413 256.625 202.177 256.821 201.986C257.017 201.795 257.262 201.702 257.551 201.702C257.841 201.702 258.077 201.795 258.268 201.986C258.459 202.177 258.557 202.413 258.557 202.697C258.557 202.982 258.459 203.222 258.268 203.413C258.077 203.604 257.836 203.698 257.551 203.698C257.266 203.698 257.017 203.6 256.821 203.409V203.404ZM256.737 210.841V204.715H258.353V210.841H256.737Z" fill="#FF5C4D"/>
<path d="M259.906 210.846V204.721H261.522V205.174C261.678 205.054 261.816 204.966 261.923 204.899C262.03 204.832 262.199 204.77 262.426 204.703C262.653 204.637 262.898 204.605 263.165 204.605C263.517 204.605 263.842 204.659 264.14 204.761C264.438 204.868 264.71 205.023 264.946 205.232C265.186 205.441 265.373 205.726 265.507 206.081C265.64 206.437 265.707 206.846 265.707 207.313V210.846H264.091V207.575C264.091 206.61 263.664 206.13 262.804 206.13C261.945 206.13 261.522 206.606 261.522 207.553V210.846H259.906Z" fill="#FF5C4D"/>
<path d="M267.141 210.643C266.946 210.452 266.848 210.212 266.848 209.932C266.848 209.652 266.946 209.417 267.141 209.225C267.337 209.034 267.582 208.941 267.872 208.941C268.161 208.941 268.397 209.034 268.588 209.225C268.78 209.417 268.878 209.652 268.878 209.937C268.878 210.221 268.78 210.461 268.588 210.652C268.397 210.843 268.157 210.937 267.872 210.937C267.587 210.937 267.337 210.839 267.141 210.648V210.643Z" fill="#FF5C4D"/>
<path d="M217.795 208.952C218.211 208.952 218.548 208.622 218.548 208.214C218.548 207.807 218.211 207.477 217.795 207.477C217.38 207.477 217.043 207.807 217.043 208.214C217.043 208.622 217.38 208.952 217.795 208.952Z" fill="#FF5C4D"/>
<path d="M211.043 204.531V207.673L211.795 208.042L212.548 207.673V206.007H220.058V210.643C220.058 212.047 219.261 213.31 217.983 213.941L216.305 214.763L214.627 213.941C213.442 213.359 212.677 212.239 212.565 210.963L211.8 211.341L211.061 210.976C211.181 212.808 212.263 214.43 213.954 215.257L216.305 216.413L218.656 215.257C220.45 214.377 221.563 212.608 221.563 210.643V204.531H211.052H211.043Z" fill="#FF5C4D"/>
<path d="M214.143 209.361C215.296 208.796 216.164 207.858 216.64 206.743H214.949C214.592 207.285 214.089 207.738 213.471 208.045L211.792 208.867L210.114 208.045C208.832 207.418 208.039 206.151 208.039 204.747V200.111H215.549V203.796H217.05V198.635H206.539V204.747C206.539 206.716 207.652 208.481 209.446 209.361L211.797 210.517L214.147 209.361H214.143Z" fill="#FF5C4D"/>
<path d="M213.295 203.061C213.711 203.061 214.048 202.73 214.048 202.323C214.048 201.915 213.711 201.585 213.295 201.585C212.88 201.585 212.543 201.915 212.543 202.323C212.543 202.73 212.88 203.061 213.295 203.061Z" fill="#FF5C4D"/>
<path d="M478.081 51.9492H300.004V158.632H478.081V51.9492Z" fill="#FBFCF9" stroke="#C4F5F5" stroke-width="1.78066" stroke-linecap="round" stroke-linejoin="round"/>
<path d="M300.004 220.862V171.966H478.081V220.862" fill="#FBFCF9"/>
<path d="M300.004 220.862V171.966H478.081V220.862" stroke="#C4F5F5" stroke-width="1.78066" stroke-linecap="round" stroke-linejoin="round"/>
<path d="M322.281 87.5081C314.905 87.5081 308.926 81.5383 308.926 74.1728C308.926 66.8072 314.905 60.8374 322.281 60.8374C329.658 60.8374 335.637 66.8072 335.637 74.1728C335.637 81.5383 329.658 87.5081 322.281 87.5081Z" fill="#FF5C4D"/>
<path d="M328.234 74.1523C328.234 78.2507 326.395 81.5712 322.291 81.5712C318.186 81.5712 316.348 78.2507 316.348 74.1523C316.348 70.0539 318.186 66.7334 322.291 66.7334C326.395 66.7334 328.234 70.0539 328.234 74.1523Z" fill="#FFBB99"/>
<path d="M313.762 84.4359C316.072 86.3518 319.042 87.5031 322.282 87.5031C325.523 87.5031 328.488 86.3518 330.803 84.4359C328.613 82.6668 325.608 81.5688 322.282 81.5688C318.957 81.5688 315.952 82.6668 313.762 84.4359Z" fill="#00BFE6"/>
<path d="M308.918 96.3994H469.187" stroke="#C4F5F5" stroke-width="1.78066" stroke-linecap="round" stroke-linejoin="round"/>
<path d="M322.281 207.59C314.905 207.59 308.926 201.62 308.926 194.254C308.926 186.889 314.905 180.919 322.281 180.919C329.658 180.919 335.637 186.889 335.637 194.254C335.637 201.62 329.658 207.59 322.281 207.59Z" fill="#00BFE6"/>
<path d="M328.234 194.234C328.234 198.332 326.395 201.653 322.291 201.653C318.186 201.653 316.348 198.332 316.348 194.234C316.348 190.135 318.186 186.815 322.291 186.815C326.395 186.815 328.234 190.135 328.234 194.234Z" fill="#FFBB99"/>
<path d="M313.762 204.517C316.072 206.433 319.042 207.585 322.282 207.585C325.523 207.585 328.488 206.433 330.803 204.517C328.613 202.748 325.608 201.65 322.282 201.65C318.957 201.65 315.952 202.748 313.762 204.517Z" fill="#FF5C4D"/>
<path d="M308.918 216.477H469.187" stroke="#C4F5F5" stroke-width="1.78066" stroke-linecap="round" stroke-linejoin="round"/>
<path d="M219.875 96.3994H273.297" stroke="#FF5C4D" stroke-width="1.78066" stroke-linecap="round" stroke-linejoin="round"/>
<path d="M219.875 83.0649H273.297" stroke="#FF5C4D" stroke-width="1.78066" stroke-linecap="round" stroke-linejoin="round"/>
<path d="M219.875 69.7256H273.297" stroke="#FF5C4D" stroke-width="1.78066" stroke-linecap="round" stroke-linejoin="round"/>
<path d="M219.875 109.734H273.297" stroke="#FF5C4D" stroke-width="1.78066" stroke-linecap="round" stroke-linejoin="round"/>
<path d="M202.062 69.7256H206.514" stroke="#FF5C4D" stroke-width="1.78066" stroke-linecap="round" stroke-linejoin="round"/>
<path d="M202.062 83.0649H206.514" stroke="#FF5C4D" stroke-width="1.78066" stroke-linecap="round" stroke-linejoin="round"/>
<path d="M202.062 96.3994H206.514" stroke="#FF5C4D" stroke-width="1.78066" stroke-linecap="round" stroke-linejoin="round"/>
<path d="M202.062 109.734H206.514" stroke="#FF5C4D" stroke-width="1.78066" stroke-linecap="round" stroke-linejoin="round"/>
<path d="M478.062 158.627V145.292L464.707 158.627H478.062Z" fill="#C4F5F5" stroke="#C4F5F5" stroke-width="1.78066" stroke-linecap="round" stroke-linejoin="round"/>
<path d="M464.707 145.292H478.062L464.707 158.627V145.292Z" stroke="#C4F5F5" stroke-width="1.78066" stroke-linecap="round" stroke-linejoin="round"/>
<path d="M300.004 158.627H464.725L478.081 145.292" stroke="#00BFE6" stroke-width="1.78066" stroke-linecap="round" stroke-linejoin="round"/>
<path d="M620.509 265.614C620.469 265.605 620.433 265.601 620.393 265.592L616.68 264.765C614.646 264.312 613.199 262.507 613.199 260.427V257.253C613.199 254.799 611.205 252.808 608.747 252.808H590.94C588.483 252.808 586.488 254.799 586.488 257.253V260.431C586.488 262.511 585.046 264.312 583.011 264.769L579.579 265.538C579.459 265.561 579.339 265.583 579.223 265.61C575.684 266.29 573.133 269.383 573.133 272.98V299.855C573.133 302.833 575.109 305.442 577.976 306.269C581.787 307.363 588.438 308.443 599.844 308.443C611.249 308.443 617.896 307.363 621.711 306.269C624.578 305.447 626.554 302.837 626.554 299.855V272.98C626.554 269.397 624.021 266.316 620.504 265.614H620.509Z" fill="#C4F5F5" stroke="#00BFE6" stroke-width="1.78066" stroke-linecap="round" stroke-linejoin="round"/>
<path d="M622.998 273.169C622.998 271.04 612.634 269.315 599.849 269.315C587.063 269.315 576.699 271.04 576.699 273.169V299.413C576.699 300.853 577.563 302.169 578.907 302.702C581.534 303.742 587.277 304.876 599.849 304.876C612.42 304.876 618.168 303.738 620.79 302.702C622.134 302.169 622.998 300.853 622.998 299.413V273.169Z" fill="#4D1F1F" stroke="#4D1F1F" stroke-width="1.78066" stroke-linecap="round" stroke-linejoin="round"/>
<path d="M579.551 271.32C584.448 272.272 591.726 272.876 599.851 272.876C607.976 272.876 615.254 272.272 620.151 271.32" stroke="#00BFE6" stroke-width="1.78066" stroke-linecap="round" stroke-linejoin="round"/>
<path d="M599.858 139.521C597.65 139.521 595.865 141.317 595.883 143.522L596.742 254.578H602.975L603.834 143.522C603.852 141.317 602.067 139.521 599.858 139.521Z" fill="#FF5C4D" stroke="#FF5C4D" stroke-width="1.78066" stroke-linecap="round" stroke-linejoin="round"/>
<path d="M596.734 257.694V269.323C596.734 269.812 597.135 270.212 597.625 270.212H602.077C602.566 270.212 602.967 269.812 602.967 269.323V257.694H596.734Z" fill="#FF5C4D" stroke="#FF5C4D" stroke-width="1.78066" stroke-linecap="round" stroke-linejoin="round"/>
<path d="M595.883 143.522L596.742 254.579" stroke="#4D1F1F" stroke-width="1.78066" stroke-linecap="round" stroke-linejoin="round"/>
<path d="M596.734 257.689V269.318" stroke="#4D1F1F" stroke-width="1.78066" stroke-linecap="round" stroke-linejoin="round"/>
<path d="M609.67 256.61C607.231 257.05 603.732 257.325 599.85 257.325C595.625 257.325 591.854 256.996 589.41 256.49" stroke="#00BFE6" stroke-width="1.78066" stroke-linecap="round" stroke-linejoin="round"/>
<path d="M588.289 265.1C590.6 265.762 594.913 266.211 599.855 266.211C604.796 266.211 609.11 265.767 611.421 265.1" stroke="#00BFE6" stroke-width="1.78066" stroke-linecap="round" stroke-linejoin="round"/>
<path d="M224.101 296.438H456.095C458.859 296.438 461.584 297.083 464.059 298.314L501.776 317.143C503.641 318.072 504.817 319.975 504.817 322.06C504.817 325.096 502.355 327.554 499.314 327.554H180.881C177.841 327.554 175.379 325.096 175.379 322.06C175.379 319.979 176.559 318.077 178.42 317.143L216.136 298.314C218.607 297.078 221.336 296.438 224.101 296.438Z" fill="#00BFE6" stroke="#00BFE6" stroke-width="1.78066" stroke-linecap="round" stroke-linejoin="round"/>
<path d="M504.821 321.88C504.821 325.014 502.275 327.556 499.136 327.556H181.064C177.925 327.556 175.379 325.014 175.379 321.88" stroke="#4D1F1F" stroke-width="1.78066" stroke-linecap="round" stroke-linejoin="round"/>
<path d="M181.06 327.554L172.156 331.999H508.036L499.132 327.554H181.06Z" fill="#4D1F1F" stroke="#4D1F1F" stroke-width="1.78066" stroke-linecap="round" stroke-linejoin="round"/>
<path d="M187.023 317.007H493.138" stroke="#4D1F1F" stroke-width="1.78066" stroke-linecap="round" stroke-linejoin="round"/>
</svg>
