<svg width="527" height="382" viewBox="0 0 527 382" fill="none" xmlns="http://www.w3.org/2000/svg">
<path d="M148.696 145.703H47.2734V326.533H148.696V145.703Z" fill="#C4F5F5" stroke="#C4F5F5" stroke-width="2.61562" stroke-miterlimit="10"/>
<path d="M148.641 145.696V0" stroke="#C4F5F5" stroke-width="2.61562" stroke-miterlimit="10"/>
<path d="M47.2734 107.82H479.821" stroke="#C4F5F5" stroke-width="2.61562" stroke-miterlimit="10"/>
<path d="M422.234 326.526V0" stroke="#C4F5F5" stroke-width="2.61562" stroke-miterlimit="10"/>
<path d="M321.054 132.982C329.523 122.96 333.973 109.623 333.227 96.5087C332.587 85.2068 327.81 71.3022 318.997 63.673C315.925 61.0091 312.865 58.271 309.797 55.5197C305.887 45.3315 297.846 36.7371 287.818 32.4312C281.777 29.8372 275.253 28.6144 268.72 28.5882L268.746 28.5664H257.92L257.941 28.5839C251.574 28.6712 245.228 29.9027 239.34 32.4312C229.311 36.7415 221.266 45.3358 217.361 55.5197C214.293 58.271 211.233 61.0091 208.161 63.673C199.348 71.3066 194.571 85.2112 193.931 96.5087C193.185 109.619 197.64 122.956 206.103 132.982C188.038 148.603 179.962 170.914 189.503 200.086H337.651C347.191 170.91 339.12 148.599 321.05 132.982H321.054Z" fill="#4D1F1F" stroke="#4D1F1F" stroke-width="2.61562" stroke-linecap="round" stroke-linejoin="round"/>
<path d="M246.656 37.4309C247.035 36.1558 247.602 34.9418 248.334 33.8413C249.964 31.4003 252.409 29.5487 255.159 28.6797" stroke="#00BFE6" stroke-width="2.61562" stroke-linecap="round" stroke-linejoin="round"/>
<path d="M443.811 224.64L391.537 194.712C385.557 191.289 381.866 184.913 381.866 178.013V157.968C381.866 153.234 380.122 148.671 376.976 145.142L336.073 99.3408C335.384 98.5722 334.277 98.3408 333.34 98.7775C330.154 100.258 329.191 104.337 331.379 107.088L328.245 103.14C327.569 102.289 326.406 102.009 325.416 102.455L325.395 102.463C322.283 103.869 321.246 107.782 323.25 110.547L338.77 131.98C340.13 133.858 340.862 136.116 340.862 138.439V147.199C340.862 148.754 339.856 150.186 338.352 150.571C336.84 150.959 335.319 150.278 334.582 148.99L330.869 142.518C329.313 139.806 326.419 138.142 323.294 138.172C321.655 138.186 320.54 139.858 321.08 141.408L327.107 158.615C328.694 163.139 331.858 166.938 336.016 169.314L347.265 175.733C349.091 176.773 350.616 178.271 351.693 180.074L362.676 200.167C356.735 194.25 348.725 190.485 339.925 189.961V189.979L304.684 187.725C295.597 187.184 288.501 179.642 288.501 170.519V153.571H238.485V170.519C238.485 179.642 231.39 187.184 222.303 187.725L186.691 190C170.312 190.974 156.561 202.717 153.009 218.77L148.677 238.339C124.502 290.923 131.736 312.273 140.266 328.929L173.202 294.036L182.533 272.738L340.291 262.707V244.584C340.291 244.584 373.798 271.992 401.979 271.992H431.259C445.227 271.992 456.55 260.646 456.55 246.65C456.55 237.557 451.686 229.16 443.806 224.649L443.811 224.64Z" fill="#FFBB99"/>
<path d="M412.521 261.859C399.485 257.138 388.616 247.811 381.956 235.627L380.609 233.164C379.581 237.872 379.184 242.719 379.476 247.531C379.96 255.483 382.318 263.304 386.232 270.234C391.331 271.304 396.604 271.964 401.869 271.964H422.462C416.914 271.964 412.438 267.413 412.521 261.854V261.859Z" fill="#FFE88C"/>
<path d="M453.844 246.646C453.844 259.174 443.672 269.367 431.168 269.367H401.888C378.929 269.367 351.41 250.013 341.451 242.497C339.908 241.331 337.703 242.432 337.703 244.371V260.183" stroke="#FF5C4D" stroke-width="2.61562" stroke-linecap="round" stroke-linejoin="round"/>
<path d="M360.719 133.504L373.737 148.081C376.173 150.81 377.516 154.33 377.516 157.994V178.039C377.516 186.489 382.066 194.34 389.384 198.528L441.653 228.455C446.234 231.08 449.594 235.312 451.18 240.211" stroke="#FFE88C" stroke-width="2.61562" stroke-linecap="round" stroke-linejoin="round"/>
<path d="M365.898 150.921C362.058 147.912 359.325 143.69 357.525 139.152L356.475 147.34C356.235 149.222 354.636 150.628 352.744 150.628H350.369C349.214 150.628 348.277 149.69 348.277 148.532V145.703V146.855C348.277 148.938 346.59 150.624 344.516 150.624H342.842C341.687 150.624 340.75 149.685 340.75 148.528C340.75 153.393 344.686 157.34 349.545 157.34H359.486C363.025 157.34 365.898 154.463 365.898 150.917V150.921Z" fill="#FF5C4D"/>
<path d="M366.094 150.93L360.141 159.79" stroke="#FF5C4D" stroke-width="2.61562" stroke-linecap="round" stroke-linejoin="round"/>
<path d="M380.61 233.164C379.581 237.872 379.184 242.719 379.476 247.531C379.869 253.981 381.494 260.343 384.18 266.217" stroke="#FF5C4D" stroke-width="2.61562" stroke-linecap="round" stroke-linejoin="round"/>
<path d="M333.44 98.7461C330.254 100.226 329.29 104.305 331.478 107.056L347.94 127.781" stroke="#4D1F1F" stroke-width="2.61562" stroke-linecap="round" stroke-linejoin="round"/>
<path d="M342.953 150.648H358.447" stroke="#4D1F1F" stroke-width="2.61562" stroke-linecap="round" stroke-linejoin="round"/>
<path d="M325.386 102.523C322.283 103.956 321.263 107.873 323.268 110.646L338.762 132.039C340.122 133.917 340.854 136.175 340.854 138.498" stroke="#4D1F1F" stroke-width="2.61562" stroke-linecap="round" stroke-linejoin="round"/>
<path d="M412.47 261.867C412.387 267.426 416.863 271.977 422.411 271.977H422.729" stroke="#FF5C4D" stroke-width="2.61562" stroke-linecap="round" stroke-linejoin="round"/>
<path d="M319.945 138.453L327.015 158.629C328.601 163.153 331.765 166.952 335.923 169.328L347.172 175.748C348.998 176.787 350.523 178.285 351.6 180.088L381.973 235.659C388.633 247.843 399.502 257.171 412.538 261.892" stroke="#4D1F1F" stroke-width="2.61562" stroke-linecap="round" stroke-linejoin="round"/>
<path d="M343.453 150.669V138.428C343.453 135.537 342.555 132.773 340.864 130.433L325.344 109" stroke="#FF5C4D" stroke-width="2.61562" stroke-linecap="round" stroke-linejoin="round"/>
<path d="M413.366 259.379C400.919 254.872 390.563 245.981 384.205 234.351L353.81 178.737L353.784 178.693C353.33 177.938 352.803 177.213 352.201 176.532C351.735 176.003 351.243 175.51 350.733 175.069C350.014 174.449 349.229 173.894 348.405 173.422L337.157 167.003C336.634 166.706 336.119 166.37 335.579 165.981C332.715 163.907 330.584 161.046 329.42 157.714L323.484 140.766" stroke="#FF5C4D" stroke-width="2.61562" stroke-linecap="round" stroke-linejoin="round"/>
<path d="M333.492 105.516L351.178 127.782" stroke="#FF5C4D" stroke-width="2.61562" stroke-linecap="round" stroke-linejoin="round"/>
<path d="M363.932 130.716C362.263 128.847 359.874 127.777 357.368 127.777H348.652C347.131 127.777 345.701 128.515 344.816 129.751L342.027 133.66C341.199 134.821 340.75 136.219 340.75 137.646V148.634C340.75 149.791 341.687 150.73 342.842 150.73H344.516C346.594 150.73 348.277 149.04 348.277 146.961V145.808V148.638C348.277 149.795 349.214 150.734 350.369 150.734H352.744C354.636 150.734 356.235 149.323 356.475 147.446L357.525 139.258C359.325 143.795 362.062 148.022 365.898 151.027" stroke="#4D1F1F" stroke-width="2.61562" stroke-linecap="round" stroke-linejoin="round"/>
<path d="M353.562 150.734H350.537C349.382 150.734 348.445 149.795 348.445 148.637V137.65C348.445 136.222 348.89 134.825 349.722 133.663L352.512 129.755C353.396 128.515 354.826 127.781 356.347 127.781" stroke="#4D1F1F" stroke-width="2.61562" stroke-linecap="round" stroke-linejoin="round"/>
<path d="M192.986 239.178L200.238 235.527L186.57 262.689L192.986 239.178Z" fill="#FF5C4D"/>
<path d="M340.258 262.693V244.57C340.258 244.57 373.76 271.977 401.946 271.977H431.225C445.193 271.977 456.516 260.632 456.516 246.636" stroke="#4D1F1F" stroke-width="2.61562" stroke-linecap="round" stroke-linejoin="round"/>
<path d="M289.414 184.617C293.097 188.888 298.427 191.709 304.446 192.067L340.712 194.382C344.782 194.761 348.709 195.94 352.279 197.831" stroke="#FFE88C" stroke-width="2.61562" stroke-linecap="round" stroke-linejoin="round"/>
<path d="M140.984 268.228C143.713 259.131 147.578 249.825 152.56 240.358L152.835 239.838L157.293 219.698C160.409 205.623 172.617 195.199 186.978 194.343L222.59 192.068C228.277 191.728 233.346 189.19 236.994 185.312" stroke="#FFE88C" stroke-width="2.61562" stroke-linecap="round" stroke-linejoin="round"/>
<path d="M254.344 177.499H272.98C280.202 177.499 286.055 171.635 286.055 164.399V152.477C286.055 150.307 284.299 148.547 282.133 148.547H245.196C243.03 148.547 241.273 150.307 241.273 152.477V164.399C241.273 171.635 247.127 177.499 254.348 177.499H254.344Z" fill="#FF5C4D"/>
<path d="M185.594 265.857C176.493 261.293 166.055 259.42 155.944 260.612C149.611 261.359 143.431 263.311 137.783 266.272C133.176 281.045 131.838 292.482 132.378 301.805C132.496 302.827 132.627 303.836 132.771 304.822C136.58 299.154 142.237 295.063 148.674 292.875C145.872 293.809 143.183 295.084 140.707 296.696C143.187 295.084 145.872 293.809 148.674 292.875C148.975 292.774 149.276 292.674 149.576 292.582C149.589 292.582 149.598 292.573 149.611 292.573C152.684 291.63 155.922 291.115 159.208 291.062C159.252 291.062 159.3 291.062 159.343 291.062C159.723 291.058 160.102 291.062 160.485 291.067C160.581 291.067 160.673 291.067 160.769 291.071C161.2 291.084 161.631 291.102 162.063 291.132C162.063 291.132 162.063 291.132 162.067 291.132C162.503 291.163 162.93 291.202 163.353 291.246C164.325 291.351 165.271 291.495 166.19 291.683C166.631 291.774 167.066 291.87 167.498 291.979C169.219 292.412 173.26 294.014 173.26 294.014L185.419 266.743L185.594 265.857Z" fill="#FFE88C"/>
<path d="M171.742 290.664L183.096 264.742" stroke="#FF5B4D" stroke-width="2.61562" stroke-linecap="round" stroke-linejoin="round"/>
<path d="M185.643 265.857C176.543 261.293 166.105 259.42 155.994 260.612C149.661 261.359 143.481 263.307 137.828 266.267" stroke="#FF5B4D" stroke-width="2.61562" stroke-linecap="round" stroke-linejoin="round"/>
<path d="M303.335 72.461C306.377 88.3789 306.076 111.17 294.884 138.486C292.221 144.984 285.989 149.199 279.116 149.199H236.901C220.984 117.123 220.161 90.4183 223.595 72.461C227.295 53.1151 244.258 39.4375 263.465 39.4375C282.672 39.4375 299.635 53.1151 303.335 72.461Z" fill="#FF5C4D"/>
<path d="M303.331 86.5028C299.631 67.6155 282.668 54.2656 263.461 54.2656C244.254 54.2656 227.291 67.6199 223.591 86.5028C221.778 95.7608 221.159 107.399 223.312 120.932C224.388 127.683 232.264 144.195 237.115 153.92C239.407 158.514 244.093 161.423 249.218 161.423H277.721C282.834 161.423 287.51 158.536 289.807 153.96C294.627 144.365 302.416 128.16 303.51 121.53C305.78 107.744 305.166 95.9005 303.327 86.5071L303.331 86.5028Z" fill="#FFBB99"/>
<path d="M249.22 161.39H277.723C282.836 161.39 287.512 158.504 289.809 153.927C294.629 144.333 302.422 128.119 303.511 121.49V108.398C303.511 108.398 292.742 135.01 289.029 142.822C285.865 149.478 279.161 153.718 271.805 153.718H255.579C248.222 153.718 241.519 149.478 238.354 142.822C235.818 137.495 221.945 108.398 221.945 108.398L223.314 120.901C224.39 127.648 232.266 144.163 237.117 153.888C239.409 158.482 244.094 161.39 249.22 161.39Z" fill="#FF5C4D"/>
<path d="M303.331 86.5028C299.631 67.6155 282.668 54.2656 263.461 54.2656C244.254 54.2656 227.291 67.6199 223.591 86.5028C221.778 95.7608 221.159 107.399 223.312 120.932C224.388 127.683 232.264 144.195 237.115 153.92C239.407 158.514 244.093 161.423 249.218 161.423H277.721C282.834 161.423 287.51 158.536 289.807 153.96C294.627 144.365 302.416 128.159 303.51 121.53C305.78 107.744 305.166 95.9005 303.327 86.5071L303.331 86.5028Z" stroke="#4D1F1F" stroke-width="2.61562" stroke-linecap="round" stroke-linejoin="round"/>
<path d="M235.961 77.3345C241.971 74.8148 249.454 75.2253 255.186 78.3913L255.164 76.007L245.057 75.71" stroke="#4D1F1F" stroke-width="2.61562" stroke-linecap="round" stroke-linejoin="round"/>
<path d="M291.028 77.3018C284.892 74.7909 277.256 75.2145 271.398 78.3892L271.425 76.1795L281.632 75.6904" stroke="#4D1F1F" stroke-width="2.61562" stroke-linecap="round" stroke-linejoin="round"/>
<path d="M326.786 226.793H318.963C300.505 226.793 282.61 233.156 268.284 244.816L263.656 248.584L259.027 244.816C244.701 233.156 226.806 226.793 208.348 226.793H200.525L181.906 262.511C181.906 287.429 195.099 298.259 195.099 298.259L201.719 326.531H325.6L332.221 298.259C332.221 298.259 345.414 286.245 345.414 262.511L326.795 226.793H326.786Z" fill="#FF5C4D"/>
<path d="M208.166 253.924C226.623 253.924 244.519 261.593 258.845 275.641L263.473 280.182L268.102 275.641C282.427 261.593 300.323 253.924 318.78 253.924H340.751L326.604 226.793H318.78C300.323 226.793 282.427 233.156 268.102 244.815L263.473 248.584L258.845 244.815C244.519 233.156 226.623 226.793 208.166 226.793H200.342L186.195 253.924H208.166Z" fill="#FF5C4D"/>
<path d="M261.016 113.474C261.016 113.474 264.193 138.828 273.955 138.828C282.829 138.828 284.612 117.313 284.864 113.387L261.016 113.474Z" fill="#4D1F1F" stroke="#4D1F1F" stroke-width="2.61562" stroke-linecap="round" stroke-linejoin="round"/>
<path d="M339.686 253.918H318.788C300.33 253.918 282.435 261.586 268.109 275.634L263.481 280.176L258.852 275.634C244.526 261.586 226.631 253.918 208.174 253.918H186.203" stroke="#4D1F1F" stroke-width="2.61562" stroke-linecap="round" stroke-linejoin="round"/>
<path d="M263.461 248.599V235.516" stroke="#4D1F1F" stroke-width="2.61562" stroke-linecap="round" stroke-linejoin="round"/>
<path d="M270.911 64.1946L263.436 67.068L255.962 64.1946C250.3 62.0199 246.727 57.57 246.727 52.7053V37.0938H280.146V52.7053C280.146 57.57 276.572 62.0199 270.911 64.1946Z" fill="#FFE88C"/>
<path d="M267.836 48.9349C270.144 48.9349 272.016 47.4979 272.016 45.7253C272.016 43.9526 270.144 42.5156 267.836 42.5156C265.528 42.5156 263.656 43.9526 263.656 45.7253C263.656 47.4979 265.528 48.9349 267.836 48.9349Z" fill="#FF5C4D"/>
<path d="M280.162 37.0938V52.7053C280.162 57.57 276.588 62.0199 270.927 64.1946L263.452 67.068L255.978 64.1946C250.316 62.0199 246.742 57.57 246.742 52.7053V37.0938" stroke="#4D1F1F" stroke-width="2.61562" stroke-linecap="round" stroke-linejoin="round"/>
<path d="M331.934 298.257C331.934 298.257 345.127 286.951 345.127 262.51L326.508 226.793L333.76 230.444" stroke="#4D1F1F" stroke-width="2.61562" stroke-linecap="round" stroke-linejoin="round"/>
<path d="M195.083 298.257C195.083 298.257 181.891 286.951 181.891 262.51L200.509 226.793L193.257 230.444" stroke="#4D1F1F" stroke-width="2.61562" stroke-linecap="round" stroke-linejoin="round"/>
<path d="M275.896 124.441C273.028 124.93 270.544 126.449 268.487 128.336C267.541 129.2 266.678 130.139 265.867 131.122C267.842 135.428 270.535 138.825 274.109 138.825C279.108 138.825 281.853 132.004 283.344 125.34C281.073 124.283 278.097 124.065 275.891 124.441H275.896Z" fill="#FF5C4D" stroke="#4D1F1F" stroke-width="2.61562" stroke-linecap="round" stroke-linejoin="round"/>
<path d="M525 326.527H2" stroke="#4D1F1F" stroke-width="2.61562" stroke-linecap="round" stroke-linejoin="round"/>
<path d="M173.187 294.015C176.103 295.333 178.892 297.01 181.747 298.888C182.17 299.163 183.996 300.473 186.118 301.997C190.825 305.386 197.162 305.408 201.895 302.054C205.814 299.277 210.429 296.006 213.868 293.569C217.11 291.272 221.146 290.403 225.043 291.163L249.515 295.932C252.025 296.421 253.834 298.622 253.834 301.185C253.834 303.888 251.419 305.954 248.756 305.526L233.345 303.067L250.133 305.744C252.265 306.085 253.834 307.923 253.834 310.085V311.237C253.834 313.849 251.572 315.888 248.983 315.609L233.345 313.945L249.911 315.709C252.143 315.945 253.838 317.831 253.838 320.08V321.281C253.838 323.801 251.729 325.805 249.214 325.674L233.345 324.827L249.68 325.701C252.012 325.827 253.834 327.753 253.834 330.094V330.88C253.834 333.308 251.868 335.277 249.445 335.277H150.667C146.274 335.277 142.252 332.819 140.247 328.901C140.247 328.901 137.545 323.639 136.211 319.338" fill="#FFBB99"/>
<path d="M229.109 324.609L249.689 325.705" stroke="#4D1F1F" stroke-width="2.61562" stroke-linecap="round" stroke-linejoin="round"/>
<path d="M229.109 313.43L249.92 315.648" stroke="#4D1F1F" stroke-width="2.61562" stroke-linecap="round" stroke-linejoin="round"/>
<path d="M229.109 302.391L249.424 305.539" stroke="#4D1F1F" stroke-width="2.61562" stroke-linecap="round" stroke-linejoin="round"/>
<path d="M253.484 332.699H150.697C150.226 332.699 149.756 332.66 149.289 332.585C146.23 332.092 143.658 330.018 142.338 327.21C140.734 323.799 137.526 316.166 136.031 306.965" stroke="#FF5B4D" stroke-width="2.61562" stroke-linecap="round" stroke-linejoin="round"/>
<path d="M248.764 300.234L224.292 295.465C223.651 295.338 222.998 295.277 222.344 295.277C220.226 295.277 218.195 295.924 216.464 297.151L204.492 305.636C201.446 307.793 197.863 308.937 194.128 308.937C190.349 308.937 186.728 307.771 183.655 305.561C180.177 303.059 179.545 302.627 179.432 302.553C177.466 301.256 175.771 300.225 174.215 299.378C169.582 296.854 164.605 295.993 159.34 296.216C154.075 296.435 148.88 298.212 144.578 301.26" stroke="#FFE88C" stroke-width="2.61562" stroke-linecap="round" stroke-linejoin="round"/>
<path d="M249.699 325.684C252.03 325.81 253.852 327.736 253.852 330.077V330.863C253.852 333.291 251.887 335.26 249.463 335.26H150.686C146.293 335.26 142.27 332.802 140.265 328.884L139.102 326.5" stroke="#4D1F1F" stroke-width="2.61562" stroke-linecap="round" stroke-linejoin="round"/>
<path d="M208.023 256.543C225.736 256.543 243.082 263.988 256.876 277.513L263.335 283.845L269.794 277.513C283.584 263.988 300.934 256.543 318.647 256.543" stroke="#FFE88C" stroke-width="2.61562" stroke-linecap="round" stroke-linejoin="round"/>
<path d="M321.288 306.281C315.53 309.543 308.971 311.377 302.359 311.578" stroke="#4D1F1F" stroke-width="2.61562" stroke-linecap="round" stroke-linejoin="round"/>
<path d="M207.938 133.305H248.788" stroke="#4D1F1F" stroke-width="4.35936" stroke-linecap="round" stroke-linejoin="round"/>
<path d="M217.857 88.1406C211.607 100.944 207.938 116.508 207.938 133.294H223.889" stroke="#00BFE6" stroke-width="4.35936" stroke-linecap="round" stroke-linejoin="round"/>
<path d="M251.812 140.511C255.781 140.511 258.999 137.287 258.999 133.31C258.999 129.333 255.781 126.109 251.812 126.109C247.843 126.109 244.625 129.333 244.625 133.31C244.625 137.287 247.843 140.511 251.812 140.511Z" fill="#4D1F1F" stroke="#4D1F1F" stroke-width="2.61562" stroke-linecap="round" stroke-linejoin="round"/>
<path d="M328.936 22.6875L321.069 31.0501L327.664 34.4388L318.555 42.5437" stroke="#00BFE6" stroke-width="2.61562" stroke-linecap="round" stroke-linejoin="round"/>
<path d="M356.515 49.5547L343.301 52.1573L347.315 58.3015L335.281 61.6116" stroke="#00BFE6" stroke-width="2.61562" stroke-linecap="round" stroke-linejoin="round"/>
<path d="M174.262 180.9L168.953 174.52" stroke="#FFBB99" stroke-width="2.61562" stroke-linecap="round" stroke-linejoin="round"/>
<path d="M156.631 334.828H362.615C363.665 334.828 364.693 335.125 365.587 335.684L396.453 355.012C398.091 356.038 399.089 357.842 399.089 359.776C399.089 362.881 396.579 365.396 393.48 365.396H125.765C122.667 365.396 120.156 362.881 120.156 359.776C120.156 357.837 121.154 356.038 122.793 355.012L153.659 335.684C154.552 335.125 155.581 334.828 156.631 334.828Z" fill="#FBFCF9" stroke="#C4F5F5" stroke-width="2.61562" stroke-linecap="round" stroke-linejoin="round"/>
<path d="M394.081 355.105H125.163C122.208 355.105 119.807 357.678 120.208 360.612C120.225 360.739 120.247 360.87 120.273 360.996C120.818 363.634 123.228 365.464 125.917 365.464H393.332C396.016 365.464 398.431 363.634 398.976 360.996C399.002 360.87 399.024 360.739 399.041 360.612C399.442 357.678 397.041 355.105 394.086 355.105H394.081Z" fill="#C4F5F5" stroke="#C4F5F5" stroke-width="2.61562" stroke-linecap="round" stroke-linejoin="round"/>
<path d="M399.089 359.848C399.089 362.926 396.596 365.424 393.524 365.424H125.722C122.649 365.424 120.156 362.926 120.156 359.848" stroke="#4D1F1F" stroke-width="2.61562" stroke-linecap="round" stroke-linejoin="round"/>
<path d="M125.74 365.461L117.023 369.828H402.259L393.542 365.461H125.74Z" fill="#4D1F1F" stroke="#4D1F1F" stroke-width="2.61562" stroke-linecap="round" stroke-linejoin="round"/>
<path d="M99.3332 364.191C87.4524 369.902 67.8573 371.562 55.5624 367.907C43.2676 364.247 42.932 356.653 54.8128 350.941C66.6936 345.23 86.9032 343.57 99.1981 347.225C111.493 350.885 111.214 358.479 99.3332 364.191Z" fill="#4D1F1F" stroke="#4D1F1F" stroke-width="2.61562" stroke-linecap="round" stroke-linejoin="round"/>
<path d="M107.579 346.677C105.997 343.315 98.7756 331.747 75.0881 334.319C47.3821 337.332 46.1879 353.477 46.1879 353.477C45.5952 356.939 48.7288 360.184 55.554 362.215C67.8488 365.874 87.4439 364.21 99.3247 358.498C106.978 354.822 109.806 350.359 107.571 346.673L107.579 346.677Z" fill="#00BFE6" stroke="#00BFE6" stroke-width="2.61562" stroke-linecap="round" stroke-linejoin="round"/>
<path d="M47.1172 349.725C50.0503 344.148 56.1433 342.091 62.1491 341.847C68.1549 341.602 74.1345 343.786 78.9417 347.397C83.7489 351.013 87.4884 356.257 90.0904 361.685" stroke="#4D1F1F" stroke-width="2.61562" stroke-linecap="round" stroke-linejoin="round"/>
<path d="M67.4213 342.355C67.4213 342.355 58.5391 348.264 58.5391 363.05" stroke="#4D1F1F" stroke-width="2.61562" stroke-linecap="round" stroke-linejoin="round"/>
<path d="M107.618 346.656C109.853 350.342 107.025 354.8 99.3716 358.482C87.4908 364.194 67.8957 365.853 55.6008 362.198C48.7757 360.167 45.6421 356.923 46.2348 353.46C46.2348 353.46 46.3786 351.543 47.2895 349.765" stroke="#4D1F1F" stroke-width="2.61562" stroke-linecap="round" stroke-linejoin="round"/>
<path d="M81.3229 312.295L80.9219 301.539" stroke="#00BFE6" stroke-width="2.61562" stroke-linecap="round" stroke-linejoin="round"/>
<path d="M60.7938 317.209L54.4219 307.746" stroke="#00BFE6" stroke-width="2.61562" stroke-linecap="round" stroke-linejoin="round"/>
<path d="M206.238 45.6157L198.141 37.4453" stroke="#4D1F1F" stroke-width="2.61562" stroke-linecap="round" stroke-linejoin="round"/>
<path d="M454.844 380.003C472.897 380.003 487.531 377.559 487.531 374.545C487.531 371.53 472.897 369.086 454.844 369.086C436.791 369.086 422.156 371.53 422.156 374.545C422.156 377.559 436.791 380.003 454.844 380.003Z" fill="#4D1F1F" stroke="#4D1F1F" stroke-width="2.61562" stroke-linecap="round" stroke-linejoin="round"/>
<path d="M422.156 295.992V361.793C422.156 366.981 425.795 371.475 430.873 372.492C435.715 373.457 443.22 374.235 454.844 374.235C466.467 374.235 473.972 373.457 478.815 372.492C483.892 371.479 487.531 366.986 487.531 361.793V295.992H422.156Z" fill="#FBFCF9" stroke="#C4F5F5" stroke-width="2.61562" stroke-linecap="round" stroke-linejoin="round"/>
<path d="M454.844 301.398C472.897 301.398 487.531 298.954 487.531 295.939C487.531 292.924 472.897 290.48 454.844 290.48C436.791 290.48 422.156 292.924 422.156 295.939C422.156 298.954 436.791 301.398 454.844 301.398Z" fill="#4D1F1F" stroke="#C4F5F5" stroke-width="2.61562" stroke-linecap="round" stroke-linejoin="round"/>
<path d="M422.192 309.062V352.731C414.975 352.731 409.117 346.862 409.117 339.631V322.163C409.117 314.932 414.975 309.062 422.192 309.062Z" fill="#FBFCF9" stroke="#C4F5F5" stroke-width="2.61562" stroke-linecap="round" stroke-linejoin="round"/>
<path d="M422.179 317.801V344.002C419.773 344.002 417.82 342.046 417.82 339.635V322.168C417.82 319.757 419.773 317.801 422.179 317.801Z" fill="#C4F5F5" stroke="#C4F5F5" stroke-width="2.61562" stroke-linecap="round" stroke-linejoin="round"/>
<path d="M453.398 314.141C454.392 314.149 455.382 314.149 456.376 314.141" stroke="#FF5C4D" stroke-width="2.61562" stroke-linecap="round" stroke-linejoin="round"/>
<path d="M453.398 322.895C454.392 322.903 455.382 322.903 456.376 322.895" stroke="#FF5C4D" stroke-width="2.61562" stroke-linecap="round" stroke-linejoin="round"/>
<path d="M455.062 314.148V322.882" stroke="#FF5C4D" stroke-width="2.61562" stroke-linecap="round" stroke-linejoin="round"/>
<path d="M462.741 333.978C462.741 331.428 460.981 329.445 458.81 329.493C456.635 329.541 454.875 331.607 454.875 334.157C454.875 331.607 453.114 329.545 450.939 329.493C448.764 329.445 447.008 331.428 447.008 333.978C447.008 335.288 447.479 336.498 448.228 337.367C450.442 340.052 452.661 342.698 454.879 345.301C457.115 342.677 459.355 340.004 461.591 337.292C462.301 336.432 462.741 335.253 462.741 333.978Z" fill="#FF5C4D" stroke="#FF5C4D" stroke-width="2.61562" stroke-linecap="round" stroke-linejoin="round"/>
<path d="M428.719 348.551C431.055 348.904 433.4 349.21 435.744 349.468V351.215" stroke="#FF5C4D" stroke-width="2.61562" stroke-linecap="round" stroke-linejoin="round"/>
<path d="M428.719 357.228C431.055 357.582 433.4 357.888 435.744 358.145V356.398" stroke="#FF5C4D" stroke-width="2.61562" stroke-linecap="round" stroke-linejoin="round"/>
<path d="M430.016 348.738C430.016 351.651 430.016 354.559 430.016 357.472" stroke="#FF5C4D" stroke-width="2.61562" stroke-linecap="round" stroke-linejoin="round"/>
<path d="M430.203 353.133C431.188 353.272 432.173 353.403 433.159 353.53" stroke="#FF5C4D" stroke-width="2.61562" stroke-linecap="round" stroke-linejoin="round"/>
<path d="M440.922 358.695V349.961C442.16 352.096 443.397 354.223 444.635 356.332C445.873 354.367 447.115 352.389 448.353 350.398V359.131" stroke="#FF5C4D" stroke-width="2.61562" stroke-linecap="round" stroke-linejoin="round"/>
<path d="M439.461 358.598C440.45 358.685 441.44 358.763 442.43 358.833" stroke="#FF5C4D" stroke-width="2.61562" stroke-linecap="round" stroke-linejoin="round"/>
<path d="M446.867 359.07C447.857 359.114 448.851 359.153 449.844 359.179" stroke="#FF5C4D" stroke-width="2.61562" stroke-linecap="round" stroke-linejoin="round"/>
<path d="M453.547 359.254C454.541 359.263 455.53 359.258 456.524 359.254" stroke="#FF5C4D" stroke-width="2.61562" stroke-linecap="round" stroke-linejoin="round"/>
<path d="M460.281 359.172C461.275 359.142 462.265 359.103 463.258 359.055" stroke="#FF5C4D" stroke-width="2.61562" stroke-linecap="round" stroke-linejoin="round"/>
<path d="M454.703 359.265C455.945 356.356 457.183 353.431 458.425 350.496C459.663 353.383 460.905 356.256 462.143 359.116" stroke="#FF5C4D" stroke-width="2.61562" stroke-linecap="round" stroke-linejoin="round"/>
<path d="M456.148 355.763C457.639 355.75 459.126 355.724 460.612 355.672" stroke="#FF5C4D" stroke-width="2.61562" stroke-linecap="round" stroke-linejoin="round"/>
<path d="M467.031 350.133C468.021 350.064 469.01 349.99 470 349.902" stroke="#FF5C4D" stroke-width="2.61562" stroke-linecap="round" stroke-linejoin="round"/>
<path d="M467.031 358.887C468.021 358.818 469.01 358.743 470 358.656" stroke="#FF5C4D" stroke-width="2.61562" stroke-linecap="round" stroke-linejoin="round"/>
<path d="M468.695 350.012V358.745" stroke="#FF5C4D" stroke-width="2.61562" stroke-linecap="round" stroke-linejoin="round"/>
<path d="M473.547 349.555C474.536 349.451 475.522 349.333 476.507 349.211" stroke="#FF5C4D" stroke-width="2.61562" stroke-linecap="round" stroke-linejoin="round"/>
<path d="M473.547 358.238C476.018 357.972 478.48 357.653 480.943 357.282V355.535" stroke="#FF5C4D" stroke-width="2.61562" stroke-linecap="round" stroke-linejoin="round"/>
<path d="M474.852 349.367V358.101" stroke="#FF5C4D" stroke-width="2.61562" stroke-linecap="round" stroke-linejoin="round"/>
<path d="M463.639 282.085C471.532 278.819 477.607 271.469 479.351 263.093C481.09 254.717 478.444 245.546 472.512 239.393C473.689 245.778 480.222 250.368 486.699 250.328C493.18 250.289 499.22 246.263 502.777 240.839C506.333 235.415 507.658 228.773 507.715 222.279C507.832 207.78 501.696 193.338 491.179 183.382C480.667 173.42 465.927 168.093 451.492 169.027" stroke="#C4F5F5" stroke-width="2.61562" stroke-linecap="round" stroke-linejoin="round"/>
<path d="M252.298 85.6089C250.04 83.2901 247.211 81.9932 244.374 81.9844C241.532 81.9757 238.699 83.2508 236.438 85.5565" stroke="#4D1F1F" stroke-width="2.61562" stroke-linecap="round" stroke-linejoin="round"/>
<path d="M288.032 85.6089C285.774 83.2901 282.946 81.9932 280.108 81.9844C277.267 81.9757 274.434 83.2508 272.172 85.5565" stroke="#4D1F1F" stroke-width="2.61562" stroke-linecap="round" stroke-linejoin="round"/>
<path d="M261.117 87.9844L248.391 94.2858L256.392 105.967" stroke="#4D1F1F" stroke-width="2.61562" stroke-linecap="round" stroke-linejoin="round"/>
<path d="M244.484 84.543V87.6435" stroke="#4D1F1F" stroke-width="4.35936" stroke-linecap="round" stroke-linejoin="round"/>
<path d="M280.227 84.543V87.6435" stroke="#4D1F1F" stroke-width="4.35936" stroke-linecap="round" stroke-linejoin="round"/>
<path d="M209.93 98.3138C217.661 97.6763 223.951 91.4316 227.302 84.4184C230.654 77.4052 231.717 69.5623 233.513 61.9989C235.308 54.4355 238.098 46.6974 243.925 41.562C243.925 41.562 228.457 39.3392 216.049 67.0732" fill="#4D1F1F"/>
<path d="M209.93 98.3138C217.661 97.6763 223.951 91.4316 227.302 84.4184C230.654 77.4052 231.717 69.5623 233.513 61.9989C235.308 54.4355 238.098 46.6974 243.925 41.562C243.925 41.562 228.457 39.3392 216.049 67.0732" stroke="#4D1F1F" stroke-width="2.61562" stroke-linecap="round" stroke-linejoin="round"/>
<path d="M243.158 41.8893C235.339 40.6927 226.989 44.1033 222.225 50.4309C218.564 55.2955 217.074 61.4266 215.967 67.4136C214.86 73.405 214.014 79.5492 211.373 85.034C208.732 90.5187 203.868 95.3616 197.836 96.1302" stroke="#00BFE6" stroke-width="2.61562" stroke-linecap="round" stroke-linejoin="round"/>
<path d="M283.875 41.8893C291.694 40.6927 300.044 44.1033 304.808 50.4309C308.469 55.2955 309.96 61.4266 311.067 67.4136C312.174 73.405 313.019 79.5492 315.66 85.034C318.301 90.5187 323.165 95.3616 329.197 96.1302" stroke="#00BFE6" stroke-width="2.61562" stroke-linecap="round" stroke-linejoin="round"/>
<path d="M309.097 127.274C306.608 127.274 304.586 125.252 304.586 122.755V86.6057C304.586 84.1122 306.604 82.0859 309.097 82.0859C317.814 82.0859 324.883 89.169 324.883 97.9028V111.458C324.883 120.191 317.814 127.274 309.097 127.274Z" fill="#C4F5F5" stroke="#4D1F1F" stroke-width="2.61562" stroke-linecap="round" stroke-linejoin="round"/>
<path d="M313.195 121.157V88.1562" stroke="#4D1F1F" stroke-width="2.61562" stroke-linecap="round" stroke-linejoin="round"/>
<path d="M140.758 296.701C147.038 292.622 154.652 290.639 162.122 291.137C165.936 291.391 170.107 292.657 173.31 294.024L182.641 272.727" stroke="#4D1F1F" stroke-width="2.61562" stroke-linecap="round" stroke-linejoin="round"/>
</svg>
