<svg width="320.000000" height="320.000977" viewBox="0 0 320 320.001" fill="none" xmlns="http://www.w3.org/2000/svg" xmlns:xlink="http://www.w3.org/1999/xlink">
	<desc>
			Created with Pixso.
	</desc>
	<defs>
		<clipPath id="clip379_80319">
			<rect id="Background" rx="-1.896184" width="316.207581" height="316.207611" transform="translate(1.896184 1.896184)" fill="white" fill-opacity="0"/>
		</clipPath>
		<clipPath id="clip379_80321">
			<rect id="Outfit" rx="-1.896184" width="316.207611" height="316.207611" transform="translate(1.896184 1.896184)" fill="white" fill-opacity="0"/>
		</clipPath>
		<clipPath id="clip379_80322">
			<rect id="Hair" rx="-1.896184" width="316.207611" height="316.207611" transform="translate(1.896184 1.896184)" fill="white" fill-opacity="0"/>
		</clipPath>
		<clipPath id="clip379_80323">
			<rect id="Eye" rx="-1.896184" width="316.207611" height="316.207611" transform="translate(1.896184 1.896184)" fill="white" fill-opacity="0"/>
		</clipPath>
		<clipPath id="clip379_80325">
			<rect id="Mouth" rx="-1.896184" width="316.207611" height="316.207611" transform="translate(1.896184 1.896184)" fill="white" fill-opacity="0"/>
		</clipPath>
	</defs>
	<rect id="Background" rx="-1.896184" width="316.207581" height="316.207611" transform="translate(1.896184 1.896184)" fill="#FFFFFF" fill-opacity="0"/>
	<g clip-path="url(#clip379_80319)">
		<path id="Vector" d="M320 160C320 248.36 248.36 320 160 320C71.63 320 0 248.36 0 160C0 71.63 71.63 0 160 0C248.36 0 320 71.63 320 160Z" fill="#C4F5F5" fill-opacity="1.000000" fill-rule="evenodd"/>
	</g>
	<path id="Vector" d="M287.56 256.63C258.55 249.46 219.53 240.77 207.81 238.16C205.04 226.63 201.82 211.76 198.59 193.6C191.84 155.33 192.71 135.95 192.71 135.95C192.71 135.95 196.24 134.36 200.03 131.29C202.99 128.9 206.1 125.6 207.85 121.43C211.68 112.36 209.1 104.93 203.1 101.97C197.57 99.24 189.94 105.88 189.94 105.88C189.94 105.88 194.87 69.28 171.06 58.66C147.51 48.16 123.28 54.76 116.22 82.97C102.61 137.24 113.15 166.97 128.51 175.09C133.85 177.9 139.51 177.33 139.51 177.33L139.58 177.25L134.88 238.08C120.39 241.31 63.43 254.01 36.2 261.4C65.55 297.17 110.08 320 159.95 320C209.82 320 258.28 295.08 287.52 256.55L287.56 256.63Z" fill="#FFBB99" fill-opacity="1.000000" fill-rule="nonzero"/>
	<g opacity="0.200000">
		<path id="Vector" d="M139.59 177.32C139.59 177.32 153.69 177.82 169.39 159.35L169.39 173.91C169.39 173.91 157.11 190.79 137.96 198.37L139.59 177.32Z" fill="#4D1F1F" fill-opacity="1.000000" fill-rule="nonzero"/>
	</g>
	<path id="Vector" d="M119.97 132.69L120.05 132.69C120.05 132.69 120.01 132.69 119.97 132.69Z" fill="#4D1F1F" fill-opacity="1.000000" fill-rule="nonzero"/>
	<path id="Vector" d="M119.99 132.69L120.06 132.69C120.06 132.69 120.03 132.69 119.99 132.69Z" fill="#4D1F1F" fill-opacity="1.000000" fill-rule="nonzero"/>
	<path id="Vector" d="M191.32 116.57C191.13 116.57 190.94 116.57 190.75 116.46C189.96 116.15 189.54 115.21 189.88 114.41C191.85 109.44 196.48 108.3 196.67 108.27C197.5 108.08 198.34 108.61 198.57 109.44C198.75 110.28 198.23 111.11 197.39 111.34C197.24 111.34 194.17 112.17 192.8 115.58C192.57 116.19 191.97 116.57 191.32 116.57Z" fill="#4D1F1F" fill-opacity="1.000000" fill-rule="nonzero"/>
	<path id="Vector" d="M128.75 136.07C128.75 136.07 128.59 136.07 128.52 136.07C128.52 136.07 122.07 135.16 120.48 134.74C119.76 134.55 119.41 133.98 119.41 133.98C119.07 133.45 119 132.8 119.19 132.24L127 108.87C127.27 108.04 128.14 107.59 128.97 107.89C129.8 108.15 130.22 109.06 129.96 109.86L122.56 131.97L128.93 132.96C129.8 133.07 130.37 133.9 130.26 134.74C130.15 135.53 129.46 136.07 128.71 136.07L128.75 136.07Z" fill="#4D1F1F" fill-opacity="1.000000" fill-rule="nonzero"/>
	<g clip-path="url(#clip379_80321)">
		<path id="Vector" d="M287.52 256.59C258.51 249.42 219.37 240.7 207.69 238.08C207.69 237.97 207.62 237.81 207.62 237.7C201.47 242.21 170.91 263.41 142.58 260.04C122.48 257.61 130.14 243.27 133.36 238.38C116.91 242.02 62.64 254.2 36.2 261.36C65.55 297.13 110.08 319.99 159.98 319.99C209.89 319.99 258.32 295.08 287.56 256.59L287.52 256.59Z" fill="#59B7FD" fill-opacity="1.000000" fill-rule="nonzero"/>
		<path id="Vector" d="M139.44 268.45C176 268.45 218.59 264.06 264.05 250.93C262.61 250.59 261.17 250.25 259.73 249.91C170.27 274.82 92.57 266.1 50.96 257.53C49.37 257.91 47.85 258.33 46.33 258.71C67.73 263.37 100.03 268.42 139.44 268.42L139.44 268.45Z" fill="#C4F5F5" fill-opacity="1.000000" fill-rule="nonzero"/>
		<path id="Vector" d="M279.57 266.22C186.92 293.07 104.55 288.21 54.64 280.44C55.67 281.35 56.73 282.18 57.75 283.05C78.73 286.2 104.97 288.74 135.08 288.74C176.46 288.74 225.07 283.89 276.91 269.21C277.82 268.23 278.7 267.24 279.57 266.25L279.57 266.22Z" fill="#C4F5F5" fill-opacity="1.000000" fill-rule="nonzero"/>
		<path id="Vector" d="M244.14 296.03C185.52 309.83 132.88 309.68 93.4 305.51C95.44 306.45 97.53 307.36 99.62 308.24C112.32 309.41 126.16 310.17 141.1 310.17C170.16 310.17 203.07 307.29 238.23 299.59C240.24 298.45 242.21 297.28 244.18 296.06L244.14 296.03Z" fill="#C4F5F5" fill-opacity="1.000000" fill-rule="nonzero"/>
	</g>
	<g clip-path="url(#clip379_80322)">
		<path id="Vector" d="M204.33 91C206.48 86.18 205.55 82.68 203.32 80.44C207.83 72.3 199.12 69.97 199.12 69.97C203.19 62.22 194.3 60.12 194.3 60.12C196.23 50 184.53 51.44 184.53 51.44C181.07 42.33 170.03 46.67 170.03 46.67C161.84 36.64 152.11 46.93 152.11 46.93C142.12 42.03 137.7 52.45 137.7 52.45C127.45 51.62 126.13 61.48 126.13 61.48C126.13 61.48 121.49 62.66 119.12 67.13C118.12 69.05 117.85 71.2 117.81 72.91C114.09 76.59 109.4 83.42 114.44 91.92C115.27 89.47 115.72 86.82 117.81 83.43C119.43 87.37 124.69 86.23 124.69 86.23C131.04 95.03 140.55 87.63 140.55 87.63C149.53 93.59 155.62 85.92 155.62 85.92C164.82 91.35 170.46 84.47 170.46 84.47C168.06 94.77 178.83 95.82 178.83 95.82C176.86 100.73 176.75 104.14 180.83 107.61C180.96 110.55 181.32 113.22 182.15 115.15C183.59 118.49 186.37 118.03 187.07 116.72C187.07 116.72 187.86 108.13 194.08 104.14C196.57 102.52 199.6 101.43 203.54 102.65C203.54 102.65 205.16 101.73 205.82 99.24C207.31 93.54 204.37 90.96 204.37 90.96L204.33 91Z" fill="#4D1F1F" fill-opacity="1.000000" fill-rule="nonzero"/>
	</g>
	<g clip-path="url(#clip379_80323)">
		<path id="Vector" d="M125.05 107.43C124.52 107.43 124.03 107.16 123.73 106.67C123.19 105.8 122.59 105.27 121.91 105.15C120.92 104.96 119.75 105.64 119.4 105.91C118.72 106.44 117.77 106.33 117.24 105.64C116.71 105 116.82 104.01 117.47 103.48C117.7 103.29 119.86 101.66 122.4 102.08C123.5 102.27 125.05 102.95 126.3 105.04C126.76 105.76 126.5 106.71 125.78 107.16C125.51 107.31 125.25 107.39 124.98 107.39L125.05 107.43Z" fill="#4D1F1F" fill-opacity="1.000000" fill-rule="nonzero"/>
		<path id="Vector" d="M150.66 110.8C150.16 110.8 149.67 110.57 149.41 110.12C149.37 110.08 148.34 108.64 146.86 108.41C145.99 108.26 145.16 108.53 144.21 109.21C143.53 109.7 142.58 109.55 142.09 108.87C141.59 108.19 141.75 107.2 142.42 106.71C144.06 105.53 145.77 105.11 147.43 105.42C150.16 105.91 151.79 108.15 151.94 108.41C152.44 109.1 152.25 110.08 151.53 110.54C151.27 110.73 150.96 110.8 150.66 110.8Z" fill="#4D1F1F" fill-opacity="1.000000" fill-rule="nonzero"/>
	</g>
	<g clip-path="url(#clip379_80325)">
		<path id="Vector" d="M133.06 143.79C134.01 147.24 137.35 150.92 141.33 148.87C144.89 147.05 143.68 142.72 143.26 141.63C143.26 141.55 143.15 141.51 143.03 141.59C137.57 144.89 130.44 143.52 130.44 143.52L133.02 143.79L133.06 143.79Z" fill="#4D1F1F" fill-opacity="1.000000" fill-rule="nonzero"/>
		<path id="Vector" d="M144.02 144.09C143.71 146.07 142.84 148 140.6 148.57C139.35 148.87 138.17 148.8 137.11 148.38C139.12 143.6 143.82 144.06 143.98 144.09L144.02 144.09Z" fill="#DD2C52" fill-opacity="1.000000" fill-rule="nonzero"/>
		<path id="Vector" d="M139.01 150.99C138.17 150.99 137.34 150.81 136.51 150.46C134.53 149.59 132.79 147.62 131.88 145.23C130.89 145.15 130.25 145.04 130.17 145C129.34 144.85 128.81 144.06 128.96 143.22C129.11 142.39 129.91 141.82 130.74 142.01C130.82 142.01 137.38 143.18 142.27 140.26L142.88 139.88C142.88 139.88 143.41 139.54 143.67 139.66C143.94 139.77 144.2 140.07 144.32 140.34C144.39 140.53 144.62 140.91 144.7 141.1C145.95 144.06 145.72 148.34 142 150.24C141.02 150.73 140 150.99 139.01 150.99ZM135.33 145.27C135.98 146.37 136.85 147.2 137.76 147.62C138.71 148.04 139.62 148 140.6 147.47C142.19 146.63 142.35 145 142.19 143.71C139.84 144.74 137.38 145.15 135.33 145.27Z" fill="#4D1F1F" fill-opacity="1.000000" fill-rule="nonzero"/>
	</g>
</svg>
