<svg width="214" height="395" viewBox="0 0 214 395" fill="none" xmlns="http://www.w3.org/2000/svg">
<g clip-path="url(#clip0_379_75315)">
<path d="M105.083 27.8285C118.264 33.2949 135.777 55.1777 112.28 101.41H100.894V132.756H42.6322L55.0886 23.5702L86.6088 12.2148L105.083 27.8285Z" fill="#FFBB99"/>
<path d="M1.81123 221.023C2.56973 229.489 4.18788 238.242 6.97751 247.13L15.2705 248.6C32.438 251.642 50.0775 250.442 66.6888 245.111L97.2398 235.302L148.7 254.007C154.212 256.01 160.246 252.791 161.645 247.046C162.294 244.384 162.943 241.174 163.525 237.524L166.93 221.031L84.7076 193.741L1.79437 221.031L1.81123 221.023Z" fill="#FFBB99"/>
<path d="M119.762 42.5956C116.5 38.2275 109.53 37.2052 105.409 40.6439" stroke="#FF5B4D" stroke-width="3.38127" stroke-linecap="round" stroke-linejoin="round"/>
<path d="M103.547 78.5516L84.4072 75.2734L87.2727 84.4236C88.8656 89.5268 95.6584 90.49 98.6082 86.0289L103.547 78.5432V78.5516Z" fill="#FCFCFA" stroke="#4D1F1F" stroke-width="3.38127" stroke-linecap="round" stroke-linejoin="round"/>
<path d="M52.1866 118.816L45.3769 118.858L30.8726 135.452C27.0884 125.769 26.4816 114.87 29.1786 104.833C31.8755 94.7954 37.4884 84.9777 45.6129 78.5143C36.6709 70.1667 30.5691 57.8566 32.9458 45.9521C34.8421 36.4555 41.5928 28.9021 48.3688 22.3035C54.9172 15.933 61.078 7.96569 69.607 4.03693C76.9223 0.665809 85.9064 1.05446 92.8931 5.05925C93.2639 5.27048 93.601 5.53239 93.955 5.76052C122.163 14.4545 118.514 39.6999 118.514 39.6999C114.839 34.1658 105.762 27.0434 97.7813 25.2269C94.8231 24.5509 91.7385 24.3904 88.7297 24.7875C72.5567 26.942 66.0251 41.0179 65.9998 55.0854L57.454 50.6412C54.9678 54.6207 53.6362 71.6453 66.8342 72.7943L66.8848 103.962C66.8932 112.124 60.3279 118.765 52.1866 118.824V118.816Z" fill="#FF5C4D"/>
<path d="M18.6241 127.375L21.0513 125.863C28.3499 121.334 36.7524 118.901 45.3404 118.85L119.708 118.36C129.72 118.293 139.488 121.453 147.57 127.375C170.511 168.801 171.792 207.902 163.533 237.499C163.92 229.515 159.268 222.561 151.717 221.235C148.118 220.601 144.519 221.277 141.292 222.84L112.645 210.496L99.2365 210.319C92.0813 210.319 85.0019 214.011 78.4029 216.79C71.8039 219.57 64.716 220.998 57.5692 220.998H1.81056C-2.33594 174.605 18.6241 127.367 18.6241 127.367V127.375Z" fill="#00BFE6"/>
<path d="M104.84 55.5986L117.574 61.8424L105.084 70.7983" stroke="#4D1F1F" stroke-width="3.38127" stroke-linecap="round" stroke-linejoin="round"/>
<path d="M32.0523 221.039L36.7719 215.42C38.1794 213.747 38.3732 211.356 37.2523 209.472L33.0468 202.409L44.8711 173.53" stroke="#4D1F1F" stroke-width="3.38127" stroke-linecap="round" stroke-linejoin="round"/>
<path d="M33.0312 202.405H1.83134" stroke="#4D1F1F" stroke-width="3.38127" stroke-linecap="round" stroke-linejoin="round"/>
<path d="M163.508 237.551C162.926 241.201 162.277 244.411 161.628 247.073C160.229 252.818 154.195 256.037 148.683 254.034L97.2228 235.329L66.6718 245.138C50.0605 250.469 32.421 251.669 15.2535 248.627L6.96048 247.157C4.17086 238.269 2.55271 229.516 1.7942 221.05" stroke="#4D1F1F" stroke-width="3.38127" stroke-linecap="round" stroke-linejoin="round"/>
<path d="M120.312 244.442C144.424 216.231 146.531 183.745 146.531 183.745L128.765 162.834" stroke="#4D1F1F" stroke-width="3.38127" stroke-linecap="round" stroke-linejoin="round"/>
<path d="M120.306 223.093L132.055 227.681" stroke="#4D1F1F" stroke-width="3.38127" stroke-linecap="round" stroke-linejoin="round"/>
<path d="M116.748 232.147L126.887 235.915C128.016 236.338 129.247 236.372 130.402 236.008L142.824 232.139" stroke="#4D1F1F" stroke-width="3.38127" stroke-linecap="round" stroke-linejoin="round"/>
<path d="M45.5736 19.0186C53.816 16.6444 59.7913 11.254 66.5758 6.39585C72.9894 1.80808 81.6869 0.304174 89.1287 3.05853C106.667 9.53886 105.083 27.8223 105.083 27.8223C118.264 33.2888 135.777 55.1715 112.28 101.404H91.9689C85.2856 101.404 79.1585 97.6697 76.0908 91.7216" stroke="#4D1F1F" stroke-width="3.38127" stroke-linecap="round" stroke-linejoin="round"/>
<path d="M100.922 101.349V119.911" stroke="#4D1F1F" stroke-width="3.38127" stroke-linecap="round" stroke-linejoin="round"/>
<path d="M97.2299 235.267L126.491 245.904L126.609 257.893H39.2041V250.078C44.1429 249.723 54.1046 249.097 66.6789 245.076L97.2299 235.267Z" fill="#4D1F1F"/>
<path d="M146.867 242.047L130.264 247.327" stroke="#4D1F1F" stroke-width="3.38127" stroke-linecap="round" stroke-linejoin="round"/>
<path d="M140.669 208.989C160.011 202.441 167.242 215.528 167.242 215.528" stroke="#4D1F1F" stroke-width="3.38127" stroke-linecap="round" stroke-linejoin="round"/>
<path d="M86.7383 27.3819C83.03 23.8756 77.5519 22.7181 72.6638 24.2896C65.7951 26.5033 61.6654 33.3469 55.6058 37.2249C49.7737 40.9678 42.0791 41.7113 35.6149 39.1682" stroke="#4D1F1F" stroke-width="3.38127" stroke-linecap="round" stroke-linejoin="round"/>
<path d="M62.4995 60.9199C65.1627 63.6912 66.7387 67.451 66.8398 71.2614" stroke="#4D1F1F" stroke-width="3.38127" stroke-linecap="round" stroke-linejoin="round"/>
<path d="M21.3594 87.353L15.9487 81.2021" stroke="#4D1F1F" stroke-width="3.38127" stroke-linecap="round" stroke-linejoin="round"/>
<path d="M14.1797 103.668L6.24065 101.497" stroke="#4D1F1F" stroke-width="3.38127" stroke-linecap="round" stroke-linejoin="round"/>
<path d="M95.9414 36.9213C89.8902 34.4965 84.7492 36.4566 81.1758 40.6304" stroke="#FF5B4D" stroke-width="3.38127" stroke-linecap="round" stroke-linejoin="round"/>
<path d="M95.9414 49.1773C94.4075 47.4791 92.1152 46.499 89.8312 46.5497C87.5473 46.6004 85.3055 47.6819 83.839 49.4393" stroke="#4D1F1F" stroke-width="3.38127" stroke-linecap="round" stroke-linejoin="round"/>
<path d="M121.926 49.1773C120.392 47.4791 118.1 46.499 115.816 46.5497C113.532 46.6004 111.29 47.6819 109.823 49.4393" stroke="#4D1F1F" stroke-width="3.38127" stroke-linecap="round" stroke-linejoin="round"/>
<path d="M30.6811 269.973L40.2888 255.162H126.11L130.602 272.043C135.903 291.966 138.591 312.488 138.591 333.112V364.136L189.664 612.991H144.971L112.153 471.32L81.2819 382.682L73.5114 612.991H34.6422L27.2341 485.64L10.8082 357.293C6.89767 326.741 13.9434 295.801 30.6811 269.973Z" fill="#FF5C4D"/>
<path d="M105.841 299.732L87.8219 332.523C84.4339 338.699 82.5376 345.585 82.3016 352.623L81.2903 382.65L112.162 471.288L144.98 612.96H189.664" stroke="#4D1F1F" stroke-width="3.38127" stroke-linecap="round" stroke-linejoin="round"/>
<path d="M50.8086 265.846L44.3613 278.173C40.1474 286.225 31.8291 291.269 22.7607 291.269" stroke="#4D1F1F" stroke-width="3.38127" stroke-linecap="round" stroke-linejoin="round"/>
</g>
<defs>
<clipPath id="clip0_379_75315">
<rect width="214" height="698" fill="white" transform="matrix(-1 0 0 1 214 0)"/>
</clipPath>
</defs>
</svg>
