<svg width="739" height="585" viewBox="0 0 739 585" fill="none" xmlns="http://www.w3.org/2000/svg">
<g clip-path="url(#clip0_400_8092)">
<path d="M829.043 388.198C828.145 370.042 814.865 354.883 796.98 351.592L792.961 350.853C789.987 350.306 787.751 347.842 787.483 344.837L786.349 331.92C784.955 316.004 772.063 303.545 756.102 302.686L744.504 302.062C741.593 301.909 739.191 304.296 739.325 307.206L739.74 315.953C739.956 320.492 736.701 324.458 732.205 325.14L731.975 325.172C722.014 326.68 714.702 335.313 714.855 345.391C714.886 347.428 713.02 348.982 711.008 348.644L704.441 347.556C701.046 346.995 698.288 344.525 697.352 341.215L696.11 336.809C694.887 332.474 691.798 328.902 687.69 327.056L653.245 311.598L632.609 344.073L623.411 336.052L611.686 339.891C603.788 342.482 597.852 349.058 596.094 357.182L593.444 369.43L579.285 370.621L575.253 355.832C573.241 348.453 567.763 342.513 560.572 339.91L555.235 337.974L551.815 319.9C549.713 308.765 539.038 301.139 527.904 303.252C517.847 305.162 510.809 314.183 511.332 324.325L511.504 327.744L496.491 334.454L496.268 331.907C494.873 315.991 481.982 303.532 466.021 302.673L454.422 302.049C451.512 301.896 449.11 304.284 449.244 307.193L449.658 315.94C449.875 320.48 446.62 324.446 442.123 325.127L441.894 325.159C434.639 326.26 428.792 331.137 426.206 337.599L422.945 337.522C416.532 337.376 411.035 332.894 409.608 326.642L406.857 314.616L398.29 318.111C395.137 319.397 392.328 321.288 389.978 323.618L363.164 311.586L338.68 350.115L305.509 306.614L265.147 337.974L261.727 319.9C259.625 308.765 248.95 301.132 237.817 303.252C227.76 305.162 220.722 314.183 221.244 324.325L221.416 346.613L209.41 351.076C208.913 351.261 207.83 351.751 207.34 351.948C205.537 352.661 203.486 351.719 202.932 349.835L197.773 332.404C197.27 330.704 195.608 329.622 193.85 329.851L165.22 333.531C163.417 333.76 162.073 335.294 162.073 337.108V348.517C162.073 350.802 159.978 352.496 157.742 352.044C156.959 351.885 156.169 351.77 155.367 351.687L140.157 350.179L136.456 333.149C134.195 322.74 124.278 315.838 113.724 317.328H113.712C103.992 318.697 95.8013 325.592 93.2409 335.065C92.9479 336.141 92.7315 337.236 92.5786 338.363C92.0372 342.373 92.5467 346.461 93.8461 350.293L96.7186 358.767C98.8268 364.987 96.3683 371.843 90.7824 375.307L77.7828 383.373C68.2481 389.287 60.8724 398.378 57.9298 409.201L57.4329 411.639C56.9361 414.059 54.7897 415.777 52.3184 415.733L44.7518 415.599C39.7265 415.51 35.682 419.642 35.8157 424.665C37.2297 476.258 58.624 494.758 68.4518 500.552C71.1906 502.169 74.5599 502.277 77.407 500.857L90.069 494.567C91.4893 493.861 93.1709 494.822 93.2855 496.401L97.7886 558.517C97.8714 559.67 98.8204 560.561 99.9732 560.58L126.788 561.058C128.011 561.077 129.017 560.096 129.017 558.868C129.017 556.951 128.049 555.156 126.444 554.106L120.196 550.006C119.482 549.541 119.1 548.713 119.208 547.867L124.368 506.6C124.699 503.945 128.578 504.021 128.8 506.689L133.074 557.766C133.17 558.906 134.113 559.784 135.253 559.81L160.379 560.255C161.609 560.275 162.628 559.3 162.647 558.065L162.685 556.022C162.71 554.532 162.137 553.1 161.086 552.043L156.781 547.707C156.322 547.249 156.093 546.606 156.144 545.963L158.628 514.997C158.851 512.253 162.87 512.272 163.073 515.016L166.322 559.727C166.405 560.879 167.354 561.771 168.506 561.79L196.34 562.044V562.286L260.829 563.432C261.045 563.432 261.262 563.407 261.466 563.356L285.255 557.002C286.064 556.786 286.688 556.156 286.898 555.347L290.299 542.111C290.892 539.807 294.165 539.794 294.771 542.092L298.229 555.175C298.49 556.175 299.388 556.875 300.42 556.894L327.368 557.371L349.457 557.766C350.699 557.785 351.737 556.824 351.807 555.583L353.622 522.191C353.763 519.638 357.329 519.167 358.126 521.593L370.253 558.422C370.495 559.167 371.1 559.733 371.858 559.931L382.539 562.757C382.717 562.802 382.902 562.834 383.087 562.834L407.92 563.273C409.194 563.299 410.251 562.28 410.271 561.007V560.924L416.837 561.038C418.028 561.058 419.06 560.141 419.105 558.944C419.175 557.015 418.226 555.201 416.621 554.144L410.086 549.859L410.073 549.827L414.079 530.881C414.85 527.233 417.13 524.146 420.2 522.35L423.162 557.753C423.258 558.893 424.2 559.772 425.34 559.797L433.327 559.937C433.741 560.421 434.346 560.739 435.041 560.752L457.072 561.147C457.467 561.529 457.995 561.771 458.588 561.783L486.421 562.038V562.28L550.91 563.426C551.127 563.426 551.343 563.4 551.547 563.349L575.336 556.996C576.145 556.779 576.769 556.149 576.98 555.341L580.381 542.105C580.973 539.8 584.247 539.788 584.852 542.086L588.31 555.169C588.571 556.168 589.47 556.869 590.501 556.888L617.45 557.365L639.538 557.76C640.78 557.779 641.818 556.818 641.888 555.576L643.704 522.185C643.844 519.632 647.411 519.161 648.207 521.586L660.334 558.416C660.576 559.16 661.181 559.727 661.939 559.924L672.62 562.751C672.798 562.796 672.983 562.827 673.168 562.827L698.002 563.267C699.275 563.292 700.333 562.274 700.352 561V560.51C700.365 560.23 700.32 559.95 700.225 559.682L699.084 556.531C698.938 556.13 698.906 555.691 698.995 555.271L704.148 530.875C705.333 525.272 710.059 520.969 715.784 520.695C722.249 520.377 727.81 525.011 728.74 531.32L731.472 549.872C731.612 550.827 731.147 551.763 730.307 552.227L724.052 555.691C723.332 556.092 722.874 556.843 722.861 557.671L722.848 558.396C722.823 559.67 723.842 560.727 725.116 560.746L754.019 561.261C755.261 561.28 756.299 560.319 756.37 559.078L758.319 523.649C758.389 522.407 759.427 521.446 760.669 521.465L767.038 521.58C768.172 521.599 769.127 522.439 769.286 523.566L772.605 547.039C772.726 547.879 772.369 548.72 771.681 549.229L761 557.06C760.503 557.429 760.115 557.951 760.006 558.562C759.739 560.052 760.911 561.344 762.357 561.293L796.362 560.134C797.591 560.09 798.572 559.097 798.598 557.868L799.222 522.955C799.241 521.726 800.228 520.727 801.458 520.689L833.215 519.664C834.508 519.619 835.514 518.53 835.45 517.238L829.049 388.186L829.043 388.198Z" fill="#DAF8F7"/>
<path d="M443.733 567.388C654.792 567.388 825.889 564.939 825.889 561.919C825.889 558.899 654.792 556.45 443.733 556.45C232.675 556.45 61.5781 558.899 61.5781 561.919C61.5781 564.939 232.675 567.388 443.733 567.388Z" fill="#DAF8F7"/>
<path d="M481.756 134.494C486.482 128.911 488.966 121.487 488.552 114.192C488.195 107.902 485.526 100.16 480.609 95.9138C478.896 94.4305 477.189 92.9089 475.476 91.3746C473.297 85.7022 468.807 80.9211 463.209 78.521C459.839 77.0758 456.196 76.3946 452.546 76.3819L452.559 76.3691H446.515H446.528C442.973 76.4264 439.432 77.114 436.146 78.521C430.547 80.9211 426.063 85.7022 423.878 91.3746C422.165 92.9089 420.458 94.4305 418.745 95.9138C413.828 100.16 411.159 107.902 410.802 114.192C410.388 121.494 412.872 128.917 417.598 134.494C407.516 143.19 403.006 155.611 408.337 171.852H491.017C496.341 155.611 491.838 143.19 481.756 134.494Z" fill="#4D1F1F" stroke="#4D1F1F" stroke-width="2.54626" stroke-linecap="round" stroke-linejoin="round"/>
<path d="M439.55 584.824C524.181 584.824 592.788 583.191 592.788 581.176C592.788 579.162 524.181 577.528 439.55 577.528C354.919 577.528 286.312 579.162 286.312 581.176C286.312 583.191 354.919 584.824 439.55 584.824Z" fill="#4D1F1F"/>
<path d="M485.347 260.228L492.951 274.978C500.735 290.079 505.69 306.473 507.575 323.356L515.721 396.327L533.893 525.711H509.543L485.576 450.104C482.328 439.854 480.143 429.299 479.054 418.603L476.729 395.735L452.94 324.922C451.889 321.79 447.45 321.79 446.399 324.922L422.609 395.735L420.285 418.603C419.196 429.299 417.011 439.854 413.763 450.104L389.795 525.711H365.445L383.617 396.327L391.763 323.356C393.648 306.473 398.604 290.079 406.387 274.978L413.992 260.228H485.353H485.347Z" fill="#00BFE6"/>
<path d="M507.584 323.351L449.675 263.781L391.766 323.351" stroke="#4D1F1F" stroke-width="2.54626" stroke-linecap="round" stroke-linejoin="round"/>
<path d="M533.893 525.703H509.543L485.576 450.096C482.328 439.846 480.143 429.291 479.054 418.595L476.729 395.728L452.94 324.915C451.889 321.782 447.45 321.782 446.399 324.915L422.609 395.728L420.285 418.595C419.196 429.291 417.011 439.846 413.763 450.096L389.795 525.703H365.445" stroke="#4D1F1F" stroke-width="2.54626" stroke-linecap="round" stroke-linejoin="round"/>
<path d="M513.617 195.812L511.203 184.945C509.222 176.025 501.566 169.506 492.445 168.965L471.159 167.698C466.096 167.399 462.147 163.21 462.147 158.142V148.727L449.676 151.973L437.205 148.727V158.142C437.205 163.21 433.256 167.399 428.192 167.698L409.091 168.965C399.97 169.506 392.314 176.032 390.333 184.945L388.467 195.812C388.467 195.812 372.818 214.332 369.672 237.728C362.812 237.843 351.755 240.657 345.94 243.413C343.169 244.731 340.462 246.393 337.488 246.877C334.513 247.36 331.087 246.335 329.571 243.394C328.322 240.969 328.634 237.849 327.507 235.347C326.501 233.106 324.278 231.782 322.08 231.757H317.953L324.857 260.551H374.831L376.487 258.896C389.263 246.164 399.55 231.158 406.83 214.656H492.515L511.483 239.307C511.942 239.937 512.037 240.759 511.738 241.472L510.547 244.324C509.827 246.036 507.655 246.565 506.235 245.368L501.662 241.516C499.846 239.988 497.382 239.466 495.101 240.135L486.057 242.783L484.178 248.207V261.64C484.178 263.073 485.337 264.231 486.77 264.231H529.655C542.565 230.057 513.623 195.812 513.623 195.812H513.617Z" fill="#FFBB99"/>
<path d="M493.064 252.838L484.141 253.57" stroke="#4D1F1F" stroke-width="2.54626" stroke-linecap="round" stroke-linejoin="round"/>
<path d="M493.064 246.668L484.141 248.133" stroke="#4D1F1F" stroke-width="2.54626" stroke-linecap="round" stroke-linejoin="round"/>
<path d="M493.064 240.499L484.141 242.689" stroke="#4D1F1F" stroke-width="2.54626" stroke-linecap="round" stroke-linejoin="round"/>
<path d="M484.157 244.2H415.172V260.231H484.157V244.2Z" fill="#4D1F1F"/>
<path d="M484.826 188.79H480.47C470.19 188.79 460.228 192.323 452.248 198.804L449.668 200.898L447.088 198.804C439.108 192.329 429.146 188.79 418.866 188.79H414.51L404.141 208.633C404.141 217.916 411.484 226.065 411.484 226.065L415.172 244.202H484.157L487.845 226.065C487.845 226.065 495.189 217.916 495.189 208.633L484.82 188.79H484.826Z" fill="#FF5C4D"/>
<path d="M418.876 203.861C429.156 203.861 439.117 208.12 447.098 215.925L449.678 218.446L452.257 215.925C460.238 208.12 470.2 203.861 480.48 203.861H492.715L484.836 188.785H480.48C470.2 188.785 460.238 192.318 452.257 198.799L449.678 200.894L447.098 198.799C439.117 192.325 429.156 188.785 418.876 188.785H414.519L406.641 203.861H418.876Z" fill="#FF5C4D"/>
<path d="M492.715 203.86H480.48C470.2 203.86 460.238 208.119 452.257 215.925L449.678 218.446L447.098 215.925C439.117 208.119 429.156 203.86 418.876 203.86H406.641" stroke="#4D1F1F" stroke-width="2.54626" stroke-linecap="round" stroke-linejoin="round"/>
<path d="M449.68 200.897V193.633" stroke="#4D1F1F" stroke-width="2.54626" stroke-linecap="round" stroke-linejoin="round"/>
<path d="M453.876 261.677L449.679 263.771L445.481 261.677C442.303 260.085 440.297 256.838 440.297 253.292V241.896H459.061V253.292C459.061 256.845 457.054 260.091 453.876 261.677Z" fill="#FFE88C"/>
<path d="M452.078 250.487C453.373 250.487 454.422 249.438 454.422 248.144C454.422 246.851 453.373 245.802 452.078 245.802C450.784 245.802 449.734 246.851 449.734 248.144C449.734 249.438 450.784 250.487 452.078 250.487Z" fill="#FF5C4D"/>
<path d="M459.061 241.898V253.294C459.061 256.846 457.054 260.093 453.876 261.678L449.679 263.773L445.481 261.678C442.303 260.087 440.297 256.84 440.297 253.294V241.898" stroke="#4D1F1F" stroke-width="2.54626" stroke-linecap="round" stroke-linejoin="round"/>
<path d="M451.453 69.6101V59.7231" stroke="#4D1F1F" stroke-width="2.54626" stroke-linecap="round" stroke-linejoin="round"/>
<path d="M491.773 91.217L497.034 87.0029" stroke="#4D1F1F" stroke-width="2.54626" stroke-linecap="round" stroke-linejoin="round"/>
<path d="M519.248 215.47C513.197 215.967 507.363 218.692 503.07 222.976L511.497 234.569C511.955 235.199 512.051 236.021 511.752 236.734L510.618 239.446C512.656 234.792 517.159 231.641 522.28 231.558C526.203 231.494 530.012 233.341 532.789 236.135C532.235 229.107 530.515 222.397 528.318 216.368C525.382 215.547 522.299 215.222 519.255 215.47H519.248Z" fill="#FFE88C"/>
<path d="M528.304 216.368C525.368 215.547 522.285 215.222 519.24 215.47C513.19 215.967 507.355 218.692 503.062 222.976" stroke="#FF5B4D" stroke-width="2.54626" stroke-linecap="round" stroke-linejoin="round"/>
<path d="M510.594 238.716C512.632 234.062 517.135 230.911 522.256 230.828C526.18 230.764 529.988 232.61 532.765 235.405C533.358 242.968 532.606 250.907 529.638 258.763H485.295C483.862 258.763 482.703 257.605 482.703 256.172" stroke="#4D1F1F" stroke-width="2.54626" stroke-linecap="round" stroke-linejoin="round"/>
<path d="M411.484 226.06C411.484 226.06 404.141 217.911 404.141 208.629L414.51 188.785L410.714 191.058" stroke="#4D1F1F" stroke-width="2.54626" stroke-linecap="round" stroke-linejoin="round"/>
<path d="M511.474 235.304L494.812 212.366" stroke="#4D1F1F" stroke-width="2.54626" stroke-linecap="round" stroke-linejoin="round"/>
<path d="M487.846 226.058C487.846 226.058 495.189 217.909 495.189 208.627L484.82 188.783L488.616 191.056" stroke="#4D1F1F" stroke-width="2.54626" stroke-linecap="round" stroke-linejoin="round"/>
<path d="M387.941 223.217C383.789 221.077 379.101 220.002 374.432 220.065C372.305 225.419 370.528 231.391 369.674 237.725C369.445 237.725 369.197 237.745 368.961 237.751C373.54 238.126 378.024 239.603 381.91 242.048C383.948 243.334 385.808 244.888 387.457 246.638C388.387 245.473 389.298 244.295 390.19 243.105C390.247 243.029 390.304 242.952 390.362 242.869C391.177 241.774 391.979 240.667 392.769 239.546C392.852 239.425 392.935 239.311 393.018 239.19C394.718 236.751 396.349 234.268 397.896 231.728C395.285 228.176 391.865 225.222 387.948 223.204L387.941 223.217Z" fill="#FFE88C"/>
<path d="M397.88 231.747C395.268 228.195 391.848 225.241 387.931 223.223C383.778 221.084 379.091 220.001 374.422 220.065" stroke="#FF5C4D" stroke-width="2.54626" stroke-linecap="round" stroke-linejoin="round"/>
<path d="M369.664 237.827C373.995 238.292 378.224 239.737 381.906 242.061C383.944 243.347 385.804 244.9 387.453 246.651" stroke="#4D1F1F" stroke-width="2.54626" stroke-linecap="round" stroke-linejoin="round"/>
<path d="M492.964 274.981L490.422 203.869H468.531V272.989C468.531 295.233 475.066 315.229 489.996 325.18L509.224 337.995L507.594 323.366C505.708 306.482 500.753 290.089 492.97 274.988L492.964 274.981Z" fill="#4D1F1F" stroke="#4D1F1F" stroke-width="2.54626" stroke-linecap="round" stroke-linejoin="round"/>
<path d="M468.555 203.859L480.745 272.978C484.669 295.222 497.471 315.219 514.152 325.17L536.037 338.214H543.336L542.476 333.351L553.317 325.163C566.488 315.213 572.233 295.216 568.31 272.972L556.119 203.853H468.555V203.859Z" fill="#FF5C4D" stroke="#FF5B4D" stroke-width="2.54626" stroke-linecap="round" stroke-linejoin="round"/>
<path d="M543.342 338.213L521.457 325.168C504.776 315.218 491.974 295.221 488.05 272.977L475.859 203.857H563.424L575.615 272.977C579.538 295.221 573.793 315.218 560.621 325.168L543.342 338.213Z" fill="#FFE88C" stroke="#FFE680" stroke-width="2.54626" stroke-linecap="round" stroke-linejoin="round"/>
<path d="M491.305 220.531L500.559 272.977C503.362 288.868 512.508 303.147 524.425 310.259L540.055 319.579L552.399 310.259C561.806 303.154 565.914 288.868 563.112 272.977L553.857 220.531H491.311H491.305Z" stroke="#FF5B4D" stroke-width="2.54626" stroke-linecap="round" stroke-linejoin="round"/>
<path d="M533.251 245.539C532.436 240.936 534.582 237.205 538.034 237.205C541.486 237.205 544.945 240.936 545.76 245.539C546.576 250.142 544.429 253.872 540.977 253.872C537.525 253.872 534.066 250.142 533.251 245.539Z" fill="#FF5C4D" stroke="#FF5B4D" stroke-width="2.54626" stroke-linecap="round" stroke-linejoin="round"/>
<path d="M442.367 322.565H456.965" stroke="#4D1F1F" stroke-width="2.54626" stroke-linecap="round" stroke-linejoin="round"/>
<path d="M415.429 444.572H365.418V540.399C365.418 546.517 362.558 552.278 357.686 555.977L332.75 574.911C332.75 578.367 335.553 581.169 339.011 581.169H388.545V550.712C388.545 547.847 388.914 544.989 389.647 542.219L415.423 444.566L415.429 444.572Z" fill="#4D1F1F" stroke="#4D1F1F" stroke-width="2.54626" stroke-linecap="round" stroke-linejoin="round"/>
<path d="M543.297 338.216L560.577 325.171C573.748 315.221 579.493 295.224 575.57 272.98L563.379 203.86" stroke="#FF5B4D" stroke-width="2.54626" stroke-linecap="round" stroke-linejoin="round"/>
<path d="M483.93 444.572H533.941V540.399C533.941 546.517 536.801 552.278 541.673 555.977L566.609 574.911C566.609 578.367 563.807 581.169 560.348 581.169H510.814V550.712C510.814 547.847 510.445 544.989 509.712 542.219L483.936 444.566L483.93 444.572Z" fill="#4D1F1F" stroke="#4D1F1F" stroke-width="2.54626" stroke-linecap="round" stroke-linejoin="round"/>
<path d="M468.531 203.86L480.722 272.98C484.645 295.224 497.448 315.221 514.129 325.171L536.013 338.216H543.313L560.592 325.171" stroke="#4D1F1F" stroke-width="2.54626" stroke-linecap="round" stroke-linejoin="round"/>
<path d="M368.359 525.708L376.837 444.575L410.715 462.376" stroke="#FF5B4D" stroke-width="2.54626" stroke-linecap="round" stroke-linejoin="round"/>
<path d="M530.982 525.708L522.511 444.575L488.633 462.376" stroke="#FF5B4D" stroke-width="2.54626" stroke-linecap="round" stroke-linejoin="round"/>
<path d="M529.641 192.869L534.8 187.745" stroke="#FF5B4D" stroke-width="2.54626" stroke-linecap="round" stroke-linejoin="round"/>
<path d="M405.015 219.864C397.71 234.774 387.449 247.832 374.825 260.558H322.336" stroke="#4D1F1F" stroke-width="2.54626" stroke-linecap="round" stroke-linejoin="round"/>
<path d="M297.783 238.723L305.293 256.485C305.91 257.949 307.624 258.605 309.063 257.936L316.592 254.422C317.967 253.779 318.585 252.156 317.974 250.761L310.713 234.139C310.14 232.834 308.681 232.165 307.318 232.579L299.548 234.96C297.955 235.444 297.14 237.201 297.783 238.729V238.723Z" fill="#FFBB99"/>
<path d="M305.281 256.472C305.899 257.936 307.612 258.592 309.052 257.923L316.58 254.409C317.956 253.766 318.574 252.143 317.962 250.749L312.364 234.126" stroke="#4D1F1F" stroke-width="2.54626" stroke-linecap="round" stroke-linejoin="round"/>
<path d="M299.82 243.558L312.782 238.886" stroke="#4D1F1F" stroke-width="2.54626" stroke-linecap="round" stroke-linejoin="round"/>
<path d="M303.117 251.349L316.136 245.314" stroke="#4D1F1F" stroke-width="2.54626" stroke-linecap="round" stroke-linejoin="round"/>
<path d="M287.773 36.6735L335.498 581.926C335.638 583.518 338.855 584.543 342.683 584.205C346.511 583.868 349.504 582.308 349.364 580.71L301.639 35.4575L287.773 36.6671V36.6735Z" fill="#FF5C4D" stroke="#FF5C4D" stroke-width="2.54626" stroke-linecap="round" stroke-linejoin="round"/>
<path d="M306.202 87.707L292.336 88.923L299.164 166.917L312.507 159.793L306.202 87.707Z" fill="#4D1F1F" stroke="#4D1F1F" stroke-width="2.54626" stroke-linecap="round" stroke-linejoin="round"/>
<path d="M316.819 208.978L302.953 210.187L309.794 288.309L323.137 281.172L316.819 208.978Z" fill="#4D1F1F" stroke="#4D1F1F" stroke-width="2.54626" stroke-linecap="round" stroke-linejoin="round"/>
<path d="M313.57 331.455L320.405 409.563L333.754 402.427L327.436 330.239L313.57 331.455Z" fill="#4D1F1F" stroke="#4D1F1F" stroke-width="2.54626" stroke-linecap="round" stroke-linejoin="round"/>
<path d="M301.639 35.4575L287.773 36.6671L335.498 581.92C335.638 583.511 338.855 584.536 342.683 584.199L434.062 583.556" stroke="#4D1F1F" stroke-width="2.54626" stroke-linecap="round" stroke-linejoin="round"/>
<path d="M293.434 36.1173C301.44 36.1173 307.93 29.63 307.93 21.6275C307.93 13.625 301.44 7.1377 293.434 7.1377C285.428 7.1377 278.938 13.625 278.938 21.6275C278.938 29.63 285.428 36.1173 293.434 36.1173Z" fill="#FFE88C" stroke="#FF5C4D" stroke-width="2.54626" stroke-linecap="round" stroke-linejoin="round"/>
<path d="M292.796 19.912C295.997 19.912 298.592 17.3182 298.592 14.1186C298.592 10.919 295.997 8.3252 292.796 8.3252C289.595 8.3252 287 10.919 287 14.1186C287 17.3182 289.595 19.912 292.796 19.912Z" fill="#FBFCF9"/>
<path d="M294.095 29.1324C289.032 29.5781 284.484 26.5158 282.809 21.9703C282.637 22.9125 282.58 23.8929 282.662 24.8924C283.191 30.9532 288.535 35.4351 294.598 34.9067C300.662 34.3783 305.146 29.0369 304.617 22.9761C304.528 21.9766 304.299 21.0217 303.968 20.124C303.108 24.8924 299.159 28.6931 294.095 29.1324Z" fill="#FF5C4D"/>
<path d="M350.301 48.3315L234.758 58.4355L235.769 69.9846L351.312 59.8805L350.301 48.3315Z" fill="#FF5C4D" stroke="#FF5C4D" stroke-width="2.54626" stroke-linecap="round" stroke-linejoin="round"/>
<path d="M234.867 59.5995L235.778 69.9894L351.323 59.886L350.31 48.3374" stroke="#4D1F1F" stroke-width="2.54626" stroke-linecap="round" stroke-linejoin="round"/>
<path d="M234.772 58.4324L222.709 53.6704L206.391 66.7342L224.734 76.7675L235.778 69.981L234.772 58.4324Z" fill="#FFE88C" stroke="#FF5C4D" stroke-width="2.54626" stroke-linecap="round" stroke-linejoin="round"/>
<path d="M237.008 64.0596L224.855 71.5273L213.798 66.0904L206.391 66.7398L237.008 64.0596Z" fill="#FF5C4D" stroke="#FF5C4D" stroke-width="2.54626" stroke-linecap="round" stroke-linejoin="round"/>
<path d="M234.772 58.4399L235.778 69.9885L224.734 76.775L206.391 66.7417" stroke="#4D1F1F" stroke-width="2.54626" stroke-linecap="round" stroke-linejoin="round"/>
<path d="M350.32 48.3305L361.371 41.5439L379.708 51.5773L363.39 64.6474L351.333 59.879L350.32 48.3305Z" fill="#FFE88C" stroke="#FF5C4D" stroke-width="2.54626" stroke-linecap="round" stroke-linejoin="round"/>
<path d="M349.078 54.2623L362.345 59.5018L372.294 52.2314L379.695 51.582L349.078 54.2623Z" fill="#FF5C4D" stroke="#FF5C4D" stroke-width="2.54626" stroke-linecap="round" stroke-linejoin="round"/>
<path d="M350.32 48.3374L351.333 59.886L363.39 64.6544L379.708 51.5842" stroke="#4D1F1F" stroke-width="2.54626" stroke-linecap="round" stroke-linejoin="round"/>
<path d="M344.875 124.132L292.743 151.966L240.891 133.224L241.356 55.2103L258.686 53.6951L258.572 73.4944L327.895 67.4273L328.016 47.6343L345.346 46.1191L344.875 124.132Z" fill="#FBFCF9" stroke="#C4F5F5" stroke-width="2.54626" stroke-linecap="round" stroke-linejoin="round"/>
<path d="M260.503 116.222C258.643 113.726 257.541 109.365 257.579 103.75C257.611 98.4726 258.605 94.2708 260.586 91.1449C262.566 88.0381 265.127 86.3383 268.26 86.0646C269.974 85.9118 271.375 86.2938 272.451 87.1787L272.419 92.5901C271.324 91.3232 270.082 90.7502 268.732 90.8648C266.859 91.0303 265.362 92.1826 264.267 94.3472C263.146 96.5118 262.592 99.4721 262.566 103.266C262.541 107.564 263.178 110.83 264.178 112.555C265.184 114.306 266.439 115.082 267.866 114.961C268.088 114.942 268.381 114.872 268.744 114.745L268.808 103.878L268.197 103.929C267.184 104.018 266.299 104.228 265.553 104.591L266.057 99.7077L273.254 99.0774L273.146 116.769C271.738 118.463 269.885 119.418 267.579 119.622C264.783 119.864 262.35 118.718 260.496 116.216L260.503 116.222Z" fill="#00BFE6"/>
<path d="M275.914 118.444C276.634 115.268 277.016 111.301 277.048 106.571L277.099 97.5438C277.124 92.7881 276.787 88.8919 276.112 85.836L281.889 85.3331C285.296 85.0339 287.952 86.2116 289.831 88.841C291.71 91.4957 292.633 95.411 292.602 100.6C292.57 105.807 291.595 109.939 289.684 112.944C287.774 115.974 285.099 117.642 281.691 117.942L275.914 118.444ZM281.608 113.377L282.175 113.326C283.799 113.186 285.137 112.091 286.162 110.047C287.188 108.004 287.729 104.999 287.748 101.02C287.774 96.9962 287.207 93.9086 286.175 92.1769C285.15 90.4707 283.818 89.7259 282.264 89.8596L281.748 89.9041L281.608 113.371V113.377Z" fill="#00BFE6"/>
<path d="M294.398 116.826C294.742 115.362 295.029 113.522 295.246 111.319C295.462 109.116 295.564 106.996 295.577 104.946L295.628 95.9189C295.641 93.8753 295.564 91.768 295.373 89.578C295.182 87.4134 294.921 85.6181 294.596 84.2112L301.093 83.6445C303.984 83.3899 306.233 84.243 307.844 86.1656C309.455 88.1137 310.252 90.864 310.232 94.4355C310.213 97.9115 309.653 100.694 308.538 102.769C307.424 104.87 306.08 105.984 304.57 106.118C302.156 106.328 300.742 104.724 300.583 101.305L300.156 101.343L300.137 104.552C300.124 106.551 300.226 108.632 300.417 110.803C300.608 112.993 300.844 114.789 301.15 116.24L294.405 116.832L294.398 116.826ZM305.385 94.5883C305.398 92.5638 305.003 90.9849 304.194 89.8072C303.392 88.6294 302.398 88.101 301.252 88.2029C300.736 88.2474 300.347 88.553 300.233 88.5657L300.182 96.772C300.22 98.0898 300.462 99.223 300.908 100.165C301.328 101.107 301.914 101.553 302.659 101.489C304.354 101.343 305.36 98.9365 305.385 94.5947V94.5883Z" fill="#00BFE6"/>
<path d="M321.628 112.084C321.074 110.333 320.883 108.124 320.762 105.978C320.577 102.833 320.259 100.045 317.953 100.249C317.456 100.293 317.138 100.363 316.979 100.472L316.953 104.202C316.928 109.022 317.106 112.555 317.52 114.815L311.609 115.331C311.775 114.204 311.915 112.918 311.992 111.479C312.068 110.04 312.119 108.811 312.151 107.78C312.176 106.755 312.189 105.253 312.202 103.228L312.253 94.7482C312.291 88.611 312.132 84.6002 311.807 82.7158L317.673 82.2001C323.475 81.6908 326.953 84.2055 326.921 89.6869C326.889 94.6909 324.214 97.4221 319.679 97.8231L319.565 97.8359V98.1542L320.125 98.1033C322.316 97.9123 323.845 98.7081 324.488 99.9941C325.131 101.299 325.437 102.98 325.52 104.61C325.596 107.01 325.673 109.117 327.029 109.002C327.571 108.958 328.048 108.595 328.437 107.946L328.45 113.198C327.927 114.127 326.998 114.643 325.666 114.758C323.52 114.942 322.15 113.835 321.622 112.09L321.628 112.084ZM317.01 96.0087L317.507 95.9642C320.329 95.7159 322.1 93.946 322.119 90.7628C322.138 87.828 320.361 86.5292 317.565 86.7775L317.068 86.8221L317.01 96.0087Z" fill="#00BFE6"/>
<path d="M360.926 169.597L245.383 179.701L246.394 191.25L361.937 181.146L360.926 169.597Z" fill="#FF5C4D" stroke="#FF5C4D" stroke-width="2.54626" stroke-linecap="round" stroke-linejoin="round"/>
<path d="M245.383 179.702L246.396 191.251L361.934 181.147L360.921 169.599" stroke="#4D1F1F" stroke-width="2.54626" stroke-linecap="round" stroke-linejoin="round"/>
<path d="M355.669 245.377L303.677 273.198L251.685 254.468L251.672 176.499L269.003 174.984V194.771L338.332 188.704L338.325 168.923L355.656 167.408L355.669 245.377Z" fill="#FBFCF9" stroke="#C4F5F5" stroke-width="2.54626" stroke-linecap="round" stroke-linejoin="round"/>
<path d="M240.986 176.015L240.979 176.016C238.747 176.211 237.096 178.178 237.291 180.409L238.303 191.964C238.498 194.196 240.466 195.846 242.698 195.651L242.704 195.65C244.936 195.455 246.588 193.488 246.392 191.257L245.381 179.702C245.186 177.47 243.218 175.82 240.986 176.015Z" fill="#FFE88C" stroke="#FF5C4D" stroke-width="2.54626" stroke-linecap="round" stroke-linejoin="round"/>
<path d="M237.711 185.029C237.908 187.264 239.877 188.912 242.106 188.715C244.341 188.518 245.991 186.55 245.794 184.322L245.997 186.633C246.195 188.868 244.539 190.835 242.31 191.026C240.074 191.223 238.106 189.568 237.915 187.34L237.711 185.029Z" stroke="#FF5C4D" stroke-width="2.54626" stroke-linecap="round" stroke-linejoin="round"/>
<path d="M238.305 191.956C238.502 194.191 240.47 195.84 242.699 195.643C244.935 195.445 246.585 193.478 246.387 191.25L245.374 179.701" stroke="#4D1F1F" stroke-width="2.54626" stroke-linecap="round" stroke-linejoin="round"/>
<path d="M366.327 184.843L366.333 184.842C368.565 184.647 370.217 182.68 370.021 180.449L369.01 168.893C368.815 166.662 366.847 165.012 364.615 165.207L364.608 165.208C362.376 165.403 360.725 167.37 360.92 169.601L361.931 181.156C362.127 183.387 364.095 185.038 366.327 184.843Z" fill="#FFE88C" stroke="#FF5C4D" stroke-width="2.54626" stroke-linecap="round" stroke-linejoin="round"/>
<path d="M369.426 173.508C369.624 175.743 367.968 177.71 365.738 177.901C363.503 178.098 361.535 176.443 361.344 174.215L361.548 176.526C361.745 178.761 363.713 180.409 365.942 180.212C368.178 180.015 369.828 178.048 369.63 175.819L369.426 173.508Z" stroke="#FF5C4D" stroke-width="2.54626" stroke-linecap="round" stroke-linejoin="round"/>
<path d="M370.017 180.441C370.215 182.675 368.559 184.642 366.329 184.833C364.094 185.031 362.126 183.375 361.935 181.147L360.922 169.599" stroke="#4D1F1F" stroke-width="2.54626" stroke-linecap="round" stroke-linejoin="round"/>
<path d="M307.877 20.3691C308.577 28.3398 302.673 35.3683 294.699 36.0686C286.724 36.7689 279.693 30.8673 278.992 22.8966" stroke="#4D1F1F" stroke-width="2.54626" stroke-linecap="round" stroke-linejoin="round"/>
<path d="M263.155 241.891C263.766 239.115 264.085 235.645 264.078 231.507V223.613C264.078 219.456 263.76 216.043 263.148 213.376L268.199 212.937C271.18 212.676 273.511 213.707 275.167 216.005C276.823 218.329 277.657 221.754 277.657 226.287C277.657 230.839 276.83 234.455 275.174 237.084C273.518 239.733 271.186 241.19 268.206 241.451L263.155 241.891ZM268.11 237.46L268.607 237.415C270.027 237.288 271.193 236.333 272.084 234.544C272.97 232.755 273.428 230.132 273.428 226.65C273.428 223.129 272.912 220.43 272.008 218.921C271.097 217.431 269.938 216.775 268.575 216.896L268.123 216.935V237.453L268.11 237.46Z" fill="#00BFE6"/>
<path d="M279.312 240.472C279.924 237.696 280.242 234.226 280.242 230.088V222.194C280.242 218.037 279.924 214.624 279.312 211.957L284.682 211.486L287.153 217.954C287.688 219.202 288.019 220.621 288.198 222.219L288.471 222.194C288.573 221.252 288.924 219.768 289.535 217.744L292 210.849L297.369 210.378C297.096 211.677 296.879 213.287 296.701 215.229C296.522 217.171 296.446 219.011 296.446 220.781V228.675C296.446 230.445 296.529 232.265 296.707 234.163C296.885 236.053 297.102 237.626 297.376 238.899L291.51 239.415C291.783 238.097 292 236.486 292.178 234.564C292.357 232.641 292.433 230.801 292.433 229.031V221.735L292.197 221.755L288.886 232.724L287.841 232.813L284.523 222.423L284.268 222.449V229.744C284.268 233.8 284.567 237.212 285.159 239.969L279.319 240.478L279.312 240.472Z" fill="#00BFE6"/>
<path d="M298.602 238.788C299.117 237.508 299.627 235.897 300.124 233.943C300.614 232.007 301.028 230.104 301.347 228.245L302.888 220.217C303.621 215.881 303.894 212.412 303.735 209.821L310.939 209.19C310.862 210.47 310.901 212.055 311.079 213.972C311.238 215.888 311.474 217.696 311.792 219.44L313.314 227.201C314.028 231.256 314.951 234.611 316.079 237.26L310.174 237.775C310.27 235.477 310.098 232.829 309.64 229.849L309.442 228.716L305.238 229.085L305.041 230.295C304.608 233.656 304.429 236.317 304.512 238.278L298.608 238.794L298.602 238.788ZM305.786 225.647L308.862 225.38L308.13 221.707C308.009 221.019 307.792 219.09 307.474 215.939L307.155 215.964C307.117 216.365 307.06 216.989 306.996 217.81C306.939 218.651 306.856 219.377 306.799 219.994C306.741 220.618 306.64 221.223 306.544 221.847L305.773 225.654L305.786 225.647Z" fill="#00BFE6"/>
<path d="M325.767 234.343C325.27 232.815 325.098 230.879 324.977 229.001C324.799 226.251 324.5 223.813 322.487 223.991C322.054 224.029 321.773 224.093 321.64 224.182V227.441C321.64 231.656 321.818 234.744 322.194 236.717L317.022 237.169C317.162 236.182 317.277 235.062 317.334 233.801C317.391 232.541 317.436 231.465 317.455 230.567C317.474 229.67 317.474 228.358 317.474 226.588V219.172C317.474 213.805 317.315 210.297 317.016 208.654L322.149 208.202C327.226 207.757 330.283 209.959 330.283 214.747C330.283 219.121 327.952 221.514 323.984 221.858H323.888V222.145L324.379 222.1C326.296 221.935 327.633 222.628 328.206 223.755C328.78 224.901 329.054 226.365 329.136 227.792C329.219 229.892 329.296 231.732 330.48 231.63C330.952 231.592 331.366 231.274 331.703 230.707L331.741 235.297C331.289 236.112 330.48 236.564 329.315 236.666C327.442 236.832 326.238 235.864 325.761 234.33L325.767 234.343ZM321.64 220.286L322.073 220.247C324.538 220.031 326.079 218.484 326.079 215.702C326.079 213.136 324.519 212.003 322.073 212.213L321.64 212.251V220.286Z" fill="#00BFE6"/>
<path d="M335.352 232.29C333.912 229.972 333.18 226.375 333.18 221.543C333.18 216.609 334.065 212.618 335.568 210.16C337.046 207.703 338.982 206.34 341.275 206.143C342.536 206.035 343.523 206.264 344.256 206.856V212.064C343.485 211.16 342.619 210.733 341.632 210.822C338.887 211.064 337.504 214.502 337.504 221.123C337.504 227.725 338.944 230.902 341.829 230.647C342.918 230.552 343.861 230.074 344.67 229.208V234.021C343.625 234.868 342.421 235.352 341.02 235.473C338.67 235.677 336.797 234.607 335.352 232.29Z" fill="#00BFE6"/>
<path d="M371.543 290.858L256 300.962L257.011 312.511L372.554 302.407L371.543 290.858Z" fill="#FF5C4D" stroke="#FF5C4D" stroke-width="2.54626" stroke-linecap="round" stroke-linejoin="round"/>
<path d="M256 300.963L257.013 312.511L372.557 302.408L371.545 290.859" stroke="#4D1F1F" stroke-width="2.54626" stroke-linecap="round" stroke-linejoin="round"/>
<path d="M366.258 366.638L314.259 394.465L262.273 375.735L262.299 297.76L279.63 296.245L279.623 316.032L348.946 309.971L348.953 290.184L366.283 288.669L366.258 366.638Z" fill="#FBFCF9" stroke="#C4F5F5" stroke-width="2.54626" stroke-linecap="round" stroke-linejoin="round"/>
<path d="M251.595 297.276L251.589 297.276C249.357 297.472 247.705 299.439 247.9 301.67L248.912 313.225C249.107 315.456 251.075 317.107 253.307 316.912L253.314 316.911C255.546 316.716 257.197 314.749 257.002 312.518L255.99 300.962C255.795 298.731 253.827 297.081 251.595 297.276Z" fill="#FFE88C" stroke="#FF5C4D" stroke-width="2.54626" stroke-linecap="round" stroke-linejoin="round"/>
<path d="M248.305 306.29C248.502 308.525 250.47 310.174 252.699 309.976C254.935 309.779 256.585 307.812 256.387 305.583L256.591 307.894C256.789 310.129 255.133 312.096 252.903 312.287C250.668 312.485 248.699 310.829 248.508 308.601L248.305 306.29Z" stroke="#FF5C4D" stroke-width="2.54626" stroke-linecap="round" stroke-linejoin="round"/>
<path d="M248.914 313.217C249.112 315.452 251.08 317.101 253.309 316.903C255.544 316.706 257.194 314.739 256.997 312.51L255.984 300.962" stroke="#4D1F1F" stroke-width="2.54626" stroke-linecap="round" stroke-linejoin="round"/>
<path d="M376.936 306.099L376.943 306.099C379.175 305.903 380.826 303.936 380.631 301.705L379.619 290.15C379.424 287.919 377.456 286.268 375.224 286.463L375.218 286.464C372.985 286.659 371.334 288.626 371.529 290.857L372.541 302.413C372.736 304.644 374.704 306.294 376.936 306.099Z" fill="#FFE88C" stroke="#FF5C4D" stroke-width="2.54626" stroke-linecap="round" stroke-linejoin="round"/>
<path d="M380.043 294.774C380.241 297.009 378.585 298.976 376.356 299.167C374.12 299.364 372.152 297.709 371.961 295.481L372.165 297.792C372.362 300.026 374.33 301.675 376.56 301.478C378.795 301.28 380.445 299.313 380.247 297.085L380.043 294.774Z" stroke="#FF5C4D" stroke-width="2.54626" stroke-linecap="round" stroke-linejoin="round"/>
<path d="M380.642 301.701C380.84 303.936 379.184 305.903 376.954 306.094C374.719 306.291 372.751 304.636 372.559 302.408L371.547 290.859" stroke="#4D1F1F" stroke-width="2.54626" stroke-linecap="round" stroke-linejoin="round"/>
<path d="M279.562 362.651C280.263 359.474 280.626 355.514 280.626 350.784V341.757C280.626 337.007 280.269 333.105 279.569 330.049L285.346 329.546C288.753 329.247 291.416 330.425 293.314 333.054C295.205 335.709 296.154 339.624 296.154 344.806C296.154 350.014 295.205 354.139 293.307 357.15C291.409 360.181 288.747 361.842 285.339 362.142L279.562 362.645V362.651ZM285.225 357.583L285.785 357.532C287.409 357.392 288.741 356.297 289.76 354.254C290.772 352.21 291.295 349.212 291.295 345.233C291.295 341.209 290.709 338.121 289.671 336.396C288.632 334.69 287.301 333.945 285.741 334.079L285.225 334.123V357.583Z" fill="#00BFE6"/>
<path d="M308.945 357.218C308.314 355.321 308.04 352.908 307.932 350.559C307.754 347.096 307.461 344.053 305.384 344.237C304.594 344.307 304.053 344.581 303.716 345.039V348.77C303.716 350.839 303.805 352.946 304.002 355.085C304.206 357.25 304.454 359.045 304.792 360.446L298.047 361.038C298.747 357.861 299.111 353.901 299.111 349.171V340.144C299.111 335.394 298.754 331.492 298.06 328.436L304.805 327.844C304.079 330.951 303.722 334.465 303.716 338.374V340.417L304.684 340.335C305.696 340.245 306.537 339.743 307.301 338.603C308.066 337.47 308.524 335.292 308.524 332.358C308.524 330.696 308.276 329.104 307.76 327.583L312.792 327.144C313.174 328.404 313.378 330.002 313.378 331.931C313.378 336.566 311.161 341.353 306.493 341.761L306.314 341.773V342.136L307.512 342.034C309.792 341.837 311.346 342.741 312.002 344.212C312.658 345.676 312.925 347.56 312.995 349.375C313.085 352.074 313.155 354.455 314.734 354.315C315.25 354.271 315.728 353.908 316.155 353.258L316.199 358.593C315.677 359.504 314.754 360.013 313.448 360.128C311.123 360.331 309.588 359.103 308.957 357.199L308.945 357.218Z" fill="#00BFE6"/>
<path d="M318.508 359.247C319.208 356.07 319.571 352.11 319.571 347.38V338.353C319.571 333.603 319.215 329.701 318.514 326.645L325.266 326.053C324.565 329.23 324.202 333.189 324.202 337.945V346.973C324.202 351.703 324.559 355.599 325.259 358.655L318.508 359.247Z" fill="#00BFE6"/>
<path d="M328.374 358.38C329.074 355.203 329.437 351.243 329.437 346.513V337.485C329.437 332.736 329.081 328.834 328.386 325.778L334.526 325.243L337.342 332.634C337.953 334.06 338.335 335.684 338.539 337.511L338.857 337.485C338.972 336.41 339.38 334.71 340.08 332.399L342.902 324.517L349.042 323.982C348.723 325.466 348.475 327.306 348.271 329.528C348.067 331.749 347.978 333.85 347.972 335.875V344.902C347.972 346.927 348.061 349.009 348.258 351.173C348.462 353.338 348.711 355.133 349.023 356.585L342.322 357.17C342.641 355.668 342.889 353.828 343.093 351.625C343.297 349.422 343.386 347.328 343.386 345.303V336.963L343.118 336.989L339.322 349.524L338.125 349.626L334.335 337.753L334.042 337.778V346.118C334.042 350.753 334.373 354.656 335.049 357.807L328.367 358.393L328.374 358.38Z" fill="#00BFE6"/>
<path d="M344.875 124.129L292.743 151.963L240.891 133.22" stroke="#00BFE6" stroke-width="2.54626" stroke-linecap="round" stroke-linejoin="round"/>
<path d="M355.664 245.38L303.672 273.201L251.68 254.472" stroke="#00BFE6" stroke-width="2.54626" stroke-linecap="round" stroke-linejoin="round"/>
<path d="M366.258 366.637L314.259 394.464L262.273 375.734" stroke="#00BFE6" stroke-width="2.54626" stroke-linecap="round" stroke-linejoin="round"/>
<path d="M256.506 12.6667L250.188 5.94385" stroke="#FF5C4D" stroke-width="2.54626" stroke-linecap="round" stroke-linejoin="round"/>
<path d="M330.375 10.2735L337.088 1.60889" stroke="#FF5C4D" stroke-width="2.54626" stroke-linecap="round" stroke-linejoin="round"/>
<path d="M652.765 124.668L663.153 125.572L658.039 184.016L648.039 178.674L652.765 124.668Z" fill="#00BFE6" stroke="#00BFE6" stroke-width="2.54626" stroke-linecap="round" stroke-linejoin="round"/>
<path d="M644.811 215.521L655.199 216.425L650.078 274.957L640.078 269.609L644.811 215.521Z" fill="#00BFE6" stroke="#00BFE6" stroke-width="2.54626" stroke-linecap="round" stroke-linejoin="round"/>
<path d="M656.193 85.5112L666.581 86.4216L640.078 389.192" stroke="#00BFE6" stroke-width="2.54626" stroke-linecap="round" stroke-linejoin="round"/>
<path d="M662.336 86.013C668.334 86.013 673.196 81.1532 673.196 75.1583C673.196 69.1635 668.334 64.3037 662.336 64.3037C656.338 64.3037 651.477 69.1635 651.477 75.1583C651.477 81.1532 656.338 86.013 662.336 86.013Z" fill="#C4F5F5" stroke="#C4F5F5" stroke-width="2.54626" stroke-linecap="round" stroke-linejoin="round"/>
<path d="M662.805 73.8702C665.204 73.8702 667.149 71.9263 667.149 69.5284C667.149 67.1304 665.204 65.1865 662.805 65.1865C660.406 65.1865 658.461 67.1304 658.461 69.5284C658.461 71.9263 660.406 73.8702 662.805 73.8702Z" fill="#C4F5F5" stroke="#C4F5F5" stroke-width="0.636565" stroke-miterlimit="10"/>
<path d="M618.974 103.81L705.539 111.38L706.296 102.73L619.731 95.1597L618.974 103.81Z" fill="#C4F5F5" stroke="#C4F5F5" stroke-width="2.54626" stroke-linecap="round" stroke-linejoin="round"/>
<path d="M706.215 103.604L705.533 111.39L618.969 103.82L619.727 95.1685" stroke="#00BFE6" stroke-width="2.54626" stroke-linecap="round" stroke-linejoin="round"/>
<path d="M706.289 102.739L715.327 99.167L727.556 108.958L713.811 116.471L705.531 111.39L706.289 102.739Z" fill="#C4F5F5" stroke="#C4F5F5" stroke-width="2.54626" stroke-linecap="round" stroke-linejoin="round"/>
<path d="M706.289 102.735L705.531 111.387L713.811 116.467L727.556 108.955" stroke="#00BFE6" stroke-width="2.54626" stroke-linecap="round" stroke-linejoin="round"/>
<path d="M619.722 95.1697L611.442 90.083L597.703 97.6017L609.932 107.387L618.964 103.822L619.722 95.1697Z" fill="#C4F5F5" stroke="#C4F5F5" stroke-width="2.54626" stroke-linecap="round" stroke-linejoin="round"/>
<path d="M619.722 95.1665L618.964 103.818L609.932 107.384L597.703 97.5984" stroke="#00BFE6" stroke-width="2.54626" stroke-linecap="round" stroke-linejoin="round"/>
<path d="M623.796 151.954L662.858 172.804L701.704 158.766L701.354 100.317L688.373 99.1837L688.463 114.011L636.521 109.472L636.432 94.6381L623.445 93.5049L623.796 151.954Z" fill="#C4F5F5" stroke="#C4F5F5" stroke-width="2.54626" stroke-linecap="round" stroke-linejoin="round"/>
<path d="M645.382 145.155L645.414 141.157C645.955 141.825 646.586 142.366 647.324 142.78C648.038 143.213 648.694 143.449 649.293 143.506C650.012 143.57 650.617 143.372 651.114 142.927C651.598 142.481 651.84 141.851 651.847 141.061C651.859 139.788 651.114 138.349 650.146 137.178C649.649 136.599 649.127 135.949 648.566 135.23C647.414 133.804 646.407 132.6 645.751 130.799C645.433 129.914 645.267 129.016 645.274 128.093C645.286 126.266 645.828 124.84 646.917 123.847C647.987 122.854 649.35 122.414 650.993 122.561C652.484 122.688 653.751 123.216 654.758 124.127L654.725 128.125C653.757 126.922 652.662 126.272 651.464 126.17C650.764 126.107 650.159 126.291 649.694 126.737C649.21 127.183 648.968 127.762 648.961 128.481C648.949 130.506 651.127 132.435 652.961 134.892C654.318 136.669 655.573 138.922 655.534 141.577C655.522 143.404 654.961 144.824 653.84 145.836C652.719 146.842 651.324 147.275 649.662 147.135C648.032 146.995 646.407 146.25 645.388 145.155H645.382Z" fill="#00BFE6"/>
<path d="M657.085 147.445C657.352 146.413 657.569 145.089 657.734 143.497C657.9 141.906 657.983 140.352 657.989 138.85L658.04 132.203C658.053 130.695 657.995 129.135 657.855 127.499C657.715 125.882 657.518 124.519 657.269 123.443L662.206 123.87C664.403 124.061 666.11 124.978 667.333 126.607C668.556 128.256 669.154 130.383 669.135 133.012C669.116 135.571 668.689 137.545 667.836 138.926C666.982 140.327 665.97 140.976 664.817 140.874C662.982 140.715 661.912 139.347 661.791 136.813L661.467 136.787L661.448 139.149C661.435 140.62 661.511 142.167 661.651 143.79C661.791 145.426 661.97 146.782 662.206 147.89L657.078 147.445H657.085ZM665.454 132.496C665.466 131.007 665.167 129.791 664.556 128.817C663.944 127.843 663.193 127.327 662.32 127.25C661.925 127.219 661.632 127.39 661.549 127.384L661.505 133.426C661.53 134.4 661.715 135.272 662.053 136.017C662.371 136.762 662.817 137.169 663.384 137.22C664.67 137.328 665.435 135.692 665.46 132.49L665.454 132.496Z" fill="#00BFE6"/>
<path d="M670.398 148.591C670.946 146.344 671.246 143.472 671.271 139.99L671.322 133.344C671.348 129.848 671.099 126.926 670.583 124.59L679.844 125.392L680.347 129.39C679.577 129.008 678.551 128.747 677.265 128.639L674.863 128.429L674.812 135.324L675.704 135.4C677.124 135.521 678.188 135.546 678.895 135.476L678.863 139.309C678.124 139.131 676.978 138.978 675.418 138.844L674.781 138.787L674.768 140.627C674.742 143.74 674.997 146.541 675.526 149.03L670.398 148.585V148.591Z" fill="#00BFE6"/>
<path d="M611.021 194.672L697.586 202.242L698.343 193.592L611.778 186.022L611.021 194.672Z" fill="#C4F5F5" stroke="#C4F5F5" stroke-width="2.54626" stroke-linecap="round" stroke-linejoin="round"/>
<path d="M698.338 193.586L697.58 202.238L611.016 194.668L611.774 186.017" stroke="#00BFE6" stroke-width="2.54626" stroke-linecap="round" stroke-linejoin="round"/>
<path d="M615.711 242.794L654.665 263.637L693.62 249.606L693.626 191.188L680.645 190.055L680.639 204.876L628.704 200.33V185.509L615.717 184.376L615.711 242.794Z" fill="#C4F5F5" stroke="#C4F5F5" stroke-width="2.54626" stroke-linecap="round" stroke-linejoin="round"/>
<path d="M697.573 202.235C697.426 203.909 698.664 205.385 700.337 205.531C702.01 205.678 703.486 204.439 703.633 202.765L704.389 194.121C704.536 192.446 703.298 190.97 701.625 190.824C699.951 190.678 698.476 191.916 698.329 193.591L697.573 202.235Z" fill="#C4F5F5" stroke="#C4F5F5" stroke-width="2.54626" stroke-linecap="round" stroke-linejoin="round"/>
<path d="M703.616 202.772C703.469 204.446 701.992 205.681 700.323 205.535C698.648 205.388 697.412 203.911 697.559 202.243L698.317 193.591" stroke="#00BFE6" stroke-width="2.54626" stroke-linecap="round" stroke-linejoin="round"/>
<path d="M611.763 186.02C611.909 184.346 610.672 182.87 608.998 182.723C607.325 182.577 605.85 183.816 605.703 185.49L604.947 194.134C604.8 195.809 606.038 197.284 607.711 197.431C609.384 197.577 610.86 196.338 611.006 194.664L611.763 186.02Z" fill="#C4F5F5" stroke="#C4F5F5" stroke-width="2.54626" stroke-linecap="round" stroke-linejoin="round"/>
<path d="M604.941 194.136C604.795 195.811 606.031 197.281 607.706 197.428C609.381 197.574 610.852 196.339 610.999 194.665L611.757 186.013" stroke="#00BFE6" stroke-width="2.54626" stroke-linecap="round" stroke-linejoin="round"/>
<path d="M651.511 74.207C650.988 80.1787 655.409 85.4436 661.383 85.972C667.357 86.4941 672.625 82.0758 673.153 76.1042" stroke="#00BFE6" stroke-width="2.54626" stroke-linecap="round" stroke-linejoin="round"/>
<path d="M627.585 236.517C628.095 234.269 628.349 231.398 628.318 227.916L628.26 221.269C628.229 217.774 627.929 214.852 627.375 212.516L631.776 212.898C634.369 213.12 636.407 214.336 637.872 216.52C639.33 218.723 640.082 221.728 640.114 225.548C640.145 229.38 639.451 232.296 638.025 234.263C636.598 236.249 634.579 237.128 631.986 236.899L627.585 236.517ZM631.866 233.531L632.292 233.569C633.528 233.677 634.534 233.047 635.298 231.672C636.056 230.297 636.439 228.158 636.407 225.229C636.381 222.269 635.91 219.92 635.107 218.513C634.305 217.125 633.286 216.399 632.101 216.297L631.706 216.265L631.859 233.537L631.866 233.531Z" fill="#00BFE6"/>
<path d="M640.514 237.643C640.954 236.643 641.387 235.363 641.801 233.791C642.215 232.238 642.565 230.697 642.826 229.182L644.107 222.656C644.712 219.116 644.928 216.239 644.769 214.036L651.043 214.577C650.985 215.64 651.03 216.984 651.196 218.62C651.348 220.256 651.565 221.816 651.858 223.325L653.24 230.086C653.89 233.606 654.724 236.573 655.724 238.967L650.584 238.521C650.654 236.605 650.476 234.345 650.062 231.773L649.883 230.786L646.221 230.468L646.055 231.454C645.705 234.217 645.565 236.427 645.648 238.095L640.508 237.649L640.514 237.643ZM646.673 227.654L649.355 227.889L648.692 224.687C648.584 224.095 648.38 222.433 648.081 219.734L647.807 219.709C647.775 220.04 647.731 220.555 647.686 221.236C647.641 221.937 647.578 222.529 647.533 223.045C647.489 223.56 647.406 224.057 647.323 224.566L646.68 227.654H646.673Z" fill="#00BFE6"/>
<path d="M656.767 239.049C657.015 238.018 657.212 236.693 657.352 235.102C657.493 233.51 657.55 231.957 657.537 230.454L657.48 223.808C657.467 222.299 657.384 220.739 657.219 219.103C657.047 217.486 656.83 216.124 656.562 215.048L660.671 215.404L665.391 228.876L665.645 228.901L665.594 222.923C665.499 220.071 665.206 217.69 664.722 215.755L669.862 216.2C669.365 218.518 669.135 221.389 669.167 224.82L669.301 240.138L666.021 239.851L661.231 226.291L660.97 226.265L661.008 230.754C661.021 232.224 661.123 233.771 661.289 235.395C661.461 237.031 661.658 238.387 661.906 239.495L656.767 239.049Z" fill="#00BFE6"/>
<path d="M672.313 240.399C672.561 239.367 672.759 238.043 672.899 236.451C673.039 234.86 673.097 233.306 673.084 231.804L673.027 225.158C673.014 223.649 672.931 222.089 672.766 220.453C672.594 218.829 672.377 217.473 672.109 216.397L681.389 217.2L681.956 221.159C681.319 220.803 680.288 220.561 678.861 220.44L676.491 220.236L676.542 226.214L678.345 226.374C679.67 226.488 680.733 226.514 681.542 226.431L681.574 230.282C680.663 230.085 679.593 229.926 678.377 229.824L676.574 229.665L676.644 237.311L679.358 237.546C680.612 237.655 681.644 237.578 682.447 237.298L681.708 241.213L672.326 240.399H672.313Z" fill="#00BFE6"/>
<path d="M603.091 285.527L689.656 293.097L690.413 284.446L603.848 276.876L603.091 285.527Z" fill="#C4F5F5" stroke="#C4F5F5" stroke-width="2.54626" stroke-linecap="round" stroke-linejoin="round"/>
<path d="M690.408 284.441L689.65 293.099L603.086 285.523L603.844 276.871" stroke="#00BFE6" stroke-width="2.54626" stroke-linecap="round" stroke-linejoin="round"/>
<path d="M607.793 333.654L646.753 354.498L685.701 340.466L685.682 282.049L672.695 280.909L672.702 295.736L620.76 291.191V276.37L607.773 275.23L607.793 333.654Z" fill="#C4F5F5" stroke="#C4F5F5" stroke-width="2.54626" stroke-linecap="round" stroke-linejoin="round"/>
<path d="M689.628 293.084C689.481 294.758 690.719 296.234 692.392 296.38C694.065 296.526 695.541 295.288 695.687 293.613L696.444 284.969C696.59 283.295 695.353 281.819 693.68 281.673C692.006 281.526 690.531 282.765 690.384 284.439L689.628 293.084Z" fill="#C4F5F5" stroke="#C4F5F5" stroke-width="2.54626" stroke-linecap="round" stroke-linejoin="round"/>
<path d="M695.67 293.625C695.524 295.299 694.046 296.534 692.378 296.388C690.702 296.241 689.467 294.764 689.613 293.096L690.371 284.444" stroke="#00BFE6" stroke-width="2.54626" stroke-linecap="round" stroke-linejoin="round"/>
<path d="M603.825 276.879C603.972 275.205 602.734 273.729 601.061 273.583C599.388 273.436 597.912 274.675 597.766 276.349L597.009 284.994C596.863 286.668 598.1 288.144 599.774 288.29C601.447 288.437 602.922 287.198 603.069 285.524L603.825 276.879Z" fill="#C4F5F5" stroke="#C4F5F5" stroke-width="2.54626" stroke-linecap="round" stroke-linejoin="round"/>
<path d="M597.004 284.996C596.857 286.67 598.093 288.141 599.768 288.287C601.443 288.433 602.915 287.198 603.061 285.524L603.819 276.872" stroke="#00BFE6" stroke-width="2.54626" stroke-linecap="round" stroke-linejoin="round"/>
<path d="M625.111 327.71C625.685 325.52 625.958 322.649 625.965 319.122L625.984 307.255L625.398 307.198C624.13 307.077 623.079 307.147 622.258 307.389L622.831 303.493L632.659 304.422L633.181 308.42C632.41 308.032 631.366 307.764 630.06 307.637L629.493 307.586L629.474 319.453C629.474 322.935 629.735 325.858 630.264 328.2L625.099 327.71H625.111Z" fill="#00BFE6"/>
<path d="M640.053 329.055C639.04 328.711 638.129 328.488 637.358 328.418C636.486 328.335 635.537 328.514 634.492 328.934C634.715 327.902 634.925 326.534 635.084 324.821C635.244 323.109 635.314 321.511 635.314 320.008L635.327 313.362C635.327 311.872 635.263 310.325 635.11 308.689C634.957 307.053 634.772 305.697 634.53 304.602L639.607 305.079C639.091 307.39 638.823 310.261 638.817 313.693L638.798 325.477L641.441 325.725C642.747 325.846 643.721 325.725 644.39 325.349L644.352 329.43L644.231 329.488C643.919 329.577 643.269 329.768 642.479 329.691C641.861 329.634 641.059 329.424 640.046 329.061L640.053 329.055Z" fill="#00BFE6"/>
<path d="M645.595 328.374V324.376C646.149 325.044 646.786 325.592 647.518 326.012C648.238 326.445 648.887 326.693 649.493 326.75C650.212 326.82 650.817 326.623 651.314 326.184C651.798 325.744 652.034 325.114 652.04 324.325C652.04 323.051 651.289 321.606 650.314 320.428C649.817 319.843 649.289 319.193 648.722 318.468C647.556 317.035 646.55 315.819 645.881 314.011C645.556 313.126 645.384 312.222 645.391 311.305C645.391 309.478 645.926 308.059 647.008 307.072C648.072 306.085 649.429 305.658 651.078 305.818C652.569 305.958 653.836 306.499 654.849 307.416V311.414C653.868 310.198 652.766 309.542 651.569 309.427C650.868 309.364 650.263 309.536 649.798 309.981C649.321 310.421 649.078 311 649.072 311.719C649.072 313.744 651.263 315.692 653.11 318.162C654.479 319.951 655.747 322.211 655.722 324.872C655.722 326.699 655.168 328.119 654.047 329.119C652.932 330.118 651.537 330.538 649.874 330.379C648.244 330.226 646.613 329.469 645.588 328.367L645.595 328.374Z" fill="#00BFE6"/>
<path d="M656.117 330.639C656.563 329.645 657.015 328.366 657.449 326.793C657.882 325.246 658.245 323.706 658.518 322.19L659.869 315.671C660.512 312.132 660.754 309.26 660.62 307.051L666.881 307.643C666.811 308.707 666.843 310.05 666.996 311.686C667.13 313.322 667.333 314.882 667.607 316.397L668.919 323.164C669.531 326.685 670.333 329.658 671.308 332.065L666.181 331.581C666.27 329.665 666.117 327.404 665.729 324.826L665.557 323.839L661.901 323.496L661.729 324.482C661.346 327.239 661.187 329.454 661.251 331.116L656.124 330.632L656.117 330.639ZM662.385 320.701L665.06 320.955L664.429 317.747C664.327 317.148 664.142 315.493 663.869 312.787L663.595 312.762C663.563 313.093 663.506 313.609 663.455 314.29C663.404 314.99 663.334 315.582 663.283 316.098C663.232 316.614 663.143 317.104 663.06 317.619L662.385 320.701Z" fill="#00BFE6"/>
<path d="M623.773 151.958L662.836 172.807L701.682 158.77" stroke="#00BFE6" stroke-width="2.54626" stroke-linecap="round" stroke-linejoin="round"/>
<path d="M615.703 242.801L654.657 263.644L693.612 249.613" stroke="#00BFE6" stroke-width="2.54626" stroke-linecap="round" stroke-linejoin="round"/>
<path d="M607.758 333.652L646.718 354.496L685.666 340.464" stroke="#00BFE6" stroke-width="2.54626" stroke-linecap="round" stroke-linejoin="round"/>
<path d="M689.578 58.9638L693.533 51.8525" stroke="#00BFE6" stroke-width="2.54626" stroke-linecap="round" stroke-linejoin="round"/>
<path d="M703.812 74.3624L710.921 70.0146" stroke="#00BFE6" stroke-width="2.54626" stroke-linecap="round" stroke-linejoin="round"/>
<path d="M716.867 269.047L720.816 261.936" stroke="#C4F5F5" stroke-width="2.54626" stroke-linecap="round" stroke-linejoin="round"/>
<path d="M731.102 284.439L738.21 280.098" stroke="#C4F5F5" stroke-width="2.54626" stroke-linecap="round" stroke-linejoin="round"/>
<path d="M185.471 306.031L179 301.098" stroke="#C4F5F5" stroke-width="2.54626" stroke-linecap="round" stroke-linejoin="round"/>
<path d="M202.766 294.185L199.492 286.526" stroke="#C4F5F5" stroke-width="2.54626" stroke-linecap="round" stroke-linejoin="round"/>
<path d="M440.383 81.2975C440.593 80.5909 440.912 79.9097 441.319 79.2986C442.23 77.9364 443.593 76.9115 445.128 76.4277" stroke="#00BFE6" stroke-width="2.54626" stroke-linecap="round" stroke-linejoin="round"/>
<path d="M444.488 153.317H454.889C458.921 153.317 462.188 150.21 462.188 146.378V140.062C462.188 138.91 461.207 137.98 459.997 137.98H439.386C438.176 137.98 437.195 138.91 437.195 140.062V146.378C437.195 150.21 440.463 153.317 444.495 153.317H444.488Z" fill="#FF5C4D"/>
<path d="M471.929 100.751C473.63 109.613 473.458 122.301 467.21 137.51C465.726 141.126 462.248 143.475 458.407 143.475H434.848C425.963 125.618 425.504 110.752 427.421 100.757C429.485 89.9853 438.949 82.3711 449.669 82.3711C460.388 82.3711 469.853 89.9853 471.917 100.757L471.929 100.751Z" fill="#FF5C4D"/>
<path d="M471.929 107.706C469.865 97.698 460.401 90.625 449.681 90.625C438.962 90.625 429.497 97.698 427.434 107.706C426.421 112.608 426.077 118.777 427.281 125.946C427.879 129.523 432.274 138.271 434.981 143.421C436.261 145.853 438.873 147.394 441.739 147.394H457.649C460.503 147.394 463.114 145.866 464.394 143.44C467.082 138.36 471.432 129.772 472.037 126.264C473.305 118.962 472.961 112.684 471.935 107.712L471.929 107.706Z" fill="#FFBB99"/>
<path d="M441.732 147.397H457.642C460.496 147.397 463.107 145.869 464.387 143.444C467.075 138.364 471.425 129.769 472.037 126.261V119.328C472.037 119.328 466.031 131.24 463.954 135.378C462.19 138.905 458.445 141.152 454.343 141.152H445.286C441.178 141.152 437.439 138.905 435.675 135.378C434.261 132.557 426.516 119.328 426.516 119.328L427.28 125.949C427.879 129.521 432.273 138.274 434.987 143.425C436.267 145.857 438.878 147.397 441.745 147.397H441.732Z" fill="#FF5C4D"/>
<path d="M471.929 107.706C469.865 97.698 460.401 90.625 449.681 90.625C438.962 90.625 429.497 97.698 427.434 107.706C426.421 112.608 426.077 118.777 427.281 125.946C427.879 129.523 432.274 138.271 434.981 143.421C436.261 145.853 438.873 147.394 441.739 147.394H457.649C460.503 147.394 463.114 145.866 464.394 143.44C467.082 138.36 471.432 129.772 472.037 126.264C473.305 118.962 472.961 112.684 471.935 107.712L471.929 107.706Z" stroke="#4D1F1F" stroke-width="2.54626" stroke-linecap="round" stroke-linejoin="round"/>
<path d="M434.336 103.042C437.476 101.947 442.247 102.545 444.871 104.582L445.03 103.144L439.68 102.628" stroke="#4D1F1F" stroke-width="2.54626" stroke-linecap="round" stroke-linejoin="round"/>
<path d="M464.702 103.149C461.587 101.984 456.81 102.5 454.135 104.473L454.008 103.028L459.829 102.596" stroke="#4D1F1F" stroke-width="2.54626" stroke-linecap="round" stroke-linejoin="round"/>
<path d="M453.848 96.1747L449.676 97.7726L445.504 96.1747C442.345 94.9651 440.352 92.4886 440.352 89.7765V81.0864H459.001V89.7765C459.001 92.4822 457.007 94.9587 453.848 96.1747Z" fill="#FFE88C"/>
<path d="M452.065 87.6449C453.353 87.6449 454.397 86.844 454.397 85.8561C454.397 84.8682 453.353 84.0674 452.065 84.0674C450.778 84.0674 449.734 84.8682 449.734 85.8561C449.734 86.844 450.778 87.6449 452.065 87.6449Z" fill="#FF5C4D"/>
<path d="M459.001 81.0864V89.7765C459.001 92.4822 457.007 94.9587 453.848 96.1747L449.676 97.7726L445.504 96.1747C442.345 94.9651 440.352 92.4886 440.352 89.7765V81.0864" stroke="#4D1F1F" stroke-width="2.54626" stroke-linecap="round" stroke-linejoin="round"/>
<path d="M417.741 85.8503L413.219 81.2988" stroke="#4D1F1F" stroke-width="2.54626" stroke-linecap="round" stroke-linejoin="round"/>
<path d="M448.351 112.461L440.695 117.057L445.714 122.08" stroke="#4D1F1F" stroke-width="2.54626" stroke-linecap="round" stroke-linejoin="round"/>
<path d="M443.949 109.194C442.687 107.902 441.108 107.183 439.528 107.176C437.949 107.17 436.363 107.883 435.102 109.162" stroke="#4D1F1F" stroke-width="2.54626" stroke-linecap="round" stroke-linejoin="round"/>
<path d="M463.394 109.027C462.088 107.779 460.483 107.124 458.904 107.175C457.324 107.226 455.763 107.996 454.547 109.326" stroke="#4D1F1F" stroke-width="2.54626" stroke-linecap="round" stroke-linejoin="round"/>
<path d="M439.523 109.127V110.852" stroke="#4D1F1F" stroke-width="3.81939" stroke-linecap="round" stroke-linejoin="round"/>
<path d="M458.93 109.127V110.852" stroke="#4D1F1F" stroke-width="3.81939" stroke-linecap="round" stroke-linejoin="round"/>
<path d="M419.797 115.16C424.115 114.803 427.625 111.327 429.491 107.425C431.357 103.522 431.956 99.1547 432.956 94.9402C433.956 90.732 435.516 86.422 438.765 83.5635C438.765 83.5635 430.134 82.3285 423.204 97.7669" fill="#4D1F1F"/>
<path d="M419.797 115.16C424.115 114.803 427.625 111.327 429.491 107.425C431.357 103.522 431.956 99.1547 432.956 94.9402C433.956 90.732 435.516 86.422 438.765 83.5635C438.765 83.5635 430.134 82.3285 423.204 97.7669" stroke="#4D1F1F" stroke-width="2.54626" stroke-linecap="round" stroke-linejoin="round"/>
<path d="M461.023 83.7536C465.386 83.0915 470.049 84.9887 472.705 88.5093C474.749 91.215 475.577 94.6273 476.195 97.9633C476.813 101.299 477.284 104.718 478.762 107.774C480.233 110.83 482.953 113.523 486.316 113.949" stroke="#00BFE6" stroke-width="2.54626" stroke-linecap="round" stroke-linejoin="round"/>
<path d="M451.25 127.149C454.339 128.193 457.931 127.626 460.549 125.685" stroke="#4D1F1F" stroke-width="2.54626" stroke-linecap="round" stroke-linejoin="round"/>
</g>
<defs>
<clipPath id="clip0_400_8092">
<rect width="738.242" height="584.907" fill="white"/>
</clipPath>
</defs>
</svg>
