<svg width="1299" height="713" viewBox="0 0 1299 713" fill="none" xmlns="http://www.w3.org/2000/svg">
<g opacity="0.4">
<path d="M659.969 690.933H906.329V609.937V2.46875" stroke="#00BFE6" stroke-width="3.55257" stroke-linecap="round" stroke-linejoin="round"/>
<path opacity="0.4" d="M659.547 4.35156V619.428V690.48" stroke="#00BFE6" stroke-width="3.55257" stroke-linecap="round" stroke-linejoin="round"/>
<path d="M700.409 690.934H15.8672" stroke="url(#paint0_linear_379_78947)" stroke-width="3.55257" stroke-linecap="round" stroke-linejoin="round"/>
<path d="M905.914 690.906H1296.99" stroke="#00BFE6" stroke-width="3.55257" stroke-linecap="round" stroke-linejoin="round"/>
<path opacity="0.6" d="M906.35 2.47266L375.078 617.576" stroke="#C4F5F5" stroke-width="3.55257" stroke-miterlimit="10"/>
<path opacity="0.6" d="M1151.3 2L535.117 616.453" stroke="#C4F5F5" stroke-width="3.55257" stroke-miterlimit="10"/>
<path d="M626.136 2.47266L268.82 443.579" stroke="#C4F5F5" stroke-opacity="0.6" stroke-width="3.55257" stroke-miterlimit="10"/>
<path d="M1152.27 688.778V4.34375" stroke="#00BFE6" stroke-width="3.55257" stroke-linecap="round" stroke-linejoin="round"/>
<path opacity="0.4" d="M371.82 619.424V5.75781" stroke="#BEEDF5" stroke-width="3.55257" stroke-linecap="round" stroke-linejoin="round"/>
<path d="M2.71094 281.91H677.379H1296.99" stroke="url(#paint1_linear_379_78947)" stroke-width="3.55257" stroke-linecap="round" stroke-linejoin="round"/>
</g>
<g clip-path="url(#clip0_379_78947)">
<path d="M1387.8 515.374C1386.9 497.217 1373.62 482.059 1355.74 478.768L1351.72 478.029C1348.74 477.482 1346.51 475.018 1346.24 472.013L1345.11 459.096C1343.71 443.18 1330.82 430.721 1314.86 429.861L1303.26 429.237C1300.35 429.085 1297.95 431.472 1298.08 434.381L1298.5 443.129C1298.71 447.668 1295.46 451.634 1290.96 452.315L1290.73 452.347C1280.77 453.856 1273.46 462.489 1273.61 472.567C1273.64 474.604 1271.78 476.157 1269.77 475.82L1263.2 474.731C1259.8 474.171 1257.05 471.701 1256.11 468.391L1254.87 463.985C1253.65 459.65 1250.56 456.078 1246.45 454.232L1212 438.774L1191.37 471.249L1182.17 463.227L1170.44 467.066C1162.55 469.657 1156.61 476.234 1154.85 484.357L1152.2 496.606L1138.04 497.797L1134.01 483.008C1132 475.629 1126.52 469.689 1119.33 467.085L1113.99 465.15L1110.57 447.076C1108.47 435.941 1097.8 428.314 1086.66 430.428C1076.61 432.338 1069.57 441.359 1070.09 451.501L1070.26 454.919L1055.25 461.629L1055.03 459.083C1053.63 443.167 1040.74 430.708 1024.78 429.849L1013.18 429.225C1010.27 429.072 1007.87 431.459 1008 434.369L1008.42 443.116C1008.63 447.655 1005.38 451.622 1000.88 452.303L1000.65 452.335C993.397 453.436 987.55 458.313 984.964 464.774L981.703 464.698C975.289 464.552 969.793 460.07 968.366 453.818L965.615 441.792L957.048 445.287C953.895 446.573 951.086 448.464 948.736 450.794L921.921 438.762L897.438 477.291L864.267 433.789L823.905 465.15L820.485 447.076C818.383 435.941 807.708 428.308 796.575 430.428C786.518 432.338 779.479 441.359 780.002 451.501L780.174 473.789L768.168 478.252C767.671 478.437 766.588 478.927 766.098 479.124C764.295 479.837 762.244 478.895 761.69 477.011L756.531 459.579C756.028 457.88 754.365 456.797 752.608 457.027L723.978 460.706C722.175 460.936 720.831 462.47 720.831 464.284V475.693C720.831 477.978 718.736 479.672 716.5 479.22C715.717 479.061 714.927 478.946 714.124 478.863L698.915 477.354L695.214 460.324C692.953 449.915 683.036 443.014 672.482 444.504H672.47C662.75 445.873 654.559 452.767 651.999 462.241C651.706 463.317 651.489 464.412 651.336 465.538C650.795 469.549 651.305 473.636 652.604 477.469L655.476 485.943C657.585 492.162 655.126 499.019 649.54 502.482L636.541 510.548C627.006 516.463 619.63 525.554 616.688 536.377L616.191 538.815C615.694 541.234 613.547 542.953 611.076 542.909L603.51 542.775C598.484 542.686 594.44 546.818 594.574 551.841C595.988 603.434 617.382 621.934 627.21 627.728C629.948 629.345 633.318 629.453 636.165 628.033L648.827 621.743C650.247 621.037 651.929 621.998 652.043 623.577L656.546 685.693C656.629 686.846 657.578 687.737 658.731 687.756L685.546 688.233C686.769 688.252 687.775 687.272 687.775 686.043C687.775 684.127 686.807 682.332 685.202 681.281L678.953 677.181C678.24 676.717 677.858 675.889 677.966 675.042L683.125 633.776C683.457 631.121 687.335 631.197 687.558 633.865L691.832 684.942C691.928 686.082 692.87 686.96 694.01 686.986L719.137 687.431C720.366 687.45 721.385 686.476 721.405 685.241L721.443 683.198C721.468 681.708 720.895 680.275 719.844 679.219L715.538 674.883C715.08 674.425 714.851 673.782 714.901 673.139L717.386 642.173C717.608 639.429 721.627 639.448 721.831 642.192L725.08 686.903C725.162 688.055 726.111 688.946 727.264 688.965L755.098 689.22V689.462L819.587 690.608C819.803 690.608 820.02 690.583 820.224 690.532L844.013 684.178C844.822 683.962 845.446 683.331 845.656 682.523L849.057 669.287C849.649 666.982 852.923 666.97 853.528 669.268L856.987 682.351C857.248 683.35 858.146 684.051 859.178 684.07L886.126 684.547L908.215 684.942C909.457 684.961 910.495 684 910.565 682.758L912.38 649.367C912.52 646.814 916.087 646.343 916.883 648.768L929.01 685.598C929.252 686.343 929.858 686.909 930.615 687.107L941.297 689.933C941.475 689.978 941.66 690.01 941.844 690.01L966.678 690.449C967.952 690.474 969.009 689.456 969.028 688.182V688.1L975.595 688.214C976.786 688.233 977.818 687.317 977.863 686.12C977.933 684.191 976.984 682.376 975.379 681.32L968.844 677.035L968.831 677.003L972.837 658.057C973.608 654.409 975.888 651.321 978.958 649.526L981.92 684.929C982.015 686.069 982.958 686.947 984.098 686.973L992.085 687.113C992.499 687.597 993.104 687.915 993.798 687.928L1015.83 688.323C1016.22 688.704 1016.75 688.946 1017.35 688.959L1045.18 689.214V689.456L1109.67 690.602C1109.88 690.602 1110.1 690.576 1110.3 690.525L1134.09 684.172C1134.9 683.955 1135.53 683.325 1135.74 682.516L1139.14 669.281C1139.73 666.976 1143 666.963 1143.61 669.262L1147.07 682.344C1147.33 683.344 1148.23 684.044 1149.26 684.063L1176.21 684.541L1198.3 684.936C1199.54 684.955 1200.58 683.993 1200.65 682.752L1202.46 649.36C1202.6 646.808 1206.17 646.336 1206.96 648.762L1219.09 685.591C1219.33 686.336 1219.94 686.903 1220.7 687.1L1231.38 689.927C1231.56 689.971 1231.74 690.003 1231.93 690.003L1256.76 690.442C1258.03 690.468 1259.09 689.449 1259.11 688.176V687.686C1259.12 687.406 1259.08 687.126 1258.98 686.858L1257.84 683.707C1257.7 683.306 1257.66 682.867 1257.75 682.446L1262.91 658.05C1264.09 652.448 1268.82 648.144 1274.54 647.871C1281.01 647.552 1286.57 652.187 1287.5 658.496L1290.23 677.048C1290.37 678.003 1289.91 678.939 1289.06 679.403L1282.81 682.867C1282.09 683.268 1281.63 684.019 1281.62 684.846L1281.61 685.572C1281.58 686.846 1282.6 687.902 1283.87 687.921L1312.78 688.437C1314.02 688.456 1315.06 687.495 1315.13 686.253L1317.08 650.825C1317.15 649.583 1318.18 648.622 1319.43 648.641L1325.8 648.756C1326.93 648.775 1327.88 649.615 1328.04 650.742L1331.36 674.215C1331.48 675.055 1331.13 675.895 1330.44 676.405L1319.76 684.235C1319.26 684.605 1318.87 685.127 1318.76 685.738C1318.5 687.228 1319.67 688.52 1321.11 688.469L1355.12 687.31C1356.35 687.266 1357.33 686.273 1357.36 685.044L1357.98 650.131C1358 648.902 1358.99 647.903 1360.22 647.864L1391.97 646.839C1393.27 646.795 1394.27 645.706 1394.21 644.414L1387.81 515.361L1387.8 515.374Z" fill="#DAF8F7"/>
<path d="M1002.49 694.563C1213.55 694.563 1384.65 692.115 1384.65 689.095C1384.65 686.074 1213.55 683.626 1002.49 683.626C791.433 683.626 620.336 686.074 620.336 689.095C620.336 692.115 791.433 694.563 1002.49 694.563Z" fill="#DAF8F7"/>
<path d="M1040.51 261.671C1045.24 256.087 1047.72 248.664 1047.31 241.368C1046.95 235.078 1044.28 227.337 1039.37 223.091C1037.65 221.607 1035.95 220.086 1034.23 218.551C1032.06 212.879 1027.56 208.098 1021.97 205.698C1018.6 204.253 1014.95 203.571 1011.3 203.559L1011.32 203.546H1005.27H1005.29C1001.73 203.603 998.19 204.291 994.903 205.698C989.305 208.098 984.821 212.879 982.636 218.551C980.923 220.086 979.216 221.607 977.503 223.091C972.586 227.337 969.917 235.078 969.56 241.368C969.146 248.671 971.63 256.094 976.356 261.671C966.274 270.367 961.764 282.788 967.095 299.028H1049.77C1055.1 282.788 1050.6 270.367 1040.51 261.671Z" fill="#4D1F1F" stroke="#4D1F1F" stroke-width="2.54626" stroke-linecap="round" stroke-linejoin="round"/>
<path d="M998.308 712.001C1082.94 712.001 1151.55 710.368 1151.55 708.353C1151.55 706.338 1082.94 704.705 998.308 704.705C913.677 704.705 845.07 706.338 845.07 708.353C845.07 710.368 913.677 712.001 998.308 712.001Z" fill="#4D1F1F"/>
<path d="M1044.1 387.403L1051.71 402.154C1059.49 417.255 1064.45 433.648 1066.33 450.532L1074.48 523.503L1092.65 652.886H1068.3L1044.33 577.28C1041.09 567.03 1038.9 556.474 1037.81 545.779L1035.49 522.911L1011.7 452.098C1010.65 448.966 1006.21 448.966 1005.16 452.098L981.367 522.911L979.042 545.779C977.953 556.474 975.769 567.03 972.52 577.28L948.553 652.886H924.203L942.375 523.503L950.521 450.532C952.406 433.648 957.361 417.255 965.145 402.154L972.75 387.403H1044.11H1044.1Z" fill="#00BFE6"/>
<path d="M1066.34 450.527L1008.43 390.957L950.523 450.527" stroke="#4D1F1F" stroke-width="2.54626" stroke-linecap="round" stroke-linejoin="round"/>
<path d="M1092.65 652.88H1068.3L1044.33 577.273C1041.09 567.023 1038.9 556.468 1037.81 545.772L1035.49 522.904L1011.7 452.091C1010.65 448.959 1006.21 448.959 1005.16 452.091L981.367 522.904L979.042 545.772C977.953 556.468 975.769 567.023 972.52 577.273L948.553 652.88H924.203" stroke="#4D1F1F" stroke-width="2.54626" stroke-linecap="round" stroke-linejoin="round"/>
<path d="M1072.37 322.988L1069.96 312.121C1067.98 303.201 1060.32 296.682 1051.2 296.141L1029.92 294.874C1024.85 294.575 1020.9 290.386 1020.9 285.318V275.902L1008.43 279.149L995.962 275.902V285.318C995.962 290.386 992.014 294.575 986.95 294.874L967.849 296.141C958.728 296.682 951.072 303.208 949.091 312.121L947.225 322.988C947.225 322.988 931.576 341.508 928.429 364.904C921.57 365.019 910.513 367.832 904.698 370.589C901.927 371.907 899.22 373.569 896.246 374.052C893.271 374.536 889.844 373.511 888.328 370.57C887.08 368.144 887.392 365.025 886.265 362.523C885.258 360.282 883.036 358.958 880.838 358.932H876.711L883.615 387.727H933.588L935.244 386.072C948.021 373.339 958.307 358.334 965.588 341.832H1051.27L1070.24 366.483C1070.7 367.113 1070.79 367.934 1070.5 368.647L1069.3 371.499C1068.58 373.212 1066.41 373.74 1064.99 372.544L1060.42 368.692C1058.6 367.164 1056.14 366.642 1053.86 367.31L1044.81 369.959L1042.94 375.383V388.816C1042.94 390.248 1044.1 391.407 1045.53 391.407H1088.41C1101.32 357.232 1072.38 322.988 1072.38 322.988H1072.37Z" fill="#FFBB99"/>
<path d="M1051.82 380.015L1042.9 380.747" stroke="#4D1F1F" stroke-width="2.54626" stroke-linecap="round" stroke-linejoin="round"/>
<path d="M1051.82 373.846L1042.9 375.31" stroke="#4D1F1F" stroke-width="2.54626" stroke-linecap="round" stroke-linejoin="round"/>
<path d="M1051.82 367.676L1042.9 369.866" stroke="#4D1F1F" stroke-width="2.54626" stroke-linecap="round" stroke-linejoin="round"/>
<path d="M1042.91 371.377H973.93V387.407H1042.91V371.377Z" fill="#4D1F1F"/>
<path d="M1043.58 315.966H1039.23C1028.95 315.966 1018.99 319.499 1011.01 325.98L1008.43 328.075L1005.85 325.98C997.866 319.506 987.904 315.966 977.624 315.966H973.268L962.898 335.81C962.898 345.092 970.242 353.241 970.242 353.241L973.93 371.379H1042.92L1046.6 353.241C1046.6 353.241 1053.95 345.092 1053.95 335.81L1043.58 315.966H1043.58Z" fill="#FF5C4D"/>
<path d="M977.634 331.036C987.914 331.036 997.875 335.296 1005.86 343.101L1008.44 345.622L1011.02 343.101C1019 335.296 1028.96 331.036 1039.24 331.036H1051.47L1043.59 315.961H1039.24C1028.96 315.961 1019 319.494 1011.02 325.975L1008.44 328.07L1005.86 325.975C997.875 319.501 987.914 315.961 977.634 315.961H973.277L965.398 331.036H977.634Z" fill="#FF5C4D"/>
<path d="M1051.47 331.036H1039.24C1028.96 331.036 1019 335.295 1011.02 343.1L1008.44 345.621L1005.86 343.1C997.875 335.295 987.914 331.036 977.634 331.036H965.398" stroke="#4D1F1F" stroke-width="2.54626" stroke-linecap="round" stroke-linejoin="round"/>
<path d="M1008.44 328.073V320.809" stroke="#4D1F1F" stroke-width="2.54626" stroke-linecap="round" stroke-linejoin="round"/>
<path d="M1012.63 388.853L1008.44 390.947L1004.24 388.853C1001.06 387.261 999.055 384.014 999.055 380.468V369.072H1017.82V380.468C1017.82 384.02 1015.81 387.267 1012.63 388.853Z" fill="#FFE88C"/>
<path d="M1010.84 377.663C1012.13 377.663 1013.18 376.614 1013.18 375.32C1013.18 374.026 1012.13 372.978 1010.84 372.978C1009.54 372.978 1008.49 374.026 1008.49 375.32C1008.49 376.614 1009.54 377.663 1010.84 377.663Z" fill="#FF5C4D"/>
<path d="M1017.82 369.073V380.469C1017.82 384.021 1015.81 387.268 1012.63 388.853L1008.44 390.948L1004.24 388.853C1001.06 387.262 999.055 384.015 999.055 380.469V369.073" stroke="#4D1F1F" stroke-width="2.54626" stroke-linecap="round" stroke-linejoin="round"/>
<path d="M1010.21 196.786V186.899" stroke="#4D1F1F" stroke-width="2.54626" stroke-linecap="round" stroke-linejoin="round"/>
<path d="M1050.53 218.394L1055.79 214.18" stroke="#4D1F1F" stroke-width="2.54626" stroke-linecap="round" stroke-linejoin="round"/>
<path d="M1078.01 342.646C1071.96 343.143 1066.12 345.867 1061.83 350.152L1070.25 361.745C1070.71 362.375 1070.81 363.197 1070.51 363.91L1069.38 366.622C1071.41 361.968 1075.92 358.816 1081.04 358.734C1084.96 358.67 1088.77 360.516 1091.55 363.311C1090.99 356.283 1089.27 349.573 1087.08 343.544C1084.14 342.722 1081.06 342.398 1078.01 342.646H1078.01Z" fill="#FFE88C"/>
<path d="M1087.06 343.544C1084.13 342.722 1081.04 342.398 1078 342.646C1071.95 343.143 1066.11 345.867 1061.82 350.152" stroke="#FF5B4D" stroke-width="2.54626" stroke-linecap="round" stroke-linejoin="round"/>
<path d="M1069.35 365.891C1071.39 361.238 1075.89 358.086 1081.01 358.004C1084.94 357.94 1088.75 359.786 1091.52 362.581C1092.12 370.144 1091.36 378.083 1088.4 385.939H1044.05C1042.62 385.939 1041.46 384.78 1041.46 383.348" stroke="#4D1F1F" stroke-width="2.54626" stroke-linecap="round" stroke-linejoin="round"/>
<path d="M970.242 353.236C970.242 353.236 962.898 345.087 962.898 335.805L973.268 315.961L969.472 318.234" stroke="#4D1F1F" stroke-width="2.54626" stroke-linecap="round" stroke-linejoin="round"/>
<path d="M1070.23 362.48L1053.57 339.542" stroke="#4D1F1F" stroke-width="2.54626" stroke-linecap="round" stroke-linejoin="round"/>
<path d="M1046.6 353.234C1046.6 353.234 1053.95 345.085 1053.95 335.803L1043.58 315.959L1047.37 318.232" stroke="#4D1F1F" stroke-width="2.54626" stroke-linecap="round" stroke-linejoin="round"/>
<path d="M946.699 350.393C942.546 348.254 937.859 347.178 933.19 347.242C931.063 352.596 929.286 358.568 928.432 364.902C928.203 364.902 927.954 364.921 927.719 364.928C932.298 365.303 936.782 366.78 940.667 369.225C942.706 370.511 944.565 372.064 946.215 373.815C947.145 372.65 948.056 371.472 948.948 370.282C949.005 370.205 949.062 370.129 949.12 370.046C949.935 368.951 950.737 367.843 951.527 366.723C951.61 366.602 951.693 366.487 951.775 366.366C953.476 363.928 955.107 361.445 956.654 358.905C954.043 355.353 950.623 352.399 946.706 350.381L946.699 350.393Z" fill="#FFE88C"/>
<path d="M956.638 358.924C954.026 355.372 950.606 352.418 946.689 350.4C942.536 348.261 937.848 347.178 933.18 347.242" stroke="#FF5C4D" stroke-width="2.54626" stroke-linecap="round" stroke-linejoin="round"/>
<path d="M928.422 365.004C932.753 365.469 936.982 366.914 940.664 369.238C942.702 370.524 944.562 372.077 946.211 373.828" stroke="#4D1F1F" stroke-width="2.54626" stroke-linecap="round" stroke-linejoin="round"/>
<path d="M1051.72 402.158L1049.18 331.046H1027.29V400.165C1027.29 422.409 1033.82 442.406 1048.75 452.357L1067.98 465.172L1066.35 450.542C1064.47 433.659 1059.51 417.265 1051.73 402.164L1051.72 402.158Z" fill="#4D1F1F" stroke="#4D1F1F" stroke-width="2.54626" stroke-linecap="round" stroke-linejoin="round"/>
<path d="M1027.31 331.035L1039.5 400.154C1043.43 422.398 1056.23 442.395 1072.91 452.346L1094.79 465.39H1102.09L1101.23 460.526L1112.07 452.339C1125.25 442.389 1130.99 422.392 1127.07 400.148L1114.88 331.028H1027.31V331.035Z" fill="#FF5C4D" stroke="#FF5B4D" stroke-width="2.54626" stroke-linecap="round" stroke-linejoin="round"/>
<path d="M1102.1 465.389L1080.21 452.344C1063.53 442.393 1050.73 422.397 1046.81 400.153L1034.62 331.033H1122.18L1134.37 400.153C1138.3 422.397 1132.55 442.393 1119.38 452.344L1102.1 465.389Z" fill="#FFE88C" stroke="#FFE680" stroke-width="2.54626" stroke-linecap="round" stroke-linejoin="round"/>
<path d="M1050.06 347.707L1059.32 400.153C1062.12 416.043 1071.27 430.323 1083.18 437.434L1098.81 446.755L1111.16 437.434C1120.56 430.33 1124.67 416.043 1121.87 400.153L1112.61 347.707H1050.07H1050.06Z" stroke="#FF5B4D" stroke-width="2.54626" stroke-linecap="round" stroke-linejoin="round"/>
<path d="M1092.01 372.714C1091.19 368.112 1093.34 364.381 1096.79 364.381C1100.24 364.381 1103.7 368.112 1104.52 372.714C1105.33 377.317 1103.19 381.048 1099.73 381.048C1096.28 381.048 1092.82 377.317 1092.01 372.714Z" fill="#FF5C4D" stroke="#FF5B4D" stroke-width="2.54626" stroke-linecap="round" stroke-linejoin="round"/>
<path d="M1001.12 449.742H1015.72" stroke="#4D1F1F" stroke-width="2.54626" stroke-linecap="round" stroke-linejoin="round"/>
<path d="M974.187 571.749H924.176V667.575C924.176 673.693 921.316 679.454 916.444 683.153L891.508 702.087C891.508 705.544 894.31 708.345 897.769 708.345H947.303V677.888C947.303 675.023 947.672 672.165 948.404 669.396L974.181 571.742L974.187 571.749Z" fill="#4D1F1F" stroke="#4D1F1F" stroke-width="2.54626" stroke-linecap="round" stroke-linejoin="round"/>
<path d="M1102.05 465.392L1119.33 452.347C1132.51 442.396 1138.25 422.4 1134.33 400.156L1122.14 331.036" stroke="#FF5B4D" stroke-width="2.54626" stroke-linecap="round" stroke-linejoin="round"/>
<path d="M1042.69 571.749H1092.7V667.575C1092.7 673.693 1095.56 679.454 1100.43 683.153L1125.37 702.087C1125.37 705.544 1122.56 708.345 1119.11 708.345H1069.57V677.888C1069.57 675.023 1069.2 672.165 1068.47 669.396L1042.69 571.742L1042.69 571.749Z" fill="#4D1F1F" stroke="#4D1F1F" stroke-width="2.54626" stroke-linecap="round" stroke-linejoin="round"/>
<path d="M1027.29 331.036L1039.48 400.156C1043.4 422.4 1056.21 442.396 1072.89 452.347L1094.77 465.392H1102.07L1119.35 452.347" stroke="#4D1F1F" stroke-width="2.54626" stroke-linecap="round" stroke-linejoin="round"/>
<path d="M927.117 652.884L935.595 571.751L969.473 589.551" stroke="#FF5B4D" stroke-width="2.54626" stroke-linecap="round" stroke-linejoin="round"/>
<path d="M1089.74 652.885L1081.27 571.752L1047.39 589.552" stroke="#FF5B4D" stroke-width="2.54626" stroke-linecap="round" stroke-linejoin="round"/>
<path d="M1088.4 320.046L1093.56 314.922" stroke="#FF5B4D" stroke-width="2.54626" stroke-linecap="round" stroke-linejoin="round"/>
<path d="M963.773 347.04C956.467 361.95 946.207 375.007 933.583 387.734H881.094" stroke="#4D1F1F" stroke-width="2.54626" stroke-linecap="round" stroke-linejoin="round"/>
<path d="M856.541 365.899L864.05 383.661C864.668 385.126 866.382 385.781 867.821 385.113L875.349 381.599C876.725 380.956 877.343 379.332 876.732 377.938L869.471 361.316C868.897 360.01 867.439 359.342 866.076 359.756L858.305 362.137C856.713 362.621 855.898 364.378 856.541 365.906V365.899Z" fill="#FFBB99"/>
<path d="M864.039 383.648C864.657 385.112 866.37 385.768 867.81 385.099L875.338 381.585C876.714 380.942 877.332 379.319 876.72 377.924L871.122 361.302" stroke="#4D1F1F" stroke-width="2.54626" stroke-linecap="round" stroke-linejoin="round"/>
<path d="M858.578 370.735L871.54 366.062" stroke="#4D1F1F" stroke-width="2.54626" stroke-linecap="round" stroke-linejoin="round"/>
<path d="M861.875 378.526L874.894 372.49" stroke="#4D1F1F" stroke-width="2.54626" stroke-linecap="round" stroke-linejoin="round"/>
<path d="M846.531 163.851L894.256 709.103C894.396 710.695 897.613 711.72 901.441 711.382C905.269 711.045 908.262 709.485 908.122 707.887L860.397 162.635L846.531 163.844V163.851Z" fill="#FF5C4D" stroke="#FF5C4D" stroke-width="2.54626" stroke-linecap="round" stroke-linejoin="round"/>
<path d="M864.96 214.884L851.094 216.1L857.922 294.094L871.265 286.97L864.96 214.884Z" fill="#4D1F1F" stroke="#4D1F1F" stroke-width="2.54626" stroke-linecap="round" stroke-linejoin="round"/>
<path d="M875.577 336.154L861.711 337.364L868.552 415.485L881.895 408.349L875.577 336.154Z" fill="#4D1F1F" stroke="#4D1F1F" stroke-width="2.54626" stroke-linecap="round" stroke-linejoin="round"/>
<path d="M872.328 458.631L879.162 536.74L892.512 529.603L886.194 457.415L872.328 458.631Z" fill="#4D1F1F" stroke="#4D1F1F" stroke-width="2.54626" stroke-linecap="round" stroke-linejoin="round"/>
<path d="M860.397 162.635L846.531 163.844L894.256 709.097C894.396 710.688 897.613 711.713 901.441 711.376L992.82 710.733" stroke="#4D1F1F" stroke-width="2.54626" stroke-linecap="round" stroke-linejoin="round"/>
<path d="M852.192 163.294C860.198 163.294 866.688 156.807 866.688 148.804C866.688 140.802 860.198 134.314 852.192 134.314C844.186 134.314 837.695 140.802 837.695 148.804C837.695 156.807 844.186 163.294 852.192 163.294Z" fill="#FFE88C" stroke="#FF5C4D" stroke-width="2.54626" stroke-linecap="round" stroke-linejoin="round"/>
<path d="M851.554 147.089C854.755 147.089 857.35 144.495 857.35 141.295C857.35 138.096 854.755 135.502 851.554 135.502C848.353 135.502 845.758 138.096 845.758 141.295C845.758 144.495 848.353 147.089 851.554 147.089Z" fill="#FBFCF9"/>
<path d="M852.853 156.309C847.789 156.755 843.242 153.693 841.567 149.147C841.395 150.089 841.337 151.07 841.42 152.069C841.949 158.13 847.293 162.612 853.356 162.083C859.42 161.555 863.904 156.214 863.375 150.153C863.286 149.153 863.057 148.198 862.725 147.301C861.865 152.069 857.917 155.87 852.853 156.309Z" fill="#FF5C4D"/>
<path d="M909.058 175.508L793.516 185.612L794.526 197.161L910.069 187.057L909.058 175.508Z" fill="#FF5C4D" stroke="#FF5C4D" stroke-width="2.54626" stroke-linecap="round" stroke-linejoin="round"/>
<path d="M793.625 186.776L794.536 197.166L910.081 187.062L909.068 175.514" stroke="#4D1F1F" stroke-width="2.54626" stroke-linecap="round" stroke-linejoin="round"/>
<path d="M793.53 185.61L781.466 180.848L765.148 193.911L783.492 203.945L794.536 197.158L793.53 185.61Z" fill="#FFE88C" stroke="#FF5C4D" stroke-width="2.54626" stroke-linecap="round" stroke-linejoin="round"/>
<path d="M795.765 191.236L783.613 198.704L772.556 193.267L765.148 193.917L795.765 191.236Z" fill="#FF5C4D" stroke="#FF5C4D" stroke-width="2.54626" stroke-linecap="round" stroke-linejoin="round"/>
<path d="M793.53 185.616L794.536 197.165L783.492 203.951L765.148 193.918" stroke="#4D1F1F" stroke-width="2.54626" stroke-linecap="round" stroke-linejoin="round"/>
<path d="M909.078 175.507L920.129 168.721L938.466 178.754L922.148 191.824L910.091 187.056L909.078 175.507Z" fill="#FFE88C" stroke="#FF5C4D" stroke-width="2.54626" stroke-linecap="round" stroke-linejoin="round"/>
<path d="M907.836 181.439L921.103 186.679L931.052 179.408L938.453 178.759L907.836 181.439Z" fill="#FF5C4D" stroke="#FF5C4D" stroke-width="2.54626" stroke-linecap="round" stroke-linejoin="round"/>
<path d="M909.078 175.514L910.091 187.062L922.148 191.831L938.466 178.761" stroke="#4D1F1F" stroke-width="2.54626" stroke-linecap="round" stroke-linejoin="round"/>
<path d="M903.633 251.309L851.501 279.143L799.648 260.4L800.113 182.387L817.444 180.872L817.329 200.671L886.653 194.604L886.774 174.811L904.104 173.296L903.633 251.309Z" fill="#FBFCF9" stroke="#C4F5F5" stroke-width="2.54626" stroke-linecap="round" stroke-linejoin="round"/>
<path d="M819.26 243.398C817.401 240.903 816.299 236.542 816.337 230.927C816.369 225.649 817.362 221.447 819.343 218.321C821.324 215.214 823.884 213.515 827.018 213.241C828.731 213.088 830.133 213.47 831.209 214.355L831.177 219.766C830.082 218.499 828.84 217.926 827.489 218.041C825.617 218.207 824.12 219.359 823.025 221.523C821.904 223.688 821.35 226.648 821.324 230.443C821.299 234.74 821.936 238.006 822.936 239.731C823.942 241.482 825.197 242.259 826.623 242.138C826.846 242.119 827.139 242.049 827.502 241.921L827.566 231.054L826.955 231.105C825.942 231.194 825.056 231.404 824.311 231.767L824.814 226.884L832.012 226.254L831.903 243.946C830.496 245.639 828.642 246.594 826.337 246.798C823.541 247.04 821.108 245.894 819.254 243.392L819.26 243.398Z" fill="#00BFE6"/>
<path d="M834.672 245.622C835.392 242.445 835.774 238.479 835.806 233.748L835.857 224.721C835.882 219.965 835.545 216.069 834.869 213.013L840.646 212.51C844.054 212.211 846.71 213.389 848.589 216.018C850.468 218.673 851.391 222.588 851.359 227.777C851.328 232.985 850.353 237.116 848.442 240.121C846.532 243.152 843.856 244.82 840.449 245.119L834.672 245.622ZM840.366 240.554L840.933 240.503C842.557 240.363 843.895 239.268 844.92 237.225C845.946 235.181 846.487 232.176 846.506 228.197C846.531 224.173 845.965 221.086 844.933 219.354C843.907 217.648 842.576 216.903 841.022 217.037L840.506 217.081L840.366 240.548V240.554Z" fill="#00BFE6"/>
<path d="M853.156 244.003C853.5 242.538 853.787 240.699 854.003 238.496C854.22 236.293 854.322 234.173 854.335 232.123L854.386 223.096C854.398 221.052 854.322 218.945 854.131 216.755C853.94 214.59 853.679 212.795 853.354 211.388L859.85 210.821C862.742 210.567 864.99 211.42 866.602 213.342C868.213 215.29 869.009 218.041 868.99 221.612C868.971 225.088 868.411 227.87 867.296 229.946C866.181 232.047 864.837 233.161 863.328 233.295C860.914 233.505 859.5 231.9 859.341 228.482L858.914 228.52L858.895 231.728C858.882 233.727 858.984 235.809 859.175 237.98C859.366 240.17 859.602 241.965 859.908 243.417L853.163 244.009L853.156 244.003ZM864.143 221.765C864.156 219.741 863.761 218.162 862.952 216.984C862.15 215.806 861.156 215.278 860.01 215.38C859.494 215.424 859.105 215.73 858.991 215.742L858.94 223.949C858.978 225.267 859.22 226.4 859.666 227.342C860.086 228.284 860.672 228.73 861.417 228.666C863.111 228.52 864.118 226.113 864.143 221.771V221.765Z" fill="#00BFE6"/>
<path d="M880.386 239.261C879.832 237.51 879.641 235.301 879.52 233.155C879.335 230.01 879.017 227.222 876.711 227.425C876.214 227.47 875.896 227.54 875.736 227.648L875.711 231.379C875.686 236.198 875.864 239.732 876.278 241.992L870.367 242.507C870.533 241.381 870.673 240.095 870.749 238.656C870.826 237.217 870.877 235.988 870.909 234.957C870.934 233.932 870.947 232.429 870.959 230.405L871.01 221.925C871.049 215.788 870.89 211.777 870.565 209.893L876.431 209.377C882.233 208.868 885.711 211.382 885.679 216.864C885.647 221.868 882.972 224.599 878.437 225L878.322 225.013V225.331L878.883 225.28C881.074 225.089 882.603 225.885 883.246 227.171C883.889 228.476 884.195 230.157 884.278 231.786C884.354 234.187 884.43 236.294 885.787 236.179C886.329 236.135 886.806 235.772 887.195 235.122L887.207 240.375C886.685 241.304 885.755 241.82 884.424 241.934C882.278 242.119 880.908 241.011 880.38 239.267L880.386 239.261ZM875.768 223.185L876.265 223.141C879.087 222.893 880.857 221.123 880.876 217.94C880.896 215.005 879.119 213.706 876.323 213.954L875.826 213.999L875.768 223.185Z" fill="#00BFE6"/>
<path d="M919.683 296.774L804.141 306.878L805.151 318.427L920.694 308.323L919.683 296.774Z" fill="#FF5C4D" stroke="#FF5C4D" stroke-width="2.54626" stroke-linecap="round" stroke-linejoin="round"/>
<path d="M804.141 306.879L805.153 318.427L920.692 308.324L919.679 296.775" stroke="#4D1F1F" stroke-width="2.54626" stroke-linecap="round" stroke-linejoin="round"/>
<path d="M914.427 372.554L862.435 400.375L810.442 381.645L810.43 303.676L827.76 302.161V321.948L897.09 315.88L897.083 296.1L914.414 294.585L914.427 372.554Z" fill="#FBFCF9" stroke="#C4F5F5" stroke-width="2.54626" stroke-linecap="round" stroke-linejoin="round"/>
<path d="M799.743 303.192L799.737 303.192C797.505 303.388 795.854 305.355 796.049 307.586L797.06 319.141C797.256 321.372 799.223 323.023 801.456 322.828L801.462 322.827C803.694 322.632 805.346 320.665 805.15 318.434L804.139 306.878C803.944 304.647 801.976 302.997 799.743 303.192Z" fill="#FFE88C" stroke="#FF5C4D" stroke-width="2.54626" stroke-linecap="round" stroke-linejoin="round"/>
<path d="M796.469 312.206C796.666 314.44 798.634 316.089 800.864 315.892C803.099 315.694 804.749 313.727 804.551 311.499L804.755 313.81C804.953 316.045 803.297 318.012 801.067 318.203C798.832 318.4 796.864 316.745 796.673 314.517L796.469 312.206Z" stroke="#FF5C4D" stroke-width="2.54626" stroke-linecap="round" stroke-linejoin="round"/>
<path d="M797.062 319.133C797.26 321.368 799.228 323.017 801.457 322.819C803.693 322.622 805.342 320.655 805.145 318.426L804.132 306.878" stroke="#4D1F1F" stroke-width="2.54626" stroke-linecap="round" stroke-linejoin="round"/>
<path d="M925.085 312.02L925.091 312.019C927.323 311.824 928.974 309.857 928.779 307.626L927.768 296.071C927.572 293.84 925.605 292.189 923.372 292.384L923.366 292.385C921.134 292.58 919.483 294.547 919.678 296.778L920.689 308.334C920.885 310.565 922.852 312.215 925.085 312.02Z" fill="#FFE88C" stroke="#FF5C4D" stroke-width="2.54626" stroke-linecap="round" stroke-linejoin="round"/>
<path d="M928.184 300.686C928.382 302.92 926.726 304.887 924.496 305.078C922.261 305.276 920.293 303.62 920.102 301.392L920.305 303.703C920.503 305.938 922.471 307.587 924.7 307.389C926.936 307.192 928.585 305.225 928.388 302.997L928.184 300.686Z" stroke="#FF5C4D" stroke-width="2.54626" stroke-linecap="round" stroke-linejoin="round"/>
<path d="M928.775 307.617C928.972 309.852 927.316 311.819 925.087 312.01C922.852 312.207 920.884 310.552 920.692 308.324L919.68 296.775" stroke="#4D1F1F" stroke-width="2.54626" stroke-linecap="round" stroke-linejoin="round"/>
<path d="M866.635 147.546C867.335 155.517 861.431 162.545 853.457 163.245C845.482 163.946 838.451 158.044 837.75 150.073" stroke="#4D1F1F" stroke-width="2.54626" stroke-linecap="round" stroke-linejoin="round"/>
<path d="M821.912 369.067C822.524 366.291 822.843 362.822 822.836 358.683V350.789C822.836 346.632 822.518 343.22 821.906 340.552L826.957 340.113C829.938 339.852 832.269 340.883 833.925 343.181C835.581 345.505 836.415 348.93 836.415 353.463C836.415 358.015 835.587 361.631 833.931 364.26C832.275 366.909 829.944 368.367 826.963 368.628L821.912 369.067ZM826.868 364.636L827.365 364.591C828.785 364.464 829.95 363.509 830.842 361.72C831.728 359.931 832.186 357.308 832.186 353.826C832.186 350.305 831.67 347.606 830.766 346.097C829.855 344.607 828.696 343.952 827.333 344.073L826.881 344.111V364.63L826.868 364.636Z" fill="#00BFE6"/>
<path d="M838.07 367.648C838.682 364.873 839 361.403 839 357.265V349.371C839 345.213 838.682 341.801 838.07 339.134L843.44 338.662L845.911 345.131C846.446 346.378 846.777 347.798 846.955 349.396L847.229 349.371C847.331 348.428 847.682 346.945 848.293 344.921L850.758 338.026L856.127 337.555C855.853 338.853 855.637 340.464 855.458 342.406C855.28 344.348 855.204 346.187 855.204 347.957V355.852C855.204 357.621 855.286 359.442 855.465 361.339C855.643 363.23 855.86 364.803 856.133 366.076L850.267 366.592C850.541 365.274 850.758 363.663 850.936 361.74C851.115 359.818 851.191 357.978 851.191 356.208V348.912L850.955 348.931L847.643 359.901L846.599 359.99L843.28 349.6L843.026 349.625V356.921C843.026 360.976 843.325 364.389 843.917 367.145L838.077 367.655L838.07 367.648Z" fill="#00BFE6"/>
<path d="M857.359 365.964C857.875 364.685 858.385 363.074 858.882 361.12C859.372 359.184 859.786 357.281 860.105 355.422L861.646 347.394C862.378 343.058 862.652 339.589 862.493 336.997L869.697 336.367C869.62 337.647 869.658 339.232 869.837 341.148C869.996 343.065 870.232 344.873 870.55 346.617L872.072 354.378C872.786 358.433 873.709 361.788 874.837 364.436L868.932 364.952C869.028 362.654 868.856 360.005 868.397 357.026L868.2 355.893L863.996 356.262L863.799 357.472C863.365 360.833 863.187 363.494 863.27 365.455L857.366 365.971L857.359 365.964ZM864.544 352.824L867.62 352.557L866.888 348.883C866.767 348.196 866.55 346.267 866.232 343.116L865.913 343.141C865.875 343.542 865.818 344.166 865.754 344.987C865.697 345.828 865.614 346.553 865.557 347.171C865.499 347.795 865.397 348.4 865.302 349.023L864.531 352.831L864.544 352.824Z" fill="#00BFE6"/>
<path d="M884.525 361.519C884.028 359.991 883.856 358.055 883.735 356.177C883.557 353.427 883.257 350.989 881.245 351.167C880.812 351.205 880.531 351.269 880.398 351.358V354.618C880.398 358.832 880.576 361.92 880.952 363.893L875.78 364.345C875.92 363.359 876.035 362.238 876.092 360.978C876.149 359.717 876.194 358.641 876.213 357.744C876.232 356.846 876.232 355.534 876.232 353.765V346.348C876.232 340.981 876.073 337.473 875.773 335.831L880.907 335.379C885.983 334.933 889.041 337.136 889.041 341.923C889.041 346.297 886.709 348.691 882.741 349.034H882.646V349.321L883.136 349.276C885.053 349.111 886.391 349.805 886.964 350.932C887.537 352.077 887.811 353.542 887.894 354.968C887.977 357.069 888.053 358.909 889.238 358.807C889.709 358.769 890.123 358.45 890.461 357.884L890.499 362.474C890.047 363.289 889.238 363.741 888.073 363.843C886.2 364.008 884.996 363.04 884.518 361.506L884.525 361.519ZM880.398 347.462L880.831 347.424C883.295 347.207 884.837 345.66 884.837 342.878C884.837 340.312 883.276 339.179 880.831 339.389L880.398 339.428V347.462Z" fill="#00BFE6"/>
<path d="M894.109 359.466C892.67 357.149 891.938 353.552 891.938 348.72C891.938 343.786 892.823 339.794 894.326 337.337C895.804 334.88 897.74 333.517 900.033 333.32C901.294 333.212 902.281 333.441 903.014 334.033V339.241C902.243 338.337 901.377 337.91 900.39 337.999C897.644 338.241 896.262 341.679 896.262 348.3C896.262 354.902 897.702 358.079 900.587 357.824C901.676 357.728 902.619 357.251 903.428 356.385V361.198C902.383 362.045 901.179 362.529 899.778 362.65C897.428 362.853 895.555 361.784 894.109 359.466Z" fill="#00BFE6"/>
<path d="M930.301 418.035L814.758 428.139L815.769 439.688L931.311 429.584L930.301 418.035Z" fill="#FF5C4D" stroke="#FF5C4D" stroke-width="2.54626" stroke-linecap="round" stroke-linejoin="round"/>
<path d="M814.758 428.14L815.771 439.688L931.315 429.585L930.303 418.036" stroke="#4D1F1F" stroke-width="2.54626" stroke-linecap="round" stroke-linejoin="round"/>
<path d="M925.016 493.814L873.017 521.642L821.031 502.912L821.057 424.937L838.387 423.422L838.381 443.208L907.704 437.148L907.71 417.361L925.041 415.846L925.016 493.814Z" fill="#FBFCF9" stroke="#C4F5F5" stroke-width="2.54626" stroke-linecap="round" stroke-linejoin="round"/>
<path d="M810.353 424.453L810.347 424.453C808.114 424.648 806.463 426.615 806.658 428.847L807.67 440.402C807.865 442.633 809.833 444.284 812.065 444.088L812.072 444.088C814.304 443.893 815.955 441.926 815.76 439.694L814.748 428.139C814.553 425.908 812.585 424.257 810.353 424.453Z" fill="#FFE88C" stroke="#FF5C4D" stroke-width="2.54626" stroke-linecap="round" stroke-linejoin="round"/>
<path d="M807.062 433.466C807.26 435.701 809.228 437.35 811.457 437.153C813.693 436.955 815.342 434.988 815.145 432.76L815.349 435.071C815.546 437.305 813.89 439.273 811.661 439.464C809.425 439.661 807.457 438.006 807.266 435.777L807.062 433.466Z" stroke="#FF5C4D" stroke-width="2.54626" stroke-linecap="round" stroke-linejoin="round"/>
<path d="M807.672 440.394C807.869 442.628 809.837 444.277 812.067 444.08C814.302 443.883 815.952 441.915 815.754 439.687L814.742 428.139" stroke="#4D1F1F" stroke-width="2.54626" stroke-linecap="round" stroke-linejoin="round"/>
<path d="M935.694 433.276L935.7 433.275C937.933 433.08 939.584 431.113 939.389 428.882L938.377 417.327C938.182 415.095 936.214 413.445 933.982 413.64L933.975 413.641C931.743 413.836 930.092 415.803 930.287 418.034L931.299 429.589C931.494 431.821 933.462 433.471 935.694 433.276Z" fill="#FFE88C" stroke="#FF5C4D" stroke-width="2.54626" stroke-linecap="round" stroke-linejoin="round"/>
<path d="M938.801 421.951C938.999 424.186 937.343 426.153 935.114 426.344C932.878 426.541 930.91 424.886 930.719 422.658L930.923 424.969C931.12 427.203 933.088 428.852 935.317 428.655C937.553 428.458 939.203 426.49 939.005 424.262L938.801 421.951Z" stroke="#FF5C4D" stroke-width="2.54626" stroke-linecap="round" stroke-linejoin="round"/>
<path d="M939.4 428.878C939.597 431.113 937.941 433.08 935.712 433.271C933.477 433.468 931.508 431.813 931.317 429.585L930.305 418.036" stroke="#4D1F1F" stroke-width="2.54626" stroke-linecap="round" stroke-linejoin="round"/>
<path d="M838.32 489.827C839.021 486.65 839.384 482.691 839.384 477.96V468.933C839.384 464.184 839.027 460.281 838.327 457.225L844.104 456.722C847.511 456.423 850.174 457.601 852.072 460.23C853.963 462.885 854.912 466.8 854.912 471.982C854.912 477.19 853.963 481.315 852.065 484.327C850.167 487.357 847.505 489.019 844.097 489.318L838.32 489.821V489.827ZM843.983 484.76L844.543 484.709C846.167 484.569 847.498 483.474 848.517 481.43C849.53 479.386 850.053 476.388 850.053 472.409C850.053 468.385 849.467 465.298 848.428 463.572C847.39 461.866 846.059 461.121 844.499 461.255L843.983 461.3V484.76Z" fill="#00BFE6"/>
<path d="M867.703 484.395C867.072 482.498 866.798 480.085 866.69 477.736C866.511 474.272 866.218 471.229 864.142 471.414C863.352 471.484 862.811 471.758 862.473 472.216V475.947C862.473 478.016 862.563 480.123 862.76 482.262C862.964 484.427 863.212 486.222 863.55 487.623L856.805 488.215C857.505 485.038 857.868 481.078 857.868 476.348V467.32C857.868 462.571 857.512 458.669 856.817 455.613L863.563 455.021C862.836 458.127 862.48 461.642 862.473 465.551V467.594L863.442 467.511C864.454 467.422 865.295 466.919 866.059 465.78C866.824 464.647 867.282 462.469 867.282 459.534C867.282 457.873 867.034 456.281 866.518 454.76L871.55 454.32C871.932 455.581 872.136 457.179 872.136 459.108C872.136 463.742 869.919 468.53 865.25 468.937L865.072 468.95V469.313L866.269 469.211C868.55 469.014 870.104 469.918 870.76 471.388C871.416 472.853 871.683 474.737 871.753 476.552C871.842 479.251 871.913 481.632 873.492 481.492C874.008 481.447 874.486 481.084 874.913 480.435L874.957 485.77C874.435 486.68 873.511 487.19 872.206 487.304C869.881 487.508 868.346 486.279 867.715 484.376L867.703 484.395Z" fill="#00BFE6"/>
<path d="M877.266 486.424C877.966 483.247 878.329 479.287 878.329 474.557V465.529C878.329 460.78 877.973 456.877 877.272 453.822L884.023 453.229C883.323 456.406 882.96 460.366 882.96 465.122V474.149C882.96 478.88 883.316 482.776 884.017 485.832L877.266 486.424Z" fill="#00BFE6"/>
<path d="M887.131 485.557C887.832 482.38 888.195 478.42 888.195 473.69V464.662C888.195 459.913 887.838 456.01 887.144 452.954L893.284 452.42L896.099 459.811C896.711 461.237 897.093 462.861 897.297 464.688L897.615 464.662C897.73 463.586 898.138 461.886 898.838 459.575L901.66 451.694L907.8 451.159C907.481 452.643 907.233 454.482 907.029 456.704C906.825 458.926 906.736 461.027 906.73 463.052V472.079C906.73 474.103 906.819 476.185 907.016 478.35C907.22 480.514 907.468 482.31 907.78 483.761L901.08 484.347C901.398 482.845 901.647 481.005 901.851 478.802C902.055 476.599 902.144 474.505 902.144 472.48V464.14L901.876 464.166L898.08 476.701L896.883 476.803L893.093 464.93L892.8 464.955V473.295C892.8 477.93 893.131 481.832 893.806 484.984L887.125 485.569L887.131 485.557Z" fill="#00BFE6"/>
<path d="M903.633 251.306L851.501 279.139L799.648 260.397" stroke="#00BFE6" stroke-width="2.54626" stroke-linecap="round" stroke-linejoin="round"/>
<path d="M914.422 372.557L862.43 400.378L810.438 381.648" stroke="#00BFE6" stroke-width="2.54626" stroke-linecap="round" stroke-linejoin="round"/>
<path d="M925.016 493.813L873.017 521.641L821.031 502.911" stroke="#00BFE6" stroke-width="2.54626" stroke-linecap="round" stroke-linejoin="round"/>
<path d="M815.264 139.843L808.945 133.12" stroke="#FF5C4D" stroke-width="2.54626" stroke-linecap="round" stroke-linejoin="round"/>
<path d="M889.133 137.45L895.846 128.785" stroke="#FF5C4D" stroke-width="2.54626" stroke-linecap="round" stroke-linejoin="round"/>
<path d="M1225.33 213.598L1189.57 622.114C1189.47 623.311 1187.06 624.075 1184.19 623.82C1181.32 623.572 1179.08 622.4 1179.18 621.203L1214.94 212.688L1225.33 213.598Z" fill="url(#paint2_linear_379_78947)" stroke="url(#paint3_linear_379_78947)" stroke-width="2.54626" stroke-linecap="round" stroke-linejoin="round"/>
<path d="M1211.52 251.846L1221.91 252.75L1216.8 311.193L1206.8 305.851L1211.52 251.846Z" fill="#00BFE6" stroke="#00BFE6" stroke-width="2.54626" stroke-linecap="round" stroke-linejoin="round"/>
<path d="M1203.57 342.697L1213.96 343.601L1208.84 402.133L1198.84 396.786L1203.57 342.697Z" fill="#00BFE6" stroke="#00BFE6" stroke-width="2.54626" stroke-linecap="round" stroke-linejoin="round"/>
<path d="M1214.95 212.688L1225.34 213.598L1198.84 516.369" stroke="#00BFE6" stroke-width="2.54626" stroke-linecap="round" stroke-linejoin="round"/>
<path d="M1221.09 213.19C1227.09 213.19 1231.95 208.33 1231.95 202.335C1231.95 196.34 1227.09 191.48 1221.09 191.48C1215.1 191.48 1210.23 196.34 1210.23 202.335C1210.23 208.33 1215.1 213.19 1221.09 213.19Z" fill="#C4F5F5" stroke="#C4F5F5" stroke-width="2.54626" stroke-linecap="round" stroke-linejoin="round"/>
<path d="M1221.56 201.047C1223.96 201.047 1225.91 199.103 1225.91 196.705C1225.91 194.307 1223.96 192.363 1221.56 192.363C1219.16 192.363 1217.22 194.307 1217.22 196.705C1217.22 199.103 1219.16 201.047 1221.56 201.047Z" fill="#C4F5F5" stroke="#C4F5F5" stroke-width="0.636565" stroke-miterlimit="10"/>
<path d="M1177.73 230.987L1264.3 238.557L1265.05 229.906L1178.49 222.336L1177.73 230.987Z" fill="#C4F5F5" stroke="#C4F5F5" stroke-width="2.54626" stroke-linecap="round" stroke-linejoin="round"/>
<path d="M1264.97 230.781L1264.29 238.567L1177.73 230.998L1178.48 222.346" stroke="#00BFE6" stroke-width="2.54626" stroke-linecap="round" stroke-linejoin="round"/>
<path d="M1265.05 229.915L1274.08 226.344L1286.31 236.135L1272.57 243.647L1264.29 238.567L1265.05 229.915Z" fill="#C4F5F5" stroke="#C4F5F5" stroke-width="2.54626" stroke-linecap="round" stroke-linejoin="round"/>
<path d="M1265.05 229.911L1264.29 238.563L1272.57 243.643L1286.31 236.131" stroke="#00BFE6" stroke-width="2.54626" stroke-linecap="round" stroke-linejoin="round"/>
<path d="M1178.48 222.346L1170.2 217.26L1156.46 224.778L1168.69 234.564L1177.72 230.998L1178.48 222.346Z" fill="#C4F5F5" stroke="#C4F5F5" stroke-width="2.54626" stroke-linecap="round" stroke-linejoin="round"/>
<path d="M1178.48 222.344L1177.72 230.996L1168.69 234.561L1156.46 224.776" stroke="#00BFE6" stroke-width="2.54626" stroke-linecap="round" stroke-linejoin="round"/>
<path d="M1182.55 279.131L1221.62 299.981L1260.46 285.943L1260.11 227.494L1247.13 226.36L1247.22 241.188L1195.28 236.648L1195.19 221.815L1182.2 220.682L1182.55 279.131Z" fill="#C4F5F5" stroke="#C4F5F5" stroke-width="2.54626" stroke-linecap="round" stroke-linejoin="round"/>
<path d="M1204.14 272.332L1204.17 268.334C1204.71 269.002 1205.34 269.543 1206.08 269.957C1206.8 270.39 1207.45 270.625 1208.05 270.683C1208.77 270.746 1209.38 270.549 1209.87 270.103C1210.36 269.658 1210.6 269.028 1210.6 268.238C1210.62 266.965 1209.87 265.526 1208.9 264.355C1208.41 263.775 1207.88 263.126 1207.32 262.407C1206.17 260.98 1205.17 259.777 1204.51 257.976C1204.19 257.091 1204.03 256.193 1204.03 255.27C1204.04 253.443 1204.59 252.017 1205.67 251.023C1206.74 250.03 1208.11 249.591 1209.75 249.737C1211.24 249.865 1212.51 250.393 1213.52 251.304L1213.48 255.302C1212.52 254.098 1211.42 253.449 1210.22 253.347C1209.52 253.284 1208.92 253.468 1208.45 253.914C1207.97 254.359 1207.73 254.939 1207.72 255.658C1207.71 257.683 1209.88 259.612 1211.72 262.069C1213.08 263.845 1214.33 266.099 1214.29 268.754C1214.28 270.581 1213.72 272.001 1212.6 273.013C1211.48 274.019 1210.08 274.452 1208.42 274.312C1206.79 274.172 1205.17 273.427 1204.15 272.332H1204.14Z" fill="#00BFE6"/>
<path d="M1215.84 274.621C1216.11 273.59 1216.33 272.266 1216.49 270.674C1216.66 269.083 1216.74 267.529 1216.75 266.027L1216.8 259.38C1216.81 257.871 1216.75 256.312 1216.61 254.675C1216.47 253.058 1216.28 251.696 1216.03 250.62L1220.96 251.047C1223.16 251.238 1224.87 252.154 1226.09 253.784C1227.31 255.433 1227.91 257.559 1227.89 260.189C1227.87 262.748 1227.45 264.722 1226.59 266.103C1225.74 267.504 1224.73 268.153 1223.57 268.051C1221.74 267.892 1220.67 266.523 1220.55 263.989L1220.22 263.964L1220.21 266.326C1220.19 267.797 1220.27 269.344 1220.41 270.967C1220.55 272.603 1220.73 273.959 1220.96 275.067L1215.84 274.621H1215.84ZM1224.21 259.673C1224.22 258.183 1223.93 256.967 1223.31 255.993C1222.7 255.019 1221.95 254.504 1221.08 254.427C1220.68 254.395 1220.39 254.567 1220.31 254.561L1220.26 260.603C1220.29 261.577 1220.47 262.449 1220.81 263.194C1221.13 263.939 1221.57 264.346 1222.14 264.397C1223.43 264.505 1224.19 262.869 1224.22 259.667L1224.21 259.673Z" fill="#00BFE6"/>
<path d="M1229.16 275.768C1229.7 273.52 1230 270.649 1230.03 267.167L1230.08 260.52C1230.11 257.025 1229.86 254.103 1229.34 251.767L1238.6 252.569L1239.11 256.567C1238.33 256.185 1237.31 255.924 1236.02 255.816L1233.62 255.606L1233.57 262.5L1234.46 262.577C1235.88 262.698 1236.95 262.723 1237.65 262.653L1237.62 266.486C1236.88 266.307 1235.74 266.155 1234.18 266.021L1233.54 265.964L1233.53 267.803C1233.5 270.917 1233.76 273.718 1234.28 276.207L1229.16 275.761V275.768Z" fill="#00BFE6"/>
<path d="M1169.78 321.849L1256.34 329.419L1257.1 320.768L1170.54 313.198L1169.78 321.849Z" fill="#C4F5F5" stroke="#C4F5F5" stroke-width="2.54626" stroke-linecap="round" stroke-linejoin="round"/>
<path d="M1257.1 320.763L1256.34 329.415L1169.77 321.845L1170.53 313.193" stroke="#00BFE6" stroke-width="2.54626" stroke-linecap="round" stroke-linejoin="round"/>
<path d="M1174.47 369.97L1213.42 390.814L1252.38 376.782L1252.38 318.365L1239.4 317.232L1239.4 332.052L1187.46 327.507V312.686L1174.48 311.553L1174.47 369.97Z" fill="#C4F5F5" stroke="#C4F5F5" stroke-width="2.54626" stroke-linecap="round" stroke-linejoin="round"/>
<path d="M1256.31 329.411C1256.16 331.085 1257.4 332.561 1259.08 332.708C1260.75 332.854 1262.22 331.615 1262.37 329.941L1263.13 321.297C1263.27 319.623 1262.04 318.147 1260.36 318C1258.69 317.854 1257.21 319.093 1257.07 320.767L1256.31 329.411Z" fill="#C4F5F5" stroke="#C4F5F5" stroke-width="2.54626" stroke-linecap="round" stroke-linejoin="round"/>
<path d="M1262.35 329.948C1262.21 331.622 1260.73 332.857 1259.06 332.711C1257.39 332.564 1256.15 331.087 1256.3 329.419L1257.05 320.768" stroke="#00BFE6" stroke-width="2.54626" stroke-linecap="round" stroke-linejoin="round"/>
<path d="M1170.52 313.196C1170.67 311.522 1169.43 310.046 1167.76 309.9C1166.08 309.753 1164.61 310.992 1164.46 312.666L1163.7 321.311C1163.56 322.985 1164.8 324.461 1166.47 324.607C1168.14 324.753 1169.62 323.515 1169.76 321.84L1170.52 313.196Z" fill="#C4F5F5" stroke="#C4F5F5" stroke-width="2.54626" stroke-linecap="round" stroke-linejoin="round"/>
<path d="M1163.7 321.312C1163.55 322.986 1164.79 324.457 1166.46 324.603C1168.14 324.75 1169.61 323.515 1169.76 321.84L1170.51 313.188" stroke="#00BFE6" stroke-width="2.54626" stroke-linecap="round" stroke-linejoin="round"/>
<path d="M1210.27 201.384C1209.75 207.355 1214.17 212.62 1220.14 213.149C1226.12 213.671 1231.38 209.253 1231.91 203.281" stroke="#00BFE6" stroke-width="2.54626" stroke-linecap="round" stroke-linejoin="round"/>
<path d="M1186.34 363.694C1186.85 361.446 1187.11 358.575 1187.08 355.093L1187.02 348.446C1186.99 344.951 1186.69 342.029 1186.13 339.692L1190.53 340.074C1193.13 340.297 1195.16 341.513 1196.63 343.697C1198.09 345.9 1198.84 348.904 1198.87 352.724C1198.9 356.557 1198.21 359.473 1196.78 361.44C1195.36 363.426 1193.34 364.305 1190.74 364.075L1186.34 363.694ZM1190.62 360.708L1191.05 360.746C1192.29 360.854 1193.29 360.224 1194.06 358.849C1194.81 357.474 1195.2 355.335 1195.16 352.406C1195.14 349.446 1194.67 347.096 1193.87 345.689C1193.06 344.302 1192.04 343.576 1190.86 343.474L1190.46 343.442L1190.62 360.714L1190.62 360.708Z" fill="#00BFE6"/>
<path d="M1199.27 364.819C1199.71 363.82 1200.14 362.54 1200.56 360.968C1200.97 359.414 1201.32 357.874 1201.58 356.358L1202.86 349.833C1203.47 346.293 1203.69 343.416 1203.53 341.213L1209.8 341.754C1209.74 342.817 1209.79 344.16 1209.95 345.797C1210.11 347.433 1210.32 348.993 1210.62 350.501L1212 357.262C1212.65 360.783 1213.48 363.75 1214.48 366.144L1209.34 365.698C1209.41 363.782 1209.23 361.522 1208.82 358.95L1208.64 357.963L1204.98 357.644L1204.81 358.631C1204.46 361.394 1204.32 363.603 1204.41 365.271L1199.27 364.826L1199.27 364.819ZM1205.43 354.831L1208.11 355.066L1207.45 351.864C1207.34 351.272 1207.14 349.61 1206.84 346.911L1206.56 346.885C1206.53 347.216 1206.49 347.732 1206.44 348.413C1206.4 349.114 1206.34 349.706 1206.29 350.221C1206.25 350.737 1206.16 351.234 1206.08 351.743L1205.44 354.831H1205.43Z" fill="#00BFE6"/>
<path d="M1215.52 366.226C1215.77 365.194 1215.97 363.87 1216.11 362.279C1216.25 360.687 1216.31 359.134 1216.29 357.631L1216.24 350.985C1216.23 349.476 1216.14 347.916 1215.98 346.28C1215.8 344.663 1215.59 343.301 1215.32 342.225L1219.43 342.581L1224.15 356.052L1224.4 356.078L1224.35 350.1C1224.26 347.248 1223.96 344.867 1223.48 342.931L1228.62 343.377C1228.12 345.694 1227.89 348.565 1227.93 351.997L1228.06 367.314L1224.78 367.028L1219.99 353.468L1219.73 353.442L1219.77 357.93C1219.78 359.401 1219.88 360.948 1220.05 362.571C1220.22 364.208 1220.42 365.564 1220.66 366.671L1215.52 366.226Z" fill="#00BFE6"/>
<path d="M1231.07 367.575C1231.32 366.544 1231.52 365.22 1231.66 363.628C1231.8 362.037 1231.85 360.483 1231.84 358.981L1231.78 352.334C1231.77 350.825 1231.69 349.266 1231.52 347.63C1231.35 346.006 1231.13 344.65 1230.87 343.574L1240.15 344.376L1240.71 348.336C1240.08 347.98 1239.05 347.738 1237.62 347.617L1235.25 347.413L1235.3 353.391L1237.1 353.55C1238.43 353.665 1239.49 353.69 1240.3 353.608L1240.33 357.459C1239.42 357.262 1238.35 357.103 1237.13 357.001L1235.33 356.842L1235.4 364.488L1238.12 364.723C1239.37 364.831 1240.4 364.755 1241.2 364.475L1240.47 368.39L1231.08 367.575H1231.07Z" fill="#00BFE6"/>
<path d="M1161.85 412.703L1248.41 420.273L1249.17 411.623L1162.61 404.053L1161.85 412.703Z" fill="#C4F5F5" stroke="#C4F5F5" stroke-width="2.54626" stroke-linecap="round" stroke-linejoin="round"/>
<path d="M1249.17 411.617L1248.41 420.276L1161.84 412.7L1162.6 404.048" stroke="#00BFE6" stroke-width="2.54626" stroke-linecap="round" stroke-linejoin="round"/>
<path d="M1166.55 460.831L1205.51 481.675L1244.46 467.643L1244.44 409.226L1231.45 408.086L1231.46 422.913L1179.52 418.368V403.547L1166.53 402.407L1166.55 460.831Z" fill="#C4F5F5" stroke="#C4F5F5" stroke-width="2.54626" stroke-linecap="round" stroke-linejoin="round"/>
<path d="M1248.37 420.261C1248.22 421.935 1249.46 423.411 1251.13 423.557C1252.8 423.704 1254.28 422.465 1254.43 420.791L1255.18 412.146C1255.33 410.472 1254.09 408.996 1252.42 408.85C1250.74 408.704 1249.27 409.942 1249.12 411.617L1248.37 420.261Z" fill="#C4F5F5" stroke="#C4F5F5" stroke-width="2.54626" stroke-linecap="round" stroke-linejoin="round"/>
<path d="M1254.41 420.802C1254.26 422.477 1252.78 423.712 1251.12 423.565C1249.44 423.419 1248.21 421.942 1248.35 420.274L1249.11 411.622" stroke="#00BFE6" stroke-width="2.54626" stroke-linecap="round" stroke-linejoin="round"/>
<path d="M1162.58 404.057C1162.73 402.382 1161.49 400.906 1159.82 400.76C1158.15 400.614 1156.67 401.852 1156.52 403.527L1155.77 412.171C1155.62 413.845 1156.86 415.321 1158.53 415.467C1160.2 415.614 1161.68 414.375 1161.83 412.701L1162.58 404.057Z" fill="#C4F5F5" stroke="#C4F5F5" stroke-width="2.54626" stroke-linecap="round" stroke-linejoin="round"/>
<path d="M1155.76 412.172C1155.62 413.847 1156.85 415.317 1158.53 415.464C1160.2 415.61 1161.67 414.375 1161.82 412.701L1162.58 404.049" stroke="#00BFE6" stroke-width="2.54626" stroke-linecap="round" stroke-linejoin="round"/>
<path d="M1183.87 454.888C1184.44 452.697 1184.72 449.826 1184.72 446.299L1184.74 434.432L1184.16 434.375C1182.89 434.254 1181.84 434.324 1181.02 434.566L1181.59 430.67L1191.42 431.599L1191.94 435.597C1191.17 435.209 1190.12 434.942 1188.82 434.814L1188.25 434.763L1188.23 446.63C1188.23 450.113 1188.49 453.035 1189.02 455.378L1183.86 454.888H1183.87Z" fill="#00BFE6"/>
<path d="M1198.81 456.232C1197.8 455.889 1196.89 455.666 1196.12 455.596C1195.24 455.513 1194.29 455.691 1193.25 456.111C1193.47 455.08 1193.68 453.711 1193.84 451.999C1194 450.286 1194.07 448.688 1194.07 447.186L1194.08 440.539C1194.08 439.05 1194.02 437.503 1193.87 435.866C1193.71 434.23 1193.53 432.874 1193.29 431.779L1198.36 432.257C1197.85 434.568 1197.58 437.439 1197.57 440.87L1197.56 452.655L1200.2 452.903C1201.5 453.024 1202.48 452.903 1203.15 452.527L1203.11 456.608L1202.99 456.665C1202.68 456.755 1202.03 456.945 1201.24 456.869C1200.62 456.812 1199.82 456.602 1198.8 456.239L1198.81 456.232Z" fill="#00BFE6"/>
<path d="M1204.35 455.55V451.552C1204.91 452.221 1205.54 452.768 1206.28 453.188C1207 453.621 1207.65 453.87 1208.25 453.927C1208.97 453.997 1209.58 453.8 1210.07 453.36C1210.56 452.921 1210.79 452.291 1210.8 451.501C1210.8 450.228 1210.05 448.783 1209.07 447.605C1208.58 447.019 1208.05 446.37 1207.48 445.644C1206.31 444.212 1205.31 442.996 1204.64 441.188C1204.31 440.303 1204.14 439.399 1204.15 438.482C1204.15 436.655 1204.68 435.235 1205.77 434.249C1206.83 433.262 1208.19 432.835 1209.84 432.994C1211.33 433.134 1212.59 433.676 1213.61 434.592V438.59C1212.63 437.374 1211.52 436.719 1210.33 436.604C1209.63 436.54 1209.02 436.712 1208.56 437.158C1208.08 437.597 1207.84 438.177 1207.83 438.896C1207.83 440.921 1210.02 442.869 1211.87 445.339C1213.24 447.128 1214.5 449.388 1214.48 452.049C1214.48 453.876 1213.93 455.296 1212.8 456.295C1211.69 457.295 1210.29 457.715 1208.63 457.556C1207 457.403 1205.37 456.645 1204.35 455.544L1204.35 455.55Z" fill="#00BFE6"/>
<path d="M1214.88 457.816C1215.32 456.823 1215.77 455.543 1216.21 453.971C1216.64 452.424 1217 450.883 1217.28 449.368L1218.63 442.849C1219.27 439.309 1219.51 436.438 1219.38 434.229L1225.64 434.821C1225.57 435.884 1225.6 437.227 1225.75 438.863C1225.89 440.499 1226.09 442.059 1226.37 443.574L1227.68 450.342C1228.29 453.862 1229.09 456.835 1230.07 459.242L1224.94 458.758C1225.03 456.842 1224.87 454.582 1224.49 452.003L1224.31 451.017L1220.66 450.673L1220.49 451.66C1220.1 454.416 1219.94 456.632 1220.01 458.293L1214.88 457.809L1214.88 457.816ZM1221.14 447.878L1223.82 448.133L1223.19 444.924C1223.09 444.326 1222.9 442.67 1222.63 439.965L1222.35 439.939C1222.32 440.27 1222.26 440.786 1222.21 441.467C1222.16 442.167 1222.09 442.759 1222.04 443.275C1221.99 443.791 1221.9 444.281 1221.82 444.797L1221.14 447.878Z" fill="#00BFE6"/>
<path d="M1182.53 279.135L1221.59 299.985L1260.44 285.947" stroke="#00BFE6" stroke-width="2.54626" stroke-linecap="round" stroke-linejoin="round"/>
<path d="M1174.46 369.978L1213.42 390.821L1252.37 376.79" stroke="#00BFE6" stroke-width="2.54626" stroke-linecap="round" stroke-linejoin="round"/>
<path d="M1166.52 460.829L1205.48 481.673L1244.42 467.641" stroke="#00BFE6" stroke-width="2.54626" stroke-linecap="round" stroke-linejoin="round"/>
<path d="M1248.34 186.14L1252.29 179.028" stroke="#00BFE6" stroke-width="2.54626" stroke-linecap="round" stroke-linejoin="round"/>
<path d="M1262.57 201.538L1269.68 197.19" stroke="#00BFE6" stroke-width="2.54626" stroke-linecap="round" stroke-linejoin="round"/>
<path d="M1275.62 396.223L1279.57 389.111" stroke="#C4F5F5" stroke-width="2.54626" stroke-linecap="round" stroke-linejoin="round"/>
<path d="M1289.86 411.615L1296.97 407.273" stroke="#C4F5F5" stroke-width="2.54626" stroke-linecap="round" stroke-linejoin="round"/>
<path d="M744.229 433.208L737.758 428.274" stroke="#C4F5F5" stroke-width="2.54626" stroke-linecap="round" stroke-linejoin="round"/>
<path d="M761.524 421.362L758.25 413.703" stroke="#C4F5F5" stroke-width="2.54626" stroke-linecap="round" stroke-linejoin="round"/>
<path d="M999.141 208.473C999.351 207.767 999.669 207.086 1000.08 206.474C1000.99 205.112 1002.35 204.087 1003.89 203.604" stroke="#00BFE6" stroke-width="2.54626" stroke-linecap="round" stroke-linejoin="round"/>
<path d="M1003.25 280.493H1013.65C1017.68 280.493 1020.95 277.386 1020.95 273.553V267.238C1020.95 266.086 1019.97 265.156 1018.76 265.156H998.144C996.934 265.156 995.953 266.086 995.953 267.238V273.553C995.953 277.386 999.221 280.493 1003.25 280.493H1003.25Z" fill="#FF5C4D"/>
<path d="M1030.69 227.927C1032.39 236.788 1032.22 249.477 1025.97 264.686C1024.48 268.302 1021.01 270.651 1017.17 270.651H993.605C984.72 252.794 984.262 237.928 986.179 227.933C988.243 217.161 997.707 209.547 1008.43 209.547C1019.15 209.547 1028.61 217.161 1030.67 227.933L1030.69 227.927Z" fill="#FF5C4D"/>
<path d="M1030.69 234.882C1028.62 224.874 1019.16 217.801 1008.44 217.801C997.72 217.801 988.255 224.874 986.191 234.882C985.179 239.784 984.835 245.953 986.038 253.121C986.637 256.699 991.032 265.447 993.739 270.597C995.019 273.029 997.63 274.57 1000.5 274.57H1016.41C1019.26 274.57 1021.87 273.042 1023.15 270.616C1025.84 265.536 1030.19 256.947 1030.8 253.44C1032.06 246.137 1031.72 239.86 1030.69 234.888L1030.69 234.882Z" fill="#FFBB99"/>
<path d="M1000.49 274.573H1016.4C1019.25 274.573 1021.86 273.045 1023.15 270.62C1025.83 265.539 1030.18 256.945 1030.79 253.437V246.504C1030.79 246.504 1024.79 258.415 1022.71 262.553C1020.95 266.08 1017.2 268.328 1013.1 268.328H1004.04C999.936 268.328 996.197 266.08 994.433 262.553C993.019 259.733 985.273 246.504 985.273 246.504L986.038 253.125C986.637 256.696 991.031 265.45 993.745 270.601C995.025 273.032 997.636 274.573 1000.5 274.573H1000.49Z" fill="#FF5C4D"/>
<path d="M1030.69 234.882C1028.62 224.874 1019.16 217.801 1008.44 217.801C997.72 217.801 988.255 224.874 986.191 234.882C985.179 239.784 984.835 245.953 986.038 253.121C986.637 256.699 991.032 265.447 993.739 270.597C995.019 273.029 997.63 274.57 1000.5 274.57H1016.41C1019.26 274.57 1021.87 273.042 1023.15 270.616C1025.84 265.536 1030.19 256.947 1030.8 253.44C1032.06 246.137 1031.72 239.86 1030.69 234.888L1030.69 234.882Z" stroke="#4D1F1F" stroke-width="2.54626" stroke-linecap="round" stroke-linejoin="round"/>
<path d="M993.094 230.218C996.234 229.123 1001 229.721 1003.63 231.758L1003.79 230.32L998.438 229.804" stroke="#4D1F1F" stroke-width="2.54626" stroke-linecap="round" stroke-linejoin="round"/>
<path d="M1023.46 230.325C1020.35 229.16 1015.57 229.676 1012.89 231.649L1012.77 230.204L1018.59 229.771" stroke="#4D1F1F" stroke-width="2.54626" stroke-linecap="round" stroke-linejoin="round"/>
<path d="M1012.61 223.35L1008.43 224.948L1004.26 223.35C1001.1 222.14 999.109 219.664 999.109 216.952V208.262H1017.76V216.952C1017.76 219.657 1015.76 222.134 1012.61 223.35Z" fill="#FFE88C"/>
<path d="M1010.82 214.82C1012.11 214.82 1013.15 214.019 1013.15 213.031C1013.15 212.043 1012.11 211.242 1010.82 211.242C1009.54 211.242 1008.49 212.043 1008.49 213.031C1008.49 214.019 1009.54 214.82 1010.82 214.82Z" fill="#FF5C4D"/>
<path d="M1017.76 208.262V216.952C1017.76 219.657 1015.76 222.134 1012.61 223.35L1008.43 224.948L1004.26 223.35C1001.1 222.14 999.109 219.664 999.109 216.952V208.262" stroke="#4D1F1F" stroke-width="2.54626" stroke-linecap="round" stroke-linejoin="round"/>
<path d="M976.499 213.026L971.977 208.475" stroke="#4D1F1F" stroke-width="2.54626" stroke-linecap="round" stroke-linejoin="round"/>
<path d="M1007.11 239.637L999.453 244.233L1004.47 249.256" stroke="#4D1F1F" stroke-width="2.54626" stroke-linecap="round" stroke-linejoin="round"/>
<path d="M1002.71 236.37C1001.45 235.078 999.866 234.359 998.286 234.353C996.707 234.346 995.12 235.059 993.859 236.339" stroke="#4D1F1F" stroke-width="2.54626" stroke-linecap="round" stroke-linejoin="round"/>
<path d="M1022.15 236.203C1020.85 234.955 1019.24 234.299 1017.66 234.35C1016.08 234.401 1014.52 235.172 1013.3 236.502" stroke="#4D1F1F" stroke-width="2.54626" stroke-linecap="round" stroke-linejoin="round"/>
<path d="M998.281 236.303V238.028" stroke="#4D1F1F" stroke-width="3.81939" stroke-linecap="round" stroke-linejoin="round"/>
<path d="M1017.69 236.303V238.028" stroke="#4D1F1F" stroke-width="3.81939" stroke-linecap="round" stroke-linejoin="round"/>
<path d="M978.555 242.336C982.873 241.979 986.382 238.503 988.249 234.6C990.115 230.698 990.714 226.331 991.714 222.116C992.713 217.908 994.274 213.598 997.522 210.739C997.522 210.739 988.892 209.504 981.962 224.943" fill="#4D1F1F"/>
<path d="M978.555 242.336C982.873 241.979 986.382 238.503 988.249 234.6C990.115 230.698 990.714 226.331 991.714 222.116C992.713 217.908 994.274 213.598 997.522 210.739C997.522 210.739 988.892 209.504 981.962 224.943" stroke="#4D1F1F" stroke-width="2.54626" stroke-linecap="round" stroke-linejoin="round"/>
<path d="M1019.78 210.929C1024.14 210.267 1028.81 212.164 1031.46 215.685C1033.51 218.391 1034.33 221.803 1034.95 225.139C1035.57 228.475 1036.04 231.894 1037.52 234.95C1038.99 238.005 1041.71 240.698 1045.07 241.125" stroke="#00BFE6" stroke-width="2.54626" stroke-linecap="round" stroke-linejoin="round"/>
<path d="M1010.01 254.324C1013.1 255.368 1016.69 254.802 1019.31 252.86" stroke="#4D1F1F" stroke-width="2.54626" stroke-linecap="round" stroke-linejoin="round"/>
</g>
<defs>
<linearGradient id="paint0_linear_379_78947" x1="15.8672" y1="691.434" x2="676.469" y2="690.522" gradientUnits="userSpaceOnUse">
<stop stop-color="#FBFCF9"/>
<stop offset="0.75809" stop-color="#E9F8F8"/>
<stop offset="0.963262" stop-color="#00BFE6"/>
</linearGradient>
<linearGradient id="paint1_linear_379_78947" x1="2.71094" y1="282.41" x2="726.745" y2="282.203" gradientUnits="userSpaceOnUse">
<stop offset="0.506578" stop-color="#FBFCF9"/>
<stop offset="1" stop-color="#00BFE6"/>
</linearGradient>
<linearGradient id="paint2_linear_379_78947" x1="1202.25" y1="212.687" x2="1202.25" y2="623.869" gradientUnits="userSpaceOnUse">
<stop stop-color="#C4F5F5"/>
<stop offset="1" stop-color="#DAF8F7"/>
</linearGradient>
<linearGradient id="paint3_linear_379_78947" x1="1202.25" y1="212.687" x2="1202.25" y2="623.869" gradientUnits="userSpaceOnUse">
<stop offset="0.68" stop-color="#C4F5F5"/>
<stop offset="1" stop-color="#DAF8F7"/>
</linearGradient>
<clipPath id="clip0_379_78947">
<rect width="738.242" height="584.907" fill="white" transform="translate(558.758 127.176)"/>
</clipPath>
</defs>
</svg>
