<svg width="142" height="102" viewBox="0 0 142 102" fill="none" xmlns="http://www.w3.org/2000/svg">
<path d="M140.377 5.71827C139.664 4.13184 138.268 2.74771 136.66 2.03436C133.731 0.714108 130.375 0.96964 127.169 1.13999C122.291 1.39553 117.412 1.39553 112.534 1.39553C79.3429 1.39553 46.1521 1.38488 12.9614 1.37423C10.2665 1.37423 7.43314 1.40617 5.10041 2.75836C3.44939 3.71661 3.06593 5.6118 2.71443 7.51764C2.59726 8.16712 2.32031 9.83872 2.32031 9.83872C2.32031 9.83872 3.4707 9.88131 3.85416 9.88131C4.52522 9.88131 5.19628 9.88131 5.86733 9.88131H21.9514C27.3092 9.87066 32.6777 9.86001 38.0355 9.86001H54.1196C59.4774 9.84937 64.8459 9.83872 70.2037 9.83872H86.2878C91.6456 9.82807 97.0141 9.81742 102.372 9.81742H118.456C123.814 9.80678 129.182 9.79613 134.54 9.79613H140.494C141.08 8.46524 140.952 7.01722 140.356 5.71827H140.377Z" fill="#B1E4FF"/>
<path d="M140.273 5.73781C139.602 4.05556 138.302 2.62884 136.619 1.94742C135.043 1.31924 133.296 1.30859 131.602 1.30859C91.424 1.35118 51.2457 1.38312 11.0781 1.42571C9.41644 1.42571 7.71217 1.43636 6.17832 2.06454C4.18645 2.87373 2.24783 5.95075 2.3224 9.83696C2.3224 9.83696 11.6213 9.86891 13.9434 9.86891C22.7737 9.86891 31.604 9.86891 40.4342 9.85826C58.0948 9.85826 75.7553 9.83696 93.4159 9.82632C109.138 9.82632 124.849 9.80502 140.571 9.80502C140.923 8.46348 140.784 7.02612 140.273 5.74846V5.73781Z" stroke="#2D274F" stroke-width="1.06473"/>
<path d="M2.25329 9.96471C2.50893 22.8052 2.48762 35.6456 2.41306 48.4968C2.3172 65.6387 0.943125 83.7495 1.99765 100.849C1.99765 100.849 82.1199 100.327 98.172 100.316C105.586 100.316 112.989 100.306 120.402 100.295C127.028 100.295 133.887 100.806 140.47 100.231C141.993 100.093 141.024 67.0122 141.013 64.6591C140.896 46.346 140.363 28.0436 140.736 9.73047C106.736 10.6887 72.6824 10.0925 38.6822 9.94341C26.5605 9.94341 2.25329 9.97535 2.25329 9.97535V9.96471Z" fill="#FAF9F7"/>
<path d="M2.25067 9.95199C2.16545 36.3889 2.08024 62.8151 1.98438 89.252C1.98438 91.9564 2.29327 100.176 2.29327 100.176C2.29327 100.176 7.88543 100.644 10.5271 100.634C53.8795 100.474 97.232 100.314 140.574 100.155C140.574 70.0445 140.574 39.9344 140.585 9.82422C94.4732 9.86681 48.362 9.9094 2.24002 9.94134L2.25067 9.95199Z" stroke="#2D274F" stroke-width="1.06473" stroke-linecap="round" stroke-linejoin="round"/>
<path d="M2.40449 20.7314C2.40449 20.7314 1.8719 21.4874 1.81864 21.4874C1.80799 27.29 1.78669 33.0927 1.77604 38.9061C1.76539 44.7194 1.76539 50.5115 1.75473 56.3248C1.74408 62.1382 1.75473 67.9302 1.75473 73.7436C1.75473 78.0876 1.75473 82.4317 1.75473 86.7651C1.75473 88.969 1.75473 91.173 1.75473 93.3769C1.75473 95.3573 1.75473 100.99 1.75473 101L33.8484 100.851C33.8484 100.851 34.2318 47.0831 34.1786 20.5078L2.39384 20.7314H2.40449Z" fill="#FFF374"/>
<path d="M2.24417 20.742C2.24417 20.742 1.32812 72.1146 1.32812 76.778C1.32812 81.4415 1.32812 86.1156 1.32812 90.779C1.32812 93.0895 1.32812 100.574 1.32812 100.574C1.32812 100.574 24.8045 100.628 34.2313 100.553C34.1674 73.9352 34.2526 47.115 34.1993 20.5078L2.25482 20.742H2.24417Z" stroke="#2D274F" stroke-width="1.06473"/>
<path d="M34.1903 20.5078C34.1903 20.5078 34.0837 57.3257 34.0731 60.6689C34.0305 73.9246 33.7535 87.2335 34.2222 100.479L76.7119 100.404C76.7119 73.7755 76.7013 47.1363 76.6906 20.5078C62.5238 20.5078 48.357 20.5078 34.1796 20.5078H34.1903Z" fill="#FAF9F7"/>
<path d="M34.1328 20.5046L34.218 100.475C34.218 100.475 62.8072 100.401 76.761 100.475C76.5906 73.8255 76.5906 47.1757 76.761 20.5259C62.5516 20.5046 48.3422 20.494 34.1435 20.4727C34.1435 20.4833 34.1435 20.494 34.1435 20.5046H34.1328Z" stroke="#2D274F" stroke-width="1.06473" stroke-linecap="round" stroke-linejoin="round"/>
<path d="M76.8696 20.6626C76.8057 47.0356 76.7631 74.303 76.8696 100.293C98.1197 100.314 119.37 100.335 140.62 100.357C140.599 73.7813 140.588 47.206 140.567 20.6307C119.338 20.2793 98.0984 20.2793 76.8589 20.6307C76.8589 20.6414 76.8589 20.6626 76.8589 20.6733L76.8696 20.6626Z" stroke="#2D274F" stroke-width="1.06473" stroke-linecap="round" stroke-linejoin="round"/>
<path d="M34.1094 36.3678L39.4352 36.5169L44.7504 36.6553L50.0763 36.6127L55.4022 36.453L60.728 36.5062L66.0539 36.2188H71.3904L76.7269 36.4636" fill="#B1E4FF"/>
<path d="M34.1094 36.3707L76.7269 36.3281" stroke="#2D274F" stroke-width="1.06473"/>
<path d="M34.1094 52.3408L39.4352 52.2344L44.7504 52.5644L50.0763 52.5431L55.4022 52.2876L60.728 52.5325L66.0539 52.2663L71.3904 52.6709L76.7269 52.5751" fill="#B1E4FF"/>
<path d="M34.1094 52.3438L76.7269 52.578" stroke="#2D274F" stroke-width="1.06473"/>
<path d="M34.1094 68.1602L39.4352 68.6073L44.7504 68.3092L50.0763 68.2453L55.4022 68.4157H60.728L66.0539 68.5541L71.3904 68.3625L76.7269 68.3944" fill="#B1E4FF"/>
<path d="M34.1094 68.1602L76.7269 68.3944" stroke="#2D274F" stroke-width="1.06473"/>
<path d="M34.1094 84.1445L39.4352 84.5278L44.7504 84.4001L50.0763 84.2084L55.4022 84.5172L60.728 84.4852H66.0539L71.3904 84.4001L76.7269 84.1765" fill="#B1E4FF"/>
<path d="M34.1094 84.1445L76.7269 84.1765" stroke="#2D274F" stroke-width="1.06473"/>
<path d="M3.03906 9.84147C3.03906 9.84147 10.1651 9.80953 10.9746 9.72435L12.4019 9.58594L17.5254 10.0118L22.6489 9.99053L27.7724 10.097H32.8958L38.03 9.60723L43.1534 9.99053H48.2769L53.411 9.75629L58.5345 9.69241L63.6686 9.89471L68.7921 9.62853L73.9262 9.67112L79.0497 9.61788L84.1732 10.1183L89.3073 9.86277L94.4308 9.88406H99.5543L104.688 10.0864L109.823 9.80953L114.946 9.90536L120.08 9.735L125.204 10.0651L130.338 9.85212L135.483 9.96924H140.617" fill="#FAF9F7"/>
<path d="M2.58594 9.96426C2.58594 9.96426 29.0768 9.91102 42.4127 9.90037C67.8277 9.87908 93.2214 9.70872 118.647 9.86843C123.93 9.90037 129.214 9.92167 134.497 9.91102C136.531 9.91102 138.576 9.93232 140.611 9.95361" stroke="#2D274F" stroke-width="1.06473" stroke-linecap="round" stroke-linejoin="round"/>
<path d="M135.193 68.5143L82.201 68.2481C82.201 68.2481 82.0518 25.9257 81.9453 25.9257L135.31 25.8086L135.193 68.5143Z" stroke="#2D274F" stroke-width="1.06473" stroke-linecap="round" stroke-linejoin="round"/>
<path d="M34.3244 20.4987L34.0582 15.1751L34.0156 9.85156" fill="#FAF9F7"/>
<path d="M34.3244 20.4987L34.0582 15.1751L34.0156 9.85156" stroke="#2D274F" stroke-width="1.06473" stroke-linecap="round" stroke-linejoin="round"/>
<path d="M7.46094 26.025L12.201 26.0037L16.9516 25.7588L21.7023 26.0356L26.453 25.6523" fill="#FAF9F7"/>
<path d="M7.46094 26.0219C13.7987 25.7983 20.1258 26.2561 26.4636 25.7344" stroke="#2D274F" stroke-width="1.06473" stroke-linecap="round" stroke-linejoin="round"/>
<path d="M39.4141 26.025L44.1541 26.0037L48.9047 25.7588L53.6554 26.0356L58.4061 25.6523" fill="#FAF9F7"/>
<path d="M39.4141 26.0195H58.1611" stroke="#2D274F" stroke-width="1.06473" stroke-linecap="round" stroke-linejoin="round"/>
<path d="M87.3516 31.3404L91.5164 31.3191L95.6919 31.0742" fill="#FAF9F7"/>
<path d="M87.3516 31.3398H96.1286" stroke="#2D274F" stroke-width="1.06473" stroke-linecap="round" stroke-linejoin="round"/>
<path d="M87.3516 36.6685L91.8999 36.6472L96.4588 36.4023L101.018 36.6792" fill="#FAF9F7"/>
<path d="M87.3516 36.668H101.018" stroke="#2D274F" stroke-width="1.06473" stroke-linecap="round" stroke-linejoin="round"/>
<path d="M87.3516 42.0352C98.2376 42.0352 109.07 42.0352 120.191 42.0352" stroke="#2D274F" stroke-width="1.06473" stroke-linecap="round" stroke-linejoin="round"/>
<path d="M87.3516 47.318L92.8052 47.2967L98.2483 47.0518L103.702 47.3286L109.145 46.9453L114.599 47.1583L120.052 47.3499L125.517 47.2967" fill="#FAF9F7"/>
<path d="M87.3516 47.3135C99.9525 47.2497 112.969 47.3135 125.517 47.3135" stroke="#2D274F" stroke-width="1.06473" stroke-linecap="round" stroke-linejoin="round"/>
<path d="M87.3516 63.2857C91.1968 63.2751 95.0421 63.2431 98.8874 63.0195L87.3516 63.2857Z" fill="#FAF9F7"/>
<path d="M87.3516 63.2869L93.1141 63.2656L98.8874 63.2869" stroke="#2D274F" stroke-width="1.06473" stroke-linecap="round" stroke-linejoin="round"/>
<path d="M125.695 63.2869L130.84 63.2656" stroke="#2D274F" stroke-width="1.06473" stroke-linecap="round" stroke-linejoin="round"/>
<path d="M39.4141 31.3404L44.1115 31.3191L48.8195 31.0742" fill="#FAF9F7"/>
<path d="M39.4215 31.3398C38.7611 31.3398 48.9228 31.3398 48.9228 31.3398" stroke="#2D274F" stroke-width="1.06473" stroke-linecap="round" stroke-linejoin="round"/>
<path d="M39.4141 41.9927L45.7092 41.9715L52.015 41.7266" fill="#FAF9F7"/>
<path d="M39.4141 42.0352H51.1097" stroke="#2D274F" stroke-width="1.06473" stroke-linecap="round" stroke-linejoin="round"/>
<path d="M39.4141 57.9615L45.7092 57.9402L52.015 57.6953" fill="#FAF9F7"/>
<path d="M39.4141 58.0039L51.1097 58.3766" stroke="#2D274F" stroke-width="1.06473" stroke-linecap="round" stroke-linejoin="round"/>
<path d="M39.4141 47.317L45.0275 47.2957L50.6516 47.0508L56.2757 47.3276" fill="#FAF9F7"/>
<path d="M39.4141 47.3707L56.2757 47.3281" stroke="#2D274F" stroke-width="1.06473" stroke-linecap="round" stroke-linejoin="round"/>
<path d="M53.2656 31.3416L56.2801 31.3203" stroke="#2D274F" stroke-width="1.06473" stroke-linecap="round" stroke-linejoin="round"/>
<path d="M7.46094 31.3404L12.1583 31.3191L16.8664 31.0742" fill="#FAF9F7"/>
<path d="M7.46094 31.3404C10.6032 31.3298 13.7348 31.2978 16.8664 31.0742" stroke="#2D274F" stroke-width="1.06473" stroke-linecap="round" stroke-linejoin="round"/>
<path d="M7.46094 36.6697L13.6709 36.6484" stroke="#2D274F" stroke-width="1.06473" stroke-linecap="round" stroke-linejoin="round"/>
<path d="M7.46094 41.9927L12.0092 41.9715L16.5682 41.7266L21.1271 42.0034" fill="#FAF9F7"/>
<path d="M7.46094 41.9933C12.0199 42.1317 16.5575 41.7271 21.1271 41.9614" stroke="#2D274F" stroke-width="1.06473" stroke-linecap="round" stroke-linejoin="round"/>
</svg>
