<svg width="318" height="204" viewBox="0 0 318 204" fill="none" xmlns="http://www.w3.org/2000/svg">
<path d="M22.3857 73.4724C21.271 71.1091 22.3072 68.2871 24.6975 67.1831C27.0839 66.0792 29.9334 67.1055 31.0481 69.4726L48.1335 105.754C49.2482 108.117 48.212 110.939 45.8217 112.043C43.4353 113.147 40.5858 112.121 39.4711 109.754L22.3857 73.4724Z" fill="#00BFE6" stroke="#00BFE6" stroke-width="2.5" stroke-linecap="round" stroke-linejoin="round"/>
<path d="M25.3203 68.5065C26.9727 67.7447 28.9431 68.4522 29.7163 70.0925L46.8017 106.374C47.571 108.01 46.8566 109.962 45.2003 110.727" stroke="#C4F5F5" stroke-width="2.5" stroke-linecap="round" stroke-linejoin="round"/>
<path d="M45.8178 112.041C43.4314 113.145 40.5819 112.118 39.4672 109.751L22.3818 73.4699C21.2671 71.1066 22.3033 68.2846 24.6936 67.1807" stroke="#4D1F1F" stroke-width="2.5" stroke-linecap="round" stroke-linejoin="round"/>
<path d="M5.81948 64.1837C2.13786 56.363 5.56434 47.0342 13.4614 43.3882C21.3584 39.7422 30.7784 43.1354 34.46 50.9561L42.2236 67.4487C45.9052 75.2694 42.4787 84.5982 34.5816 88.2442C26.6846 91.8903 17.2647 88.497 13.583 80.6763L5.81948 64.1837ZM25.8015 54.952C24.3453 51.8619 20.6205 50.5169 17.5002 51.959C14.3798 53.4011 13.0218 57.0898 14.4779 60.18L22.2455 76.6726C23.7016 79.7628 27.4264 81.1078 30.5468 79.6657C33.6671 78.2236 35.0252 74.5349 33.569 71.4447L25.8015 54.952Z" fill="#00BFE6" stroke="#00BFE6" stroke-width="2.5" stroke-linecap="round" stroke-linejoin="round"/>
<path d="M14.0904 44.7055C21.2534 41.3976 29.7981 44.476 33.1383 51.5698L40.9019 68.0624C44.242 75.1562 41.1334 83.6182 33.9703 86.926M16.8849 50.6409C13.0267 52.4212 11.3547 56.9767 13.1523 60.7976L20.9198 77.2901C22.7175 81.111 27.3175 82.767 31.1758 80.9867" stroke="#C4F5F5" stroke-width="2.5" stroke-linecap="round" stroke-linejoin="round"/>
<path d="M34.5855 88.2437C26.6885 91.8898 17.2686 88.4965 13.5869 80.6758L5.82338 64.1832C2.14176 56.3625 5.56825 47.0337 13.4653 43.3877" stroke="#4D1F1F" stroke-width="2.5" stroke-linecap="round" stroke-linejoin="round"/>
<path d="M30.5505 79.6686C33.6709 78.2266 35.0289 74.5378 33.5727 71.4476L25.8052 54.955C24.349 51.8648 20.6243 50.5198 17.5039 51.9619" stroke="#4D1F1F" stroke-width="2.5" stroke-linecap="round" stroke-linejoin="round"/>
<path d="M146.196 162.989C150.215 155.335 159.777 152.346 167.509 156.326C175.237 160.307 178.255 169.775 174.236 177.433L165.758 193.575C161.739 201.229 152.178 204.218 144.446 200.238C136.713 196.258 133.699 186.789 137.718 179.131L146.196 162.989ZM165.754 173.064C167.344 170.036 166.151 166.293 163.093 164.718C160.036 163.144 156.256 164.326 154.666 167.354L146.188 183.496C144.599 186.524 145.792 190.264 148.849 191.842C151.907 193.416 155.687 192.234 157.276 189.21L165.754 173.068V173.064Z" fill="#00BFE6" stroke="#4D1F1F" stroke-width="2.5" stroke-linecap="round" stroke-linejoin="round"/>
<path d="M163.204 164.78C166.215 166.408 167.255 170.202 165.673 173.215L157.274 189.206C157.607 188.654 158.251 188.366 158.887 188.475L163.624 189.303C165.606 189.649 166.682 191.802 165.752 193.571L174.23 177.428C178.249 169.775 175.234 160.306 167.502 156.322C164.331 154.689 160.853 154.23 157.576 154.782L155.566 166.074C157.45 163.995 160.602 163.369 163.204 164.772V164.78Z" fill="#4D1F1F" stroke="#4D1F1F" stroke-width="2.5" stroke-linecap="round" stroke-linejoin="round"/>
<path d="M176.892 33.0629C168.312 31.5664 162.562 23.4308 164.073 14.9338C165.584 6.4368 173.799 0.74227 182.379 2.23877L200.473 5.39886C209.053 6.89536 214.803 15.0309 213.292 23.5279C211.781 32.0249 203.566 37.7195 194.986 36.223L176.892 33.0629ZM180.723 11.5598C177.332 10.969 174.086 13.2196 173.485 16.578C172.889 19.9364 175.161 23.1509 178.552 23.7456L196.646 26.9057C200.038 27.4965 203.284 25.2461 203.884 21.8877C204.481 18.5293 202.208 15.3146 198.817 14.7199L180.723 11.5598Z" fill="#00BFE6" stroke="#00BFE6" stroke-width="2.5" stroke-linecap="round" stroke-linejoin="round"/>
<path d="M165.52 15.1878C166.893 7.4799 174.339 2.31402 182.122 3.67447L200.216 6.83456C208 8.19501 213.216 15.5688 211.842 23.2767M172.035 16.3268C171.297 20.4781 174.103 24.4506 178.295 25.1813L196.389 28.3414C200.581 29.0722 204.589 26.2931 205.331 22.1417" stroke="#C4F5F5" stroke-width="2.5" stroke-linecap="round" stroke-linejoin="round"/>
<path d="M213.292 23.5277C211.781 32.0247 203.566 37.7192 194.986 36.2227L176.892 33.0627C168.312 31.5662 162.562 23.4306 164.073 14.9336" stroke="#4D1F1F" stroke-width="2.5" stroke-linecap="round" stroke-linejoin="round"/>
<path d="M203.887 21.8858C204.484 18.5274 202.211 15.3129 198.82 14.7182L180.726 11.5581C177.335 10.9672 174.089 13.2177 173.488 16.5761" stroke="#4D1F1F" stroke-width="2.5" stroke-linecap="round" stroke-linejoin="round"/>
<path d="M193.437 22.8406C192.322 20.4773 193.358 17.6552 195.748 16.5513C198.135 15.4474 200.984 16.4736 202.099 18.8408L219.184 55.1223C220.299 57.4856 219.263 60.3074 216.873 61.4113C214.482 62.5153 211.637 61.489 210.522 59.1218L193.437 22.8406Z" fill="#00BFE6" stroke="#00BFE6" stroke-width="2.5" stroke-linecap="round" stroke-linejoin="round"/>
<path d="M196.367 17.8747C198.02 17.1129 199.99 17.8203 200.763 19.4606L217.849 55.7419C218.618 57.3784 217.903 59.3295 216.247 60.0953" stroke="#C4F5F5" stroke-width="2.5" stroke-linecap="round" stroke-linejoin="round"/>
<path d="M216.873 61.4098C214.486 62.5138 211.637 61.4875 210.522 59.1203L193.437 22.8391C192.322 20.4758 193.358 17.6537 195.748 16.5498" stroke="#4D1F1F" stroke-width="2.5" stroke-linecap="round" stroke-linejoin="round"/>
<path d="M258.201 168.906C249.621 167.409 243.871 159.274 245.382 150.777C246.893 142.28 255.108 136.585 263.688 138.082L281.782 141.242C290.362 142.738 296.112 150.874 294.601 159.371C293.09 167.868 284.875 173.562 276.295 172.066L258.201 168.906ZM262.028 147.403C258.636 146.812 255.39 149.062 254.79 152.421C254.189 155.779 256.466 158.994 259.857 159.588L277.951 162.748C281.342 163.339 284.588 161.089 285.189 157.73C285.789 154.372 283.513 151.157 280.122 150.563L262.028 147.403Z" fill="#00BFE6" stroke="#00BFE6" stroke-width="2.5" stroke-linecap="round" stroke-linejoin="round"/>
<path d="M294.601 159.375C293.09 167.872 284.875 173.566 276.295 172.069L258.201 168.909C249.621 167.413 243.871 159.277 245.382 150.78" stroke="#4D1F1F" stroke-width="2.5" stroke-linecap="round" stroke-linejoin="round"/>
<path d="M285.196 157.731C285.792 154.372 283.52 151.158 280.129 150.563L262.035 147.403C258.643 146.812 255.397 149.063 254.797 152.421" stroke="#4D1F1F" stroke-width="2.5" stroke-linecap="round" stroke-linejoin="round"/>
<path d="M271.789 165.053C272.747 163.211 274.803 162.2 276.868 162.558L259.861 159.588C256.47 158.997 254.193 155.779 254.794 152.421L245.386 150.776C243.875 159.273 249.625 167.409 258.205 168.905L275.211 171.875C272.04 171.323 270.321 167.883 271.793 165.049L271.789 165.053Z" fill="#4D1F1F" stroke="#4D1F1F" stroke-width="2.5" stroke-linecap="round" stroke-linejoin="round"/>
<path d="M246.832 151.031C248.206 143.323 255.651 138.157 263.435 139.517L281.529 142.678C289.312 144.038 294.528 151.412 293.155 159.119" stroke="#C4F5F5" stroke-width="2.5" stroke-linecap="round" stroke-linejoin="round"/>
<path d="M246.676 198.236L15.0555 157.791C13.0577 157.442 12.1157 155.848 12.9556 154.235L76.8306 31.3432C77.6705 29.7262 79.9706 28.7 81.9723 29.0499L313.593 69.4941C315.59 69.844 316.532 71.4376 315.693 73.0507L251.818 195.942C250.978 197.559 248.678 198.586 246.676 198.236Z" fill="#C4F5F5" stroke="#C4F5F5" stroke-width="2.5" stroke-linecap="round" stroke-linejoin="round"/>
<path d="M244.016 192.226L12.3954 151.782C10.3976 151.432 9.45554 149.838 10.2955 148.225L74.1704 25.3334C75.0104 23.7164 77.3105 22.6903 79.3122 23.0401L310.932 63.4844C312.93 63.8342 313.872 65.4278 313.032 67.0409L249.157 189.933C248.317 191.55 246.017 192.576 244.016 192.226Z" fill="#C4F5F5" stroke="#C4F5F5" stroke-width="2.5" stroke-linecap="round" stroke-linejoin="round"/>
<path d="M241.352 186.215L9.73128 145.771C7.73347 145.421 6.79148 143.827 7.63143 142.214L71.5064 19.3226C72.3463 17.7057 74.6464 16.6795 76.6481 17.0294L308.268 57.4736C310.266 57.8234 311.208 59.4171 310.368 61.0302L246.493 183.922C245.653 185.539 243.353 186.565 241.352 186.215Z" fill="#C4F5F5" stroke="#C4F5F5" stroke-width="2.5" stroke-linecap="round" stroke-linejoin="round"/>
<path d="M238.692 180.21L7.07112 139.766C5.07331 139.416 4.13133 137.823 4.97127 136.21L68.8462 13.3178C69.6862 11.7008 71.9862 10.6746 73.9879 11.0245L305.608 51.4687C307.606 51.8186 308.548 53.4124 307.708 55.0255L243.833 177.917C242.993 179.534 240.693 180.56 238.692 180.21Z" fill="#C4F5F5" stroke="#C4F5F5" stroke-width="2.5" stroke-linecap="round" stroke-linejoin="round"/>
<path d="M238.692 180.21L7.07112 139.766C5.07331 139.416 4.13133 137.823 4.97127 136.21L68.8462 13.3178C69.6862 11.7008 71.9862 10.6746 73.9879 11.0245L305.608 51.4687C307.606 51.8186 308.548 53.4124 307.708 55.0255L243.833 177.917C242.993 179.534 240.693 180.56 238.692 180.21Z" fill="#C4F5F5" stroke="#C4F5F5" stroke-width="2.5" stroke-linecap="round" stroke-linejoin="round"/>
<path d="M236.027 174.202L4.40706 133.757C2.40925 133.407 1.46726 131.814 2.30721 130.201L66.1822 7.30898C67.0221 5.69198 69.3221 4.66585 71.3239 5.01568L302.944 45.4599C304.942 45.8098 305.884 47.4034 305.044 49.0165L241.169 171.908C240.329 173.525 238.029 174.551 236.027 174.202Z" fill="#FBFCF9" stroke="#C4F5F5" stroke-width="2.5" stroke-linecap="round" stroke-linejoin="round"/>
<path d="M193.647 126.611L166.722 92.9341C161.431 86.3185 149.986 84.3555 139.294 88.2308L84.9258 107.934" fill="#FBFCF9"/>
<path d="M193.647 126.611L166.722 92.9341C161.431 86.3185 149.986 84.3555 139.294 88.2308L84.9258 107.934" stroke="#00BFE6" stroke-width="2.5" stroke-linecap="round" stroke-linejoin="round"/>
<path d="M70.8555 9.71484L137.058 92.8501C142.313 99.4853 153.743 101.479 164.442 97.6313L298.857 49.5295" fill="#FBFCF9"/>
<path d="M70.8555 9.71484L137.058 92.8501C142.313 99.4853 153.743 101.479 164.442 97.6313L298.857 49.5295" stroke="#00BFE6" stroke-width="2.5" stroke-linecap="round" stroke-linejoin="round"/>
<path d="M57.0029 85.45L75.097 88.6103C82.0403 89.823 88.7362 86.3247 91.8448 80.4476L118.268 85.0613C120.862 85.5161 123.347 83.7943 123.802 81.225C124.257 78.6557 122.522 76.1951 119.928 75.7442L93.5051 71.1303C92.6141 64.5535 87.5274 58.9989 80.588 57.7862L62.4939 54.6261C55.5506 53.4133 48.8546 56.9117 45.7461 62.7888L38.0492 61.4439L33.4688 70.2519L44.0858 72.1061C44.9768 78.6829 50.0635 84.2373 57.0029 85.45ZM59.1263 65.125L56.6182 64.6856C57.8467 63.9782 59.3225 63.679 60.8297 63.9433L78.9239 67.1034C80.431 67.3677 81.7145 68.1489 82.6251 69.2295L80.117 68.7903C77.5226 68.3356 75.0381 70.0575 74.5828 72.6269C74.1275 75.1962 75.8624 77.6567 78.4568 78.1076L80.9648 78.5468C79.7363 79.2542 78.2605 79.5536 76.7533 79.2892L58.6592 76.129C57.152 75.8646 55.8686 75.0835 54.958 74.0029L57.466 74.4421C60.0604 74.8968 62.5449 73.1748 63.0002 70.6055C63.4594 68.0362 61.7207 65.5759 59.1263 65.125Z" fill="#4D1F1F" stroke="#4D1F1F" stroke-width="2.5" stroke-linecap="round" stroke-linejoin="round"/>
<path d="M267.219 101.463C266.328 94.8865 261.242 89.3319 254.302 88.1192L236.208 84.9591C229.265 83.7464 222.569 87.2447 219.46 93.1218L193.037 88.5079C190.443 88.0531 187.959 89.7751 187.503 92.3444C187.044 94.9137 188.783 97.3742 191.377 97.8251L217.8 102.439C218.691 109.016 223.778 114.57 230.717 115.783L248.811 118.943C255.755 120.156 262.451 116.658 265.559 110.781L272.326 111.962L276.906 103.154L267.223 101.463H267.219ZM252.171 108.444L254.679 108.884C253.451 109.591 251.975 109.89 250.468 109.626L232.374 106.466C230.866 106.202 229.583 105.42 228.672 104.34L231.18 104.779C233.775 105.234 236.259 103.512 236.715 100.943C237.174 98.3732 235.435 95.9127 232.841 95.4618L230.333 95.0226C231.561 94.3152 233.037 94.0158 234.544 94.2801L252.638 97.4402C254.145 97.7045 255.429 98.4859 256.339 99.5665L253.831 99.1273C251.237 98.6725 248.752 100.394 248.297 102.964C247.838 105.533 249.577 107.993 252.171 108.444Z" fill="#4D1F1F" stroke="#4D1F1F" stroke-width="2.5" stroke-linecap="round" stroke-linejoin="round"/>
<path d="M164.389 58.3993C166.733 59.5888 169.618 58.6636 170.819 56.3431L186.915 25.1965L177.071 23.4785L162.317 52.0325C161.116 54.353 162.05 57.2099 164.393 58.3993H164.389Z" fill="#4D1F1F" stroke="#4D1F1F" stroke-width="2.5" stroke-linecap="round" stroke-linejoin="round"/>
<path d="M130.088 123.873C127.744 122.683 124.86 123.608 123.659 125.929L110.078 152.209L119.922 153.927L132.164 130.24C133.365 127.919 132.431 125.062 130.088 123.873Z" fill="#4D1F1F" stroke="#4D1F1F" stroke-width="2.5" stroke-linecap="round" stroke-linejoin="round"/>
<path d="M108.051 101.489C109.75 105.547 112.663 109.205 116.737 112.186L130.8 122.491L152.344 118.402" stroke="#4D1F1F" stroke-width="2.5" stroke-linecap="round" stroke-linejoin="round"/>
<path d="M313.035 67.0391L249.16 189.931C248.321 191.548 246.02 192.574 244.019 192.224L12.3984 151.78" stroke="#00BFE6" stroke-width="2.5" stroke-linecap="round" stroke-linejoin="round"/>
<path d="M310.375 61.0303L246.5 183.922C245.66 185.539 243.36 186.565 241.359 186.215L9.73828 145.771" stroke="#00BFE6" stroke-width="2.5" stroke-linecap="round" stroke-linejoin="round"/>
<path d="M307.711 55.0215L243.836 177.913C242.996 179.53 240.696 180.556 238.695 180.207L7.07422 139.762" stroke="#00BFE6" stroke-width="2.5" stroke-linecap="round" stroke-linejoin="round"/>
<path d="M315.692 73.0469L251.817 195.938C250.977 197.555 248.677 198.582 246.675 198.232L15.0547 157.787" stroke="#00BFE6" stroke-width="2.5" stroke-linecap="round" stroke-linejoin="round"/>
<path d="M119.921 153.924L131.048 177.946L101.886 172.683L94.3459 156.668C92.7877 153.361 95.6372 149.683 99.2678 150.317L119.921 153.924Z" fill="#4D1F1F" stroke="#4D1F1F" stroke-width="2.5" stroke-linecap="round" stroke-linejoin="round"/>
<path d="M89.839 169.481C86.1574 161.66 89.5839 152.331 97.4809 148.685C105.378 145.039 114.798 148.432 118.48 156.253L126.243 172.746C129.925 180.566 126.498 189.895 118.601 193.541C110.704 197.187 101.284 193.794 97.6026 185.973L89.839 169.481ZM109.825 160.253C108.369 157.163 104.644 155.818 101.524 157.26C98.4033 158.702 97.0453 162.391 98.5014 165.481L106.269 181.973C107.725 185.063 111.45 186.408 114.57 184.966C117.691 183.524 119.049 179.836 117.592 176.745L109.825 160.253Z" fill="#00BFE6" stroke="#00BFE6" stroke-width="2.5" stroke-linecap="round" stroke-linejoin="round"/>
<path d="M98.106 150.002C105.269 146.694 113.814 149.773 117.154 156.867L124.917 173.359C128.258 180.453 125.149 188.915 117.986 192.223M100.901 155.938C97.0423 157.718 95.3703 162.274 97.1679 166.095L104.935 182.587C106.733 186.408 111.333 188.064 115.191 186.284" stroke="#C4F5F5" stroke-width="2.5" stroke-linecap="round" stroke-linejoin="round"/>
<path d="M118.605 193.543C110.708 197.189 101.288 193.795 97.6065 185.974L89.8429 169.482C86.1613 161.661 89.5878 152.333 97.4848 148.687" stroke="#4D1F1F" stroke-width="2.5" stroke-linecap="round" stroke-linejoin="round"/>
<path d="M114.57 184.967C117.69 183.525 119.048 179.837 117.592 176.746L109.825 160.254C108.369 157.164 104.644 155.819 101.523 157.261" stroke="#4D1F1F" stroke-width="2.5" stroke-linecap="round" stroke-linejoin="round"/>
<path d="M165.393 55.3893C164.192 57.7098 161.307 58.635 158.964 57.4455C156.621 56.2561 155.686 53.3992 156.887 51.0787L175.303 15.4425C176.504 13.1219 179.389 12.1968 181.732 13.3862C184.076 14.5757 185.01 17.4326 183.809 19.7531L165.393 55.3893Z" fill="#00BFE6" stroke="#00BFE6" stroke-width="2.5" stroke-linecap="round" stroke-linejoin="round"/>
<path d="M159.636 56.1473C158.011 55.3232 157.368 53.3485 158.2 51.7393L176.616 16.1033C177.448 14.4941 179.442 13.8566 181.067 14.6806" stroke="#C4F5F5" stroke-width="2.5" stroke-linecap="round" stroke-linejoin="round"/>
<path d="M181.734 13.3848C184.077 14.5742 185.011 17.4311 183.81 19.7516L165.394 55.3878C164.193 57.7084 161.308 58.6335 158.965 57.4441" stroke="#4D1F1F" stroke-width="2.5" stroke-linecap="round" stroke-linejoin="round"/>
<path d="M111.096 184.067C108.502 183.612 106.763 181.155 107.222 178.586C107.681 176.017 110.162 174.295 112.756 174.75L152.567 181.7C155.162 182.155 156.9 184.611 156.441 187.18C155.982 189.75 153.501 191.472 150.907 191.017L111.096 184.067Z" fill="#00BFE6" stroke="#00BFE6" stroke-width="2.5" stroke-linecap="round" stroke-linejoin="round"/>
<path d="M108.672 178.838C108.99 177.058 110.709 175.868 112.503 176.179L152.314 183.129C154.111 183.444 155.312 185.147 154.998 186.923" stroke="#C4F5F5" stroke-width="2.5" stroke-linecap="round" stroke-linejoin="round"/>
<path d="M156.445 187.184C155.986 189.753 153.505 191.475 150.911 191.02L111.1 184.071C108.505 183.616 106.767 181.159 107.226 178.59" stroke="#4D1F1F" stroke-width="2.5" stroke-linecap="round" stroke-linejoin="round"/>
<path d="M272.328 111.96L283.153 135.647L297.982 107.043L290.022 89.042L274.97 106.88L272.328 111.96Z" fill="#4D1F1F" stroke="#4D1F1F" stroke-width="2.5" stroke-linecap="round" stroke-linejoin="round"/>
<path d="M54.7866 79.5168C46.2066 78.0203 40.4566 69.8847 41.9677 61.3877C43.4788 52.8907 51.6937 47.1964 60.2737 48.6929L78.3678 51.853C86.9478 53.3495 92.6979 61.485 91.1868 69.982C89.6757 78.479 81.4607 84.1734 72.8807 82.6769L54.7866 79.5168ZM58.6135 58.0139C55.2223 57.4231 51.9763 59.6735 51.3758 63.0319C50.7792 66.3903 53.0518 69.6048 56.443 70.1995L74.5371 73.3598C77.9282 73.9506 81.1742 71.7 81.7747 68.3416C82.3713 64.9833 80.0988 61.7687 76.7076 61.174L58.6135 58.0139Z" fill="#00BFE6" stroke="#00BFE6" stroke-width="2.5" stroke-linecap="round" stroke-linejoin="round"/>
<path d="M43.4141 61.6418C44.7878 53.9338 52.2335 48.7681 60.0167 50.1286L78.1108 53.2887C85.894 54.6491 91.1103 62.0227 89.7366 69.7306M49.9296 62.7807C49.1917 66.932 51.998 70.9008 56.1899 71.6354L74.284 74.7955C78.4758 75.5263 82.4872 72.747 83.2251 68.5957" stroke="#C4F5F5" stroke-width="2.5" stroke-linecap="round" stroke-linejoin="round"/>
<path d="M91.1868 69.982C89.6757 78.479 81.4607 84.1734 72.8807 82.6769L54.7866 79.5168C46.2066 78.0203 40.4566 69.8847 41.9677 61.3877" stroke="#4D1F1F" stroke-width="2.5" stroke-linecap="round" stroke-linejoin="round"/>
<path d="M81.7817 68.3401C82.3783 64.9817 80.1058 61.767 76.7146 61.1722L58.6205 58.0122C55.2293 57.4213 51.9833 59.672 51.3828 63.0303" stroke="#4D1F1F" stroke-width="2.5" stroke-linecap="round" stroke-linejoin="round"/>
<path d="M116.051 79.1301C118.646 79.5848 121.13 77.8629 121.586 75.2935C122.045 72.7242 120.306 70.2637 117.712 69.8128L77.9007 62.8629C75.3063 62.4081 72.8218 64.1301 72.3665 66.6994C71.9073 69.2687 73.6461 71.7292 76.2405 72.1801L116.051 79.1301Z" fill="#00BFE6" stroke="#00BFE6" stroke-width="2.5" stroke-linecap="round" stroke-linejoin="round"/>
<path d="M120.135 75.0412C120.453 73.261 119.248 71.5624 117.45 71.2476L77.6394 64.2975C75.8417 63.9826 74.1265 65.1761 73.8086 66.9563" stroke="#C4F5F5" stroke-width="2.5" stroke-linecap="round" stroke-linejoin="round"/>
<path d="M72.3665 66.6973C71.9073 69.2666 73.6461 71.7271 76.2405 72.178L116.051 79.1279C118.646 79.5827 121.13 77.8607 121.586 75.2914" stroke="#4D1F1F" stroke-width="2.5" stroke-linecap="round" stroke-linejoin="round"/>
<path d="M55.2529 68.512C57.8473 68.9668 60.3318 67.2448 60.7871 64.6755C61.2464 62.1062 59.5076 59.6459 56.9132 59.195L20.721 52.8746C18.1266 52.4198 15.6421 54.1418 15.1868 56.7111C14.7276 59.2804 16.4664 61.741 19.0608 62.1919L55.2529 68.512Z" fill="#00BFE6" stroke="#00BFE6" stroke-width="2.5" stroke-linecap="round" stroke-linejoin="round"/>
<path d="M59.3365 64.4183C59.6545 62.6381 58.4495 60.9393 56.6519 60.6245L20.4597 54.3043C18.662 53.9895 16.9468 55.1827 16.6289 56.963" stroke="#C4F5F5" stroke-width="2.5" stroke-linecap="round" stroke-linejoin="round"/>
<path d="M15.1868 56.7119C14.7276 59.2812 16.4664 61.7417 19.0608 62.1926L55.2529 68.5128C57.8473 68.9676 60.3318 67.2456 60.7871 64.6763" stroke="#4D1F1F" stroke-width="2.5" stroke-linecap="round" stroke-linejoin="round"/>
<path d="M129.26 136.17L115.197 125.866C104.474 118.006 101.777 105.505 108.155 93.2342L127.972 55.1104L207.59 69.0142L187.773 107.138C181.395 119.409 167.23 128.968 150.804 132.085L129.26 136.174V136.17Z" fill="#4D1F1F" stroke="#4D1F1F" stroke-width="2.5" stroke-linecap="round" stroke-linejoin="round"/>
<path d="M199.607 50.9854L105.494 87.2239C103.963 90.1703 102.958 93.1321 102.46 96.0395L98.5742 97.2563L103.849 109.154C105.549 113.212 109.78 117.1 113.854 120.085L127.917 130.389L148.143 126.071C164.569 122.953 178.734 113.395 185.112 101.128L204.929 63L199.607 50.9854Z" fill="#FF5C4D" stroke="#FF5C4D" stroke-width="2.5" stroke-linecap="round" stroke-linejoin="round"/>
<path d="M121.268 118.146L107.204 107.841C96.4814 99.9818 93.7849 87.4811 100.163 75.2098L119.98 37.0859L199.598 50.9898L179.781 89.1136C173.403 101.385 159.238 110.943 142.812 114.061L121.268 118.15V118.146Z" fill="#FFE28D" stroke="#FF5C4D" stroke-width="2.5" stroke-linecap="round" stroke-linejoin="round"/>
<path d="M166.201 73.1889C164.882 75.7272 161.263 77.3442 158.124 76.7922C154.984 76.2441 153.508 73.7408 154.827 71.2025C156.145 68.6643 159.764 67.0473 162.904 67.5993C166.044 68.1512 167.52 70.6507 166.201 73.1889Z" fill="#FF5C4D" stroke="#FF5C4D" stroke-width="2.5" stroke-linecap="round" stroke-linejoin="round"/>
<path d="M164.904 70.0042C163.585 72.5424 159.967 74.1594 156.827 73.6074C153.687 73.0594 152.211 70.5562 153.53 68.018C154.848 65.4798 158.467 63.8628 161.607 64.4147C164.747 64.9628 166.223 67.466 164.904 70.0042Z" fill="#FFE28D" stroke="#FF5C4D" stroke-width="2.5" stroke-linecap="round" stroke-linejoin="round"/>
<path d="M154.711 70.7128C154.413 70.1181 154.456 69.4184 154.837 68.6877C155.704 67.0202 158.071 65.7646 160.348 65.7646C160.693 65.7646 161.031 65.7918 161.352 65.8501C162.491 66.0483 163.354 66.5847 163.723 67.3155" stroke="#FBFCF9" stroke-width="2.5" stroke-linecap="round" stroke-linejoin="round"/>
<path d="M121.268 118.146L107.204 107.841C96.4814 99.9818 93.7849 87.4811 100.163 75.2098L119.98 37.0859L199.598 50.9898L179.781 89.1136C173.403 101.385 159.238 110.943 142.812 114.061L121.268 118.15V118.146ZM126.574 48.2651L111.538 77.196C106.981 85.9612 108.912 94.8898 116.569 100.503L126.613 107.865L142.003 104.945C153.739 102.718 163.857 95.8926 168.41 87.1274L183.447 58.1963L126.574 48.2651Z" fill="#FFE28D" stroke="#FF5C4D" stroke-width="2.5" stroke-linecap="round" stroke-linejoin="round"/>
<path d="M98.5687 92.0174C97.6816 86.9177 98.6158 81.3747 101.473 75.8746L120.796 38.7031L197.384 52.0784M108.589 92.3905C109.822 95.9316 112.208 99.1188 115.697 101.676L126.259 109.416L142.281 106.376C154.448 104.067 164.963 96.946 169.72 87.796L185.672 57.1082" stroke="#FBFCF9" stroke-width="2.5" stroke-linecap="round" stroke-linejoin="round"/>
<path d="M112.841 80.3801L127.878 51.4491L182.042 60.9062L183.451 58.1969L126.579 48.2656L111.542 77.1965C108.426 83.1903 108.347 89.2619 111.055 94.2956C109.807 89.981 110.361 85.1572 112.841 80.3762V80.3801Z" fill="#FF5C4D" stroke="#FF5C4D" stroke-width="2.5" stroke-linecap="round" stroke-linejoin="round"/>
<path d="M103.855 109.159C105.555 113.217 109.786 117.104 113.86 120.089L127.923 130.394L148.149 126.075C164.575 122.958 178.74 113.4 185.118 101.132L204.935 63.0049" stroke="#4D1F1F" stroke-width="2.5" stroke-linecap="round" stroke-linejoin="round"/>
<path d="M228.056 109.766C219.476 108.269 213.726 100.134 215.237 91.6369C216.748 83.1399 224.963 77.4454 233.543 78.9419L251.637 82.102C260.217 83.5985 265.967 91.734 264.456 100.231C262.945 108.728 254.73 114.423 246.15 112.926L228.056 109.766ZM231.887 88.2629C228.496 87.6721 225.25 89.9227 224.649 93.2811C224.053 96.6395 226.325 99.854 229.716 100.449L247.811 103.609C251.202 104.2 254.448 101.949 255.048 98.5907C255.645 95.2323 253.372 92.0177 249.981 91.423L231.887 88.2629Z" fill="#00BFE6" stroke="#00BFE6" stroke-width="2.5" stroke-linecap="round" stroke-linejoin="round"/>
<path d="M216.688 91.891C218.061 84.183 225.507 79.0171 233.29 80.3776L251.384 83.5377C259.167 84.8981 264.384 92.2719 263.01 99.9798M223.199 93.0297C222.461 97.1811 225.268 101.154 229.459 101.884L247.553 105.045C251.745 105.775 255.753 102.996 256.495 98.8449" stroke="#C4F5F5" stroke-width="2.5" stroke-linecap="round" stroke-linejoin="round"/>
<path d="M264.46 100.231C262.949 108.728 254.734 114.422 246.154 112.926L228.06 109.766C219.48 108.269 213.73 100.134 215.241 91.6367" stroke="#4D1F1F" stroke-width="2.5" stroke-linecap="round" stroke-linejoin="round"/>
<path d="M255.051 98.5908C255.648 95.2325 253.375 92.0179 249.984 91.4232L231.89 88.2631C228.499 87.6723 225.253 89.9229 224.652 93.2813" stroke="#4D1F1F" stroke-width="2.5" stroke-linecap="round" stroke-linejoin="round"/>
<path d="M275.652 111.301C271.97 103.48 275.396 94.1514 283.293 90.5053C291.19 86.8593 300.61 90.2528 304.292 98.0734L312.056 114.566C315.737 122.387 312.311 131.716 304.414 135.362C296.517 139.008 287.097 135.614 283.415 127.793L275.652 111.301ZM295.637 102.073C294.181 98.983 290.457 97.638 287.336 99.0801C284.216 100.522 282.858 104.211 284.314 107.301L292.081 123.794C293.538 126.884 297.262 128.229 300.383 126.787C303.503 125.345 304.861 121.656 303.405 118.566L295.637 102.073Z" fill="#00BFE6" stroke="#00BFE6" stroke-width="2.5" stroke-linecap="round" stroke-linejoin="round"/>
<path d="M283.919 91.8226C291.082 88.5148 299.626 91.5933 302.966 98.6871L310.73 115.18C314.07 122.273 310.962 130.736 303.798 134.043M286.713 97.7581C282.855 99.5383 281.183 104.094 282.98 107.915L290.748 124.407C292.546 128.228 297.146 129.884 301.004 128.104" stroke="#C4F5F5" stroke-width="2.5" stroke-linecap="round" stroke-linejoin="round"/>
<path d="M304.418 135.361C296.521 139.007 287.101 135.614 283.419 127.793L275.655 111.3C271.974 103.48 275.4 94.1509 283.297 90.5049" stroke="#4D1F1F" stroke-width="2.5" stroke-linecap="round" stroke-linejoin="round"/>
<path d="M300.383 126.788C303.503 125.346 304.861 121.657 303.405 118.567L295.637 102.074C294.181 98.984 290.456 97.639 287.336 99.0811" stroke="#4D1F1F" stroke-width="2.5" stroke-linecap="round" stroke-linejoin="round"/>
<path d="M188.721 91.8176C186.127 91.3629 184.388 88.9062 184.847 86.3369C185.306 83.7676 187.787 82.0458 190.381 82.5006L230.192 89.4505C232.787 89.9053 234.525 92.3619 234.066 94.9312C233.607 97.5006 231.126 99.2224 228.532 98.7676L188.721 91.8176Z" fill="#00BFE6" stroke="#00BFE6" stroke-width="2.5" stroke-linecap="round" stroke-linejoin="round"/>
<path d="M186.289 86.5891C186.607 84.8088 188.326 83.6193 190.12 83.9303L229.931 90.8804C231.728 91.1952 232.929 92.8976 232.615 94.674" stroke="#C4F5F5" stroke-width="2.5" stroke-linecap="round" stroke-linejoin="round"/>
<path d="M234.058 94.9312C233.599 97.5005 231.119 99.2223 228.524 98.7676L188.713 91.8176C186.119 91.3629 184.38 88.9062 184.839 86.3369" stroke="#4D1F1F" stroke-width="2.5" stroke-linecap="round" stroke-linejoin="round"/>
<path d="M249.506 102.43C246.912 101.975 245.173 99.5185 245.632 96.9492C246.091 94.3799 248.572 92.6581 251.166 93.1129L290.977 100.063C293.572 100.518 295.31 102.974 294.851 105.544C294.392 108.113 291.912 109.835 289.317 109.38L249.506 102.43Z" fill="#00BFE6" stroke="#00BFE6" stroke-width="2.5" stroke-linecap="round" stroke-linejoin="round"/>
<path d="M247.082 97.2012C247.4 95.421 249.119 94.2316 250.913 94.5426L290.724 101.492C292.521 101.807 293.722 103.51 293.408 105.286" stroke="#C4F5F5" stroke-width="2.5" stroke-linecap="round" stroke-linejoin="round"/>
<path d="M294.851 105.542C294.392 108.111 291.912 109.833 289.317 109.378L249.506 102.428C246.912 101.973 245.173 99.5166 245.632 96.9473" stroke="#4D1F1F" stroke-width="2.5" stroke-linecap="round" stroke-linejoin="round"/>
<path d="M283.494 158.769C282.285 161.086 279.397 161.999 277.057 160.802C274.718 159.605 273.796 156.744 275.005 154.428L293.558 118.857C294.767 116.541 297.655 115.627 299.995 116.825C302.334 118.022 303.256 120.883 302.048 123.199L283.494 158.769Z" fill="#00BFE6" stroke="#00BFE6" stroke-width="2.5" stroke-linecap="round" stroke-linejoin="round"/>
<path d="M294.859 119.528C295.519 118.269 296.963 117.557 298.376 117.806C298.702 117.864 299.02 117.969 299.318 118.121C300.939 118.949 301.575 120.931 300.739 122.533" stroke="#C4F5F5" stroke-width="2.5" stroke-linecap="round" stroke-linejoin="round"/>
<path d="M291.937 121.964L275.005 154.432C273.796 156.749 274.718 159.609 277.057 160.807C279.397 162.004 282.285 161.09 283.494 158.774L300.387 126.788" stroke="#4D1F1F" stroke-width="2.5" stroke-linecap="round" stroke-linejoin="round"/>
<path d="M108.319 164.923C107.118 167.244 104.233 168.169 101.889 166.98C99.5463 165.79 98.6122 162.933 99.8132 160.613L118.229 124.977C119.43 122.656 122.315 121.731 124.658 122.92C127.001 124.11 127.936 126.967 126.735 129.287L108.319 164.923Z" fill="#00BFE6" stroke="#00BFE6" stroke-width="2.5" stroke-linecap="round" stroke-linejoin="round"/>
<path d="M102.558 165.685C100.933 164.861 100.29 162.887 101.122 161.278L119.538 125.641C120.37 124.032 122.364 123.395 123.989 124.219" stroke="#C4F5F5" stroke-width="2.5" stroke-linecap="round" stroke-linejoin="round"/>
<path d="M124.659 122.924C127.003 124.113 127.937 126.97 126.736 129.291L108.32 164.927C107.119 167.247 104.234 168.173 101.891 166.983" stroke="#4D1F1F" stroke-width="2.5" stroke-linecap="round" stroke-linejoin="round"/>
</svg>
