<svg width="375" height="799" viewBox="0 0 375 799" fill="none" xmlns="http://www.w3.org/2000/svg">
<path d="M86.705 209.467C86.705 209.467 42.8877 261.461 62.4375 313.343H127.349C129.518 313.343 131.276 311.58 131.276 309.406V289.006L128.429 280.77L114.732 276.749C111.28 275.733 107.548 276.525 104.803 278.848L97.8801 284.697C95.7307 286.516 92.4371 285.713 91.3484 283.111L89.5429 278.783C89.0869 277.692 89.236 276.451 89.9245 275.499L118.631 238.076L86.6959 209.458L86.705 209.467Z" fill="#FFBB99"/>
<path d="M117.773 304.343L131.284 305.453" stroke="#4D1F1F" stroke-width="3.7317" stroke-linecap="round" stroke-linejoin="round"/>
<path d="M117.773 294.985L131.284 297.206" stroke="#4D1F1F" stroke-width="3.7317" stroke-linecap="round" stroke-linejoin="round"/>
<path d="M117.773 285.6L131.284 288.93" stroke="#4D1F1F" stroke-width="3.7317" stroke-linecap="round" stroke-linejoin="round"/>
<path d="M64.4757 246.76C61.1445 255.911 58.5484 266.097 57.7109 276.768C61.9168 272.524 67.6767 269.726 73.6226 269.819C81.3736 269.94 88.1939 274.735 91.2739 281.796L89.5524 277.682C89.0964 276.591 89.2455 275.35 89.934 274.399L102.691 256.797C96.187 250.296 87.3567 246.154 78.2006 245.408C73.5946 245.035 68.9326 245.52 64.4848 246.77L64.4757 246.76Z" fill="#FFE28D"/>
<path d="M102.66 256.797C96.1553 250.296 87.325 246.154 78.1689 245.408C73.5629 245.035 68.9009 245.52 64.4531 246.77" stroke="#FF5B4D" stroke-width="3.7317" stroke-linecap="round" stroke-linejoin="round"/>
<path d="M91.2628 282.913C88.1829 275.852 81.3626 271.066 73.6115 270.936C67.6749 270.843 61.9057 273.641 57.6999 277.885C56.7973 289.368 57.9417 301.419 62.436 313.35H129.562C131.73 313.35 133.489 311.587 133.489 309.413" stroke="#4D1F1F" stroke-width="3.7317" stroke-linecap="round" stroke-linejoin="round"/>
<path d="M89.9219 277.715L115.139 242.895" stroke="#4D1F1F" stroke-width="3.7317" stroke-linecap="round" stroke-linejoin="round"/>
<path d="M228.509 115.997C235.693 107.49 239.471 96.1658 238.838 85.0376C238.289 75.4486 234.241 63.6487 226.769 57.1658C224.164 54.9085 221.568 52.5766 218.963 50.2446C215.65 41.5977 208.82 34.3032 200.315 30.6467C195.188 28.4453 189.661 27.4099 184.115 27.382L184.134 27.3633H174.95L174.968 27.382C169.562 27.4566 164.184 28.5013 159.187 30.6467C150.682 34.3032 143.852 41.5977 140.54 50.2446C137.934 52.5766 135.339 54.9085 132.733 57.1658C125.261 63.6394 121.204 75.4486 120.665 85.0376C120.032 96.1658 123.81 107.49 130.993 115.997C115.668 129.252 108.819 148.187 116.915 172.953H242.597C250.693 148.187 243.844 129.252 228.519 115.997H228.509Z" fill="#4D1F1F" stroke="#4D1F1F" stroke-width="3.7317" stroke-linecap="round" stroke-linejoin="round"/>
<path d="M233.958 307.662L245.524 330.152C257.36 353.173 264.897 378.171 267.754 403.907L280.139 515.161L307.765 712.417H270.741L234.302 597.153C229.361 581.529 226.04 565.429 224.393 549.124L220.857 514.265L184.688 406.304C183.088 401.529 176.342 401.529 174.741 406.304L138.573 514.265L135.037 549.124C133.381 565.429 130.058 581.529 125.127 597.153L88.6887 712.417H51.6641L79.2905 515.161L91.6755 403.907C94.5415 378.171 102.079 353.173 113.905 330.152L125.471 307.662H233.949H233.958Z" fill="#00BFE6"/>
<path d="M267.804 403.931L179.769 313.114L91.7344 403.931" stroke="#4D1F1F" stroke-width="3.7317" stroke-linecap="round" stroke-linejoin="round"/>
<path d="M307.765 712.445H270.741L234.303 597.18C229.362 581.556 226.04 565.456 224.393 549.151L220.857 514.293L184.688 406.332C183.088 401.556 176.342 401.556 174.741 406.332L138.573 514.293L135.037 549.151C133.381 565.456 130.059 581.556 125.127 597.18L88.6887 712.445H51.6641" stroke="#4D1F1F" stroke-width="3.7317" stroke-linecap="round" stroke-linejoin="round"/>
<path d="M114.64 238.218H244.891L273.718 275.8C274.416 276.761 274.556 278.011 274.1 279.102L272.285 283.449C271.196 286.061 267.893 286.863 265.725 285.035L258.774 279.167C256.011 276.835 252.27 276.042 248.799 277.059L235.046 281.089L232.19 289.363V309.847C232.19 312.029 233.958 313.802 236.135 313.802H301.326C320.959 261.696 276.956 209.488 276.956 209.488L273.29 192.912C270.285 179.322 258.644 169.369 244.779 168.548L212.417 166.617C204.722 166.16 198.72 159.77 198.72 152.047V137.691L179.766 142.635L160.811 137.691V152.047C160.811 159.77 154.809 166.16 147.114 166.617L118.083 168.548C104.218 169.378 92.5777 179.322 89.5722 192.912L86.7344 209.488L114.64 238.227V238.218Z" fill="#FFBB99"/>
<path d="M245.746 296.409L232.18 297.529" stroke="#4D1F1F" stroke-width="3.7317" stroke-linecap="round" stroke-linejoin="round"/>
<path d="M245.746 287.02L232.18 289.249" stroke="#4D1F1F" stroke-width="3.7317" stroke-linecap="round" stroke-linejoin="round"/>
<path d="M245.746 277.607L232.18 280.947" stroke="#4D1F1F" stroke-width="3.7317" stroke-linecap="round" stroke-linejoin="round"/>
<path d="M232.195 283.232H127.328V307.671H232.195V283.232Z" fill="#4D1F1F"/>
<path d="M233.174 198.76H226.549C210.926 198.76 195.778 204.151 183.644 214.02L179.727 217.21L175.809 214.02C163.675 204.142 148.527 198.76 132.904 198.76H126.278L110.516 229.01C110.516 243.16 121.682 255.585 121.682 255.585L127.283 283.233H232.151L237.752 255.585C237.752 255.585 248.918 243.16 248.918 229.01L233.156 198.76H233.174Z" fill="#FF5C4D"/>
<path d="M132.905 221.744C148.528 221.744 163.677 228.236 175.81 240.138L179.728 243.981L183.646 240.138C195.779 228.236 210.928 221.744 226.551 221.744H245.151L233.176 198.76H226.551C210.928 198.76 195.779 204.151 183.646 214.02L179.728 217.21L175.81 214.02C163.677 204.142 148.528 198.76 132.905 198.76H126.28L114.305 221.744H132.905Z" fill="#FF5C4D"/>
<path d="M245.151 221.757H226.551C210.928 221.757 195.779 228.249 183.646 240.151L179.728 243.995L175.81 240.151C163.677 228.249 148.528 221.757 132.905 221.757H114.305" stroke="#4D1F1F" stroke-width="3.7317" stroke-linecap="round" stroke-linejoin="round"/>
<path d="M179.727 217.215V206.134" stroke="#4D1F1F" stroke-width="3.7317" stroke-linecap="round" stroke-linejoin="round"/>
<path d="M186.113 309.903L179.739 313.102L173.365 309.903C168.536 307.477 165.484 302.534 165.484 297.114V279.736H194.013V297.114C194.013 302.534 190.961 307.477 186.132 309.903H186.113Z" fill="#FFE88C"/>
<path d="M183.353 292.826C185.321 292.826 186.917 291.226 186.917 289.253C186.917 287.28 185.321 285.681 183.353 285.681C181.385 285.681 179.789 287.28 179.789 289.253C179.789 291.226 181.385 292.826 183.353 292.826Z" fill="#FF5C4D"/>
<path d="M193.995 279.736V297.114C193.995 302.534 190.943 307.477 186.113 309.903L179.739 313.102L173.365 309.903C168.536 307.477 165.484 302.534 165.484 297.114V279.736" stroke="#4D1F1F" stroke-width="3.7317" stroke-linecap="round" stroke-linejoin="round"/>
<path d="M182.461 17.0738V2" stroke="#4D1F1F" stroke-width="3.7317" stroke-linecap="round" stroke-linejoin="round"/>
<path d="M243.758 49.987L251.76 43.5684" stroke="#4D1F1F" stroke-width="3.7317" stroke-linecap="round" stroke-linejoin="round"/>
<path d="M285.492 239.431C276.289 240.187 267.421 244.338 260.898 250.876L273.702 268.553C274.4 269.514 274.539 270.764 274.084 271.855L272.362 275.987C275.461 268.898 282.309 264.085 290.088 263.964C296.053 263.87 301.85 266.678 306.065 270.941C305.227 260.223 302.613 249.99 299.272 240.802C294.806 239.543 290.125 239.058 285.501 239.431H285.492Z" fill="#FFE88C"/>
<path d="M299.263 240.802C294.797 239.543 290.116 239.058 285.492 239.431C276.289 240.187 267.421 244.338 260.898 250.876" stroke="#FF5B4D" stroke-width="3.7317" stroke-linecap="round" stroke-linejoin="round"/>
<path d="M272.371 274.886C275.47 267.797 282.319 262.984 290.098 262.863C296.062 262.769 301.859 265.577 306.074 269.84C306.977 281.369 305.833 293.477 301.32 305.454H233.914C231.737 305.454 229.969 303.681 229.969 301.499" stroke="#4D1F1F" stroke-width="3.7317" stroke-linecap="round" stroke-linejoin="round"/>
<path d="M121.682 255.585C121.682 255.585 110.516 243.16 110.516 229.01L126.278 198.76L120.509 202.22" stroke="#4D1F1F" stroke-width="3.7317" stroke-linecap="round" stroke-linejoin="round"/>
<path d="M273.68 269.673L248.352 234.703" stroke="#4D1F1F" stroke-width="3.7317" stroke-linecap="round" stroke-linejoin="round"/>
<path d="M237.768 255.585C237.768 255.585 248.934 243.16 248.934 229.01L233.172 198.76L238.941 202.22" stroke="#4D1F1F" stroke-width="3.7317" stroke-linecap="round" stroke-linejoin="round"/>
<path d="M245.544 330.175L241.673 221.757H208.398V327.134C208.398 361.05 218.336 391.534 241.031 406.701L270.268 426.233L267.783 403.93C264.917 378.195 257.38 353.196 245.553 330.175H245.544Z" fill="#4D1F1F" stroke="#4D1F1F" stroke-width="3.7317" stroke-linecap="round" stroke-linejoin="round"/>
<path d="M208.391 221.761L226.927 327.138C232.891 361.054 252.347 391.538 277.713 406.705L310.978 426.601H322.07L320.767 419.185L337.246 406.705C357.271 391.538 366.008 361.045 360.043 327.138L341.508 221.761H208.391Z" fill="#FF5C4D" stroke="#FF5B4D" stroke-width="3.7317" stroke-linecap="round" stroke-linejoin="round"/>
<path d="M322.088 426.601L288.822 406.705C263.457 391.538 244 361.045 238.035 327.138L219.5 221.761H352.617L371.153 327.138C377.117 361.054 368.38 391.538 348.356 406.705L322.088 426.601Z" fill="#FFE88C" stroke="#FFE680" stroke-width="3.7317" stroke-linecap="round" stroke-linejoin="round"/>
<path d="M242.992 247.179L257.061 327.137C261.323 351.362 275.225 373.143 293.341 383.972L317.106 398.179L335.865 383.972C350.167 373.143 356.411 351.362 352.149 327.137L338.08 247.179H243.002H242.992Z" stroke="#FF5B4D" stroke-width="3.7317" stroke-linecap="round" stroke-linejoin="round"/>
<path d="M306.708 285.301C305.47 278.287 308.727 272.597 313.984 272.597C319.241 272.597 324.49 278.287 325.727 285.301C326.965 292.316 323.708 298.006 318.451 298.006C313.194 298.006 307.945 292.316 306.708 285.301Z" fill="#FF5C4D" stroke="#FF5B4D" stroke-width="3.7317" stroke-linecap="round" stroke-linejoin="round"/>
<path d="M168.672 402.719H190.855" stroke="#4D1F1F" stroke-width="3.7317" stroke-linecap="round" stroke-linejoin="round"/>
<path d="M127.673 588.722H51.6513V734.824C51.6513 744.152 47.306 752.939 39.8992 758.582L2 787.452C2 792.722 6.26167 796.994 11.519 796.994H86.815V750.56C86.815 746.186 87.3824 741.839 88.4897 737.604L127.682 588.722H127.673Z" fill="#4D1F1F" stroke="#4D1F1F" stroke-width="3.7317" stroke-linecap="round" stroke-linejoin="round"/>
<path d="M322.086 426.597L348.354 406.701C368.378 391.534 377.116 361.041 371.151 327.134L352.615 221.757" stroke="#FF5B4D" stroke-width="3.7317" stroke-linecap="round" stroke-linejoin="round"/>
<path d="M231.838 588.722H307.859V734.824C307.859 744.152 312.205 752.939 319.611 758.582L357.511 787.452C357.511 792.722 353.249 796.994 347.992 796.994H272.696V750.56C272.696 746.186 272.128 741.839 271.021 737.604L231.828 588.722H231.838Z" fill="#4D1F1F" stroke="#4D1F1F" stroke-width="3.7317" stroke-linecap="round" stroke-linejoin="round"/>
<path d="M208.398 221.757L226.934 327.134C232.899 361.05 252.355 391.534 277.721 406.701L310.986 426.597H322.078L348.346 406.701" stroke="#4D1F1F" stroke-width="3.7317" stroke-linecap="round" stroke-linejoin="round"/>
<path d="M56.1406 712.419L69.0281 588.722L120.522 615.866" stroke="#FF5B4D" stroke-width="3.7317" stroke-linecap="round" stroke-linejoin="round"/>
<path d="M303.375 712.419L290.488 588.722L238.984 615.866" stroke="#FF5B4D" stroke-width="3.7317" stroke-linecap="round" stroke-linejoin="round"/>
<path d="M301.328 204.976L309.172 197.159" stroke="#FF5B4D" stroke-width="3.7317" stroke-linecap="round" stroke-linejoin="round"/>
<path d="M165.594 34.8837C165.919 33.8017 166.394 32.7663 167.018 31.8335C168.395 29.7627 170.479 28.1861 172.805 27.4492" stroke="#00BFE6" stroke-width="3.7317" stroke-linecap="round" stroke-linejoin="round"/>
<path d="M171.812 144.686H187.621C193.744 144.686 198.713 139.948 198.713 134.108V124.482C198.713 122.728 197.224 121.311 195.382 121.311H164.042C162.2 121.311 160.711 122.728 160.711 124.482V134.108C160.711 139.948 165.68 144.686 171.803 144.686H171.812Z" fill="#FF5C4D"/>
<path d="M213.54 64.5447C216.117 78.0608 215.866 97.3976 206.366 120.587C204.105 126.1 198.82 129.681 192.985 129.681H157.17C143.669 102.453 142.971 79.7958 145.883 64.5447C149.019 48.1277 163.414 36.5146 179.707 36.5146C196 36.5146 210.395 48.1277 213.53 64.5447H213.54Z" fill="#FF5C4D"/>
<path d="M213.582 75.1405C210.446 59.8894 196.051 49.1064 179.758 49.1064C163.465 49.1064 149.07 59.8894 145.934 75.1405C144.399 82.6121 143.869 92.0147 145.702 102.947C146.614 108.394 153.295 121.733 157.417 129.587C159.362 133.3 163.335 135.641 167.689 135.641H191.873C196.21 135.641 200.173 133.309 202.128 129.615C206.212 121.864 212.819 108.777 213.749 103.423C215.675 92.2852 215.154 82.724 213.591 75.1405H213.582Z" fill="#FFBB99"/>
<path d="M167.626 135.658H191.809C196.146 135.658 200.11 133.326 202.064 129.632C206.158 121.88 212.765 108.784 213.686 103.439V92.8613C213.686 92.8613 204.548 111.023 201.403 117.328C198.714 122.701 193.029 126.124 186.785 126.124H173.023C166.779 126.124 161.094 122.701 158.405 117.328C156.255 113.028 144.484 92.8613 144.484 92.8613L145.647 102.954C146.559 108.402 153.24 121.74 157.362 129.594C159.307 133.307 163.28 135.648 167.635 135.648L167.626 135.658Z" fill="#FF5C4D"/>
<path d="M213.582 75.1405C210.446 59.8894 196.051 49.1064 179.758 49.1064C163.465 49.1064 149.07 59.8894 145.934 75.1405C144.399 82.6121 143.869 92.0147 145.702 102.947C146.614 108.394 153.295 121.733 157.417 129.587C159.362 133.3 163.335 135.641 167.689 135.641H191.873C196.21 135.641 200.173 133.309 202.128 129.615C206.212 121.864 212.819 108.777 213.749 103.423C215.675 92.2852 215.154 82.724 213.591 75.1405H213.582Z" stroke="#4D1F1F" stroke-width="3.7317" stroke-linecap="round" stroke-linejoin="round"/>
<path d="M156.398 68.0321C161.172 66.3621 168.42 67.2764 172.412 70.383L172.654 68.1815L164.522 67.3977" stroke="#4D1F1F" stroke-width="3.7317" stroke-linecap="round" stroke-linejoin="round"/>
<path d="M202.562 68.2035C197.826 66.431 190.559 67.2146 186.492 70.2279L186.297 68.0261L195.146 67.3731" stroke="#4D1F1F" stroke-width="3.7317" stroke-linecap="round" stroke-linejoin="round"/>
<path d="M186.055 57.5508L179.718 59.9854L173.382 57.5508C168.58 55.7038 165.547 51.9261 165.547 47.8032V34.5576H193.899V47.8032C193.899 51.9354 190.866 55.7038 186.064 57.5508H186.055Z" fill="#FFE88C"/>
<path d="M183.334 44.5519C185.292 44.5519 186.88 43.3323 186.88 41.8278C186.88 40.3233 185.292 39.1035 183.334 39.1035C181.376 39.1035 179.789 40.3233 179.789 41.8278C179.789 43.3323 181.376 44.5519 183.334 44.5519Z" fill="#FF5C4D"/>
<path d="M193.89 34.5576V47.8032C193.89 51.9354 190.857 55.7038 186.055 57.5508L179.718 59.9854L173.382 57.5508C168.58 55.7038 165.547 51.9261 165.547 47.8032V34.5576" stroke="#4D1F1F" stroke-width="3.7317" stroke-linecap="round" stroke-linejoin="round"/>
<path d="M131.172 41.8217L124.305 34.8818" stroke="#4D1F1F" stroke-width="3.7317" stroke-linecap="round" stroke-linejoin="round"/>
<path d="M177.695 82.3945L166.055 89.3998L173.694 97.0673" stroke="#4D1F1F" stroke-width="3.7317" stroke-linecap="round" stroke-linejoin="round"/>
<path d="M171.035 77.4312C169.118 75.4628 166.717 74.3619 164.307 74.3525C161.897 74.3525 159.496 75.4254 157.57 77.3845" stroke="#4D1F1F" stroke-width="3.7317" stroke-linecap="round" stroke-linejoin="round"/>
<path d="M200.563 77.1841C198.581 75.2903 196.143 74.2734 193.733 74.3574C191.323 74.4413 188.96 75.6075 187.117 77.6319" stroke="#4D1F1F" stroke-width="3.7317" stroke-linecap="round" stroke-linejoin="round"/>
<path d="M164.312 77.3291V79.9598" stroke="#4D1F1F" stroke-width="5.59755" stroke-linecap="round" stroke-linejoin="round"/>
<path d="M193.805 77.3291V79.9598" stroke="#4D1F1F" stroke-width="5.59755" stroke-linecap="round" stroke-linejoin="round"/>
<path d="M134.312 86.5282C140.873 85.9872 146.205 80.6891 149.052 74.7379C151.89 68.7867 152.802 62.1264 154.318 55.7089C155.844 49.2913 158.208 42.7153 163.149 38.3591C163.149 38.3591 150.029 36.4749 139.496 60.0091" fill="#4D1F1F"/>
<path d="M134.312 86.5282C140.873 85.9872 146.205 80.6891 149.052 74.7379C151.89 68.7867 152.802 62.1264 154.318 55.7089C155.844 49.2913 158.208 42.7153 163.149 38.3591C163.149 38.3591 150.029 36.4749 139.496 60.0091" stroke="#4D1F1F" stroke-width="3.7317" stroke-linecap="round" stroke-linejoin="round"/>
<path d="M197 38.6411C203.634 37.6243 210.716 40.516 214.754 45.8889C217.862 50.0211 219.127 55.2169 220.067 60.3006C221.007 65.3843 221.723 70.5984 223.966 75.2624C226.208 79.917 230.33 84.0307 235.448 84.6836" stroke="#00BFE6" stroke-width="3.7317" stroke-linecap="round" stroke-linejoin="round"/>
<path d="M182.172 104.775C186.871 106.371 192.333 105.503 196.316 102.536" stroke="#4D1F1F" stroke-width="3.7317" stroke-linecap="round" stroke-linejoin="round"/>
<path d="M11.6562 797H347.79" stroke="#4D1F1F" stroke-width="3.7317" stroke-linecap="round" stroke-linejoin="round"/>
</svg>
