<svg width="1381" height="799" viewBox="0 0 1381 799" fill="none" xmlns="http://www.w3.org/2000/svg">
<g opacity="0.4">
<path d="M1035.5 657.973H1300.16V582.428H1035.5V657.973Z" fill="#C4F5F5"/>
<path d="M1035.5 582.543H1300.16V506.998H1035.5V582.543Z" fill="#C4F5F5"/>
<path d="M1035.5 507.107L1300.16 507.107V431.563H1035.5V507.107Z" fill="#C4F5F5"/>
<path d="M1035.5 431.564L1300.16 431.564V356.02H1035.5V431.564Z" fill="#C4F5F5"/>
<path d="M1262.35 356.006V657.976" stroke="#00BFE6" stroke-width="3.77722" stroke-linecap="round" stroke-linejoin="round"/>
<path d="M1035.5 431.555H1300.16" stroke="#00BFE6" stroke-width="3.77722" stroke-linecap="round" stroke-linejoin="round"/>
<path d="M1035.5 507.094H1300.16" stroke="#00BFE6" stroke-width="3.77722" stroke-linecap="round" stroke-linejoin="round"/>
<path d="M1035.5 582.541H1300.16" stroke="#00BFE6" stroke-width="3.77722" stroke-linecap="round" stroke-linejoin="round"/>
<path d="M701 734H963V647.882V2" stroke="#00BFE6" stroke-width="3.77722" stroke-linecap="round" stroke-linejoin="round"/>
<path opacity="0.4" d="M700.547 4V657.972V733.517" stroke="#00BFE6" stroke-width="3.77722" stroke-linecap="round" stroke-linejoin="round"/>
<path d="M1378.45 733.52H962.547L1000.36 752.406H1378.45V733.52Z" fill="#00BFE6" stroke="#00BFE6" stroke-width="3.77722" stroke-linecap="round" stroke-linejoin="round"/>
<path d="M962.551 733.508H1378.45V657.963H962.551V733.508Z" fill="#FFBB99" stroke="#FFBB99" stroke-width="3.77722" stroke-linecap="round" stroke-linejoin="round"/>
<path d="M744 734H16" stroke="url(#paint0_linear_379_72100)" stroke-width="3.77722" stroke-linecap="round" stroke-linejoin="round"/>
<path d="M962.547 733.52H1378.45" stroke="#4D1F1F" stroke-width="3.77722" stroke-linecap="round" stroke-linejoin="round"/>
<path d="M943.654 459.672H915.297V525.773H943.654V459.672Z" fill="#C4F5F5" stroke="#00BFE6" stroke-width="3.77722" stroke-linecap="round" stroke-linejoin="round"/>
<path d="M943.654 459.672V525.773H915.297" stroke="#4D1F1F" stroke-width="3.77722" stroke-linecap="round" stroke-linejoin="round"/>
<path d="M943.655 485.643H929.477V525.776H943.655V485.643Z" fill="#4D1F1F" stroke="#4D1F1F" stroke-width="3.77722" stroke-linecap="round" stroke-linejoin="round"/>
<path d="M943.659 485.643C943.659 489.552 940.483 492.725 936.57 492.725H886.945V478.561H936.57C940.483 478.561 943.659 481.733 943.659 485.643Z" fill="#C4F5F5" stroke="#00BFE6" stroke-width="3.77722" stroke-linecap="round" stroke-linejoin="round"/>
<path d="M943.659 485.637C943.659 489.546 940.483 492.719 936.57 492.719H886.945" stroke="#4D1F1F" stroke-width="3.77722" stroke-linecap="round" stroke-linejoin="round"/>
<path opacity="0.6" d="M963 2L398 656" stroke="#C4F5F5" stroke-width="3.77722" stroke-miterlimit="10"/>
<path opacity="0.6" d="M1223.5 1.5L568.203 654.809" stroke="#C4F5F5" stroke-width="3.77722" stroke-miterlimit="10"/>
<path d="M665 2L285 471" stroke="#C4F5F5" stroke-opacity="0.6" stroke-width="3.77722" stroke-miterlimit="10"/>
<path d="M1224.55 657.972V4" stroke="#00BFE6" stroke-width="3.77722" stroke-linecap="round" stroke-linejoin="round"/>
<path opacity="0.4" d="M394.547 657.972V5.5" stroke="#BEEDF5" stroke-width="3.77722" stroke-linecap="round" stroke-linejoin="round"/>
<path d="M2 299.123H719.5H1378.45" stroke="url(#paint1_linear_379_72100)" stroke-width="3.77722" stroke-linecap="round" stroke-linejoin="round"/>
</g>
<path d="M1108 799C1182.56 799 1243 794.344 1243 788.6C1243 782.856 1182.56 778.199 1108 778.199C1033.44 778.199 973 782.856 973 788.6C973 794.344 1033.44 799 1108 799Z" fill="#4D1F1F"/>
<path d="M1164.06 584.74H1051.97V657.543H1164.06V584.74Z" fill="#4D1F1F"/>
<path d="M1108.45 533.641H1107.98H1041.55L1051.93 648.045H1108.45H1164.01L1174.4 533.641H1108.45Z" fill="#4D1F1F"/>
<path d="M1036.42 657.54V672.527C1036.42 676.396 1036.74 680.255 1037.37 684.061C1040.2 701.014 1041.61 718.174 1041.61 735.356V746.806C1041.61 756.489 1039.36 766.047 1035.04 774.711L1032.12 780.556C1031.54 781.721 1031.23 783.01 1031.23 784.321C1031.23 788.97 1034.99 792.735 1039.64 792.735H1074.76C1079.4 792.735 1083.16 788.97 1083.16 784.321C1083.16 783.01 1082.86 781.731 1082.27 780.556L1079.15 774.295C1075.02 766.016 1073.76 756.604 1075.57 747.535L1078.49 732.86C1081.6 717.321 1085.66 701.991 1090.67 686.952C1092.57 681.243 1093.54 675.252 1093.54 669.23V657.519C1093.54 651.779 1088.89 647.119 1083.16 647.119H1046.81C1041.08 647.119 1036.43 651.779 1036.43 657.519L1036.42 657.54Z" fill="#00BFE6"/>
<path d="M1041.6 735.374V746.825C1041.6 752.545 1040.8 758.203 1039.26 763.674H1057.12V647.158H1046.79C1041.06 647.158 1036.41 651.818 1036.41 657.559V672.556C1036.41 676.425 1036.73 680.283 1037.36 684.09C1040.19 701.042 1041.6 718.203 1041.6 735.385V735.374Z" fill="#C4F5F5"/>
<path d="M1040.59 757.87C1039.55 763.705 1037.68 769.373 1035.01 774.708L1032.52 779.701L1032.74 779.929C1040.35 774.334 1049.73 771.297 1059.1 771.412C1066.65 771.505 1074.17 773.637 1080.71 777.485L1079.12 774.303C1076.58 769.217 1075.13 763.694 1074.81 758.089C1069.86 754.709 1063.91 752.795 1057.91 752.733C1051.79 752.66 1045.69 754.501 1040.59 757.881V757.87Z" fill="#C4F5F5"/>
<path d="M1032.09 780.569C1031.5 781.734 1031.2 783.024 1031.2 784.334C1031.2 788.983 1034.96 792.748 1039.6 792.748H1074.72C1079.37 792.748 1083.13 788.983 1083.13 784.334C1083.13 783.024 1082.82 781.745 1082.24 780.569L1079.12 774.308C1074.98 766.03 1073.73 756.617 1075.53 747.548L1078.46 732.873C1081.57 717.335 1085.63 702.005 1090.63 686.966C1092.53 681.256 1093.51 675.266 1093.51 669.244V657.533C1093.51 651.792 1088.86 647.133 1083.13 647.133H1057.11" stroke="#4D1F1F" stroke-width="4.15941" stroke-linecap="round" stroke-linejoin="round"/>
<path d="M1039.61 788.588C1037.26 788.588 1035.36 786.685 1035.36 784.334C1035.36 783.679 1035.52 783.024 1035.81 782.431L1038.72 776.586C1043.31 767.392 1045.74 757.096 1045.74 746.82V735.369C1045.74 718.011 1044.3 700.518 1041.44 683.388C1040.85 679.811 1040.55 676.16 1040.55 672.53V657.533C1040.55 654.091 1043.35 651.293 1046.78 651.293H1083.13C1086.57 651.293 1089.36 654.091 1089.36 657.533V669.244C1089.36 674.829 1088.47 680.351 1086.7 685.645C1081.66 700.788 1077.52 716.399 1074.39 732.052L1071.47 746.727C1069.48 756.659 1070.88 767.111 1075.4 776.17L1078.53 782.431C1078.82 783.024 1078.97 783.679 1078.97 784.334C1078.97 786.674 1077.07 788.588 1074.73 788.588H1039.61Z" stroke="#00BFE6" stroke-width="4.15941" stroke-linecap="round" stroke-linejoin="round"/>
<path d="M1179.63 657.54V672.527C1179.63 676.396 1179.31 680.255 1178.68 684.061C1175.85 701.014 1174.44 718.174 1174.44 735.356V746.806C1174.44 756.489 1176.69 766.047 1181.01 774.711L1183.93 780.556C1184.51 781.721 1184.82 783.01 1184.82 784.321C1184.82 788.97 1181.06 792.735 1176.41 792.735H1141.29C1136.65 792.735 1132.89 788.97 1132.89 784.321C1132.89 783.01 1133.19 781.731 1133.78 780.556L1136.9 774.295C1141.03 766.016 1142.29 756.604 1140.48 747.535L1137.56 732.86C1134.45 717.321 1130.39 701.991 1125.38 686.952C1123.48 681.243 1122.51 675.252 1122.51 669.23V657.519C1122.51 651.779 1127.16 647.119 1132.89 647.119H1169.24C1174.97 647.119 1179.62 651.779 1179.62 657.519L1179.63 657.54Z" fill="#00BFE6"/>
<path d="M1174.46 735.374V746.825C1174.46 752.545 1175.26 758.203 1176.8 763.674H1158.94V647.158H1169.27C1175 647.158 1179.65 651.818 1179.65 657.559V672.556C1179.65 676.425 1179.33 680.283 1178.7 684.09C1175.87 701.042 1174.46 718.203 1174.46 735.385V735.374Z" fill="#C4F5F5"/>
<path d="M1175.44 757.87C1176.49 763.705 1178.36 769.373 1181.03 774.708L1183.52 779.701L1183.29 779.929C1175.69 774.334 1166.31 771.297 1156.94 771.412C1149.39 771.505 1141.87 773.637 1135.33 777.485L1136.92 774.303C1139.46 769.217 1140.9 763.694 1141.23 758.089C1146.18 754.709 1152.13 752.795 1158.13 752.733C1164.25 752.66 1170.34 754.501 1175.44 757.881V757.87Z" fill="#C4F5F5"/>
<path d="M1183.96 780.569C1184.54 781.734 1184.84 783.024 1184.84 784.334C1184.84 788.983 1181.08 792.748 1176.44 792.748H1141.32C1136.68 792.748 1132.92 788.983 1132.92 784.334C1132.92 783.024 1133.22 781.745 1133.8 780.569L1136.92 774.308C1141.06 766.03 1142.31 756.617 1140.51 747.548L1137.58 732.873C1134.47 717.335 1130.41 702.005 1125.41 686.966C1123.51 681.256 1122.53 675.266 1122.53 669.244V657.533C1122.53 651.792 1127.18 647.133 1132.92 647.133H1158.93" stroke="#4D1F1F" stroke-width="4.15941" stroke-linecap="round" stroke-linejoin="round"/>
<path d="M1176.42 788.588C1178.76 788.588 1180.66 786.685 1180.66 784.334C1180.66 783.679 1180.51 783.024 1180.22 782.431L1177.3 776.586C1172.71 767.392 1170.28 757.096 1170.28 746.82V735.369C1170.28 718.011 1171.72 700.518 1174.58 683.388C1175.17 679.811 1175.47 676.16 1175.47 672.53V657.533C1175.47 654.091 1172.68 651.293 1169.24 651.293H1132.89C1129.46 651.293 1126.66 654.091 1126.66 657.533V669.244C1126.66 674.829 1127.56 680.351 1129.32 685.645C1134.36 700.788 1138.5 716.399 1141.63 732.052L1144.56 746.727C1146.54 756.659 1145.14 767.111 1140.62 776.17L1137.5 782.431C1137.2 783.024 1137.05 783.679 1137.05 784.334C1137.05 786.674 1138.95 788.588 1141.3 788.588H1176.42Z" stroke="#00BFE6" stroke-width="4.15941" stroke-linecap="round" stroke-linejoin="round"/>
<path d="M1048.3 581.654L1045.01 588.248C1042.79 592.689 1042.24 597.774 1043.44 602.59L1051.02 632.969C1054.48 646.833 1073.74 647.925 1078.74 634.55L1090.86 602.194C1092.6 597.525 1093.51 592.574 1093.51 587.592C1093.51 580.271 1087.58 574.332 1080.27 574.332H1060.14C1055.13 574.332 1050.55 577.171 1048.3 581.664V581.654Z" fill="#00BFE6"/>
<path d="M1049.48 601.082C1048.64 597.713 1049.03 594.145 1050.58 591.036L1053.87 584.442C1055.07 582.05 1057.47 580.562 1060.13 580.562H1080.26" stroke="#C4F5F5" stroke-width="4.15941" stroke-linecap="round" stroke-linejoin="round"/>
<path d="M1093.52 574.332V587.592C1093.52 592.585 1092.62 597.525 1090.87 602.194L1078.75 634.55C1073.75 647.925 1054.49 646.833 1051.03 632.969L1043.45 602.59" stroke="#4D1F1F" stroke-width="4.15941" stroke-linecap="round" stroke-linejoin="round"/>
<path d="M1167.69 581.654L1170.98 588.248C1173.2 592.689 1173.75 597.774 1172.55 602.59L1164.97 632.969C1161.51 646.833 1142.26 647.925 1137.25 634.55L1125.13 602.194C1123.39 597.525 1122.48 592.574 1122.48 587.592C1122.48 580.271 1128.41 574.332 1135.72 574.332H1155.85C1160.87 574.332 1165.45 577.171 1167.69 581.664V581.654Z" fill="#00BFE6"/>
<path d="M1166.54 601.082C1167.38 597.713 1166.98 594.145 1165.44 591.036L1162.15 584.442C1160.95 582.05 1158.55 580.562 1155.88 580.562H1135.76" stroke="#C4F5F5" stroke-width="4.15941" stroke-linecap="round" stroke-linejoin="round"/>
<path d="M1122.48 574.332V587.592C1122.48 592.585 1123.38 597.525 1125.13 602.194L1137.25 634.55C1142.26 647.925 1161.51 646.833 1164.97 632.969L1172.55 602.59" stroke="#4D1F1F" stroke-width="4.15941" stroke-linecap="round" stroke-linejoin="round"/>
<path d="M1194.5 506.574L1187.07 478.701L1178.88 447.926L1170.59 416.798L1159.93 376.726L1170.23 361.25C1177.05 350.995 1180.7 338.951 1180.7 326.637V272.732H1134.45C1124.27 272.732 1114.59 277.225 1108 285.005C1101.42 277.215 1091.74 272.732 1081.55 272.732H1035.31V326.637C1035.31 338.962 1038.96 351.005 1045.78 361.25L1056.08 376.726L1021.51 506.574C1017.99 519.782 1027.93 532.731 1041.57 532.731H1174.43C1188.08 532.731 1198.02 519.772 1194.5 506.574Z" fill="#00BFE6"/>
<path d="M1170.09 439.156L1188.47 508.183" stroke="#C4F5F5" stroke-width="4.15941" stroke-linecap="round" stroke-linejoin="round"/>
<path d="M1027.52 508.183L1045.9 439.156" stroke="#C4F5F5" stroke-width="4.15941" stroke-linecap="round" stroke-linejoin="round"/>
<path d="M1035.3 272.733L1084.33 262.52H1131.65L1180.69 272.733L1108 285.005L1035.3 272.733Z" fill="#4D1F1F" stroke="#4D1F1F" stroke-width="4.15941" stroke-linecap="round" stroke-linejoin="round"/>
<path d="M1071.66 250.612C1071.66 257.507 1077.47 262.926 1084.34 262.52C1092.44 262.042 1099.65 262.489 1104.89 269.468C1106.44 271.548 1109.56 271.548 1111.12 269.468C1116.35 262.489 1123.56 262.042 1131.67 262.52C1138.54 262.926 1144.35 257.507 1144.35 250.612V209.707C1144.35 195.833 1136.65 183.353 1124.25 177.144L1108 169L1091.75 177.144C1079.43 183.311 1071.66 195.916 1071.66 209.697V250.601V250.612Z" fill="#FF5C4D"/>
<path d="M1077.89 209.71C1077.89 198.207 1084.27 187.88 1094.54 182.732L1108.01 175.992L1121.47 182.732C1131.75 187.869 1138.12 198.207 1138.12 209.71" stroke="#FFE88C" stroke-width="4.15941" stroke-linecap="round" stroke-linejoin="round"/>
<path d="M1133.96 210.609H1082.04V221.01H1133.96V210.609Z" fill="#4D1F1F" stroke="#4D1F1F" stroke-width="4.15941" stroke-linecap="round" stroke-linejoin="round"/>
<path d="M1159.93 376.739L1170.23 361.264C1177.05 351.009 1180.7 338.965 1180.7 326.651V272.746L1172.59 337.728C1171.29 348.138 1162.45 355.949 1151.98 355.949H1064.03C1053.55 355.949 1044.72 348.138 1043.42 337.728L1035.3 272.746V326.651C1035.3 338.976 1038.95 351.019 1045.77 361.264L1056.07 376.739" stroke="#4D1F1F" stroke-width="4.15941" stroke-linecap="round" stroke-linejoin="round"/>
<path d="M1178.86 447.939L1178.88 448.012M1178.88 448.012C1181.89 459.286 1173.4 470.341 1161.76 470.341M1178.88 448.012C1181.89 459.286 1173.41 470.341 1161.76 470.341M1161.76 470.341H1054.22M1054.22 470.341C1042.57 470.341 1034.09 459.286 1037.09 448.012M1054.22 470.341C1042.58 470.341 1034.09 459.286 1037.09 448.012M1037.09 448.012L1037.89 445.006" stroke="#4D1F1F" stroke-width="4.15941" stroke-linecap="round" stroke-linejoin="round"/>
<path d="M1187.06 478.699L1187.2 479.198M1187.2 479.198C1190.2 490.472 1181.71 501.528 1170.07 501.528M1187.2 479.198C1190.2 490.472 1181.72 501.528 1170.07 501.528M1170.07 501.528H1045.91M1045.91 501.528C1034.26 501.528 1025.79 490.472 1028.79 479.198C1025.79 490.472 1034.27 501.528 1045.91 501.528Z" stroke="#4D1F1F" stroke-width="4.15941" stroke-linecap="round" stroke-linejoin="round"/>
<path d="M1021.5 506.566C1017.98 519.775 1027.91 532.723 1041.56 532.723H1174.42C1188.06 532.723 1198 519.764 1194.48 506.566" stroke="#4D1F1F" stroke-width="4.15941" stroke-linecap="round" stroke-linejoin="round"/>
<path d="M1064.02 355.935H1151.97C1162.44 355.935 1171.27 348.125 1172.58 337.714L1180.69 272.732H1134.45C1124.26 272.732 1114.58 277.225 1108 285.005C1101.41 277.215 1091.73 272.732 1081.55 272.732H1035.3L1043.42 337.714C1044.71 348.125 1053.55 355.935 1064.03 355.935H1064.02Z" fill="#C4F5F5" stroke="#00BFE6" stroke-width="4.15941" stroke-linecap="round" stroke-linejoin="round"/>
<path d="M1108 285.008V355.938" stroke="#00BFE6" stroke-width="4.15941" stroke-linecap="round" stroke-linejoin="round"/>
<path d="M1222.22 324.737V407.94C1222.22 425.173 1208.28 439.141 1191.07 439.141H1178.06L1133.89 414.118L1175.43 386.38L1159.91 324.727H1222.22V324.737Z" fill="#4D1F1F"/>
<path d="M1159.91 314.33V324.73C1159.91 341.964 1173.86 355.931 1191.07 355.931C1208.28 355.931 1222.22 341.964 1222.22 324.73V262.328L1159.91 314.33Z" fill="#00BFE6" stroke="#4D1F1F" stroke-width="4.15941" stroke-linecap="round" stroke-linejoin="round"/>
<path d="M1218.06 271.211V324.731C1218.06 339.645 1205.95 351.772 1191.06 351.772" stroke="#C4F5F5" stroke-width="4.15941" stroke-linecap="round" stroke-linejoin="round"/>
<path d="M1171.33 393.315C1167.23 393.315 1163.22 394.532 1159.81 396.81L1133.89 414.116L1133.95 414.178C1140.56 420.793 1144.28 429.768 1144.28 439.129H1191.07C1196.8 439.129 1201.45 434.469 1201.45 428.728V423.476C1201.45 406.815 1187.96 393.305 1171.33 393.305V393.315Z" fill="#FFE88C" stroke="#FF5757" stroke-width="4.15941" stroke-linecap="round" stroke-linejoin="round"/>
<path d="M1216.98 407.182C1210.61 394.431 1197.6 386.381 1183.37 386.381C1181.22 386.381 1179.08 386.651 1177.02 387.161" stroke="#00BFE6" stroke-width="4.15941" stroke-linecap="round" stroke-linejoin="round"/>
<path d="M1159.91 314.33H1201.45C1212.93 314.33 1222.22 305.022 1222.22 293.529V262.328L1159.91 314.33Z" fill="#4D1F1F" stroke="#4D1F1F" stroke-width="4.15941" stroke-linecap="round" stroke-linejoin="round"/>
<path d="M1178.05 268.86L1159.89 314.32L1209.99 299.988C1223.36 296.161 1232.58 283.92 1232.58 269.983C1232.58 265.75 1229.16 262.318 1224.93 262.318H1187.69C1183.44 262.318 1179.62 264.908 1178.05 268.86Z" fill="#FFE88C" stroke="#FF5757" stroke-width="4.15941" stroke-linecap="round" stroke-linejoin="round"/>
<path d="M1159.91 314.339L1210.01 300.007C1223.38 296.18 1232.61 283.938 1232.61 270.002" stroke="#4D1F1F" stroke-width="4.15941" stroke-linecap="round" stroke-linejoin="round"/>
<path d="M1166.94 308.002L1181.95 270.415C1182.91 268.033 1185.17 266.494 1187.74 266.494H1224.98C1226.91 266.494 1228.48 268.065 1228.48 269.999" stroke="#FBFCF9" stroke-width="4.15941" stroke-linecap="round" stroke-linejoin="round"/>
<path d="M1140.17 414.937L1162.14 400.272C1164.88 398.442 1168.06 397.475 1171.36 397.475C1185.68 397.475 1197.33 409.144 1197.33 423.476V428.728" stroke="#FBFCF9" stroke-width="4.15941" stroke-linecap="round" stroke-linejoin="round"/>
<path d="M1106.89 434.982V418.279H1132.1C1136.36 423.011 1139.02 428.784 1139.84 434.982" stroke="#FBFCF9" stroke-width="4.15941" stroke-linecap="round" stroke-linejoin="round"/>
<path d="M1197.32 428.735C1197.32 432.177 1194.52 434.975 1191.09 434.975H1148.23C1147.47 427.643 1144.69 420.737 1140.17 414.934" fill="#FFE88C"/>
<path d="M1197.32 428.735C1197.32 432.177 1194.52 434.975 1191.09 434.975H1148.23C1147.47 427.643 1144.69 420.737 1140.17 414.934" stroke="#FF5757" stroke-width="4.15941" stroke-linecap="round" stroke-linejoin="round"/>
<path d="M1139.84 434.982H1106.89" stroke="#00BFE6" stroke-width="4.15941" stroke-linecap="round" stroke-linejoin="round"/>
<path d="M1114.23 382.898H1101.77V414.1H1114.23V382.898Z" fill="#4D1F1F" stroke="#4D1F1F" stroke-width="4.15941" stroke-linecap="round" stroke-linejoin="round"/>
<path d="M1228.45 270.002C1228.45 282.014 1220.41 292.706 1208.87 296.003L1158.93 310.293" fill="#FFE88C"/>
<path d="M1228.45 270.002C1228.45 282.014 1220.41 292.706 1208.87 296.003L1158.93 310.293" stroke="#FF5757" stroke-width="4.15941" stroke-linecap="round" stroke-linejoin="round"/>
<path d="M1170.58 416.806L1167.21 404.139C1164.58 404.669 1162.06 405.699 1159.8 407.207L1133.88 424.513H1082.08L1056.16 407.207C1053.91 405.699 1051.4 404.669 1048.76 404.139L1036.67 449.536H1071.64C1065.9 449.536 1061.25 454.196 1061.25 459.937V474.31C1061.25 477.856 1064.13 480.737 1067.67 480.737C1070.1 480.737 1072.32 479.364 1073.41 477.18L1079.16 465.678C1080.91 462.152 1084.51 459.926 1088.44 459.926H1127.53C1131.46 459.926 1135.06 462.152 1136.81 465.678L1142.55 477.18C1143.64 479.354 1145.87 480.737 1148.3 480.737C1151.84 480.737 1154.71 477.856 1154.71 474.31V459.937C1154.71 454.196 1150.06 449.536 1144.33 449.536H1179.29L1178.87 447.935L1170.58 416.806Z" fill="#4D1F1F" stroke="#4D1F1F" stroke-width="4.15941" stroke-linecap="round" stroke-linejoin="round"/>
<path d="M993.75 324.741V407.944C993.75 425.177 1007.7 439.145 1024.9 439.145H1037.92L1082.08 414.121L1040.54 386.384L1056.06 324.73H993.75V324.741Z" fill="#4D1F1F"/>
<path d="M1056.07 314.34V324.74C1056.07 341.973 1042.13 355.941 1024.92 355.941C1007.71 355.941 993.766 341.973 993.766 324.74V262.338L1056.07 314.34Z" fill="#00BFE6" stroke="#4D1F1F" stroke-width="4.15941" stroke-linecap="round" stroke-linejoin="round"/>
<path d="M997.914 271.225V324.745C997.914 339.659 1010.02 351.786 1024.91 351.786" stroke="#C4F5F5" stroke-width="4.15941" stroke-linecap="round" stroke-linejoin="round"/>
<path d="M1044.64 393.317C1048.74 393.317 1052.75 394.534 1056.16 396.812L1082.08 414.118L1082.02 414.18C1075.41 420.795 1071.69 429.77 1071.69 439.131H1024.9C1019.17 439.131 1014.52 434.471 1014.52 428.73V423.478C1014.52 406.817 1028.01 393.307 1044.64 393.307V393.317Z" fill="#FFE88C" stroke="#FF5757" stroke-width="4.15941" stroke-linecap="round" stroke-linejoin="round"/>
<path d="M1073.52 427.935C1072.33 431.513 1071.69 435.289 1071.69 439.137H1024.9C1019.17 439.137 1014.52 434.477 1014.52 428.736V423.484C1014.52 418.294 1015.82 413.416 1018.13 409.152L1073.53 427.935H1073.52Z" fill="#FF5757"/>
<path d="M1133.96 414.186L1133.9 414.123H1082.1L1082.04 414.186C1075.44 420.8 1071.72 429.776 1071.72 439.136H1144.29C1144.29 429.776 1140.57 420.8 1133.96 414.186Z" fill="#C4F5F5" stroke="#00BFE6" stroke-width="4.15941" stroke-linecap="round" stroke-linejoin="round"/>
<path d="M999.016 407.18C1005.38 394.429 1018.39 386.379 1032.62 386.379C1034.77 386.379 1036.91 386.649 1038.98 387.159" stroke="#00BFE6" stroke-width="4.15941" stroke-linecap="round" stroke-linejoin="round"/>
<path d="M1056.07 314.34H1014.53C1003.06 314.34 993.766 305.031 993.766 293.539V262.338L1056.07 314.34Z" fill="#4D1F1F" stroke="#4D1F1F" stroke-width="4.15941" stroke-linecap="round" stroke-linejoin="round"/>
<path d="M1037.9 268.866L1056.07 314.326L1005.97 299.994C992.597 296.167 983.375 283.926 983.375 269.989C983.375 265.756 986.802 262.324 991.028 262.324H1028.27C1032.51 262.324 1036.34 264.914 1037.9 268.866Z" fill="#FFE88C" stroke="#FF5757" stroke-width="4.15941" stroke-linecap="round" stroke-linejoin="round"/>
<path d="M1056.07 314.335L1005.97 300.003C992.597 296.176 983.375 283.935 983.375 269.998" stroke="#4D1F1F" stroke-width="4.15941" stroke-linecap="round" stroke-linejoin="round"/>
<path d="M1049.05 308.006L1034.04 270.419C1033.08 268.037 1030.82 266.498 1028.25 266.498H991.015C989.084 266.498 987.516 268.068 987.516 270.003" stroke="#FBFCF9" stroke-width="4.15941" stroke-linecap="round" stroke-linejoin="round"/>
<path d="M1075.83 414.933L1053.87 400.268C1051.12 398.438 1047.94 397.471 1044.64 397.471C1030.32 397.471 1018.67 409.14 1018.67 423.472V428.724" stroke="#FBFCF9" stroke-width="4.15941" stroke-linecap="round" stroke-linejoin="round"/>
<path d="M987.531 269.998C987.531 282.01 995.579 292.702 1007.12 295.999L1054.12 309.447" fill="#FFE88C"/>
<path d="M987.531 269.998C987.531 282.01 995.579 292.702 1007.12 295.999L1054.12 309.447" stroke="#FF5757" stroke-width="4.15941" stroke-linecap="round" stroke-linejoin="round"/>
<path d="M1061.27 449.537V463.91C1061.27 467.457 1064.14 470.338 1067.68 470.338C1070.11 470.338 1072.34 468.965 1073.43 466.781L1079.17 455.278C1080.92 451.752 1084.53 449.527 1088.45 449.527H1127.54C1131.48 449.527 1135.07 451.752 1136.82 455.278L1142.57 466.781C1143.66 468.954 1145.88 470.338 1148.31 470.338C1151.85 470.338 1154.73 467.457 1154.73 463.91V449.537C1154.73 443.796 1150.07 439.137 1144.34 439.137H1071.65C1065.92 439.137 1061.27 443.796 1061.27 449.537Z" fill="#FFE88C" stroke="#FF5757" stroke-width="4.15941" stroke-linecap="round" stroke-linejoin="round"/>
<path d="M1171.33 393.315C1167.23 393.315 1163.22 394.532 1159.81 396.81L1133.89 414.116L1133.95 414.178C1140.56 420.793 1144.28 429.768 1144.28 439.129H1191.07C1196.8 439.129 1201.45 434.469 1201.45 428.728V423.476C1201.45 406.815 1187.96 393.305 1171.33 393.305V393.315Z" fill="#FFE88C" stroke="#FF5757" stroke-width="4.15941" stroke-linecap="round" stroke-linejoin="round"/>
<path d="M1142.43 427.941C1143.63 431.519 1144.26 435.294 1144.26 439.143H1191.05C1196.79 439.143 1201.44 434.483 1201.44 428.742V423.49C1201.44 418.3 1200.13 413.422 1197.82 409.158L1142.42 427.941H1142.43Z" fill="#FF5757"/>
<path d="M1133.96 414.176L1133.89 414.113H1082.1L1082.03 414.176C1075.43 420.79 1071.71 429.766 1071.71 439.126H1144.28C1144.28 429.766 1140.56 420.79 1133.96 414.176Z" fill="#C4F5F5" stroke="#00BFE6" stroke-width="4.15941" stroke-linecap="round" stroke-linejoin="round"/>
<path d="M1061.27 449.537V463.91C1061.27 467.457 1064.14 470.338 1067.68 470.338C1070.11 470.338 1072.34 468.965 1073.43 466.781L1079.17 455.278C1080.92 451.752 1084.53 449.527 1088.45 449.527H1127.54C1131.48 449.527 1135.07 451.752 1136.82 455.278L1142.57 466.781C1143.66 468.954 1145.88 470.338 1148.31 470.338C1151.85 470.338 1154.73 467.457 1154.73 463.91V449.537C1154.73 443.796 1150.07 439.137 1144.34 439.137H1071.65C1065.92 439.137 1061.27 443.796 1061.27 449.537Z" fill="#FFE88C" stroke="#FF5757" stroke-width="4.15941" stroke-linecap="round" stroke-linejoin="round"/>
<path d="M1132.03 418.279H1112.23" stroke="#FBFCF9" stroke-width="4.15941" stroke-linecap="round" stroke-linejoin="round"/>
<path d="M1107.5 387.137C1116.1 387.137 1123.08 380.152 1123.08 371.536C1123.08 362.92 1116.1 355.936 1107.5 355.936C1098.9 355.936 1091.92 362.92 1091.92 371.536C1091.92 380.152 1098.9 387.137 1107.5 387.137Z" fill="#FFE88C" stroke="#FF5C4D" stroke-width="4.15941" stroke-linecap="round" stroke-linejoin="round"/>
<path d="M1107.49 370.5C1110.93 370.5 1113.72 367.706 1113.72 364.26C1113.72 360.813 1110.93 358.02 1107.49 358.02C1104.05 358.02 1101.26 360.813 1101.26 364.26C1101.26 367.706 1104.05 370.5 1107.49 370.5Z" fill="#FBFCF9"/>
<path d="M1107.49 379.652C1102.02 379.652 1097.45 375.95 1096.07 370.916C1095.8 371.914 1095.65 372.954 1095.65 374.036C1095.65 380.588 1100.94 385.893 1107.49 385.893C1114.03 385.893 1119.33 380.588 1119.33 374.036C1119.33 372.954 1119.17 371.914 1118.9 370.916C1117.53 375.95 1112.95 379.652 1107.49 379.652Z" fill="#FF5C4D"/>
<path d="M1123.08 371.537C1123.08 380.149 1116.1 387.138 1107.5 387.138C1098.9 387.138 1091.92 380.149 1091.92 371.537" stroke="#4D1F1F" stroke-width="4.15941" stroke-linecap="round" stroke-linejoin="round"/>
<path d="M1071.66 209.707V250.612C1071.66 257.507 1077.47 262.926 1084.34 262.52C1092.44 262.042 1099.65 262.489 1104.89 269.468C1106.44 271.548 1109.56 271.548 1111.12 269.468C1116.35 262.489 1123.56 262.042 1131.67 262.52C1138.54 262.926 1144.35 257.507 1144.35 250.612V209.707" stroke="#4D1F1F" stroke-width="4.15941" stroke-linecap="round" stroke-linejoin="round"/>
<path d="M1108 241.816V262.617" stroke="#4D1F1F" stroke-width="4.15941" stroke-linecap="round" stroke-linejoin="round"/>
<path d="M1133.96 225.176H1082.04" stroke="#FFE88C" stroke-width="4.15941" stroke-linecap="round" stroke-linejoin="round"/>
<path d="M1107.73 344.407L1098.45 339.758C1091.36 336.212 1086.96 329.088 1086.96 321.152V296.514H1128.5V321.152C1128.5 329.077 1124.1 336.212 1117.01 339.758L1107.73 344.407Z" fill="#FFE88C" stroke="#FF5757" stroke-width="4.15941" stroke-linecap="round" stroke-linejoin="round"/>
<path d="M1113.67 316.422C1110.89 316.422 1108.62 314.154 1108.62 311.367C1108.62 308.58 1110.89 306.312 1113.67 306.312C1116.46 306.312 1118.72 308.58 1118.72 311.367C1118.72 314.154 1116.46 316.422 1113.67 316.422Z" fill="#00BFE6"/>
<path d="M1113.67 308.402C1115.31 308.402 1116.64 309.734 1116.64 311.377C1116.64 313.02 1115.31 314.351 1113.67 314.351C1112.03 314.351 1110.7 313.02 1110.7 311.377C1110.7 309.734 1112.03 308.402 1113.67 308.402ZM1113.67 304.242C1109.75 304.242 1106.55 307.445 1106.55 311.377C1106.55 315.308 1109.75 318.511 1113.67 318.511C1117.6 318.511 1120.79 315.308 1120.79 311.377C1120.79 307.445 1117.6 304.242 1113.67 304.242Z" fill="#FF5757"/>
<path d="M1128.49 321.152C1128.49 329.077 1124.09 336.212 1117.01 339.759L1107.72 344.408L1098.44 339.759C1091.36 336.212 1086.95 329.088 1086.95 321.152" stroke="#4D1F1F" stroke-width="4.15941" stroke-linecap="round" stroke-linejoin="round"/>
<path d="M1122.52 439.15V751.161L1107.98 792.763V439.15H1122.52Z" fill="#00BFE6"/>
<path d="M1107.98 439.15V792.763L1093.45 751.161V439.15H1107.98Z" fill="#C4F5F5"/>
<path d="M1122.52 439.076V751.17L1107.98 792.772L1093.45 751.17V463.039" stroke="#4D1F1F" stroke-width="4.15941" stroke-linecap="round" stroke-linejoin="round"/>
<path d="M1082.04 414.178C1075.44 420.792 1071.72 429.768 1071.72 439.128C1077.98 439.128 1083.59 442.987 1085.84 448.832L1089.64 458.702C1091.24 462.851 1095.81 465.004 1100.02 463.6L1116.34 458.15C1120.46 456.777 1122.83 452.461 1121.77 448.239L1116.01 425.14C1114.39 418.66 1108.57 414.115 1101.91 414.115H1082.1" fill="#C4F5F5"/>
<path d="M1082.04 414.178C1075.44 420.792 1071.72 429.768 1071.72 439.128C1077.98 439.128 1083.59 442.987 1085.84 448.832L1089.64 458.702C1091.24 462.851 1095.81 465.004 1100.02 463.6L1116.34 458.15C1120.46 456.777 1122.83 452.461 1121.77 448.239L1116.01 425.14C1114.39 418.66 1108.57 414.115 1101.91 414.115H1082.1" stroke="#00BFE6" stroke-width="4.15941" stroke-linecap="round" stroke-linejoin="round"/>
<path d="M1102.68 462.548L1093.38 432.709" stroke="#00BFE6" stroke-width="4.15941" stroke-linecap="round" stroke-linejoin="round"/>
<path d="M1104.35 428.74L1113.07 458.88" stroke="#00BFE6" stroke-width="4.15941" stroke-linecap="round" stroke-linejoin="round"/>
<path d="M1103.99 418.27H1084.19" stroke="#FBFCF9" stroke-width="4.15941" stroke-linecap="round" stroke-linejoin="round"/>
<path d="M1201.47 428.743C1201.47 434.484 1196.82 439.143 1191.09 439.133L1119.51 439.081L1121.78 448.244C1122.83 452.466 1120.46 456.782 1116.35 458.155L1100.02 463.605C1095.81 465.009 1091.24 462.856 1089.65 458.706L1085.85 448.836C1083.59 442.991 1077.99 439.133 1071.72 439.133H1024.93C1019.2 439.133 1014.55 434.473 1014.55 428.732" stroke="#4D1F1F" stroke-width="4.15941" stroke-linecap="round" stroke-linejoin="round"/>
<defs>
<linearGradient id="paint0_linear_379_72100" x1="16" y1="734.5" x2="744.491" y2="733.785" gradientUnits="userSpaceOnUse">
<stop stop-color="#FBFCF9"/>
<stop offset="0.903249" stop-color="#E9F8F8"/>
<stop offset="0.963262" stop-color="#00BFE6"/>
</linearGradient>
<linearGradient id="paint1_linear_379_72100" x1="2" y1="299.623" x2="772" y2="299.389" gradientUnits="userSpaceOnUse">
<stop offset="0.506578" stop-color="#FBFCF9"/>
<stop offset="1" stop-color="#00BFE6"/>
</linearGradient>
</defs>
</svg>
