<svg width="129" height="126" viewBox="0 0 129 126" fill="none" xmlns="http://www.w3.org/2000/svg">
<g clip-path="url(#clip0_379_75494)">
<path d="M7.85999 27.7906C8.20779 18.6792 7.93949 9.60752 7.71094 0.496094C7.71094 0.734561 53.0937 0.625263 57.2276 0.6352C65.2866 0.655072 73.3555 0.6352 81.4145 0.655072C94.6011 0.674944 107.788 0.704752 120.974 0.655072C120.477 0.655072 120.974 23.8659 121.074 25.9326C121.103 26.5586 121.103 27.2044 121.173 27.8304" fill="#FBFBF8"/>
<path d="M7.74856 28.2477C7.74856 21.3421 7.72869 14.4265 7.71875 7.52093C7.71875 5.17601 7.71875 2.84102 7.71875 0.496094C7.71875 0.496094 33.118 0.704752 34.698 0.714689C49.5143 0.724625 64.3305 0.704752 79.1567 0.68488C87.7026 0.674944 96.2386 0.674944 104.785 0.68488C109.057 0.68488 113.32 0.704752 117.593 0.714689C118.905 0.714689 121.022 0.655072 121.022 0.655072C121.022 0.655072 120.932 6.64656 120.932 8.37544C120.932 14.8637 120.922 21.352 121.22 27.8304" stroke="#2D274D" stroke-linecap="round" stroke-linejoin="round"/>
<path d="M7.83018 29.7677L7.71094 20.9146C35.823 20.7954 63.9351 20.9842 92.0472 20.9742C101.587 20.9742 111.146 21.0736 120.686 20.9146L120.706 27.8302" stroke="#2D274D" stroke-linecap="round" stroke-linejoin="round"/>
<path d="M7.85938 27.7911L7.87925 14.2283C36.0112 14.2283 64.1531 14.3872 92.2851 14.3872C101.815 14.3872 120.914 14.1289 120.914 14.1289L120.666 21.0345" stroke="#2D274D" stroke-linecap="round" stroke-linejoin="round"/>
<path d="M7.75 28.2475C7.75 28.2475 7.96862 7.52078 7.97855 7.52078C8.02824 6.48742 53.1825 7.21276 56.4319 7.23263C77.8762 7.33199 99.3901 6.93455 120.815 7.59033L120.964 27.86" stroke="#2D274D" stroke-linecap="round" stroke-linejoin="round"/>
<path d="M120.954 112.686L116.233 112.427L111.523 112.537L106.823 112.666L102.113 112.745L97.4026 112.855L92.6924 112.636L87.9822 112.537H83.272L78.5618 112.745H73.8516L69.1315 112.616L64.4213 112.845L59.7211 112.745L55.0009 112.537L50.3007 112.497L45.5905 112.745L40.8703 112.785H31.44L26.7298 112.556L22.0097 112.636L17.2995 112.855L12.5794 112.606L7.74993 112.745L7.78968 107.926L8.0083 103.216L8.07786 98.5068L8.02817 93.797L7.64062 89.0873L7.68037 84.3776L8.06792 79.6778L7.79962 74.9581L8.01824 70.2584L7.94868 65.5486V60.8389L7.74993 56.1193L7.83937 51.4095L7.79962 46.6998L8.0083 41.9901L7.9288 37.2704L7.95861 32.5607V27.9205L12.5992 28.0298L17.3094 28.01L22.0097 28.0696L26.7298 27.7715L31.4301 27.8112L36.1403 27.7814L40.8505 28.0596L45.5706 28.0298L50.2808 27.8112L54.991 27.7914L59.7012 27.8311L64.4114 27.9603L69.1216 28.0596L73.8318 27.8013L78.542 28.0795L83.2522 27.9205L87.9623 28.0994L92.6725 27.9702L97.3827 27.9404L102.093 28.0497L106.813 28.0199L111.523 27.7814L116.243 28.0199L120.944 27.9007L120.884 32.5806L121.113 37.2903L120.864 42L120.834 46.7097L121.003 51.4294L120.725 56.1391L120.834 60.8389L120.735 65.5486L120.964 70.2584L120.914 74.9681L121.063 79.6778L120.954 84.3875L120.914 89.1072L120.775 93.8169L121.053 98.5266L120.874 103.236L120.924 107.956L120.944 112.686H120.954Z" fill="#FBFBF8"/>
<path d="M120.934 112.625C87.9233 112.654 54.9023 112.674 21.8912 112.704C17.7971 112.704 7.71094 112.744 7.71094 112.744C7.93949 84.7537 7.85999 56.7636 8.02892 28.7835C8.02892 28.8431 8.02892 27.7998 8.02892 27.7998C45.6608 27.7303 83.2827 27.7998 120.915 27.9886C120.915 56.1973 120.925 84.4159 120.934 112.625Z" stroke="#2D274D" stroke-linecap="round" stroke-linejoin="round"/>
<path d="M7.83984 27.9597V27.9001L12.2817 28.2479C15.3722 28.4863 18.6415 31.8646 20.7283 33.8419C27.6545 40.4395 34.4713 47.1464 41.2385 53.9129C47.8566 60.5303 54.0673 67.5353 61.0034 73.8348L64.4019 77.382L67.7408 73.7951C73.9018 68.4792 79.3573 62.3189 85.091 56.536C90.785 50.7929 96.4591 45.0201 102.183 39.2968C104.876 36.6042 107.449 33.7028 110.58 31.497C113.869 29.1819 117.108 28.5956 120.984 27.9895V27.6318" stroke="#2D274D" stroke-linecap="round" stroke-linejoin="round"/>
<path d="M7.89844 112.744L11.4559 109.485L14.9935 106.196L18.7696 103.175L22.2774 99.837L26.0039 96.7568L29.5017 93.4282L33.2878 90.4076L36.7956 87.069L40.5419 84.0087L44.149 80.7993L47.945 77.7986L51.5224 74.5296L55.2687 71.4594L59.3826 68.5282L64.4208 68.0215L69.3993 68.6673L73.6225 71.4097L77.2893 74.5595L80.8766 77.7788L84.613 80.859L88.3295 83.9491L91.8571 87.2479L95.4941 90.4274L99.2802 93.448L102.699 96.876L106.345 100.046L109.953 103.275L113.709 106.315L117.276 109.594L121.003 112.684" fill="#FBFBF8"/>
<path d="M7.89844 112.744L11.4559 109.485L14.9935 106.196L18.7696 103.176L22.2774 99.837L26.0039 96.7568L29.5017 93.4282L33.2878 90.4076L36.7856 87.079C41.1381 82.9356 45.6992 79.0009 50.4094 75.265C52.8142 73.3572 55.2587 71.4992 57.743 69.7007C60.2273 67.9023 63.1985 67.9321 66.12 68.1805C69.6874 68.4786 72.3903 70.5751 75.0336 72.771C78.2433 75.4438 81.443 78.1464 84.613 80.8689C91.9466 87.1486 99.0218 93.7163 106.306 100.046L109.913 103.275L113.669 106.315L117.237 109.594L120.963 112.684" stroke="#2D274D" stroke-linecap="round" stroke-linejoin="round"/>
<path d="M7.96757 55.9202H12.4095L16.9905 56.2183L21.5715 56.1885L26.1624 56.258L29.5907 57.2715L31.7372 60.1629L33.2377 64.4355L34.758 68.6981L35.9107 73.0898L37.4907 77.3325L39.1701 81.5554L40.4321 85.9174L42.4295 89.0373L46.0168 89.8322L50.5978 89.7924L55.1887 90.1303L59.7698 90.0011L64.3508 89.7726L68.9318 90.1899L73.5128 90.0409L78.1037 90.2396L82.6848 90.0607L86.1429 88.8585L88.1402 85.8876L89.6308 81.615L91.3499 77.412L92.6914 73.0898L94.0329 68.7577L95.3148 64.4056L96.9942 60.1828L99.0711 57.192L102.569 55.8705L107.15 56.099L111.731 55.9202H116.322L120.833 56.0295L120.704 51.4191L121.092 46.7392L120.992 42.0593L120.953 37.3794L120.982 32.6895L120.754 27.9997V23.3098L120.913 23.1807L125.633 25.3865L127.71 30.0962L127.591 34.955L127.76 39.8038V44.6626L127.859 49.5213L127.769 54.3702L127.73 59.219V64.0778L127.76 68.9266L127.829 73.7854L127.72 78.6342L127.779 83.4929L127.64 88.3517V93.2105L127.69 98.0593L127.71 102.918L127.68 107.787L127.551 112.646L125.683 117.445L120.883 119.501L116.173 119.323L111.463 119.402L106.752 119.511L102.042 119.541L97.3321 119.243L92.6219 119.263L87.9117 119.452L83.2015 119.303L78.4913 119.263L73.7811 119.283L69.0709 119.382L64.3607 119.293L59.6505 119.382L54.9403 119.442L50.2301 119.591H45.5199L40.8097 119.492L36.0995 119.193L31.3894 119.223L26.6692 119.174L21.959 119.422L17.2488 119.243L12.5287 119.203L7.80857 119.372L3.10832 117.306L1.2302 112.606L0.802906 107.797L0.852591 102.978L0.792969 98.1686L1.1507 93.3595L0.812843 88.5405L0.902277 83.7314L1.20039 78.9223L1.10102 74.1132L1.06127 69.3042V64.4851L1.21033 59.6761L0.802906 54.857V50.0479L0.971837 45.2289L1.22026 40.4198V35.5909L1.27989 30.7719L3.158 26.0919L7.83838 23.7967L7.81851 23.9954L7.73901 28.576L7.90794 33.1565L7.7092 37.7272V42.3077L7.96757 46.8883L7.68933 51.4788L7.96757 55.9202Z" fill="#FD5757"/>
<path d="M7.96756 55.9297C13.5522 56.0092 19.1369 56.1483 24.7215 56.347C26.2121 56.3967 27.7623 56.4762 29.0641 57.1916C31.1608 58.3442 32.075 60.8183 32.8203 63.0936C35.086 69.9396 37.3516 76.7956 39.6272 83.6416C40.2135 85.4003 40.8594 87.2583 42.2904 88.4308C44.0294 89.8616 46.4739 89.9411 48.7296 89.951C59.1238 90.0007 69.5181 90.0603 79.9123 90.11C82.019 90.1199 84.2747 90.0802 85.9938 88.858C87.703 87.6359 88.4681 85.5095 89.1439 83.5223C91.4393 76.7161 93.7348 69.9098 96.0203 63.1036C96.8153 60.7587 97.7494 58.215 99.8759 56.9432C101.516 55.9595 103.533 55.9396 105.451 55.9496C110.618 55.9694 115.795 55.9893 120.963 56.0092C120.963 45.149 120.963 34.2789 120.963 23.4187C123.566 23.3491 125.852 25.4159 126.855 27.8204C127.859 30.2249 127.879 32.9077 127.869 35.511C127.819 60.0135 127.769 84.506 127.72 109.008C127.72 112.446 127.372 116.5 124.431 118.259C122.99 119.123 121.221 119.203 119.532 119.253C113.092 119.431 106.653 119.422 100.214 119.422C70.8794 119.402 41.5351 119.382 12.2008 119.362C9.07058 119.362 5.0063 119.342 2.92945 116.659C0.852589 113.977 0.922149 109.843 0.922149 106.634C0.922149 101.775 0.942023 96.9162 0.951961 92.0475C1.00165 73.5564 1.04139 55.0653 1.09108 36.5741C1.09108 33.9212 1.12089 31.1987 2.08479 28.7345C3.04869 26.2704 5.19511 24.0745 7.83838 23.8559C7.84832 34.5571 7.86819 45.2484 7.87813 55.9496C7.90794 55.9496 7.94769 55.9496 7.9775 55.9496L7.96756 55.9297Z" stroke="#2D274D" stroke-linecap="round" stroke-linejoin="round"/>
<path d="M1.04318 56.0684H1.22205L2.74243 60.2813L6.95576 61.8412L11.7554 61.8909L16.555 61.7717L21.3546 62.1493L26.1642 62.2188L29.7118 63.0236L31.8979 66.0343L33.309 70.3366L34.7896 74.6191L36.0516 78.9711L37.7111 83.194L38.9732 87.5559L40.4637 91.8384L42.4611 94.9186L46.0186 95.9818L50.5996 95.7234L55.1905 95.9619H59.7715L64.3525 96.0315L68.9336 95.7234L73.5146 96.1408L78.1055 95.8228L82.6865 95.9023L86.2937 94.9981L88.4302 91.9179L89.8909 87.6255L91.2921 83.3232L92.574 78.9711L94.2732 74.7582L95.6048 70.4261L96.9264 66.084L99.1722 63.2422L102.581 62.0102H107.38L112.17 61.881L116.98 61.7816L121.779 61.8015L126.012 60.3409L127.871 56.0982H127.503L127.9 60.9073L127.612 65.7064V70.5055L127.692 75.3146L127.93 80.1138L127.503 84.9229L127.861 89.7319L127.881 94.5311L127.622 99.3402L127.92 104.139V113.767L127.722 118.577L125.843 123.525L120.895 125.353L116.185 125.234H111.474L106.764 125.333L102.054 125.492L97.3438 125.542L92.6336 125.154L87.9234 125.542L83.2132 125.482H78.503L73.7928 125.224L69.0826 125.562L64.3724 125.413L59.6622 125.492L54.952 125.264L50.2418 125.432L45.5317 125.323L40.8215 125.393H36.1113L31.4011 125.562L26.6809 125.542L21.9707 125.482L17.2606 125.254L12.5404 125.194L7.82029 125.502L3.0306 123.316L0.963681 118.537L1.04318 113.728L0.834499 108.929L1.07299 104.129L1.1028 99.3302L0.884184 94.5212L1.16242 89.722L1.09286 84.9129L0.804688 80.1038L1.14255 75.3047L1.11274 70.4956L1.24192 65.6865L0.874247 60.8774L1.05312 56.0684H1.04318Z" fill="#FD5757"/>
<path d="M1.08149 56.0586C1.12124 58.3439 2.96954 60.2715 5.08615 61.136C7.20275 62.0004 9.54791 62.0004 11.8334 62.0004C15.4307 61.9905 19.0279 61.9805 22.6252 61.9706C25.338 61.9706 28.339 62.06 30.3165 63.9181C31.6083 65.1303 32.2145 66.8989 32.771 68.5781C35.1559 75.7719 37.5408 82.9656 39.9257 90.1594C40.4722 91.8088 41.0883 93.5575 42.4497 94.6306C44.0098 95.8627 46.1662 95.9124 48.1536 95.9223C58.995 95.9323 69.8463 95.9422 80.6877 95.9521C82.4665 95.9521 84.3347 95.9323 85.855 95.0082C87.763 93.8457 88.6176 91.5504 89.333 89.434C91.5987 82.7371 93.7948 76.0103 95.9213 69.2736C96.5076 67.4057 97.1436 65.4482 98.5547 64.087C100.761 61.9507 104.179 61.8514 107.25 61.8812C110.579 61.911 113.908 61.9507 117.236 61.9805C119.482 62.0004 121.798 62.0103 123.884 61.1558C125.971 60.3013 127.76 58.3538 127.72 56.1083C127.79 75.5235 127.849 94.9486 127.919 114.364C127.929 117.673 127.75 121.438 125.226 123.585C123.179 125.323 120.247 125.413 117.564 125.413C83.0826 125.443 48.6008 125.472 14.1289 125.502C10.9391 125.502 6.39785 125.741 3.66514 123.743C0.932432 121.746 0.952306 117.116 0.962243 114.026C1.00199 94.7101 1.05168 75.3943 1.09143 56.0685L1.08149 56.0586Z" stroke="#2D274D" stroke-linecap="round" stroke-linejoin="round"/>
</g>
<defs>
<clipPath id="clip0_379_75494">
<rect width="128" height="126" fill="white" transform="translate(0.414062)"/>
</clipPath>
</defs>
</svg>
