<svg width="626" height="206" viewBox="0 0 626 206" fill="none" xmlns="http://www.w3.org/2000/svg">
<path d="M340.835 206C382.301 206 415.916 172.389 415.916 130.927C415.916 89.4656 382.301 55.8545 340.835 55.8545C299.369 55.8545 265.754 89.4656 265.754 130.927C265.754 172.389 299.369 206 340.835 206Z" fill="#00BFE6"/>
<path d="M363.927 182.079L368.249 95.9295L341.889 81.2227L323.173 92.3548C310.653 95.2623 291.871 112.088 305.971 156.548L316.098 158.224L313.588 173.394L362.98 181.899C363.298 181.954 363.613 182.017 363.927 182.079Z" fill="#FFBB99"/>
<path d="M378.09 187.67C379.473 182.529 379.943 177.143 379.418 171.843C378.495 162.544 374.94 153.012 368.668 146.084C377.845 139.999 385.078 129.98 384.715 119.073C384.424 110.371 379.532 102.683 374.47 95.8304C369.584 89.2168 365.276 81.2481 358.264 76.5014C352.251 72.4357 344.206 71.4608 337.408 73.9776C337.048 74.109 336.713 74.2887 336.364 74.4409C310.003 77.9983 309.543 100.926 309.543 100.926C313.619 96.5564 322.741 91.5746 330.102 91.139C332.833 90.9766 335.6 91.2877 338.217 92.0828C352.279 96.3697 356.024 109.818 353.984 122.295L362.234 119.609C363.859 123.502 362.545 138.8 350.64 137.877L346.024 165.506C344.814 172.746 349.682 179.601 356.916 180.846L362.967 181.886C368.357 182.816 373.491 184.787 378.097 187.656L378.09 187.67Z" fill="#FF5C4D"/>
<path d="M307.855 104.218C311.14 100.983 317.014 101.09 319.933 104.561" stroke="#FF5B4D" stroke-width="2.07684" stroke-linecap="round" stroke-linejoin="round"/>
<path d="M319.022 116.991L305.98 119.515L316.574 130.436" stroke="#4D1F1F" stroke-width="2.07684" stroke-linecap="round" stroke-linejoin="round"/>
<path d="M305.98 156.549L324.036 159.536C329.976 160.518 335.971 158.108 339.574 153.282" stroke="#4D1F1F" stroke-width="2.07684" stroke-linecap="round" stroke-linejoin="round"/>
<path d="M377.389 93.3041C370.408 89.9887 365.889 84.3258 360.567 79.0225C355.54 74.013 348.023 71.3994 341.004 72.7408C324.459 75.9076 323.184 92.3568 323.184 92.3568" stroke="#4D1F1F" stroke-width="2.07684" stroke-linecap="round" stroke-linejoin="round"/>
<path d="M339.637 94.6441C343.45 92.0824 348.492 91.8611 352.606 93.9734C358.394 96.9431 361.06 103.622 365.877 107.958C370.513 112.131 377.249 113.928 383.365 112.621" stroke="#4D1F1F" stroke-width="2.07684" stroke-linecap="round" stroke-linejoin="round"/>
<path d="M356.208 127.992C353.436 130.06 351.482 133.161 350.832 136.528" stroke="#4D1F1F" stroke-width="2.07684" stroke-linecap="round" stroke-linejoin="round"/>
<path d="M288.554 143.442L281.535 145.71" stroke="#4D1F1F" stroke-width="2.07684" stroke-linecap="round" stroke-linejoin="round"/>
<path d="M293.279 109.904L287.449 105.313" stroke="#4D1F1F" stroke-width="2.07684" stroke-linecap="round" stroke-linejoin="round"/>
<path d="M328.824 105.035C334.277 102.858 338.91 104.617 342.132 108.368" stroke="#FF5B4D" stroke-width="2.07684" stroke-linecap="round" stroke-linejoin="round"/>
<path d="M327.379 113.233C328.994 111.957 331.172 111.421 333.198 111.802C335.221 112.182 337.057 113.471 338.101 115.248" stroke="#4D1F1F" stroke-width="2.07684" stroke-linecap="round" stroke-linejoin="round"/>
<path d="M305.98 109.671C307.595 108.396 309.773 107.86 311.799 108.24C313.822 108.62 315.658 109.91 316.702 111.686" stroke="#4D1F1F" stroke-width="2.07684" stroke-linecap="round" stroke-linejoin="round"/>
<path d="M378.031 187.641C373.436 184.785 368.318 182.829 362.945 181.902L296.891 170.528C291.68 169.632 286.383 169.729 281.27 170.777" stroke="#4D1F1F" stroke-width="2.07684" stroke-linecap="round" stroke-linejoin="round"/>
<path d="M362.21 119.62C363.835 123.513 362.521 138.811 350.617 137.888L346.001 165.518C344.791 172.757 349.659 179.612 356.892 180.857" stroke="#4D1F1F" stroke-width="2.07684" stroke-linecap="round" stroke-linejoin="round"/>
<path d="M358.504 156.752C363.424 164.005 365.222 173.298 363.369 181.861" stroke="#4D1F1F" stroke-width="2.07684" stroke-linecap="round" stroke-linejoin="round"/>
<path d="M320.02 140.681L320.625 148.245C320.711 150.015 322.651 152.044 325.002 151.84C326.769 151.688 328.369 150.641 329.396 149.196C330.586 147.519 331.229 145.552 331.644 143.578C331.765 143.011 331.993 141.707 332.117 140.968C327.827 142.243 322.647 141.745 320.02 140.681Z" fill="#FF5C4D"/>
<path d="M320.586 148.246C320.672 150.016 322.612 152.045 324.963 151.841C326.73 151.689 328.331 150.642 329.357 149.197C330.547 147.52 331.19 145.553 331.605 143.579C332.058 141.428 332.642 137.228 332.732 137.218C327.777 137.944 323.684 137.957 318.988 136.208" stroke="#4D1F1F" stroke-width="2.07684" stroke-linecap="round" stroke-linejoin="round"/>
<path d="M75.0772 150.312C116.543 150.312 150.158 116.701 150.158 75.2396C150.158 33.7781 116.543 0.166992 75.0772 0.166992C33.611 0.166992 -0.00390625 33.7781 -0.00390625 75.2396C-0.00390625 116.701 33.611 150.312 75.0772 150.312Z" fill="#FF5B4D"/>
<path d="M91.7773 108.429C92.3755 113.777 96.7493 117.912 102.122 118.213L129.478 119.744" stroke="#4D1F1F" stroke-width="2.07684" stroke-linecap="round" stroke-linejoin="round"/>
<path d="M88.2898 25.2744C93.1166 26.1041 97.6424 28.6279 100.903 32.3098C104.163 35.9917 106.138 40.8075 106.407 45.7375L84.082 30.4533L88.2933 25.2744H88.2898Z" fill="#4D1F1F" stroke="#4D1F1F" stroke-width="2.07684" stroke-linecap="round" stroke-linejoin="round"/>
<path d="M112.208 66.8926L111.848 56.5245C111.548 47.8159 106.354 40.0269 98.4294 36.4003L92.7416 33.797L84.0527 29.3926L44.6878 42.8859L38.3984 63.7776C29.7958 76.5657 46.1884 84.5069 51.7033 86.7368L53.3767 97.4747C54.3691 103.85 58.6669 109.236 64.6797 111.577C64.7938 111.622 64.9079 111.666 65.0254 111.708C71.4704 114.138 78.4824 114.66 85.2663 113.45L107.381 109.509C103.457 82.5121 112.211 66.8926 112.211 66.8926H112.208Z" fill="#FFBB99" stroke="#FFBB99" stroke-width="2.07684" stroke-linecap="round" stroke-linejoin="round"/>
<path d="M90.9813 82.5106C90.3417 82.7837 90.6183 83.7482 91.3063 83.6411L101.288 82.0922L108.535 74.9912L90.9848 82.514L90.9813 82.5106Z" fill="#FF5C4D" stroke="#FF5C4D" stroke-width="2.07684" stroke-linecap="round" stroke-linejoin="round"/>
<path d="M71.918 63.7786C73.8023 61.8326 76.3747 60.564 79.0647 60.2529C81.7546 59.9418 84.5483 60.5916 86.8268 62.0607" stroke="#4D1F1F" stroke-width="2.07684" stroke-linecap="round" stroke-linejoin="round"/>
<path d="M96.5977 51.889C100.743 49.1306 106.071 48.9578 110.341 51.4466" stroke="#4D1F1F" stroke-width="2.07684" stroke-linecap="round" stroke-linejoin="round"/>
<path d="M70.5117 55.8784C74.7783 52.2904 80.8705 50.9976 86.2296 52.5427" stroke="#4D1F1F" stroke-width="2.07684" stroke-linecap="round" stroke-linejoin="round"/>
<path d="M69.4336 79.7139C69.4336 79.7139 72.8427 86.4243 81.6871 85.5738L82.1123 103.793C71.3249 105.605 69.4336 79.7139 69.4336 79.7139Z" fill="#4D1F1F" stroke="#4D1F1F" stroke-width="2.07684" stroke-linecap="round" stroke-linejoin="round"/>
<path d="M94.1523 100.311C96.3237 100.891 98.2633 102.271 99.5046 104.113C100.746 105.956 101.278 108.248 100.977 110.437" stroke="#FF5C4D" stroke-width="2.07684" stroke-linecap="round" stroke-linejoin="round"/>
<path d="M90.1405 23.6083C87.8999 17.9524 81.3685 15.3215 75.7845 17.7415C69.789 20.3378 64.1392 24.1062 58.8629 27.7846C50.8862 33.3437 42.8507 39.2244 33.4979 41.8795C33.4979 41.8795 31.3749 54.8301 38.304 63.9086C38.3351 63.8637 38.3593 63.8187 38.3904 63.7738L52.4387 69.0668C53.1267 66.2768 52.7464 63.3278 51.3668 60.8041L50.7652 59.7013C48.3933 55.366 49.676 49.9382 53.7353 47.1206L65.6986 38.813C68.0532 37.1778 70.9957 36.6315 73.7825 37.3091L92.5228 41.8864C93.3215 35.7292 92.4363 29.3887 90.1474 23.6049L90.1405 23.6083Z" fill="#4D1F1F" stroke="#4D1F1F" stroke-width="2.07684" stroke-linecap="round" stroke-linejoin="round"/>
<path d="M45.4414 74.5664L46.6204 75.4756C49.0545 77.3529 50.6761 80.0944 51.1498 83.1333L51.2708 83.9215L53.3799 97.4737" stroke="#4D1F1F" stroke-width="2.07684" stroke-linecap="round" stroke-linejoin="round"/>
<path d="M108.007 58.9401C108.007 58.9401 101.756 54.5357 96.6424 61.0697L108.578 74.9918L91.0273 82.5146" stroke="#4D1F1F" stroke-width="2.07684" stroke-linecap="round" stroke-linejoin="round"/>
<path d="M79.1537 95.5801C77.4872 93.4125 74.2509 90.6398 71.0977 90.1074C72.7849 97.0771 76.0385 104.811 82.0995 103.794L82.0476 101.513C81.4529 99.3865 80.5263 97.364 79.1537 95.5801Z" fill="#FF5C4D" stroke="#FF5C4D" stroke-width="2.07684" stroke-linecap="round" stroke-linejoin="round"/>
<path d="M69.4336 79.7139C69.4336 79.7139 72.8427 86.4243 81.6871 85.5738L82.1123 103.793C71.3249 105.605 69.4336 79.7139 69.4336 79.7139Z" stroke="#4D1F1F" stroke-width="2.07684" stroke-linecap="round" stroke-linejoin="round"/>
<path d="M51.7502 86.7393L52.7736 107.168C53.1574 114.818 48.4171 121.795 41.1632 124.257L29.6289 128.17" stroke="#4D1F1F" stroke-width="2.07684" stroke-linecap="round" stroke-linejoin="round"/>
<path d="M38.4023 77.6094C41.9879 82.3803 48.5988 85.4745 51.7211 86.7363L53.3945 97.4743C54.3869 103.849 58.6847 109.236 64.6975 111.576C64.8116 111.621 64.9257 111.666 65.0432 111.708C71.4882 114.138 78.5003 114.66 85.2841 113.45L107.399 109.509" stroke="#4D1F1F" stroke-width="2.07684" stroke-linecap="round" stroke-linejoin="round"/>
<path d="M79.3403 16.8418C68.373 17.3638 59.5425 26.9402 48.6133 27.9912C54.7815 29.3568 61.0362 29.6991 67.1733 28.1952" fill="#4D1F1F"/>
<path d="M79.3403 16.8418C68.373 17.3638 59.5425 26.9402 48.6133 27.9912C54.7815 29.3568 61.0362 29.6991 67.1733 28.1952" stroke="#4D1F1F" stroke-width="2.07684" stroke-linecap="round" stroke-linejoin="round"/>
<path d="M70.2293 25.6074C63.7741 28.107 58.4426 33.3723 55.8633 39.7957" stroke="#FF5B4D" stroke-width="2.07684" stroke-linecap="round" stroke-linejoin="round"/>
<path d="M122.059 53.8931L127.452 47.8604" stroke="#4D1F1F" stroke-width="2.07684" stroke-linecap="round" stroke-linejoin="round"/>
<path d="M126.738 91.043L135.327 94.2818" stroke="#4D1F1F" stroke-width="2.07684" stroke-linecap="round" stroke-linejoin="round"/>
<path d="M102.196 118.213C98.1365 117.985 94.6512 115.572 92.9293 112.098L85.3329 113.453C78.5491 114.663 71.5406 114.141 65.0921 111.71C64.978 111.666 64.8639 111.624 64.7463 111.579C61.4063 110.279 58.5987 108.039 56.5898 105.211L56.825 106.711C57.8173 113.086 62.1151 118.473 68.1279 120.813C68.242 120.858 68.3561 120.903 68.4737 120.945C74.9186 123.375 80.0739 123.365 86.8578 122.155L102.199 118.213H102.196Z" fill="#4D1F1F" stroke="#4D1F1F" stroke-width="2.07684" stroke-linecap="round" stroke-linejoin="round"/>
<path d="M203.085 93.5488C225.784 84.6949 237.081 59.2225 228.471 36.4881C219.934 13.9439 194.618 2.25862 171.936 10.4314C152.283 17.5117 140.81 36.8891 142.774 56.5778L123.999 74.8213C122.758 76.0244 123.578 78.1298 125.306 78.1747C133.024 78.3856 148.023 78.7936 151.477 78.8869C163.143 94.4062 184.113 100.947 203.089 93.5453L203.085 93.5488Z" fill="#FBFCF9" stroke="#C4F5F5" stroke-width="2.07684" stroke-linecap="round" stroke-linejoin="round"/>
<path d="M192.017 28.7055L194.43 39.4746C194.786 41.0684 196.131 42.2507 197.756 42.4028L208.745 43.4331C212.382 43.7753 213.457 48.5704 210.314 50.4304L200.82 56.0552C199.413 56.8884 198.704 58.5306 199.063 60.1243L201.477 70.8934C202.275 74.4578 198.047 76.9608 195.305 74.5477L187.02 67.2565C185.793 66.1779 184.012 66.0084 182.605 66.8416L173.111 72.4664C169.968 74.3264 166.278 71.0801 167.727 67.7267L172.104 57.5971C172.751 56.0967 172.36 54.3508 171.133 53.2722L162.848 45.981C160.106 43.5679 162.057 39.0563 165.694 39.3985L176.682 40.4288C178.307 40.5809 179.849 39.6682 180.496 38.1713L184.873 28.0417C186.322 24.6883 191.215 25.1481 192.013 28.7124L192.017 28.7055Z" fill="#FFE28D"/>
<path d="M208.775 43.4346C212.413 43.7768 213.488 48.5719 210.345 50.4319L200.85 56.0567C199.443 56.8899 198.734 58.5321 199.094 60.1258L201.507 70.8949C202.306 74.4593 198.077 76.9623 195.336 74.5491L187.051 67.258C185.824 66.1793 184.043 66.0099 182.636 66.8431L173.141 72.4679C169.998 74.3279 166.309 71.0816 167.758 67.7281L172.135 57.5986C172.782 56.0982 172.391 54.3523 171.163 53.2737L162.879 45.9825" stroke="#FF5B4D" stroke-width="2.07684" stroke-linecap="round" stroke-linejoin="round"/>
<path d="M550.921 150.145C592.387 150.145 626.002 116.534 626.002 75.0726C626.002 33.6111 592.387 0 550.921 0C509.455 0 475.84 33.6111 475.84 75.0726C475.84 116.534 509.455 150.145 550.921 150.145Z" fill="#FFE28D"/>
<path d="M574.509 40.792L577.026 94.3333C577.752 109.773 565.782 122.862 550.337 123.512L519.92 124.794C513.61 125.061 508.69 119.391 509.845 113.182L514.506 88.0965L513.244 65.6076C513.098 63.0458 513.282 60.4737 513.786 57.9603L516.48 44.4843L574.505 40.792H574.509Z" fill="#FF5B4D"/>
<path d="M535.048 89.3753L525.481 85.887C521.733 84.5214 520.492 79.8369 523.075 76.7946L528.333 70.5994C529.336 69.417 529.817 67.8786 529.678 66.3367C529.481 64.1517 529.001 61.9599 528.064 60.0342C526.629 57.0853 523.642 54.9487 520.388 54.5477C518.248 54.2815 516.035 54.7724 514.168 55.8511" stroke="#4D1F1F" stroke-width="2.07684" stroke-linecap="round" stroke-linejoin="round"/>
<path d="M538.449 55.3812C542.785 53.1378 548.237 53.2035 552.518 55.5575" stroke="#4D1F1F" stroke-width="2.07684" stroke-linecap="round" stroke-linejoin="round"/>
<path d="M522.52 64.2979V67.5989" stroke="#4D1F1F" stroke-width="2.07684" stroke-linecap="round" stroke-linejoin="round"/>
<path d="M546.074 63.127V66.435" stroke="#4D1F1F" stroke-width="2.07684" stroke-linecap="round" stroke-linejoin="round"/>
<path d="M575.349 61.855L580.988 55.8706C582.275 54.505 584.536 54.7816 585.421 56.4376C587.71 60.721 588.266 66.2664 586.541 70.6189C584.37 76.0951 578.917 80.1192 573.043 80.579" fill="#FF5B4D"/>
<path d="M525.64 56.9081C524.164 55.6361 522.324 54.7823 520.388 54.5438C518.248 54.2776 516.035 54.7685 514.168 55.8469" stroke="#4D1F1F" stroke-width="2.07684" stroke-linecap="round" stroke-linejoin="round"/>
<path d="M577.026 94.3311L575.56 63.1992L567.507 63.9805L568.081 79.6139C568.188 82.5352 566.909 85.339 564.627 87.1678L556.827 93.4288C555.067 94.8427 552.705 95.2645 550.565 94.5489L530.846 87.9595L521.988 92.8791C519.979 93.9957 517.445 93.325 516.252 91.3579L514.45 88.3951L509.845 113.18C508.69 119.389 513.61 125.058 519.92 124.792L550.337 123.51C565.782 122.86 577.752 109.771 577.026 94.3311Z" fill="#4D1F1F" stroke="#4D1F1F" stroke-width="2.07684" stroke-linecap="round" stroke-linejoin="round"/>
<path d="M516.46 44.4814C515.032 42.6975 514.544 40.3397 515.149 38.134L517.898 28.1497C518.344 26.5248 520.253 25.8161 521.653 26.7495L525.657 29.4254L529.235 25.2872C530.134 24.2465 531.715 24.1394 532.745 25.0555L536.555 28.4332L539.273 25.0209C540.227 23.8213 542.036 23.7729 543.052 24.9172L545.545 27.721L548.366 24.568C549.276 23.5482 550.842 23.4652 551.859 24.3779L555.268 27.4375L558.867 24.3191C559.891 23.4341 561.433 23.5344 562.332 24.5439L565.281 27.8627L568.279 25.1938C569.596 24.0184 571.688 24.5681 572.259 26.2379L575.063 34.4314C575.782 36.5333 575.574 38.8462 574.496 40.7857L516.47 44.4779L516.46 44.4814Z" fill="#4D1F1F" stroke="#4D1F1F" stroke-width="2.07684" stroke-linecap="round" stroke-linejoin="round"/>
<path d="M582.793 64.7227C580.127 66.3856 578.042 68.937 576.964 71.8617C576.328 73.5869 576.044 75.433 576.117 77.2653" stroke="#4D1F1F" stroke-width="2.07684" stroke-linecap="round" stroke-linejoin="round"/>
<path d="M525.438 96.8058C528.29 97.0478 533.829 97.2483 540.769 96.1766C541.792 96.0176 542.456 97.1204 541.754 97.8118L535.97 103.516C534.6 104.864 532.26 104.896 530.849 103.582L524.823 97.9605C524.332 97.5042 524.733 96.7436 525.435 96.8024L525.438 96.8058Z" fill="#FBFCF9" stroke="#FBFCF9" stroke-width="2.07684" stroke-linecap="round" stroke-linejoin="round"/>
<path d="M575.194 58.7588L567.145 59.54" stroke="#4D1F1F" stroke-width="2.07684" stroke-linecap="round" stroke-linejoin="round"/>
<path d="M574.971 54.5684L566.918 55.3496" stroke="#4D1F1F" stroke-width="2.07684" stroke-linecap="round" stroke-linejoin="round"/>
<path d="M574.635 50.5195L566.582 51.3007" stroke="#4D1F1F" stroke-width="2.07684" stroke-linecap="round" stroke-linejoin="round"/>
<path d="M574.338 46.0469L566.285 46.8281" stroke="#4D1F1F" stroke-width="2.07684" stroke-linecap="round" stroke-linejoin="round"/>
<path d="M588.715 36.8002C591.28 34.9645 593.846 33.1287 596.408 31.293" stroke="#4D1F1F" stroke-width="2.07684" stroke-linecap="round" stroke-linejoin="round"/>
<path d="M595.238 48.7439C598.267 48.3119 601.299 47.8832 604.328 47.4512" stroke="#4D1F1F" stroke-width="2.07684" stroke-linecap="round" stroke-linejoin="round"/>
<path d="M576.902 79.7627C576.978 89.3183 584.208 97.2975 593.709 98.3174L616.878 100.803" stroke="#4D1F1F" stroke-width="2.07684" stroke-linecap="round" stroke-linejoin="round"/>
<path d="M495.254 111.194L512.994 104.553" stroke="#4D1F1F" stroke-width="2.07684" stroke-linecap="round" stroke-linejoin="round"/>
<path d="M517.165 112.859C516.01 119.068 520.93 124.738 527.24 124.472" stroke="#FF5B4D" stroke-width="2.07684" stroke-linecap="round" stroke-linejoin="round"/>
<path d="M526.821 112.433C525.666 118.642 530.587 124.311 536.896 124.045" stroke="#FF5B4D" stroke-width="2.07684" stroke-linecap="round" stroke-linejoin="round"/>
<path d="M536.509 112.01C535.354 118.219 540.274 123.889 546.584 123.622" stroke="#FF5B4D" stroke-width="2.07684" stroke-linecap="round" stroke-linejoin="round"/>
<path d="M546.133 111.579C545.124 117.01 548.765 122.03 553.916 123.022" stroke="#FF5B4D" stroke-width="2.07684" stroke-linecap="round" stroke-linejoin="round"/>
<path d="M457.918 179.374C435.833 189.662 409.612 180.222 399.125 158.293C388.728 136.542 397.772 110.173 419.354 99.4251C438.054 90.114 459.989 95.2095 472.868 110.235L499.03 109.269C500.758 109.208 501.712 111.251 500.551 112.531C495.371 118.255 485.302 129.375 482.981 131.937C486.14 151.092 476.379 170.771 457.916 179.371L457.918 179.374Z" fill="#FBFCF9" stroke="#C4F5F5" stroke-width="2.07684" stroke-linecap="round" stroke-linejoin="round"/>
<path d="M453.563 131.116L469.988 133.184L466.68 159.462L450.255 157.394L453.563 131.116Z" fill="#00BFE6" stroke="#00BFE6" stroke-width="2.07684" stroke-linecap="round" stroke-linejoin="round"/>
<path d="M453.589 131.121L452.055 130.928C449.859 130.653 447.945 129.297 446.958 127.313L443.658 120.699C443.368 120.115 443.253 119.457 443.337 118.808L443.832 114.877C443.946 113.971 443.304 113.143 442.397 113.028C439.675 112.687 437.191 114.615 436.85 117.334L435.816 125.545C435.586 127.36 433.93 128.646 432.117 128.416L418.977 126.763C417.161 126.534 415.508 127.819 415.278 129.635C415.049 131.451 416.334 133.104 418.15 133.333C416.334 133.104 414.681 134.389 414.452 136.205C414.223 138.02 415.508 139.673 417.324 139.902C415.508 139.673 413.855 140.958 413.625 142.774C413.396 144.59 414.681 146.243 416.497 146.472L426.355 147.713L419.784 146.887C417.968 146.657 416.315 147.943 416.086 149.758C415.856 151.574 417.142 153.227 418.958 153.456L450.293 157.398L453.602 131.12L453.589 131.121Z" fill="#FFE28D"/>
<path d="M418.15 133.333C416.334 133.104 415.049 131.451 415.278 129.635C415.508 127.819 417.161 126.534 418.977 126.763L432.117 128.416C433.93 128.646 435.586 127.36 435.816 125.545L436.85 117.334C437.191 114.615 439.675 112.687 442.397 113.028C443.304 113.143 443.946 113.971 443.832 114.877L443.337 118.808C443.253 119.457 443.368 120.115 443.658 120.699L446.958 127.313C447.945 129.297 449.859 130.653 452.055 130.928L453.589 131.121L453.602 131.12L450.293 157.398L418.958 153.456C417.142 153.227 415.856 151.574 416.086 149.758C416.315 147.943 417.968 146.657 419.784 146.887L426.355 147.713L416.497 146.472C414.681 146.243 413.396 144.59 413.625 142.774C413.855 140.958 415.508 139.673 417.324 139.902M418.15 133.333L428.008 134.574M418.15 133.333C416.334 133.104 414.681 134.389 414.452 136.205C414.223 138.02 415.508 139.673 417.324 139.902M417.324 139.902L427.181 141.144" stroke="#FFE28D" stroke-width="2.07684" stroke-miterlimit="10"/>
<path d="M437.833 149.16L435.535 132.809" stroke="#FF5B4D" stroke-width="2.07684" stroke-linecap="round" stroke-linejoin="round"/>
<path d="M435.81 125.55L435.434 128.523C434.893 132.834 436.499 137.135 439.73 140.035L440.562 140.784" stroke="#FF5B4D" stroke-width="2.07684" stroke-linecap="round" stroke-linejoin="round"/>
<path d="M428.821 128.005C430.637 128.235 431.922 129.891 431.693 131.703C431.463 133.519 429.807 134.804 427.994 134.575L416.53 133.131" stroke="#FF5B4D" stroke-width="2.07684" stroke-linecap="round" stroke-linejoin="round"/>
<path d="M424.707 134.165L427.993 134.58C429.809 134.81 431.094 136.465 430.864 138.277C430.635 140.093 428.979 141.378 427.167 141.148L423.881 140.733" stroke="#FF5B4D" stroke-width="2.07684" stroke-linecap="round" stroke-linejoin="round"/>
<path d="M415.689 139.703L427.163 141.146C428.979 141.375 430.265 143.031 430.035 144.844C429.806 146.659 428.149 147.945 426.337 147.715L417.236 146.569" stroke="#FF5B4D" stroke-width="2.07684" stroke-linecap="round" stroke-linejoin="round"/>
<path d="M423.035 147.305L426.321 147.72C428.137 147.949 429.422 149.605 429.192 151.417C428.963 153.232 427.307 154.517 425.495 154.288L422.209 153.873" stroke="#FF5B4D" stroke-width="2.07684" stroke-linecap="round" stroke-linejoin="round"/>
<path d="M429.207 151.43L428.792 154.715L425.506 154.301C427.322 154.53 428.974 153.245 429.204 151.43L429.207 151.43Z" stroke="#FF5B4D" stroke-width="2.07684" stroke-linecap="round" stroke-linejoin="round"/>
<path d="M427.994 134.586C429.81 134.815 431.462 133.53 431.691 131.715L430.865 138.283C431.095 136.467 429.81 134.815 427.994 134.586Z" stroke="#FF5B4D" stroke-width="2.07684" stroke-linecap="round" stroke-linejoin="round"/>
<path d="M430.082 144.855L429.256 151.423C429.485 149.608 428.2 147.956 426.385 147.726C428.2 147.956 429.853 146.671 430.082 144.855Z" stroke="#FF5B4D" stroke-width="2.07684" stroke-linecap="round" stroke-linejoin="round"/>
<path d="M430.832 138.29L430.006 144.858C430.235 143.043 428.95 141.39 427.135 141.161C428.95 141.39 430.603 140.105 430.832 138.29Z" stroke="#FF5B4D" stroke-width="2.07684" stroke-linecap="round" stroke-linejoin="round"/>
<path d="M450.26 157.405L418.928 153.462" stroke="#FF5B4D" stroke-width="2.07684" stroke-linecap="round" stroke-linejoin="round"/>
<path d="M452.492 157.686L466.692 159.473" stroke="#4D1F1F" stroke-width="2.07684" stroke-linecap="round" stroke-linejoin="round"/>
<path d="M243.004 65.6007C219.942 57.7426 194.885 69.9464 186.818 92.8744C178.817 115.616 190.642 140.86 213.255 149.23C232.849 156.48 254.106 149.057 265.299 132.736L291.414 130.886C293.139 130.765 293.869 128.628 292.576 127.481C286.809 122.347 275.606 112.373 273.023 110.07C274.105 90.686 262.287 72.1728 243.008 65.6042L243.004 65.6007Z" fill="#FBFCF9" stroke="#C4F5F5" stroke-width="2.07684" stroke-linecap="round" stroke-linejoin="round"/>
<path d="M243.004 65.6007C219.942 57.7426 194.885 69.9464 186.818 92.8744C178.817 115.616 190.642 140.86 213.255 149.23C232.849 156.48 254.106 149.057 265.299 132.736L291.414 130.886C293.139 130.765 293.869 128.628 292.576 127.481C286.809 122.347 275.606 112.373 273.023 110.07C274.105 90.686 262.287 72.1728 243.008 65.6042L243.004 65.6007Z" fill="#FBFCF9" stroke="#C4F5F5" stroke-width="2.07684" stroke-linecap="round" stroke-linejoin="round"/>
<path d="M233.44 87.2529C229.191 89.1128 225.868 93.3582 225.525 98.1015C222.735 95.6884 219.679 93.8353 215.861 94.0358C209.741 94.3573 204.579 98.3642 203.763 104.556C203.386 107.412 203.915 110.153 205.229 112.718C207.145 116.452 211.685 118.665 215.211 120.559C217.725 121.911 220.311 123.125 222.956 124.196C225.415 125.192 231.846 129.116 232.952 131.577C233.032 131.508 233.893 127.961 235.943 124.68C236.953 123.066 238.007 121.486 239.224 120.027C242.402 116.224 246.192 112.777 248.384 108.259C251.866 101.085 249.677 89.4931 241.32 86.7688C238.644 85.8976 235.884 86.1777 233.436 87.2494L233.44 87.2529Z" fill="#FF5B4D" stroke="#FF5B4D" stroke-width="2.07684" stroke-linecap="round" stroke-linejoin="round"/>
<path d="M203.771 104.557C203.394 107.412 203.923 110.154 205.237 112.719C207.153 116.453 211.692 118.665 215.219 120.56C217.733 121.912 220.319 123.125 222.964 124.197C225.423 125.193 231.854 129.116 232.96 131.578C233.04 131.509 233.901 127.962 235.951 124.681C236.961 123.066 238.015 121.486 239.232 120.028C242.41 116.225 246.199 112.778 248.392 108.259" stroke="#4D1F1F" stroke-width="2.07684" stroke-linecap="round" stroke-linejoin="round"/>
</svg>
