<svg width="542" height="281" viewBox="0 0 542 281" fill="none" xmlns="http://www.w3.org/2000/svg">
<path d="M31.791 186.577C22.1569 186.577 12.5228 185.303 2.95626 182.757C1.80737 182.45 1.00391 181.411 1.00391 180.223V82.5457C1.00391 81.7322 1.38311 80.9599 2.02889 80.4651C2.67467 79.9702 3.51944 79.8016 4.30789 80.0115C22.5436 84.8663 41.0347 84.8663 59.2704 80.0115C60.6746 79.6366 62.1126 80.4726 62.488 81.8709C62.8635 83.273 62.03 84.7088 60.6258 85.0837C42.5928 89.886 24.3195 90.1597 6.26024 85.9122V178.191C23.8615 182.54 41.688 182.371 59.2742 177.689C60.6746 177.314 62.1163 178.146 62.4918 179.548C62.8672 180.95 62.0337 182.386 60.6295 182.761C51.063 185.307 41.4289 186.581 31.7948 186.581L31.791 186.577Z" fill="#C4F5F5"/>
<path d="M62.4895 81.8633C62.865 83.2654 62.0315 84.7012 60.6273 85.0761C42.5943 89.8784 24.321 90.1521 6.26172 85.9046" stroke="#00BFE6" stroke-width="1.50176" stroke-linecap="round" stroke-linejoin="round"/>
<path d="M62.488 150.867V179.546C62.8635 180.948 62.03 182.384 60.6258 182.758C51.0592 185.304 41.4251 186.579 31.791 186.579C22.1569 186.579 12.5228 185.304 2.95626 182.758C1.80737 182.451 1.00391 181.413 1.00391 180.224V82.5469" stroke="#00BFE6" stroke-width="1.50176" stroke-linecap="round" stroke-linejoin="round"/>
<path d="M4.3046 125.707L2.94922 145.981L17.5205 147.368V126.869L4.3046 125.707Z" fill="#C4F5F5"/>
<path d="M6.26172 146.294L17.5253 147.366V126.867" stroke="#00BFE6" stroke-width="1.50176" stroke-linecap="round" stroke-linejoin="round"/>
<path d="M129.176 25.0078V179.211" stroke="#00BFE6" stroke-width="4.50528" stroke-linecap="round" stroke-linejoin="round"/>
<path d="M175.711 187.17V93.9649C175.711 55.8799 154.899 25.0078 129.228 25.0078C103.558 25.0078 82.7461 55.8799 82.7461 93.9649V187.17" stroke="#00BFE6" stroke-width="4.50528" stroke-linecap="round" stroke-linejoin="round"/>
<path d="M129.217 217.7C168.616 217.7 200.555 215.182 200.555 212.076C200.555 208.971 168.616 206.453 129.217 206.453C89.818 206.453 57.8789 208.971 57.8789 212.076C57.8789 215.182 89.818 217.7 129.217 217.7Z" fill="#4D1F1F" stroke="#4D1F1F" stroke-width="1.50176" stroke-linecap="round" stroke-linejoin="round"/>
<path d="M57.8789 208.33C57.8789 211.434 89.8196 213.954 129.217 213.954C168.614 213.954 200.555 211.434 200.555 208.33V189.586H57.8789V208.33Z" fill="#C4F5F5" stroke="#00BFE6" stroke-width="1.50176" stroke-linecap="round" stroke-linejoin="round"/>
<path d="M57.8789 182.09V189.588C57.8789 192.692 89.8196 195.211 129.217 195.211C168.614 195.211 200.555 192.692 200.555 189.588V182.09H57.8789Z" fill="#00BFE6"/>
<path d="M129.186 187.712C168.585 187.712 200.524 185.194 200.524 182.088C200.524 178.982 168.585 176.465 129.186 176.465C89.7868 176.465 57.8477 178.982 57.8477 182.088C57.8477 185.194 89.7868 187.712 129.186 187.712Z" fill="#00BFE6"/>
<path d="M199.414 182.133C199.414 185.188 167.991 187.666 129.228 187.666C90.4655 187.666 59.043 185.188 59.043 182.133" stroke="#4D1F1F" stroke-width="1.50176" stroke-linecap="round" stroke-linejoin="round"/>
<path d="M57.8789 208.332C57.8789 211.436 89.8196 213.955 129.217 213.955C168.614 213.955 200.555 211.436 200.555 208.332" stroke="#4D1F1F" stroke-width="1.50176" stroke-linecap="round" stroke-linejoin="round"/>
<path d="M129.18 183.21C159.248 183.21 183.623 182.707 183.623 182.086C183.623 181.464 159.248 180.961 129.18 180.961C99.1129 180.961 74.7383 181.464 74.7383 182.086C74.7383 182.707 99.1129 183.21 129.18 183.21Z" fill="#4D1F1F" stroke="#4D1F1F" stroke-width="1.50176" stroke-linecap="round" stroke-linejoin="round"/>
<path d="M109.794 170.059V173.41C109.794 174.988 108.743 176.376 107.219 176.803L98.298 179.307C97.686 179.48 97.2617 180.038 97.2617 180.675C97.2617 181.459 97.9 182.096 98.6847 182.096H124.944C125.86 182.096 126.6 181.358 126.6 180.443C126.6 179.675 126.066 179.003 125.316 178.831L124.122 178.557C122.995 178.299 122.196 177.298 122.196 176.143V171.078L109.798 170.062L109.794 170.059Z" fill="#FF5C4D"/>
<path d="M123.46 160.607C121.005 162.553 118.974 164.979 117.487 167.734L115.91 170.651C115.302 171.775 114.123 172.48 112.843 172.48H112.17C110.244 172.48 108.686 170.924 108.686 169.001C108.686 165.507 106.723 162.309 103.606 160.724L90.6758 154.137" fill="#C4F5F5"/>
<path d="M123.46 160.607C121.005 162.553 118.974 164.979 117.487 167.734L115.91 170.651C115.302 171.775 114.123 172.48 112.843 172.48H112.17C110.244 172.48 108.686 170.924 108.686 169.001C108.686 165.507 106.723 162.309 103.606 160.724L90.6758 154.137" stroke="#C4F5F5" stroke-width="1.50176" stroke-linecap="round" stroke-linejoin="round"/>
<path d="M164.647 133.737L161.474 132.391L116.644 113.437C109.619 110.464 101.487 112.184 96.2719 117.748C96.2268 117.793 96.1855 117.842 96.1405 117.887C91.1469 123.214 89.8177 131 92.7914 137.744L92.9303 138.059C96.8013 146.839 105.501 152.5 115.109 152.493L138.762 152.47C139.626 152.47 140.49 152.433 141.346 152.369C147.728 151.893 153.815 149.685 158.966 146.044C161.605 144.181 164.001 141.943 166.07 139.368C167.583 137.486 166.877 134.678 164.65 133.733L164.647 133.737Z" fill="#00BFE6" stroke="#00BFE6" stroke-width="1.50176" stroke-linecap="round" stroke-linejoin="round"/>
<path d="M79.5801 123.371C79.5801 123.371 75.2924 130.449 77.0946 141.786C80.8942 147.941 86.7175 152.912 94.0501 155.57L111.114 161.763C114.159 162.869 116.191 165.76 116.191 168.995C116.191 170.918 117.749 172.474 119.675 172.474H120.347C121.627 172.474 122.806 171.773 123.414 170.645L124.991 167.728C126.478 164.973 128.513 162.547 130.965 160.601L141.184 152.492H115.102C78.7466 152.492 79.5801 123.371 79.5801 123.371Z" fill="#FBFCF9" stroke="#C4F5F5" stroke-width="1.50176" stroke-linecap="round" stroke-linejoin="round"/>
<path d="M79.5867 123.369C77.4429 118.844 75.9186 114.056 75.4042 109.164C75.0513 110.352 74.6683 111.533 74.2478 112.71L74.0864 113.157C70.5496 123.039 71.9838 133.491 77.1013 141.783C75.2991 130.447 79.5867 123.369 79.5867 123.369Z" fill="#00BFE6" stroke="#00BFE6" stroke-width="1.50176" stroke-linecap="round" stroke-linejoin="round"/>
<path d="M96.2767 117.745C101.492 112.185 109.624 110.465 116.649 113.434L161.48 132.388L122.296 115.751C114.062 112.253 107.394 106.281 103.005 98.9219C85.9778 101.955 80.8339 117.325 79.5836 123.368C79.5836 123.368 78.7501 152.49 115.106 152.49H141.19L141.344 152.366C140.488 152.43 139.628 152.467 138.76 152.467L115.114 152.49C105.506 152.497 96.8024 146.836 92.9276 138.057L92.7887 137.742C89.815 130.994 91.1441 123.207 96.1378 117.884C96.1829 117.839 96.2242 117.79 96.2692 117.745H96.2767Z" fill="#00BFE6" stroke="#00BFE6" stroke-width="1.50176" stroke-linecap="round" stroke-linejoin="round"/>
<path d="M105.14 112.543C101.817 113.371 98.7236 115.137 96.2719 117.75C96.2268 117.795 96.1855 117.844 96.1405 117.889C91.1469 123.216 89.8177 131.003 92.7914 137.747L92.9303 138.062C96.8013 146.842 105.501 152.502 115.109 152.495L138.762 152.472C139.626 152.472 140.49 152.435 141.346 152.371C147.728 151.895 153.815 149.687 158.966 146.047C161.605 144.184 164.001 141.946 166.07 139.37C167.583 137.488 166.877 134.68 164.65 133.735L161.478 132.39" stroke="#4D1F1F" stroke-width="1.50176" stroke-linecap="round" stroke-linejoin="round"/>
<path d="M118.527 102.734L119.748 96.7812" stroke="#4D1F1F" stroke-width="1.50176" stroke-linecap="round" stroke-linejoin="round"/>
<path d="M138.52 112.56L141.906 108.23" stroke="#4D1F1F" stroke-width="1.50176" stroke-linecap="round" stroke-linejoin="round"/>
<path d="M161.469 132.388L122.287 115.751C114.053 112.253 107.385 106.281 102.996 98.9219" stroke="#C4F5F5" stroke-width="1.50176" stroke-linecap="round" stroke-linejoin="round"/>
<path d="M102.998 98.9264C99.2733 92.6845 97.1896 87.0199 97.1896 79.4434V77.8651C97.1896 77.8651 97.6364 68.2305 88.5241 68.2305C86.4366 68.2305 84.3754 68.8116 82.5657 69.8538H82.5619C79.8324 71.4283 78.1504 74.3337 78.1504 77.479C78.1504 81.033 78.1466 85.929 78.1428 90.3939C78.1391 96.7333 77.2192 103.031 75.3945 109.168C75.9089 114.061 77.437 118.848 79.5771 123.373C80.8273 117.326 85.971 101.959 102.998 98.9264Z" fill="#4D1F1F" stroke="#4D1F1F" stroke-width="1.50176" stroke-linecap="round" stroke-linejoin="round"/>
<path d="M74.5422 93.2488C73.9489 82.3396 75.6723 77.8671 82.5656 73.8633C82.5656 73.8633 85.9033 79.7078 85.9033 87.1006L84.4353 85.916C81.7997 83.7866 77.8499 84.8288 76.6109 87.9816L74.5459 93.2488H74.5422Z" fill="#4D1F1F" stroke="#4D1F1F" stroke-width="1.50176" stroke-linecap="round" stroke-linejoin="round"/>
<path d="M75.1836 83.6517V78.8419C75.1836 77.9946 76.0959 77.3086 77.2223 77.3086C78.2698 77.3086 78.9494 78.1446 78.4688 78.8456L75.1836 83.6517Z" fill="#FF5C4D" stroke="#FF5C4D" stroke-width="1.50176" stroke-linecap="round" stroke-linejoin="round"/>
<path d="M74.543 93.2446L75.9209 89.7319C77.4978 85.7093 82.5364 84.3785 85.9004 87.0964C85.8892 84.9146 84.6089 82.6952 82.5927 81.8555" stroke="#00BFE6" stroke-width="1.50176" stroke-linecap="round" stroke-linejoin="round"/>
<path d="M90.6716 79.7678C92.3304 79.7678 93.6752 78.425 93.6752 76.7686C93.6752 75.1123 92.3304 73.7695 90.6716 73.7695C89.0127 73.7695 87.668 75.1123 87.668 76.7686C87.668 78.425 89.0127 79.7678 90.6716 79.7678Z" stroke="#C4F5F5" stroke-width="1.50176" stroke-linecap="round" stroke-linejoin="round"/>
<path d="M180.891 136.976L161.469 132.391L164.641 133.736C166.868 134.681 167.574 137.485 166.061 139.371C163.992 141.943 161.596 144.185 158.957 146.048H168.557C173.465 146.048 178.206 144.271 181.901 141.047C183.346 139.783 182.761 137.418 180.891 136.976Z" fill="#4D1F1F" stroke="#4D1F1F" stroke-width="1.50176" stroke-linecap="round" stroke-linejoin="round"/>
<path d="M137.221 143.738C141.309 138.433 144.065 132.124 145.252 125.537L134.585 121.027C133.429 127.712 130.65 134.115 126.509 139.494C122.342 144.904 116.807 149.249 110.59 152.076C112.058 152.353 113.567 152.496 115.099 152.496L128.033 152.484C131.514 150.051 134.634 147.101 137.224 143.738H137.221Z" fill="#4D1F1F" stroke="#4D1F1F" stroke-width="1.50176" stroke-linecap="round" stroke-linejoin="round"/>
<path d="M116.177 173.414C116.177 174.992 115.126 176.379 113.602 176.807L104.681 179.311C104.069 179.484 103.645 180.042 103.645 180.679C103.645 181.463 104.283 182.1 105.067 182.1" stroke="#4D1F1F" stroke-width="1.50176" stroke-linecap="round" stroke-linejoin="round"/>
<path d="M97.2617 182.09H126.397" stroke="#4D1F1F" stroke-width="1.50176" stroke-linecap="round" stroke-linejoin="round"/>
<path d="M129.224 0C122.938 0 117.84 5.08727 117.84 11.3667C117.84 17.6461 122.935 22.7333 129.224 22.7333C135.512 22.7333 140.607 17.6461 140.607 11.3667C140.607 5.08727 135.512 0 129.224 0ZM129.224 17.05C126.081 17.05 123.532 14.5045 123.532 11.3667C123.532 8.22884 126.081 5.68333 129.224 5.68333C132.366 5.68333 134.915 8.22884 134.915 11.3667C134.915 14.5045 132.366 17.05 129.224 17.05Z" fill="#C4F5F5"/>
<path d="M117.848 11.3672C117.848 17.6428 122.943 22.7338 129.231 22.7338C135.52 22.7338 140.615 17.6466 140.615 11.3672" stroke="#00BFE6" stroke-width="1.50176" stroke-linecap="round" stroke-linejoin="round"/>
<path d="M123.535 11.3708C123.535 8.23301 126.084 5.6875 129.227 5.6875C132.37 5.6875 134.919 8.23301 134.919 11.3708" stroke="#00BFE6" stroke-width="1.50176" stroke-linecap="round" stroke-linejoin="round"/>
<path d="M198.288 190.186C197.03 190.186 196.012 189.166 196.012 187.914V93.9594C196.012 57.1903 166.054 27.2779 129.229 27.2779C92.4033 27.2779 62.4451 57.1903 62.4451 93.9594V187.914C62.4451 189.17 61.4239 190.186 60.1698 190.186C58.9158 190.186 57.8945 189.166 57.8945 187.914V93.9594C57.8945 54.6823 89.8953 22.7305 129.233 22.7305C168.57 22.7305 200.571 54.6823 200.571 93.9594V187.914C200.571 189.17 199.549 190.186 198.295 190.186H198.288Z" fill="#C4F5F5"/>
<path d="M200.563 187.918C200.563 189.173 199.542 190.189 198.288 190.189C197.034 190.189 196.012 189.17 196.012 187.918V93.9628C196.012 57.1937 166.054 27.2812 129.229 27.2812C92.4033 27.2812 62.4451 57.1937 62.4451 93.9628V187.918C62.4451 189.173 61.4239 190.189 60.1698 190.189C58.9158 190.189 57.8945 189.17 57.8945 187.918" stroke="#00BFE6" stroke-width="1.50176" stroke-linecap="round" stroke-linejoin="round"/>
<path d="M155.785 193.916C154.527 193.916 153.51 192.897 153.51 191.644V93.9633C153.51 75.8149 150.799 58.7912 145.88 46.0187C141.292 34.1085 135.221 27.278 129.225 27.278C123.229 27.278 117.154 34.1085 112.566 46.0187C107.648 58.7875 104.937 75.8149 104.937 93.9633V191.644C104.937 192.9 103.916 193.916 102.662 193.916C101.408 193.916 100.387 192.897 100.387 191.644V93.9633C100.387 75.2713 103.203 57.6665 108.316 44.388C113.697 30.4234 121.119 22.7344 129.221 22.7344C137.324 22.7344 144.75 30.4234 150.127 44.388C155.24 57.6665 158.056 75.2713 158.056 93.9633V191.644C158.056 192.9 157.035 193.916 155.781 193.916H155.785Z" fill="#C4F5F5"/>
<path d="M158.06 191.644C158.06 192.9 157.039 193.916 155.785 193.916C154.531 193.916 153.51 192.896 153.51 191.644V93.9626C153.51 75.8142 150.799 58.7905 145.88 46.0181C141.292 34.1078 135.221 27.2773 129.225 27.2773C123.229 27.2773 117.154 34.1078 112.566 46.0181C107.648 58.7868 104.937 75.8142 104.937 93.9626V191.644C104.937 192.9 103.916 193.916 102.662 193.916C101.408 193.916 100.387 192.896 100.387 191.644" stroke="#00BFE6" stroke-width="1.50176" stroke-linecap="round" stroke-linejoin="round"/>
<path d="M103.467 13.276L100.723 5.05469" stroke="#00BFE6" stroke-width="1.50176" stroke-linecap="round" stroke-linejoin="round"/>
<path d="M91.5633 19.3662L86.0742 12.3633" stroke="#00BFE6" stroke-width="1.50176" stroke-linecap="round" stroke-linejoin="round"/>
<path d="M81.0975 47.0238C76.9488 47.4062 75.2405 47.0388 75.0978 45.4868C74.9288 43.6723 76.4231 42.8588 78.0376 42.1878C79.5544 41.6292 80.7071 41.0556 80.5944 39.8635C80.5006 38.8288 79.7309 38.4276 78.3304 38.5589C75.6835 38.8025 74.6322 40.9881 71.2081 41.303C67.371 41.6554 65.9367 39.751 65.6664 36.7968C65.1746 31.4622 69.496 28.9729 79.9749 28.0095C90.3487 27.0535 94.2309 30.5625 94.6551 35.1736C95.0606 39.5748 93.4086 40.9281 89.977 42.289C87.9608 43.1025 87.5553 43.8185 87.2662 44.6808C86.8908 45.708 86.3914 46.5365 81.1013 47.0238H81.0975ZM74.3844 55.4813C74.0127 51.4363 76.5696 49.3444 81.3791 48.902C86.1924 48.4597 89.1285 50.0454 89.5002 54.0905C89.8531 57.9331 87.2249 59.2265 82.3703 59.6726C77.5157 60.1187 74.7299 59.2864 74.3807 55.4813H74.3844Z" fill="#FF5C4D"/>
<path d="M183.494 244.79L136.884 229.277L33.3086 244.79L75.2065 258.736C78.3041 259.767 81.6007 260.052 84.8296 259.568L183.494 244.79Z" fill="#4D1F1F" stroke="#4D1F1F" stroke-width="1.50176" stroke-linecap="round" stroke-linejoin="round"/>
<path d="M36.8492 240.796L75.2065 253.561C78.3041 254.592 81.6007 254.877 84.8296 254.393L179.082 240.279C181.617 239.9 183.494 237.726 183.494 235.165V212.319C183.494 210.093 182.067 208.117 179.953 207.412L141.596 194.647C138.498 193.616 135.202 193.331 131.973 193.815L37.7203 207.929C35.1859 208.308 33.3086 210.482 33.3086 213.043V235.889C33.3086 238.116 34.7354 240.091 36.8492 240.796Z" fill="#FFBB99"/>
<path d="M179.597 211.246L84.8259 225.439C81.597 225.923 78.3004 225.638 75.2028 224.607L37.5664 212.082" stroke="#FF5C4D" stroke-width="1.50176" stroke-linecap="round" stroke-linejoin="round"/>
<path d="M33.3086 235.892C33.3086 238.118 34.7354 240.094 36.8492 240.799L75.2065 253.564C78.3041 254.595 81.6007 254.88 84.8296 254.396L179.082 240.281C181.617 239.903 183.494 237.728 183.494 235.168" stroke="#FF5C4D" stroke-width="1.50176" stroke-linecap="round" stroke-linejoin="round"/>
<path d="M79.8633 229.277V250.721" stroke="#FF5C4D" stroke-width="1.50176" stroke-linecap="round" stroke-linejoin="round"/>
<path d="M104.03 198L57.5898 204.954L77.41 211.552L123.91 204.587L104.03 198Z" fill="#FBFCF9"/>
<path d="M77.4102 211.555L90.2694 215.837L134.663 209.186C135.204 209.104 135.267 208.354 134.749 208.185L123.91 204.594L77.4102 211.559V211.555Z" fill="#FF5C4D"/>
<path d="M57.5898 204.953L90.2701 215.829L134.564 209.197" stroke="#FF5C4D" stroke-width="1.50176" stroke-linecap="round" stroke-linejoin="round"/>
<path d="M442.37 206.943C463.106 206.943 479.916 205.265 479.916 203.194C479.916 201.124 463.106 199.445 442.37 199.445C421.634 199.445 404.824 201.124 404.824 203.194C404.824 205.265 421.634 206.943 442.37 206.943Z" fill="#4D1F1F" stroke="#4D1F1F" stroke-width="1.50176" stroke-linecap="round" stroke-linejoin="round"/>
<path d="M472.407 173.207H412.333L404.824 191.951V199.449C404.824 201.519 421.633 203.198 442.37 203.198C463.107 203.198 479.916 201.519 479.916 199.449V191.951L472.407 173.207Z" fill="#FFE88C"/>
<path d="M442.37 195.698C421.633 195.698 404.824 194.019 404.824 191.949V199.447C404.824 201.516 421.633 203.196 442.37 203.196C463.107 203.196 479.916 201.516 479.916 199.447V191.949C479.916 194.019 463.107 195.698 442.37 195.698Z" fill="#FFBB99"/>
<path d="M442.376 176.205C458.965 176.205 472.412 174.863 472.412 173.206C472.412 171.55 458.965 170.207 442.376 170.207C425.788 170.207 412.34 171.55 412.34 173.206C412.34 174.863 425.788 176.205 442.376 176.205Z" fill="#FF5C4D"/>
<path d="M412.34 173.205L413.579 172.834C415.073 172.388 416.094 171.012 416.094 169.456C416.094 167.9 415.069 166.524 413.579 166.078L412.34 165.707H472.412L471.173 166.078C469.679 166.524 468.658 167.9 468.658 169.456C468.658 171.012 469.683 172.388 471.173 172.834L472.412 173.205" fill="#FF5C4D"/>
<path d="M427.351 199.449V191.951L430.355 173.207C430.355 172.764 430.745 172.341 431.44 171.962C431.703 171.314 431.857 170.421 431.857 169.458C431.857 168.494 431.699 167.598 431.44 166.954C430.745 166.575 430.355 166.155 430.355 165.709V161.96C430.355 160.318 435.645 158.983 442.204 158.961C425.692 158.968 412.333 160.311 412.333 161.96V165.709C412.333 166.151 413.306 166.575 415.04 166.954C415.694 167.602 416.088 168.494 416.088 169.458C416.088 170.421 415.694 171.317 415.04 171.962C413.306 172.341 412.333 172.761 412.333 173.207L404.824 191.951V199.449C404.824 201.507 421.412 203.175 441.956 203.198C433.854 203.142 427.351 201.488 427.351 199.453V199.449Z" fill="#FF5C4D" stroke="#FF5C4D" stroke-width="1.50176" stroke-linecap="round" stroke-linejoin="round"/>
<path d="M412.34 165.706C412.34 167.363 425.789 168.705 442.376 168.705C458.964 168.705 472.412 167.363 472.412 165.706V161.957H412.34V165.706Z" fill="#FFBB99"/>
<path d="M442.376 164.959C458.965 164.959 472.412 163.616 472.412 161.96C472.412 160.304 458.965 158.961 442.376 158.961C425.788 158.961 412.34 160.304 412.34 161.96C412.34 163.616 425.788 164.959 442.376 164.959Z" fill="#FFE88C"/>
<path d="M479.916 191.949C479.916 194.019 463.107 195.698 442.37 195.698C421.633 195.698 404.824 194.019 404.824 191.949" stroke="#FFE88C" stroke-width="1.50176" stroke-linecap="round" stroke-linejoin="round"/>
<path d="M472.412 173.207C472.412 174.864 458.964 176.206 442.376 176.206C425.789 176.206 412.34 174.864 412.34 173.207" stroke="#FFE88C" stroke-width="1.50176" stroke-linecap="round" stroke-linejoin="round"/>
<path d="M472.407 173.207C472.407 172.764 471.434 172.341 469.7 171.962C469.046 171.314 468.652 170.421 468.652 169.458C468.652 168.494 469.046 167.598 469.7 166.954C471.434 166.575 472.407 166.155 472.407 165.709V161.96C472.407 160.303 458.958 158.961 442.37 158.961C425.782 158.961 412.333 160.303 412.333 161.96V165.709C412.333 166.151 413.306 166.575 415.04 166.954C415.694 167.602 416.088 168.494 416.088 169.458C416.088 170.421 415.694 171.317 415.04 171.962C413.306 172.341 412.333 172.761 412.333 173.207L404.824 191.951V199.449C404.824 201.518 421.633 203.198 442.37 203.198C463.107 203.198 479.916 201.518 479.916 199.449V191.951L472.407 173.207Z" stroke="#FFBB99" stroke-width="1.50176" stroke-linecap="round" stroke-linejoin="round"/>
<path d="M412.34 165.707C412.34 167.364 425.789 168.706 442.376 168.706C458.964 168.706 472.412 167.364 472.412 165.707" stroke="#FF5C4D" stroke-width="1.50176" stroke-linecap="round" stroke-linejoin="round"/>
<path d="M476.16 135.715C468.903 135.715 463.02 141.589 463.02 148.836C463.02 156.083 468.903 161.957 476.16 161.957C483.418 161.957 489.301 156.083 489.301 148.836C489.301 141.589 483.418 135.715 476.16 135.715ZM476.16 156.334C472.012 156.334 468.651 152.978 468.651 148.836C468.651 144.693 472.012 141.338 476.16 141.338C480.309 141.338 483.669 144.693 483.669 148.836C483.669 152.978 480.309 156.334 476.16 156.334Z" fill="#FFE88C" stroke="#FFBB99" stroke-width="1.50176" stroke-linecap="round" stroke-linejoin="round"/>
<path d="M442.376 161.957H412.34V163.082H442.376V161.957Z" stroke="#FF5C4D" stroke-width="1.50176" stroke-linecap="round" stroke-linejoin="round"/>
<path d="M412.333 161.957V165.706C412.333 166.148 413.306 166.572 415.04 166.951C415.694 167.599 416.088 168.491 416.088 169.455C416.088 171.011 415.063 172.386 413.572 172.833L412.333 173.204L404.824 191.948V199.446C404.824 201.515 421.633 203.195 442.37 203.195C463.107 203.195 479.916 201.515 479.916 199.446" stroke="#4D1F1F" stroke-width="1.50176" stroke-linecap="round" stroke-linejoin="round"/>
<path d="M447.625 64.4883H437.113C433.794 64.4883 431.105 67.1725 431.105 70.4865V160.389C431.105 161.483 431.894 162.428 432.975 162.604C434.507 162.855 437.297 163.084 442.369 163.084C447.441 163.084 450.231 162.855 451.763 162.604C452.844 162.428 453.633 161.483 453.633 160.389V70.4865C453.633 67.1725 450.944 64.4883 447.625 64.4883Z" fill="#FBFCF9" stroke="#C4F5F5" stroke-width="1.50176" stroke-linecap="round" stroke-linejoin="round"/>
<path d="M431.121 71.9844V160.387C431.121 161.482 431.91 162.426 432.991 162.603C434.523 162.854 437.312 163.082 442.385 163.082C447.457 163.082 450.247 162.854 451.779 162.603C452.86 162.426 453.648 161.482 453.648 160.387V159.187" stroke="#00BFE6" stroke-width="1.50176" stroke-linecap="round" stroke-linejoin="round"/>
<path d="M451.595 209.125L341.246 213.286C341.246 214.411 341.952 215.416 343.011 215.798L428.297 246.621L538.788 239.892L451.591 209.125H451.595Z" fill="#4D1F1F" stroke="#4D1F1F" stroke-width="1.50176" stroke-linecap="round" stroke-linejoin="round"/>
<path d="M345.492 212.742C344.073 212.817 342.654 212.997 341.246 213.29L345.492 212.742Z" fill="#FBFCF9" stroke="#4D1F1F" stroke-width="1.50176" stroke-linecap="round" stroke-linejoin="round"/>
<path d="M431.653 218.891C431.507 218.325 431.33 217.766 431.109 217.226C429.22 212.623 424.091 209.627 419.158 210.047L473.848 210.501C466.384 207.119 457.541 206.174 450.134 206.767L345.488 212.746C352.971 212.341 360.548 214.759 367.318 218.152C375.371 222.19 382.67 227.588 390.638 231.794C398.605 236.001 407.624 239.034 416.545 237.755C416.729 237.729 416.913 237.699 417.093 237.669C421.456 236.968 425.744 235.337 428.713 231.944C431.62 228.623 432.753 223.539 431.713 219.138C431.695 219.056 431.668 218.973 431.65 218.891H431.653Z" fill="#FBFCF9" stroke="#C4F5F5" stroke-width="1.50176" stroke-linecap="round" stroke-linejoin="round"/>
<path d="M540.01 210.699C538.005 205.803 532.331 202.729 527.124 203.64L419.167 210.043C424.1 209.623 429.229 212.619 431.118 217.222C431.339 217.758 431.516 218.317 431.662 218.887C431.685 218.969 431.707 219.052 431.726 219.134C432.766 223.535 431.632 228.623 428.726 231.94C425.756 235.337 421.465 236.964 417.105 237.665L524.112 231.382C524.559 231.341 525.002 231.288 525.449 231.224C530 230.572 534.524 228.949 537.622 225.414C540.959 221.601 541.962 215.453 540.013 210.695L540.01 210.699Z" fill="#FBFCF9" stroke="#C4F5F5" stroke-width="1.50176" stroke-linecap="round" stroke-linejoin="round"/>
<path d="M431.691 218.883C431.544 218.317 431.368 217.758 431.147 217.218C429.258 212.615 424.129 209.619 419.196 210.039C418.745 210.077 418.295 210.14 417.848 210.238C412.535 211.393 408.443 216.678 408.661 222.103L432.04 220.806C432.021 220.723 431.71 218.965 431.687 218.883H431.691Z" fill="#C4F5F5" stroke="#C4F5F5" stroke-width="1.50176" stroke-linecap="round" stroke-linejoin="round"/>
<path d="M537.64 225.411C534.543 228.95 530.018 230.573 525.468 231.222C525.021 231.285 524.578 231.334 524.131 231.379C524.131 231.379 416.756 237.722 416.576 237.748C407.655 239.027 398.636 235.994 390.669 231.788C382.702 227.581 375.403 222.183 367.349 218.145C360.579 214.753 353.003 212.335 345.52 212.74" stroke="#4D1F1F" stroke-width="1.50176" stroke-linecap="round" stroke-linejoin="round"/>
<path d="M419.19 210.039C424.124 209.619 429.252 212.615 431.141 217.218C431.362 217.754 431.539 218.313 431.685 218.883C431.708 218.965 431.73 219.048 431.749 219.13C432.789 223.531 431.655 228.619 428.749 231.936C425.779 235.333 421.488 236.96 417.129 237.661" stroke="#4D1F1F" stroke-width="1.50176" stroke-linecap="round" stroke-linejoin="round"/>
<path d="M419.196 210.035C418.745 210.073 418.295 210.136 417.848 210.234C412.535 211.389 408.443 216.674 408.661 222.099" stroke="#4D1F1F" stroke-width="1.50176" stroke-linecap="round" stroke-linejoin="round"/>
<path d="M453.29 79.4834C452.265 79.4834 451.431 78.6587 451.42 77.6352L451.371 71.9856H446.517C445.484 71.9856 444.647 72.8216 444.647 73.8526V73.8676C444.647 74.8985 443.81 75.7345 442.777 75.7345H442.762C441.73 75.7345 440.892 76.5705 440.892 77.6015V88.8631C440.892 89.8941 440.055 90.7301 439.023 90.7301H439.008C437.975 90.7301 437.138 89.8941 437.138 88.8631V73.8526C437.138 72.8216 436.301 71.9856 435.268 71.9856H433.383V81.3654C433.383 82.3963 432.546 83.2323 431.514 83.2323H431.499C430.466 83.2323 429.629 82.3963 429.629 81.3654V70.4861C429.629 66.3435 432.989 62.9883 437.138 62.9883H447.651C451.799 62.9883 455.16 66.3435 455.16 70.4861V77.6165C455.16 78.6474 454.322 79.4834 453.29 79.4834Z" fill="#FBFCF9" stroke="#C4F5F5" stroke-width="1.50176" stroke-linecap="round" stroke-linejoin="round"/>
<path d="M440.906 88.8658C440.906 89.8967 440.069 90.7327 439.037 90.7327H439.022C437.989 90.7327 437.152 89.8967 437.152 88.8658V73.8552C437.152 72.8243 436.315 71.9883 435.282 71.9883H433.397V81.368C433.397 82.399 432.56 83.235 431.528 83.235H431.145V85.7992" stroke="#00BFE6" stroke-width="1.50176" stroke-linecap="round" stroke-linejoin="round"/>
<path d="M453.3 79.4861C452.275 79.4861 451.441 78.6613 451.43 77.6379L451.381 71.9883H446.527C445.494 71.9883 444.657 72.8243 444.657 73.8552V73.8702C444.657 74.9012 443.82 75.7372 442.787 75.7372H442.772C441.74 75.7372 440.902 76.5732 440.902 77.6041" stroke="#00BFE6" stroke-width="1.50176" stroke-linecap="round" stroke-linejoin="round"/>
<path d="M448.342 49.4432C447.329 45.5781 444.325 42.3615 440.649 40.8282C440.304 40.6858 440.03 41.1319 440.308 41.3831C441.055 42.0579 441.629 42.9164 441.885 43.8873C442.474 46.1329 441.565 48.461 440.548 50.4366C439.677 52.1274 438.72 53.8219 438.397 55.6551C437.833 58.8454 439.44 62.2194 442.38 64.0301C447.16 61.2147 449.75 54.8041 448.342 49.4469V49.4432Z" fill="#FF5C4D" stroke="#FF5C4D" stroke-width="1.50176" stroke-linecap="round" stroke-linejoin="round"/>
<path d="M442.482 62.2176C442.482 62.2176 437.384 56.7854 443.654 51.3945C443.654 51.3945 448.779 56.8042 442.482 62.2176Z" fill="#FFE88C" stroke="#FFE88C" stroke-width="1.50176" stroke-linecap="round" stroke-linejoin="round"/>
<path d="M443.515 44.4023C445.148 45.8832 446.357 47.7801 446.894 49.8232C448.066 54.2769 446.113 59.5291 442.415 62.2171C442.415 62.2171 437.684 56.6612 443.654 51.394" stroke="#FFE88C" stroke-width="1.50176" stroke-linecap="round" stroke-linejoin="round"/>
<path d="M437.44 36.9134C437.238 36.812 437.035 36.7068 436.832 36.6055" stroke="#FF5C4D" stroke-width="1.50176" stroke-linecap="round" stroke-linejoin="round"/>
<path d="M451.246 56.9297C451.381 56.5585 451.516 56.1874 451.652 55.8125" stroke="#FF5C4D" stroke-width="1.50176" stroke-linecap="round" stroke-linejoin="round"/>
<path d="M442.377 64.0224C442.377 64.0224 441.792 59.6325 442.419 56.9258" stroke="#FF5C4D" stroke-width="1.50176" stroke-linecap="round" stroke-linejoin="round"/>
<path d="M342.287 230.918C336.155 228.879 332.018 223.147 332.018 216.691V197.508H241.907V216.691C241.907 223.147 237.769 228.875 231.638 230.918L222.364 234.003C220.58 234.596 219.379 236.26 219.379 238.138C219.379 240.545 221.331 242.495 223.742 242.495H350.179C352.589 242.495 354.542 240.545 354.542 238.138C354.542 236.264 353.34 234.599 351.557 234.003L342.283 230.918H342.287Z" fill="#00BFE6" stroke="#00BFE6" stroke-width="1.50176" stroke-linecap="round" stroke-linejoin="round"/>
<path d="M407.116 25.0664H166.819C158.525 25.0664 151.801 31.7801 151.801 40.062V182.52C151.801 190.802 158.525 197.515 166.819 197.515H407.116C415.41 197.515 422.134 190.802 422.134 182.52V40.062C422.134 31.7801 415.41 25.0664 407.116 25.0664Z" fill="#4D1F1F" stroke="#4D1F1F" stroke-width="1.50176" stroke-linecap="round" stroke-linejoin="round"/>
<path d="M407.122 32.5625H166.826C162.678 32.5625 159.316 35.9194 159.316 40.0603V182.518C159.316 186.659 162.678 190.016 166.826 190.016H407.122C411.269 190.016 414.631 186.659 414.631 182.518V40.0603C414.631 35.9194 411.269 32.5625 407.122 32.5625Z" fill="#FBFCF9" stroke="#4D1F1F" stroke-width="1.50176" stroke-linecap="round" stroke-linejoin="round"/>
<path d="M332.021 197.516H241.91V208.762H332.021V197.516Z" fill="#4D1F1F" stroke="#4D1F1F" stroke-width="1.50176" stroke-linecap="round" stroke-linejoin="round"/>
<path d="M166.826 32.5625C162.677 32.5625 159.316 35.9178 159.316 40.0603V182.518C159.316 186.661 162.677 190.016 166.826 190.016H241.918V32.5625H166.826Z" fill="#FFE88C"/>
<path d="M407.122 32.5625H166.826C162.678 32.5625 159.316 35.9194 159.316 40.0603V182.518C159.316 186.659 162.678 190.016 166.826 190.016H407.122C411.269 190.016 414.631 186.659 414.631 182.518V40.0603C414.631 35.9194 411.269 32.5625 407.122 32.5625Z" stroke="#4D1F1F" stroke-width="1.50176" stroke-linecap="round" stroke-linejoin="round"/>
<path d="M342.29 230.918C338.554 229.673 335.562 227.06 333.794 223.75H240.142C238.37 227.06 235.377 229.673 231.645 230.918L222.371 234.003H351.572L342.298 230.918H342.29Z" fill="#C4F5F5" stroke="#C4F5F5" stroke-width="1.50176" stroke-linecap="round" stroke-linejoin="round"/>
<path d="M243.418 197.516H330.525" stroke="#00BFE6" stroke-width="1.50176" stroke-linecap="round" stroke-linejoin="round"/>
<path d="M219.379 238.141C219.379 240.547 221.331 242.497 223.742 242.497H350.179C352.589 242.497 354.542 240.547 354.542 238.141" stroke="#4D1F1F" stroke-width="1.50176" stroke-linecap="round" stroke-linejoin="round"/>
<path d="M223.754 242.5L217.746 244.749H356.202L350.194 242.5H223.754Z" fill="#4D1F1F" stroke="#4D1F1F" stroke-width="1.50176" stroke-linecap="round" stroke-linejoin="round"/>
<path d="M188.91 176.535L189.819 175.612C189.958 175.77 190.082 175.897 190.19 175.999C190.299 176.1 190.434 176.209 190.596 176.321C190.757 176.433 190.93 176.516 191.122 176.572C191.309 176.628 191.516 176.658 191.73 176.658C192.158 176.658 192.481 176.55 192.695 176.336C192.909 176.122 193.018 175.875 193.018 175.59C193.018 175.425 192.976 175.275 192.89 175.14C192.807 175.005 192.691 174.893 192.552 174.799C192.409 174.705 192.248 174.619 192.06 174.537C191.872 174.454 191.681 174.375 191.478 174.297C191.275 174.218 191.073 174.132 190.866 174.042C190.664 173.952 190.465 173.843 190.281 173.719C190.093 173.592 189.928 173.453 189.785 173.299C189.642 173.146 189.53 172.954 189.443 172.722C189.357 172.49 189.316 172.235 189.316 171.954C189.316 171.238 189.563 170.675 190.055 170.259C190.547 169.847 191.185 169.637 191.97 169.637C192.755 169.637 193.457 169.892 194.163 170.398L193.416 171.507C192.984 171.133 192.481 170.945 191.903 170.945C191.542 170.945 191.264 171.02 191.065 171.174C190.866 171.327 190.765 171.537 190.765 171.811C190.765 172.029 190.832 172.216 190.971 172.373C191.107 172.535 191.283 172.662 191.501 172.763C191.719 172.865 191.959 172.962 192.222 173.059C192.484 173.157 192.747 173.266 193.01 173.393C193.273 173.521 193.513 173.667 193.727 173.836C193.945 174.004 194.121 174.233 194.257 174.522C194.392 174.81 194.463 175.148 194.463 175.534C194.463 176.272 194.227 176.865 193.753 177.307C193.28 177.749 192.601 177.97 191.719 177.97C191.369 177.97 191.043 177.933 190.746 177.858C190.45 177.783 190.134 177.637 189.807 177.416C189.481 177.194 189.18 176.906 188.91 176.538V176.535Z" fill="#FF5C4D"/>
<path d="M195.012 175.262C195.012 174.512 195.282 173.871 195.826 173.35C196.367 172.825 197.028 172.562 197.801 172.562C198.312 172.562 198.781 172.682 199.213 172.922C199.641 173.162 199.979 173.488 200.227 173.905C200.475 174.321 200.595 174.774 200.595 175.265C200.595 175.757 200.471 176.206 200.227 176.623C199.979 177.039 199.641 177.369 199.213 177.608C198.785 177.852 198.312 177.972 197.801 177.972C197.291 177.972 196.825 177.852 196.397 177.608C195.969 177.365 195.631 177.039 195.383 176.623C195.136 176.206 195.012 175.757 195.012 175.265V175.262ZM196.348 175.262C196.348 175.648 196.491 175.981 196.776 176.259C197.062 176.54 197.403 176.679 197.801 176.679C198.199 176.679 198.548 176.54 198.834 176.259C199.119 175.978 199.262 175.644 199.262 175.262C199.262 174.879 199.119 174.549 198.834 174.268C198.548 173.987 198.207 173.848 197.801 173.848C197.396 173.848 197.065 173.987 196.776 174.268C196.491 174.549 196.348 174.879 196.348 175.262Z" fill="#FF5C4D"/>
<path d="M200.59 172.656H202.077L203.417 176.161L204.769 172.656H206.248L204.134 177.822H202.707L200.59 172.656Z" fill="#FF5C4D"/>
<path d="M206.25 175.288C206.25 174.924 206.314 174.575 206.441 174.246C206.569 173.916 206.749 173.623 206.978 173.376C207.207 173.125 207.496 172.93 207.842 172.78C208.187 172.634 208.563 172.559 208.968 172.559C209.471 172.559 209.929 172.682 210.335 172.93C210.74 173.177 211.056 173.507 211.281 173.916C211.502 174.324 211.615 174.77 211.615 175.258C211.615 175.411 211.604 175.55 211.581 175.681H207.571C207.65 176.004 207.819 176.266 208.078 176.457C208.337 176.652 208.656 176.746 209.036 176.746C209.287 176.746 209.528 176.697 209.76 176.604C209.993 176.51 210.181 176.367 210.327 176.176L211.258 176.9C211.022 177.23 210.706 177.488 210.312 177.68C209.918 177.867 209.498 177.961 209.047 177.961C208.529 177.961 208.056 177.845 207.624 177.608C207.196 177.376 206.858 177.054 206.614 176.641C206.37 176.229 206.246 175.779 206.246 175.28L206.25 175.288ZM207.62 174.699H210.241C210.2 174.437 210.061 174.219 209.813 174.039C209.569 173.863 209.28 173.773 208.953 173.773C208.626 173.773 208.364 173.856 208.127 174.024C207.891 174.193 207.722 174.418 207.62 174.695V174.699Z" fill="#FF5C4D"/>
<path d="M212.512 177.822V172.656H213.875V173.038C214.126 172.855 214.396 172.727 214.689 172.66C214.978 172.592 215.38 172.559 215.898 172.559V173.844C215.557 173.844 215.264 173.863 215.02 173.904C214.776 173.942 214.58 173.998 214.434 174.066C214.288 174.133 214.171 174.231 214.089 174.351C214.006 174.471 213.95 174.598 213.92 174.729C213.89 174.86 213.875 175.025 213.875 175.213V177.822H212.512Z" fill="#FF5C4D"/>
<path d="M216.752 171.545C216.587 171.384 216.504 171.182 216.504 170.945C216.504 170.709 216.587 170.511 216.752 170.349C216.917 170.188 217.123 170.109 217.367 170.109C217.612 170.109 217.81 170.188 217.972 170.349C218.133 170.511 218.216 170.709 218.216 170.949C218.216 171.189 218.133 171.391 217.972 171.553C217.81 171.714 217.608 171.793 217.367 171.793C217.127 171.793 216.917 171.71 216.752 171.549V171.545ZM216.68 177.817V172.651H218.043V177.817H216.68Z" fill="#FF5C4D"/>
<path d="M219.355 177.822V172.656H220.718V173.038C220.85 172.937 220.966 172.862 221.056 172.806C221.146 172.75 221.289 172.697 221.481 172.641C221.672 172.585 221.879 172.559 222.104 172.559C222.4 172.559 222.674 172.604 222.926 172.69C223.178 172.78 223.407 172.911 223.606 173.087C223.808 173.263 223.966 173.503 224.079 173.803C224.191 174.103 224.248 174.448 224.248 174.842V177.822H222.885V175.063C222.885 174.249 222.524 173.844 221.8 173.844C221.075 173.844 220.718 174.246 220.718 175.044V177.822H219.355Z" fill="#FF5C4D"/>
<path d="M225.455 177.651C225.29 177.489 225.207 177.287 225.207 177.051C225.207 176.815 225.29 176.616 225.455 176.455C225.62 176.294 225.827 176.215 226.071 176.215C226.315 176.215 226.514 176.294 226.675 176.455C226.837 176.616 226.919 176.815 226.919 177.055C226.919 177.295 226.837 177.497 226.675 177.658C226.514 177.819 226.311 177.898 226.071 177.898C225.83 177.898 225.62 177.816 225.455 177.654V177.651Z" fill="#FF5C4D"/>
<path d="M183.834 176.225C184.184 176.225 184.468 175.946 184.468 175.603C184.468 175.259 184.184 174.98 183.834 174.98C183.483 174.98 183.199 175.259 183.199 175.603C183.199 175.946 183.483 176.225 183.834 176.225Z" fill="#FF5C4D"/>
<path d="M178.137 172.496V175.147L178.771 175.458L179.406 175.147V173.741H185.74V177.651C185.74 178.835 185.068 179.9 183.99 180.433L182.575 181.126L181.159 180.433C180.16 179.941 179.515 178.997 179.421 177.921L178.775 178.239L178.152 177.932C178.253 179.477 179.165 180.845 180.592 181.542L182.575 182.517L184.557 181.542C186.07 180.8 187.009 179.308 187.009 177.651V172.496H178.144H178.137Z" fill="#FF5C4D"/>
<path d="M180.753 176.57C181.725 176.093 182.457 175.302 182.859 174.361H181.432C181.132 174.819 180.708 175.201 180.186 175.46L178.77 176.153L177.355 175.46C176.273 174.931 175.605 173.863 175.605 172.678V168.768H181.939V171.876H183.204V167.523H174.34V172.678C174.34 174.339 175.278 175.827 176.792 176.57L178.774 177.544L180.756 176.57H180.753Z" fill="#FF5C4D"/>
<path d="M180.037 171.256C180.387 171.256 180.671 170.978 180.671 170.634C180.671 170.29 180.387 170.012 180.037 170.012C179.686 170.012 179.402 170.29 179.402 170.634C179.402 170.978 179.686 171.256 180.037 171.256Z" fill="#FF5C4D"/>
<path d="M403.353 43.8125H253.168V133.786H403.353V43.8125Z" fill="#FBFCF9" stroke="#C4F5F5" stroke-width="1.50176" stroke-linecap="round" stroke-linejoin="round"/>
<path d="M253.168 186.269V145.031H403.353V186.269" fill="#FBFCF9"/>
<path d="M253.168 186.269V145.031H403.353V186.269" stroke="#C4F5F5" stroke-width="1.50176" stroke-linecap="round" stroke-linejoin="round"/>
<path d="M271.955 73.8019C265.734 73.8019 260.691 68.7672 260.691 62.5553C260.691 56.3434 265.734 51.3086 271.955 51.3086C278.176 51.3086 283.219 56.3434 283.219 62.5553C283.219 68.7672 278.176 73.8019 271.955 73.8019Z" fill="#FF5C4D"/>
<path d="M276.974 62.5382C276.974 65.9947 275.423 68.7951 271.962 68.7951C268.5 68.7951 266.949 65.9947 266.949 62.5382C266.949 59.0817 268.5 56.2812 271.962 56.2812C275.423 56.2812 276.974 59.0817 276.974 62.5382Z" fill="#FFBB99"/>
<path d="M264.77 71.211C266.718 72.8268 269.222 73.7977 271.956 73.7977C274.689 73.7977 277.189 72.8268 279.142 71.211C277.295 69.7189 274.76 68.793 271.956 68.793C269.151 68.793 266.617 69.7189 264.77 71.211Z" fill="#00BFE6"/>
<path d="M260.684 81.3008H395.85" stroke="#C4F5F5" stroke-width="1.50176" stroke-linecap="round" stroke-linejoin="round"/>
<path d="M271.955 175.075C265.734 175.075 260.691 170.041 260.691 163.829C260.691 157.617 265.734 152.582 271.955 152.582C278.176 152.582 283.219 157.617 283.219 163.829C283.219 170.041 278.176 175.075 271.955 175.075Z" fill="#00BFE6"/>
<path d="M276.974 163.812C276.974 167.268 275.423 170.068 271.962 170.068C268.5 170.068 266.949 167.268 266.949 163.812C266.949 160.355 268.5 157.555 271.962 157.555C275.423 157.555 276.974 160.355 276.974 163.812Z" fill="#FFBB99"/>
<path d="M264.77 172.484C266.718 174.1 269.222 175.071 271.956 175.071C274.689 175.071 277.189 174.1 279.142 172.484C277.295 170.992 274.76 170.066 271.956 170.066C269.151 170.066 266.617 170.992 264.77 172.484Z" fill="#FF5C4D"/>
<path d="M260.684 182.57H395.85" stroke="#C4F5F5" stroke-width="1.50176" stroke-linecap="round" stroke-linejoin="round"/>
<path d="M185.59 81.3008H230.644" stroke="#FF5C4D" stroke-width="1.50176" stroke-linecap="round" stroke-linejoin="round"/>
<path d="M185.59 70.0547H230.644" stroke="#FF5C4D" stroke-width="1.50176" stroke-linecap="round" stroke-linejoin="round"/>
<path d="M185.59 58.8047H230.644" stroke="#FF5C4D" stroke-width="1.50176" stroke-linecap="round" stroke-linejoin="round"/>
<path d="M185.59 92.5469H230.644" stroke="#FF5C4D" stroke-width="1.50176" stroke-linecap="round" stroke-linejoin="round"/>
<path d="M170.566 58.8047H174.321" stroke="#FF5C4D" stroke-width="1.50176" stroke-linecap="round" stroke-linejoin="round"/>
<path d="M170.566 70.0547H174.321" stroke="#FF5C4D" stroke-width="1.50176" stroke-linecap="round" stroke-linejoin="round"/>
<path d="M170.566 81.3008H174.321" stroke="#FF5C4D" stroke-width="1.50176" stroke-linecap="round" stroke-linejoin="round"/>
<path d="M170.566 92.5469H174.321" stroke="#FF5C4D" stroke-width="1.50176" stroke-linecap="round" stroke-linejoin="round"/>
<path d="M403.338 133.782V122.535L392.074 133.782H403.338Z" fill="#C4F5F5" stroke="#C4F5F5" stroke-width="1.50176" stroke-linecap="round" stroke-linejoin="round"/>
<path d="M392.074 122.535H403.338L392.074 133.782V122.535Z" stroke="#C4F5F5" stroke-width="1.50176" stroke-linecap="round" stroke-linejoin="round"/>
<path d="M253.168 133.782H392.089L403.353 122.535" stroke="#00BFE6" stroke-width="1.50176" stroke-linecap="round" stroke-linejoin="round"/>
<path d="M523.475 224.012C523.441 224.004 523.411 224 523.378 223.993L520.246 223.295C518.53 222.913 517.31 221.391 517.31 219.637V216.96C517.31 214.89 515.628 213.211 513.556 213.211H498.538C496.465 213.211 494.783 214.89 494.783 216.96V219.64C494.783 221.395 493.567 222.913 491.851 223.299L488.956 223.948C488.855 223.967 488.753 223.985 488.656 224.008C485.671 224.581 483.52 227.191 483.52 230.223V252.889C483.52 255.401 485.187 257.602 487.604 258.299C490.818 259.221 496.428 260.132 506.047 260.132C515.666 260.132 521.271 259.221 524.489 258.299C526.907 257.605 528.574 255.405 528.574 252.889V230.223C528.574 227.202 526.437 224.604 523.471 224.012H523.475Z" fill="#C4F5F5" stroke="#00BFE6" stroke-width="1.50176" stroke-linecap="round" stroke-linejoin="round"/>
<path d="M525.574 230.383C525.574 228.587 516.834 227.133 506.051 227.133C495.268 227.133 486.527 228.587 486.527 230.383V252.517C486.527 253.731 487.256 254.841 488.39 255.291C490.605 256.168 495.448 257.124 506.051 257.124C516.654 257.124 521.501 256.164 523.712 255.291C524.846 254.841 525.574 253.731 525.574 252.517V230.383Z" fill="#4D1F1F" stroke="#4D1F1F" stroke-width="1.50176" stroke-linecap="round" stroke-linejoin="round"/>
<path d="M488.934 228.824C493.064 229.626 499.202 230.136 506.054 230.136C512.906 230.136 519.045 229.626 523.175 228.824" stroke="#00BFE6" stroke-width="1.50176" stroke-linecap="round" stroke-linejoin="round"/>
<path d="M506.06 117.668C504.198 117.668 502.692 119.183 502.707 121.042L503.432 214.704H508.688L509.413 121.042C509.428 119.183 507.922 117.668 506.06 117.668Z" fill="#FF5C4D" stroke="#FF5C4D" stroke-width="1.50176" stroke-linecap="round" stroke-linejoin="round"/>
<path d="M503.426 217.332V227.139C503.426 227.552 503.764 227.889 504.177 227.889H507.931C508.344 227.889 508.682 227.552 508.682 227.139V217.332H503.426Z" fill="#FF5C4D" stroke="#FF5C4D" stroke-width="1.50176" stroke-linecap="round" stroke-linejoin="round"/>
<path d="M502.707 121.043L503.432 214.705" stroke="#4D1F1F" stroke-width="1.50176" stroke-linecap="round" stroke-linejoin="round"/>
<path d="M503.426 217.328V227.135" stroke="#4D1F1F" stroke-width="1.50176" stroke-linecap="round" stroke-linejoin="round"/>
<path d="M514.333 216.418C512.275 216.789 509.324 217.021 506.05 217.021C502.487 217.021 499.307 216.744 497.246 216.316" stroke="#00BFE6" stroke-width="1.50176" stroke-linecap="round" stroke-linejoin="round"/>
<path d="M496.301 223.578C498.249 224.137 501.888 224.515 506.055 224.515C510.223 224.515 513.861 224.14 515.809 223.578" stroke="#00BFE6" stroke-width="1.50176" stroke-linecap="round" stroke-linejoin="round"/>
<path d="M189.157 250.008H384.815C387.146 250.008 389.444 250.551 391.532 251.59L423.341 267.47C424.914 268.254 425.905 269.858 425.905 271.616C425.905 274.177 423.829 276.25 421.265 276.25H152.707C150.143 276.25 148.066 274.177 148.066 271.616C148.066 269.862 149.061 268.257 150.631 267.47L182.44 251.59C184.524 250.548 186.825 250.008 189.157 250.008Z" fill="#00BFE6" stroke="#00BFE6" stroke-width="1.50176" stroke-linecap="round" stroke-linejoin="round"/>
<path d="M425.909 271.465C425.909 274.108 423.761 276.252 421.114 276.252H152.861C150.214 276.252 148.066 274.108 148.066 271.465" stroke="#4D1F1F" stroke-width="1.50176" stroke-linecap="round" stroke-linejoin="round"/>
<path d="M152.857 276.25L145.348 279.999H428.62L421.11 276.25H152.857Z" fill="#4D1F1F" stroke="#4D1F1F" stroke-width="1.50176" stroke-linecap="round" stroke-linejoin="round"/>
<path d="M157.887 267.355H416.055" stroke="#4D1F1F" stroke-width="1.50176" stroke-linecap="round" stroke-linejoin="round"/>
</svg>
