<svg width="320.000000" height="320.000977" viewBox="0 0 320 320.001" fill="none" xmlns="http://www.w3.org/2000/svg" xmlns:xlink="http://www.w3.org/1999/xlink">
	<desc>
			Created with Pixso.
	</desc>
	<defs>
		<clipPath id="clip379_80339">
			<rect id="Background" rx="-1.896184" width="316.207581" height="316.207611" transform="translate(1.896184 1.896184)" fill="white" fill-opacity="0"/>
		</clipPath>
		<clipPath id="clip379_80341">
			<rect id="Outfit" rx="-1.896184" width="316.207611" height="316.207611" transform="translate(1.896184 1.896184)" fill="white" fill-opacity="0"/>
		</clipPath>
		<clipPath id="clip379_80342">
			<rect id="Hair" rx="-1.896184" width="316.207611" height="316.207611" transform="translate(1.896184 1.896184)" fill="white" fill-opacity="0"/>
		</clipPath>
		<clipPath id="clip379_80343">
			<rect id="Eye" rx="-1.896184" width="316.207611" height="316.207611" transform="translate(1.896184 1.896184)" fill="white" fill-opacity="0"/>
		</clipPath>
		<clipPath id="clip379_80345">
			<rect id="Mouth" rx="-1.896184" width="316.207611" height="316.207611" transform="translate(1.896184 1.896184)" fill="white" fill-opacity="0"/>
		</clipPath>
	</defs>
	<rect id="Background" rx="-1.896184" width="316.207581" height="316.207611" transform="translate(1.896184 1.896184)" fill="#FFFFFF" fill-opacity="0"/>
	<g clip-path="url(#clip379_80339)">
		<path id="Vector" d="M320 160C320 248.36 248.36 320 160 320C71.63 320 0 248.36 0 160C0 71.63 71.63 0 160 0C248.36 0 320 71.63 320 160Z" fill="#C4F5F5" fill-opacity="1.000000" fill-rule="evenodd"/>
	</g>
	<path id="Vector" d="M287.56 256.63C258.55 249.46 219.53 240.77 207.81 238.16C205.04 226.63 201.82 211.76 198.59 193.6C191.84 155.33 192.71 135.95 192.71 135.95C192.71 135.95 196.24 134.36 200.03 131.29C202.99 128.9 206.1 125.6 207.85 121.43C211.68 112.36 209.1 104.93 203.1 101.97C197.57 99.24 189.94 105.88 189.94 105.88C189.94 105.88 194.87 69.28 171.06 58.66C147.51 48.16 123.28 54.76 116.22 82.97C102.61 137.24 113.15 166.97 128.51 175.09C133.85 177.9 139.51 177.33 139.51 177.33L139.58 177.25L134.88 238.08C120.39 241.31 63.43 254.01 36.2 261.4C65.55 297.17 110.08 320 159.95 320C209.82 320 258.28 295.08 287.52 256.55L287.56 256.63Z" fill="#FFBB99" fill-opacity="1.000000" fill-rule="nonzero"/>
	<g opacity="0.200000">
		<path id="Vector" d="M139.59 177.32C139.59 177.32 153.69 177.82 169.39 159.35L169.39 173.91C169.39 173.91 157.11 190.79 137.96 198.37L139.59 177.32Z" fill="#4D1F1F" fill-opacity="1.000000" fill-rule="nonzero"/>
	</g>
	<path id="Vector" d="M119.97 132.69L120.05 132.69C120.05 132.69 120.01 132.69 119.97 132.69Z" fill="#4D1F1F" fill-opacity="1.000000" fill-rule="nonzero"/>
	<path id="Vector" d="M119.99 132.69L120.06 132.69C120.06 132.69 120.03 132.69 119.99 132.69Z" fill="#4D1F1F" fill-opacity="1.000000" fill-rule="nonzero"/>
	<path id="Vector" d="M191.32 116.57C191.13 116.57 190.94 116.57 190.75 116.46C189.96 116.15 189.54 115.21 189.88 114.41C191.85 109.44 196.48 108.3 196.67 108.27C197.5 108.08 198.34 108.61 198.57 109.44C198.75 110.28 198.23 111.11 197.39 111.34C197.24 111.34 194.17 112.17 192.8 115.58C192.57 116.19 191.97 116.57 191.32 116.57Z" fill="#4D1F1F" fill-opacity="1.000000" fill-rule="nonzero"/>
	<path id="Vector" d="M128.75 136.07C128.75 136.07 128.59 136.07 128.52 136.07C128.52 136.07 122.07 135.16 120.48 134.74C119.76 134.55 119.41 133.98 119.41 133.98C119.07 133.45 119 132.8 119.19 132.24L127 108.87C127.27 108.04 128.14 107.59 128.97 107.89C129.8 108.15 130.22 109.06 129.96 109.86L122.56 131.97L128.93 132.96C129.8 133.07 130.37 133.9 130.26 134.74C130.15 135.53 129.46 136.07 128.71 136.07L128.75 136.07Z" fill="#4D1F1F" fill-opacity="1.000000" fill-rule="nonzero"/>
	<g clip-path="url(#clip379_80341)">
		<path id="Vector" d="M208.57 238.27C207.54 233.84 206.86 225.72 206.63 221.78C206.52 219.8 204.93 218.25 202.69 219.61C191.8 226.17 156.72 231.37 137.19 222.38C135.83 221.74 134.09 223.44 134.01 225.68C133.93 228.34 134.01 233.99 133.36 238.39C116.91 242.03 62.64 254.2 36.2 261.37C65.55 297.13 110.08 320 159.98 320C209.89 320 258.32 295.08 287.56 256.59C259.16 249.57 221.16 241.08 208.57 238.31L208.57 238.27Z" fill="#FFDD2A" fill-opacity="1.000000" fill-rule="nonzero"/>
		<path id="Vector" d="M194.12 249.23C194.12 249.23 194.05 249.23 194.01 249.23C193.06 249.15 192.38 248.36 192.42 247.41C192.42 247.33 193.02 238.72 189.84 232.32C189.42 231.48 189.76 230.46 190.6 230.04C191.43 229.62 192.45 229.97 192.87 230.8C196.48 238.08 195.83 247.26 195.79 247.68C195.71 248.59 194.96 249.27 194.09 249.27L194.12 249.23Z" fill="#000000" fill-opacity="1.000000" fill-rule="nonzero"/>
		<path id="Vector" d="M147.21 250.03C146.42 250.03 145.69 249.46 145.55 248.63C145.47 248.32 144.14 240.81 147.14 233.57C147.52 232.7 148.5 232.28 149.37 232.66C150.25 233 150.66 234.02 150.28 234.9C147.67 241.19 148.88 247.94 148.88 248.02C149.03 248.93 148.42 249.84 147.52 249.99C147.4 249.99 147.29 249.99 147.21 249.99L147.21 250.03Z" fill="#000000" fill-opacity="1.000000" fill-rule="nonzero"/>
		<path id="Vector" d="M169.92 251.24C169.92 251.24 169.8 251.24 169.73 251.24C168.78 251.13 168.1 250.29 168.21 249.34C168.21 249.27 168.93 242.48 167.68 234.82C167.53 233.87 168.18 233 169.09 232.85C170 232.7 170.91 233.34 171.06 234.25C172.39 242.4 171.62 249.38 171.62 249.69C171.51 250.56 170.79 251.2 169.92 251.2L169.92 251.24Z" fill="#000000" fill-opacity="1.000000" fill-rule="nonzero"/>
	</g>
	<g clip-path="url(#clip379_80342)">
		<path id="Vector" d="M206.65 71.16C206.65 71.16 206.6 70.86 206.56 70.73C206.56 70.59 206.47 70.46 206.43 70.33C206.3 69.81 206.17 69.28 205.99 68.8C205.82 68.27 205.64 67.79 205.42 67.31C205.42 67.22 205.38 67.18 205.34 67.09C200.56 56.45 188.34 59.77 188.34 59.77C188.34 59.77 185.32 50.75 172.61 47.73C158.42 44.35 151.59 49.83 151.59 49.83C151.59 49.83 139.58 43.96 128.19 54.43C123.99 58.29 120.22 63.72 119.48 68.71C116.89 72.39 113.73 79.22 115.05 89.43C116.28 85.8 117.07 81.37 120.31 74.62C120.83 75.63 121.53 76.55 122.5 77.38C128.46 82.47 138.53 82.64 143.44 79.75C143.44 79.75 145.32 86.5 155 87.29C163.59 87.99 166.39 83.61 166.39 83.61C166.39 83.61 169.15 91.93 180.41 91.32C179.62 98.5 175.01 107.96 179.17 116.48C181.1 120.45 184.31 120.84 185.1 119.26C185.1 119.26 185.16 108.56 192.65 103.75C195.67 101.82 199.64 101.48 202.23 101.65L203.98 95.91C207.35 84.83 207.83 76.82 206.65 71.21L206.65 71.16Z" fill="#4D1F1F" fill-opacity="1.000000" fill-rule="nonzero"/>
	</g>
	<g clip-path="url(#clip379_80343)">
		<path id="Vector" d="M125.05 107.43C124.52 107.43 124.03 107.16 123.73 106.67C123.19 105.8 122.59 105.27 121.91 105.15C120.92 104.96 119.75 105.64 119.4 105.91C118.72 106.44 117.77 106.33 117.24 105.64C116.71 105 116.82 104.01 117.47 103.48C117.7 103.29 119.86 101.66 122.4 102.08C123.5 102.27 125.05 102.95 126.3 105.04C126.76 105.76 126.5 106.71 125.78 107.16C125.51 107.31 125.25 107.39 124.98 107.39L125.05 107.43Z" fill="#4D1F1F" fill-opacity="1.000000" fill-rule="nonzero"/>
		<path id="Vector" d="M150.66 110.8C150.16 110.8 149.67 110.57 149.41 110.12C149.37 110.08 148.34 108.64 146.86 108.41C145.99 108.26 145.16 108.53 144.21 109.21C143.53 109.7 142.58 109.55 142.09 108.87C141.59 108.19 141.75 107.2 142.42 106.71C144.06 105.53 145.77 105.11 147.43 105.42C150.16 105.91 151.79 108.15 151.94 108.41C152.44 109.1 152.25 110.08 151.53 110.54C151.27 110.73 150.96 110.8 150.66 110.8Z" fill="#4D1F1F" fill-opacity="1.000000" fill-rule="nonzero"/>
	</g>
	<g clip-path="url(#clip379_80345)">
		<path id="Vector" d="M133.06 143.79C134.01 147.24 137.35 150.92 141.33 148.87C144.89 147.05 143.68 142.72 143.26 141.63C143.26 141.55 143.15 141.51 143.03 141.59C137.57 144.89 130.44 143.52 130.44 143.52L133.02 143.79L133.06 143.79Z" fill="#4D1F1F" fill-opacity="1.000000" fill-rule="nonzero"/>
		<path id="Vector" d="M144.02 144.09C143.71 146.07 142.84 148 140.6 148.57C139.35 148.87 138.17 148.8 137.11 148.38C139.12 143.6 143.82 144.06 143.98 144.09L144.02 144.09Z" fill="#DD2C52" fill-opacity="1.000000" fill-rule="nonzero"/>
		<path id="Vector" d="M139.01 150.99C138.17 150.99 137.34 150.81 136.51 150.46C134.53 149.59 132.79 147.62 131.88 145.23C130.89 145.15 130.25 145.04 130.17 145C129.34 144.85 128.81 144.06 128.96 143.22C129.11 142.39 129.91 141.82 130.74 142.01C130.82 142.01 137.38 143.18 142.27 140.26L142.88 139.88C142.88 139.88 143.41 139.54 143.67 139.66C143.94 139.77 144.2 140.07 144.32 140.34C144.39 140.53 144.62 140.91 144.7 141.1C145.95 144.06 145.72 148.34 142 150.24C141.02 150.73 140 150.99 139.01 150.99ZM135.33 145.27C135.98 146.37 136.85 147.2 137.76 147.62C138.71 148.04 139.62 148 140.6 147.47C142.19 146.63 142.35 145 142.19 143.71C139.84 144.74 137.38 145.15 135.33 145.27Z" fill="#4D1F1F" fill-opacity="1.000000" fill-rule="nonzero"/>
	</g>
</svg>
