<svg width="158" height="80" viewBox="0 0 158 80" fill="none" xmlns="http://www.w3.org/2000/svg">
<g clip-path="url(#clip0_379_79345)">
<path fill-rule="evenodd" clip-rule="evenodd" d="M123.451 39.0809C125.823 39.0809 127.988 40.6128 128.745 42.8255H118.191C118.913 40.6468 121.045 39.0809 123.451 39.0809ZM134.004 44.7319C134.004 42.0085 132.938 39.4213 130.979 37.4468C129.02 35.4723 126.407 34.383 123.657 34.383H123.52C120.666 34.417 117.951 35.5404 115.923 37.5489C113.895 39.5574 112.76 42.2128 112.726 45.0383C112.691 47.9319 113.826 50.6553 115.888 52.7319C117.985 54.8085 120.735 55.966 123.657 55.966C127.507 55.966 131.116 53.9234 133.076 50.6553L133.316 50.2468L128.985 48.1362L128.779 48.4766C127.713 50.2468 125.823 51.2681 123.726 51.2681C121.079 51.2681 118.776 49.5319 118.054 47.0128H134.004V44.7319ZM106.916 30.7404C105.026 30.7404 103.513 29.2426 103.513 27.3702C103.513 25.4979 105.026 24 106.916 24C108.807 24 110.32 25.4979 110.32 27.3702C110.354 29.2085 108.807 30.7404 106.916 30.7404ZM104.304 55.5574H109.529V34.8255H104.304V55.5574ZM94.3008 24.4426H99.5258V55.5915H94.3008V24.4426ZM84.2977 55.5574H89.5227V24.4426H84.2977V55.5574ZM70.5133 50.8936C67.3508 50.8936 64.7383 48.3404 64.7383 45.2085C64.7383 42.0766 67.3164 39.5234 70.5133 39.5234C73.7102 39.5234 76.2883 42.0766 76.2883 45.2085C76.2883 48.3404 73.7102 50.8936 70.5133 50.8936ZM70.5133 34.383C64.4633 34.383 59.582 39.217 59.582 45.1745C59.582 51.1319 64.4977 56 70.5133 56C76.5289 56 81.4445 51.166 81.4445 45.2085C81.4445 39.2511 76.5633 34.383 70.5133 34.383ZM48.2039 34.417C47.9289 34.383 47.6539 34.383 47.3789 34.383C44.732 34.383 42.2227 35.4383 40.4352 37.3447C38.6477 35.4723 36.1383 34.383 33.5258 34.383C28.2664 34.383 24.0039 38.6043 24.0039 43.7447V55.5574H29.1258V43.9149C29.1258 41.7702 30.9133 39.7957 33.0102 39.5915C33.1477 39.5915 33.3195 39.5574 33.457 39.5574C35.8289 39.5574 37.7539 41.4638 37.7539 43.8128V55.5915H42.9789V43.8809C42.9789 41.7362 44.7664 39.7617 46.8633 39.5574C47.0008 39.5574 47.1727 39.5234 47.3102 39.5234C49.682 39.5234 51.607 41.4298 51.6414 43.7447V55.5574H56.8664V43.9149C56.8664 41.5319 55.9727 39.2851 54.3914 37.5149C52.7758 35.7106 50.5758 34.6213 48.2039 34.417Z" fill="black"/>
</g>
<defs>
<clipPath id="clip0_379_79345">
<rect width="110" height="32" fill="white" transform="translate(24.0039 24)"/>
</clipPath>
</defs>
</svg>
