<svg width="256" height="81" viewBox="0 0 256 81" fill="none" xmlns="http://www.w3.org/2000/svg">
<path d="M70.6602 57.9285V38.5811H75.3643V53.8566H82.8576V57.9279L70.6602 57.9285Z" fill="#2C3C69"/>
<path d="M98.3683 51.2753C98.3683 51.4577 98.3683 51.64 98.3683 51.8224C98.3683 52.0047 98.359 52.1772 98.3412 52.3417H88.4687C88.5051 52.7242 88.6191 53.0704 88.8109 53.3803C89.0026 53.6901 89.2486 53.9581 89.5488 54.1867C89.8497 54.4146 90.1869 54.592 90.5612 54.7189C90.9342 54.847 91.322 54.9105 91.7233 54.9105C92.4342 54.9105 93.0365 54.7787 93.5285 54.5144C94.0211 54.2501 94.4219 53.9088 94.732 53.4893L97.8498 55.4569C97.2117 56.3859 96.3689 57.1011 95.3202 57.6019C94.2715 58.1021 93.0538 58.3534 91.6691 58.3534C90.6475 58.3534 89.6814 58.1933 88.7702 57.8754C87.8583 57.5563 87.0611 57.0924 86.3768 56.4813C85.6937 55.8715 85.1554 55.1199 84.7633 54.2273C84.3712 53.3347 84.1758 52.3146 84.1758 51.1663C84.1758 50.0556 84.3669 49.0484 84.7498 48.1472C85.1326 47.2459 85.6524 46.4802 86.309 45.8519C86.965 45.2229 87.7393 44.7356 88.6339 44.3894C89.5266 44.0438 90.4934 43.8701 91.5322 43.8701C92.5347 43.8701 93.4558 44.0389 94.2943 44.3759C95.1327 44.7128 95.8529 45.2001 96.4552 45.8377C97.0569 46.4753 97.5255 47.2496 97.8634 48.1607C98.2 49.0712 98.3683 50.1104 98.3683 51.2753ZM94.2388 49.5535C94.2388 48.8433 94.0156 48.2328 93.5686 47.7227C93.1216 47.2133 92.4515 46.9576 91.5587 46.9576C91.121 46.9576 90.7202 47.026 90.3553 47.1628C89.9903 47.2995 89.6721 47.4862 89.3978 47.7227C89.1247 47.9599 88.9058 48.2377 88.7418 48.5568C88.5778 48.8759 88.4866 49.2086 88.4687 49.5535H94.2388Z" fill="#2C3C69"/>
<path d="M105.513 47.6314V52.8436C105.513 53.4836 105.636 53.9629 105.883 54.2838C106.128 54.6042 106.57 54.7631 107.209 54.7631C107.427 54.7631 107.66 54.7459 107.906 54.7083C108.152 54.6719 108.357 54.6177 108.521 54.5444L108.576 57.8235C108.266 57.9325 107.874 58.028 107.401 58.1106C106.926 58.1925 106.452 58.2332 105.978 58.2332C105.066 58.2332 104.3 58.1186 103.68 57.8906C103.06 57.6627 102.563 57.3338 102.19 56.9038C101.816 56.475 101.547 55.9637 101.383 55.3699C101.219 54.7767 101.137 54.1144 101.137 53.3838V47.6314H98.9492V44.2975H101.11V40.7178H105.513V44.2975H108.713V47.6314H105.513Z" fill="#2C3C69"/>
<path d="M123.239 48.3219C122.874 47.9763 122.446 47.6849 121.954 47.4478C121.462 47.2112 120.942 47.0923 120.395 47.0923C119.975 47.0923 119.588 47.1749 119.233 47.3381C118.877 47.5026 118.7 47.7854 118.7 48.1852C118.7 48.5677 118.895 48.8406 119.287 49.0051C119.679 49.1696 120.313 49.3513 121.188 49.5515C121.699 49.6611 122.214 49.8164 122.734 50.0166C123.253 50.2168 123.723 50.4811 124.142 50.8088C124.561 51.1365 124.898 51.5376 125.154 52.0113C125.409 52.485 125.537 53.0499 125.537 53.7053C125.537 54.5622 125.364 55.2854 125.017 55.8774C124.671 56.4694 124.22 56.9475 123.663 57.3122C123.107 57.6768 122.483 57.9405 121.79 58.1044C121.097 58.2688 120.404 58.3502 119.712 58.3502C118.599 58.3502 117.51 58.1727 116.443 57.8173C115.377 57.4625 114.488 56.9382 113.777 56.2458L116.293 53.5951C116.694 54.0324 117.186 54.3971 117.77 54.6879C118.353 54.9799 118.973 55.1253 119.63 55.1253C119.995 55.1253 120.355 55.0384 120.71 54.8653C121.066 54.6928 121.244 54.3873 121.244 53.9505C121.244 53.531 121.025 53.2218 120.588 53.0209C120.15 52.8207 119.467 52.6113 118.536 52.392C118.062 52.2829 117.588 52.1376 117.114 51.9552C116.639 51.7729 116.216 51.5277 115.843 51.2172C115.469 50.908 115.163 50.5254 114.927 50.0696C114.69 49.6149 114.571 49.0679 114.571 48.4303C114.571 47.6104 114.744 46.9137 115.091 46.3395C115.438 45.7654 115.884 45.2972 116.431 44.9325C116.978 44.5679 117.584 44.2999 118.25 44.1262C118.915 43.9525 119.576 43.8662 120.233 43.8662C121.253 43.8662 122.252 44.0264 123.227 44.3442C124.202 44.6633 125.028 45.1414 125.702 45.779L123.239 48.3219Z" fill="#2C3C69"/>
<path d="M134.125 57.9285V38.5811H147.142V42.5162H138.637V46.1779H146.678V49.9214H138.637V53.9385H147.635V57.9285H134.125Z" fill="#2C3C69"/>
<path d="M159.49 57.9276V50.4947C159.49 50.1122 159.457 49.7481 159.394 49.4019C159.33 49.0557 159.225 48.7507 159.079 48.4865C158.933 48.2228 158.728 48.0127 158.464 47.8575C158.199 47.7035 157.866 47.6253 157.466 47.6253C157.065 47.6253 156.713 47.7035 156.413 47.8575C156.112 48.0127 155.861 48.2271 155.66 48.5C155.46 48.7729 155.31 49.0877 155.21 49.4425C155.109 49.798 155.059 50.167 155.059 50.5495V57.9276H150.547V44.3191H154.895V46.2047H154.95C155.115 45.9133 155.328 45.6269 155.593 45.3448C155.857 45.062 156.168 44.8205 156.523 44.6203C156.879 44.4201 157.266 44.2556 157.686 44.1281C158.105 44.0012 158.551 43.9365 159.025 43.9365C159.937 43.9365 160.712 44.101 161.35 44.4287C161.989 44.7565 162.503 45.1803 162.896 45.699C163.288 46.2183 163.57 46.8152 163.744 47.4885C163.916 48.1631 164.003 48.837 164.003 49.5109V57.927L159.49 57.9276Z" fill="#2C3C69"/>
<path d="M175.514 48.7065C175.259 48.3788 174.912 48.1151 174.475 47.9143C174.037 47.7141 173.59 47.6137 173.135 47.6137C172.66 47.6137 172.232 47.7092 171.849 47.9008C171.466 48.0923 171.138 48.348 170.865 48.6659C170.591 48.985 170.376 49.354 170.222 49.7729C170.067 50.1924 169.989 50.6378 169.989 51.1121C169.989 51.5858 170.062 52.0318 170.208 52.4507C170.353 52.8702 170.567 53.2392 170.85 53.5577C171.133 53.8768 171.47 54.1275 171.863 54.3092C172.255 54.4916 172.697 54.5821 173.189 54.5821C173.644 54.5821 174.096 54.4959 174.542 54.3228C174.989 54.1497 175.349 53.899 175.622 53.5712L178.111 56.6045C177.546 57.151 176.816 57.5791 175.923 57.889C175.03 58.1982 174.082 58.3534 173.079 58.3534C172.003 58.3534 170.999 58.189 170.066 57.8612C169.134 57.5335 168.324 57.0549 167.636 56.4265C166.948 55.7982 166.408 55.038 166.013 54.1454C165.619 53.2528 165.422 52.2419 165.422 51.1121C165.422 50.0008 165.619 48.9985 166.013 48.1059C166.408 47.2139 166.948 46.4525 167.636 45.8241C168.324 45.1952 169.135 44.7128 170.066 44.3759C170.999 44.0389 171.994 43.8701 173.052 43.8701C173.544 43.8701 174.032 43.9157 174.515 44.0075C174.998 44.098 175.463 44.2219 175.91 44.3765C176.357 44.5311 176.767 44.7227 177.14 44.9506C177.514 45.1786 177.838 45.4287 178.111 45.7022L175.514 48.7065Z" fill="#2C3C69"/>
<path d="M188.685 48.0084C188.484 47.9536 188.288 47.9179 188.097 47.8994C187.906 47.8809 187.718 47.8717 187.537 47.8717C186.935 47.8717 186.429 47.9813 186.019 48.1988C185.609 48.4169 185.281 48.6799 185.034 48.9891C184.788 49.2978 184.61 49.6341 184.501 49.9976C184.392 50.361 184.337 50.6783 184.337 50.9512V57.9276H179.852V44.3357H184.173V46.3033H184.228C184.574 45.6059 185.066 45.0374 185.705 44.5969C186.342 44.1564 187.081 43.9365 187.92 43.9365C188.102 43.9365 188.28 43.9464 188.453 43.9642C188.626 43.9821 188.768 44.0098 188.878 44.0462L188.685 48.0084Z" fill="#2C3C69"/>
<path d="M199.208 59.9924C198.935 60.7027 198.629 61.336 198.292 61.8916C197.955 62.4467 197.554 62.9204 197.089 63.3128C196.624 63.7046 196.077 63.9997 195.448 64.2005C194.819 64.4007 194.075 64.5011 193.219 64.5011C192.799 64.5011 192.366 64.4734 191.921 64.4185C191.473 64.3637 191.086 64.291 190.758 64.2005L191.25 60.4298C191.469 60.5019 191.71 60.5616 191.975 60.6072C192.239 60.6522 192.481 60.675 192.7 60.675C193.393 60.675 193.894 60.5154 194.204 60.1969C194.514 59.8778 194.778 59.4275 194.997 58.8448L195.435 57.7248L189.746 44.335H194.723L197.759 53.0794H197.841L200.549 44.335H205.307L199.208 59.9924Z" fill="#2C3C69"/>
<path d="M221.632 51.0688C221.632 52.0163 221.486 52.9274 221.194 53.8015C220.902 54.6763 220.478 55.4457 219.923 56.1104C219.367 56.7757 218.687 57.3085 217.885 57.7096C217.082 58.1094 216.171 58.3108 215.149 58.3108C214.311 58.3108 213.518 58.1426 212.77 57.8057C212.022 57.4687 211.44 57.0085 211.02 56.4258H210.966V64.4871H206.48V44.3191H210.747V45.986H210.829C211.249 45.4396 211.827 44.9616 212.566 44.5513C213.304 44.1417 214.174 43.9365 215.177 43.9365C216.162 43.9365 217.055 44.1281 217.857 44.5107C218.659 44.8932 219.338 45.4125 219.895 46.068C220.452 46.7234 220.88 47.4848 221.18 48.3497C221.481 49.2152 221.632 50.122 221.632 51.0688ZM217.283 51.0688C217.283 50.6315 217.215 50.2039 217.079 49.7844C216.942 49.3655 216.741 48.9965 216.476 48.6774C216.212 48.359 215.879 48.0996 215.478 47.8988C215.077 47.698 214.612 47.5982 214.084 47.5982C213.573 47.5982 213.117 47.6986 212.716 47.8988C212.315 48.099 211.973 48.3633 211.69 48.691C211.407 49.0187 211.189 49.3926 211.034 49.8109C210.879 50.2304 210.802 50.658 210.802 51.0953C210.802 51.5327 210.879 51.9608 211.034 52.3797C211.189 52.7993 211.407 53.1719 211.69 53.4997C211.973 53.8274 212.315 54.0923 212.716 54.2925C213.116 54.4927 213.573 54.5925 214.084 54.5925C214.612 54.5925 215.077 54.4927 215.478 54.2925C215.879 54.0923 216.212 53.8274 216.476 53.4997C216.741 53.1719 216.942 52.7937 217.079 52.3656C217.215 51.9387 217.283 51.5062 217.283 51.0688Z" fill="#2C3C69"/>
<path d="M228.802 47.6314V52.8436C228.802 53.4836 228.925 53.9629 229.172 54.2838C229.417 54.6042 229.859 54.7631 230.498 54.7631C230.716 54.7631 230.949 54.7459 231.195 54.7083C231.441 54.6719 231.646 54.6177 231.811 54.5444L231.865 57.8235C231.555 57.9325 231.163 58.028 230.69 58.1106C230.215 58.1925 229.741 58.2332 229.267 58.2332C228.355 58.2332 227.589 58.1186 226.97 57.8906C226.349 57.6627 225.852 57.3338 225.479 56.9038C225.105 56.475 224.836 55.9637 224.672 55.3699C224.508 54.7767 224.426 54.1144 224.426 53.3838V47.6314H222.238V44.2975H224.399V40.7178H228.802V44.2975H232.002V47.6314H228.802Z" fill="#2C3C69"/>
<path d="M112.821 38.2256C111.476 38.2256 110.422 39.1946 110.422 40.4322C110.422 41.7357 111.309 42.6111 112.63 42.6111C112.743 42.6111 112.85 42.6006 112.95 42.5803C112.739 43.5449 111.808 44.2374 110.929 44.376L110.75 44.4043V46.4846L110.982 46.4624C112.049 46.3608 113.103 45.8766 113.874 45.1337C114.881 44.1647 115.413 42.7657 115.413 41.0876C115.413 39.4293 114.323 38.2256 112.821 38.2256Z" fill="#2C3C69"/>
<path d="M52.1033 38.6435H47.1464V36.1005C47.1464 34.0695 45.4922 32.4173 43.4595 32.4173C41.4268 32.4173 39.7733 34.0701 39.7733 36.1005V38.6435H34.8164V36.1005C34.8164 31.3387 38.6938 27.4639 43.4602 27.4639C48.2265 27.4639 52.1039 31.338 52.1039 36.1005V38.6435H52.1033Z" fill="#F9A11D"/>
<path d="M54.0825 38.6592H32.7968C31.8881 38.6592 31.1445 39.4021 31.1445 40.3101V56.0434C31.1445 56.9514 31.8881 57.6943 32.7968 57.6943H54.0825C54.9913 57.6943 55.7348 56.9514 55.7348 56.0434V40.3101C55.7348 39.4021 54.9913 38.6592 54.0825 38.6592ZM44.5183 48.9893V51.1213C44.5183 51.7164 44.0349 52.1988 43.44 52.1988C42.845 52.1988 42.3617 51.7158 42.3617 51.1213V48.9899C41.6983 48.6135 41.2501 47.9032 41.2501 47.0864C41.2501 45.8777 42.231 44.8983 43.44 44.8983C44.6496 44.8983 45.6299 45.8784 45.6299 47.0864C45.6299 47.9026 45.1817 48.6129 44.5183 48.9893Z" fill="#2C3C69"/>
<path d="M30.6443 36.3095H25.508C24.6751 36.3095 24 35.6349 24 34.8027C24 33.9704 24.6751 33.2959 25.508 33.2959H30.6443C31.4773 33.2959 32.1524 33.9704 32.1524 34.8027C32.1524 35.6349 31.4767 36.3095 30.6443 36.3095Z" fill="#F9A11D"/>
<path d="M34.3239 28.2574C33.9872 28.2574 33.6475 28.1453 33.367 27.9143L29.3041 24.5761C28.661 24.0475 28.5679 23.0982 29.0975 22.4551C29.6265 21.8126 30.5766 21.7196 31.2202 22.2481L35.2832 25.5863C35.9262 26.1149 36.0193 27.0642 35.4897 27.7073C35.1919 28.0702 34.7597 28.2574 34.3239 28.2574Z" fill="#F9A11D"/>
<path d="M43.4612 24.6854C42.6282 24.6854 41.9531 24.0108 41.9531 23.1786V18.0058C41.9531 17.1736 42.6282 16.499 43.4612 16.499C44.2941 16.499 44.9692 17.1736 44.9692 18.0058V23.1786C44.9692 24.0108 44.2941 24.6854 43.4612 24.6854Z" fill="#F9A11D"/>
<path d="M52.6069 28.2379C52.171 28.2379 51.7394 28.0506 51.441 27.6878C50.912 27.0453 51.0045 26.0954 51.6476 25.5668L55.7105 22.2286C56.3542 21.7 57.3042 21.7931 57.8332 22.4356C58.3622 23.0781 58.2697 24.028 57.6267 24.5565L53.5637 27.8948C53.2832 28.1258 52.9441 28.2379 52.6069 28.2379Z" fill="#F9A11D"/>
<path d="M61.3727 36.3095H56.1877C55.3548 36.3095 54.6797 35.6349 54.6797 34.8027C54.6797 33.9704 55.3548 33.2959 56.1877 33.2959H61.3727C62.2057 33.2959 62.8808 33.9704 62.8808 34.8027C62.8808 35.6349 62.2057 36.3095 61.3727 36.3095Z" fill="#F9A11D"/>
</svg>
