<svg width="91" height="117" viewBox="0 0 91 117" fill="none" xmlns="http://www.w3.org/2000/svg">
<g filter="url(#filter0_d_400_7707)">
<path d="M45.7729 72.3254L26.2584 112.951L19.1622 98.4953L3.44922 102.234L22.9637 61.8574L45.7729 72.3254Z" fill="black"/>
</g>
<path d="M45.7729 72.3254L26.2584 112.951L19.1622 98.4953L3.44922 102.234L22.9637 61.8574L45.7729 72.3254Z" fill="#00BFD6"/>
<g filter="url(#filter1_d_400_7707)">
<path d="M44.5078 72.3254L64.0223 112.951L71.3719 98.4953L87.0849 102.234L67.5704 61.8574L44.5078 72.3254Z" fill="black"/>
</g>
<path d="M44.5078 72.3254L64.0223 112.951L71.3719 98.4953L87.0849 102.234L67.5704 61.8574L44.5078 72.3254Z" fill="#00BFD6"/>
<g filter="url(#filter2_d_400_7707)">
<path d="M45.5043 84.426L39.8401 89.206L35.586 83.0987L28.8977 86.2257L26.3436 79.2073L19.087 80.4681L18.407 73.017L11.0767 72.3258L12.317 64.9497L5.41247 62.3535L8.48873 55.555L2.48047 51.2309L7.18297 45.4733L2.48047 39.7158L8.48873 35.3917L5.41247 28.5932L12.317 25.997L11.0767 18.6209L18.407 17.9297L19.087 10.4785L26.3436 11.7394L28.8977 4.72103L35.586 7.84797L39.8401 1.74072L45.5043 6.52069L51.1685 1.74072L55.4226 7.84797L62.1109 4.72103L64.6649 11.7394L71.9215 10.4785L72.6015 17.9297L79.9319 18.6209L78.6915 25.997L85.5961 28.5932L82.5198 35.3917L88.5281 39.7158L83.8256 45.4733L88.5281 51.2309L82.5198 55.555L85.5961 62.3535L78.6915 64.9497L79.9319 72.3258L72.6015 73.017L71.9215 80.4681L64.6649 79.2073L62.1109 86.2257L55.4226 83.0987L51.1685 89.206L45.5043 84.426Z" fill="black"/>
</g>
<path d="M45.5043 84.426L39.8401 89.206L35.586 83.0987L28.8977 86.2257L26.3436 79.2073L19.087 80.4681L18.407 73.017L11.0767 72.3258L12.317 64.9497L5.41247 62.3535L8.48873 55.555L2.48047 51.2309L7.18297 45.4733L2.48047 39.7158L8.48873 35.3917L5.41247 28.5932L12.317 25.997L11.0767 18.6209L18.407 17.9297L19.087 10.4785L26.3436 11.7394L28.8977 4.72103L35.586 7.84797L39.8401 1.74072L45.5043 6.52069L51.1685 1.74072L55.4226 7.84797L62.1109 4.72103L64.6649 11.7394L71.9215 10.4785L72.6015 17.9297L79.9319 18.6209L78.6915 25.997L85.5961 28.5932L82.5198 35.3917L88.5281 39.7158L83.8256 45.4733L88.5281 51.2309L82.5198 55.555L85.5961 62.3535L78.6915 64.9497L79.9319 72.3258L72.6015 73.017L71.9215 80.4681L64.6649 79.2073L62.1109 86.2257L55.4226 83.0987L51.1685 89.206L45.5043 84.426Z" fill="#00BFD6"/>
<path d="M45.8149 81.7619C65.6446 81.7619 81.7197 65.6537 81.7197 45.7833C81.7197 25.9129 65.6446 9.80469 45.8149 9.80469C25.9853 9.80469 9.91016 25.9129 9.91016 45.7833C9.91016 65.6537 25.9853 81.7619 45.8149 81.7619Z" fill="#00BFD6"/>
<g filter="url(#filter3_i_400_7707)">
<path d="M45.8149 81.7619C65.6446 81.7619 81.7197 65.6537 81.7197 45.7833C81.7197 25.9129 65.6446 9.80469 45.8149 9.80469C25.9853 9.80469 9.91016 25.9129 9.91016 45.7833C9.91016 65.6537 25.9853 81.7619 45.8149 81.7619Z" fill="black"/>
</g>
<path d="M45.8149 81.7619C65.6446 81.7619 81.7197 65.6537 81.7197 45.7833C81.7197 25.9129 65.6446 9.80469 45.8149 9.80469C25.9853 9.80469 9.91016 25.9129 9.91016 45.7833C9.91016 65.6537 25.9853 81.7619 45.8149 81.7619Z" stroke="#00BFD6"/>
<path opacity="0.954543" d="M45.8149 81.7619C65.6446 81.7619 81.7197 65.6537 81.7197 45.7833C81.7197 25.9129 65.6446 9.80469 45.8149 9.80469C25.9853 9.80469 9.91016 25.9129 9.91016 45.7833C9.91016 65.6537 25.9853 81.7619 45.8149 81.7619Z" fill="white" stroke="#00BFD6"/>
<path fill-rule="evenodd" clip-rule="evenodd" d="M45.8157 8.25391C56.1579 8.25391 65.5209 12.4545 72.2985 19.246C79.076 26.0375 83.268 35.4199 83.268 45.7833C83.268 56.1468 79.076 65.5291 72.2985 72.3206C65.5209 79.1121 56.1579 83.3127 45.8157 83.3127C35.4735 83.3127 26.1104 79.1121 19.3328 72.3206C12.5553 65.5291 8.36328 56.1468 8.36328 45.7833C8.36328 35.4199 12.5553 26.0375 19.3328 19.246C26.1104 12.4545 35.4735 8.25391 45.8157 8.25391Z" stroke="white"/>
<path fill-rule="evenodd" clip-rule="evenodd" d="M38.6306 60.0523L34.1642 57.6193C34.1033 57.586 34.0367 57.5698 33.9701 57.5698C33.9035 57.5698 33.8361 57.586 33.776 57.6193L29.3096 60.0523C29.1789 60.1236 29.0977 60.2599 29.0977 60.4083V63.6523C29.0977 65.4364 29.5581 66.8784 30.5066 68.0616C31.2472 68.9861 32.2599 69.7387 33.789 70.5027C33.8459 70.5311 33.9084 70.5457 33.9709 70.5457C34.0335 70.5457 34.0952 70.5311 34.1528 70.5027C35.682 69.7387 36.6946 68.9861 37.4353 68.0616C38.383 66.8784 38.8442 65.4356 38.8442 63.6523V60.4083C38.8442 60.2599 38.763 60.1236 38.6323 60.0523H38.6306Z" fill="#009F33"/>
<path fill-rule="evenodd" clip-rule="evenodd" d="M36.631 61.0635L37.3841 61.8382L33.5681 65.763L33.5836 65.7786L32.8305 66.5533L30.0742 63.718L30.8273 62.9433L32.8147 64.9882L36.631 61.0635Z" fill="white"/>
<path d="M44.1725 66.8745V61.2595H43.6145C43.5149 61.6952 43.3643 61.9715 43.1626 62.0883C42.9609 62.2051 42.6046 62.2885 42.0938 62.3384V62.8817H43.418V66.8745H44.1725ZM47.9723 67.028C48.7215 67.028 49.2612 66.6684 49.5912 65.9491C49.8192 65.4477 49.9331 64.8138 49.9331 64.0473C49.9331 63.2388 49.8074 62.6022 49.5559 62.1375C49.231 61.5364 48.7045 61.2358 47.9762 61.2358C47.1667 61.2358 46.6074 61.6637 46.2983 62.5195C46.1333 62.9789 46.0508 63.5288 46.0508 64.1693C46.0508 64.9962 46.1883 65.6551 46.4634 66.146C46.7934 66.734 47.2964 67.028 47.9723 67.028ZM47.9684 66.3823C47.5125 66.3823 47.1903 66.1158 47.0017 65.5829C46.8786 65.2338 46.817 64.7718 46.817 64.1969C46.817 63.433 46.9133 62.8548 47.1058 62.4624C47.2984 62.07 47.6029 61.8737 48.0194 61.8737C48.4726 61.8737 48.7778 62.0805 48.935 62.4939C49.0922 62.9073 49.1708 63.4343 49.1708 64.0748C49.1708 64.9621 49.0621 65.5685 48.8446 65.894C48.6272 66.2195 48.3351 66.3823 47.9684 66.3823ZM52.448 67.028C53.1972 67.028 53.7369 66.6684 54.0669 65.9491C54.2949 65.4477 54.4088 64.8138 54.4088 64.0473C54.4088 63.2388 54.2831 62.6022 54.0316 62.1375C53.7067 61.5364 53.1802 61.2358 52.4519 61.2358C51.6424 61.2358 51.0831 61.6637 50.774 62.5195C50.609 62.9789 50.5265 63.5288 50.5265 64.1693C50.5265 64.9962 50.664 65.6551 50.9391 66.146C51.2691 66.734 51.7721 67.028 52.448 67.028ZM52.4441 66.3823C51.9882 66.3823 51.666 66.1158 51.4774 65.5829C51.3543 65.2338 51.2927 64.7718 51.2927 64.1969C51.2927 63.433 51.389 62.8548 51.5815 62.4624C51.7741 62.07 52.0786 61.8737 52.4951 61.8737C52.9483 61.8737 53.2535 62.0805 53.4107 62.4939C53.5679 62.9073 53.6465 63.4343 53.6465 64.0748C53.6465 64.9621 53.5378 65.5685 53.3203 65.894C53.1029 66.2195 52.8108 66.3823 52.4441 66.3823ZM56.9551 67.0241L60.1027 61.2595H59.6665L56.519 67.0241H56.9551ZM56.3775 64.1497C56.7573 64.1497 57.0809 64.0158 57.3481 63.748C57.6153 63.4803 57.7489 63.1574 57.7489 62.7794C57.7489 62.4014 57.6153 62.0778 57.3481 61.8088C57.0809 61.5397 56.7573 61.4052 56.3775 61.4052C56.0003 61.4052 55.678 61.5397 55.4108 61.8088C55.1436 62.0778 55.01 62.4014 55.01 62.7794C55.01 63.1574 55.1436 63.4803 55.4108 63.748C55.678 64.0158 56.0003 64.1497 56.3775 64.1497ZM56.3775 63.5905C56.1548 63.5905 55.9642 63.5111 55.8057 63.3523C55.6473 63.1935 55.568 63.0025 55.568 62.7794C55.568 62.5536 55.6473 62.362 55.8057 62.2045C55.9642 62.047 56.1548 61.9682 56.3775 61.9682C56.6028 61.9682 56.7947 62.0476 56.9532 62.2065C57.1117 62.3653 57.1909 62.5562 57.1909 62.7794C57.1909 63.0025 57.1117 63.1935 56.9532 63.3523C56.7947 63.5111 56.6028 63.5905 56.3775 63.5905ZM60.2363 66.8745C60.6135 66.8745 60.9357 66.7406 61.2029 66.4728C61.4701 66.2051 61.6037 65.8822 61.6037 65.5042C61.6037 65.1262 61.4701 64.8033 61.2029 64.5355C60.9357 64.2678 60.6135 64.1339 60.2363 64.1339C59.8564 64.1339 59.5329 64.2678 59.2657 64.5355C58.9985 64.8033 58.8649 65.1262 58.8649 65.5042C58.8649 65.8822 58.9985 66.2051 59.2657 66.4728C59.5329 66.7406 59.8564 66.8745 60.2363 66.8745ZM60.2363 66.3153C60.011 66.3153 59.8191 66.2359 59.6606 66.0771C59.5021 65.9183 59.4229 65.7273 59.4229 65.5042C59.4229 65.2811 59.5021 65.0901 59.6606 64.9313C59.8191 64.7724 60.011 64.693 60.2363 64.693C60.4589 64.693 60.6495 64.7724 60.808 64.9313C60.9665 65.0901 61.0457 65.2811 61.0457 65.5042C61.0457 65.7273 60.9665 65.9183 60.808 66.0771C60.6495 66.2359 60.4589 66.3153 60.2363 66.3153Z" fill="black"/>
<path d="M44.9029 31.5164C50.0313 31.5164 54.1886 27.3505 54.1886 22.2116C54.1886 17.0726 50.0313 12.9067 44.9029 12.9067C39.7745 12.9067 35.6172 17.0726 35.6172 22.2116C35.6172 27.3505 39.7745 31.5164 44.9029 31.5164Z" fill="#00BFD6"/>
<mask id="mask0_400_7707" style="mask-type:luminance" maskUnits="userSpaceOnUse" x="35" y="12" width="20" height="20">
<path d="M44.9029 31.5164C50.0313 31.5164 54.1886 27.3505 54.1886 22.2116C54.1886 17.0726 50.0313 12.9067 44.9029 12.9067C39.7745 12.9067 35.6172 17.0726 35.6172 22.2116C35.6172 27.3505 39.7745 31.5164 44.9029 31.5164Z" fill="white"/>
</mask>
<g mask="url(#mask0_400_7707)">
<mask id="mask1_400_7707" style="mask-type:luminance" maskUnits="userSpaceOnUse" x="35" y="12" width="11" height="11">
<path fill-rule="evenodd" clip-rule="evenodd" d="M35.6172 12.9067H45.8732V22.64H35.6172V12.9067Z" fill="white"/>
</mask>
<g mask="url(#mask1_400_7707)">
<path d="M47.1912 24.7823C48.1036 25.1153 49.0951 24.6618 49.4131 23.7856C49.7311 22.9095 49.2623 21.923 48.3499 21.5899C47.4374 21.2569 46.446 21.7104 46.128 22.5866C45.81 23.4628 46.2787 24.4493 47.1912 24.7823ZM46.6202 26.3555C44.8452 25.7076 43.9214 23.7635 44.5567 22.0131C45.192 20.2627 47.1459 19.3689 48.9209 20.0168C50.6958 20.6646 51.6197 22.6087 50.9844 24.3591C50.349 26.1095 48.3951 27.0033 46.6202 26.3555Z" fill="white"/>
<path d="M46.1368 27.6871C48.8374 28.6728 51.735 27.4155 52.6343 24.9379C53.5335 22.4604 52.1197 19.6294 49.4191 18.6438C46.7185 17.6581 43.8208 18.9154 42.9216 21.3929C42.0224 23.8705 43.4361 26.7014 46.1368 27.6871ZM45.5658 29.2603C42.0159 27.9646 40.1286 24.1855 41.3503 20.8195C42.5721 17.4534 46.4402 15.7749 49.9901 17.0706C53.54 18.3662 55.4273 22.1453 54.2055 25.5114C52.9838 28.8775 49.1156 30.5559 45.5658 29.2603Z" fill="white"/>
<path d="M45.029 30.7347C49.5045 32.3682 54.3363 30.2717 55.8464 26.1111C57.3565 21.9505 54.9991 17.2301 50.5235 15.5965C46.048 13.963 41.2163 16.0596 39.7061 20.2201C38.196 24.3807 40.5535 29.1012 45.029 30.7347ZM44.458 32.3079C39.1332 30.3644 36.3023 24.6958 38.1349 19.6467C39.9675 14.5975 45.7697 12.0799 51.0945 14.0234C56.4193 15.9668 59.2503 21.6355 57.4176 26.6846C55.585 31.7337 49.7828 34.2514 44.458 32.3079Z" fill="white"/>
</g>
<path fill-rule="evenodd" clip-rule="evenodd" d="M47.7359 19.7163C49.7616 19.7163 51.4037 21.3827 51.4037 23.4382C51.4037 25.4938 49.7616 27.1602 47.7359 27.1602C47.0024 27.1602 46.3192 26.9417 45.746 26.5654L43.411 28.9053C43.0847 29.2324 42.5555 29.2324 42.2292 28.9053C41.9028 28.5783 41.9028 28.0481 42.2292 27.721L44.5907 25.3542C44.2589 24.7945 44.068 24.139 44.068 23.4382C44.068 21.3827 45.7102 19.7163 47.7359 19.7163Z" fill="white"/>
<path d="M47.7842 24.4266C48.2955 24.4266 48.7162 23.9997 48.7162 23.4655C48.7162 22.9314 48.2955 22.5045 47.7842 22.5045C47.2728 22.5045 46.8521 22.9314 46.8521 23.4655C46.8521 23.9997 47.2728 24.4266 47.7842 24.4266ZM47.7842 25.6327C46.6046 25.6327 45.6484 24.6624 45.6484 23.4655C45.6484 22.2686 46.6046 21.2983 47.7842 21.2983C48.9637 21.2983 49.9199 22.2686 49.9199 23.4655C49.9199 24.6624 48.9637 25.6327 47.7842 25.6327Z" fill="#FFAC40"/>
</g>
<path d="M18.6396 52.7293C19.1295 52.7293 19.5316 52.6 19.846 52.3414C20.1603 52.0829 20.3568 51.674 20.4354 51.1149H19.7477C19.6822 51.4273 19.5637 51.6734 19.3921 51.8532C19.2205 52.033 18.988 52.1229 18.6946 52.1229C18.3121 52.1229 18.0318 51.9785 17.8537 51.6898C17.6756 51.401 17.5865 51.0453 17.5865 50.6227C17.5865 50.2027 17.6494 49.8496 17.7751 49.5635C17.969 49.1225 18.2912 48.902 18.7418 48.902C19.0718 48.902 19.3115 48.9879 19.4609 49.1599C19.6102 49.3318 19.7058 49.5477 19.7477 49.8076H20.4354C20.3751 49.2432 20.1963 48.8455 19.899 48.6145C19.6017 48.3835 19.2159 48.268 18.7418 48.268C18.1864 48.268 17.7293 48.4741 17.3704 48.8862C17.0115 49.2983 16.832 49.8745 16.832 50.6148C16.832 51.2186 16.9958 51.7219 17.3232 52.1249C17.6507 52.5278 18.0895 52.7293 18.6396 52.7293ZM22.7459 52.7608C23.4401 52.7608 23.9523 52.539 24.2824 52.0953C24.6124 51.6517 24.7775 51.0899 24.7775 50.41C24.7775 49.7065 24.5902 49.1736 24.2156 48.8114C23.841 48.4491 23.3825 48.268 22.8402 48.268C22.2351 48.268 21.7531 48.478 21.3942 48.898C21.0353 49.318 20.8558 49.8824 20.8558 50.5912C20.8558 51.2527 21.0261 51.7797 21.3667 52.1721C21.7072 52.5646 22.167 52.7608 22.7459 52.7608ZM22.8127 52.1505C22.3857 52.1505 22.074 52.0008 21.8775 51.7016C21.681 51.4023 21.5828 51.0282 21.5828 50.5794C21.5828 50.1121 21.681 49.7131 21.8775 49.3823C22.074 49.0516 22.3883 48.8862 22.8206 48.8862C23.3078 48.8862 23.651 49.0805 23.8501 49.469C23.9759 49.7157 24.0387 50.036 24.0387 50.4297C24.0387 50.8655 23.9516 51.2612 23.7774 51.6169C23.6032 51.9726 23.2817 52.1505 22.8127 52.1505ZM26.3257 52.6072V50.3707C26.3257 49.8273 26.4351 49.4519 26.6538 49.2445C26.8726 49.0371 27.1155 48.9335 27.3827 48.9335C27.6761 48.9335 27.8766 49.0319 27.984 49.2288C28.0521 49.36 28.0861 49.5687 28.0861 49.8548V52.6072H28.8052V50.1541C28.8052 49.7183 28.9054 49.4073 29.1058 49.2209C29.3062 49.0345 29.5453 48.9413 29.823 48.9413C30.0247 48.9413 30.1956 48.9938 30.3358 49.0988C30.4759 49.2038 30.546 49.3968 30.546 49.6777V52.6072H31.2808V49.7997C31.2808 49.427 31.2258 49.1303 31.1158 48.9098C30.9114 48.5003 30.5263 48.2956 29.9605 48.2956C29.6959 48.2956 29.4575 48.35 29.2453 48.459C29.0331 48.5679 28.8484 48.7353 28.6913 48.961C28.597 48.7773 28.4922 48.6381 28.3769 48.5436C28.1726 48.3783 27.9027 48.2956 27.5674 48.2956C27.2714 48.2956 27.0068 48.3756 26.7737 48.5358C26.6374 48.6303 26.4855 48.7812 26.3178 48.9886V48.3901H25.6184V52.6072H26.3257ZM32.9744 54.2886V52.1347C33.129 52.3263 33.2691 52.4615 33.3949 52.5403C33.6097 52.6794 33.8756 52.749 34.1926 52.749C34.596 52.749 34.9497 52.6243 35.2535 52.3749C35.7329 51.9811 35.9726 51.3249 35.9726 50.4061C35.9726 49.7262 35.8063 49.2032 35.4736 48.837C35.1409 48.4708 34.7362 48.2877 34.2594 48.2877C33.9372 48.2877 33.6568 48.3664 33.4185 48.5239C33.2508 48.6289 33.0962 48.7773 32.9548 48.9689V48.4098H32.2671V54.2886H32.9744ZM34.0983 52.1308C33.611 52.1308 33.2757 51.9129 33.0923 51.4771C32.9954 51.2488 32.9469 50.9718 32.9469 50.6463C32.9469 50.242 32.9954 49.9087 33.0923 49.6462C33.2731 49.1553 33.6084 48.9098 34.0983 48.9098C34.5855 48.9098 34.9208 49.1421 35.1042 49.6068C35.2011 49.8483 35.2496 50.137 35.2496 50.4731C35.2496 51.0243 35.1402 51.4384 34.9215 51.7154C34.7027 51.9923 34.4283 52.1308 34.0983 52.1308ZM37.5248 52.6072V46.8229H36.8175V52.6072H37.5248ZM39.3049 47.6262V46.8229H38.5858V47.6262H39.3049ZM39.3049 52.6072V48.4098H38.5858V52.6072H39.3049ZM41.5054 52.749C41.8302 52.749 42.1275 52.6794 42.3974 52.5403C42.6672 52.4012 42.8741 52.2371 43.0182 52.0481C43.0418 52.2161 43.0824 52.346 43.14 52.4379C43.2501 52.6112 43.4269 52.6978 43.6705 52.6978C43.7701 52.6978 43.8487 52.6938 43.9063 52.686C43.9639 52.6781 44.0478 52.6584 44.1578 52.6269V52.1032C44.1133 52.1111 44.0713 52.117 44.032 52.1209C43.9927 52.1249 43.9574 52.1268 43.9259 52.1268C43.829 52.1268 43.7655 52.1045 43.7354 52.0599C43.7052 52.0153 43.6902 51.9562 43.6902 51.8827V49.4532C43.6902 49.0542 43.5369 48.7602 43.2304 48.5712C42.9213 48.3822 42.5192 48.2877 42.0241 48.2877C41.5971 48.2877 41.2218 48.3894 40.8983 48.5929C40.5747 48.7963 40.4064 49.1579 40.3933 49.6777H41.0535C41.0797 49.4598 41.136 49.2957 41.2224 49.1855C41.377 48.986 41.639 48.8862 42.0083 48.8862C42.3279 48.8862 42.5735 48.9407 42.7451 49.0496C42.9167 49.1586 43.0025 49.3338 43.0025 49.5753C43.0025 49.6934 42.9868 49.784 42.9554 49.847C42.9003 49.9625 42.7916 50.0307 42.6292 50.0517L41.5014 50.1935C41.1059 50.2434 40.7863 50.3759 40.5426 50.5912C40.299 50.8064 40.1772 51.1096 40.1772 51.5008C40.1772 51.8578 40.301 52.1551 40.5485 52.3926C40.7961 52.6302 41.115 52.749 41.5054 52.749ZM41.6704 52.1465C41.4661 52.1465 41.2892 52.0875 41.1399 51.9693C40.9906 51.8512 40.9159 51.6898 40.9159 51.485C40.9159 51.2146 41.0247 51.0177 41.2421 50.8944C41.3705 50.8209 41.563 50.7671 41.8197 50.7329L42.248 50.6778C42.379 50.6621 42.5126 50.6358 42.6489 50.5991C42.7851 50.5623 42.8964 50.5164 42.9829 50.4612V51.0322C42.9829 51.4679 42.7864 51.7816 42.3934 51.9733C42.1603 52.0888 41.9193 52.1465 41.6704 52.1465ZM45.5567 52.6072V50.3982C45.5567 50.1226 45.5744 49.9106 45.6097 49.7623C45.6451 49.614 45.7217 49.4703 45.8396 49.3312C45.9863 49.1579 46.1566 49.0424 46.3504 48.9846C46.4579 48.9505 46.5954 48.9335 46.763 48.9335C47.0931 48.9335 47.321 49.0647 47.4468 49.3272C47.5227 49.4847 47.5607 49.6921 47.5607 49.9494V52.6072H48.2798V49.9021C48.2798 49.4768 48.2222 49.15 48.1069 48.9216C47.8974 48.5043 47.4939 48.2956 46.8966 48.2956C46.6242 48.2956 46.3766 48.3494 46.154 48.457C45.9313 48.5646 45.7204 48.7418 45.5213 48.9886V48.3901H44.8494V52.6072H45.5567ZM50.3153 52.6742C50.4175 52.6742 50.5124 52.6689 50.6002 52.6584C50.688 52.6479 50.7724 52.6308 50.8537 52.6072V52.0481C50.8013 52.0533 50.7554 52.0566 50.7161 52.0579C50.6768 52.0592 50.6402 52.0599 50.6061 52.0599C50.4777 52.0599 50.386 52.0455 50.331 52.0166C50.2315 51.9667 50.1817 51.8683 50.1817 51.7213V48.9689H50.8537V48.3901H50.1817V47.2127H49.4665V48.3901H48.8968V48.9689H49.4665V51.7606C49.4665 52.031 49.5255 52.2509 49.6434 52.4202C49.7613 52.5895 49.9852 52.6742 50.3153 52.6742ZM54.5042 52.6072V50.3707C54.5042 49.8089 54.6234 49.427 54.8617 49.2248C55.1001 49.0227 55.366 48.9216 55.6594 48.9216C56.0131 48.9216 56.2541 49.0371 56.3825 49.2681C56.4611 49.4125 56.5004 49.6396 56.5004 49.9494V52.6072H57.2273V49.9021C57.2273 49.4873 57.1684 49.1631 57.0505 48.9295C56.833 48.5016 56.4191 48.2877 55.8088 48.2877C55.4682 48.2877 55.184 48.3625 54.9561 48.5121C54.8225 48.5988 54.6718 48.7484 54.5042 48.961V46.8032H53.7969V52.6072H54.5042ZM59.8758 52.7608C60.57 52.7608 61.0821 52.539 61.4122 52.0953C61.7423 51.6517 61.9073 51.0899 61.9073 50.41C61.9073 49.7065 61.72 49.1736 61.3454 48.8114C60.9708 48.4491 60.5124 48.268 59.9701 48.268C59.365 48.268 58.8829 48.478 58.524 48.898C58.1651 49.318 57.9857 49.8824 57.9857 50.5912C57.9857 51.2527 58.156 51.7797 58.4965 52.1721C58.8371 52.5646 59.2968 52.7608 59.8758 52.7608ZM59.9426 52.1505C59.5156 52.1505 59.2038 52.0008 59.0074 51.7016C58.8109 51.4023 58.7127 51.0282 58.7127 50.5794C58.7127 50.1121 58.8109 49.7131 59.0074 49.3823C59.2038 49.0516 59.5182 48.8862 59.9505 48.8862C60.4377 48.8862 60.7809 49.0805 60.98 49.469C61.1057 49.7157 61.1686 50.036 61.1686 50.4297C61.1686 50.8655 61.0815 51.2612 60.9073 51.6169C60.7331 51.9726 60.4115 52.1505 59.9426 52.1505ZM64.2375 52.7687C64.8191 52.7687 65.252 52.6322 65.5362 52.3592C65.8205 52.0861 65.9626 51.762 65.9626 51.3866C65.9626 50.9981 65.8251 50.7132 65.55 50.5321C65.3771 50.4166 65.0365 50.2972 64.5283 50.1738L64.0607 50.0596C63.8564 50.0097 63.7018 49.952 63.597 49.8864C63.4163 49.7761 63.3259 49.6291 63.3259 49.4453C63.3259 49.2773 63.3947 49.1421 63.5322 49.0398C63.6697 48.9374 63.8721 48.8862 64.1393 48.8862C64.5401 48.8862 64.8217 48.9794 64.9841 49.1658C65.0837 49.297 65.14 49.4427 65.1531 49.6028H65.8211C65.8264 49.3298 65.7412 49.0752 65.5657 48.839C65.2854 48.4662 64.8283 48.2798 64.1943 48.2798C63.7097 48.2798 63.3239 48.4032 63.0371 48.6499C62.7502 48.8967 62.6068 49.2196 62.6068 49.6186C62.6068 49.9572 62.7587 50.2224 63.0626 50.414C63.2329 50.5242 63.4975 50.624 63.8564 50.7132L64.4183 50.855C64.7196 50.9311 64.9213 50.9981 65.0234 51.0558C65.1832 51.1503 65.2631 51.2881 65.2631 51.4693C65.2631 51.7081 65.1636 51.8847 64.9645 51.9989C64.7654 52.1131 64.5349 52.1701 64.2729 52.1701C63.8328 52.1701 63.5237 52.056 63.3455 51.8276C63.2486 51.7016 63.1897 51.5204 63.1687 51.2842H62.4889C62.5072 51.7042 62.6467 52.0566 62.9074 52.3414C63.1681 52.6263 63.6114 52.7687 64.2375 52.7687ZM67.7623 52.6742C67.8645 52.6742 67.9594 52.6689 68.0472 52.6584C68.1349 52.6479 68.2194 52.6308 68.3006 52.6072V52.0481C68.2482 52.0533 68.2024 52.0566 68.1631 52.0579C68.1238 52.0592 68.0871 52.0599 68.0531 52.0599C67.9247 52.0599 67.833 52.0455 67.778 52.0166C67.6785 51.9667 67.6287 51.8683 67.6287 51.7213V48.9689H68.3006V48.3901H67.6287V47.2127H66.9135V48.3901H66.3438V48.9689H66.9135V51.7606C66.9135 52.031 66.9725 52.2509 67.0904 52.4202C67.2082 52.5895 67.4322 52.6742 67.7623 52.6742ZM70.6505 52.7568C70.8653 52.7568 71.0578 52.7358 71.2281 52.6938C71.5451 52.6203 71.811 52.4786 72.0258 52.2686C72.1542 52.1478 72.2701 51.9923 72.3736 51.802C72.4771 51.6117 72.538 51.4391 72.5563 51.2842H71.8608C71.8084 51.4706 71.7193 51.6346 71.5936 51.7764C71.3735 52.0205 71.0788 52.1426 70.7094 52.1426C70.3139 52.1426 70.0218 52.0133 69.8331 51.7547C69.6445 51.4962 69.5437 51.1529 69.5306 50.7251H72.6152C72.6152 50.2998 72.5943 49.99 72.5524 49.7958C72.5052 49.5123 72.4109 49.2642 72.2694 49.0516C72.1227 48.8285 71.9092 48.6467 71.6289 48.5062C71.3486 48.3658 71.0592 48.2956 70.7605 48.2956C70.1685 48.2956 69.6891 48.5069 69.3223 48.9295C68.9556 49.3522 68.7722 49.9021 68.7722 50.5794C68.7722 51.2671 68.9543 51.802 69.3184 52.1839C69.6825 52.5659 70.1266 52.7568 70.6505 52.7568ZM71.8883 50.162H69.5502C69.5633 49.7997 69.6799 49.5011 69.9 49.2662C70.12 49.0312 70.3924 48.9138 70.7173 48.9138C71.1705 48.9138 71.494 49.0844 71.6879 49.4257C71.7927 49.6094 71.8595 49.8548 71.8883 50.162ZM74.2106 52.6072V50.1817C74.2106 49.8824 74.3062 49.6179 74.4975 49.3882C74.6887 49.1586 74.9625 49.0437 75.3187 49.0437C75.3606 49.0437 75.3993 49.045 75.4347 49.0476C75.47 49.0503 75.5087 49.0555 75.5506 49.0634V48.3153C75.4746 48.3074 75.4209 48.3021 75.3895 48.2995C75.358 48.2969 75.3358 48.2956 75.3227 48.2956C75.0424 48.2956 74.7948 48.3973 74.58 48.6007C74.3652 48.8042 74.2303 48.9768 74.1752 49.1185V48.3901H73.5033V52.6072H74.2106Z" fill="black"/>
<path d="M17.6401 42.6795H16.0977V33.4183H17.6401V42.6795ZM20.9473 35.7973L21.0361 36.7895C21.2604 36.4376 21.5429 36.163 21.8835 35.9658C22.2242 35.7686 22.6082 35.67 23.0356 35.67C23.7508 35.67 24.3083 35.8874 24.7083 36.322C25.1082 36.7567 25.3081 37.4341 25.3081 38.3543V42.6795H23.7656V38.367C23.7656 37.8496 23.6588 37.4818 23.4451 37.2634C23.2314 37.045 22.9066 36.9358 22.4707 36.9358C22.1702 36.9358 21.9015 37.0026 21.6646 37.1362C21.4276 37.2698 21.2329 37.4532 21.0806 37.6864V42.6795H19.5381V35.7973H20.9473ZM28.8311 34.1244V35.7973H30.0625V36.9422H28.8311V40.7459C28.8311 41.03 28.8924 41.2325 29.0151 41.3533C29.1379 41.4742 29.3008 41.5346 29.5039 41.5346C29.5885 41.5346 29.6711 41.5272 29.7515 41.5124C29.8319 41.4975 29.908 41.4774 29.98 41.4519L30.145 42.5841C30.0138 42.6562 29.8573 42.7124 29.6753 42.7527C29.4933 42.793 29.305 42.8131 29.1104 42.8131C28.5433 42.8131 28.099 42.6467 27.7773 42.3138C27.4557 41.9809 27.2949 41.4583 27.2949 40.7459V36.9422H26.2476V35.7973H27.2949V34.1244H28.8311ZM34.3789 42.8131C33.4056 42.8131 32.6301 42.494 32.0525 41.8558C31.4749 41.2176 31.186 40.3982 31.186 39.3974V39.143C31.186 38.1422 31.4727 37.3122 32.0461 36.6528C32.6196 35.9934 33.3379 35.6658 34.2012 35.67C35.1279 35.67 35.8378 35.951 36.3308 36.5128C36.8238 37.0747 37.0703 37.8284 37.0703 38.7741V39.6837H32.7856L32.7729 39.7155C32.7983 40.2625 32.9581 40.7098 33.2522 41.0576C33.5463 41.4053 33.9536 41.5791 34.4741 41.5791C34.8888 41.5791 35.2443 41.5283 35.5405 41.4265C35.8368 41.3247 36.1224 41.1784 36.3975 40.9876L36.8926 41.999C36.6344 42.2279 36.2917 42.4209 35.8643 42.5778C35.4368 42.7347 34.9417 42.8131 34.3789 42.8131ZM34.2012 36.9104C33.8203 36.9104 33.5072 37.062 33.2617 37.3652C33.0163 37.6684 32.8639 38.0532 32.8047 38.5196L32.8174 38.5514H35.5405V38.3924C35.5405 37.9557 35.4294 37.5995 35.2073 37.3238C34.9851 37.0482 34.6497 36.9104 34.2012 36.9104ZM41.7358 37.1903L41.0757 37.1648C40.7752 37.1648 40.5245 37.2284 40.3235 37.3556C40.1225 37.4828 39.967 37.6631 39.8569 37.8963V42.6795H38.3145V35.7973H39.7236L39.8252 36.7959C39.9987 36.4439 40.2219 36.1683 40.4949 35.969C40.7678 35.7697 41.082 35.67 41.4375 35.67C41.5306 35.67 41.6174 35.6775 41.6978 35.6923C41.7782 35.7071 41.8522 35.7252 41.9199 35.7464L41.7358 37.1903ZM44.2114 35.7973L44.3003 36.7895C44.5246 36.4376 44.807 36.163 45.1477 35.9658C45.4884 35.7686 45.8724 35.67 46.2998 35.67C47.015 35.67 47.5725 35.8874 47.9724 36.322C48.3723 36.7567 48.5723 37.4341 48.5723 38.3543V42.6795H47.0298V38.367C47.0298 37.8496 46.9229 37.4818 46.7092 37.2634C46.4955 37.045 46.1707 36.9358 45.7349 36.9358C45.4344 36.9358 45.1657 37.0026 44.9287 37.1362C44.6917 37.2698 44.4971 37.4532 44.3447 37.6864V42.6795H42.8022V35.7973H44.2114ZM53.1235 42.8131C52.1502 42.8131 51.3748 42.494 50.7971 41.8558C50.2195 41.2176 49.9307 40.3982 49.9307 39.3974V39.143C49.9307 38.1422 50.2174 37.3122 50.7908 36.6528C51.3642 35.9934 52.0825 35.6658 52.9458 35.67C53.8726 35.67 54.5824 35.951 55.0754 36.5128C55.5684 37.0747 55.8149 37.8284 55.8149 38.7741V39.6837H51.5303L51.5176 39.7155C51.543 40.2625 51.7027 40.7098 51.9968 41.0576C52.2909 41.4053 52.6982 41.5791 53.2188 41.5791C53.6335 41.5791 53.9889 41.5283 54.2852 41.4265C54.5814 41.3247 54.867 41.1784 55.1421 40.9876L55.6372 41.999C55.3791 42.2279 55.0363 42.4209 54.6089 42.5778C54.1815 42.7347 53.6864 42.8131 53.1235 42.8131ZM52.9458 36.9104C52.5649 36.9104 52.2518 37.062 52.0063 37.3652C51.7609 37.6684 51.6086 38.0532 51.5493 38.5196L51.562 38.5514H54.2852V38.3924C54.2852 37.9557 54.1741 37.5995 53.9519 37.3238C53.7297 37.0482 53.3944 36.9104 52.9458 36.9104ZM58.9761 34.1244V35.7973H60.2075V36.9422H58.9761V40.7459C58.9761 41.03 59.0374 41.2325 59.1602 41.3533C59.2829 41.4742 59.4458 41.5346 59.6489 41.5346C59.7336 41.5346 59.8161 41.5272 59.8965 41.5124C59.9769 41.4975 60.0531 41.4774 60.125 41.4519L60.29 42.5841C60.1589 42.6562 60.0023 42.7124 59.8203 42.7527C59.6383 42.793 59.45 42.8131 59.2554 42.8131C58.6883 42.8131 58.244 42.6467 57.9224 42.3138C57.6007 41.9809 57.4399 41.4583 57.4399 40.7459V36.9422H56.3926V35.7973H57.4399V34.1244H58.9761ZM63.2734 42.6795H61.7373V41.1975H63.2734V42.6795ZM66.606 35.7973L66.6948 36.7895C66.9191 36.4376 67.2016 36.163 67.5422 35.9658C67.8829 35.7686 68.2669 35.67 68.6943 35.67C69.4095 35.67 69.967 35.8874 70.3669 36.322C70.7668 36.7567 70.9668 37.4341 70.9668 38.3543V42.6795H69.4243V38.367C69.4243 37.8496 69.3175 37.4818 69.1038 37.2634C68.8901 37.045 68.5653 36.9358 68.1294 36.9358C67.8289 36.9358 67.5602 37.0026 67.3232 37.1362C67.0863 37.2698 66.8916 37.4532 66.7393 37.6864V42.6795H65.1968V35.7973H66.606ZM74.2168 42.6795H72.6743V32.7568H74.2168V42.6795Z" fill="black"/>
<defs>
<filter id="filter0_d_400_7707" x="-0.550781" y="59.8574" width="50.3242" height="59.0938" filterUnits="userSpaceOnUse" color-interpolation-filters="sRGB">
<feFlood flood-opacity="0" result="BackgroundImageFix"/>
<feColorMatrix in="SourceAlpha" type="matrix" values="0 0 0 0 0 0 0 0 0 0 0 0 0 0 0 0 0 0 127 0" result="hardAlpha"/>
<feOffset dy="2"/>
<feGaussianBlur stdDeviation="2"/>
<feColorMatrix type="matrix" values="0 0 0 0 0 0 0 0 0 0 0 0 0 0 0 0 0 0 0.5 0"/>
<feBlend mode="normal" in2="BackgroundImageFix" result="effect1_dropShadow_400_7707"/>
<feBlend mode="normal" in="SourceGraphic" in2="effect1_dropShadow_400_7707" result="shape"/>
</filter>
<filter id="filter1_d_400_7707" x="40.5078" y="59.8574" width="50.5781" height="59.0938" filterUnits="userSpaceOnUse" color-interpolation-filters="sRGB">
<feFlood flood-opacity="0" result="BackgroundImageFix"/>
<feColorMatrix in="SourceAlpha" type="matrix" values="0 0 0 0 0 0 0 0 0 0 0 0 0 0 0 0 0 0 127 0" result="hardAlpha"/>
<feOffset dy="2"/>
<feGaussianBlur stdDeviation="2"/>
<feColorMatrix type="matrix" values="0 0 0 0 0 0 0 0 0 0 0 0 0 0 0 0 0 0 0.5 0"/>
<feBlend mode="normal" in2="BackgroundImageFix" result="effect1_dropShadow_400_7707"/>
<feBlend mode="normal" in="SourceGraphic" in2="effect1_dropShadow_400_7707" result="shape"/>
</filter>
<filter id="filter2_d_400_7707" x="-1.51953" y="-0.259277" width="94.0469" height="95.4653" filterUnits="userSpaceOnUse" color-interpolation-filters="sRGB">
<feFlood flood-opacity="0" result="BackgroundImageFix"/>
<feColorMatrix in="SourceAlpha" type="matrix" values="0 0 0 0 0 0 0 0 0 0 0 0 0 0 0 0 0 0 127 0" result="hardAlpha"/>
<feOffset dy="2"/>
<feGaussianBlur stdDeviation="2"/>
<feColorMatrix type="matrix" values="0 0 0 0 0 0 0 0 0 0 0 0 0 0 0 0 0 0 0.5 0"/>
<feBlend mode="normal" in2="BackgroundImageFix" result="effect1_dropShadow_400_7707"/>
<feBlend mode="normal" in="SourceGraphic" in2="effect1_dropShadow_400_7707" result="shape"/>
</filter>
<filter id="filter3_i_400_7707" x="9.91016" y="9.80469" width="71.8086" height="72.957" filterUnits="userSpaceOnUse" color-interpolation-filters="sRGB">
<feFlood flood-opacity="0" result="BackgroundImageFix"/>
<feBlend mode="normal" in="SourceGraphic" in2="BackgroundImageFix" result="shape"/>
<feColorMatrix in="SourceAlpha" type="matrix" values="0 0 0 0 0 0 0 0 0 0 0 0 0 0 0 0 0 0 127 0" result="hardAlpha"/>
<feOffset dy="1"/>
<feGaussianBlur stdDeviation="1.5"/>
<feComposite in2="hardAlpha" operator="arithmetic" k2="-1" k3="1"/>
<feColorMatrix type="matrix" values="0 0 0 0 0 0 0 0 0 0 0 0 0 0 0 0 0 0 0.5 0"/>
<feBlend mode="normal" in2="shape" result="effect1_innerShadow_400_7707"/>
</filter>
</defs>
</svg>
