<?xml version="1.0" encoding="UTF-8"?><svg xmlns="http://www.w3.org/2000/svg" width="32" height="32" viewBox="0 0 32 32" fill="none"><circle cx="16" cy="16" r="15.25" stroke="#4D1F1F" stroke-width="1.5"/><path fill-rule="evenodd" clip-rule="evenodd" d="M20.4844 10.4966C20.4844 12.9819 18.4697 14.9966 15.9844 14.9966C13.4991 14.9966 11.4844 12.9819 11.4844 10.4966C11.4844 8.0113 13.4991 5.99658 15.9844 5.99658C18.4697 5.99658 20.4844 8.0113 20.4844 10.4966ZM18.4844 10.4966C18.4844 11.8773 17.3651 12.9966 15.9844 12.9966C14.6037 12.9966 13.4844 11.8773 13.4844 10.4966C13.4844 9.11587 14.6037 7.99658 15.9844 7.99658C17.3651 7.99658 18.4844 9.11587 18.4844 10.4966Z" fill="#4D1F1F"/><path fill-rule="evenodd" clip-rule="evenodd" d="M6.98438 22.9197C6.98438 19.0961 10.0839 15.9966 13.9075 15.9966H18.0613C21.8848 15.9966 24.9844 19.0961 24.9844 22.9197C24.9844 24.0667 24.0545 24.9966 22.9075 24.9966H9.0613C7.91425 24.9966 6.98438 24.0667 6.98438 22.9197ZM8.98438 22.9197C8.98438 20.2007 11.1885 17.9966 13.9075 17.9966H18.0613C20.7802 17.9966 22.9844 20.2007 22.9844 22.9197C22.9844 22.9621 22.9499 22.9966 22.9075 22.9966H9.0613C9.01881 22.9966 8.98438 22.9621 8.98438 22.9197Z" fill="#4D1F1F"/></svg>