<svg xmlns="http://www.w3.org/2000/svg" width="120" height="32" viewBox="0 0 120 32" fill="none"><path d="M40.9122 14.2772C38.105 13.1553 37.539 12.4157 37.539 11.0085C37.539 9.45728 38.5481 8.62072 40.3719 8.62072C40.552 8.62072 40.7149 8.62626 40.8636 8.63457C41.3781 8.72044 42.0527 8.95867 42.7188 9.56809C42.7559 9.60964 42.796 9.65119 42.836 9.69274C43.5049 10.4157 43.8451 10.9808 44.4597 12.2468H45.1257L44.6312 8.41573C43.7936 8.10548 42.7388 7.66504 40.6692 7.66504C37.1703 7.66504 34.8577 9.69274 34.8577 12.4628C34.8577 14.8728 36.064 16.2828 39.3657 17.593C42.2957 18.762 43.1819 19.6207 43.1819 21.1498C43.1819 21.6484 43.0847 22.111 42.8903 22.5016C42.4729 23.2661 41.7068 23.6983 40.3433 23.6983C38.8683 23.6983 37.6762 22.8617 37.2703 22.5376C37.156 22.4047 37.0445 22.2634 36.9359 22.1083C36.2955 21.1997 35.9754 20.3548 35.3865 19.1387H34.6719L34.8177 23.5875C35.8039 24.0168 37.6905 24.8257 39.8573 24.8257C43.8965 24.8257 46.089 22.3908 46.089 19.4074C46.089 17.1637 44.6369 15.7786 40.9179 14.2772H40.9122Z" fill="#4D1F1F"/><path d="M53.5335 12.0312C50.3234 12.0312 47.1875 14.106 47.1875 18.4662C47.1875 22.8263 50.0575 24.829 53.5335 24.829C56.7923 24.829 59.9053 22.685 59.9053 18.3249C59.9053 13.9648 57.0124 12.0312 53.5335 12.0312ZM53.6307 23.9786C51.6126 23.9786 50.6635 22.6601 50.6635 18.0867C50.6635 14.1753 51.6612 12.8789 53.4621 12.8789C55.4088 12.8789 56.4293 14.0811 56.4293 18.6074C56.4293 22.8013 55.383 23.9814 53.6336 23.9814L53.6307 23.9786Z" fill="#4D1F1F"/><path d="M72.3606 12.9248V12.3818H68.0813V12.9248L68.7388 13.0882C69.2248 13.2073 69.4449 13.4649 69.4449 13.9137C69.4449 14.1962 69.3477 14.6201 69.1276 15.2101L66.9379 21.127H66.8178L64.5796 15.2101C64.3852 14.6672 64.2651 14.2683 64.2651 13.9608C64.2651 13.4649 64.4338 13.2295 64.9712 13.0882L65.6287 12.9248V12.3818H59.0625V12.9248L59.5742 13.066C60.2317 13.2793 60.4489 13.6062 60.9606 14.8112L64.9483 24.5203H66.652L70.4225 15.0688C70.9571 13.6782 71.1772 13.2544 71.8089 13.066L72.3692 12.9248H72.3606Z" fill="#4D1F1F"/><path d="M77.4983 12.0312C74.311 12.0312 71.3438 14.4108 71.3438 18.3692C71.3438 22.3276 73.3876 24.8041 77.4983 24.8041C79.9052 24.8041 81.7576 23.4108 82.5351 22.6573L82.4693 21.7903C81.546 22.2141 80.5855 22.9343 78.736 23.0368C76.2605 23.1753 74.674 21.8124 74.6254 17.9232H82.7495C82.7009 13.6573 80.7313 12.0312 77.4954 12.0312H77.4983ZM74.6283 17.0977C74.7512 14.1033 75.8689 12.854 77.3525 12.854C77.4239 12.854 77.4897 12.8595 77.5583 12.865C78.1157 12.9814 78.7418 13.4606 79.0419 13.9814C79.2849 14.6268 79.3706 15.5686 79.3706 16.8623L74.6283 17.0977Z" fill="#4D1F1F"/><path d="M98.8887 22.4932V14.6926C98.8887 13.5375 98.9631 12.6178 98.9859 12.194L98.7658 12.0527L94.0234 12.5929V12.9946L94.8753 13.4904C95.507 13.8671 95.63 13.9392 95.63 14.9281V22.4932C95.63 23.4599 95.507 23.6012 94.8524 23.7896L94.0749 23.9779V24.5209H100.447V23.9779L99.6691 23.7896C99.0117 23.6261 98.8916 23.507 98.8916 22.4932H98.8887Z" fill="#4D1F1F"/><path d="M97.1614 10.6152C98.182 10.6152 99.0109 9.86179 99.0109 8.89503C99.0109 7.92827 98.1848 7.1748 97.1614 7.1748C96.1381 7.1748 95.2891 7.92827 95.2891 8.89503C95.2891 9.86179 96.1152 10.6152 97.1614 10.6152Z" fill="#4D1F1F"/><path d="M113.678 22.4932V15.1857C113.678 13.0638 112.68 12.0527 110.467 12.0527C108.789 12.0527 107.134 12.8062 105.897 13.6538H105.774L105.822 12.194L105.602 12.0527L101.031 12.5929V12.9946L101.883 13.4904C102.515 13.8671 102.638 13.9392 102.638 14.9281V22.4932C102.638 23.4599 102.515 23.6012 101.86 23.7896L101.083 23.9779V24.5209H107.38V23.9779L106.625 23.7896C105.994 23.6234 105.897 23.5541 105.897 22.4932V14.5735C105.991 14.5292 106.854 14.1386 107.697 13.9973C107.986 13.9586 108.281 13.9364 108.572 13.9364C109.861 13.9364 110.422 14.4322 110.422 15.9392V22.4904C110.422 23.5513 110.324 23.6206 109.693 23.7868L108.938 23.9752V24.5181H115.238V23.9752L114.461 23.7868C113.826 23.6234 113.683 23.4793 113.683 22.4904L113.678 22.4932Z" fill="#4D1F1F"/><path d="M118.176 21.1963C117.178 21.1963 116.375 21.9498 116.375 22.9414C116.375 23.9331 117.178 24.6617 118.176 24.6617C119.174 24.6617 120 23.8833 120 22.9414C120 21.9525 119.148 21.1963 118.176 21.1963Z" fill="#4D1F1F"/><path d="M91.5027 12.0439C90.1906 12.0439 88.8957 12.9719 88.1153 13.7725H87.9924L88.041 12.2157L87.8209 12.0523L83.25 12.5924V12.9941L84.1019 13.4899C84.7336 13.8667 84.8565 13.9387 84.8565 14.9276V22.4927C84.8565 23.4595 84.7336 23.6007 84.079 23.7891L83.3015 23.9775V24.5204H89.819V23.9775L88.8471 23.7891C88.2382 23.67 88.1182 23.5536 88.1182 22.4927V14.7946C88.2554 14.6534 88.4555 14.4678 88.6727 14.3071C88.8957 14.1852 89.2244 14.0246 89.6389 13.8833C89.7047 14.7919 90.5022 15.4844 91.5056 15.4844C92.5089 15.4844 93.3551 14.7309 93.3551 13.7642C93.3551 12.7974 92.529 12.0439 91.5056 12.0439H91.5027Z" fill="#4D1F1F"/><path d="M12.79 7.98808C13.6362 7.98808 14.3222 7.32333 14.3222 6.50332C14.3222 5.68331 13.6362 5.01855 12.79 5.01855C11.9438 5.01855 11.2578 5.68331 11.2578 6.50332C11.2578 7.32333 11.9438 7.98808 12.79 7.98808Z" fill="#4D1F1F"/><path d="M21.3134 18.6199C22.1597 18.6199 22.8456 17.9552 22.8456 17.1352C22.8456 16.3151 22.1597 15.6504 21.3134 15.6504C20.4672 15.6504 19.7812 16.3151 19.7812 17.1352C19.7812 17.9552 20.4672 18.6199 21.3134 18.6199Z" fill="#4D1F1F"/><path d="M9.74776 21.3684L8.39851 20.9114C3.37598 19.2105 0 14.6039 0 9.44875V0H19.4955V9.44875C19.4955 14.6039 16.1195 19.2105 11.097 20.9114L9.74776 21.3684ZM2.4498 2.37396V9.44875C2.4498 13.5956 5.16545 17.3019 9.20749 18.6704L9.74776 18.8532L10.288 18.6704C14.3301 17.3019 17.0457 13.5956 17.0457 9.44875V2.37396H2.4498Z" fill="#4D1F1F"/><path d="M18.279 32.0003L16.9298 31.5432C11.9072 29.8424 8.53125 25.2357 8.53125 20.0806V10.6318H28.0268V20.0806C28.0268 25.2357 24.6508 29.8424 19.6283 31.5432L18.279 32.0003ZM10.9811 13.0086V20.0834C10.9811 24.2302 13.6967 27.9365 17.7387 29.305L18.279 29.4878L18.8193 29.305C22.8613 27.9365 25.577 24.2302 25.577 20.0834V13.0086H10.9811Z" fill="#4D1F1F"/></svg>