<svg width="378" height="433" viewBox="0 0 378 433" fill="none" xmlns="http://www.w3.org/2000/svg">
<path d="M172.528 108.592C183.943 108.592 193.197 99.6253 193.197 88.5638C193.197 77.5023 183.943 68.5352 172.528 68.5352C161.113 68.5352 151.859 77.5023 151.859 88.5638C151.859 99.6253 161.113 108.592 172.528 108.592Z" fill="#D5F7F6"/>
<path d="M287.434 252.006C298.849 252.006 308.103 243.039 308.103 231.978C308.103 220.916 298.849 211.949 287.434 211.949C276.019 211.949 266.766 220.916 266.766 231.978C266.766 243.039 276.019 252.006 287.434 252.006Z" fill="#D5F7F6"/>
<path d="M131.493 289.092L113.292 282.926C45.5405 259.983 0 197.842 0 128.302V0.84375H262.986V128.302C262.986 197.842 217.445 259.983 149.694 282.926L131.493 289.092ZM33.0467 32.8671V128.302C33.0467 184.24 69.6796 234.237 124.205 252.696L131.493 255.163L138.781 252.696C193.306 234.237 229.939 184.24 229.939 128.302V32.8671H33.0467Z" fill="#D5F7F6"/>
<path d="M246.508 432.506L228.308 426.34C160.556 403.397 115.016 341.256 115.016 271.716V144.258H378.001V271.716C378.001 341.256 332.461 403.397 264.709 426.34L246.508 432.506ZM148.062 176.319V271.754C148.062 327.692 184.695 377.689 239.22 396.148L246.508 398.614L253.796 396.148C308.322 377.689 344.954 327.692 344.954 271.754V176.319H148.062Z" fill="#D5F7F6"/>
</svg>
