<svg width="26" height="25" viewBox="0 0 26 25" fill="none" xmlns="http://www.w3.org/2000/svg">
<circle cx="13" cy="12" r="12" fill="#FFE88C"/>
<path d="M13.1219 9.71249C13.4483 9.74715 13.7392 9.52749 13.7717 9.22186C13.8041 8.91623 13.5658 8.64038 13.2394 8.60572C12.913 8.57106 12.6221 8.79073 12.5897 9.09635C12.5572 9.40198 12.7955 9.67783 13.1219 9.71249Z" fill="#FF5C4D"/>
<path d="M15.9813 14.025C16.3077 14.0596 16.5986 13.84 16.631 13.5344C16.6635 13.2287 16.4252 12.9529 16.0988 12.9182C15.7724 12.8836 15.4815 13.1032 15.4491 13.4089C15.4166 13.7145 15.6549 13.9903 15.9813 14.025Z" fill="#FF5C4D"/>
<path d="M11.4142 14.5744L10.9119 14.3487C9.04191 13.5091 7.92205 11.6539 8.12606 9.73256L8.5 6.21094L16.0198 7.00941L15.6458 10.531C15.4418 12.4524 13.9573 14.0311 11.9527 14.4593L11.4142 14.5744ZM9.35098 7.19607L9.07099 9.8329C8.90688 11.3785 9.80767 12.8711 11.3126 13.5466L11.5138 13.6369L11.7294 13.5909C13.3426 13.2464 14.5368 11.9763 14.7009 10.4307L14.9809 7.79387L9.35098 7.19607Z" fill="#FF5C4D"/>
<path d="M14.2892 18.8869L13.7869 18.6612C11.9169 17.8216 10.797 15.9664 11.0011 14.0451L11.375 10.5234L18.8948 11.3219L18.5208 14.8435C18.3168 16.7649 16.8323 18.3436 14.8277 18.7718L14.2892 18.8869ZM12.2259 11.5096L11.9459 14.1464C11.7818 15.692 12.6826 17.1846 14.1875 17.8602L14.3886 17.9504L14.6043 17.9044C16.2175 17.56 17.4117 16.2898 17.5758 14.7442L17.8558 12.1074L12.2259 11.5096Z" fill="#FF5C4D"/>
<path d="M25 12C25 18.6274 19.6274 24 13 24C6.37258 24 1 18.6274 1 12" stroke="#FF5C4D" stroke-width="0.75" stroke-linecap="round"/>
</svg>
