<svg width="32" height="32" viewBox="0 0 32 32" fill="none" xmlns="http://www.w3.org/2000/svg">
<circle cx="16" cy="16" r="15.25" stroke="#4D1F1F" stroke-width="1.5"/>
<path d="M16.372 9.33333C14.7283 9.33333 13.3958 10.6658 13.3958 12.3095V13.0455C13.3958 13.9659 12.6496 14.7121 11.7292 14.7121C10.8087 14.7121 10.0625 13.9659 10.0625 13.0455V12.3095C10.0625 8.82486 12.8874 6 16.372 6H16.619C19.4106 6 21.8333 7.92571 22.4631 10.6454C23.1614 13.6611 21.4505 16.7129 18.5133 17.6905L18.3423 17.7474C18.0978 17.8288 17.9329 18.0575 17.9329 18.3152V19.3333C17.9329 20.2538 17.1867 21 16.2662 21C15.3457 21 14.5995 20.2538 14.5995 19.3333V18.3152C14.5995 16.6222 15.6833 15.1193 17.2897 14.5846L17.4607 14.5277C18.7658 14.0934 19.526 12.7373 19.2157 11.3974C18.9358 10.189 17.8594 9.33333 16.619 9.33333H16.372Z" fill="#4D1F1F"/>
<path d="M16.3125 22.6667C17.233 22.6667 17.9792 23.4129 17.9792 24.3333C17.9792 25.2538 17.233 26 16.3125 26C15.392 26 14.6458 25.2538 14.6458 24.3333C14.6458 23.4129 15.392 22.6667 16.3125 22.6667Z" fill="#4D1F1F"/>
</svg>
