<svg width="320.000000" height="320.000000" viewBox="0 0 320 320" fill="none" xmlns="http://www.w3.org/2000/svg" xmlns:xlink="http://www.w3.org/1999/xlink">
	<desc>
			Created with Pixso.
	</desc>
	<defs>
		<clipPath id="clip379_80290">
			<rect id="Outfit" rx="-1.896184" width="316.207642" height="316.207642" transform="translate(1.896184 1.896184)" fill="white" fill-opacity="0"/>
		</clipPath>
		<clipPath id="clip379_80291">
			<rect id="Hair" rx="-1.896184" width="316.207642" height="316.207642" transform="translate(1.896184 1.896184)" fill="white" fill-opacity="0"/>
		</clipPath>
		<clipPath id="clip379_80292">
			<rect id="Eye" rx="-1.896184" width="316.207642" height="316.207642" transform="translate(1.896184 1.896184)" fill="white" fill-opacity="0"/>
		</clipPath>
		<clipPath id="clip379_80294">
			<rect id="Mouth" rx="-1.896184" width="316.207642" height="316.207642" transform="translate(1.896184 1.896184)" fill="white" fill-opacity="0"/>
		</clipPath>
		<clipPath id="clip379_80296">
			<rect id="Glasses" rx="-1.896184" width="316.207642" height="316.207642" transform="translate(1.896184 1.896184)" fill="white" fill-opacity="0"/>
		</clipPath>
	</defs>
	<rect id="Background" rx="-1.896184" width="316.207642" height="316.207642" transform="translate(1.896184 1.896184)" fill="#FFFFFF" fill-opacity="0"/>
	<path id="Vector" d="M320 160C320 248.36 248.36 320 160 320C71.63 320 0 248.36 0 160C0 71.63 71.63 0 160 0C248.36 0 320 71.63 320 160Z" fill="#C4F5F5" fill-opacity="1.000000" fill-rule="evenodd"/>
	<path id="Vector" d="M287.58 256.59C258.53 249.42 219.28 240.66 207.56 238.04C204.79 226.55 201.57 211.61 198.38 193.52C191.75 155.82 192.5 136.52 192.5 135.95C192.5 135.95 203.62 130.91 207.6 121.47C209.5 116.91 209.8 112.82 208.89 109.44C207.98 106.07 205.85 103.49 202.86 102.01C197.36 99.28 189.77 105.84 189.74 105.92C189.77 105.35 192.77 69.09 162.73 57.11C145.82 50.4 122.57 55.1 115.98 84.15C103.61 138.64 106.68 159.01 111.57 165.99C117.49 174.37 139.26 177.33 139.3 177.36L134.63 238.08C120.26 241.27 63.53 253.93 36.18 261.33C65.53 297.13 110.1 320 160 320C209.91 320 258.3 295.12 287.54 256.62L287.58 256.59Z" fill="#FFBB99" fill-opacity="1.000000" fill-rule="nonzero"/>
	<g opacity="0.200000">
		<path id="Vector" d="M139.33 177.25C139.33 177.25 156.17 179.45 169.14 167.09L169.14 177.74C169.14 177.74 156.85 190.71 137.7 198.3L139.33 177.25Z" fill="#4D1F1F" fill-opacity="1.000000" fill-rule="nonzero"/>
	</g>
	<path id="Vector" d="M119.73 132.65L119.81 132.65C119.81 132.65 119.77 132.65 119.73 132.65Z" fill="#4D1F1F" fill-opacity="1.000000" fill-rule="nonzero"/>
	<path id="Vector" d="M119.73 132.65L119.81 132.65C119.81 132.65 119.77 132.65 119.73 132.65Z" fill="#4D1F1F" fill-opacity="1.000000" fill-rule="nonzero"/>
	<path id="Vector" d="M191.07 116.54C190.88 116.54 190.69 116.54 190.5 116.42C189.7 116.12 189.28 115.17 189.63 114.37C191.6 109.41 196.23 108.27 196.42 108.23C197.25 108.04 198.09 108.57 198.31 109.41C198.5 110.24 197.97 111.08 197.14 111.3C196.98 111.3 193.91 112.14 192.55 115.55C192.32 116.16 191.71 116.54 191.07 116.54Z" fill="#4D1F1F" fill-opacity="1.000000" fill-rule="nonzero"/>
	<path id="Vector" d="M128.53 135.99C128.53 135.99 128.38 135.99 128.3 135.99C128.3 135.99 121.86 135.08 120.27 134.66C119.55 134.47 119.2 133.9 119.2 133.9C118.86 133.37 118.78 132.73 118.98 132.16L126.79 108.8C127.05 107.96 127.93 107.51 128.76 107.81C129.59 108.08 130.01 108.99 129.75 109.78L122.35 131.89L128.72 132.88C129.59 132.99 130.16 133.83 130.05 134.66C129.94 135.46 129.25 135.99 128.5 135.99L128.53 135.99Z" fill="#4D1F1F" fill-opacity="1.000000" fill-rule="nonzero"/>
	<g clip-path="url(#clip379_80290)">
		<path id="Vector" d="M252.59 248.24C266.02 238.92 274.97 209.18 257.75 194.2C244.21 182.45 221.8 187.68 199.01 196.25L205.35 238.44C167.36 246.93 155.4 260.99 149.21 259.85C139.89 258.14 136.09 232.17 136.09 232.17L136.96 209.83C131.47 209.52 126.88 210.51 122.78 211.31C119.44 211.95 116.11 212.82 113.03 214.3C97.79 221.51 99.19 237.47 101.47 245.55C79.4 250.6 52.51 256.93 36.2 261.37C65.55 297.13 110.08 320 159.98 320C209.89 320 258.32 295.08 287.56 256.59C276.68 253.9 264.35 250.98 252.59 248.28L252.59 248.24Z" fill="#FF5C4D" fill-opacity="1.000000" fill-rule="nonzero"/>
		<path id="Vector" d="M251.09 245.78C205.96 238.16 174.03 256.89 154.95 268.08L154.61 268.27L154.54 267.44C154.46 266.6 153.78 266 152.91 266.07C152.07 266.15 151.46 266.87 151.54 267.7L151.73 269.98L151.24 270.24C148.47 271.84 145.17 271.27 142.82 268.88L143.46 265.16C143.62 264.33 143.05 263.57 142.21 263.42C141.34 263.26 140.62 263.83 140.47 264.67L140.24 265.96C123.82 246.92 104.02 243.96 103.15 243.85C102.35 243.73 101.56 244.3 101.44 245.14C101.33 245.97 101.9 246.73 102.73 246.84C102.96 246.84 123.63 249.95 139.59 269.82L136.37 288.45C136.22 289.28 136.79 290.04 137.62 290.19C137.7 290.19 137.81 290.19 137.89 290.19C138.61 290.19 139.25 289.66 139.37 288.94L142.25 272.29C144 273.5 145.96 274.19 147.94 274.19C149.3 274.19 150.71 273.81 152 273.2L153.97 295.92C154.04 296.71 154.69 297.32 155.48 297.32C155.52 297.32 155.56 297.32 155.6 297.32C156.43 297.24 157.04 296.52 156.96 295.69L154.88 271.68L156.47 270.77C175.21 259.78 206.53 241.38 250.6 248.85C251.47 249.01 252.19 248.44 252.34 247.6C252.5 246.77 251.93 246.01 251.09 245.86L251.09 245.78Z" fill="#4D1F1F" fill-opacity="1.000000" fill-rule="nonzero"/>
		<path id="Vector" d="M207.75 238.03C208.05 238.03 208.39 237.95 208.66 237.72C208.77 237.65 221.25 228.66 237.97 228.66C238.12 228.66 238.35 228.66 238.39 228.66C239.23 228.66 239.91 227.98 239.91 227.14C239.91 226.31 239.23 225.63 238.39 225.63C220.53 225.4 207.37 234.84 206.84 235.26C206.16 235.75 206 236.7 206.5 237.38C206.8 237.8 207.25 237.99 207.71 237.99L207.75 238.03Z" fill="#4D1F1F" fill-opacity="1.000000" fill-rule="nonzero"/>
		<path id="Vector" d="M132.19 234.76C132.46 235.37 133.12 235.71 133.76 235.62C133.91 235.6 134.06 235.58 134.2 235.49C134.96 235.16 135.3 234.23 134.96 233.47C134.81 233.19 131.48 225.98 122.74 220.63C122.03 220.19 121.1 220.43 120.66 221.14C120.22 221.85 120.46 222.77 121.17 223.21C129.08 228.06 132.18 234.68 132.18 234.72L132.19 234.76Z" fill="#4D1F1F" fill-opacity="1.000000" fill-rule="nonzero"/>
	</g>
	<g clip-path="url(#clip379_80291)">
		<path id="Vector" d="M204.33 91C206.48 86.18 205.55 82.68 203.32 80.44C207.83 72.3 199.12 69.97 199.12 69.97C203.19 62.22 194.3 60.12 194.3 60.12C196.23 50 184.53 51.44 184.53 51.44C181.07 42.33 170.03 46.67 170.03 46.67C161.84 36.64 152.11 46.93 152.11 46.93C142.12 42.03 137.7 52.45 137.7 52.45C127.45 51.62 126.13 61.48 126.13 61.48C126.13 61.48 121.49 62.66 119.12 67.13C118.12 69.05 117.85 71.2 117.81 72.91C114.09 76.59 109.4 83.42 114.44 91.92C115.27 89.47 115.72 86.82 117.81 83.43C119.43 87.37 124.69 86.23 124.69 86.23C131.04 95.03 140.55 87.63 140.55 87.63C149.53 93.59 155.62 85.92 155.62 85.92C164.82 91.35 170.46 84.47 170.46 84.47C168.06 94.77 178.83 95.82 178.83 95.82C176.86 100.73 176.75 104.14 180.83 107.61C180.96 110.55 181.32 113.22 182.15 115.15C183.59 118.49 186.37 118.03 187.07 116.72C187.07 116.72 187.86 108.13 194.08 104.14C196.57 102.52 199.6 101.43 203.54 102.65C203.54 102.65 205.16 101.73 205.82 99.24C207.31 93.54 204.37 90.96 204.37 90.96L204.33 91Z" fill="#4D1F1F" fill-opacity="1.000000" fill-rule="nonzero"/>
	</g>
	<g clip-path="url(#clip379_80292)">
		<path id="Vector" d="M125.05 107.43C124.52 107.43 124.03 107.16 123.73 106.67C123.19 105.8 122.59 105.27 121.91 105.15C120.92 104.96 119.75 105.64 119.4 105.91C118.72 106.44 117.77 106.33 117.24 105.64C116.71 105 116.82 104.01 117.47 103.48C117.7 103.29 119.86 101.66 122.4 102.08C123.5 102.27 125.05 102.95 126.3 105.04C126.76 105.76 126.5 106.71 125.78 107.16C125.51 107.31 125.25 107.39 124.98 107.39L125.05 107.43Z" fill="#4D1F1F" fill-opacity="1.000000" fill-rule="nonzero"/>
		<path id="Vector" d="M150.66 110.8C150.16 110.8 149.67 110.57 149.41 110.12C149.37 110.08 148.34 108.64 146.86 108.41C145.99 108.26 145.16 108.53 144.21 109.21C143.53 109.7 142.58 109.55 142.09 108.87C141.59 108.19 141.75 107.2 142.42 106.71C144.06 105.53 145.77 105.11 147.43 105.42C150.16 105.91 151.79 108.15 151.94 108.41C152.44 109.1 152.25 110.08 151.53 110.54C151.27 110.73 150.96 110.8 150.66 110.8Z" fill="#4D1F1F" fill-opacity="1.000000" fill-rule="nonzero"/>
	</g>
	<g clip-path="url(#clip379_80294)">
		<path id="Vector" d="M132.19 144.64C132.19 144.64 138.23 144.64 146.38 141.6C146.49 141.56 146.64 141.53 146.68 141.68C147.21 143.2 147.93 147.18 144.07 149.11C139.25 151.54 133.86 149.49 132.61 144.71L132.19 144.64Z" fill="#FF5C4D" fill-opacity="1.000000" fill-rule="nonzero"/>
		<path id="Vector" d="M146.01 144.94C146.01 144.94 142.41 147.48 134.93 147.18L133.38 145.28L147.03 142.1L146.01 144.94Z" fill="#FFFFFF" fill-opacity="1.000000" fill-rule="nonzero"/>
		<path id="Vector" d="M140.23 151.62C138.53 151.62 136.75 151.2 135.27 150.4C133.44 149.42 132.08 147.9 131.36 146.04C130.83 146.04 130.49 146.04 130.45 146.04C129.62 146.04 128.93 145.36 128.93 144.49C128.93 143.61 129.62 142.97 130.49 142.97C130.49 142.97 138.72 142.97 145.85 140.2L145.85 140.2C146.67 139.88 147.61 140.21 148.05 140.98L148.12 141.11C148.65 142.63 148.88 145.13 147.82 147.29C146.91 149.11 145.28 150.44 142.96 151.2C142.13 151.46 141.18 151.62 140.23 151.62ZM134.7 145.81C135.19 146.57 135.87 147.22 136.75 147.67C138.6 148.66 140.73 148.7 142.02 148.28C143.5 147.78 144.52 147.03 145.05 145.97C145.43 145.17 145.51 144.33 145.47 143.61C141.56 144.94 137.58 145.55 134.7 145.85L134.7 145.81Z" fill="#4D1F1F" fill-opacity="1.000000" fill-rule="nonzero"/>
	</g>
	<g clip-path="url(#clip379_80296)">
		<path id="Vector" d="M181.39 108.63L161.12 108.46C160.71 106.36 159.88 104.34 158.52 102.6C156.25 99.71 153.03 97.89 149.35 97.44C142.87 96.66 136.85 100.58 134.78 106.56C132.47 105.78 130.41 105.74 128.96 105.82C128.8 103.26 128.01 100.87 126.61 98.8C124.62 95.91 121.78 94.1 118.52 93.68C111.83 92.9 105.68 98.35 104.77 105.86C103.86 113.38 108.53 120.15 115.17 120.93C115.62 120.97 116.04 121.01 116.45 121.01C122.44 121.01 127.72 116.02 128.75 109.21C129.87 109.08 131.85 109.04 134.08 109.87C133.46 117.17 138.7 123.78 146.05 124.65C146.63 124.73 147.17 124.73 147.75 124.73C150.8 124.73 153.73 123.7 156.17 121.8C159.06 119.53 160.87 116.31 161.33 112.63C161.33 112.34 161.33 112.06 161.33 111.77L181.35 111.93C182.26 111.93 183 111.19 183.04 110.28C183.04 109.37 182.3 108.59 181.39 108.59L181.39 108.63ZM125.53 108.38C124.83 114.08 120.37 118.21 115.54 117.63C110.71 117.05 107.37 111.97 108.07 106.27C108.73 100.95 112.69 96.99 117.15 96.99C117.44 96.99 117.77 96.99 118.06 97.03C120.33 97.32 122.4 98.6 123.8 100.7C125.25 102.85 125.91 105.57 125.53 108.38ZM157.98 112.3C157.28 118 152.08 122 146.46 121.34C143.7 121.01 141.27 119.61 139.57 117.46C137.88 115.27 137.09 112.55 137.42 109.83C138.04 104.58 142.54 100.7 147.7 100.7C148.12 100.7 148.53 100.7 148.94 100.78C151.71 101.11 154.14 102.52 155.84 104.67C157.53 106.85 158.31 109.54 157.98 112.3Z" fill="#4D1F1F" fill-opacity="1.000000" fill-rule="nonzero"/>
	</g>
</svg>
