<svg width="320.000000" height="320.000000" viewBox="0 0 320 320" fill="none" xmlns="http://www.w3.org/2000/svg" xmlns:xlink="http://www.w3.org/1999/xlink">
	<desc>
			Created with Pixso.
	</desc>
	<defs>
		<clipPath id="clip379_80228">
			<rect id="Background" rx="-1.896184" width="316.207581" height="316.207611" transform="translate(1.896184 1.896184)" fill="white" fill-opacity="0"/>
		</clipPath>
		<clipPath id="clip379_80230">
			<rect id="Outfit" rx="-1.896184" width="316.207611" height="316.207611" transform="translate(1.896184 1.896184)" fill="white" fill-opacity="0"/>
		</clipPath>
		<clipPath id="clip379_80231">
			<rect id="Hair" rx="-1.896184" width="316.207611" height="316.207611" transform="translate(1.896184 1.896184)" fill="white" fill-opacity="0"/>
		</clipPath>
		<clipPath id="clip379_80232">
			<rect id="Eye" rx="-1.896184" width="316.207611" height="316.207611" transform="translate(1.896184 1.896184)" fill="white" fill-opacity="0"/>
		</clipPath>
		<clipPath id="clip379_80233">
			<rect id="Cheek" rx="-1.896184" width="316.207611" height="316.207611" transform="translate(1.896184 1.896184)" fill="white" fill-opacity="0"/>
		</clipPath>
		<clipPath id="clip379_80234">
			<rect id="Mouth" rx="-1.896184" width="316.207611" height="316.207611" transform="translate(1.896184 1.896184)" fill="white" fill-opacity="0"/>
		</clipPath>
	</defs>
	<rect id="Background" rx="-1.896184" width="316.207581" height="316.207611" transform="translate(1.896184 1.896184)" fill="#FFFFFF" fill-opacity="0"/>
	<g clip-path="url(#clip379_80228)">
		<path id="Vector" d="M320 160C320 248.36 248.36 320 160 320C71.63 320 0 248.36 0 160C0 71.63 71.63 0 160 0C248.36 0 320 71.63 320 160Z" fill="#C4F5F5" fill-opacity="1.000000" fill-rule="evenodd"/>
	</g>
	<path id="Vector" d="M287.56 256.62C258.55 249.46 219.53 240.77 207.81 238.16C205.04 226.63 201.82 211.76 198.59 193.6C191.84 155.33 192.71 135.95 192.71 135.95C192.71 135.95 196.24 134.36 200.03 131.29C202.99 128.9 206.1 125.6 207.85 121.43C211.68 112.36 209.1 104.93 203.1 101.97C197.57 99.24 189.94 105.88 189.94 105.88C189.94 105.88 194.87 69.28 171.06 58.66C147.51 48.16 123.28 54.76 116.22 82.97C102.61 137.24 113.15 166.97 128.51 175.09C133.85 177.9 139.51 177.33 139.51 177.33L139.58 177.25L134.88 238.08C120.39 241.3 63.43 254.01 36.2 261.4C65.55 297.17 110.08 320 159.95 320C209.82 320 258.28 295.08 287.52 256.55L287.56 256.62Z" fill="#FFBB99" fill-opacity="1.000000" fill-rule="nonzero"/>
	<g opacity="0.200000">
		<path id="Vector" d="M139.59 177.33C139.59 177.33 153.69 177.82 169.39 159.35L169.39 173.91C169.39 173.91 157.11 190.79 137.96 198.37L139.59 177.33Z" fill="#4D1F1F" fill-opacity="1.000000" fill-rule="nonzero"/>
	</g>
	<path id="Vector" d="M119.97 132.69L120.05 132.69C120.05 132.69 120.01 132.69 119.97 132.69Z" fill="#4D1F1F" fill-opacity="1.000000" fill-rule="nonzero"/>
	<path id="Vector" d="M119.99 132.69L120.06 132.69C120.06 132.69 120.03 132.69 119.99 132.69Z" fill="#4D1F1F" fill-opacity="1.000000" fill-rule="nonzero"/>
	<path id="Vector" d="M191.32 116.57C191.13 116.57 190.94 116.57 190.75 116.46C189.96 116.15 189.54 115.21 189.88 114.41C191.85 109.44 196.48 108.3 196.67 108.27C197.5 108.08 198.34 108.61 198.57 109.44C198.75 110.28 198.23 111.11 197.39 111.34C197.24 111.34 194.17 112.17 192.8 115.59C192.57 116.19 191.97 116.57 191.32 116.57Z" fill="#4D1F1F" fill-opacity="1.000000" fill-rule="nonzero"/>
	<path id="Vector" d="M128.75 136.06C128.75 136.06 128.59 136.06 128.52 136.06C128.52 136.06 122.07 135.15 120.48 134.74C119.76 134.55 119.41 133.98 119.41 133.98C119.07 133.45 119 132.8 119.19 132.23L127 108.87C127.27 108.04 128.14 107.58 128.97 107.89C129.8 108.15 130.22 109.06 129.96 109.86L122.56 131.97L128.93 132.95C129.8 133.07 130.37 133.9 130.26 134.74C130.15 135.53 129.46 136.06 128.71 136.06L128.75 136.06Z" fill="#4D1F1F" fill-opacity="1.000000" fill-rule="nonzero"/>
	<g clip-path="url(#clip379_80230)">
		<path id="Vector" d="M252.59 248.25C266.02 238.92 274.97 209.18 257.75 194.2C244.21 182.45 221.8 187.68 199.01 196.25L205.35 238.44C167.36 246.93 155.4 260.99 149.21 259.85C139.89 258.14 136.09 232.17 136.09 232.17L136.96 209.83C131.47 209.52 126.88 210.51 122.78 211.31C119.44 211.95 116.11 212.82 113.03 214.3C97.79 221.51 99.19 237.47 101.47 245.55C79.4 250.6 52.51 256.93 36.2 261.37C65.55 297.13 110.08 320 159.98 320C209.89 320 258.32 295.08 287.56 256.59C276.68 253.9 264.35 250.98 252.59 248.28L252.59 248.25Z" fill="#19ECC9" fill-opacity="1.000000" fill-rule="nonzero"/>
		<path id="Vector" d="M251.09 245.78C205.96 238.16 174.03 256.89 154.95 268.08L154.61 268.27L154.54 267.43C154.46 266.6 153.78 265.99 152.91 266.07C152.07 266.14 151.46 266.86 151.54 267.7L151.73 269.97L151.24 270.24C148.47 271.83 145.17 271.26 142.82 268.87L143.46 265.16C143.62 264.32 143.05 263.57 142.21 263.41C141.34 263.26 140.62 263.83 140.47 264.66L140.24 265.95C123.82 246.92 104.02 243.96 103.15 243.85C102.35 243.73 101.56 244.3 101.44 245.13C101.33 245.97 101.9 246.73 102.73 246.84C102.96 246.84 123.63 249.95 139.59 269.82L136.37 288.44C136.22 289.28 136.79 290.04 137.62 290.19C137.7 290.19 137.81 290.19 137.89 290.19C138.61 290.19 139.25 289.66 139.37 288.94L142.25 272.29C144 273.5 145.96 274.18 147.94 274.18C149.3 274.18 150.71 273.8 152 273.2L153.97 295.91C154.04 296.71 154.69 297.32 155.48 297.32C155.52 297.32 155.56 297.32 155.6 297.32C156.43 297.24 157.04 296.52 156.96 295.69L154.88 271.68L156.47 270.77C175.21 259.77 206.53 241.38 250.6 248.85C251.47 249 252.19 248.43 252.34 247.6C252.5 246.77 251.93 246.01 251.09 245.85L251.09 245.78Z" fill="#4D1F1F" fill-opacity="1.000000" fill-rule="nonzero"/>
		<path id="Vector" d="M207.75 238.03C208.05 238.03 208.39 237.95 208.66 237.72C208.77 237.65 221.25 228.66 237.97 228.66C238.12 228.66 238.35 228.66 238.39 228.66C239.23 228.66 239.91 227.98 239.91 227.14C239.91 226.31 239.23 225.62 238.39 225.62C220.53 225.4 207.37 234.84 206.84 235.26C206.16 235.75 206 236.7 206.5 237.38C206.8 237.8 207.25 237.99 207.71 237.99L207.75 238.03Z" fill="#4D1F1F" fill-opacity="1.000000" fill-rule="nonzero"/>
		<path id="Vector" d="M132.19 234.76C132.46 235.37 133.12 235.7 133.76 235.62C133.91 235.6 134.06 235.58 134.2 235.48C134.96 235.15 135.3 234.23 134.96 233.47C134.81 233.18 131.48 225.97 122.74 220.63C122.03 220.19 121.1 220.43 120.66 221.14C120.22 221.84 120.46 222.77 121.17 223.21C129.08 228.05 132.18 234.68 132.18 234.72L132.19 234.76Z" fill="#4D1F1F" fill-opacity="1.000000" fill-rule="nonzero"/>
	</g>
	<g clip-path="url(#clip379_80231)">
		<path id="Vector" d="M206.65 71.16C206.65 71.16 206.6 70.86 206.56 70.73C206.56 70.59 206.47 70.46 206.43 70.33C206.3 69.81 206.17 69.28 205.99 68.8C205.82 68.27 205.64 67.79 205.42 67.31C205.42 67.22 205.38 67.18 205.34 67.09C200.56 56.44 188.34 59.77 188.34 59.77C188.34 59.77 185.32 50.75 172.61 47.73C158.42 44.35 151.59 49.83 151.59 49.83C151.59 49.83 139.58 43.96 128.19 54.43C123.99 58.28 120.22 63.72 119.48 68.71C116.89 72.39 113.73 79.22 115.05 89.43C116.28 85.79 117.07 81.37 120.31 74.62C120.83 75.63 121.53 76.55 122.5 77.38C128.46 82.47 138.53 82.64 143.44 79.75C143.44 79.75 145.32 86.5 155 87.28C163.59 87.99 166.39 83.6 166.39 83.6C166.39 83.6 169.15 91.93 180.41 91.31C179.62 98.5 175.01 107.96 179.17 116.48C181.1 120.45 184.31 120.84 185.1 119.26C185.1 119.26 185.16 108.56 192.65 103.75C195.67 101.82 199.64 101.48 202.23 101.65L203.98 95.91C207.35 84.83 207.83 76.81 206.65 71.21L206.65 71.16Z" fill="#4D1F1F" fill-opacity="1.000000" fill-rule="nonzero"/>
	</g>
	<g clip-path="url(#clip379_80232)">
		<path id="Vector" d="M125.05 107.43C124.52 107.43 124.03 107.16 123.73 106.67C123.19 105.79 122.59 105.26 121.91 105.15C120.92 104.96 119.75 105.64 119.4 105.91C118.72 106.44 117.77 106.33 117.24 105.64C116.71 105 116.82 104.01 117.47 103.48C117.7 103.29 119.86 101.66 122.4 102.08C123.5 102.27 125.05 102.95 126.3 105.04C126.76 105.76 126.5 106.7 125.78 107.16C125.51 107.31 125.25 107.39 124.98 107.39L125.05 107.43Z" fill="#4D1F1F" fill-opacity="1.000000" fill-rule="nonzero"/>
		<path id="Vector" d="M150.66 110.8C150.16 110.8 149.67 110.57 149.41 110.12C149.37 110.08 148.34 108.64 146.86 108.41C145.99 108.26 145.16 108.52 144.21 109.21C143.53 109.7 142.58 109.55 142.09 108.87C141.59 108.18 141.75 107.2 142.42 106.7C144.06 105.53 145.77 105.11 147.43 105.41C150.16 105.91 151.79 108.14 151.94 108.41C152.44 109.09 152.25 110.08 151.53 110.53C151.27 110.72 150.96 110.8 150.66 110.8Z" fill="#4D1F1F" fill-opacity="1.000000" fill-rule="nonzero"/>
	</g>
	<g clip-path="url(#clip379_80233)">
		<path id="Vector" d="M118.02 115.79C117.57 118.12 113.8 119.36 109.6 118.54C105.41 117.73 102.38 115.18 102.83 112.85C103.28 110.51 107.05 109.28 111.24 110.09C115.44 110.91 118.47 113.46 118.02 115.79Z" fill="#FF5B51" fill-opacity="1.000000" fill-rule="evenodd"/>
		<path id="Vector" d="M157.32 120.54C157.32 123.02 153.77 125.03 149.4 125.03C145.03 125.03 141.48 123.02 141.48 120.54C141.48 118.06 145.03 116.05 149.4 116.05C153.77 116.05 157.32 118.06 157.32 120.54Z" fill="#FF5B51" fill-opacity="1.000000" fill-rule="evenodd"/>
	</g>
	<g clip-path="url(#clip379_80234)">
		<path id="Vector" d="M132.25 147.68C131.45 147.68 130.81 147.08 130.73 146.28C130.66 145.45 131.27 144.69 132.14 144.61C132.17 144.61 136.87 144.12 138.81 140.44C139.23 139.68 140.14 139.42 140.9 139.8C141.66 140.17 141.96 141.12 141.54 141.88C138.85 147.04 132.7 147.64 132.44 147.68C132.4 147.68 132.36 147.68 132.29 147.68L132.25 147.68Z" fill="#4D1F1F" fill-opacity="1.000000" fill-rule="nonzero"/>
	</g>
</svg>
