<svg width="648" height="377" viewBox="0 0 648 377" fill="none" xmlns="http://www.w3.org/2000/svg">
<path d="M60.8125 229.711L70.612 288.562C71.5243 294.058 76.2738 298.087 81.8391 298.087H108.087C113.653 298.087 118.402 294.058 119.314 288.562L129.114 229.711H60.8125Z" fill="#FBFCF9" stroke="#FBFCF9" stroke-width="2.14667" stroke-linecap="round" stroke-linejoin="round"/>
<path d="M134.394 209.979L142.015 201.749C144.516 199.047 143.341 194.653 139.826 193.562L129.114 190.247L131.598 179.305C132.414 175.711 129.205 172.493 125.609 173.309L114.677 175.797L111.366 165.074C110.277 161.55 105.887 160.373 103.187 162.882L94.9656 170.511L86.7438 162.882C84.0444 160.379 79.6545 161.555 78.565 165.074L75.2538 175.797L64.3219 173.309C60.7316 172.493 57.517 175.705 58.3327 179.305L60.8175 190.247L50.1056 193.562C46.5851 194.653 45.4098 199.047 47.916 201.749L55.5367 209.979L47.916 218.209C45.4152 220.911 46.5904 225.306 50.1056 226.396L60.8175 229.711H129.108L139.82 226.396C143.341 225.306 144.516 220.911 142.01 218.209L134.389 209.979H134.394Z" fill="#FBFCF9" stroke="#FBFCF9" stroke-width="2.14667" stroke-linecap="round" stroke-linejoin="round"/>
<path d="M55.5469 209.98L64.8634 215.368C66.3339 216.216 68.1693 215.153 68.1693 213.455V206.504C68.1693 204.806 66.3339 203.743 64.8634 204.591L55.5469 209.98Z" fill="#FBFCF9" stroke="#FBFCF9" stroke-width="2.14667" stroke-linecap="round" stroke-linejoin="round"/>
<path d="M134.388 209.98L125.072 204.591C123.601 203.743 121.766 204.806 121.766 206.504V213.455C121.766 215.153 123.601 216.216 125.072 215.368L134.388 209.98Z" fill="#FBFCF9" stroke="#FBFCF9" stroke-width="2.14667" stroke-linecap="round" stroke-linejoin="round"/>
<path d="M114.685 175.797L105.368 181.185C103.898 182.034 103.898 184.156 105.368 185.005L111.379 188.48C112.85 189.329 114.685 188.265 114.685 186.568V175.797Z" fill="#FBFCF9" stroke="#FBFCF9" stroke-width="2.14667" stroke-linecap="round" stroke-linejoin="round"/>
<path d="M75.2578 175.797V186.568C75.2578 188.265 77.0932 189.329 78.5637 188.48L84.5743 185.005C86.0448 184.156 86.0448 182.034 84.5743 181.185L75.2578 175.797Z" fill="#FBFCF9" stroke="#FBFCF9" stroke-width="2.14667" stroke-linecap="round" stroke-linejoin="round"/>
<path d="M180.871 298.086H2V322.497H180.871V298.086Z" fill="#FBFCF9" stroke="#FBFCF9" stroke-width="2.14667" stroke-linecap="round" stroke-linejoin="round"/>
<path d="M645.292 214.537H589.162C577.65 214.537 567.25 221.429 562.752 232.039L542.016 280.984C537.518 291.594 527.123 298.486 515.606 298.486H411.611L395.312 322.494H550.758V322.279L645.286 322.494V214.531L645.292 214.537Z" fill="#FBFCF9" stroke="#FBFCF9" stroke-width="2.14667" stroke-linecap="round" stroke-linejoin="round"/>
<path d="M2 322.492H646" stroke="#FBFCF9" stroke-width="2.14667" stroke-linecap="round" stroke-linejoin="round"/>
<path d="M332.909 357.433C451.466 357.433 547.575 353.825 547.575 349.375C547.575 344.924 451.466 341.316 332.909 341.316C214.352 341.316 118.242 344.924 118.242 349.375C118.242 353.825 214.352 357.433 332.909 357.433Z" fill="#4D1F1F" stroke="#4D1F1F" stroke-width="2.14667" stroke-linecap="round" stroke-linejoin="round"/>
<path d="M183.883 328.59L131.359 221.67L542.494 113.363L452.216 341.257L183.883 328.59Z" fill="#FFBB99" stroke="#FFBB99" stroke-width="2.14667" stroke-linecap="round" stroke-linejoin="round"/>
<path d="M144.668 107.692C143.143 104.426 144.56 100.526 147.829 99.0002C151.097 97.4745 154.988 98.8928 156.512 102.164L179.873 152.307C181.397 155.573 179.98 159.474 176.712 160.999C173.444 162.525 169.553 161.107 168.029 157.835L144.668 107.692Z" fill="#00BFE6" stroke="#00BFE6" stroke-width="2.14667" stroke-linecap="round" stroke-linejoin="round"/>
<path d="M148.68 100.83C150.939 99.7767 153.633 100.754 154.69 103.021L178.051 153.164C179.103 155.426 178.127 158.123 175.862 159.181" stroke="#C4F5F5" stroke-width="2.14667" stroke-linecap="round" stroke-linejoin="round"/>
<path d="M176.704 160.999C173.441 162.525 169.545 161.106 168.021 157.835L144.66 107.692C143.136 104.426 144.552 100.526 147.821 99" stroke="#4D1F1F" stroke-width="2.14667" stroke-linecap="round" stroke-linejoin="round"/>
<path d="M122.023 94.8595C116.989 84.0509 121.674 71.1579 132.472 66.1189C143.27 61.0799 156.15 65.7697 161.184 76.5783L171.799 99.3719C176.833 110.181 172.148 123.074 161.35 128.112C150.552 133.151 137.672 128.462 132.638 117.653L122.023 94.8595ZM149.35 82.1061C147.359 77.8353 142.266 75.9766 138 77.9697C133.733 79.9627 131.876 85.0608 133.867 89.3316L144.488 112.125C146.479 116.396 151.572 118.255 155.838 116.262C160.105 114.269 161.962 109.171 159.971 104.9L149.35 82.1061Z" fill="#00BFE6" stroke="#00BFE6" stroke-width="2.14667" stroke-linecap="round" stroke-linejoin="round"/>
<path d="M133.325 67.939C143.12 63.3673 154.803 67.622 159.37 77.426L169.985 100.22C174.552 110.024 170.302 121.719 160.507 126.29M137.146 76.1421C131.871 78.6025 129.585 84.8986 132.043 90.1793L142.663 112.973C145.121 118.254 151.411 120.542 156.686 118.082" stroke="#C4F5F5" stroke-width="2.14667" stroke-linecap="round" stroke-linejoin="round"/>
<path d="M161.358 128.111C150.56 133.15 137.68 128.46 132.646 117.651L122.031 94.8577C116.997 84.0491 121.682 71.1562 132.48 66.1172" stroke="#4D1F1F" stroke-width="2.14667" stroke-linecap="round" stroke-linejoin="round"/>
<path d="M155.839 116.264C160.105 114.271 161.962 109.173 159.971 104.902L149.351 82.1087C147.359 77.8379 142.266 75.9792 138 77.9723" stroke="#4D1F1F" stroke-width="2.14667" stroke-linecap="round" stroke-linejoin="round"/>
<path d="M313.955 231.41C319.451 220.832 332.524 216.701 343.096 222.202C353.663 227.703 357.79 240.789 352.295 251.372L340.703 273.682C335.207 284.26 322.134 288.391 311.562 282.89C300.995 277.389 296.868 264.303 302.363 253.72L313.955 231.41ZM340.703 245.334C342.876 241.149 341.245 235.976 337.064 233.8C332.884 231.624 327.716 233.258 325.542 237.442L313.95 259.753C311.777 263.937 313.408 269.105 317.589 271.286C321.769 273.462 326.938 271.829 329.111 267.65L340.703 245.339V245.334Z" fill="#00BFE6" stroke="#4D1F1F" stroke-width="2.14667" stroke-linecap="round" stroke-linejoin="round"/>
<path d="M337.225 233.887C341.341 236.138 342.763 241.381 340.6 245.544L329.116 267.645C329.572 266.882 330.452 266.484 331.321 266.635L337.799 267.779C340.509 268.257 341.98 271.233 340.708 273.678L352.3 251.367C357.795 240.79 353.674 227.703 343.101 222.197C338.765 219.941 334.01 219.307 329.529 220.07L326.781 235.676C329.357 232.802 333.667 231.937 337.225 233.876V233.887Z" fill="#4D1F1F" stroke="#4D1F1F" stroke-width="2.14667" stroke-linecap="round" stroke-linejoin="round"/>
<path d="M355.935 51.8445C344.204 49.7763 336.342 38.5325 338.408 26.7892C340.474 15.0458 351.706 7.17581 363.438 9.24406L388.178 13.6115C399.91 15.6797 407.772 26.9235 405.706 38.6668C403.64 50.4101 392.407 58.2802 380.676 56.212L355.935 51.8445ZM361.168 22.1263C356.531 21.3097 352.093 24.4201 351.272 29.0616C350.451 33.703 353.563 38.1458 358.2 38.9677L382.94 43.3352C387.577 44.1517 392.015 41.0413 392.837 36.3998C393.652 31.7583 390.545 27.3157 385.908 26.4938L361.168 22.1263Z" fill="#00BFE6" stroke="#00BFE6" stroke-width="2.14667" stroke-linecap="round" stroke-linejoin="round"/>
<path d="M340.383 27.1384C342.261 16.4855 352.442 9.34607 363.084 11.2263L387.824 15.5938C398.466 17.474 405.599 27.6648 403.72 38.3177M349.286 28.7124C348.277 34.4498 352.114 39.94 357.846 40.9499L382.586 45.3174C388.318 46.3274 393.797 42.4864 394.812 36.749" stroke="#C4F5F5" stroke-width="2.14667" stroke-linecap="round" stroke-linejoin="round"/>
<path d="M405.706 38.6667C403.64 50.41 392.407 58.2801 380.676 56.2119L355.935 51.8444C344.204 49.7761 336.342 38.5324 338.408 26.7891" stroke="#4D1F1F" stroke-width="2.14667" stroke-linecap="round" stroke-linejoin="round"/>
<path d="M392.846 36.3998C393.662 31.7584 390.555 27.3157 385.918 26.4938L361.177 22.1263C356.541 21.3097 352.102 24.4201 351.281 29.0616" stroke="#4D1F1F" stroke-width="2.14667" stroke-linecap="round" stroke-linejoin="round"/>
<path d="M378.566 37.7157C377.042 34.4495 378.459 30.5493 381.727 29.0236C384.99 27.498 388.886 28.9162 390.41 32.1878L413.771 82.3307C415.296 85.5969 413.879 89.497 410.61 91.0227C407.342 92.5484 403.451 91.1301 401.927 87.8585L378.566 37.7157Z" fill="#00BFE6" stroke="#00BFE6" stroke-width="2.14667" stroke-linecap="round" stroke-linejoin="round"/>
<path d="M382.578 30.8531C384.837 29.8002 387.532 30.7779 388.589 33.0449L411.95 83.1877C413.002 85.4494 412.025 88.1462 409.76 89.2045" stroke="#C4F5F5" stroke-width="2.14667" stroke-linecap="round" stroke-linejoin="round"/>
<path d="M410.603 91.0225C407.34 92.5481 403.443 91.1299 401.919 87.8583L378.558 37.7155C377.034 34.4493 378.451 30.5491 381.719 29.0234" stroke="#4D1F1F" stroke-width="2.14667" stroke-linecap="round" stroke-linejoin="round"/>
<path d="M467.099 239.595C455.368 237.526 447.506 226.283 449.572 214.539C451.638 202.796 462.87 194.926 474.602 196.994L499.342 201.362C511.074 203.43 518.936 214.673 516.87 226.417C514.804 238.16 503.571 246.03 491.84 243.962L467.099 239.595ZM472.337 209.871C467.7 209.054 463.262 212.165 462.441 216.806C461.62 221.448 464.733 225.89 469.369 226.712L494.11 231.08C498.747 231.896 503.185 228.786 504.006 224.144C504.827 219.503 501.714 215.06 497.078 214.238L472.337 209.871Z" fill="#00BFE6" stroke="#00BFE6" stroke-width="2.14667" stroke-linecap="round" stroke-linejoin="round"/>
<path d="M516.878 226.417C514.811 238.16 503.579 246.03 491.848 243.962L467.107 239.594C455.376 237.526 447.513 226.282 449.58 214.539" stroke="#4D1F1F" stroke-width="2.14667" stroke-linecap="round" stroke-linejoin="round"/>
<path d="M504.01 224.146C504.826 219.504 501.719 215.062 497.082 214.24L472.341 209.872C467.705 209.056 463.266 212.166 462.445 216.808" stroke="#4D1F1F" stroke-width="2.14667" stroke-linecap="round" stroke-linejoin="round"/>
<path d="M485.681 234.267C486.991 231.72 489.803 230.324 492.626 230.818L469.372 226.714C464.735 225.897 461.622 221.449 462.444 216.808L449.58 214.535C447.513 226.278 455.376 237.522 467.107 239.59L490.361 243.695C486.025 242.932 483.674 238.178 485.686 234.261L485.681 234.267Z" fill="#4D1F1F" stroke="#4D1F1F" stroke-width="2.14667" stroke-linecap="round" stroke-linejoin="round"/>
<path d="M451.547 214.888C453.425 204.236 463.606 197.096 474.248 198.976L498.988 203.344C509.63 205.224 516.763 215.415 514.884 226.068" stroke="#C4F5F5" stroke-width="2.14667" stroke-linecap="round" stroke-linejoin="round"/>
<path d="M451.348 280.118L134.651 224.222C131.919 223.738 130.631 221.536 131.779 219.307L219.117 49.4633C220.265 47.2285 223.41 45.8103 226.147 46.2938L542.845 102.19C545.576 102.674 546.864 104.876 545.716 107.106L458.379 276.949C457.23 279.184 454.085 280.602 451.348 280.118Z" fill="#C4F5F5" stroke="#C4F5F5" stroke-width="2.14667" stroke-linecap="round" stroke-linejoin="round"/>
<path d="M447.708 271.814L131.01 215.917C128.278 215.434 126.99 213.231 128.139 211.002L215.476 41.1586C216.624 38.9238 219.769 37.5056 222.506 37.9891L539.204 93.8855C541.936 94.3689 543.224 96.5715 542.075 98.8009L454.738 268.644C453.59 270.879 450.445 272.297 447.708 271.814Z" fill="#C4F5F5" stroke="#C4F5F5" stroke-width="2.14667" stroke-linecap="round" stroke-linejoin="round"/>
<path d="M444.067 263.509L127.369 207.613C124.638 207.129 123.35 204.927 124.498 202.697L211.835 32.8539C212.984 30.6191 216.129 29.2009 218.866 29.6844L535.563 85.5808C538.295 86.0643 539.583 88.2668 538.434 90.4962L451.097 260.339C449.949 262.574 446.804 263.992 444.067 263.509Z" fill="#C4F5F5" stroke="#C4F5F5" stroke-width="2.14667" stroke-linecap="round" stroke-linejoin="round"/>
<path d="M440.426 255.208L123.729 199.312C120.997 198.828 119.709 196.626 120.858 194.396L208.195 24.5531C209.343 22.3184 212.488 20.9001 215.225 21.3836L531.923 77.2799C534.654 77.7634 535.942 79.966 534.794 82.1954L447.457 252.039C446.308 254.273 443.163 255.692 440.426 255.208Z" fill="#C4F5F5" stroke="#C4F5F5" stroke-width="2.14667" stroke-linecap="round" stroke-linejoin="round"/>
<path d="M440.426 255.208L123.729 199.312C120.997 198.828 119.709 196.626 120.858 194.396L208.195 24.5531C209.343 22.3184 212.488 20.9001 215.225 21.3836L531.923 77.2799C534.654 77.7634 535.942 79.966 534.794 82.1954L447.457 252.039C446.308 254.273 443.163 255.692 440.426 255.208Z" fill="#C4F5F5" stroke="#C4F5F5" stroke-width="2.14667" stroke-linecap="round" stroke-linejoin="round"/>
<path d="M436.786 246.903L120.088 191.007C117.356 190.524 116.068 188.321 117.217 186.092L204.554 16.2485C205.702 14.0137 208.847 12.5954 211.584 13.0789L528.282 68.9753C531.014 69.4588 532.302 71.6614 531.153 73.8908L443.816 243.734C442.668 245.969 439.523 247.387 436.786 246.903Z" fill="#FBFCF9" stroke="#C4F5F5" stroke-width="2.14667" stroke-linecap="round" stroke-linejoin="round"/>
<path d="M378.844 181.133L342.029 134.589C334.794 125.446 319.145 122.733 304.527 128.089L230.188 155.32" fill="#FBFCF9"/>
<path d="M378.844 181.133L342.029 134.589C334.794 125.446 319.145 122.733 304.527 128.089L230.188 155.32" stroke="#00BFE6" stroke-width="2.14667" stroke-linecap="round" stroke-linejoin="round"/>
<path d="M210.938 19.5742L301.457 134.472C308.643 143.642 324.271 146.398 338.9 141.08L522.687 74.6003" fill="#FBFCF9"/>
<path d="M210.938 19.5742L301.457 134.472C308.643 143.642 324.271 146.398 338.9 141.08L522.687 74.6003" stroke="#00BFE6" stroke-width="2.14667" stroke-linecap="round" stroke-linejoin="round"/>
<path d="M192.007 124.244L216.747 128.611C226.241 130.287 235.396 125.453 239.646 117.33L275.775 123.707C279.322 124.335 282.719 121.955 283.342 118.404C283.97 114.853 281.592 111.453 278.045 110.83L241.917 104.453C240.698 95.3636 233.743 87.6869 224.255 86.0108L199.515 81.6433C190.021 79.9672 180.865 84.8021 176.615 92.9247L166.091 91.066L159.828 103.239L174.345 105.802C175.563 114.891 182.518 122.568 192.007 124.244ZM194.915 96.1533L191.486 95.5462C193.166 94.5685 195.184 94.1549 197.245 94.5202L221.985 98.8877C224.046 99.253 225.801 100.333 227.046 101.826L223.616 101.219C220.069 100.591 216.672 102.97 216.049 106.521C215.427 110.072 217.799 113.473 221.346 114.096L224.775 114.703C223.096 115.681 221.078 116.094 219.017 115.729L194.277 111.362C192.216 110.996 190.461 109.917 189.216 108.423L192.645 109.03C196.193 109.659 199.59 107.279 200.212 103.728C200.84 100.177 198.463 96.7764 194.915 96.1533Z" fill="#4D1F1F" stroke="#4D1F1F" stroke-width="2.14667" stroke-linecap="round" stroke-linejoin="round"/>
<path d="M479.441 146.375C478.223 137.285 471.268 129.609 461.78 127.933L437.039 123.565C427.546 121.889 418.39 126.724 414.14 134.847L378.011 128.47C374.464 127.841 371.067 130.221 370.444 133.772C369.816 137.323 372.194 140.724 375.741 141.347L411.87 147.723C413.088 156.813 420.043 164.49 429.531 166.166L454.272 170.533C463.765 172.209 472.921 167.374 477.171 159.252L486.423 160.885L492.686 148.712L479.447 146.375H479.441ZM458.871 156.023L462.3 156.63C460.62 157.608 458.603 158.022 456.542 157.656L431.801 153.289C429.741 152.924 427.986 151.844 426.741 150.35L430.17 150.957C433.717 151.586 437.115 149.206 437.737 145.655C438.365 142.104 435.987 138.704 432.44 138.081L429.011 137.473C430.691 136.496 432.708 136.082 434.769 136.447L459.51 140.815C461.57 141.18 463.325 142.26 464.57 143.753L461.141 143.146C457.594 142.518 454.197 144.898 453.574 148.449C452.946 152 455.324 155.4 458.871 156.023Z" fill="#4D1F1F" stroke="#4D1F1F" stroke-width="2.14667" stroke-linecap="round" stroke-linejoin="round"/>
<path d="M338.839 86.8564C342.043 88.5003 345.988 87.2217 347.63 84.0146L369.639 40.9682L356.179 38.5938L336.006 78.057C334.364 81.2641 335.641 85.2126 338.845 86.8564H338.839Z" fill="#4D1F1F" stroke="#4D1F1F" stroke-width="2.14667" stroke-linecap="round" stroke-linejoin="round"/>
<path d="M291.93 177.346C288.726 175.702 284.781 176.981 283.139 180.188L264.57 216.509L278.03 218.883L294.768 186.146C296.411 182.939 295.133 178.99 291.93 177.346Z" fill="#4D1F1F" stroke="#4D1F1F" stroke-width="2.14667" stroke-linecap="round" stroke-linejoin="round"/>
<path d="M261.805 146.414C264.128 152.022 268.111 157.078 273.681 161.198L292.91 175.439L322.368 169.788" stroke="#4D1F1F" stroke-width="2.14667" stroke-linecap="round" stroke-linejoin="round"/>
<path d="M542.081 98.8008L454.744 268.644C453.595 270.879 450.45 272.297 447.713 271.814L131.016 215.917" stroke="#00BFE6" stroke-width="2.14667" stroke-linecap="round" stroke-linejoin="round"/>
<path d="M538.432 90.4961L451.095 260.339C449.947 262.574 446.802 263.992 444.065 263.509L127.367 207.612" stroke="#00BFE6" stroke-width="2.14667" stroke-linecap="round" stroke-linejoin="round"/>
<path d="M534.792 82.1914L447.454 252.035C446.306 254.269 443.161 255.688 440.424 255.204L123.727 199.308" stroke="#00BFE6" stroke-width="2.14667" stroke-linecap="round" stroke-linejoin="round"/>
<path d="M545.714 107.102L458.376 276.945C457.228 279.18 454.083 280.598 451.346 280.114L134.648 224.218" stroke="#00BFE6" stroke-width="2.14667" stroke-linecap="round" stroke-linejoin="round"/>
<path d="M278.034 218.881L293.248 252.081L253.374 244.807L243.065 222.674C240.934 218.102 244.83 213.02 249.794 213.896L278.034 218.881Z" fill="#4D1F1F" stroke="#4D1F1F" stroke-width="2.14667" stroke-linecap="round" stroke-linejoin="round"/>
<path d="M236.906 240.383C231.872 229.574 236.557 216.681 247.355 211.642C258.153 206.603 271.033 211.293 276.066 222.102L286.682 244.895C291.716 255.704 287.031 268.597 276.233 273.636C265.435 278.675 252.555 273.985 247.521 263.177L236.906 240.383ZM264.228 227.63C262.237 223.359 257.144 221.5 252.877 223.493C248.611 225.486 246.754 230.584 248.745 234.855L259.365 257.649C261.356 261.92 266.449 263.778 270.716 261.785C274.982 259.792 276.839 254.694 274.848 250.423L264.228 227.63Z" fill="#00BFE6" stroke="#00BFE6" stroke-width="2.14667" stroke-linecap="round" stroke-linejoin="round"/>
<path d="M248.203 213.462C257.997 208.891 269.68 213.145 274.247 222.949L284.862 245.743C289.429 255.547 285.179 267.242 275.385 271.814M252.029 221.671C246.754 224.131 244.468 230.427 246.926 235.708L257.546 258.502C260.004 263.783 266.294 266.071 271.569 263.611" stroke="#C4F5F5" stroke-width="2.14667" stroke-linecap="round" stroke-linejoin="round"/>
<path d="M276.241 273.634C265.443 278.673 252.563 273.983 247.529 263.175L236.914 240.381C231.88 229.573 236.565 216.68 247.363 211.641" stroke="#4D1F1F" stroke-width="2.14667" stroke-linecap="round" stroke-linejoin="round"/>
<path d="M270.722 261.788C274.988 259.795 276.845 254.697 274.854 250.426L264.233 227.632C262.242 223.361 257.149 221.503 252.883 223.496" stroke="#4D1F1F" stroke-width="2.14667" stroke-linecap="round" stroke-linejoin="round"/>
<path d="M340.206 82.7054C338.563 85.9126 334.619 87.1911 331.415 85.5472C328.211 83.9034 326.934 79.9549 328.576 76.7478L353.757 27.4967C355.399 24.2896 359.343 23.011 362.547 24.6549C365.751 26.2987 367.028 30.2472 365.386 33.4543L340.206 82.7054Z" fill="#00BFE6" stroke="#00BFE6" stroke-width="2.14667" stroke-linecap="round" stroke-linejoin="round"/>
<path d="M332.337 83.7525C330.115 82.6136 329.235 79.8846 330.372 77.6606L355.553 28.4095C356.691 26.1854 359.417 25.3044 361.639 26.4433" stroke="#C4F5F5" stroke-width="2.14667" stroke-linecap="round" stroke-linejoin="round"/>
<path d="M362.546 24.6484C365.75 26.2923 367.027 30.2408 365.385 33.4479L340.205 82.699C338.563 85.9061 334.618 87.1847 331.414 85.5408" stroke="#4D1F1F" stroke-width="2.14667" stroke-linecap="round" stroke-linejoin="round"/>
<path d="M265.976 260.548C262.428 259.919 260.051 256.524 260.679 252.973C261.307 249.422 264.698 247.042 268.246 247.671L322.68 257.276C326.227 257.905 328.605 261.3 327.977 264.851C327.349 268.402 323.957 270.782 320.41 270.153L265.976 260.548Z" fill="#00BFE6" stroke="#00BFE6" stroke-width="2.14667" stroke-linecap="round" stroke-linejoin="round"/>
<path d="M262.648 253.321C263.083 250.861 265.434 249.217 267.886 249.646L322.32 259.252C324.778 259.687 326.421 262.04 325.991 264.495" stroke="#C4F5F5" stroke-width="2.14667" stroke-linecap="round" stroke-linejoin="round"/>
<path d="M327.969 264.85C327.341 268.401 323.949 270.781 320.402 270.153L265.968 260.547C262.42 259.919 260.043 256.524 260.671 252.973" stroke="#4D1F1F" stroke-width="2.14667" stroke-linecap="round" stroke-linejoin="round"/>
<path d="M486.422 160.885L501.223 193.622L521.498 154.089L510.62 129.211L490.034 153.863L486.422 160.885Z" fill="#4D1F1F" stroke="#4D1F1F" stroke-width="2.14667" stroke-linecap="round" stroke-linejoin="round"/>
<path d="M188.967 116.048C177.235 113.979 169.373 102.736 171.439 90.9924C173.505 79.249 184.738 71.3789 196.469 73.4472L221.21 77.8147C232.941 79.8829 240.803 91.1267 238.737 102.87C236.671 114.613 225.438 122.483 213.707 120.415L188.967 116.048ZM194.204 86.3295C189.568 85.5129 185.129 88.6233 184.308 93.2647C183.487 97.9062 186.6 102.349 191.237 103.171L215.977 107.538C220.614 108.355 225.052 105.244 225.873 100.603C226.694 95.9615 223.582 91.5189 218.945 90.6969L194.204 86.3295Z" fill="#00BFE6" stroke="#00BFE6" stroke-width="2.14667" stroke-linecap="round" stroke-linejoin="round"/>
<path d="M173.414 91.3415C175.292 80.6887 185.473 73.5492 196.115 75.4294L220.855 79.7969C231.497 81.6771 238.63 91.8679 236.751 102.521M182.323 92.9155C181.314 98.6529 185.151 104.138 190.883 105.153L215.623 109.521C221.355 110.53 226.839 106.689 227.848 100.952" stroke="#C4F5F5" stroke-width="2.14667" stroke-linecap="round" stroke-linejoin="round"/>
<path d="M238.745 102.87C236.679 114.613 225.446 122.483 213.715 120.415L188.974 116.048C177.243 113.979 169.381 102.736 171.447 90.9922" stroke="#4D1F1F" stroke-width="2.14667" stroke-linecap="round" stroke-linejoin="round"/>
<path d="M225.877 100.603C226.693 95.9615 223.586 91.5188 218.949 90.6969L194.209 86.3294C189.572 85.5128 185.134 88.6232 184.312 93.2647" stroke="#4D1F1F" stroke-width="2.14667" stroke-linecap="round" stroke-linejoin="round"/>
<path d="M272.746 115.512C276.293 116.141 279.69 113.761 280.313 110.21C280.94 106.659 278.563 103.259 275.016 102.636L220.582 93.0304C217.034 92.4018 213.637 94.7817 213.015 98.3326C212.387 101.884 214.764 105.284 218.312 105.907L272.746 115.512Z" fill="#00BFE6" stroke="#00BFE6" stroke-width="2.14667" stroke-linecap="round" stroke-linejoin="round"/>
<path d="M278.327 109.863C278.762 107.403 277.114 105.055 274.656 104.62L220.222 95.015C217.764 94.5798 215.419 96.2291 214.984 98.6895" stroke="#C4F5F5" stroke-width="2.14667" stroke-linecap="round" stroke-linejoin="round"/>
<path d="M213.015 98.332C212.387 101.883 214.764 105.283 218.312 105.907L272.746 115.512C276.293 116.14 279.69 113.761 280.313 110.21" stroke="#4D1F1F" stroke-width="2.14667" stroke-linecap="round" stroke-linejoin="round"/>
<path d="M189.609 100.838C193.156 101.466 196.553 99.0862 197.176 95.5353C197.798 91.9843 195.426 88.5838 191.879 87.9607L142.393 79.2257C138.845 78.5972 135.448 80.977 134.826 84.5279C134.203 88.0789 136.575 91.4794 140.123 92.1026L189.609 100.838Z" fill="#00BFE6" stroke="#00BFE6" stroke-width="2.14667" stroke-linecap="round" stroke-linejoin="round"/>
<path d="M195.199 95.1884C195.634 92.728 193.987 90.3804 191.529 89.9453L142.043 81.2103C139.585 80.7751 137.239 82.4243 136.805 84.8848" stroke="#C4F5F5" stroke-width="2.14667" stroke-linecap="round" stroke-linejoin="round"/>
<path d="M134.827 84.5273C134.199 88.0783 136.577 91.4789 140.124 92.102L189.61 100.837C193.157 101.466 196.555 99.0856 197.177 95.5347" stroke="#4D1F1F" stroke-width="2.14667" stroke-linecap="round" stroke-linejoin="round"/>
<path d="M290.815 194.346L271.586 180.104C256.924 169.242 253.237 151.965 261.958 135.006L289.054 82.3164L397.917 101.532L370.821 154.222C362.1 171.181 342.732 184.391 320.272 188.699L290.815 194.351V194.346Z" fill="#4D1F1F" stroke="#4D1F1F" stroke-width="2.14667" stroke-linecap="round" stroke-linejoin="round"/>
<path d="M387.003 76.625L258.321 126.709C256.228 130.781 254.854 134.874 254.172 138.893L248.859 140.574L256.072 157.018C258.396 162.626 264.181 167.998 269.752 172.124L288.981 186.366L316.635 180.397C339.095 176.089 358.463 162.879 367.184 145.925L394.28 93.2301L387.003 76.625Z" fill="#FF5C4D" stroke="#FF5C4D" stroke-width="2.14667" stroke-linecap="round" stroke-linejoin="round"/>
<path d="M279.893 169.435L260.664 155.194C246.002 144.332 242.315 127.055 251.036 110.096L278.133 57.4062L386.995 76.6221L359.899 129.311C351.178 146.271 331.81 159.481 309.351 163.789L279.893 169.441V169.435Z" fill="#FFE28D" stroke="#FF5C4D" stroke-width="2.14667" stroke-linecap="round" stroke-linejoin="round"/>
<path d="M341.322 107.304C339.519 110.812 334.571 113.047 330.278 112.284C325.984 111.527 323.966 108.067 325.769 104.559C327.573 101.051 332.521 98.8162 336.814 99.579C341.107 100.337 343.125 103.796 341.322 107.304Z" fill="#FF5C4D" stroke="#FF5C4D" stroke-width="2.14667" stroke-linecap="round" stroke-linejoin="round"/>
<path d="M339.549 102.906C337.745 106.414 332.797 108.648 328.504 107.886C324.211 107.128 322.193 103.668 323.996 100.161C325.799 96.6526 330.747 94.4178 335.041 95.1806C339.334 95.9434 341.352 99.3977 339.549 102.906Z" fill="#FFE28D" stroke="#FF5C4D" stroke-width="2.14667" stroke-linecap="round" stroke-linejoin="round"/>
<path d="M325.619 103.886C325.211 103.064 325.27 102.097 325.791 101.087C326.977 98.7821 330.213 97.0469 333.326 97.0469C333.798 97.0469 334.26 97.0845 334.7 97.165C336.256 97.439 337.437 98.1804 337.941 99.1903" stroke="#FBFCF9" stroke-width="2.14667" stroke-linecap="round" stroke-linejoin="round"/>
<path d="M279.893 169.435L260.664 155.194C246.002 144.332 242.315 127.055 251.036 110.096L278.133 57.4062L386.995 76.6221L359.899 129.311C351.178 146.271 331.81 159.481 309.351 163.789L279.893 169.441V169.435ZM287.143 72.8563L266.584 112.841C260.353 124.955 262.993 137.294 273.464 145.052L287.197 155.226L308.24 151.192C324.286 148.114 338.121 138.68 344.347 126.566L364.906 86.582L287.143 72.8563Z" fill="#FFE28D" stroke="#FF5C4D" stroke-width="2.14667" stroke-linecap="round" stroke-linejoin="round"/>
<path d="M248.855 133.324C247.642 126.276 248.919 118.615 252.826 111.014L279.247 59.6406L383.966 78.1259M262.551 133.84C264.236 138.734 267.499 143.139 272.27 146.673L286.712 157.369L308.618 153.168C325.255 149.977 339.632 140.136 346.137 127.49L367.947 85.0773" stroke="#FBFCF9" stroke-width="2.14667" stroke-linecap="round" stroke-linejoin="round"/>
<path d="M268.36 117.243L288.92 77.2591L362.98 90.3293L364.907 86.585L287.144 72.8594L266.584 112.844C262.323 121.127 262.216 129.519 265.919 136.475C264.212 130.512 264.969 123.846 268.36 117.238V117.243Z" fill="#FF5C4D" stroke="#FF5C4D" stroke-width="2.14667" stroke-linecap="round" stroke-linejoin="round"/>
<path d="M256.078 157.014C258.402 162.623 264.187 167.995 269.758 172.121L288.987 186.362L316.641 180.394C339.1 176.085 358.469 162.875 367.19 145.921L394.286 93.2266" stroke="#4D1F1F" stroke-width="2.14667" stroke-linecap="round" stroke-linejoin="round"/>
<path d="M425.896 157.86C414.165 155.792 406.303 144.548 408.369 132.805C410.435 121.061 421.667 113.191 433.399 115.26L458.139 119.627C469.871 121.695 477.733 132.939 475.667 144.683C473.601 156.426 462.368 164.296 450.637 162.228L425.896 157.86ZM431.129 128.142C426.492 127.325 422.054 130.436 421.233 135.077C420.417 139.719 423.524 144.161 428.161 144.983L452.901 149.351C457.538 150.167 461.976 147.057 462.797 142.415C463.613 137.774 460.506 133.331 455.869 132.509L431.129 128.142Z" fill="#00BFE6" stroke="#00BFE6" stroke-width="2.14667" stroke-linecap="round" stroke-linejoin="round"/>
<path d="M410.344 133.154C412.222 122.501 422.403 115.362 433.045 117.242L457.785 121.609C468.427 123.49 475.559 133.68 473.681 144.333M419.252 134.728C418.244 140.465 422.081 145.956 427.812 146.966L452.553 151.333C458.284 152.343 463.764 148.502 464.778 142.765" stroke="#C4F5F5" stroke-width="2.14667" stroke-linecap="round" stroke-linejoin="round"/>
<path d="M475.667 144.69C473.6 156.433 462.368 164.304 450.637 162.235L425.896 157.868C414.165 155.8 406.303 144.556 408.369 132.812" stroke="#4D1F1F" stroke-width="2.14667" stroke-linecap="round" stroke-linejoin="round"/>
<path d="M462.807 142.415C463.623 137.774 460.515 133.331 455.879 132.509L431.138 128.142C426.501 127.325 422.063 130.436 421.242 135.077" stroke="#4D1F1F" stroke-width="2.14667" stroke-linecap="round" stroke-linejoin="round"/>
<path d="M490.992 159.977C485.958 149.168 490.643 136.275 501.441 131.236C512.238 126.197 525.118 130.887 530.152 141.695L540.768 164.489C545.802 175.298 541.117 188.191 530.319 193.23C519.521 198.269 506.641 193.579 501.607 182.77L490.992 159.977ZM518.314 147.223C516.322 142.953 511.23 141.094 506.963 143.087C502.697 145.08 500.84 150.178 502.831 154.449L513.451 177.242C515.442 181.513 520.535 183.372 524.802 181.379C529.068 179.386 530.925 174.288 528.934 170.017L518.314 147.223Z" fill="#00BFE6" stroke="#00BFE6" stroke-width="2.14667" stroke-linecap="round" stroke-linejoin="round"/>
<path d="M502.289 133.056C512.083 128.485 523.766 132.739 528.333 142.543L538.949 165.337C543.516 175.141 539.265 186.836 529.471 191.408M506.115 141.265C500.84 143.725 498.554 150.021 501.011 155.302L511.632 178.096C514.09 183.376 520.38 185.665 525.655 183.204" stroke="#C4F5F5" stroke-width="2.14667" stroke-linecap="round" stroke-linejoin="round"/>
<path d="M530.319 193.228C519.521 198.267 506.641 193.577 501.607 182.769L490.992 159.975C485.958 149.166 490.643 136.273 501.441 131.234" stroke="#4D1F1F" stroke-width="2.14667" stroke-linecap="round" stroke-linejoin="round"/>
<path d="M524.808 181.382C529.074 179.389 530.931 174.29 528.94 170.02L518.319 147.226C516.328 142.955 511.235 141.096 506.969 143.089" stroke="#4D1F1F" stroke-width="2.14667" stroke-linecap="round" stroke-linejoin="round"/>
<path d="M372.093 133.048C368.545 132.419 366.168 129.024 366.796 125.473C367.424 121.922 370.815 119.542 374.363 120.171L428.797 129.776C432.344 130.405 434.722 133.8 434.094 137.351C433.466 140.902 430.074 143.282 426.527 142.653L372.093 133.048Z" fill="#00BFE6" stroke="#00BFE6" stroke-width="2.14667" stroke-linecap="round" stroke-linejoin="round"/>
<path d="M368.773 125.821C369.208 123.36 371.559 121.717 374.011 122.146L428.445 131.752C430.903 132.187 432.546 134.54 432.116 136.995" stroke="#C4F5F5" stroke-width="2.14667" stroke-linecap="round" stroke-linejoin="round"/>
<path d="M434.094 137.35C433.466 140.901 430.074 143.281 426.527 142.653L372.093 133.047C368.545 132.419 366.168 129.024 366.796 125.473" stroke="#4D1F1F" stroke-width="2.14667" stroke-linecap="round" stroke-linejoin="round"/>
<path d="M455.233 147.72C451.686 147.091 449.309 143.696 449.937 140.145C450.564 136.594 453.956 134.214 457.504 134.843L511.938 144.448C515.485 145.077 517.862 148.472 517.234 152.023C516.607 155.574 513.215 157.953 509.668 157.325L455.233 147.72Z" fill="#00BFE6" stroke="#00BFE6" stroke-width="2.14667" stroke-linecap="round" stroke-linejoin="round"/>
<path d="M451.906 140.493C452.341 138.032 454.692 136.389 457.144 136.818L511.578 146.424C514.036 146.859 515.678 149.212 515.249 151.667" stroke="#C4F5F5" stroke-width="2.14667" stroke-linecap="round" stroke-linejoin="round"/>
<path d="M517.234 152.022C516.607 155.573 513.215 157.953 509.668 157.324L455.233 147.719C451.686 147.091 449.309 143.695 449.937 140.145" stroke="#4D1F1F" stroke-width="2.14667" stroke-linecap="round" stroke-linejoin="round"/>
<path d="M501.687 225.589C500.034 228.79 496.084 230.053 492.886 228.398C489.687 226.744 488.426 222.79 490.079 219.588L515.447 170.428C517.1 167.226 521.05 165.964 524.248 167.619C527.447 169.273 528.708 173.227 527.055 176.429L501.687 225.589Z" fill="#00BFE6" stroke="#00BFE6" stroke-width="2.14667" stroke-linecap="round" stroke-linejoin="round"/>
<path d="M517.234 171.358C518.136 169.618 520.111 168.634 522.043 168.978C522.488 169.059 522.923 169.204 523.331 169.413C525.547 170.558 526.417 173.297 525.274 175.511" stroke="#C4F5F5" stroke-width="2.14667" stroke-linecap="round" stroke-linejoin="round"/>
<path d="M513.238 174.719L490.087 219.592C488.434 222.793 489.695 226.747 492.893 228.402C496.092 230.056 500.042 228.794 501.695 225.592L524.793 181.386" stroke="#4D1F1F" stroke-width="2.14667" stroke-linecap="round" stroke-linejoin="round"/>
<path d="M262.166 234.088C260.524 237.295 256.58 238.574 253.376 236.93C250.172 235.286 248.895 231.338 250.537 228.131L275.717 178.879C277.36 175.672 281.304 174.394 284.508 176.038C287.712 177.682 288.989 181.63 287.347 184.837L262.166 234.088Z" fill="#00BFE6" stroke="#00BFE6" stroke-width="2.14667" stroke-linecap="round" stroke-linejoin="round"/>
<path d="M254.298 235.143C252.076 234.004 251.196 231.275 252.333 229.051L277.514 179.8C278.651 177.576 281.378 176.695 283.6 177.834" stroke="#C4F5F5" stroke-width="2.14667" stroke-linecap="round" stroke-linejoin="round"/>
<path d="M284.507 176.039C287.711 177.683 288.988 181.631 287.346 184.839L262.166 234.09C260.523 237.297 256.579 238.575 253.375 236.931" stroke="#4D1F1F" stroke-width="2.14667" stroke-linecap="round" stroke-linejoin="round"/>
<path d="M180.891 322.492H459.651" stroke="#FF5C4D" stroke-width="2.14667" stroke-linecap="round" stroke-linejoin="round"/>
<path d="M448.072 361.698L368.055 374.344C362.532 375.22 353.575 375.22 348.053 374.344L188.025 349.053C182.502 348.177 182.502 346.764 188.025 345.888L268.042 333.243C273.564 332.367 282.521 332.367 288.043 333.243L448.072 358.422C453.594 359.297 453.594 360.823 448.072 361.693V361.698Z" fill="#4D1F1F" stroke="#4D1F1F" stroke-width="2.14667" stroke-linecap="round" stroke-linejoin="round"/>
<path d="M314.837 334.769L288.047 330.552C282.525 329.676 273.568 329.676 268.045 330.552L258.273 332.099L183.891 328.586V333.829C183.896 339.115 187.739 343.612 192.955 344.439L348.068 368.973C353.59 369.849 362.547 369.849 368.069 368.973L443.176 357.053C448.392 356.225 452.229 351.723 452.229 346.443V341.259L314.848 334.775L314.837 334.769Z" fill="#00BFE6" stroke="#4D1F1F" stroke-width="2.14667" stroke-linecap="round" stroke-linejoin="round"/>
<path d="M448.072 342.894L368.055 355.54C362.532 356.415 353.575 356.415 348.053 355.54L188.025 330.248C182.502 329.372 182.502 327.959 188.025 327.084L268.042 314.438C273.564 313.562 282.521 313.562 288.043 314.438L448.072 339.617C453.594 340.493 453.594 342.018 448.072 342.888V342.894Z" fill="#FF5C4D" stroke="#4D1F1F" stroke-width="2.14667" stroke-linecap="round" stroke-linejoin="round"/>
<path d="M240.031 323.663L258.38 320.762" stroke="#4D1F1F" stroke-width="2.14667" stroke-linecap="round" stroke-linejoin="round"/>
<path d="M301.945 316.625V348.25L348.05 355.535C353.573 356.411 362.53 356.411 368.052 355.535L387.812 352.414V330.136L301.945 316.625Z" fill="#FFBB99" stroke="#FFBB99" stroke-width="2.14667" stroke-linecap="round" stroke-linejoin="round"/>
<path d="M448.072 342.894L368.055 355.54C362.532 356.415 353.575 356.415 348.053 355.54L188.025 330.248C182.502 329.372 182.502 327.959 188.025 327.084L268.042 314.438C273.564 313.562 282.521 313.562 288.043 314.438L448.072 339.617C453.594 340.493 453.594 342.018 448.072 342.888V342.894Z" stroke="#4D1F1F" stroke-width="2.14667" stroke-linecap="round" stroke-linejoin="round"/>
<path d="M415.59 355.008L400.547 357.388" stroke="#4D1F1F" stroke-width="4.29333" stroke-linecap="round" stroke-linejoin="round"/>
<path d="M205.352 340.74C205.352 344.001 207.718 346.779 210.938 347.283L240.632 351.979C244.652 352.613 248.285 349.508 248.285 345.436C248.285 342.169 245.913 339.397 242.698 338.887L213.004 334.192C208.985 333.558 205.352 336.663 205.352 340.735V340.74Z" fill="#00BFE6" stroke="#4D1F1F" stroke-width="2.14667" stroke-linecap="round" stroke-linejoin="round"/>
<path d="M207.492 340.738C207.492 338.267 209.494 336.258 211.952 336.258C212.188 336.258 212.424 336.279 212.666 336.317L242.359 341.012C244.549 341.356 246.132 343.22 246.132 345.433" stroke="#FBFCF9" stroke-width="2.14667" stroke-linecap="round" stroke-linejoin="round"/>
<path d="M425.086 35.1504L437.284 27.0117" stroke="#4D1F1F" stroke-width="2.14667" stroke-linecap="round" stroke-linejoin="round"/>
<path d="M322.821 13.6305L316.43 2" stroke="#4D1F1F" stroke-width="2.14667" stroke-linecap="round" stroke-linejoin="round"/>
<path d="M548.266 138.683L559.89 134.031" stroke="#4D1F1F" stroke-width="2.14667" stroke-linecap="round" stroke-linejoin="round"/>
<path d="M551.758 154.969L563.377 157.295" stroke="#4D1F1F" stroke-width="2.14667" stroke-linecap="round" stroke-linejoin="round"/>
<path d="M124.102 135.773L106.086 138.68" stroke="#4D1F1F" stroke-width="2.14667" stroke-linecap="round" stroke-linejoin="round"/>
<path d="M188.031 327.084L268.048 314.438C273.571 313.562 282.528 313.562 288.05 314.438L448.078 339.617" stroke="#FF5C4D" stroke-width="2.14667" stroke-linecap="round" stroke-linejoin="round"/>
</svg>
