<svg width="430" height="369" viewBox="0 0 430 369" fill="none" xmlns="http://www.w3.org/2000/svg">
<path d="M427.019 343.074H235.797V355.411H427.019V343.074Z" fill="#4D1F1F" stroke="#4D1F1F" stroke-width="1.23369" stroke-linecap="round" stroke-linejoin="round"/>
<path d="M0.96875 352.324H427.017" stroke="#4D1F1F" stroke-width="1.23369" stroke-linecap="round" stroke-linejoin="round"/>
<path d="M427.019 343.07H248.134L235.797 355.407V272.133H427.019" fill="#FBFCF9"/>
<path d="M427.019 343.07H248.134L235.797 355.407V272.133H427.019" stroke="#C4F5F5" stroke-width="1.23369" stroke-linecap="round" stroke-linejoin="round"/>
<path d="M340.664 281.383V343.067" stroke="#C4F5F5" stroke-width="1.23369" stroke-linecap="round" stroke-linejoin="round"/>
<path d="M427.019 281.385H235.797V272.133H427.019" fill="#FBFCF9"/>
<path d="M427.019 281.385H235.797V272.133H427.019" stroke="#C4F5F5" stroke-width="1.23369" stroke-linecap="round" stroke-linejoin="round"/>
<path d="M427.019 343.07H248.134L235.797 355.407" stroke="#00BFE6" stroke-width="1.23369" stroke-linecap="round" stroke-linejoin="round"/>
<path d="M229.031 210.986V208.664" stroke="#00BFE6" stroke-width="1.23369" stroke-linecap="round" stroke-linejoin="round"/>
<path d="M233.516 213.003L235.789 210.332" stroke="#00BFE6" stroke-width="1.23369" stroke-linecap="round" stroke-linejoin="round"/>
<path d="M264.691 242.183L257.119 240.394L241.846 233.898C238.635 232.532 236.039 230.2 234.327 227.329C232.874 224.892 232.063 222.681 232.063 219.723V219.106C232.063 219.106 232.239 215.344 228.686 215.344C227.872 215.344 227.067 215.569 226.363 215.976C225.33 216.574 224.682 217.663 224.645 218.851C223.387 220.192 223.063 221.966 223.236 225.108L224.041 223.051C224.174 222.715 224.383 222.444 224.639 222.24C224.639 222.826 224.639 223.418 224.639 223.995C224.639 226.472 224.278 228.93 223.569 231.323C223.43 231.786 223.282 232.248 223.119 232.708L223.057 232.884C221.678 236.742 222.237 240.823 224.232 244.061C225.478 246.084 227.289 247.777 229.534 248.882H229.525L234.564 251.451C235.779 252.071 236.544 253.32 236.544 254.683C236.544 255.075 236.711 255.426 236.976 255.676V256.407C236.976 257.024 236.566 257.564 235.974 257.733L232.495 258.711C232.257 258.779 232.091 258.995 232.091 259.245C232.091 259.55 232.337 259.8 232.646 259.8H242.882C243.24 259.8 243.527 259.51 243.527 259.155C243.527 258.856 243.32 258.594 243.027 258.526L242.562 258.418C242.124 258.316 241.812 257.925 241.812 257.474V255.84C242.01 255.716 242.176 255.544 242.29 255.334L242.904 254.196C243.484 253.119 244.277 252.172 245.233 251.414L249.217 248.249L249.276 248.203C251.765 248.018 254.137 247.154 256.145 245.736H259.889C261.801 245.736 263.652 245.042 265.092 243.783C265.656 243.29 265.428 242.368 264.697 242.195L264.691 242.183Z" fill="#00BFE6" stroke="#00BFE6" stroke-width="1.23369" stroke-linecap="round" stroke-linejoin="round"/>
<path d="M234.397 231.121C232.846 231.67 231.51 232.811 230.724 234.261C228.932 237.564 230.36 241.703 233.145 243.967C234.696 245.228 236.553 245.975 238.419 246.555C241.851 247.622 245.417 248.18 248.985 248.214" stroke="#C4F5F5" stroke-width="1.23369" stroke-linecap="round" stroke-linejoin="round"/>
<path d="M1.25785 161.659L426.987 162.387" stroke="url(#paint0_linear_379_76133)" stroke-width="1.23369" stroke-linecap="round" stroke-linejoin="round"/>
<path d="M3.25785 228.659L428.987 229.387" stroke="url(#paint1_linear_379_76133)" stroke-width="1.23369" stroke-linecap="round" stroke-linejoin="round"/>
<path d="M249.001 259.848L249.992 0.546875" stroke="url(#paint2_linear_379_76133)" stroke-width="1.23369" stroke-miterlimit="10"/>
<path d="M350.786 259.852L350.787 0.549961" stroke="url(#paint3_linear_379_76133)" stroke-width="1.23369" stroke-miterlimit="10"/>
<path d="M161.416 259.848L162.406 0.546875" stroke="url(#paint4_linear_379_76133)" stroke-width="1.23369" stroke-miterlimit="10"/>
<path d="M334.661 259.793H75.5859" stroke="#C4F5F5" stroke-width="1.23369" stroke-linecap="round" stroke-linejoin="round"/>
<path d="M334.482 272.126L328.314 265.958H266.629L260.461 272.126V259.789H334.482V272.126Z" fill="#FBFCF9" stroke="#C4F5F5" stroke-width="1.23369" stroke-linecap="round" stroke-linejoin="round"/>
<path d="M260.461 259.789H334.482" stroke="#00BFE6" stroke-width="1.23369" stroke-linecap="round" stroke-linejoin="round"/>
<path d="M359.158 272.126L352.99 265.958H340.653L334.484 272.126V259.789H359.158V272.126Z" fill="#FBFCF9" stroke="#C4F5F5" stroke-width="1.23369" stroke-linecap="round" stroke-linejoin="round"/>
<path d="M334.482 244.367H260.461V259.788H334.482H359.156V244.367H334.482Z" fill="#C4F5F5" stroke="#C4F5F5" stroke-width="1.23369" stroke-linecap="round" stroke-linejoin="round"/>
<path d="M260.461 259.789H359.156" stroke="#00BFE6" stroke-width="1.23369" stroke-linecap="round" stroke-linejoin="round"/>
<path d="M346.818 255.168H272.797V259.794H346.818V255.168Z" fill="#4D1F1F" stroke="#4D1F1F" stroke-width="1.23369" stroke-linecap="round" stroke-linejoin="round"/>
<path d="M310.761 249H346.818V255.168H272.797" stroke="#00BFE6" stroke-width="1.23369" stroke-linecap="round" stroke-linejoin="round"/>
<path d="M310.758 255.168L316.926 252.084V249H310.758V255.168Z" fill="#00BFE6" stroke="#00BFE6" stroke-width="1.23369" stroke-linecap="round" stroke-linejoin="round"/>
<path d="M334.146 259.788L334.482 244.367H260.461V259.788" stroke="#FBFCF9" stroke-width="1.23369" stroke-linecap="round" stroke-linejoin="round"/>
<path d="M359.166 259.788V244.367H334.492V259.788" stroke="#FBFCF9" stroke-width="1.23369" stroke-linecap="round" stroke-linejoin="round"/>
<path d="M260.461 272.133L266.629 265.965H328.314L334.482 272.133H260.461Z" fill="#00BFE6" stroke="#00BFE6" stroke-width="1.23369" stroke-linecap="round" stroke-linejoin="round"/>
<path d="M334.484 272.133L340.653 265.965H352.99L359.158 272.133H334.484Z" fill="#00BFE6" stroke="#00BFE6" stroke-width="1.23369" stroke-linecap="round" stroke-linejoin="round"/>
<path d="M319.068 295.562H256.141L245.047 358.49H307.971L319.068 295.562Z" fill="#4D1F1F" stroke="#4D1F1F" stroke-width="1.23369" stroke-linecap="round" stroke-linejoin="round"/>
<path d="M293.795 355.551H260.242L267.271 315.688H300.824L293.795 355.551Z" fill="#FF5C4D" stroke="#FF5C4D" stroke-width="0.616845" stroke-linecap="round" stroke-linejoin="round"/>
<path d="M306.082 351.355C305.675 353.671 303.464 355.549 301.147 355.549C298.831 355.549 297.283 353.671 297.69 351.355C298.097 349.038 300.308 347.16 302.625 347.16C304.941 347.16 306.489 349.038 306.082 351.355Z" fill="#4D1F1F" stroke="#4D1F1F" stroke-width="1.23369" stroke-linecap="round" stroke-linejoin="round"/>
<path d="M299.516 350.516L300.33 353.032L301.613 350.516L302.649 351.774L304.253 352.193" fill="#4D1F1F"/>
<path d="M299.516 350.516L300.33 353.032L301.613 350.516L302.649 351.774L304.253 352.193" stroke="#4D1F1F" stroke-width="1.23369" stroke-linecap="round" stroke-linejoin="round"/>
<path d="M286.426 324.457L291.068 328.285L284.998 332.569L282 330.644L286.426 324.457Z" fill="#FFE28D" stroke="#FFE28D" stroke-width="0.616845" stroke-linecap="round" stroke-linejoin="round"/>
<path d="M274.893 327.809L276.67 329.033L271.208 335.615L270.242 333.965L272.463 328.509L274.893 327.809Z" fill="#FFE28D" stroke="#FFE28D" stroke-width="0.308422" stroke-linecap="round" stroke-linejoin="round"/>
<path d="M272.957 338.793L274.748 339.946L274.267 342.676L272.383 342.047L272.957 338.793Z" fill="#FFE28D" stroke="#FFE28D" stroke-width="0.308422" stroke-linecap="round" stroke-linejoin="round"/>
<path d="M277.124 345.504L279.289 346.028L280.43 343.406L282.493 348.964L276.328 350.016L277.124 345.504Z" fill="#FFE28D" stroke="#FFE28D" stroke-width="0.308422" stroke-linecap="round" stroke-linejoin="round"/>
<path d="M267.997 346.715L266.094 349.179L267.398 350.021L269.807 347.162L267.997 346.715Z" fill="#FFE28D" stroke="#FFE28D" stroke-width="0.308422" stroke-linecap="round" stroke-linejoin="round"/>
<path d="M285.062 342.15L286.888 344.876L288.276 344.148L285.47 339.84L285.062 342.15Z" fill="#FFE28D" stroke="#FFE28D" stroke-width="0.308422" stroke-linecap="round" stroke-linejoin="round"/>
<path d="M269.695 328.724L276.033 327.885L276.255 326.626L272.763 326.207L269.516 327.361L269.695 328.724Z" fill="#4D1F1F" stroke="#4D1F1F" stroke-width="1.23369" stroke-linecap="round" stroke-linejoin="round"/>
<path d="M288.751 328.934L291.971 330.297L289.245 335.648L287.086 334.809L288.751 328.934Z" fill="#4D1F1F" stroke="#4D1F1F" stroke-width="1.23369" stroke-linecap="round" stroke-linejoin="round"/>
<path d="M281.209 335.438L282.183 335.857L280.808 338.898L279.852 338.374L281.209 335.438Z" fill="#4D1F1F" stroke="#4D1F1F" stroke-width="1.23369" stroke-linecap="round" stroke-linejoin="round"/>
<path d="M288.772 342.574L286.039 346.769L286.502 347.713L290.092 343.413L288.772 342.574Z" fill="#4D1F1F" stroke="#4D1F1F" stroke-width="1.23369" stroke-linecap="round" stroke-linejoin="round"/>
<path d="M267.797 312.758H284.581" stroke="#FFE28D" stroke-width="0.616845" stroke-linecap="round" stroke-linejoin="round"/>
<path d="M268.242 310.234H276.634" stroke="#FFE28D" stroke-width="0.616845" stroke-linecap="round" stroke-linejoin="round"/>
<path d="M283.52 306.879H268.836L268.688 307.718H283.372L283.52 306.879Z" fill="#FF5C4D" stroke="#FF5C4D" stroke-width="0.616845" stroke-linecap="round" stroke-linejoin="round"/>
<path d="M279.919 303.523H269.429L269.281 304.362H279.771L279.919 303.523Z" fill="#FF5C4D" stroke="#FF5C4D" stroke-width="0.616845" stroke-linecap="round" stroke-linejoin="round"/>
<path d="M279.12 298.504H270.308L269.867 301.008H278.679L279.12 298.504Z" fill="#FFE28D" stroke="#FFE28D" stroke-width="0.616845" stroke-linecap="round" stroke-linejoin="round"/>
<path d="M301.351 298.504H282.05L281.609 301.008H300.91L301.351 298.504Z" fill="#FFE28D" stroke="#FFE28D" stroke-width="0.616845" stroke-linecap="round" stroke-linejoin="round"/>
<path d="M319.074 295.562V355.554L307.977 358.49L319.074 295.562Z" fill="#4D1F1F" stroke="#4D1F1F" stroke-width="1.23369" stroke-linecap="round" stroke-linejoin="round"/>
<path d="M307.977 358.49L319.074 295.562" stroke="#00BFE6" stroke-width="1.23369" stroke-linecap="round" stroke-linejoin="round"/>
<path d="M349.917 235.121L355.225 266.978C355.722 269.951 358.294 272.132 361.31 272.132H375.532C378.548 272.132 381.12 269.951 381.617 266.978L386.925 235.121H349.914H349.917Z" fill="#FBFCF9" stroke="#C4F5F5" stroke-width="1.23369" stroke-linecap="round" stroke-linejoin="round"/>
<path d="M389.79 224.445L393.917 219.989C395.274 218.524 394.636 216.146 392.73 215.557L386.928 213.762L388.276 207.84C388.72 205.894 386.977 204.154 385.031 204.595L379.11 205.943L377.315 200.142C376.725 198.236 374.348 197.597 372.883 198.954L368.426 203.081L363.969 198.954C362.504 197.597 360.126 198.236 359.537 200.142L357.742 205.943L351.82 204.595C349.874 204.151 348.135 205.894 348.576 207.84L349.924 213.762L344.122 215.557C342.216 216.146 341.578 218.524 342.935 219.989L347.061 224.445L342.935 228.902C341.578 230.367 342.216 232.745 344.122 233.334L349.924 235.129H386.928L392.73 233.334C394.636 232.745 395.274 230.367 393.917 228.902L389.79 224.445Z" fill="#C4F5F5" stroke="#C4F5F5" stroke-width="1.23369" stroke-linecap="round" stroke-linejoin="round"/>
<path d="M347.07 224.448L352.119 227.362C352.915 227.822 353.911 227.248 353.911 226.329V222.566C353.911 221.647 352.915 221.073 352.119 221.533L347.07 224.448Z" fill="#FBFCF9" stroke="#FBFCF9" stroke-width="1.23369" stroke-linecap="round" stroke-linejoin="round"/>
<path d="M389.786 224.448L384.737 221.533C383.942 221.073 382.945 221.647 382.945 222.566V226.329C382.945 227.248 383.942 227.822 384.737 227.362L389.786 224.448Z" fill="#FBFCF9" stroke="#FBFCF9" stroke-width="1.23369" stroke-linecap="round" stroke-linejoin="round"/>
<path d="M379.099 205.945L374.05 208.86C373.254 209.319 373.254 210.47 374.05 210.929L377.307 212.811C378.103 213.27 379.099 212.697 379.099 211.778V205.945Z" fill="#FBFCF9" stroke="#FBFCF9" stroke-width="1.23369" stroke-linecap="round" stroke-linejoin="round"/>
<path d="M357.742 205.945V211.778C357.742 212.697 358.738 213.27 359.534 212.811L362.791 210.929C363.587 210.47 363.587 209.319 362.791 208.86L357.742 205.945Z" fill="#FBFCF9" stroke="#FBFCF9" stroke-width="1.23369" stroke-linecap="round" stroke-linejoin="round"/>
<path d="M349.914 235.121H386.915" stroke="#00BFE6" stroke-width="1.23369" stroke-linecap="round" stroke-linejoin="round"/>
<path d="M414.673 223.513L402.523 221.371L393.954 269.969L406.104 272.111L414.673 223.513Z" fill="#C4F5F5" stroke="#C4F5F5" stroke-width="1.23369" stroke-linecap="round" stroke-linejoin="round"/>
<path d="M393.953 269.965L406.102 272.106L414.673 223.508" stroke="#00BFE6" stroke-width="1.23369" stroke-linecap="round" stroke-linejoin="round"/>
<path d="M414.673 223.508V272.137L406.102 272.106L414.673 223.508Z" fill="#00BFE6" stroke="#00BFE6" stroke-width="1.23369" stroke-linecap="round" stroke-linejoin="round"/>
<path d="M427.017 272.141H414.68V216.625H427.017" fill="#FBFCF9"/>
<path d="M427.017 272.141H414.68V216.625H427.017" stroke="#C4F5F5" stroke-width="1.23369" stroke-linecap="round" stroke-linejoin="round"/>
<path d="M185.274 249.081L188.667 221.801H169.125L172.518 249.081H185.274Z" fill="url(#paint5_linear_379_76133)" stroke="#FBFCF9" stroke-width="1.23369" stroke-linecap="round" stroke-linejoin="round"/>
<path d="M169.125 221.801L172.209 247.847H185.274" stroke="#00BFE6" stroke-width="1.23369" stroke-linecap="round" stroke-linejoin="round"/>
<path d="M131.712 367.451C184.517 367.451 227.323 366.761 227.323 365.909C227.323 365.058 184.517 364.367 131.712 364.367C78.908 364.367 36.1016 365.058 36.1016 365.909C36.1016 366.761 78.908 367.451 131.712 367.451Z" fill="#4D1F1F" stroke="#4D1F1F" stroke-width="1.23369" stroke-linecap="round" stroke-linejoin="round"/>
<path d="M65.5186 330.202L62.7859 361.649C62.6194 363.577 64.1368 365.233 66.0737 365.233C67.693 365.233 69.0716 364.058 69.3307 362.46L74.543 330.199H65.5217L65.5186 330.202Z" fill="#FF5C4D" stroke="#FF5C4D" stroke-width="1.23369" stroke-linecap="round" stroke-linejoin="round"/>
<path d="M75.0444 327.121H65.7918L65.5234 330.205H74.5448L75.0444 327.121Z" fill="#4D1F1F" stroke="#4D1F1F" stroke-width="1.23369" stroke-linecap="round" stroke-linejoin="round"/>
<path d="M117.94 330.202L115.208 361.649C115.041 363.577 116.559 365.233 118.496 365.233C120.115 365.233 121.493 364.058 121.753 362.46L126.965 330.199H117.944L117.94 330.202Z" fill="#FF5C4D" stroke="#FF5C4D" stroke-width="1.23369" stroke-linecap="round" stroke-linejoin="round"/>
<path d="M127.466 327.121H118.214L117.945 330.205H126.967L127.466 327.121Z" fill="#4D1F1F" stroke="#4D1F1F" stroke-width="1.23369" stroke-linecap="round" stroke-linejoin="round"/>
<path d="M180.867 327.125H190.12L190.388 330.209H181.367L180.867 327.125Z" fill="#4D1F1F" stroke="#4D1F1F" stroke-width="1.23369" stroke-linecap="round" stroke-linejoin="round"/>
<path d="M190.392 330.206L193.124 361.653C193.291 363.581 191.773 365.237 189.836 365.237C188.217 365.237 186.839 364.062 186.58 362.464L181.367 330.203H190.389L190.392 330.206Z" fill="#4D1F1F" stroke="#4D1F1F" stroke-width="1.23369" stroke-linecap="round" stroke-linejoin="round"/>
<path d="M128.445 327.125H137.698L137.966 330.209H128.945L128.445 327.125Z" fill="#4D1F1F" stroke="#4D1F1F" stroke-width="1.23369" stroke-linecap="round" stroke-linejoin="round"/>
<path d="M137.97 330.206L140.702 361.653C140.869 363.581 139.352 365.237 137.415 365.237C135.795 365.237 134.417 364.062 134.158 362.464L128.945 330.203H137.967L137.97 330.206Z" fill="#4D1F1F" stroke="#4D1F1F" stroke-width="1.23369" stroke-linecap="round" stroke-linejoin="round"/>
<path d="M136.836 331.441L139.47 361.762" stroke="#FF5C4D" stroke-width="1.23369" stroke-linecap="round" stroke-linejoin="round"/>
<path d="M170.454 237.426L171.904 249.079H130.711L130.77 228.371L157.362 236.806C159.403 237.454 161.64 236.933 163.185 235.449L165.029 233.676C166.139 232.609 167.617 232.014 169.156 232.014H177.233C177.81 232.014 178.276 232.482 178.276 233.056C178.276 234.546 177.249 235.841 175.796 236.18L170.448 237.426" fill="#FFBB99"/>
<path d="M64.0708 249.078H194.604C198.42 249.078 201.436 252.308 201.177 256.113L197.467 310.769C196.84 319.972 189.195 327.122 179.967 327.122H66.7418C57.0265 327.122 48.7299 320.114 47.1014 310.538L33.4846 230.459C32.6395 225.496 36.4639 220.969 41.4974 220.969H59.8208L64.0677 249.081L64.0708 249.078Z" fill="#FFE28D"/>
<path d="M50.5389 220.961H41.5053C36.4718 220.961 32.6473 225.489 33.4924 230.451L47.1093 310.53C48.7377 320.106 57.0374 327.114 66.7496 327.114H179.974C189.199 327.114 196.848 319.968 197.474 310.761L201.185 256.106C201.444 252.3 198.424 249.071 194.612 249.071H161.025" stroke="#FF5C4D" stroke-width="1.23369" stroke-linecap="round" stroke-linejoin="round"/>
<path d="M179.967 327.119H66.7419C57.0266 327.119 48.73 320.112 47.1016 310.535" stroke="#4D1F1F" stroke-width="1.23369" stroke-linecap="round" stroke-linejoin="round"/>
<path d="M182.898 278.281H187.337C190.908 278.281 193.804 281.177 193.804 284.749V297.41C193.804 300.981 190.908 303.877 187.337 303.877H178.281" stroke="#FF5C4D" stroke-width="1.23369" stroke-linecap="round" stroke-linejoin="round"/>
<path d="M91.9181 155.331C97.6393 157.697 105.245 167.174 95.0455 187.2H90.1015V200.777H64.8047L70.2144 153.487L83.8991 148.57L91.9181 155.334V155.331Z" fill="#FFBB99"/>
<path d="M68.9149 194.746L65.9571 194.764L59.6591 201.954C58.0152 197.762 57.7531 193.04 58.9251 188.692C60.0971 184.343 62.5336 180.093 66.062 177.292C62.1789 173.678 59.5296 168.345 60.5597 163.191C61.3832 159.077 64.3132 155.808 67.2586 152.949C70.1023 150.188 72.7763 146.74 76.4804 145.034C79.6572 143.573 83.5587 143.745 86.5936 145.476C86.754 145.568 86.899 145.679 87.0532 145.778C99.3037 149.544 97.7184 160.477 97.7184 160.477C96.1239 158.078 92.1822 154.993 88.7156 154.207C87.4294 153.914 86.0909 153.843 84.7863 154.019C77.7666 154.95 74.9291 161.051 74.9168 167.142L71.2064 165.218C70.1269 166.942 69.5471 174.316 75.2807 174.813L75.3023 188.309C75.3085 191.847 72.4556 194.721 68.918 194.746H68.9149Z" fill="#FF5C4D"/>
<path d="M83.9034 155.117C82.2934 153.6 79.9124 153.097 77.7904 153.779C74.8049 154.735 73.013 157.699 70.3821 159.383C67.85 161.002 64.5067 161.326 61.7031 160.222" stroke="#4D1F1F" stroke-width="1.23369" stroke-linecap="round" stroke-linejoin="round"/>
<path d="M55.5564 181.122L53.2031 178.457" stroke="#4D1F1F" stroke-width="1.23369" stroke-linecap="round" stroke-linejoin="round"/>
<path d="M100.852 194.523H64.1994C60.2947 194.523 56.5628 196.124 53.8703 198.949C50.672 202.305 49.3056 207.002 50.197 211.548L56.3223 242.702C57.0501 246.406 60.2978 249.08 64.076 249.08H130.778V226.103C130.778 225.036 130.202 224.055 129.27 223.534L126.168 221.803L115.009 202.663C112.073 197.626 106.681 194.527 100.852 194.527V194.523Z" fill="#00BFE6"/>
<path d="M106.32 206.969L118.478 224.922C118.478 224.922 118.552 229.434 115.524 233.41" stroke="#4D1F1F" stroke-width="1.23369" stroke-linecap="round" stroke-linejoin="round"/>
<path d="M91.8047 168.922L97.3316 171.627L91.9095 175.507" stroke="#4D1F1F" stroke-width="1.23369" stroke-linecap="round" stroke-linejoin="round"/>
<path d="M90.1094 187.195V195.236" stroke="#4D1F1F" stroke-width="1.23369" stroke-linecap="round" stroke-linejoin="round"/>
<path d="M73.4297 169.672C74.5863 170.872 75.271 172.5 75.3141 174.153" stroke="#4D1F1F" stroke-width="1.23369" stroke-linecap="round" stroke-linejoin="round"/>
<path d="M52.4247 188.179L48.9766 187.238" stroke="#4D1F1F" stroke-width="1.23369" stroke-linecap="round" stroke-linejoin="round"/>
<path d="M88.2135 161.424C85.706 160.113 83.399 160.73 81.6719 162.368" stroke="#FF5B4D" stroke-width="1.23369" stroke-linecap="round" stroke-linejoin="round"/>
<path d="M87.9321 166.147C87.2659 165.413 86.2728 164.987 85.2797 165.009C84.2865 165.03 83.315 165.499 82.6797 166.261" stroke="#4D1F1F" stroke-width="1.23369" stroke-linecap="round" stroke-linejoin="round"/>
<path d="M99.1899 166.147C98.5237 165.413 97.5306 164.987 96.5375 165.009C95.5444 165.03 94.5728 165.499 93.9375 166.261" stroke="#4D1F1F" stroke-width="1.23369" stroke-linecap="round" stroke-linejoin="round"/>
<path d="M118.174 216.576L127.075 193.753C127.365 193.01 126.816 192.208 126.018 192.211L113.511 192.245C112.629 192.245 111.839 192.788 111.519 193.611L102.618 216.434C102.328 217.178 102.877 217.98 103.675 217.977L116.182 217.943C117.064 217.943 117.854 217.4 118.174 216.576Z" fill="#4D1F1F" stroke="#4D1F1F" stroke-width="1.23369" stroke-linecap="round" stroke-linejoin="round"/>
<path d="M119.223 205.962L105.122 210.049L106.322 206.974L102.917 207.464C101.757 207.631 100.767 208.383 100.298 209.456L97.5905 215.517C96.8719 217.124 95.6999 218.484 94.2164 219.434L71.9205 233.683C66.0759 243.201 72.5837 249.079 72.5837 249.079H75.0757C78.4961 249.079 81.7623 247.664 84.1001 245.169L99.7217 228.495C100.829 227.314 102.248 226.472 103.818 226.068L111.75 224.023C112.737 223.77 113.625 223.237 114.316 222.487L120.864 215.378C121.472 214.718 121.768 213.83 121.678 212.939L121.105 207.236C121.012 206.317 120.108 205.709 119.223 205.965V205.962Z" fill="#FFBB99"/>
<path d="M109.484 213.455L121.248 208.715" stroke="#FF5C4D" stroke-width="1.23369" stroke-linecap="round" stroke-linejoin="round"/>
<path d="M111.203 218.24L121.557 211.84" stroke="#FF5C4D" stroke-width="1.23369" stroke-linecap="round" stroke-linejoin="round"/>
<path d="M72.5837 249.076C72.5837 249.076 66.0759 243.197 71.9205 233.682L72.2166 231.875C72.4325 230.546 72.1056 229.186 71.3099 228.1L70.2735 226.684L71.0354 211.84" stroke="#4D1F1F" stroke-width="1.23369" stroke-linecap="round" stroke-linejoin="round"/>
<path d="M111.526 193.609L105.117 210.042L119.218 205.956C120.103 205.7 121.007 206.307 121.099 207.226L121.673 212.929C121.762 213.82 121.466 214.709 120.859 215.369L114.311 222.478C113.623 223.227 112.732 223.761 111.745 224.014L103.812 226.058C102.245 226.463 100.823 227.305 99.7162 228.486L84.0946 245.159C81.7568 247.654 78.4906 249.07 75.0702 249.07H72.5781" stroke="#4D1F1F" stroke-width="1.23369" stroke-linecap="round" stroke-linejoin="round"/>
<path d="M138.288 297.406V284.745C138.288 281.174 135.392 278.278 131.821 278.278H127.028L121.695 260.457L133.304 299.26C133.718 300.635 134.556 301.795 135.654 302.606C137.249 301.428 138.288 299.54 138.288 297.406Z" fill="#FF5C4D"/>
<path d="M158.727 250.523L163.073 252.167L180.931 251.079C182.328 250.992 183.725 251.214 185.026 251.729L204.673 259.483C207.106 260.442 208.575 262.934 208.238 265.528C207.85 268.523 205.197 270.7 202.184 270.491L181.387 269.057C179.703 268.939 178.081 268.381 176.684 267.437L165.408 259.813L155.711 258.034L158.724 250.53L158.727 250.523Z" fill="#4D1F1F" stroke="#4D1F1F" stroke-width="1.23369" stroke-linecap="round" stroke-linejoin="round"/>
<path d="M157.156 246.281L169.116 251.565C169.727 251.833 170.393 251.953 171.056 251.913L175.966 251.614C177.046 251.549 178.128 251.719 179.137 252.117L194.345 258.119C196.23 258.862 197.365 260.789 197.105 262.797C196.806 265.117 194.752 266.801 192.417 266.64L176.321 265.53C175.019 265.44 173.764 265.009 172.682 264.278L168.953 261.755C168.394 261.379 167.753 261.141 167.084 261.064L154.266 259.611L157.156 246.281Z" fill="#FFBB99"/>
<path d="M181.633 270.312L196.36 327.121H174.934L159.242 282.486C158.356 279.966 155.975 278.282 153.301 278.282H127.027L120.195 255.992L170.477 260.797C175.825 261.309 180.282 265.109 181.63 270.312H181.633Z" fill="#FF5C4D"/>
<path d="M164.751 268.034C173.023 261.184 166.963 250.256 166.963 250.256L123.574 232.001C119.598 230.329 115.114 230.178 111.095 231.736C102.675 235.002 102.555 242.842 102.555 242.842V249.081H113.482C116.341 249.081 118.858 250.957 119.678 253.695L120.927 257.871L158.99 269.187C160.982 269.78 163.15 269.36 164.751 268.034Z" fill="#FF5C4D"/>
<path d="M209.145 355.14L201.302 342.689C200.09 340.765 199.513 338.726 199.014 336.373L196.355 327.117H182.547L186.325 335.67C186.442 336.228 186.504 336.799 186.504 337.369V341.335L202.061 358.465L209.145 355.137V355.14Z" fill="#FFBB99"/>
<path d="M186.5 341.336V337.37C186.5 336.799 186.441 336.229 186.321 335.67L181.047 323.734" stroke="#FF5C4D" stroke-width="1.23369" stroke-linecap="round" stroke-linejoin="round"/>
<path d="M209.14 355.142H204.301C202.118 355.142 200.02 354.306 198.463 352.813L186.502 341.34C185.79 341.954 185.413 342.802 185.38 343.672H185.367L185.376 343.742C185.37 344.014 185.395 344.288 185.463 344.557L187.634 365.239L189.503 350.975L196.535 361.52C198.08 363.839 200.73 365.239 203.57 365.239H218.563C219.596 365.239 220.432 364.425 220.432 363.42L209.14 355.148V355.142Z" fill="#4D1F1F" stroke="#4D1F1F" stroke-width="1.23369" stroke-linecap="round" stroke-linejoin="round"/>
<path d="M196.355 327.117H182.547L184.4 331.312L196.355 327.117Z" fill="#FF5C4D" stroke="#FF5C4D" stroke-width="1.23369" stroke-linecap="round" stroke-linejoin="round"/>
<path d="M166.957 250.25C166.957 250.25 173.017 261.177 164.746 268.027C163.145 269.354 160.977 269.773 158.984 269.181L120.922 257.865" stroke="#4D1F1F" stroke-width="1.23369" stroke-linecap="round" stroke-linejoin="round"/>
<path d="M196.361 327.118H174.935L159.242 282.483C158.357 279.963 155.976 278.279 153.302 278.279H127.028L119.672 253.691" stroke="#4D1F1F" stroke-width="1.23369" stroke-linecap="round" stroke-linejoin="round"/>
<path d="M166.763 303.872H139.502C136.643 303.872 134.126 301.997 133.306 299.258L119.673 253.689C118.853 250.95 116.336 249.075 113.477 249.075H63.5836C57.9024 249.075 52.6685 245.997 49.905 241.034L42.3672 227.488" stroke="#FF5C4D" stroke-width="1.23369" stroke-linecap="round" stroke-linejoin="round"/>
<path d="M159.567 283.414L161.942 290.169C162.361 291.362 162.577 292.62 162.577 293.888V297.407C162.577 300.979 159.681 303.875 156.109 303.875H166.762L159.57 283.414H159.567Z" fill="#4D1F1F" stroke="#4D1F1F" stroke-width="1.23369" stroke-linecap="round" stroke-linejoin="round"/>
<path d="M134.593 327.119C124.877 327.119 116.581 320.112 114.952 310.535L105.086 252.512" stroke="#FF5C4D" stroke-width="1.23369" stroke-linecap="round" stroke-linejoin="round"/>
<path d="M161.006 306.099L163.847 324.07C164.1 325.671 162.863 327.118 161.244 327.118H174.931L166.758 303.875H157.57H158.403C159.698 303.875 160.803 304.819 161.006 306.099Z" fill="#4D1F1F" stroke="#4D1F1F" stroke-width="1.23369" stroke-linecap="round" stroke-linejoin="round"/>
<path d="M154.734 303.875H165.532" stroke="#FF5C4D" stroke-width="1.23369" stroke-linecap="round" stroke-linejoin="round"/>
<path d="M182.951 216.911C186.529 214.129 189.107 210.089 190.122 205.672C191.137 201.256 190.588 196.497 188.589 192.429C188.299 191.836 187.96 191.238 187.417 190.865C186.874 190.492 186.075 190.415 185.585 190.856C185.193 191.21 185.098 191.787 185.095 192.318C185.07 195.331 187.306 198.067 190.094 199.22C192.879 200.374 196.081 200.145 198.952 199.229C201.786 198.326 204.467 196.725 206.255 194.347C209.192 190.439 209.263 184.774 206.906 180.49C204.55 176.206 200.059 173.316 195.269 172.332C190.483 171.348 185.443 172.144 180.906 173.96C176.369 175.777 172.286 178.577 168.492 181.662" stroke="#FBFCF9" stroke-width="1.23369" stroke-linecap="round" stroke-linejoin="round"/>
<path d="M178.29 233.055C178.29 234.544 177.263 235.84 175.81 236.179L170.462 237.425C170.37 239.559 169.037 242.147 167.359 243.467" stroke="#FF5C4D" stroke-width="1.23369" stroke-linecap="round" stroke-linejoin="round"/>
<path d="M162.885 228.886L159.141 226.773" stroke="#FFBB99" stroke-width="1.23369" stroke-linecap="round" stroke-linejoin="round"/>
<path d="M47.1016 310.535C48.73 320.112 57.0297 327.119 66.7419 327.119H174.933" stroke="#4D1F1F" stroke-width="1.23369" stroke-linecap="round" stroke-linejoin="round"/>
<path d="M98.2198 161.684C96.6592 160.469 94.2565 160.346 92.7422 161.604" stroke="#FF5B4D" stroke-width="1.23369" stroke-linecap="round" stroke-linejoin="round"/>
<path d="M83.3047 177.109C84.4366 178.519 86.4475 179.148 88.1809 178.642" stroke="#4D1F1F" stroke-width="1.23369" stroke-linecap="round" stroke-linejoin="round"/>
<path d="M66.0859 151.515C69.6667 150.488 72.2575 148.15 75.206 146.05C77.991 144.064 81.7692 143.413 84.9984 144.603C92.6133 147.41 91.9256 155.33 91.9256 155.33C97.6468 157.696 105.253 167.174 95.053 187.2H86.2352C83.3329 187.2 80.6743 185.58 79.3419 183.005" stroke="#4D1F1F" stroke-width="1.23369" stroke-linecap="round" stroke-linejoin="round"/>
<path d="M62.7703 361.649C62.6038 363.577 64.1212 365.233 66.0581 365.233C67.6773 365.233 69.056 364.058 69.315 362.46L74.5274 330.199" stroke="#4D1F1F" stroke-width="1.23369" stroke-linecap="round" stroke-linejoin="round"/>
<path d="M115.208 361.649C115.041 363.577 116.559 365.233 118.496 365.233C120.115 365.233 121.493 364.058 121.753 362.46L126.965 330.199" stroke="#4D1F1F" stroke-width="1.23369" stroke-linecap="round" stroke-linejoin="round"/>
<path d="M70.2662 226.688C70.2662 226.688 64.548 227.477 61.9141 234.827" stroke="#4D1F1F" stroke-width="1.23369" stroke-linecap="round" stroke-linejoin="round"/>
<path d="M122.836 228.592L126.158 221.801" stroke="#4D1F1F" stroke-width="1.23369" stroke-linecap="round" stroke-linejoin="round"/>
<path d="M384.312 194.87L385.815 191.027" stroke="#C4F5F5" stroke-width="1.23369" stroke-linecap="round" stroke-linejoin="round"/>
<path d="M395.336 208.057L398.676 205.719" stroke="#C4F5F5" stroke-width="1.23369" stroke-linecap="round" stroke-linejoin="round"/>
<path d="M326.21 235.939L324.375 232.266" stroke="#FBFCF9" stroke-width="1.23369" stroke-linecap="round" stroke-linejoin="round"/>
<path d="M172.004 158.922C181.214 145.527 177.895 127.238 164.627 117.917C151.466 108.674 133.115 111.715 123.662 124.724C115.47 135.997 116.402 150.989 124.865 161.121L121.343 178.226C121.111 179.355 122.351 180.209 123.32 179.586C127.659 176.81 136.085 171.416 138.028 170.17C150.282 174.365 164.306 170.115 172.004 158.919V158.922Z" fill="#FFE28D"/>
<path d="M118 141.445C117.839 148.521 120.217 155.553 124.865 161.116L121.343 178.222C121.112 179.35 122.352 180.205 123.32 179.582C127.66 176.806 136.086 171.412 138.029 170.166C150.282 174.36 164.306 170.11 172.005 158.914C175.672 153.579 177.353 147.466 177.208 141.451" stroke="#FF5C4D" stroke-width="1.23369" stroke-linecap="round" stroke-linejoin="round"/>
<path d="M147.33 135.527C148.168 135.622 148.927 135.015 149.023 134.176C149.118 133.337 148.511 132.578 147.672 132.483C146.833 132.387 146.074 132.995 145.979 133.833C145.883 134.672 146.491 135.431 147.33 135.527Z" fill="#FF5C4D"/>
<path d="M154.564 147.39C155.403 147.486 156.162 146.878 156.257 146.039C156.353 145.2 155.745 144.441 154.906 144.346C154.067 144.25 153.309 144.858 153.213 145.697C153.117 146.536 153.725 147.294 154.564 147.39Z" fill="#FF5C4D"/>
<path d="M153.624 138.986C153.707 138.588 153.775 138.187 153.821 137.78L154.913 128.089L135.538 125.902L134.446 135.593C133.851 140.882 136.67 145.984 141.469 148.291L141.626 148.365C141.432 153.321 144.195 157.978 148.717 160.15L150.006 160.769L151.4 160.452C156.591 159.271 160.477 154.925 161.072 149.635L162.164 139.945L153.627 138.983L153.624 138.986ZM136.879 135.867L137.697 128.61L152.202 130.245L151.385 137.502C151.338 137.912 151.267 138.313 151.172 138.708L142.783 137.761L141.882 145.74C138.419 143.754 136.426 139.877 136.879 135.864V135.867ZM150.284 141.077C149.05 143.415 146.922 145.219 144.322 146.015L144.948 140.475L150.287 141.077H150.284ZM158.633 149.364C158.151 153.617 155.024 157.115 150.851 158.065L150.293 158.191L149.778 157.941C146.188 156.214 143.973 152.541 144.069 148.608L144.149 148.59C148.103 147.689 151.298 144.954 152.862 141.36L159.453 142.104L158.636 149.361L158.633 149.364Z" fill="#FF5C4D"/>
<defs>
<linearGradient id="paint0_linear_379_76133" x1="426.987" y1="162.38" x2="1.25785" y2="161.632" gradientUnits="userSpaceOnUse">
<stop offset="0.722112" stop-color="#C4F5F5"/>
<stop offset="1" stop-color="#FBFCF9"/>
</linearGradient>
<linearGradient id="paint1_linear_379_76133" x1="428.987" y1="229.38" x2="3.25785" y2="228.632" gradientUnits="userSpaceOnUse">
<stop offset="0.722112" stop-color="#C4F5F5"/>
<stop offset="1" stop-color="#FBFCF9"/>
</linearGradient>
<linearGradient id="paint2_linear_379_76133" x1="250.992" y1="0.550691" x2="248.945" y2="259.849" gradientUnits="userSpaceOnUse">
<stop stop-color="white"/>
<stop offset="0.637819" stop-color="#C4F5F5"/>
</linearGradient>
<linearGradient id="paint3_linear_379_76133" x1="350.787" y1="0.549961" x2="350.939" y2="259.853" gradientUnits="userSpaceOnUse">
<stop stop-color="white"/>
<stop offset="0.637819" stop-color="#C4F5F5"/>
</linearGradient>
<linearGradient id="paint4_linear_379_76133" x1="163.406" y1="0.550691" x2="161.359" y2="259.849" gradientUnits="userSpaceOnUse">
<stop stop-color="white"/>
<stop offset="0.637819" stop-color="#C4F5F5"/>
</linearGradient>
<linearGradient id="paint5_linear_379_76133" x1="173.396" y1="247.709" x2="173.396" y2="221.68" gradientUnits="userSpaceOnUse">
<stop stop-color="#C4F5F5"/>
<stop offset="1" stop-color="#FBFCF9"/>
</linearGradient>
</defs>
</svg>
