<svg width="395" height="406" viewBox="0 0 395 406" fill="none" xmlns="http://www.w3.org/2000/svg">
<path d="M0 123.806L35.2906 117.479L53.4463 133.599L18.1557 139.93L0 123.806Z" fill="#FBFCF9"/>
<path d="M158.926 84.4832L125.876 84.3888L101.227 67.4199L134.276 67.5143L158.926 84.4832Z" fill="#C4F5F5" stroke="#C4F5F5" stroke-width="1.69474" stroke-linecap="round" stroke-linejoin="round"/>
<path d="M391.733 254.16L365.783 276.965L337.008 280.732L362.958 257.928L391.733 254.16Z" fill="#C4F5F5" stroke="#C4F5F5" stroke-width="1.69474" stroke-linecap="round" stroke-linejoin="round"/>
<path d="M252.602 198.933C259.782 198.933 265.603 192.446 265.603 184.443C265.603 176.441 259.782 169.953 252.602 169.953C245.422 169.953 239.602 176.441 239.602 184.443C239.602 192.446 245.422 198.933 252.602 198.933Z" fill="#C4F5F5" stroke="#00BFE6" stroke-width="1.69474" stroke-linecap="round" stroke-linejoin="round"/>
<path d="M157.719 99.8738C164.899 99.8738 170.72 93.3863 170.72 85.3836C170.72 77.381 164.899 70.8936 157.719 70.8936C150.539 70.8936 144.719 77.381 144.719 85.3836C144.719 93.3863 150.539 99.8738 157.719 99.8738Z" fill="#FFE88C" stroke="#FF5757" stroke-width="1.69474" stroke-linecap="round" stroke-linejoin="round"/>
<path d="M284.25 134.092L298.453 223.88C305.498 222.496 310.213 215.027 309.01 207.175L294.794 117.303L284.25 134.087V134.092Z" fill="#00BFE6" stroke="#00BFE6" stroke-width="1.69474" stroke-linecap="round" stroke-linejoin="round"/>
<path d="M141.157 147.498L126.094 135.746L138.243 212.55L152.175 217.167L141.153 147.498H141.157Z" fill="#C4F5F5" stroke="#00BFE6" stroke-width="1.69474" stroke-linecap="round" stroke-linejoin="round"/>
<path d="M215.897 305.912C192.145 298.037 174.714 276.247 170.414 249.042L168.893 239.425L157.219 249.075L157.613 251.559C162.743 283.991 183.872 310.407 212.194 319.798L249.578 332.192L247.053 316.238L215.897 305.912Z" fill="#C4F5F5" stroke="#00BFE6" stroke-width="1.69474" stroke-linecap="round" stroke-linejoin="round"/>
<path d="M156.212 159.25L141.153 147.493H141.148L152.171 217.163L163.845 207.512L156.212 159.25Z" fill="#00BFE6" stroke="#00BFE6" stroke-width="1.69474" stroke-linecap="round" stroke-linejoin="round"/>
<path d="M199.916 18.232L210.464 1.44727L31.2109 36.6739L46.2744 48.4303L199.916 18.232Z" fill="#FFE88C" stroke="#FF5757" stroke-width="1.69474" stroke-linecap="round" stroke-linejoin="round"/>
<path d="M215.707 118.128L228.512 115.612L210.454 1.44727L199.906 18.232L215.707 118.128Z" fill="#FFE88C" stroke="#FF5757" stroke-width="1.69474" stroke-linecap="round" stroke-linejoin="round"/>
<path d="M217.042 147.291C214.619 170.833 203.618 192.674 186.021 207.221L166.37 223.467L154.695 233.118L157.22 249.072L168.895 239.421L193.769 218.859C215.517 200.88 228.555 173.802 230.368 144.676L217.042 147.296V147.291Z" fill="#FF5757" stroke="#FF5757" stroke-width="1.69474" stroke-linecap="round" stroke-linejoin="round"/>
<path d="M151.43 234.787L160.498 247.444L151.43 234.787Z" stroke="#4D1F1F" stroke-width="1.69474" stroke-linecap="round" stroke-linejoin="round"/>
<path d="M151.109 232.815L155.747 217.465L151.109 232.815Z" stroke="#4D1F1F" stroke-width="1.69474" stroke-linecap="round" stroke-linejoin="round"/>
<path d="M202.906 120.647L215.708 118.131L199.907 18.2344L189.359 35.0238L202.906 120.647Z" fill="#FF5757" stroke="#FF5757" stroke-width="1.69474" stroke-linecap="round" stroke-linejoin="round"/>
<path d="M203.623 149.933C200.827 167.898 191.97 184.268 178.275 195.585L163.846 207.516L152.172 217.167L154.697 233.12L166.371 223.47L186.022 207.223C203.619 192.676 214.62 170.835 217.043 147.294L203.623 149.933Z" fill="#FFE88C" stroke="#FF5757" stroke-width="1.69474" stroke-linecap="round" stroke-linejoin="round"/>
<path d="M75.5284 149.969L61.3248 60.1814L46.2656 48.4297L60.4691 138.217C61.7145 146.098 68.4584 151.362 75.5284 149.974V149.969Z" fill="#FF5757" stroke="#FF5757" stroke-width="1.69474" stroke-linecap="round" stroke-linejoin="round"/>
<path d="M189.36 35.0238L199.907 18.2344L46.2656 48.4327L61.3248 60.1844L189.36 35.0238Z" fill="#FF5757" stroke="#FF5757" stroke-width="1.69474" stroke-linecap="round" stroke-linejoin="round"/>
<path d="M202.906 120.645L189.359 35.0215" stroke="#4D1F1F" stroke-width="1.69474" stroke-linecap="round" stroke-linejoin="round"/>
<path d="M156.203 159.249L163.837 207.512" stroke="#4D1F1F" stroke-width="1.69474" stroke-linecap="round" stroke-linejoin="round"/>
<path d="M62.7279 152.489L46.2666 48.4282L31.2031 36.6719L49.9223 155.001C50.8882 161.096 52.3241 166.998 54.1922 172.659C60.4023 168.74 64.0369 160.766 62.7237 152.489H62.7279Z" fill="#FFE88C" stroke="#FF5757" stroke-width="1.69474" stroke-linecap="round" stroke-linejoin="round"/>
<path d="M140.771 228.506L117.316 220.73C88.9939 211.339 67.8645 184.923 62.7346 152.491C64.0435 160.773 60.4132 168.747 54.2031 172.661C64.0011 202.354 85.6813 225.357 113.61 234.621L143.296 244.46L157.228 249.078L154.704 233.124L140.771 228.506Z" fill="#FF5757" stroke="#FF5757" stroke-width="1.69474" stroke-linecap="round" stroke-linejoin="round"/>
<path d="M305.337 100.516L294.789 117.305L311.25 221.366C312.559 229.647 318.422 235.757 325.458 237.069C325.475 231.04 325.017 224.944 324.052 218.849L305.332 100.52L305.337 100.516Z" fill="#C4F5F5" stroke="#00BFE6" stroke-width="1.69474" stroke-linecap="round" stroke-linejoin="round"/>
<path d="M311.255 221.367C316.385 253.799 304.634 286.679 280.904 306.296L249.578 332.194L252.103 348.147L288.652 317.935C312.056 298.586 325.37 268.704 325.467 237.071C318.427 235.758 312.568 229.649 311.259 221.367H311.255Z" fill="#00BFE6" stroke="#00BFE6" stroke-width="1.69474" stroke-linecap="round" stroke-linejoin="round"/>
<path d="M157.612 251.589C157.612 251.589 157.612 251.57 157.608 251.561L157.214 249.078L143.281 244.46L144.802 254.073C145.768 260.168 147.204 266.07 149.072 271.731C155.278 267.817 158.908 259.857 157.612 251.589Z" fill="#C4F5F5" stroke="#4D1F1F" stroke-width="1.69474" stroke-linecap="round" stroke-linejoin="round"/>
<path d="M249.579 332.192L212.195 319.799C183.882 310.412 162.756 284.01 157.618 251.588C158.914 259.86 155.284 267.816 149.078 271.73C158.876 301.423 180.556 324.426 208.485 333.689L252.103 348.146L249.579 332.192Z" fill="#00BFE6" stroke="#00BFE6" stroke-width="1.69474" stroke-linecap="round" stroke-linejoin="round"/>
<path d="M170.409 249.042L168.888 239.425L157.214 249.075L143.281 244.458L144.802 254.071C145.141 256.224 145.543 258.348 146.001 260.454L159.73 265.006L171.404 255.355L171.629 255.171C171.15 253.159 170.735 251.12 170.409 249.042Z" fill="#4D1F1F" stroke="#4D1F1F" stroke-width="1.69474" stroke-linecap="round" stroke-linejoin="round"/>
<path d="M138.234 212.549L121.01 206.841C97.2589 198.966 79.8318 177.176 75.528 149.976C68.458 151.364 61.7142 146.105 60.4688 138.22L62.7266 152.493C67.8565 184.924 88.9859 211.341 117.308 220.732L140.763 228.508L154.696 233.125L152.171 217.172L138.239 212.554L138.234 212.549Z" fill="#FFE88C" stroke="#FF5757" stroke-width="1.69474" stroke-linecap="round" stroke-linejoin="round"/>
<path d="M298.459 223.884C302.762 251.085 293.07 278.204 273.165 294.663L247.062 316.245L249.587 332.199L280.913 306.302C304.643 286.684 316.394 253.804 311.264 221.372L309.019 207.185C310.218 215.036 305.507 222.506 298.463 223.889L298.459 223.884Z" fill="#C4F5F5" stroke="#00BFE6" stroke-width="1.69474" stroke-linecap="round" stroke-linejoin="round"/>
<path d="M217.042 147.291L203.622 149.931C202.792 155.275 201.419 160.474 199.547 165.445L214.208 162.565L228.386 159.78C229.381 154.832 230.055 149.789 230.373 144.676L217.046 147.296L217.042 147.291Z" fill="#4D1F1F" stroke="#4D1F1F" stroke-width="1.69474" stroke-linecap="round" stroke-linejoin="round"/>
<path d="M46.2656 48.4327L61.3248 60.1844L189.36 35.0238L199.907 18.2344" stroke="#4D1F1F" stroke-width="1.69474" stroke-linecap="round" stroke-linejoin="round"/>
<path d="M61.3281 60.1875L75.5316 149.98" stroke="#4D1F1F" stroke-width="1.69474" stroke-linecap="round" stroke-linejoin="round"/>
<path d="M305.343 100.516L228.522 115.615L215.716 118.131L202.915 120.648L126.094 135.747L141.157 147.499L204.541 135.044L217.427 132.508L230.326 129.977L294.799 117.305L305.343 100.516Z" fill="#C4F5F5" stroke="#00BFE6" stroke-width="1.69474" stroke-linecap="round" stroke-linejoin="round"/>
<path d="M230.325 129.977L217.426 132.508L204.54 135.043L141.156 147.498L156.215 159.255L203.625 149.935L217.045 147.3L230.372 144.68L284.25 134.089L294.798 117.305L230.325 129.977Z" fill="#00BFE6" stroke="#00BFE6" stroke-width="1.69474" stroke-linecap="round" stroke-linejoin="round"/>
<path d="M294.798 117.305L284.25 134.089L156.215 159.255L141.156 147.498" stroke="#4D1F1F" stroke-width="1.69474" stroke-linecap="round" stroke-linejoin="round"/>
<path d="M157.219 249.072L168.893 239.421L193.767 218.859C215.515 200.88 228.554 173.802 230.367 144.676" stroke="#4D1F1F" stroke-width="1.69474" stroke-linecap="round" stroke-linejoin="round"/>
<path d="M54.1875 172.661C63.9855 202.354 85.6656 225.357 113.594 234.621L143.28 244.46L157.213 249.078L154.688 233.124" stroke="#4D1F1F" stroke-width="1.69474" stroke-linecap="round" stroke-linejoin="round"/>
<path d="M284.25 134.086L298.458 223.878" stroke="#4D1F1F" stroke-width="1.69474" stroke-linecap="round" stroke-linejoin="round"/>
<path d="M149.078 271.738C158.876 301.431 180.556 324.434 208.485 333.698L252.103 348.155L249.579 332.201" stroke="#4D1F1F" stroke-width="1.69474" stroke-linecap="round" stroke-linejoin="round"/>
<path d="M252.102 348.142L288.65 317.93C312.055 298.581 325.369 268.699 325.466 237.065" stroke="#4D1F1F" stroke-width="1.69474" stroke-linecap="round" stroke-linejoin="round"/>
<path d="M54.1875 172.655C63.9855 202.348 85.6656 225.351 113.594 234.615L143.28 244.454L157.213 249.072L168.887 239.421L193.761 218.859C215.509 200.88 228.548 173.802 230.361 144.676" stroke="#4D1F1F" stroke-width="1.69474" stroke-linecap="round" stroke-linejoin="round"/>
<path d="M154.695 233.123L157.22 249.072" stroke="#4D1F1F" stroke-width="1.69474" stroke-linecap="round" stroke-linejoin="round"/>
<path d="M158.846 99.7586C162.437 99.7586 165.348 96.5142 165.348 92.5121C165.348 88.51 162.437 85.2656 158.846 85.2656C155.255 85.2656 152.344 88.51 152.344 92.5121C152.344 96.5142 155.255 99.7586 158.846 99.7586Z" fill="#FF5757" stroke="#FF5757" stroke-width="1.69474" stroke-linecap="round" stroke-linejoin="round"/>
<path d="M253.737 198.828C257.328 198.828 260.239 195.584 260.239 191.581C260.239 187.579 257.328 184.335 253.737 184.335C250.146 184.335 247.234 187.579 247.234 191.581C247.234 195.584 250.146 198.828 253.737 198.828Z" fill="#00BFE6" stroke="#00BFE6" stroke-width="1.69474" stroke-linecap="round" stroke-linejoin="round"/>
<path d="M265.404 181.931C266.649 189.811 261.93 197.327 254.856 198.715C247.786 200.104 241.042 194.844 239.797 186.959" stroke="#4D1F1F" stroke-width="1.69474" stroke-linecap="round" stroke-linejoin="round"/>
<path d="M170.529 82.8574C171.774 90.7375 167.055 98.2541 159.981 99.6422C152.911 101.03 146.167 95.7706 144.922 87.8858" stroke="#4D1F1F" stroke-width="1.69474" stroke-linecap="round" stroke-linejoin="round"/>
<path d="M237.406 73.3345L241.275 61.5703" stroke="#FF5757" stroke-width="1.69474" stroke-linecap="round" stroke-linejoin="round"/>
<path d="M252.539 87.8571L261.337 79.2275" stroke="#00BFE6" stroke-width="1.69474" stroke-linecap="round" stroke-linejoin="round"/>
<path d="M130.076 254.163L119.516 261.612" stroke="#00BFE6" stroke-width="1.69474" stroke-linecap="round" stroke-linejoin="round"/>
<path d="M327.562 31.1006L300.808 52.7295L271.922 55.2082L298.673 33.5793L327.562 31.1006Z" fill="#FFE88C" stroke="#FFE88C" stroke-width="1.69474" stroke-linecap="round" stroke-linejoin="round"/>
<path d="M327.562 31.1006L300.808 52.7295L271.922 55.2082" stroke="#FF5757" stroke-width="1.69474" stroke-linecap="round" stroke-linejoin="round"/>
<path d="M267.117 244.408L292.33 220.598L301.366 189.913L276.153 213.728L267.117 244.408Z" fill="#FFE88C" stroke="#FFE88C" stroke-width="1.69474" stroke-linecap="round" stroke-linejoin="round"/>
<path d="M267.117 244.408L292.33 220.598L301.366 189.913" stroke="#FF5757" stroke-width="1.69474" stroke-linecap="round" stroke-linejoin="round"/>
<path d="M62.3125 279.22L97.5184 297.596L115.467 285.712L80.2607 267.336L62.3125 279.22Z" fill="#C4F5F5" stroke="#C4F5F5" stroke-width="1.69474" stroke-linecap="round" stroke-linejoin="round"/>
<path d="M62.3125 279.217L97.5184 297.593L115.467 285.709" stroke="#00BFE6" stroke-width="1.69474" stroke-linecap="round" stroke-linejoin="round"/>
<path d="M295.312 386.195L330.518 404.571L348.467 392.687L313.261 374.312L295.312 386.195Z" fill="#C4F5F5" stroke="#C4F5F5" stroke-width="1.69474" stroke-linecap="round" stroke-linejoin="round"/>
<path d="M295.312 386.194L330.518 404.57L348.467 392.686" stroke="#00BFE6" stroke-width="1.69474" stroke-linecap="round" stroke-linejoin="round"/>
<path d="M78.3558 182.458L56.2986 209.885L28.5312 219.101L50.5884 191.67L78.3558 182.458Z" fill="#FBFCF9"/>
<path d="M78.3558 182.458L56.2986 209.885L28.5312 219.101" stroke="#00BFE6" stroke-width="1.69474" stroke-linecap="round" stroke-linejoin="round"/>
<path d="M347.5 147.49L382.926 152.769L394.003 176.215L358.573 170.937L347.5 147.49Z" fill="#FFE88C" stroke="#FFE88C" stroke-width="1.69474" stroke-linecap="round" stroke-linejoin="round"/>
<path d="M394.003 176.215L358.573 170.937L347.5 147.49" stroke="#FF5757" stroke-width="1.69474" stroke-linecap="round" stroke-linejoin="round"/>
<path d="M197.047 266.869L219.045 235.472L240.314 248.899L218.312 280.297L197.047 266.869Z" fill="#C4F5F5" stroke="#C4F5F5" stroke-width="1.69474" stroke-linecap="round" stroke-linejoin="round"/>
</svg>
