<svg width="381" height="192" viewBox="0 0 381 192" fill="none" xmlns="http://www.w3.org/2000/svg">
<path d="M380.351 176.847H209.797V187.827H380.351V176.847Z" fill="#4D1F1F" stroke="#4D1F1F" stroke-width="0.611306" stroke-linecap="round" stroke-linejoin="round"/>
<path d="M0.351562 185.083H380.352" stroke="#4D1F1F" stroke-width="0.611306" stroke-linecap="round" stroke-linejoin="round"/>
<path d="M380.351 176.853H220.8L209.797 187.834V113.717H380.351" fill="#FBFCF9"/>
<path d="M380.351 176.853H220.8L209.797 187.834V113.717H380.351" stroke="#C4F5F5" stroke-width="0.611306" stroke-linecap="round" stroke-linejoin="round"/>
<path d="M303.324 121.953V176.854" stroke="#C4F5F5" stroke-width="0.611306" stroke-linecap="round" stroke-linejoin="round"/>
<path d="M380.351 121.952H209.797V113.717H380.351" fill="#FBFCF9"/>
<path d="M380.351 121.952H209.797V113.717H380.351" stroke="#C4F5F5" stroke-width="0.611306" stroke-linecap="round" stroke-linejoin="round"/>
<path d="M380.351 176.858H220.8L209.797 187.839" stroke="#00BFE6" stroke-width="0.611306" stroke-linecap="round" stroke-linejoin="round"/>
<path d="M297.98 -12.5605H66.9062V102.732H297.98V-12.5605Z" stroke="#C4F5F5" stroke-width="0.611306" stroke-linecap="round" stroke-linejoin="round"/>
<path d="M203.758 59.2965V57.2295" stroke="#00BFE6" stroke-width="0.611306" stroke-linecap="round" stroke-linejoin="round"/>
<path d="M207.766 61.096L209.793 58.7188" stroke="#00BFE6" stroke-width="0.611306" stroke-linecap="round" stroke-linejoin="round"/>
<path d="M235.57 87.0594L228.816 85.4673L215.194 79.6862C212.331 78.4701 210.014 76.3948 208.488 73.8392C207.192 71.6706 206.468 69.7024 206.468 67.0699V66.5208C206.468 66.5208 206.625 63.1719 203.456 63.1719C202.73 63.1719 202.012 63.3723 201.385 63.7346C200.463 64.2672 199.886 65.2362 199.853 66.293C198.73 67.4871 198.441 69.0655 198.595 71.8627L199.313 70.0318C199.432 69.7326 199.619 69.491 199.847 69.3098C199.847 69.8314 199.847 70.3584 199.847 70.8718C199.847 73.0761 199.525 75.2639 198.892 77.394C198.769 77.8058 198.637 78.2176 198.491 78.6266L198.436 78.783C197.206 82.2171 197.704 85.8488 199.484 88.7312C200.595 90.5319 202.21 92.039 204.213 93.0217H204.204L208.699 95.3083C209.783 95.8601 210.465 96.9718 210.465 98.1852C210.465 98.5338 210.614 98.8467 210.851 99.0691V99.7196C210.851 100.269 210.485 100.749 209.956 100.9L206.853 101.77C206.642 101.831 206.493 102.023 206.493 102.245C206.493 102.517 206.713 102.739 206.988 102.739H216.118C216.438 102.739 216.693 102.481 216.693 102.165C216.693 101.899 216.509 101.666 216.248 101.605L215.832 101.509C215.442 101.419 215.164 101.07 215.164 100.669V99.2146C215.34 99.1047 215.488 98.951 215.59 98.7644L216.138 97.7514C216.655 96.7934 217.362 95.9507 218.215 95.2754L221.769 92.459L221.821 92.4178C224.041 92.2531 226.156 91.4844 227.947 90.2217H231.287C232.992 90.2217 234.643 89.6041 235.927 88.4841C236.431 88.0449 236.227 87.2241 235.575 87.0704L235.57 87.0594Z" fill="#00BFE6" stroke="#00BFE6" stroke-width="0.611306" stroke-linecap="round" stroke-linejoin="round"/>
<path d="M208.555 77.2197C207.171 77.7083 205.98 78.724 205.278 80.0142C203.68 82.9542 204.954 86.638 207.438 88.6529C208.822 89.7756 210.478 90.4399 212.142 90.956C215.204 91.9058 218.384 92.4027 221.566 92.4329" stroke="#C4F5F5" stroke-width="0.611306" stroke-linecap="round" stroke-linejoin="round"/>
<path d="M66.9062 14.8887H297.98" stroke="#FBFCF9" stroke-width="0.611306" stroke-linecap="round" stroke-linejoin="round"/>
<path d="M220.953 -12.5605V102.732" stroke="#FBFCF9" stroke-width="0.611306" stroke-linecap="round" stroke-linejoin="round"/>
<path d="M143.93 -12.5605V102.732" stroke="#FBFCF9" stroke-width="0.611306" stroke-linecap="round" stroke-linejoin="round"/>
<path d="M297.98 102.731H66.9062" stroke="#00BFE6" stroke-width="0.611306" stroke-linecap="round" stroke-linejoin="round"/>
<path d="M297.818 113.719L292.316 108.228H237.299L231.797 113.719V102.738H297.818V113.719Z" fill="#FBFCF9" stroke="#C4F5F5" stroke-width="0.611306" stroke-linecap="round" stroke-linejoin="round"/>
<path d="M231.797 102.738H297.818" stroke="#00BFE6" stroke-width="0.611306" stroke-linecap="round" stroke-linejoin="round"/>
<path d="M319.827 113.713L314.326 108.223H303.322L297.82 113.713V102.732H319.827V113.713Z" fill="#FBFCF9" stroke="#C4F5F5" stroke-width="0.611306" stroke-linecap="round" stroke-linejoin="round"/>
<path d="M297.818 89.0107H231.797V102.736H297.818H319.825V89.0107H297.818Z" fill="#C4F5F5" stroke="#C4F5F5" stroke-width="0.611306" stroke-linecap="round" stroke-linejoin="round"/>
<path d="M231.797 102.732H319.825" stroke="#00BFE6" stroke-width="0.611306" stroke-linecap="round" stroke-linejoin="round"/>
<path d="M308.818 98.6133H242.797V102.731H308.818V98.6133Z" fill="#4D1F1F" stroke="#4D1F1F" stroke-width="0.611306" stroke-linecap="round" stroke-linejoin="round"/>
<path d="M276.657 93.127H308.818V98.6171H242.797" stroke="#00BFE6" stroke-width="0.611306" stroke-linecap="round" stroke-linejoin="round"/>
<path d="M276.656 98.6171L282.158 95.872V93.127H276.656V98.6171Z" fill="#00BFE6" stroke="#00BFE6" stroke-width="0.611306" stroke-linecap="round" stroke-linejoin="round"/>
<path d="M297.518 102.736L297.818 89.0107H231.797V102.736" stroke="#FBFCF9" stroke-width="0.611306" stroke-linecap="round" stroke-linejoin="round"/>
<path d="M319.827 102.736V89.0107H297.82V102.736" stroke="#FBFCF9" stroke-width="0.611306" stroke-linecap="round" stroke-linejoin="round"/>
<path d="M231.805 113.715L237.306 108.225H292.324L297.826 113.715H231.805Z" fill="#00BFE6" stroke="#00BFE6" stroke-width="0.611306" stroke-linecap="round" stroke-linejoin="round"/>
<path d="M297.828 113.715L303.33 108.225H314.333L319.835 113.715H297.828Z" fill="#00BFE6" stroke="#00BFE6" stroke-width="0.611306" stroke-linecap="round" stroke-linejoin="round"/>
<path d="M284.06 134.566H227.934L218.039 190.574H274.162L284.06 134.566Z" fill="#4D1F1F" stroke="#4D1F1F" stroke-width="0.611306" stroke-linecap="round" stroke-linejoin="round"/>
<path d="M261.52 187.961H231.594L237.863 152.481H267.79L261.52 187.961Z" fill="#FF5C4D" stroke="#FF5C4D" stroke-width="0.305653" stroke-linecap="round" stroke-linejoin="round"/>
<path d="M272.477 184.224C272.114 186.286 270.141 187.958 268.075 187.958C266.009 187.958 264.628 186.286 264.992 184.224C265.355 182.163 267.327 180.491 269.393 180.491C271.459 180.491 272.84 182.163 272.477 184.224Z" fill="#4D1F1F" stroke="#4D1F1F" stroke-width="0.611306" stroke-linecap="round" stroke-linejoin="round"/>
<path d="M266.625 183.477L267.351 185.717L268.496 183.477L269.42 184.597L270.85 184.97" fill="#4D1F1F"/>
<path d="M266.625 183.477L267.351 185.717L268.496 183.477L269.42 184.597L270.85 184.97" stroke="#4D1F1F" stroke-width="0.611306" stroke-linecap="round" stroke-linejoin="round"/>
<path d="M254.951 160.288L259.092 163.695L253.678 167.508L251.004 165.795L254.951 160.288Z" fill="#FFE28D" stroke="#FFE28D" stroke-width="0.305653" stroke-linecap="round" stroke-linejoin="round"/>
<path d="M244.664 163.273L246.248 164.363L241.377 170.221L240.516 168.753L242.496 163.897L244.664 163.273Z" fill="#FFE28D" stroke="#FFE28D" stroke-width="0.152826" stroke-linecap="round" stroke-linejoin="round"/>
<path d="M242.937 173.049L244.536 174.075L244.107 176.505L242.426 175.945L242.937 173.049Z" fill="#FFE28D" stroke="#FFE28D" stroke-width="0.152826" stroke-linecap="round" stroke-linejoin="round"/>
<path d="M246.651 179.028L248.582 179.494L249.6 177.161L251.44 182.108L245.941 183.044L246.651 179.028Z" fill="#FFE28D" stroke="#FFE28D" stroke-width="0.152826" stroke-linecap="round" stroke-linejoin="round"/>
<path d="M238.51 180.103L236.812 182.296L237.976 183.045L240.124 180.501L238.51 180.103Z" fill="#FFE28D" stroke="#FFE28D" stroke-width="0.152826" stroke-linecap="round" stroke-linejoin="round"/>
<path d="M253.73 176.039L255.359 178.466L256.597 177.818L254.094 173.983L253.73 176.039Z" fill="#FFE28D" stroke="#FFE28D" stroke-width="0.152826" stroke-linecap="round" stroke-linejoin="round"/>
<path d="M240.027 164.084L245.68 163.337L245.878 162.217L242.764 161.844L239.867 162.87L240.027 164.084Z" fill="#4D1F1F" stroke="#4D1F1F" stroke-width="0.611306" stroke-linecap="round" stroke-linejoin="round"/>
<path d="M257.025 164.268L259.896 165.481L257.465 170.244L255.539 169.497L257.025 164.268Z" fill="#4D1F1F" stroke="#4D1F1F" stroke-width="0.611306" stroke-linecap="round" stroke-linejoin="round"/>
<path d="M250.289 170.057L251.158 170.43L249.931 173.137L249.078 172.67L250.289 170.057Z" fill="#4D1F1F" stroke="#4D1F1F" stroke-width="0.611306" stroke-linecap="round" stroke-linejoin="round"/>
<path d="M257.031 176.407L254.594 180.141L255.006 180.98L258.208 177.154L257.031 176.407Z" fill="#4D1F1F" stroke="#4D1F1F" stroke-width="0.611306" stroke-linecap="round" stroke-linejoin="round"/>
<path d="M238.328 149.869H253.298" stroke="#FFE28D" stroke-width="0.305653" stroke-linecap="round" stroke-linejoin="round"/>
<path d="M238.727 147.629H246.212" stroke="#FFE28D" stroke-width="0.305653" stroke-linecap="round" stroke-linejoin="round"/>
<path d="M252.35 144.642H239.253L239.121 145.388H252.218L252.35 144.642Z" fill="#FF5C4D" stroke="#FF5C4D" stroke-width="0.305653" stroke-linecap="round" stroke-linejoin="round"/>
<path d="M249.136 141.656H239.78L239.648 142.403H249.004L249.136 141.656Z" fill="#FF5C4D" stroke="#FF5C4D" stroke-width="0.305653" stroke-linecap="round" stroke-linejoin="round"/>
<path d="M248.432 137.181H240.573L240.18 139.41H248.039L248.432 137.181Z" fill="#FFE28D" stroke="#FFE28D" stroke-width="0.305653" stroke-linecap="round" stroke-linejoin="round"/>
<path d="M268.265 137.181H251.05L250.656 139.41H267.871L268.265 137.181Z" fill="#FFE28D" stroke="#FFE28D" stroke-width="0.305653" stroke-linecap="round" stroke-linejoin="round"/>
<path d="M284.066 134.567V187.962L274.168 190.575L284.066 134.567Z" fill="#4D1F1F" stroke="#4D1F1F" stroke-width="0.611306" stroke-linecap="round" stroke-linejoin="round"/>
<path d="M274.168 190.575L284.066 134.567" stroke="#00BFE6" stroke-width="0.611306" stroke-linecap="round" stroke-linejoin="round"/>
<path d="M311.577 80.7764L316.311 109.13C316.754 111.776 319.048 113.717 321.739 113.717H334.423C337.113 113.717 339.407 111.776 339.85 109.13L344.585 80.7764H311.574H311.577Z" fill="#FBFCF9" stroke="#C4F5F5" stroke-width="0.611306" stroke-linecap="round" stroke-linejoin="round"/>
<path d="M347.136 71.2716L350.817 67.305C352.027 66.0011 351.458 63.8847 349.758 63.3604L344.583 61.7627L345.785 56.4922C346.182 54.7601 344.627 53.2119 342.891 53.6044L337.61 54.804L336.009 49.6405C335.483 47.9441 333.362 47.3759 332.056 48.5837L328.081 52.2566L324.106 48.5837C322.799 47.3759 320.678 47.9441 320.153 49.6405L318.552 54.804L313.27 53.6044C311.534 53.2091 309.983 54.7601 310.376 56.4922L311.578 61.7627L306.404 63.3604C304.704 63.8847 304.134 66.0011 305.345 67.305L309.026 71.2716L305.345 75.2382C304.134 76.5421 304.704 78.6586 306.404 79.1829L311.578 80.7805H344.583L349.758 79.1829C351.458 78.6586 352.027 76.5421 350.817 75.2382L347.136 71.2716Z" fill="#C4F5F5" stroke="#C4F5F5" stroke-width="0.611306" stroke-linecap="round" stroke-linejoin="round"/>
<path d="M309.023 71.2713L313.527 73.8654C314.236 74.2744 315.125 73.7639 315.125 72.9458V69.5969C315.125 68.7788 314.236 68.2682 313.527 68.6773L309.023 71.2713Z" fill="#FBFCF9" stroke="#FBFCF9" stroke-width="0.611306" stroke-linecap="round" stroke-linejoin="round"/>
<path d="M347.133 71.2713L342.63 68.6773C341.92 68.2682 341.031 68.7788 341.031 69.5969V72.9458C341.031 73.7639 341.92 74.2744 342.63 73.8654L347.133 71.2713Z" fill="#FBFCF9" stroke="#FBFCF9" stroke-width="0.611306" stroke-linecap="round" stroke-linejoin="round"/>
<path d="M337.606 54.8066L333.103 57.4007C332.393 57.8097 332.393 58.8336 333.103 59.2427L336.007 60.9172C336.717 61.3262 337.606 60.8156 337.606 59.9976V54.8066Z" fill="#FBFCF9" stroke="#FBFCF9" stroke-width="0.611306" stroke-linecap="round" stroke-linejoin="round"/>
<path d="M318.555 54.8066V59.9976C318.555 60.8156 319.443 61.3262 320.153 60.9172L323.058 59.2427C323.768 58.8336 323.768 57.8097 323.058 57.4007L318.555 54.8066Z" fill="#FBFCF9" stroke="#FBFCF9" stroke-width="0.611306" stroke-linecap="round" stroke-linejoin="round"/>
<path d="M311.578 80.7764H344.58" stroke="#00BFE6" stroke-width="0.611306" stroke-linecap="round" stroke-linejoin="round"/>
<path d="M369.344 70.4331L358.508 68.5264L350.865 111.78L361.701 113.687L369.344 70.4331Z" fill="#C4F5F5" stroke="#C4F5F5" stroke-width="0.611306" stroke-linecap="round" stroke-linejoin="round"/>
<path d="M350.863 111.78L361.699 113.685L369.344 70.4307" stroke="#00BFE6" stroke-width="0.611306" stroke-linecap="round" stroke-linejoin="round"/>
<path d="M369.344 70.4307V113.712L361.699 113.685L369.344 70.4307Z" fill="#00BFE6" stroke="#00BFE6" stroke-width="0.611306" stroke-linecap="round" stroke-linejoin="round"/>
<path d="M380.347 113.715H369.344V64.3037H380.347" fill="#FBFCF9"/>
<path d="M380.347 113.715H369.344V64.3037H380.347" stroke="#C4F5F5" stroke-width="0.611306" stroke-linecap="round" stroke-linejoin="round"/>
<path d="M165.626 93.1932L168.652 68.9131H151.223L154.249 93.1932H165.626Z" fill="#FBFCF9" stroke="#FBFCF9" stroke-width="0.611306" stroke-linecap="round" stroke-linejoin="round"/>
<path d="M151.223 68.9131L153.974 92.0951H165.626" stroke="#00BFE6" stroke-width="0.611306" stroke-linecap="round" stroke-linejoin="round"/>
<path d="M58.8039 165.403L56.3666 193.392C56.2181 195.107 57.5715 196.582 59.2991 196.582C60.7433 196.582 61.9729 195.536 62.204 194.114L66.853 165.4H58.8066L58.8039 165.403Z" fill="#FF5C4D" stroke="#FF5C4D" stroke-width="0.611306" stroke-linecap="round" stroke-linejoin="round"/>
<path d="M67.2966 162.656H59.044L58.8047 165.401H66.851L67.2966 162.656Z" fill="#4D1F1F" stroke="#4D1F1F" stroke-width="0.611306" stroke-linecap="round" stroke-linejoin="round"/>
<path d="M105.573 165.403L103.136 193.392C102.988 195.107 104.341 196.582 106.069 196.582C107.513 196.582 108.742 195.536 108.974 194.114L113.622 165.4H105.576L105.573 165.403Z" fill="#FF5C4D" stroke="#FF5C4D" stroke-width="0.611306" stroke-linecap="round" stroke-linejoin="round"/>
<path d="M114.066 162.656H105.814L105.574 165.401H113.621L114.066 162.656Z" fill="#4D1F1F" stroke="#4D1F1F" stroke-width="0.611306" stroke-linecap="round" stroke-linejoin="round"/>
<path d="M161.695 162.648H169.948L170.187 165.394H162.141L161.695 162.648Z" fill="#4D1F1F" stroke="#4D1F1F" stroke-width="0.611306" stroke-linecap="round" stroke-linejoin="round"/>
<path d="M170.19 165.395L172.627 193.384C172.776 195.1 171.422 196.574 169.695 196.574C168.25 196.574 167.021 195.528 166.79 194.106L162.141 165.393H170.187L170.19 165.395Z" fill="#4D1F1F" stroke="#4D1F1F" stroke-width="0.611306" stroke-linecap="round" stroke-linejoin="round"/>
<path d="M114.938 162.648H123.19L123.429 165.394H115.383L114.938 162.648Z" fill="#4D1F1F" stroke="#4D1F1F" stroke-width="0.611306" stroke-linecap="round" stroke-linejoin="round"/>
<path d="M123.428 165.395L125.865 193.384C126.014 195.1 124.66 196.574 122.933 196.574C121.489 196.574 120.259 195.528 120.028 194.106L115.379 165.393H123.425L123.428 165.395Z" fill="#4D1F1F" stroke="#4D1F1F" stroke-width="0.611306" stroke-linecap="round" stroke-linejoin="round"/>
<path d="M122.418 166.491L124.767 193.478" stroke="#FF5C4D" stroke-width="0.611306" stroke-linecap="round" stroke-linejoin="round"/>
<path d="M152.409 82.8242L153.702 93.195H116.961L117.013 74.7646L140.731 82.2724C142.552 82.8489 144.547 82.3849 145.925 81.0646L147.57 79.4862C148.56 78.5364 149.878 78.0066 151.251 78.0066H158.455C158.969 78.0066 159.385 78.4238 159.385 78.9344C159.385 80.2603 158.469 81.4132 157.173 81.7151L152.403 82.8242" fill="#FFBB99"/>
<path d="M57.5218 93.2002H173.947C177.35 93.2002 180.04 96.0742 179.809 99.4616L176.5 148.107C175.941 156.298 169.122 162.661 160.891 162.661H59.9041C51.2388 162.661 43.839 156.424 42.3865 147.901L30.2414 76.6282C29.4877 72.2114 32.8988 68.1816 37.3882 68.1816H53.7311L57.5191 93.2029L57.5218 93.2002Z" fill="#FFE28D"/>
<path d="M45.4494 68.1709H37.3921C32.9027 68.1709 29.4916 72.2006 30.2453 76.6175L42.3904 147.89C43.8429 156.414 51.2455 162.65 59.908 162.65H160.895C169.123 162.65 175.945 156.29 176.504 148.096L179.813 99.4509C180.044 96.0635 177.351 93.1894 173.951 93.1894H143.994" stroke="#FF5C4D" stroke-width="0.611306" stroke-linecap="round" stroke-linejoin="round"/>
<path d="M160.895 162.654H59.9082C51.2429 162.654 43.8431 156.417 42.3906 147.894" stroke="#4D1F1F" stroke-width="0.611306" stroke-linecap="round" stroke-linejoin="round"/>
<path d="M163.505 119.185H167.463C170.649 119.185 173.232 121.762 173.232 124.941V136.209C173.232 139.388 170.649 141.966 167.463 141.966H159.387" stroke="#FF5C4D" stroke-width="0.611306" stroke-linecap="round" stroke-linejoin="round"/>
<path d="M82.3626 9.75448C87.4655 11.8599 94.2491 20.2955 85.152 38.1192H80.7423V50.203H58.1797L63.0047 8.11293L75.2103 3.7373L82.3626 9.75723V9.75448Z" fill="#FFBB99"/>
<path d="M61.847 44.8319L59.2088 44.8484L53.5916 51.2471C52.1254 47.5166 51.8916 43.3139 52.9369 39.4434C53.9822 35.5728 56.1554 31.7901 59.3024 29.2976C55.8391 26.0804 53.476 21.3342 54.3948 16.7472C55.1293 13.0853 57.7427 10.1755 60.3697 7.63083C62.906 5.174 65.291 2.10502 68.5948 0.587003C71.4282 -0.714157 74.9081 -0.560434 77.6149 0.979547C77.758 1.0619 77.8873 1.16072 78.0248 1.24856C88.9513 4.60029 87.5373 14.3315 87.5373 14.3315C86.1151 12.1959 82.5995 9.45081 79.5075 8.75082C78.3604 8.49004 77.1666 8.4269 76.0029 8.58337C69.742 9.41238 67.2111 14.8421 67.2001 20.2636L63.8908 18.5507C62.928 20.0852 62.4109 26.6486 67.5247 27.0906L67.544 39.103C67.5495 42.2516 65.005 44.81 61.8497 44.8319H61.847Z" fill="#FF5C4D"/>
<path d="M75.2109 9.57314C73.775 8.22257 71.6513 7.77512 69.7587 8.38178C67.0958 9.23275 65.4976 11.8708 63.1511 13.3696C60.8926 14.8107 57.9107 15.099 55.4102 14.1162" stroke="#4D1F1F" stroke-width="0.611306" stroke-linecap="round" stroke-linejoin="round"/>
<path d="M49.927 32.7135L47.8281 30.3418" stroke="#4D1F1F" stroke-width="0.611306" stroke-linecap="round" stroke-linejoin="round"/>
<path d="M90.325 44.6367H57.6336C54.151 44.6367 50.8225 46.0614 48.421 48.5759C45.5683 51.5625 44.3497 55.7432 45.1447 59.7895L50.6079 87.5173C51.2571 90.8142 54.1538 93.1941 57.5236 93.1941H117.017V72.7434C117.017 71.7936 116.502 70.9207 115.672 70.4568L112.904 68.9168L102.951 51.8809C100.333 47.3983 95.5241 44.6395 90.325 44.6395V44.6367Z" fill="#00BFE6"/>
<path d="M95.2031 55.7246L106.047 71.7036C106.047 71.7036 106.113 75.7197 103.412 79.258" stroke="#4D1F1F" stroke-width="0.611306" stroke-linecap="round" stroke-linejoin="round"/>
<path d="M82.2539 21.8555L87.1835 24.2629L82.3474 27.7162" stroke="#4D1F1F" stroke-width="0.611306" stroke-linecap="round" stroke-linejoin="round"/>
<path d="M80.7422 38.1162V45.2726" stroke="#4D1F1F" stroke-width="0.611306" stroke-linecap="round" stroke-linejoin="round"/>
<path d="M65.8672 22.5195C66.8988 23.5874 67.5095 25.0368 67.548 26.5081" stroke="#4D1F1F" stroke-width="0.611306" stroke-linecap="round" stroke-linejoin="round"/>
<path d="M47.1263 38.9906L44.0508 38.1533" stroke="#4D1F1F" stroke-width="0.611306" stroke-linecap="round" stroke-linejoin="round"/>
<path d="M79.0533 15.1762C76.8169 14.0095 74.7592 14.5586 73.2188 16.0162" stroke="#FF5B4D" stroke-width="0.611306" stroke-linecap="round" stroke-linejoin="round"/>
<path d="M78.8019 19.3876C78.2077 18.7343 77.3219 18.3555 76.4362 18.3747C75.5504 18.3939 74.6839 18.8112 74.1172 19.4892" stroke="#4D1F1F" stroke-width="0.611306" stroke-linecap="round" stroke-linejoin="round"/>
<path d="M88.8488 19.3876C88.2546 18.7343 87.3688 18.3555 86.4831 18.3747C85.5973 18.3939 84.7307 18.8112 84.1641 19.4892" stroke="#4D1F1F" stroke-width="0.611306" stroke-linecap="round" stroke-linejoin="round"/>
<path d="M105.781 64.27L113.72 43.9565C113.979 43.295 113.489 42.5812 112.777 42.584L101.622 42.6142C100.835 42.6142 100.131 43.0973 99.845 43.8303L91.906 64.1437C91.6474 64.8053 92.137 65.519 92.8495 65.5163L104.004 65.4861C104.791 65.4861 105.495 65.0029 105.781 64.27Z" fill="#4D1F1F" stroke="#4D1F1F" stroke-width="0.611306" stroke-linecap="round" stroke-linejoin="round"/>
<path d="M106.711 54.8172L94.1337 58.4544L95.2037 55.7176L92.1668 56.1541C91.1325 56.3023 90.2494 56.9721 89.8313 57.9274L87.416 63.3214C86.7751 64.7516 85.7297 65.9622 84.4065 66.8076L64.5205 79.4898C59.3076 87.9611 65.112 93.1932 65.112 93.1932H67.3347C70.3854 93.1932 73.2985 91.9332 75.3837 89.7125L89.3169 74.8726C90.3044 73.8213 91.5698 73.0719 92.97 72.7123L100.045 70.8923C100.926 70.6672 101.718 70.1923 102.334 69.5253L108.174 63.1979C108.716 62.6104 108.98 61.8199 108.9 61.0265L108.389 55.9509C108.306 55.1329 107.5 54.5921 106.711 54.82V54.8172Z" fill="#FFBB99"/>
<path d="M98.0312 61.4887L108.523 57.2695" stroke="#FF5C4D" stroke-width="0.611306" stroke-linecap="round" stroke-linejoin="round"/>
<path d="M99.5625 65.7507L108.797 60.0547" stroke="#FF5C4D" stroke-width="0.611306" stroke-linecap="round" stroke-linejoin="round"/>
<path d="M65.112 93.1968C65.112 93.1968 59.3076 87.9647 64.5205 79.4962L64.7846 77.8876C64.9771 76.7045 64.6856 75.4939 63.9758 74.5276L63.0515 73.2677L63.731 60.0557" stroke="#4D1F1F" stroke-width="0.611306" stroke-linecap="round" stroke-linejoin="round"/>
<path d="M99.8474 43.8271L94.1311 58.4528L106.708 54.8156C107.498 54.5878 108.304 55.1286 108.386 55.9466L108.898 61.0222C108.978 61.8156 108.713 62.6061 108.172 63.1936L102.331 69.5209C101.718 70.188 100.923 70.6629 100.043 70.888L92.9674 72.708C91.57 73.0676 90.3019 73.817 89.3143 74.8683L75.3811 89.7081C73.296 91.9289 70.3828 93.1889 67.3321 93.1889H65.1094" stroke="#4D1F1F" stroke-width="0.611306" stroke-linecap="round" stroke-linejoin="round"/>
<path d="M123.718 136.208V124.94C123.718 121.761 121.135 119.183 117.949 119.183H113.674L108.918 103.322L119.272 137.858C119.641 139.082 120.389 140.114 121.368 140.836C122.791 139.788 123.718 138.108 123.718 136.208Z" fill="#FF5C4D"/>
<path d="M141.956 94.4863L145.832 95.9495L161.76 94.9804C163.006 94.9036 164.252 95.1012 165.413 95.5596L182.936 102.461C185.106 103.314 186.416 105.532 186.116 107.841C185.769 110.507 183.403 112.445 180.716 112.258L162.167 110.981C160.665 110.877 159.218 110.38 157.972 109.54L147.914 102.754L139.266 101.171L141.953 94.4918L141.956 94.4863Z" fill="#4D1F1F" stroke="#4D1F1F" stroke-width="0.611306" stroke-linecap="round" stroke-linejoin="round"/>
<path d="M140.554 90.71L151.222 95.4123C151.767 95.6511 152.361 95.7581 152.952 95.7224L157.332 95.4562C158.294 95.3985 159.26 95.5495 160.16 95.9036L173.724 101.246C175.405 101.907 176.417 103.623 176.186 105.41C175.919 107.474 174.087 108.973 172.005 108.83L157.648 107.842C156.487 107.762 155.368 107.378 154.402 106.727L151.076 104.482C150.578 104.147 150.006 103.936 149.409 103.867L137.977 102.574L140.554 90.71Z" fill="#FFBB99"/>
<path d="M162.375 112.088L175.511 162.649H156.401L142.404 122.923C141.615 120.68 139.491 119.181 137.106 119.181H113.671L107.578 99.3428L152.426 103.62C157.196 104.075 161.171 107.457 162.373 112.088H162.375Z" fill="#FF5C4D"/>
<path d="M147.318 110.065C154.696 103.968 149.29 94.2423 149.29 94.2423L110.591 77.9942C107.045 76.5064 103.045 76.3719 99.4609 77.7582C91.9511 80.6652 91.8438 87.6431 91.8438 87.6431V93.1964H101.59C104.14 93.1964 106.385 94.8654 107.117 97.303L108.231 101.02L142.179 111.091C143.956 111.619 145.89 111.245 147.318 110.065Z" fill="#FF5C4D"/>
<path d="M186.919 187.605L179.923 176.523C178.842 174.81 178.328 172.996 177.882 170.901L175.511 162.663H163.195L166.565 170.275C166.67 170.772 166.725 171.28 166.725 171.788V175.318L180.6 190.564L186.919 187.602V187.605Z" fill="#FFBB99"/>
<path d="M166.723 175.316V171.786C166.723 171.278 166.671 170.771 166.563 170.274L161.859 159.65" stroke="#FF5C4D" stroke-width="0.611306" stroke-linecap="round" stroke-linejoin="round"/>
<path d="M186.919 187.603H182.602C180.655 187.603 178.784 186.859 177.395 185.53L166.727 175.318C166.092 175.865 165.756 176.62 165.726 177.394H165.715L165.723 177.457C165.718 177.698 165.74 177.943 165.8 178.181L167.737 196.59L169.404 183.894L175.676 193.279C177.054 195.344 179.417 196.59 181.95 196.59H195.323C196.244 196.59 196.99 195.865 196.99 194.97L186.919 187.608V187.603Z" fill="#4D1F1F" stroke="#4D1F1F" stroke-width="0.611306" stroke-linecap="round" stroke-linejoin="round"/>
<path d="M175.511 162.664H163.195L164.849 166.397L175.511 162.664Z" fill="#FF5C4D" stroke="#FF5C4D" stroke-width="0.611306" stroke-linecap="round" stroke-linejoin="round"/>
<path d="M149.29 94.2441C149.29 94.2441 154.695 103.97 147.318 110.067C145.89 111.247 143.956 111.62 142.179 111.093L108.23 101.022" stroke="#4D1F1F" stroke-width="0.611306" stroke-linecap="round" stroke-linejoin="round"/>
<path d="M175.51 162.655H156.4L142.403 122.929C141.614 120.686 139.49 119.187 137.105 119.187H113.67L107.109 97.3037" stroke="#4D1F1F" stroke-width="0.611306" stroke-linecap="round" stroke-linejoin="round"/>
<path d="M149.115 141.972H124.8C122.25 141.972 120.005 140.303 119.274 137.865L107.115 97.3066C106.383 94.869 104.138 93.2 101.588 93.2H57.0873C52.0202 93.2 47.352 90.4604 44.8872 86.0436L38.1641 73.9873" stroke="#FF5C4D" stroke-width="0.611306" stroke-linecap="round" stroke-linejoin="round"/>
<path d="M142.701 123.758L144.819 129.77C145.193 130.832 145.386 131.952 145.386 133.08V136.212C145.386 139.391 142.803 141.969 139.617 141.969H149.119L142.704 123.758H142.701Z" fill="#4D1F1F" stroke="#4D1F1F" stroke-width="0.611306" stroke-linecap="round" stroke-linejoin="round"/>
<path d="M120.427 162.656C111.762 162.656 104.362 156.419 102.909 147.896L94.1094 96.2529" stroke="#FF5C4D" stroke-width="0.611306" stroke-linecap="round" stroke-linejoin="round"/>
<path d="M143.986 143.947L146.52 159.942C146.745 161.367 145.642 162.655 144.198 162.655H156.407L149.117 141.968H140.922H141.665C142.82 141.968 143.805 142.808 143.986 143.947Z" fill="#4D1F1F" stroke="#4D1F1F" stroke-width="0.611306" stroke-linecap="round" stroke-linejoin="round"/>
<path d="M138.387 141.967H148.018" stroke="#FF5C4D" stroke-width="0.611306" stroke-linecap="round" stroke-linejoin="round"/>
<path d="M163.552 64.5696C166.743 62.0936 169.043 58.4975 169.948 54.5666C170.853 50.6357 170.364 46.4 168.581 42.7793C168.322 42.2522 168.02 41.7197 167.536 41.3875C167.051 41.0554 166.339 40.9868 165.902 41.3793C165.552 41.695 165.467 42.2083 165.464 42.6805C165.442 45.3624 167.437 47.7973 169.923 48.8239C172.407 49.8506 175.263 49.6474 177.824 48.8322C180.352 48.0279 182.742 46.6032 184.338 44.4867C186.957 41.0087 187.02 35.966 184.918 32.1532C182.817 28.3403 178.811 25.7681 174.539 24.8925C170.27 24.0168 165.775 24.725 161.729 26.3419C157.682 27.9587 154.04 30.4512 150.656 33.1963" stroke="#FBFCF9" stroke-width="0.611306" stroke-linecap="round" stroke-linejoin="round"/>
<path d="M159.39 78.9346C159.39 80.2604 158.474 81.4134 157.178 81.7153L152.408 82.8243C152.325 84.7239 151.137 87.027 149.641 88.2019" stroke="#FF5C4D" stroke-width="0.611306" stroke-linecap="round" stroke-linejoin="round"/>
<path d="M145.66 75.2251L142.32 73.3447" stroke="#FFBB99" stroke-width="0.611306" stroke-linecap="round" stroke-linejoin="round"/>
<path d="M42.3906 147.894C43.8431 156.417 51.2457 162.654 59.9082 162.654H156.406" stroke="#4D1F1F" stroke-width="0.611306" stroke-linecap="round" stroke-linejoin="round"/>
<path d="M87.9793 15.4076C86.5874 14.326 84.4444 14.2162 83.0938 15.3362" stroke="#FF5B4D" stroke-width="0.611306" stroke-linecap="round" stroke-linejoin="round"/>
<path d="M74.6836 29.1426C75.6932 30.3971 77.4867 30.9571 79.0327 30.5069" stroke="#4D1F1F" stroke-width="0.611306" stroke-linecap="round" stroke-linejoin="round"/>
<path d="M59.3203 6.3625C62.5141 5.44839 64.8248 3.36763 67.4546 1.49825C69.9387 -0.269574 73.3085 -0.848783 76.1886 0.210811C82.9805 2.70882 82.3671 9.75814 82.3671 9.75814C87.47 11.8636 94.2536 20.2992 85.1565 38.1229H77.2917C74.7032 38.1229 72.3319 36.6817 71.1436 34.3896" stroke="#4D1F1F" stroke-width="0.611306" stroke-linecap="round" stroke-linejoin="round"/>
<path d="M56.3705 193.386C56.222 195.102 57.5754 196.576 59.303 196.576C60.7472 196.576 61.9768 195.53 62.2079 194.108L66.8569 165.395" stroke="#4D1F1F" stroke-width="0.611306" stroke-linecap="round" stroke-linejoin="round"/>
<path d="M103.128 193.386C102.98 195.102 104.333 196.576 106.061 196.576C107.505 196.576 108.735 195.53 108.966 194.108L113.615 165.395" stroke="#4D1F1F" stroke-width="0.611306" stroke-linecap="round" stroke-linejoin="round"/>
<path d="M63.0509 73.2617C63.0509 73.2617 57.9508 73.9645 55.6016 80.5059" stroke="#4D1F1F" stroke-width="0.611306" stroke-linecap="round" stroke-linejoin="round"/>
<path d="M109.945 74.9577L112.908 68.9131" stroke="#4D1F1F" stroke-width="0.611306" stroke-linecap="round" stroke-linejoin="round"/>
<path d="M343.156 44.9438L344.496 41.5234" stroke="#C4F5F5" stroke-width="0.611306" stroke-linecap="round" stroke-linejoin="round"/>
<path d="M352.984 56.6833L355.964 54.6025" stroke="#C4F5F5" stroke-width="0.611306" stroke-linecap="round" stroke-linejoin="round"/>
<path d="M291.332 81.4989L289.695 78.2295" stroke="#FBFCF9" stroke-width="0.611306" stroke-linecap="round" stroke-linejoin="round"/>
</svg>
