<svg width="365" height="217" viewBox="0 0 365 217" fill="none" xmlns="http://www.w3.org/2000/svg">
<path d="M363.997 196.237H201.074V206.74H363.997V196.237Z" fill="#4D1F1F" stroke="#4D1F1F" stroke-width="1.0514" stroke-linecap="round" stroke-linejoin="round"/>
<path d="M1 204.114H363.999" stroke="#4D1F1F" stroke-width="1.0514" stroke-linecap="round" stroke-linejoin="round"/>
<path d="M363.986 196.239H211.574L201.062 206.741V135.848H363.986" fill="#FBFCF9"/>
<path d="M363.986 196.239H211.574L201.062 206.741V135.848H363.986" stroke="#C4F5F5" stroke-width="1.0514" stroke-linecap="round" stroke-linejoin="round"/>
<path d="M290.414 143.728V196.241" stroke="#C4F5F5" stroke-width="1.0514" stroke-linecap="round" stroke-linejoin="round"/>
<path d="M363.986 143.725H201.062V135.848H363.986" fill="#FBFCF9"/>
<path d="M363.986 143.725H201.062V135.848H363.986" stroke="#C4F5F5" stroke-width="1.0514" stroke-linecap="round" stroke-linejoin="round"/>
<path d="M363.986 196.24H211.574L201.062 206.743" stroke="#00BFE6" stroke-width="1.0514" stroke-linecap="round" stroke-linejoin="round"/>
<path d="M284.857 15.0762H42.1406V125.608H284.857V15.0762Z" fill="#C4F5F5" stroke="#C4F5F5" stroke-width="1.0514" stroke-linecap="round" stroke-linejoin="round"/>
<path d="M195.32 83.7926V81.8154" stroke="#00BFE6" stroke-width="1.0514" stroke-linecap="round" stroke-linejoin="round"/>
<path d="M199.141 85.5121L201.078 83.2383" stroke="#00BFE6" stroke-width="1.0514" stroke-linecap="round" stroke-linejoin="round"/>
<path d="M225.691 110.348L219.239 108.825L206.227 103.295C203.491 102.132 201.278 100.147 199.82 97.7025C198.582 95.6282 197.891 93.7455 197.891 91.2275V90.7024C197.891 90.7024 198.041 87.499 195.014 87.499C194.32 87.499 193.634 87.6907 193.035 88.0373C192.155 88.5467 191.603 89.4735 191.571 90.4844C190.499 91.6266 190.223 93.1364 190.37 95.812L191.056 94.0606C191.169 93.7744 191.348 93.5434 191.566 93.3701C191.566 93.8689 191.566 94.3731 191.566 94.8641C191.566 96.9725 191.259 99.0652 190.654 101.103C190.536 101.497 190.41 101.89 190.271 102.282L190.218 102.431C189.043 105.716 189.519 109.19 191.219 111.947C192.281 113.669 193.823 115.111 195.736 116.051H195.729L200.022 118.238C201.058 118.766 201.709 119.829 201.709 120.99C201.709 121.323 201.851 121.623 202.077 121.835V122.457C202.077 122.983 201.728 123.442 201.223 123.587L198.259 124.419C198.057 124.477 197.915 124.66 197.915 124.873C197.915 125.133 198.125 125.346 198.388 125.346H207.109C207.414 125.346 207.659 125.099 207.659 124.797C207.659 124.542 207.483 124.319 207.233 124.261L206.836 124.169C206.463 124.083 206.198 123.749 206.198 123.366V121.974C206.366 121.869 206.508 121.722 206.605 121.544L207.128 120.575C207.622 119.658 208.297 118.852 209.112 118.206L212.507 115.513L212.557 115.473C214.678 115.316 216.698 114.58 218.409 113.373H221.599C223.228 113.373 224.805 112.782 226.032 111.711C226.513 111.29 226.319 110.505 225.696 110.358L225.691 110.348Z" fill="#00BFE6" stroke="#00BFE6" stroke-width="1.0514" stroke-linecap="round" stroke-linejoin="round"/>
<path d="M199.873 100.93C198.551 101.397 197.413 102.369 196.743 103.603C195.216 106.415 196.433 109.938 198.806 111.866C200.127 112.94 201.709 113.575 203.299 114.069C206.224 114.977 209.262 115.452 212.302 115.481" stroke="#C4F5F5" stroke-width="1.0514" stroke-linecap="round" stroke-linejoin="round"/>
<path d="M64.5586 41.3223H285.293" stroke="#FBFCF9" stroke-width="1.0514" stroke-linecap="round" stroke-linejoin="round"/>
<path d="M211.711 15.0645V125.344" stroke="#FBFCF9" stroke-width="1.0514" stroke-linecap="round" stroke-linejoin="round"/>
<path d="M138.133 15.0645V125.344" stroke="#FBFCF9" stroke-width="1.0514" stroke-linecap="round" stroke-linejoin="round"/>
<path d="M285.293 125.346H64.5586" stroke="#00BFE6" stroke-width="1.0514" stroke-linecap="round" stroke-linejoin="round"/>
<path d="M285.153 135.843L279.897 130.591H227.342L222.086 135.843V125.34H285.153V135.843Z" fill="#FBFCF9" stroke="#C4F5F5" stroke-width="1.0514" stroke-linecap="round" stroke-linejoin="round"/>
<path d="M222.086 125.34H285.153" stroke="#00BFE6" stroke-width="1.0514" stroke-linecap="round" stroke-linejoin="round"/>
<path d="M306.163 135.837L300.907 130.585H290.396L285.141 135.837V125.334H306.163V135.837Z" fill="#FBFCF9" stroke="#C4F5F5" stroke-width="1.0514" stroke-linecap="round" stroke-linejoin="round"/>
<path d="M285.153 112.21H222.086V125.338H285.153H306.175V112.21H285.153Z" fill="#C4F5F5" stroke="#C4F5F5" stroke-width="1.0514" stroke-linecap="round" stroke-linejoin="round"/>
<path d="M222.086 125.334H306.175" stroke="#00BFE6" stroke-width="1.0514" stroke-linecap="round" stroke-linejoin="round"/>
<path d="M295.653 121.402H232.586V125.341H295.653V121.402Z" fill="#4D1F1F" stroke="#4D1F1F" stroke-width="1.0514" stroke-linecap="round" stroke-linejoin="round"/>
<path d="M264.931 116.149H295.653V121.401H232.586" stroke="#00BFE6" stroke-width="1.0514" stroke-linecap="round" stroke-linejoin="round"/>
<path d="M264.938 121.401L270.193 118.775V116.149H264.938V121.401Z" fill="#00BFE6" stroke="#00BFE6" stroke-width="1.0514" stroke-linecap="round" stroke-linejoin="round"/>
<path d="M284.866 125.339L285.153 112.211H222.086V125.339" stroke="#FBFCF9" stroke-width="1.0514" stroke-linecap="round" stroke-linejoin="round"/>
<path d="M306.179 125.339V112.211H285.156V125.339" stroke="#FBFCF9" stroke-width="1.0514" stroke-linecap="round" stroke-linejoin="round"/>
<path d="M222.086 135.849L227.342 130.598H279.897L285.153 135.849H222.086Z" fill="#00BFE6" stroke="#00BFE6" stroke-width="1.0514" stroke-linecap="round" stroke-linejoin="round"/>
<path d="M285.141 135.849L290.396 130.598H300.907L306.163 135.849H285.141Z" fill="#00BFE6" stroke="#00BFE6" stroke-width="1.0514" stroke-linecap="round" stroke-linejoin="round"/>
<path d="M272.051 155.793H218.437L208.984 209.365H262.597L272.051 155.793Z" fill="#4D1F1F" stroke="#4D1F1F" stroke-width="1.0514" stroke-linecap="round" stroke-linejoin="round"/>
<path d="M250.549 206.864H221.961L227.95 172.927H256.537L250.549 206.864Z" fill="#FF5C4D" stroke="#FF5C4D" stroke-width="0.525699" stroke-linecap="round" stroke-linejoin="round"/>
<path d="M260.983 203.295C260.636 205.266 258.752 206.866 256.778 206.866C254.805 206.866 253.486 205.266 253.833 203.295C254.18 201.323 256.064 199.724 258.037 199.724C260.011 199.724 261.33 201.323 260.983 203.295Z" fill="#4D1F1F" stroke="#4D1F1F" stroke-width="1.0514" stroke-linecap="round" stroke-linejoin="round"/>
<path d="M255.41 202.578L256.104 204.721L257.197 202.578L258.08 203.649L259.446 204.007" fill="#4D1F1F"/>
<path d="M255.41 202.578L256.104 204.721L257.197 202.578L258.08 203.649L259.446 204.007" stroke="#4D1F1F" stroke-width="1.0514" stroke-linecap="round" stroke-linejoin="round"/>
<path d="M244.236 180.4L248.191 183.659L243.019 187.306L240.465 185.668L244.236 180.4Z" fill="#FFE28D" stroke="#FFE28D" stroke-width="0.525699" stroke-linecap="round" stroke-linejoin="round"/>
<path d="M234.416 183.254L235.929 184.296L231.276 189.9L230.453 188.495L232.345 183.85L234.416 183.254Z" fill="#FFE28D" stroke="#FFE28D" stroke-width="0.26285" stroke-linecap="round" stroke-linejoin="round"/>
<path d="M232.755 192.603L234.282 193.585L233.872 195.908L232.266 195.373L232.755 192.603Z" fill="#FFE28D" stroke="#FFE28D" stroke-width="0.26285" stroke-linecap="round" stroke-linejoin="round"/>
<path d="M236.319 198.32L238.163 198.766L239.136 196.534L240.894 201.266L235.641 202.161L236.319 198.32Z" fill="#FFE28D" stroke="#FFE28D" stroke-width="0.26285" stroke-linecap="round" stroke-linejoin="round"/>
<path d="M228.54 199.347L226.918 201.445L228.03 202.161L230.083 199.727L228.54 199.347Z" fill="#FFE28D" stroke="#FFE28D" stroke-width="0.26285" stroke-linecap="round" stroke-linejoin="round"/>
<path d="M243.082 195.462L244.638 197.783L245.821 197.163L243.429 193.495L243.082 195.462Z" fill="#FFE28D" stroke="#FFE28D" stroke-width="0.26285" stroke-linecap="round" stroke-linejoin="round"/>
<path d="M229.992 184.023L235.392 183.309L235.582 182.238L232.607 181.881L229.84 182.863L229.992 184.023Z" fill="#4D1F1F" stroke="#4D1F1F" stroke-width="1.0514" stroke-linecap="round" stroke-linejoin="round"/>
<path d="M246.22 184.204L248.963 185.365L246.64 189.92L244.801 189.206L246.22 184.204Z" fill="#4D1F1F" stroke="#4D1F1F" stroke-width="1.0514" stroke-linecap="round" stroke-linejoin="round"/>
<path d="M239.805 189.741L240.636 190.098L239.463 192.687L238.648 192.241L239.805 189.741Z" fill="#4D1F1F" stroke="#4D1F1F" stroke-width="1.0514" stroke-linecap="round" stroke-linejoin="round"/>
<path d="M246.243 195.814L243.914 199.385L244.308 200.189L247.368 196.529L246.243 195.814Z" fill="#4D1F1F" stroke="#4D1F1F" stroke-width="1.0514" stroke-linecap="round" stroke-linejoin="round"/>
<path d="M228.352 170.432H242.652" stroke="#FFE28D" stroke-width="0.525699" stroke-linecap="round" stroke-linejoin="round"/>
<path d="M228.766 168.281H235.916" stroke="#FFE28D" stroke-width="0.525699" stroke-linecap="round" stroke-linejoin="round"/>
<path d="M241.77 165.427H229.259L229.133 166.142H241.644L241.77 165.427Z" fill="#FF5C4D" stroke="#FF5C4D" stroke-width="0.525699" stroke-linecap="round" stroke-linejoin="round"/>
<path d="M238.68 162.572H229.743L229.617 163.287H238.554L238.68 162.572Z" fill="#FF5C4D" stroke="#FF5C4D" stroke-width="0.525699" stroke-linecap="round" stroke-linejoin="round"/>
<path d="M238.024 158.291H230.516L230.141 160.423H237.648L238.024 158.291Z" fill="#FFE28D" stroke="#FFE28D" stroke-width="0.525699" stroke-linecap="round" stroke-linejoin="round"/>
<path d="M256.949 158.291H240.505L240.129 160.423H256.574L256.949 158.291Z" fill="#FFE28D" stroke="#FFE28D" stroke-width="0.525699" stroke-linecap="round" stroke-linejoin="round"/>
<path d="M272.049 155.791V206.863L262.594 209.363L272.049 155.791Z" fill="#4D1F1F" stroke="#4D1F1F" stroke-width="1.0514" stroke-linecap="round" stroke-linejoin="round"/>
<path d="M262.594 209.363L272.049 155.791" stroke="#00BFE6" stroke-width="1.0514" stroke-linecap="round" stroke-linejoin="round"/>
<path d="M298.3 104.338L302.822 131.459C303.245 133.99 305.437 135.846 308.007 135.846H320.123C322.693 135.846 324.885 133.99 325.308 131.459L329.83 104.338H298.297H298.3Z" fill="#FBFCF9" stroke="#C4F5F5" stroke-width="1.0514" stroke-linecap="round" stroke-linejoin="round"/>
<path d="M332.269 95.2424L335.785 91.4482C336.941 90.201 336.397 88.1766 334.773 87.6751L329.83 86.147L330.978 81.1056C331.357 79.4488 329.872 77.9679 328.214 78.3434L323.169 79.4908L321.639 74.5519C321.137 72.9292 319.111 72.3857 317.863 73.541L314.066 77.0542L310.269 73.541C309.02 72.3857 306.995 72.9292 306.493 74.5519L304.963 79.4908L299.918 78.3434C298.26 77.9653 296.778 79.4488 297.153 81.1056L298.302 86.147L293.359 87.6751C291.735 88.1766 291.191 90.201 292.347 91.4482L295.863 95.2424L292.347 99.0365C291.191 100.284 291.735 102.308 293.359 102.81L298.302 104.338H329.83L334.773 102.81C336.397 102.308 336.941 100.284 335.785 99.0365L332.269 95.2424Z" fill="#C4F5F5" stroke="#C4F5F5" stroke-width="1.0514" stroke-linecap="round" stroke-linejoin="round"/>
<path d="M295.867 95.2431L300.169 97.7244C300.847 98.1156 301.696 97.6272 301.696 96.8448V93.6414C301.696 92.859 300.847 92.3706 300.169 92.7618L295.867 95.2431Z" fill="#FBFCF9" stroke="#FBFCF9" stroke-width="1.0514" stroke-linecap="round" stroke-linejoin="round"/>
<path d="M332.258 95.2431L327.956 92.7618C327.278 92.3706 326.43 92.859 326.43 93.6414V96.8448C326.43 97.6272 327.278 98.1156 327.956 97.7244L332.258 95.2431Z" fill="#FBFCF9" stroke="#FBFCF9" stroke-width="1.0514" stroke-linecap="round" stroke-linejoin="round"/>
<path d="M323.15 79.4941L318.848 81.9754C318.17 82.3667 318.17 83.346 318.848 83.7373L321.623 85.3389C322.301 85.7302 323.15 85.2418 323.15 84.4593V79.4941Z" fill="#FBFCF9" stroke="#FBFCF9" stroke-width="1.0514" stroke-linecap="round" stroke-linejoin="round"/>
<path d="M304.984 79.4941V84.4593C304.984 85.2418 305.833 85.7302 306.511 85.3389L309.286 83.7373C309.964 83.346 309.964 82.3667 309.286 81.9754L304.984 79.4941Z" fill="#FBFCF9" stroke="#FBFCF9" stroke-width="1.0514" stroke-linecap="round" stroke-linejoin="round"/>
<path d="M298.305 104.338H329.83" stroke="#00BFE6" stroke-width="1.0514" stroke-linecap="round" stroke-linejoin="round"/>
<path d="M353.48 94.4468L343.129 92.623L335.828 133.996L346.179 135.82L353.48 94.4468Z" fill="#C4F5F5" stroke="#C4F5F5" stroke-width="1.0514" stroke-linecap="round" stroke-linejoin="round"/>
<path d="M335.828 133.997L346.179 135.819L353.482 94.4463" stroke="#00BFE6" stroke-width="1.0514" stroke-linecap="round" stroke-linejoin="round"/>
<path d="M353.482 94.4463V135.846L346.18 135.819L353.482 94.4463Z" fill="#00BFE6" stroke="#00BFE6" stroke-width="1.0514" stroke-linecap="round" stroke-linejoin="round"/>
<path d="M364.003 135.847H353.492V88.585H364.003" fill="#FBFCF9"/>
<path d="M364.003 135.847H353.492V88.585H364.003" stroke="#C4F5F5" stroke-width="1.0514" stroke-linecap="round" stroke-linejoin="round"/>
<path d="M158.9 116.218L161.79 92.9941H145.141L148.031 116.218H158.9Z" fill="#FBFCF9" stroke="#FBFCF9" stroke-width="1.0514" stroke-linecap="round" stroke-linejoin="round"/>
<path d="M145.141 92.9941L147.768 115.168H158.9" stroke="#00BFE6" stroke-width="1.0514" stroke-linecap="round" stroke-linejoin="round"/>
<path d="M113.282 217C158.272 217 194.743 216.412 194.743 215.687C194.743 214.962 158.272 214.374 113.282 214.374C68.2919 214.374 31.8203 214.962 31.8203 215.687C31.8203 216.412 68.2919 217 113.282 217Z" fill="#4D1F1F" stroke="#4D1F1F" stroke-width="1.0514" stroke-linecap="round" stroke-linejoin="round"/>
<path d="M56.8623 185.29L54.5341 212.061C54.3922 213.702 55.6851 215.112 57.3353 215.112C58.7149 215.112 59.8895 214.112 60.1103 212.752L64.5512 185.287H56.8649L56.8623 185.29Z" fill="#FF5C4D" stroke="#FF5C4D" stroke-width="1.0514" stroke-linecap="round" stroke-linejoin="round"/>
<path d="M64.9714 182.662H57.088L56.8594 185.288H64.5457L64.9714 182.662Z" fill="#4D1F1F" stroke="#4D1F1F" stroke-width="1.0514" stroke-linecap="round" stroke-linejoin="round"/>
<path d="M101.558 185.29L99.2294 212.061C99.0875 213.702 100.38 215.112 102.031 215.112C103.41 215.112 104.585 214.112 104.806 212.752L109.247 185.287H101.56L101.558 185.29Z" fill="#FF5C4D" stroke="#FF5C4D" stroke-width="1.0514" stroke-linecap="round" stroke-linejoin="round"/>
<path d="M109.667 182.662H101.783L101.555 185.288H109.241L109.667 182.662Z" fill="#4D1F1F" stroke="#4D1F1F" stroke-width="1.0514" stroke-linecap="round" stroke-linejoin="round"/>
<path d="M155.172 182.665H163.055L163.284 185.291H155.598L155.172 182.665Z" fill="#4D1F1F" stroke="#4D1F1F" stroke-width="1.0514" stroke-linecap="round" stroke-linejoin="round"/>
<path d="M163.287 185.293L165.615 212.064C165.757 213.705 164.464 215.115 162.814 215.115C161.434 215.115 160.259 214.115 160.039 212.755L155.598 185.29H163.284L163.287 185.293Z" fill="#4D1F1F" stroke="#4D1F1F" stroke-width="1.0514" stroke-linecap="round" stroke-linejoin="round"/>
<path d="M110.492 182.664H118.376L118.604 185.29H110.918L110.492 182.664Z" fill="#4D1F1F" stroke="#4D1F1F" stroke-width="1.0514" stroke-linecap="round" stroke-linejoin="round"/>
<path d="M118.607 185.292L120.935 212.063C121.077 213.704 119.784 215.114 118.134 215.114C116.754 215.114 115.58 214.114 115.359 212.754L110.918 185.289H118.604L118.607 185.292Z" fill="#4D1F1F" stroke="#4D1F1F" stroke-width="1.0514" stroke-linecap="round" stroke-linejoin="round"/>
<path d="M117.652 186.338L119.897 212.151" stroke="#FF5C4D" stroke-width="1.0514" stroke-linecap="round" stroke-linejoin="round"/>
<path d="M146.284 106.3L147.519 116.22H112.422L112.472 98.5908L135.129 105.772C136.868 106.323 138.773 105.88 140.09 104.617L141.661 103.107C142.607 102.199 143.866 101.692 145.177 101.692H152.059C152.551 101.692 152.948 102.091 152.948 102.579C152.948 103.847 152.073 104.95 150.835 105.239L146.278 106.3" fill="#FFBB99"/>
<path d="M55.6442 116.223H166.86C170.111 116.223 172.681 118.972 172.46 122.212L169.299 168.742C168.765 176.577 162.251 182.663 154.389 182.663H57.9199C49.6423 182.663 42.5736 176.697 41.1861 168.545L29.5844 100.371C28.8644 96.1465 32.1228 92.292 36.4114 92.292H52.0231L55.6416 116.225L55.6442 116.223Z" fill="#FFE28D"/>
<path d="M44.116 92.2832H36.4192C32.1307 92.2832 28.8722 96.1377 29.5922 100.362L41.1939 168.536C42.5814 176.689 49.6528 182.654 57.9277 182.654H154.397C162.256 182.654 168.773 176.571 169.307 168.733L172.468 122.203C172.689 118.963 170.116 116.214 166.868 116.214H138.251" stroke="#FF5C4D" stroke-width="1.0514" stroke-linecap="round" stroke-linejoin="round"/>
<path d="M154.386 182.659H57.9174C49.6398 182.659 42.5711 176.694 41.1836 168.541" stroke="#4D1F1F" stroke-width="1.0514" stroke-linecap="round" stroke-linejoin="round"/>
<path d="M156.879 141.08H160.661C163.704 141.08 166.171 143.546 166.171 146.586V157.365C166.171 160.405 163.704 162.871 160.661 162.871H152.945" stroke="#FF5C4D" stroke-width="1.0514" stroke-linecap="round" stroke-linejoin="round"/>
<path d="M79.3666 36.4059C84.2411 38.4198 90.7212 46.4886 82.0311 63.5372H77.8188V75.0955H56.2656L60.8748 34.8357L72.5343 30.6504L79.3666 36.4085V36.4059Z" fill="#FFBB99"/>
<path d="M59.7828 69.9624L57.2627 69.9782L51.8968 76.0987C50.4962 72.5304 50.2728 68.5104 51.2714 64.8082C52.2699 61.106 54.3459 57.4878 57.3521 55.1037C54.0437 52.0263 51.7864 47.4865 52.6641 43.099C53.3657 39.5963 55.8621 36.8131 58.3717 34.3791C60.7945 32.0291 63.0727 29.0936 66.2287 27.6416C68.9354 26.397 72.2595 26.544 74.8453 28.017C74.9819 28.0958 75.1054 28.1903 75.2368 28.2743C85.6744 31.4803 84.3237 40.7884 84.3237 40.7884C82.9651 38.7456 79.6068 36.1199 76.6532 35.4504C75.5574 35.2009 74.4169 35.1405 73.3054 35.2902C67.3245 36.0831 64.907 41.2768 64.8964 46.4625L61.7352 44.8241C60.8155 46.2918 60.3214 52.5699 65.2065 52.9926L65.2249 64.4826C65.2302 67.4943 62.7995 69.9414 59.7854 69.9624H59.7828Z" fill="#FF5C4D"/>
<path d="M72.5555 36.2276C71.1838 34.9357 69.1551 34.5077 67.3472 35.088C64.8035 35.902 63.2767 38.4253 61.0352 39.8589C58.8778 41.2374 56.0293 41.5131 53.6406 40.5731" stroke="#4D1F1F" stroke-width="1.0514" stroke-linecap="round" stroke-linejoin="round"/>
<path d="M48.3962 58.3653L46.3906 56.0967" stroke="#4D1F1F" stroke-width="1.0514" stroke-linecap="round" stroke-linejoin="round"/>
<path d="M86.9843 69.7783H55.7556C52.4288 69.7783 49.2492 71.1411 46.9551 73.5462C44.2301 76.4029 43.066 80.4019 43.8254 84.2721L49.0442 110.794C49.6643 113.948 52.4314 116.224 55.6505 116.224H112.482V96.6628C112.482 95.7543 111.99 94.9193 111.197 94.4756L108.553 93.0026L99.0458 76.7075C96.5442 72.4198 91.9508 69.7809 86.9843 69.7809V69.7783Z" fill="#00BFE6"/>
<path d="M91.6484 80.374L102.007 95.6582C102.007 95.6582 102.07 99.4996 99.4898 102.884" stroke="#4D1F1F" stroke-width="1.0514" stroke-linecap="round" stroke-linejoin="round"/>
<path d="M79.2734 47.9756L83.9825 50.2783L79.3628 53.5814" stroke="#4D1F1F" stroke-width="1.0514" stroke-linecap="round" stroke-linejoin="round"/>
<path d="M77.8203 63.541V70.3862" stroke="#4D1F1F" stroke-width="1.0514" stroke-linecap="round" stroke-linejoin="round"/>
<path d="M63.6016 48.6162C64.5873 49.6376 65.1708 51.024 65.2076 52.4313" stroke="#4D1F1F" stroke-width="1.0514" stroke-linecap="round" stroke-linejoin="round"/>
<path d="M45.7043 64.3749L42.7656 63.5732" stroke="#4D1F1F" stroke-width="1.0514" stroke-linecap="round" stroke-linejoin="round"/>
<path d="M76.2259 41.596C74.0895 40.4801 72.1239 41.0052 70.6523 42.3995" stroke="#FF5B4D" stroke-width="1.0514" stroke-linecap="round" stroke-linejoin="round"/>
<path d="M75.9868 45.6199C75.4192 44.995 74.5731 44.6327 73.7269 44.6511C72.8808 44.6694 72.053 45.0685 71.5117 45.7171" stroke="#4D1F1F" stroke-width="1.0514" stroke-linecap="round" stroke-linejoin="round"/>
<path d="M85.5728 45.6199C85.0052 44.995 84.159 44.6327 83.3129 44.6511C82.4668 44.6694 81.639 45.0685 81.0977 45.7171" stroke="#4D1F1F" stroke-width="1.0514" stroke-linecap="round" stroke-linejoin="round"/>
<path d="M101.732 88.5506L109.315 69.1205C109.562 68.4877 109.095 67.805 108.414 67.8076L97.7584 67.8365C97.0069 67.8365 96.3341 68.2986 96.0608 68.9997L88.477 88.4298C88.23 89.0626 88.6978 89.7453 89.3784 89.7426L100.034 89.7138C100.786 89.7138 101.458 89.2516 101.732 88.5506Z" fill="#4D1F1F" stroke="#4D1F1F" stroke-width="1.0514" stroke-linecap="round" stroke-linejoin="round"/>
<path d="M102.632 79.5133L90.6177 82.9923L91.6399 80.3745L88.7389 80.792C87.7508 80.9338 86.9073 81.5745 86.5079 82.4882L84.2007 87.6477C83.5884 89.0157 82.5898 90.1736 81.3258 90.9823L62.3295 103.113C57.3499 111.216 62.8945 116.22 62.8945 116.22H65.0178C67.932 116.22 70.7148 115.015 72.7067 112.891L86.0165 98.6966C86.9598 97.691 88.1686 96.9741 89.5062 96.6302L96.2649 94.8893C97.1058 94.674 97.8625 94.2198 98.4512 93.5818L104.03 87.5295C104.548 86.9676 104.8 86.2114 104.724 85.4526L104.235 80.5977C104.156 79.8152 103.386 79.298 102.632 79.5159V79.5133Z" fill="#FFBB99"/>
<path d="M94.3555 85.8941L104.378 81.8584" stroke="#FF5C4D" stroke-width="1.0514" stroke-linecap="round" stroke-linejoin="round"/>
<path d="M95.793 89.9669L104.614 84.5186" stroke="#FF5C4D" stroke-width="1.0514" stroke-linecap="round" stroke-linejoin="round"/>
<path d="M62.8952 116.22C62.8952 116.22 57.3491 111.216 62.3301 103.116L62.5824 101.577C62.7664 100.445 62.4878 99.2874 61.8097 98.3632L60.9265 97.158L61.5757 84.5205" stroke="#4D1F1F" stroke-width="1.0514" stroke-linecap="round" stroke-linejoin="round"/>
<path d="M96.0665 69.002L90.606 82.9916L102.62 79.5126C103.374 79.2947 104.144 79.8119 104.223 80.5944L104.712 85.4493C104.788 86.2081 104.536 86.9643 104.018 87.5262L98.4394 93.5784C97.8534 94.2165 97.094 94.6707 96.2531 94.886L89.4944 96.6269C88.1595 96.9708 86.9481 97.6876 86.0047 98.6933L72.695 112.888C70.7031 115.012 67.9203 116.217 65.0061 116.217H62.8828" stroke="#4D1F1F" stroke-width="1.0514" stroke-linecap="round" stroke-linejoin="round"/>
<path d="M118.868 157.365V146.587C118.868 143.546 116.4 141.08 113.357 141.08H109.274L104.73 125.909L114.621 158.943C114.974 160.114 115.688 161.101 116.624 161.792C117.982 160.789 118.868 159.182 118.868 157.365Z" fill="#FF5C4D"/>
<path d="M136.273 117.45L139.976 118.85L155.191 117.923C156.381 117.849 157.571 118.038 158.68 118.477L175.419 125.078C177.493 125.894 178.744 128.016 178.457 130.224C178.126 132.774 175.866 134.627 173.299 134.449L155.579 133.228C154.145 133.128 152.763 132.653 151.572 131.849L141.965 125.359L133.703 123.844L136.27 117.455L136.273 117.45Z" fill="#4D1F1F" stroke="#4D1F1F" stroke-width="1.0514" stroke-linecap="round" stroke-linejoin="round"/>
<path d="M134.947 113.837L145.137 118.335C145.657 118.563 146.225 118.666 146.79 118.631L150.973 118.377C151.893 118.322 152.816 118.466 153.675 118.805L166.633 123.914C168.238 124.547 169.205 126.188 168.984 127.897C168.729 129.872 166.979 131.306 164.99 131.169L151.276 130.224C150.167 130.148 149.097 129.78 148.175 129.158L144.998 127.01C144.522 126.69 143.976 126.487 143.405 126.422L132.484 125.185L134.947 113.837Z" fill="#FFBB99"/>
<path d="M155.795 134.297L168.343 182.659H150.087L136.717 144.66C135.963 142.515 133.934 141.081 131.656 141.081H109.27L103.449 122.105L146.29 126.196C150.847 126.632 154.644 129.867 155.792 134.297H155.795Z" fill="#FF5C4D"/>
<path d="M141.406 132.357C148.454 126.526 143.29 117.223 143.29 117.223L106.322 101.681C102.935 100.258 99.1144 100.13 95.6904 101.455C88.5166 104.236 88.4141 110.911 88.4141 110.911V116.222H97.7243C100.16 116.222 102.305 117.819 103.004 120.15L104.068 123.706L136.497 133.339C138.195 133.843 140.042 133.486 141.406 132.357Z" fill="#FF5C4D"/>
<path d="M179.244 206.515L172.562 195.915C171.529 194.277 171.037 192.541 170.612 190.538L168.347 182.658H156.582L159.801 189.939C159.901 190.414 159.954 190.9 159.954 191.386V194.763L173.208 209.346L179.244 206.513V206.515Z" fill="#FFBB99"/>
<path d="M159.951 194.759V191.383C159.951 190.897 159.901 190.411 159.798 189.936L155.305 179.774" stroke="#FF5C4D" stroke-width="1.0514" stroke-linecap="round" stroke-linejoin="round"/>
<path d="M179.239 206.515H175.116C173.256 206.515 171.469 205.803 170.142 204.532L159.951 194.765C159.344 195.287 159.024 196.009 158.995 196.75H158.984L158.992 196.81C158.987 197.041 159.008 197.275 159.066 197.503L160.916 215.111L162.508 202.967L168.5 211.945C169.816 213.919 172.073 215.111 174.494 215.111H187.267C188.148 215.111 188.86 214.418 188.86 213.562L179.239 206.52V206.515Z" fill="#4D1F1F" stroke="#4D1F1F" stroke-width="1.0514" stroke-linecap="round" stroke-linejoin="round"/>
<path d="M168.343 182.658H156.578L158.157 186.229L168.343 182.658Z" fill="#FF5C4D" stroke="#FF5C4D" stroke-width="1.0514" stroke-linecap="round" stroke-linejoin="round"/>
<path d="M143.304 117.221C143.304 117.221 148.468 126.524 141.42 132.355C140.057 133.484 138.209 133.841 136.512 133.337L104.082 123.704" stroke="#4D1F1F" stroke-width="1.0514" stroke-linecap="round" stroke-linejoin="round"/>
<path d="M168.348 182.658H150.093L136.722 144.659C135.968 142.514 133.94 141.08 131.661 141.08H109.275L103.008 120.148" stroke="#4D1F1F" stroke-width="1.0514" stroke-linecap="round" stroke-linejoin="round"/>
<path d="M143.151 162.871H119.924C117.488 162.871 115.343 161.274 114.645 158.943L103.03 120.148C102.331 117.816 100.186 116.22 97.7505 116.22H55.2407C50.4003 116.22 45.9409 113.6 43.5864 109.375L37.1641 97.8428" stroke="#FF5C4D" stroke-width="1.0514" stroke-linecap="round" stroke-linejoin="round"/>
<path d="M137.012 145.452L139.036 151.202C139.393 152.219 139.577 153.29 139.577 154.369V157.365C139.577 160.405 137.109 162.871 134.066 162.871H143.143L137.015 145.452H137.012Z" fill="#4D1F1F" stroke="#4D1F1F" stroke-width="1.0514" stroke-linecap="round" stroke-linejoin="round"/>
<path d="M115.734 182.657C107.456 182.657 100.388 176.692 99.0001 168.539L90.5938 119.142" stroke="#FF5C4D" stroke-width="1.0514" stroke-linecap="round" stroke-linejoin="round"/>
<path d="M138.248 164.766L140.668 180.066C140.883 181.429 139.83 182.66 138.45 182.66H150.112L143.149 162.873H135.32H136.03C137.133 162.873 138.074 163.676 138.248 164.766Z" fill="#4D1F1F" stroke="#4D1F1F" stroke-width="1.0514" stroke-linecap="round" stroke-linejoin="round"/>
<path d="M132.902 162.873H142.102" stroke="#FF5C4D" stroke-width="1.0514" stroke-linecap="round" stroke-linejoin="round"/>
<path d="M156.936 88.8336C159.985 86.4652 162.181 83.0256 163.046 79.2656C163.91 75.5056 163.443 71.4541 161.74 67.9909C161.493 67.4867 161.204 66.9773 160.741 66.6596C160.279 66.3419 159.598 66.2763 159.18 66.6518C158.847 66.9537 158.765 67.4447 158.763 67.8963C158.742 70.4616 160.647 72.7906 163.022 73.7726C165.395 74.7546 168.123 74.5603 170.569 73.7805C172.984 73.0112 175.268 71.6484 176.792 69.624C179.294 66.2973 179.354 61.4739 177.346 57.8268C175.339 54.1797 171.513 51.7194 167.432 50.8819C163.353 50.0443 159.06 50.7217 155.194 52.2682C151.329 53.8147 147.849 56.1989 144.617 58.8246" stroke="#FBFCF9" stroke-width="1.0514" stroke-linecap="round" stroke-linejoin="round"/>
<path d="M152.957 102.582C152.957 103.85 152.082 104.953 150.845 105.242L146.288 106.303C146.209 108.12 145.074 110.323 143.645 111.446" stroke="#FF5C4D" stroke-width="1.0514" stroke-linecap="round" stroke-linejoin="round"/>
<path d="M139.832 99.031L136.641 97.2324" stroke="#FFBB99" stroke-width="1.0514" stroke-linecap="round" stroke-linejoin="round"/>
<path d="M41.1836 168.541C42.5711 176.694 49.6425 182.659 57.9174 182.659H150.098" stroke="#4D1F1F" stroke-width="1.0514" stroke-linecap="round" stroke-linejoin="round"/>
<path d="M84.7256 41.8172C83.3959 40.7816 81.3488 40.6765 80.0586 41.7489" stroke="#FF5B4D" stroke-width="1.0514" stroke-linecap="round" stroke-linejoin="round"/>
<path d="M72.043 54.9473C73.0074 56.1472 74.7207 56.6828 76.1975 56.2522" stroke="#4D1F1F" stroke-width="1.0514" stroke-linecap="round" stroke-linejoin="round"/>
<path d="M57.3516 33.1618C60.4024 32.2874 62.6098 30.2971 65.1219 28.5091C67.4948 26.8181 70.7139 26.2641 73.4652 27.2776C79.9532 29.667 79.3672 36.4098 79.3672 36.4098C84.2418 38.4237 90.7219 46.4924 82.0318 63.541H74.5189C72.0462 63.541 69.781 62.1625 68.6458 59.9701" stroke="#4D1F1F" stroke-width="1.0514" stroke-linecap="round" stroke-linejoin="round"/>
<path d="M54.5107 212.056C54.3688 213.697 55.6616 215.107 57.3119 215.107C58.6915 215.107 59.8661 214.107 60.0868 212.747L64.5278 185.282" stroke="#4D1F1F" stroke-width="1.0514" stroke-linecap="round" stroke-linejoin="round"/>
<path d="M99.1903 212.056C99.0484 213.697 100.341 215.107 101.992 215.107C103.371 215.107 104.546 214.107 104.767 212.747L109.207 185.282" stroke="#4D1F1F" stroke-width="1.0514" stroke-linecap="round" stroke-linejoin="round"/>
<path d="M60.8973 97.1533C60.8973 97.1533 56.0254 97.8255 53.7812 104.083" stroke="#4D1F1F" stroke-width="1.0514" stroke-linecap="round" stroke-linejoin="round"/>
<path d="M105.699 98.7779L108.53 92.9961" stroke="#4D1F1F" stroke-width="1.0514" stroke-linecap="round" stroke-linejoin="round"/>
<path d="M328.469 70.0636L329.749 66.792" stroke="#C4F5F5" stroke-width="1.0514" stroke-linecap="round" stroke-linejoin="round"/>
<path d="M337.852 81.2911L340.698 79.3008" stroke="#C4F5F5" stroke-width="1.0514" stroke-linecap="round" stroke-linejoin="round"/>
<path d="M278.97 105.031L277.406 101.904" stroke="#FBFCF9" stroke-width="1.0514" stroke-linecap="round" stroke-linejoin="round"/>
<path d="M147.569 39.4605C155.416 28.0571 152.589 12.4867 141.284 4.5519C130.071 -3.3173 114.436 -0.728367 106.381 10.3468C99.402 19.9437 100.196 32.7072 107.406 41.3326L104.405 55.8947C104.208 56.8557 105.265 57.583 106.09 57.0526C109.787 54.6895 116.966 50.0971 118.622 49.0364C129.062 52.6073 141.01 48.9891 147.569 39.4578V39.4605Z" fill="#FFE28D"/>
<path d="M101.557 24.5879C101.421 30.6112 103.447 36.5978 107.407 41.3346L104.406 55.8966C104.209 56.8576 105.265 57.585 106.09 57.0546C109.788 54.6914 116.967 50.0991 118.622 49.0383C129.062 52.6093 141.011 48.9911 147.57 39.4598C150.694 34.9174 152.127 29.7132 152.003 24.5931" stroke="#FF5C4D" stroke-width="1.0514" stroke-linecap="round" stroke-linejoin="round"/>
<path d="M126.519 19.5375C127.234 19.6189 127.881 19.1016 127.962 18.3874C128.044 17.6732 127.526 17.0273 126.811 16.9459C126.096 16.8645 125.449 17.3818 125.368 18.096C125.286 18.8102 125.804 19.4561 126.519 19.5375Z" fill="#FF5C4D"/>
<path d="M132.714 29.6381C133.429 29.7195 134.076 29.2022 134.157 28.488C134.239 27.7738 133.721 27.1279 133.006 27.0465C132.291 26.9651 131.645 27.4824 131.563 28.1966C131.482 28.9108 131.999 29.5567 132.714 29.6381Z" fill="#FF5C4D"/>
<path d="M131.899 22.4819C131.97 22.1432 132.028 21.8019 132.067 21.4553L132.997 13.2054L116.49 11.3438L115.559 19.5937C115.052 24.0967 117.454 28.4396 121.543 30.4036L121.677 30.4667C121.511 34.6861 123.866 38.6509 127.718 40.4994L128.817 41.0272L130.004 40.7567C134.427 39.7511 137.738 36.0515 138.245 31.5484L139.175 23.2985L131.902 22.4793L131.899 22.4819ZM117.633 19.8274L118.329 13.6491L130.688 15.0407L129.991 21.219C129.952 21.5682 129.891 21.9095 129.81 22.2456L122.662 21.4395L121.895 28.2322C118.944 26.5413 117.246 23.2408 117.633 19.8247V19.8274ZM129.053 24.2622C128.002 26.2524 126.189 27.7885 123.974 28.4659L124.507 23.7501L129.056 24.2622H129.053ZM136.167 31.3174C135.757 34.9382 133.092 37.9157 129.537 38.7245L129.061 38.8321L128.622 38.6194C125.563 37.149 123.677 34.0218 123.758 30.6741L123.826 30.6583C127.195 29.8916 129.918 27.5626 131.25 24.5037L136.865 25.1365L136.169 31.3148L136.167 31.3174Z" fill="#FF5C4D"/>
</svg>
