<svg width="1098" height="603" viewBox="0 0 1098 603" fill="none" xmlns="http://www.w3.org/2000/svg">
<g opacity="0.4">
<path d="M557.555 584.324H765.791V515.862V2.39844" stroke="#00BFE6" stroke-width="3.00282" stroke-linecap="round" stroke-linejoin="round"/>
<path opacity="0.4" d="M557.195 3.98828V523.883V583.939" stroke="#00BFE6" stroke-width="3.00282" stroke-linecap="round" stroke-linejoin="round"/>
<path d="M591.735 584.324H13.125" stroke="url(#paint0_linear_379_73431)" stroke-width="3.00282" stroke-linecap="round" stroke-linejoin="round"/>
<path d="M765.438 584.301H1095.99" stroke="#00BFE6" stroke-width="3.00282" stroke-linecap="round" stroke-linejoin="round"/>
<path opacity="0.6" d="M765.801 2.39844L316.742 522.315" stroke="#C4F5F5" stroke-width="3.00282" stroke-miterlimit="10"/>
<path opacity="0.6" d="M972.842 2L452.016 521.368" stroke="#C4F5F5" stroke-width="3.00282" stroke-miterlimit="10"/>
<path d="M528.951 2.39844L226.93 375.244" stroke="#C4F5F5" stroke-opacity="0.6" stroke-width="3.00282" stroke-miterlimit="10"/>
<path d="M973.672 582.5V3.98047" stroke="#00BFE6" stroke-width="3.00282" stroke-linecap="round" stroke-linejoin="round"/>
<path opacity="0.4" d="M313.992 523.878V5.17578" stroke="#BEEDF5" stroke-width="3.00282" stroke-linecap="round" stroke-linejoin="round"/>
<path d="M2 238.594H572.265H1095.99" stroke="url(#paint1_linear_379_73431)" stroke-width="3.00282" stroke-linecap="round" stroke-linejoin="round"/>
</g>
<g clip-path="url(#clip0_379_73431)">
<path d="M1172.75 435.928C1171.99 420.581 1160.77 407.769 1145.65 404.987L1142.25 404.362C1139.74 403.9 1137.85 401.817 1137.62 399.277L1136.67 388.359C1135.49 374.906 1124.59 364.375 1111.1 363.648L1101.3 363.121C1098.84 362.992 1096.81 365.01 1096.92 367.469L1097.27 374.863C1097.45 378.7 1094.7 382.052 1090.9 382.628L1090.71 382.655C1082.29 383.93 1076.11 391.227 1076.23 399.745C1076.26 401.467 1074.68 402.78 1072.98 402.495L1067.43 401.575C1064.56 401.101 1062.23 399.014 1061.44 396.215L1060.39 392.492C1059.36 388.827 1056.75 385.808 1053.27 384.248L1024.16 371.182L1006.72 398.631L998.942 391.851L989.031 395.096C982.355 397.286 977.338 402.845 975.852 409.711L973.612 420.065L961.645 421.071L958.237 408.57C956.536 402.334 951.906 397.313 945.828 395.112L941.316 393.476L938.425 378.199C936.648 368.787 927.626 362.341 918.215 364.127C909.714 365.742 903.765 373.367 904.207 381.939L904.352 384.829L891.663 390.501L891.474 388.348C890.295 374.895 879.399 364.364 865.908 363.638L856.104 363.11C853.644 362.981 851.614 364.999 851.727 367.458L852.077 374.852C852.26 378.689 849.509 382.041 845.708 382.617L845.514 382.644C839.383 383.575 834.44 387.697 832.255 393.159L829.498 393.094C824.077 392.97 819.431 389.182 818.225 383.898L815.899 373.733L808.658 376.687C805.993 377.774 803.619 379.372 801.633 381.342L778.967 371.171L758.273 403.738L730.235 366.969L696.119 393.476L693.228 378.199C691.451 368.787 682.428 362.335 673.018 364.127C664.517 365.742 658.568 373.367 659.01 381.939L659.155 400.779L649.007 404.551C648.587 404.707 647.672 405.121 647.257 405.288C645.734 405.891 644 405.094 643.532 403.501L639.171 388.768C638.746 387.331 637.341 386.416 635.855 386.61L611.655 389.72C610.132 389.914 608.996 391.211 608.996 392.744V402.388C608.996 404.319 607.224 405.751 605.335 405.369C604.673 405.234 604.005 405.137 603.327 405.067L590.471 403.792L587.343 389.397C585.432 380.599 577.049 374.766 568.129 376.025H568.118C559.903 377.182 552.979 383.01 550.815 391.017C550.567 391.927 550.384 392.852 550.255 393.805C549.797 397.195 550.228 400.649 551.326 403.889L553.754 411.051C555.536 416.309 553.458 422.104 548.737 425.031L537.749 431.849C529.69 436.849 523.455 444.533 520.968 453.681L520.548 455.742C520.128 457.787 518.314 459.24 516.225 459.202L509.829 459.089C505.582 459.014 502.163 462.506 502.276 466.752C503.471 510.361 521.555 525.998 529.862 530.895C532.177 532.262 535.025 532.354 537.431 531.154L548.134 525.837C549.334 525.24 550.756 526.052 550.853 527.387L554.659 579.891C554.729 580.865 555.531 581.618 556.505 581.634L579.171 582.038C580.204 582.054 581.055 581.225 581.055 580.187C581.055 578.567 580.236 577.05 578.88 576.162L573.598 572.696C572.995 572.303 572.672 571.604 572.764 570.888L577.125 536.007C577.405 533.763 580.683 533.828 580.872 536.083L584.484 579.256C584.565 580.219 585.362 580.962 586.325 580.983L607.564 581.36C608.603 581.376 609.464 580.553 609.48 579.509L609.513 577.781C609.534 576.522 609.05 575.311 608.161 574.418L604.522 570.754C604.134 570.366 603.94 569.823 603.984 569.279L606.083 543.105C606.272 540.786 609.669 540.802 609.841 543.121L612.587 580.913C612.657 581.887 613.459 582.641 614.433 582.657L637.96 582.872V583.076L692.469 584.045C692.652 584.045 692.835 584.023 693.007 583.98L713.115 578.61C713.799 578.427 714.326 577.894 714.504 577.211L717.379 566.023C717.88 564.076 720.647 564.065 721.158 566.007L724.081 577.066C724.302 577.911 725.061 578.502 725.933 578.519L748.712 578.922L767.382 579.256C768.432 579.272 769.309 578.459 769.369 577.41L770.903 549.186C771.021 547.028 774.036 546.63 774.709 548.68L784.96 579.81C785.164 580.44 785.676 580.919 786.316 581.085L795.345 583.475C795.495 583.512 795.651 583.539 795.807 583.539L816.798 583.91C817.875 583.932 818.769 583.071 818.785 581.995V581.925L824.335 582.022C825.342 582.038 826.214 581.263 826.252 580.251C826.311 578.621 825.509 577.087 824.152 576.194L818.629 572.572L818.618 572.545L822.004 556.531C822.656 553.448 824.583 550.838 827.178 549.32L829.681 579.245C829.762 580.208 830.559 580.951 831.522 580.972L838.274 581.091C838.623 581.5 839.135 581.769 839.722 581.78L858.344 582.113C858.678 582.436 859.124 582.641 859.625 582.651L883.151 582.867V583.071L937.661 584.04C937.844 584.04 938.027 584.018 938.199 583.975L958.307 578.605C958.991 578.422 959.518 577.889 959.696 577.206L962.571 566.018C963.071 564.07 965.838 564.059 966.35 566.002L969.273 577.06C969.494 577.905 970.253 578.497 971.125 578.513L993.903 578.917L1012.57 579.25C1013.62 579.267 1014.5 578.454 1014.56 577.405L1016.09 549.18C1016.21 547.023 1019.23 546.624 1019.9 548.675L1030.15 579.805C1030.36 580.434 1030.87 580.913 1031.51 581.08L1040.54 583.469C1040.69 583.507 1040.84 583.534 1041 583.534L1061.99 583.905C1063.07 583.927 1063.96 583.066 1063.98 581.989V581.575C1063.99 581.338 1063.95 581.102 1063.87 580.876L1062.91 578.212C1062.78 577.873 1062.75 577.502 1062.83 577.146L1067.19 556.526C1068.19 551.79 1072.18 548.153 1077.02 547.921C1082.49 547.652 1087.19 551.57 1087.97 556.902L1090.28 572.583C1090.4 573.39 1090.01 574.181 1089.3 574.574L1084.01 577.502C1083.4 577.841 1083.01 578.476 1083 579.175L1082.99 579.789C1082.97 580.865 1083.83 581.758 1084.91 581.774L1109.34 582.21C1110.39 582.226 1111.27 581.414 1111.33 580.364L1112.97 550.418C1113.03 549.369 1113.91 548.556 1114.96 548.572L1120.34 548.669C1121.3 548.685 1122.11 549.396 1122.24 550.348L1125.05 570.189C1125.15 570.899 1124.85 571.609 1124.27 572.04L1115.24 578.658C1114.82 578.971 1114.49 579.412 1114.4 579.928C1114.17 581.188 1115.16 582.28 1116.39 582.237L1145.13 581.258C1146.17 581.22 1147 580.38 1147.02 579.342L1147.55 549.832C1147.56 548.793 1148.4 547.948 1149.44 547.916L1176.28 547.049C1177.37 547.012 1178.22 546.092 1178.17 544.999L1172.76 435.918L1172.75 435.928Z" fill="#DAF8F7"/>
<path d="M847.072 587.385C1025.47 587.385 1170.09 585.316 1170.09 582.763C1170.09 580.21 1025.47 578.141 847.072 578.141C668.675 578.141 524.055 580.21 524.055 582.763C524.055 585.316 668.675 587.385 847.072 587.385Z" fill="#DAF8F7"/>
<path d="M879.205 221.483C883.2 216.763 885.299 210.489 884.949 204.322C884.648 199.005 882.392 192.462 878.236 188.873C876.788 187.619 875.345 186.333 873.897 185.036C872.056 180.241 868.26 176.2 863.528 174.171C860.68 172.95 857.601 172.374 854.516 172.363L854.526 172.353H849.417H849.428C846.424 172.401 843.431 172.982 840.653 174.171C835.921 176.2 832.131 180.241 830.284 185.036C828.836 186.333 827.393 187.619 825.945 188.873C821.789 192.462 819.533 199.005 819.231 204.322C818.881 210.494 820.981 216.769 824.976 221.483C816.454 228.833 812.642 239.332 817.148 253.059H887.033C891.533 239.332 887.727 228.833 879.205 221.483Z" fill="#4D1F1F" stroke="#4D1F1F" stroke-width="2.15223" stroke-linecap="round" stroke-linejoin="round"/>
<path d="M843.536 602.125C915.071 602.125 973.061 600.744 973.061 599.041C973.061 597.338 915.071 595.958 843.536 595.958C772.002 595.958 714.012 597.338 714.012 599.041C714.012 600.744 772.002 602.125 843.536 602.125Z" fill="#4D1F1F"/>
<path d="M882.245 327.76L888.673 340.228C895.252 352.992 899.44 366.849 901.034 381.119L907.92 442.798L923.279 552.16H902.698L882.439 488.253C879.693 479.589 877.847 470.667 876.926 461.627L874.961 442.298L854.853 382.443C853.965 379.796 850.213 379.796 849.324 382.443L829.216 442.298L827.251 461.627C826.331 470.667 824.484 479.589 821.739 488.253L801.48 552.16H780.898L796.258 442.798L803.144 381.119C804.737 366.849 808.926 352.992 815.504 340.228L821.932 327.76H882.251H882.245Z" fill="#00BFE6"/>
<path d="M901.036 381.115L852.088 330.764L803.141 381.115" stroke="#4D1F1F" stroke-width="2.15223" stroke-linecap="round" stroke-linejoin="round"/>
<path d="M923.279 552.154H902.698L882.439 488.248C879.693 479.584 877.847 470.662 876.926 461.622L874.961 442.293L854.853 382.438C853.965 379.79 850.213 379.79 849.324 382.438L829.216 442.293L827.251 461.622C826.331 470.662 824.484 479.584 821.739 488.248L801.48 552.154H780.898" stroke="#4D1F1F" stroke-width="2.15223" stroke-linecap="round" stroke-linejoin="round"/>
<path d="M906.131 273.314L904.091 264.128C902.416 256.589 895.945 251.079 888.236 250.621L870.244 249.551C865.964 249.298 862.626 245.757 862.626 241.473V233.515L852.085 236.259L841.544 233.515V241.473C841.544 245.757 838.206 249.298 833.926 249.551L817.78 250.621C810.071 251.079 803.6 256.594 801.926 264.128L800.348 273.314C800.348 273.314 787.121 288.968 784.461 308.743C778.663 308.84 769.317 311.219 764.402 313.549C762.06 314.663 759.772 316.067 757.258 316.476C754.744 316.885 751.847 316.019 750.566 313.533C749.511 311.482 749.774 308.846 748.822 306.731C747.971 304.837 746.092 303.717 744.235 303.696H740.746L746.582 328.035H788.822L790.222 326.636C801.021 315.873 809.716 303.19 815.869 289.242H888.295L904.328 310.078C904.715 310.611 904.796 311.305 904.543 311.908L903.536 314.318C902.928 315.766 901.092 316.212 899.891 315.201L896.026 311.945C894.492 310.654 892.408 310.212 890.481 310.777L882.836 313.016L881.248 317.601V328.955C881.248 330.166 882.228 331.145 883.439 331.145H919.687C930.6 302.259 906.136 273.314 906.136 273.314H906.131Z" fill="#FFBB99"/>
<path d="M888.769 321.515L881.227 322.133" stroke="#4D1F1F" stroke-width="2.15223" stroke-linecap="round" stroke-linejoin="round"/>
<path d="M888.769 316.298L881.227 317.535" stroke="#4D1F1F" stroke-width="2.15223" stroke-linecap="round" stroke-linejoin="round"/>
<path d="M888.769 311.084L881.227 312.935" stroke="#4D1F1F" stroke-width="2.15223" stroke-linecap="round" stroke-linejoin="round"/>
<path d="M881.24 314.214H822.93V327.764H881.24V314.214Z" fill="#4D1F1F"/>
<path d="M881.801 267.379H878.119C869.43 267.379 861.01 270.365 854.264 275.843L852.084 277.614L849.903 275.843C843.158 270.371 834.738 267.379 826.048 267.379H822.366L813.602 284.152C813.602 291.998 819.809 298.886 819.809 298.886L822.926 314.217H881.236L884.353 298.886C884.353 298.886 890.56 291.998 890.56 284.152L881.796 267.379H881.801Z" fill="#FF5C4D"/>
<path d="M826.057 280.118C834.746 280.118 843.166 283.718 849.912 290.315L852.092 292.446L854.272 290.315C861.018 283.718 869.438 280.118 878.127 280.118H888.469L881.81 267.375H878.127C869.438 267.375 861.018 270.362 854.272 275.84L852.092 277.61L849.912 275.84C843.166 270.367 834.746 267.375 826.057 267.375H822.374L815.715 280.118H826.057Z" fill="#FF5C4D"/>
<path d="M888.469 280.115H878.127C869.438 280.115 861.018 283.715 854.272 290.313L852.092 292.443L849.912 290.313C843.166 283.715 834.746 280.115 826.057 280.115H815.715" stroke="#4D1F1F" stroke-width="2.15223" stroke-linecap="round" stroke-linejoin="round"/>
<path d="M852.094 277.609V271.469" stroke="#4D1F1F" stroke-width="2.15223" stroke-linecap="round" stroke-linejoin="round"/>
<path d="M855.638 328.989L852.09 330.759L848.542 328.989C845.856 327.644 844.16 324.899 844.16 321.902V312.27H860.02V321.902C860.02 324.905 858.325 327.649 855.638 328.989Z" fill="#FFE88C"/>
<path d="M854.114 319.528C855.208 319.528 856.095 318.642 856.095 317.548C856.095 316.455 855.208 315.568 854.114 315.568C853.02 315.568 852.133 316.455 852.133 317.548C852.133 318.642 853.02 319.528 854.114 319.528Z" fill="#FF5C4D"/>
<path d="M860.02 312.268V321.9C860.02 324.903 858.325 327.647 855.638 328.987L852.09 330.757L848.542 328.987C845.856 327.642 844.16 324.897 844.16 321.9V312.268" stroke="#4D1F1F" stroke-width="2.15223" stroke-linecap="round" stroke-linejoin="round"/>
<path d="M853.594 166.641V158.284" stroke="#4D1F1F" stroke-width="2.15223" stroke-linecap="round" stroke-linejoin="round"/>
<path d="M887.672 184.904L892.119 181.342" stroke="#4D1F1F" stroke-width="2.15223" stroke-linecap="round" stroke-linejoin="round"/>
<path d="M910.897 289.929C905.783 290.349 900.851 292.652 897.223 296.274L904.345 306.073C904.733 306.605 904.814 307.3 904.56 307.902L903.602 310.195C905.325 306.261 909.131 303.597 913.46 303.527C916.776 303.474 919.995 305.034 922.343 307.397C921.874 301.456 920.421 295.784 918.563 290.688C916.081 289.994 913.476 289.719 910.902 289.929H910.897Z" fill="#FFE88C"/>
<path d="M918.55 290.688C916.068 289.994 913.463 289.719 910.889 289.929C905.775 290.349 900.843 292.652 897.215 296.274" stroke="#FF5B4D" stroke-width="2.15223" stroke-linecap="round" stroke-linejoin="round"/>
<path d="M903.583 309.577C905.305 305.643 909.112 302.98 913.44 302.91C916.756 302.856 919.976 304.416 922.323 306.779C922.824 313.171 922.188 319.882 919.68 326.522H882.199C880.988 326.522 880.008 325.543 880.008 324.332" stroke="#4D1F1F" stroke-width="2.15223" stroke-linecap="round" stroke-linejoin="round"/>
<path d="M819.809 298.882C819.809 298.882 813.602 291.994 813.602 284.148L822.366 267.375L819.157 269.296" stroke="#4D1F1F" stroke-width="2.15223" stroke-linecap="round" stroke-linejoin="round"/>
<path d="M904.33 306.695L890.246 287.307" stroke="#4D1F1F" stroke-width="2.15223" stroke-linecap="round" stroke-linejoin="round"/>
<path d="M884.354 298.881C884.354 298.881 890.561 291.993 890.561 284.147L881.797 267.374L885.005 269.295" stroke="#4D1F1F" stroke-width="2.15223" stroke-linecap="round" stroke-linejoin="round"/>
<path d="M799.907 296.475C796.396 294.666 792.434 293.757 788.488 293.811C786.69 298.336 785.188 303.384 784.466 308.738C784.272 308.738 784.062 308.754 783.863 308.76C787.734 309.077 791.524 310.326 794.808 312.392C796.531 313.479 798.103 314.792 799.497 316.272C800.283 315.287 801.053 314.292 801.807 313.285C801.855 313.221 801.904 313.156 801.952 313.086C802.641 312.161 803.32 311.224 803.987 310.277C804.057 310.175 804.127 310.078 804.197 309.976C805.635 307.915 807.013 305.816 808.321 303.669C806.114 300.666 803.223 298.17 799.912 296.464L799.907 296.475Z" fill="#FFE88C"/>
<path d="M808.312 303.685C806.105 300.683 803.214 298.186 799.903 296.48C796.393 294.672 792.431 293.757 788.484 293.811" stroke="#FF5C4D" stroke-width="2.15223" stroke-linecap="round" stroke-linejoin="round"/>
<path d="M784.461 308.826C788.122 309.219 791.697 310.441 794.808 312.405C796.531 313.492 798.103 314.805 799.497 316.284" stroke="#4D1F1F" stroke-width="2.15223" stroke-linecap="round" stroke-linejoin="round"/>
<path d="M888.683 340.23L886.535 280.122H868.031V338.545C868.031 357.347 873.555 374.249 886.174 382.66L902.427 393.493L901.049 381.127C899.455 366.856 895.267 352.999 888.688 340.235L888.683 340.23Z" fill="#4D1F1F" stroke="#4D1F1F" stroke-width="2.15223" stroke-linecap="round" stroke-linejoin="round"/>
<path d="M868.043 280.113L878.347 338.536C881.663 357.338 892.485 374.24 906.584 382.651L925.082 393.677H931.252L930.525 389.566L939.688 382.646C950.821 374.235 955.678 357.333 952.361 338.531L942.057 280.107H868.043V280.113Z" fill="#FF5C4D" stroke="#FF5B4D" stroke-width="2.15223" stroke-linecap="round" stroke-linejoin="round"/>
<path d="M931.25 393.675L912.752 382.649C898.653 374.239 887.831 357.336 884.515 338.535L874.211 280.111H948.225L958.529 338.535C961.845 357.336 956.989 374.239 945.856 382.649L931.25 393.675Z" fill="#FFE88C" stroke="#FFE680" stroke-width="2.15223" stroke-linecap="round" stroke-linejoin="round"/>
<path d="M887.27 294.206L895.092 338.536C897.461 351.968 905.192 364.037 915.264 370.048L928.476 377.926L938.909 370.048C946.861 364.043 950.333 351.968 947.964 338.536L940.142 294.206H887.275H887.27Z" stroke="#FF5B4D" stroke-width="2.15223" stroke-linecap="round" stroke-linejoin="round"/>
<path d="M922.724 315.342C922.035 311.451 923.849 308.298 926.767 308.298C929.685 308.298 932.609 311.451 933.298 315.342C933.987 319.232 932.173 322.386 929.255 322.386C926.337 322.386 923.413 319.232 922.724 315.342Z" fill="#FF5C4D" stroke="#FF5B4D" stroke-width="2.15223" stroke-linecap="round" stroke-linejoin="round"/>
<path d="M845.91 380.452H858.249" stroke="#4D1F1F" stroke-width="2.15223" stroke-linecap="round" stroke-linejoin="round"/>
<path d="M823.143 483.577H780.87V564.574C780.87 569.745 778.453 574.615 774.335 577.742L753.258 593.745C753.258 596.667 755.627 599.035 758.55 599.035H800.418V573.291C800.418 570.87 800.731 568.454 801.35 566.113L823.137 483.571L823.143 483.577Z" fill="#4D1F1F" stroke="#4D1F1F" stroke-width="2.15223" stroke-linecap="round" stroke-linejoin="round"/>
<path d="M931.227 393.679L945.832 382.653C956.966 374.243 961.822 357.34 958.505 338.539L948.201 280.115" stroke="#FF5B4D" stroke-width="2.15223" stroke-linecap="round" stroke-linejoin="round"/>
<path d="M881.047 483.577H923.319V564.574C923.319 569.745 925.736 574.615 929.855 577.742L950.932 593.745C950.932 596.667 948.563 599.035 945.64 599.035H903.771V573.291C903.771 570.87 903.459 568.454 902.84 566.113L881.052 483.571L881.047 483.577Z" fill="#4D1F1F" stroke="#4D1F1F" stroke-width="2.15223" stroke-linecap="round" stroke-linejoin="round"/>
<path d="M868.031 280.115L878.335 338.539C881.652 357.34 892.473 374.243 906.573 382.653L925.071 393.679H931.24L945.846 382.653" stroke="#4D1F1F" stroke-width="2.15223" stroke-linecap="round" stroke-linejoin="round"/>
<path d="M783.359 552.156L790.525 483.578L819.16 498.624" stroke="#FF5B4D" stroke-width="2.15223" stroke-linecap="round" stroke-linejoin="round"/>
<path d="M920.819 552.156L913.659 483.578L885.023 498.624" stroke="#FF5B4D" stroke-width="2.15223" stroke-linecap="round" stroke-linejoin="round"/>
<path d="M919.68 270.825L924.04 266.493" stroke="#FF5B4D" stroke-width="2.15223" stroke-linecap="round" stroke-linejoin="round"/>
<path d="M814.346 293.641C808.171 306.243 799.498 317.28 788.827 328.037H744.461" stroke="#4D1F1F" stroke-width="2.15223" stroke-linecap="round" stroke-linejoin="round"/>
<path d="M723.698 309.582L730.046 324.596C730.568 325.833 732.016 326.387 733.233 325.822L739.596 322.852C740.759 322.309 741.281 320.936 740.764 319.758L734.627 305.708C734.143 304.604 732.91 304.039 731.758 304.389L725.19 306.402C723.844 306.811 723.155 308.296 723.698 309.587V309.582Z" fill="#FFBB99"/>
<path d="M730.039 324.585C730.561 325.823 732.009 326.377 733.226 325.812L739.59 322.842C740.752 322.298 741.275 320.926 740.758 319.747L736.026 305.697" stroke="#4D1F1F" stroke-width="2.15223" stroke-linecap="round" stroke-linejoin="round"/>
<path d="M725.43 313.67L736.385 309.721" stroke="#4D1F1F" stroke-width="2.15223" stroke-linecap="round" stroke-linejoin="round"/>
<path d="M728.215 320.254L739.219 315.152" stroke="#4D1F1F" stroke-width="2.15223" stroke-linecap="round" stroke-linejoin="round"/>
<path d="M715.238 138.798L755.578 599.674C755.696 601.019 758.415 601.886 761.65 601.6C764.886 601.315 767.416 599.997 767.298 598.646L726.958 137.771L715.238 138.793V138.798Z" fill="#FF5C4D" stroke="#FF5C4D" stroke-width="2.15223" stroke-linecap="round" stroke-linejoin="round"/>
<path d="M730.822 181.938L719.102 182.965L724.873 248.89L736.151 242.868L730.822 181.938Z" fill="#4D1F1F" stroke="#4D1F1F" stroke-width="2.15223" stroke-linecap="round" stroke-linejoin="round"/>
<path d="M739.794 284.439L728.074 285.462L733.856 351.494L745.135 345.462L739.794 284.439Z" fill="#4D1F1F" stroke="#4D1F1F" stroke-width="2.15223" stroke-linecap="round" stroke-linejoin="round"/>
<path d="M737.047 387.963L742.823 453.985L754.108 447.953L748.767 386.936L737.047 387.963Z" fill="#4D1F1F" stroke="#4D1F1F" stroke-width="2.15223" stroke-linecap="round" stroke-linejoin="round"/>
<path d="M726.958 137.771L715.238 138.793L755.578 599.668C755.696 601.014 758.415 601.88 761.65 601.595L838.889 601.051" stroke="#4D1F1F" stroke-width="2.15223" stroke-linecap="round" stroke-linejoin="round"/>
<path d="M720.03 138.33C726.798 138.33 732.284 132.847 732.284 126.082C732.284 119.318 726.798 113.835 720.03 113.835C713.263 113.835 707.777 119.318 707.777 126.082C707.777 132.847 713.263 138.33 720.03 138.33Z" fill="#FFE88C" stroke="#FF5C4D" stroke-width="2.15223" stroke-linecap="round" stroke-linejoin="round"/>
<path d="M719.481 124.635C722.187 124.635 724.38 122.442 724.38 119.738C724.38 117.033 722.187 114.841 719.481 114.841C716.775 114.841 714.582 117.033 714.582 119.738C714.582 122.442 716.775 124.635 719.481 124.635Z" fill="#FBFCF9"/>
<path d="M720.59 132.427C716.31 132.804 712.466 130.215 711.05 126.373C710.905 127.169 710.856 127.998 710.926 128.843C711.373 133.966 715.89 137.754 721.015 137.308C726.14 136.861 729.93 132.346 729.483 127.223C729.408 126.378 729.214 125.571 728.934 124.812C728.208 128.843 724.87 132.056 720.59 132.427Z" fill="#FF5C4D"/>
<path d="M768.096 148.653L670.434 157.193L671.288 166.955L768.951 158.415L768.096 148.653Z" fill="#FF5C4D" stroke="#FF5C4D" stroke-width="2.15223" stroke-linecap="round" stroke-linejoin="round"/>
<path d="M670.527 158.177L671.297 166.959L768.962 158.419L768.106 148.657" stroke="#4D1F1F" stroke-width="2.15223" stroke-linecap="round" stroke-linejoin="round"/>
<path d="M670.443 157.192L660.246 153.167L646.453 164.209L661.958 172.69L671.293 166.954L670.443 157.192Z" fill="#FFE88C" stroke="#FF5C4D" stroke-width="2.15223" stroke-linecap="round" stroke-linejoin="round"/>
<path d="M672.332 161.948L662.06 168.26L652.714 163.665L646.453 164.214L672.332 161.948Z" fill="#FF5C4D" stroke="#FF5C4D" stroke-width="2.15223" stroke-linecap="round" stroke-linejoin="round"/>
<path d="M670.443 157.197L671.293 166.959L661.958 172.695L646.453 164.214" stroke="#4D1F1F" stroke-width="2.15223" stroke-linecap="round" stroke-linejoin="round"/>
<path d="M768.105 148.653L777.446 142.917L792.946 151.398L779.153 162.445L768.962 158.415L768.105 148.653Z" fill="#FFE88C" stroke="#FF5C4D" stroke-width="2.15223" stroke-linecap="round" stroke-linejoin="round"/>
<path d="M767.062 153.666L778.277 158.095L786.686 151.949L792.942 151.4L767.062 153.666Z" fill="#FF5C4D" stroke="#FF5C4D" stroke-width="2.15223" stroke-linecap="round" stroke-linejoin="round"/>
<path d="M768.105 148.657L768.962 158.419L779.153 162.449L792.946 151.402" stroke="#4D1F1F" stroke-width="2.15223" stroke-linecap="round" stroke-linejoin="round"/>
<path d="M763.51 212.724L719.445 236.25L675.617 220.408L676.01 154.468L690.659 153.187L690.562 169.922L749.158 164.794L749.26 148.064L763.909 146.783L763.51 212.724Z" fill="#FBFCF9" stroke="#C4F5F5" stroke-width="2.15223" stroke-linecap="round" stroke-linejoin="round"/>
<path d="M692.191 206.035C690.619 203.926 689.687 200.239 689.72 195.493C689.746 191.032 690.586 187.481 692.261 184.839C693.935 182.213 696.099 180.776 698.748 180.544C700.196 180.415 701.381 180.738 702.29 181.486L702.263 186.06C701.337 184.989 700.288 184.505 699.146 184.602C697.564 184.742 696.298 185.716 695.372 187.545C694.425 189.375 693.957 191.877 693.935 195.084C693.913 198.717 694.452 201.477 695.297 202.935C696.148 204.415 697.208 205.072 698.414 204.969C698.603 204.953 698.85 204.894 699.157 204.787L699.211 195.601L698.694 195.644C697.838 195.719 697.09 195.897 696.46 196.204L696.885 192.076L702.969 191.543L702.877 206.498C701.687 207.929 700.121 208.736 698.172 208.908C695.809 209.113 693.752 208.144 692.185 206.03L692.191 206.035Z" fill="#00BFE6"/>
<path d="M705.223 207.913C705.831 205.227 706.154 201.875 706.181 197.877L706.224 190.246C706.246 186.227 705.96 182.933 705.39 180.35L710.273 179.925C713.153 179.672 715.398 180.668 716.986 182.89C718.574 185.134 719.355 188.444 719.328 192.829C719.301 197.231 718.477 200.723 716.862 203.263C715.247 205.825 712.986 207.235 710.106 207.488L705.223 207.913ZM710.036 203.629L710.515 203.586C711.888 203.468 713.018 202.542 713.885 200.815C714.752 199.088 715.209 196.548 715.225 193.184C715.247 189.783 714.768 187.174 713.896 185.71C713.029 184.268 711.904 183.638 710.59 183.751L710.154 183.789L710.036 203.624V203.629Z" fill="#00BFE6"/>
<path d="M720.848 206.546C721.138 205.308 721.381 203.753 721.564 201.891C721.747 200.029 721.833 198.237 721.844 196.504L721.887 188.874C721.898 187.147 721.833 185.365 721.671 183.514C721.51 181.685 721.289 180.167 721.015 178.978L726.506 178.499C728.95 178.284 730.85 179.005 732.213 180.63C733.575 182.277 734.248 184.601 734.231 187.62C734.215 190.558 733.741 192.91 732.799 194.664C731.857 196.44 730.721 197.382 729.445 197.495C727.405 197.672 726.21 196.316 726.075 193.426L725.714 193.459L725.698 196.171C725.688 197.861 725.774 199.62 725.935 201.455C726.097 203.306 726.296 204.824 726.554 206.051L720.853 206.551L720.848 206.546ZM730.134 187.749C730.145 186.038 729.811 184.704 729.128 183.708C728.449 182.713 727.609 182.266 726.64 182.352C726.204 182.39 725.876 182.648 725.779 182.659L725.736 189.595C725.768 190.709 725.973 191.667 726.35 192.463C726.705 193.26 727.2 193.636 727.83 193.582C729.262 193.459 730.113 191.425 730.134 187.755V187.749Z" fill="#00BFE6"/>
<path d="M743.859 202.538C743.391 201.058 743.229 199.191 743.127 197.378C742.971 194.719 742.702 192.362 740.753 192.535C740.333 192.572 740.064 192.631 739.929 192.723L739.908 195.876C739.886 199.95 740.037 202.936 740.387 204.847L735.391 205.283C735.531 204.33 735.649 203.243 735.714 202.027C735.778 200.811 735.821 199.772 735.848 198.901C735.87 198.034 735.88 196.764 735.891 195.053L735.934 187.885C735.967 182.698 735.832 179.308 735.558 177.715L740.516 177.279C745.42 176.849 748.36 178.974 748.333 183.607C748.306 187.837 746.045 190.145 742.212 190.484L742.115 190.495V190.764L742.589 190.721C744.441 190.56 745.733 191.232 746.276 192.319C746.82 193.423 747.079 194.843 747.149 196.221C747.213 198.249 747.278 200.031 748.424 199.934C748.882 199.896 749.286 199.589 749.614 199.04L749.625 203.48C749.183 204.266 748.397 204.701 747.272 204.798C745.458 204.954 744.301 204.018 743.854 202.544L743.859 202.538ZM739.956 188.951L740.376 188.913C742.761 188.703 744.257 187.207 744.274 184.517C744.29 182.036 742.788 180.938 740.424 181.148L740.004 181.186L739.956 188.951Z" fill="#00BFE6"/>
<path d="M777.073 251.152L679.41 259.692L680.265 269.454L777.927 260.914L777.073 251.152Z" fill="#FF5C4D" stroke="#FF5C4D" stroke-width="2.15223" stroke-linecap="round" stroke-linejoin="round"/>
<path d="M679.41 259.696L680.266 269.458L777.925 260.918L777.069 251.156" stroke="#4D1F1F" stroke-width="2.15223" stroke-linecap="round" stroke-linejoin="round"/>
<path d="M772.634 315.209L728.688 338.725L684.741 322.893L684.73 256.99L699.379 255.709V272.434L757.98 267.306L757.975 250.586L772.624 249.306L772.634 315.209Z" fill="#FBFCF9" stroke="#C4F5F5" stroke-width="2.15223" stroke-linecap="round" stroke-linejoin="round"/>
<path d="M675.691 256.581L675.686 256.581C673.799 256.746 672.403 258.409 672.568 260.295L673.423 270.062C673.588 271.948 675.252 273.343 677.138 273.178L677.144 273.177C679.031 273.012 680.426 271.35 680.261 269.464L679.406 259.697C679.241 257.811 677.578 256.416 675.691 256.581Z" fill="#FFE88C" stroke="#FF5C4D" stroke-width="2.15223" stroke-linecap="round" stroke-linejoin="round"/>
<path d="M672.926 264.196C673.093 266.085 674.756 267.478 676.641 267.312C678.53 267.145 679.925 265.482 679.758 263.599L679.93 265.552C680.097 267.441 678.697 269.104 676.813 269.265C674.923 269.432 673.26 268.033 673.098 266.149L672.926 264.196Z" stroke="#FF5C4D" stroke-width="2.15223" stroke-linecap="round" stroke-linejoin="round"/>
<path d="M673.43 270.051C673.597 271.94 675.26 273.334 677.144 273.167C679.034 273 680.428 271.337 680.261 269.454L679.405 259.692" stroke="#4D1F1F" stroke-width="2.15223" stroke-linecap="round" stroke-linejoin="round"/>
<path d="M781.645 264.038L781.65 264.038C783.537 263.873 784.933 262.21 784.768 260.324L783.913 250.557C783.748 248.671 782.084 247.276 780.197 247.441L780.192 247.442C778.305 247.607 776.91 249.269 777.075 251.155L777.93 260.922C778.095 262.808 779.758 264.203 781.645 264.038Z" fill="#FFE88C" stroke="#FF5C4D" stroke-width="2.15223" stroke-linecap="round" stroke-linejoin="round"/>
<path d="M784.258 254.459C784.424 256.348 783.025 258.011 781.14 258.172C779.251 258.339 777.587 256.94 777.426 255.056L777.598 257.01C777.765 258.898 779.428 260.292 781.313 260.125C783.202 259.959 784.597 258.296 784.43 256.412L784.258 254.459Z" stroke="#FF5C4D" stroke-width="2.15223" stroke-linecap="round" stroke-linejoin="round"/>
<path d="M784.762 260.32C784.929 262.209 783.529 263.872 781.645 264.033C779.755 264.2 778.092 262.801 777.93 260.918L777.074 251.156" stroke="#4D1F1F" stroke-width="2.15223" stroke-linecap="round" stroke-linejoin="round"/>
<path d="M732.231 125.017C732.823 131.754 727.833 137.695 721.092 138.287C714.352 138.878 708.409 133.89 707.816 127.153" stroke="#4D1F1F" stroke-width="2.15223" stroke-linecap="round" stroke-linejoin="round"/>
<path d="M694.435 312.258C694.952 309.912 695.221 306.979 695.216 303.481V296.809C695.216 293.295 694.947 290.41 694.43 288.156L698.699 287.784C701.218 287.564 703.189 288.436 704.589 290.378C705.988 292.342 706.693 295.237 706.693 299.069C706.693 302.916 705.994 305.973 704.594 308.195C703.194 310.434 701.224 311.666 698.704 311.887L694.435 312.258ZM698.623 308.513L699.043 308.475C700.244 308.367 701.229 307.56 701.983 306.048C702.731 304.536 703.119 302.319 703.119 299.375C703.119 296.4 702.683 294.118 701.918 292.843C701.148 291.584 700.169 291.029 699.016 291.132L698.634 291.164V308.507L698.623 308.513Z" fill="#00BFE6"/>
<path d="M708.098 311.059C708.614 308.713 708.884 305.78 708.884 302.282V295.61C708.884 292.096 708.614 289.211 708.098 286.957L712.636 286.558L714.725 292.026C715.177 293.08 715.457 294.28 715.608 295.631L715.839 295.61C715.925 294.813 716.222 293.559 716.738 291.848L718.822 286.02L723.36 285.622C723.129 286.72 722.946 288.081 722.795 289.723C722.644 291.364 722.58 292.919 722.58 294.415V301.088C722.58 302.584 722.65 304.123 722.8 305.726C722.951 307.324 723.134 308.653 723.366 309.73L718.407 310.166C718.639 309.052 718.822 307.69 718.973 306.065C719.123 304.44 719.188 302.885 719.188 301.389V295.222L718.989 295.238L716.189 304.51L715.306 304.585L712.501 295.803L712.286 295.825V301.992C712.286 305.419 712.539 308.304 713.04 310.634L708.103 311.064L708.098 311.059Z" fill="#00BFE6"/>
<path d="M724.398 309.637C724.835 308.556 725.265 307.194 725.685 305.542C726.1 303.906 726.45 302.297 726.719 300.726L728.022 293.94C728.641 290.276 728.872 287.343 728.738 285.153L734.826 284.62C734.762 285.702 734.794 287.042 734.945 288.661C735.08 290.281 735.279 291.809 735.548 293.284L736.835 299.843C737.437 303.271 738.218 306.107 739.171 308.346L734.18 308.782C734.261 306.839 734.116 304.6 733.728 302.082L733.561 301.124L730.008 301.436L729.841 302.459C729.475 305.3 729.324 307.549 729.394 309.207L724.404 309.643L724.398 309.637ZM730.471 298.53L733.071 298.304L732.452 295.199C732.35 294.618 732.167 292.988 731.898 290.324L731.629 290.346C731.596 290.685 731.548 291.212 731.494 291.906C731.446 292.617 731.376 293.23 731.327 293.752C731.279 294.279 731.193 294.791 731.112 295.318L730.46 298.536L730.471 298.53Z" fill="#00BFE6"/>
<path d="M747.358 305.881C746.938 304.589 746.793 302.954 746.69 301.366C746.54 299.041 746.287 296.98 744.586 297.131C744.219 297.163 743.983 297.217 743.869 297.293V300.048C743.869 303.61 744.02 306.22 744.338 307.888L739.966 308.27C740.085 307.436 740.182 306.489 740.23 305.424C740.279 304.358 740.316 303.449 740.332 302.69C740.349 301.931 740.349 300.823 740.349 299.327V293.058C740.349 288.521 740.214 285.556 739.961 284.168L744.3 283.786C748.591 283.409 751.175 285.271 751.175 289.318C751.175 293.015 749.205 295.038 745.851 295.328H745.77V295.571L746.184 295.533C747.805 295.393 748.935 295.98 749.42 296.932C749.905 297.901 750.136 299.138 750.206 300.344C750.276 302.12 750.341 303.675 751.342 303.589C751.74 303.556 752.09 303.287 752.376 302.808L752.408 306.688C752.026 307.377 751.342 307.759 750.357 307.845C748.774 307.985 747.756 307.167 747.353 305.87L747.358 305.881ZM743.869 293.999L744.236 293.967C746.319 293.784 747.622 292.476 747.622 290.125C747.622 287.956 746.303 286.998 744.236 287.176L743.869 287.208V293.999Z" fill="#00BFE6"/>
<path d="M755.465 304.144C754.248 302.185 753.629 299.145 753.629 295.06C753.629 290.89 754.377 287.516 755.648 285.439C756.897 283.362 758.533 282.21 760.471 282.043C761.537 281.952 762.372 282.146 762.991 282.646V287.048C762.34 286.284 761.607 285.923 760.773 285.999C758.453 286.203 757.284 289.109 757.284 294.705C757.284 300.286 758.501 302.971 760.94 302.756C761.86 302.675 762.657 302.271 763.341 301.539V305.608C762.458 306.323 761.44 306.732 760.256 306.834C758.269 307.007 756.687 306.103 755.465 304.144Z" fill="#00BFE6"/>
<path d="M786.045 353.651L688.383 362.191L689.237 371.953L786.9 363.413L786.045 353.651Z" fill="#FF5C4D" stroke="#FF5C4D" stroke-width="2.15223" stroke-linecap="round" stroke-linejoin="round"/>
<path d="M688.383 362.192L689.239 371.954L786.903 363.414L786.047 353.652" stroke="#4D1F1F" stroke-width="2.15223" stroke-linecap="round" stroke-linejoin="round"/>
<path d="M781.581 417.705L737.629 441.226L693.688 425.395L693.709 359.486L708.358 358.205L708.352 374.93L766.948 369.807L766.953 353.082L781.602 351.802L781.581 417.705Z" fill="#FBFCF9" stroke="#C4F5F5" stroke-width="2.15223" stroke-linecap="round" stroke-linejoin="round"/>
<path d="M684.664 359.076L684.659 359.076C682.772 359.241 681.376 360.904 681.541 362.79L682.396 372.557C682.561 374.443 684.224 375.838 686.111 375.673L686.117 375.672C688.003 375.507 689.399 373.845 689.234 371.959L688.379 362.192C688.214 360.306 686.551 358.911 684.664 359.076Z" fill="#FFE88C" stroke="#FF5C4D" stroke-width="2.15223" stroke-linecap="round" stroke-linejoin="round"/>
<path d="M681.887 366.695C682.054 368.584 683.717 369.977 685.601 369.811C687.491 369.644 688.885 367.981 688.719 366.098L688.891 368.051C689.058 369.94 687.658 371.603 685.774 371.764C683.884 371.931 682.22 370.532 682.059 368.648L681.887 366.695Z" stroke="#FF5C4D" stroke-width="2.15223" stroke-linecap="round" stroke-linejoin="round"/>
<path d="M682.402 372.55C682.569 374.439 684.233 375.833 686.117 375.666C688.007 375.499 689.401 373.836 689.234 371.953L688.378 362.191" stroke="#4D1F1F" stroke-width="2.15223" stroke-linecap="round" stroke-linejoin="round"/>
<path d="M790.61 366.532L790.615 366.531C792.502 366.366 793.897 364.704 793.732 362.818L792.877 353.05C792.712 351.165 791.049 349.769 789.162 349.934L789.157 349.935C787.27 350.1 785.874 351.763 786.039 353.648L786.894 363.416C787.059 365.302 788.723 366.697 790.61 366.532Z" fill="#FFE88C" stroke="#FF5C4D" stroke-width="2.15223" stroke-linecap="round" stroke-linejoin="round"/>
<path d="M793.23 356.961C793.397 358.85 791.997 360.513 790.113 360.674C788.224 360.841 786.56 359.442 786.398 357.558L786.571 359.512C786.738 361.4 788.401 362.794 790.285 362.627C792.175 362.46 793.569 360.798 793.403 358.914L793.23 356.961Z" stroke="#FF5C4D" stroke-width="2.15223" stroke-linecap="round" stroke-linejoin="round"/>
<path d="M793.739 362.816C793.906 364.705 792.506 366.368 790.621 366.529C788.732 366.696 787.068 365.297 786.907 363.414L786.051 353.652" stroke="#4D1F1F" stroke-width="2.15223" stroke-linecap="round" stroke-linejoin="round"/>
<path d="M708.297 414.333C708.889 411.648 709.196 408.301 709.196 404.303V396.672C709.196 392.658 708.894 389.359 708.302 386.776L713.185 386.351C716.065 386.098 718.316 387.094 719.92 389.316C721.519 391.56 722.321 394.869 722.321 399.25C722.321 403.651 721.519 407.138 719.915 409.684C718.31 412.245 716.06 413.65 713.18 413.903L708.297 414.328V414.333ZM713.083 410.05L713.557 410.007C714.93 409.888 716.055 408.963 716.916 407.235C717.772 405.508 718.214 402.973 718.214 399.61C718.214 396.209 717.718 393.599 716.841 392.141C715.963 390.699 714.838 390.069 713.519 390.182L713.083 390.22V410.05Z" fill="#00BFE6"/>
<path d="M733.133 409.741C732.6 408.137 732.369 406.098 732.277 404.112C732.127 401.185 731.879 398.613 730.124 398.769C729.456 398.828 728.999 399.059 728.713 399.447V402.6C728.713 404.349 728.789 406.13 728.956 407.938C729.128 409.768 729.338 411.285 729.623 412.469L723.922 412.97C724.514 410.284 724.821 406.937 724.821 402.939V395.309C724.821 391.294 724.519 387.996 723.933 385.413L729.634 384.912C729.02 387.538 728.719 390.509 728.713 393.813V395.54L729.532 395.47C730.388 395.395 731.098 394.97 731.744 394.006C732.39 393.049 732.778 391.208 732.778 388.727C732.778 387.323 732.568 385.978 732.132 384.692L736.385 384.32C736.708 385.386 736.88 386.736 736.88 388.367C736.88 392.284 735.007 396.331 731.061 396.675L730.91 396.686V396.993L731.922 396.907C733.849 396.74 735.163 397.504 735.717 398.747C736.272 399.985 736.498 401.578 736.557 403.111C736.633 405.393 736.692 407.406 738.027 407.287C738.463 407.249 738.867 406.943 739.228 406.394L739.265 410.903C738.824 411.673 738.043 412.103 736.94 412.2C734.975 412.372 733.677 411.334 733.144 409.725L733.133 409.741Z" fill="#00BFE6"/>
<path d="M741.215 411.456C741.807 408.771 742.114 405.424 742.114 401.425V393.795C742.114 389.781 741.812 386.482 741.22 383.899L746.927 383.398C746.335 386.084 746.028 389.431 746.028 393.45V401.081C746.028 405.079 746.329 408.372 746.921 410.955L741.215 411.456Z" fill="#00BFE6"/>
<path d="M749.548 410.723C750.141 408.038 750.447 404.691 750.447 400.692V393.062C750.447 389.048 750.146 385.749 749.559 383.166L754.749 382.714L757.129 388.961C757.645 390.167 757.968 391.539 758.141 393.083L758.41 393.062C758.507 392.152 758.851 390.716 759.444 388.762L761.828 382.1L767.018 381.648C766.749 382.902 766.539 384.457 766.367 386.335C766.195 388.213 766.119 389.989 766.114 391.7V399.331C766.114 401.042 766.189 402.802 766.356 404.631C766.528 406.461 766.738 407.979 767.002 409.205L761.338 409.7C761.608 408.431 761.818 406.875 761.99 405.013C762.162 403.152 762.238 401.381 762.238 399.67V392.621L762.011 392.642L758.803 403.238L757.791 403.324L754.587 393.288L754.34 393.309V400.359C754.34 404.276 754.62 407.575 755.19 410.239L749.543 410.734L749.548 410.723Z" fill="#00BFE6"/>
<path d="M763.51 212.723L719.445 236.249L675.617 220.407" stroke="#00BFE6" stroke-width="2.15223" stroke-linecap="round" stroke-linejoin="round"/>
<path d="M772.627 315.209L728.681 338.725L684.734 322.893" stroke="#00BFE6" stroke-width="2.15223" stroke-linecap="round" stroke-linejoin="round"/>
<path d="M781.581 417.701L737.629 441.222L693.688 425.391" stroke="#00BFE6" stroke-width="2.15223" stroke-linecap="round" stroke-linejoin="round"/>
<path d="M688.813 118.509L683.473 112.826" stroke="#FF5C4D" stroke-width="2.15223" stroke-linecap="round" stroke-linejoin="round"/>
<path d="M751.254 116.486L756.928 109.162" stroke="#FF5C4D" stroke-width="2.15223" stroke-linecap="round" stroke-linejoin="round"/>
<path d="M1035.42 180.852L1005.2 526.15C1005.11 527.162 1003.07 527.808 1000.65 527.592C998.226 527.383 996.331 526.392 996.417 525.381L1026.64 180.082L1035.42 180.852Z" fill="url(#paint2_linear_379_73431)" stroke="url(#paint3_linear_379_73431)" stroke-width="2.15223" stroke-linecap="round" stroke-linejoin="round"/>
<path d="M1023.75 213.178L1032.53 213.942L1028.21 263.341L1019.76 258.826L1023.75 213.178Z" fill="#00BFE6" stroke="#00BFE6" stroke-width="2.15223" stroke-linecap="round" stroke-linejoin="round"/>
<path d="M1017.03 289.971L1025.81 290.735L1021.48 340.209L1013.03 335.689L1017.03 289.971Z" fill="#00BFE6" stroke="#00BFE6" stroke-width="2.15223" stroke-linecap="round" stroke-linejoin="round"/>
<path d="M1026.65 180.082L1035.43 180.852L1013.03 436.769" stroke="#00BFE6" stroke-width="2.15223" stroke-linecap="round" stroke-linejoin="round"/>
<path d="M1031.84 180.504C1036.91 180.504 1041.02 176.396 1041.02 171.329C1041.02 166.262 1036.91 162.154 1031.84 162.154C1026.77 162.154 1022.66 166.262 1022.66 171.329C1022.66 176.396 1026.77 180.504 1031.84 180.504Z" fill="#C4F5F5" stroke="#C4F5F5" stroke-width="2.15223" stroke-linecap="round" stroke-linejoin="round"/>
<path d="M1032.23 170.242C1034.26 170.242 1035.91 168.599 1035.91 166.572C1035.91 164.545 1034.26 162.902 1032.23 162.902C1030.21 162.902 1028.56 164.545 1028.56 166.572C1028.56 168.599 1030.21 170.242 1032.23 170.242Z" fill="#C4F5F5" stroke="#C4F5F5" stroke-width="0.538058" stroke-miterlimit="10"/>
<path d="M995.19 195.548L1068.36 201.946L1069 194.634L995.83 188.236L995.19 195.548Z" fill="#C4F5F5" stroke="#C4F5F5" stroke-width="2.15223" stroke-linecap="round" stroke-linejoin="round"/>
<path d="M1068.93 195.373L1068.36 201.954L995.188 195.556L995.828 188.243" stroke="#00BFE6" stroke-width="2.15223" stroke-linecap="round" stroke-linejoin="round"/>
<path d="M1068.99 194.642L1076.63 191.623L1086.97 199.899L1075.35 206.249L1068.35 201.955L1068.99 194.642Z" fill="#C4F5F5" stroke="#C4F5F5" stroke-width="2.15223" stroke-linecap="round" stroke-linejoin="round"/>
<path d="M1068.99 194.641L1068.35 201.954L1075.35 206.248L1086.97 199.898" stroke="#00BFE6" stroke-width="2.15223" stroke-linecap="round" stroke-linejoin="round"/>
<path d="M995.822 188.246L988.823 183.946L977.211 190.301L987.548 198.572L995.182 195.559L995.822 188.246Z" fill="#C4F5F5" stroke="#C4F5F5" stroke-width="2.15223" stroke-linecap="round" stroke-linejoin="round"/>
<path d="M995.822 188.244L995.182 195.557L987.548 198.571L977.211 190.3" stroke="#00BFE6" stroke-width="2.15223" stroke-linecap="round" stroke-linejoin="round"/>
<path d="M999.269 236.243L1032.29 253.867L1065.12 242.001L1064.83 192.597L1053.85 191.639L1053.93 204.172L1010.03 200.335L1009.95 187.797L998.973 186.839L999.269 236.243Z" fill="#C4F5F5" stroke="#C4F5F5" stroke-width="2.15223" stroke-linecap="round" stroke-linejoin="round"/>
<path d="M1017.51 230.492L1017.54 227.113C1018 227.678 1018.53 228.135 1019.16 228.485C1019.76 228.851 1020.31 229.05 1020.82 229.098C1021.43 229.152 1021.94 228.985 1022.36 228.609C1022.77 228.232 1022.97 227.699 1022.98 227.032C1022.99 225.956 1022.36 224.74 1021.54 223.75C1021.12 223.26 1020.68 222.711 1020.21 222.103C1019.23 220.897 1018.38 219.88 1017.83 218.358C1017.56 217.61 1017.42 216.851 1017.42 216.071C1017.43 214.526 1017.89 213.321 1018.81 212.481C1019.72 211.642 1020.87 211.271 1022.26 211.394C1023.52 211.502 1024.59 211.949 1025.44 212.718L1025.41 216.097C1024.59 215.08 1023.67 214.532 1022.65 214.445C1022.06 214.392 1021.55 214.548 1021.16 214.924C1020.75 215.301 1020.54 215.791 1020.54 216.399C1020.53 218.11 1022.37 219.741 1023.92 221.818C1025.07 223.319 1026.13 225.224 1026.09 227.468C1026.08 229.012 1025.61 230.212 1024.66 231.068C1023.72 231.918 1022.54 232.284 1021.13 232.166C1019.75 232.047 1018.38 231.418 1017.52 230.492H1017.51Z" fill="#00BFE6"/>
<path d="M1027.4 232.426C1027.63 231.554 1027.81 230.435 1027.95 229.089C1028.09 227.744 1028.16 226.431 1028.17 225.161L1028.21 219.543C1028.22 218.268 1028.17 216.949 1028.06 215.566C1027.94 214.2 1027.77 213.048 1027.56 212.139L1031.73 212.499C1033.59 212.661 1035.03 213.436 1036.07 214.813C1037.1 216.207 1037.61 218.004 1037.59 220.227C1037.57 222.39 1037.21 224.058 1036.49 225.226C1035.77 226.41 1034.91 226.958 1033.94 226.872C1032.39 226.738 1031.48 225.581 1031.38 223.439L1031.11 223.418L1031.09 225.414C1031.08 226.657 1031.15 227.965 1031.26 229.337C1031.38 230.72 1031.53 231.866 1031.73 232.802L1027.4 232.426H1027.4ZM1034.48 219.791C1034.49 218.532 1034.24 217.504 1033.72 216.68C1033.2 215.857 1032.57 215.421 1031.83 215.357C1031.5 215.33 1031.25 215.475 1031.18 215.47L1031.14 220.576C1031.16 221.4 1031.32 222.137 1031.6 222.766C1031.87 223.396 1032.25 223.74 1032.73 223.784C1033.82 223.875 1034.46 222.492 1034.48 219.785L1034.48 219.791Z" fill="#00BFE6"/>
<path d="M1038.66 233.398C1039.12 231.499 1039.38 229.072 1039.4 226.128L1039.44 220.51C1039.46 217.556 1039.25 215.086 1038.82 213.111L1046.64 213.789L1047.07 217.169C1046.42 216.846 1045.55 216.625 1044.46 216.534L1042.43 216.356L1042.39 222.184L1043.14 222.249C1044.35 222.351 1045.24 222.372 1045.84 222.313L1045.82 225.553C1045.19 225.402 1044.22 225.273 1042.9 225.16L1042.36 225.111L1042.35 226.666C1042.33 229.298 1042.55 231.666 1042.99 233.77L1038.66 233.393V233.398Z" fill="#00BFE6"/>
<path d="M988.464 272.351L1061.63 278.75L1062.27 271.438L989.104 265.039L988.464 272.351Z" fill="#C4F5F5" stroke="#C4F5F5" stroke-width="2.15223" stroke-linecap="round" stroke-linejoin="round"/>
<path d="M1062.27 271.434L1061.63 278.747L988.461 272.349L989.102 265.036" stroke="#00BFE6" stroke-width="2.15223" stroke-linecap="round" stroke-linejoin="round"/>
<path d="M992.43 313.026L1025.36 330.644L1058.28 318.784L1058.29 269.406L1047.32 268.448L1047.31 280.976L1003.41 277.134V264.606L992.435 263.648L992.43 313.026Z" fill="#C4F5F5" stroke="#C4F5F5" stroke-width="2.15223" stroke-linecap="round" stroke-linejoin="round"/>
<path d="M1061.62 278.743C1061.5 280.158 1062.54 281.405 1063.96 281.529C1065.37 281.653 1066.62 280.606 1066.74 279.191L1067.38 271.884C1067.51 270.469 1066.46 269.221 1065.05 269.098C1063.63 268.974 1062.39 270.021 1062.26 271.436L1061.62 278.743Z" fill="#C4F5F5" stroke="#C4F5F5" stroke-width="2.15223" stroke-linecap="round" stroke-linejoin="round"/>
<path d="M1066.74 279.196C1066.62 280.611 1065.37 281.655 1063.96 281.532C1062.54 281.408 1061.5 280.159 1061.62 278.75L1062.26 271.437" stroke="#00BFE6" stroke-width="2.15223" stroke-linecap="round" stroke-linejoin="round"/>
<path d="M989.101 265.037C989.224 263.621 988.178 262.374 986.764 262.25C985.35 262.127 984.103 263.174 983.979 264.589L983.339 271.895C983.215 273.311 984.262 274.558 985.676 274.682C987.09 274.805 988.337 273.758 988.461 272.343L989.101 265.037Z" fill="#C4F5F5" stroke="#C4F5F5" stroke-width="2.15223" stroke-linecap="round" stroke-linejoin="round"/>
<path d="M983.33 271.897C983.206 273.312 984.251 274.555 985.667 274.679C987.083 274.802 988.326 273.759 988.45 272.343L989.091 265.03" stroke="#00BFE6" stroke-width="2.15223" stroke-linecap="round" stroke-linejoin="round"/>
<path d="M1022.69 170.526C1022.25 175.574 1025.98 180.024 1031.03 180.471C1036.08 180.912 1040.53 177.177 1040.98 172.13" stroke="#00BFE6" stroke-width="2.15223" stroke-linecap="round" stroke-linejoin="round"/>
<path d="M1002.47 307.718C1002.9 305.818 1003.11 303.391 1003.09 300.448L1003.04 294.83C1003.01 291.876 1002.76 289.406 1002.29 287.431L1006.01 287.754C1008.2 287.942 1009.92 288.97 1011.16 290.815C1012.39 292.677 1013.03 295.217 1013.06 298.446C1013.08 301.685 1012.5 304.15 1011.29 305.813C1010.08 307.492 1008.38 308.234 1006.19 308.041L1002.47 307.718ZM1006.08 305.194L1006.45 305.226C1007.49 305.318 1008.34 304.785 1008.99 303.623C1009.63 302.46 1009.95 300.652 1009.92 298.177C1009.9 295.675 1009.5 293.689 1008.82 292.5C1008.15 291.327 1007.29 290.713 1006.28 290.627L1005.95 290.6L1006.08 305.199L1006.08 305.194Z" fill="#00BFE6"/>
<path d="M1013.4 308.668C1013.77 307.823 1014.14 306.742 1014.49 305.413C1014.84 304.1 1015.13 302.797 1015.35 301.517L1016.44 296.001C1016.95 293.009 1017.13 290.577 1017 288.715L1022.3 289.172C1022.25 290.071 1022.29 291.206 1022.43 292.589C1022.56 293.972 1022.74 295.291 1022.99 296.566L1024.16 302.281C1024.71 305.257 1025.41 307.764 1026.26 309.787L1021.91 309.411C1021.97 307.791 1021.82 305.881 1021.47 303.707L1021.32 302.873L1018.22 302.604L1018.08 303.438C1017.79 305.773 1017.67 307.64 1017.74 309.05L1013.39 308.674L1013.4 308.668ZM1018.61 300.225L1020.87 300.424L1020.31 297.718C1020.22 297.217 1020.05 295.813 1019.8 293.531L1019.56 293.509C1019.54 293.789 1019.5 294.225 1019.46 294.801C1019.42 295.393 1019.37 295.893 1019.33 296.329C1019.3 296.765 1019.23 297.185 1019.16 297.615L1018.61 300.225H1018.61Z" fill="#00BFE6"/>
<path d="M1027.13 309.857C1027.34 308.986 1027.51 307.866 1027.63 306.521C1027.75 305.176 1027.8 303.863 1027.78 302.593L1027.74 296.975C1027.73 295.699 1027.66 294.381 1027.52 292.998C1027.37 291.631 1027.19 290.48 1026.96 289.57L1030.43 289.872L1034.42 301.258L1034.64 301.28L1034.6 296.227C1034.51 293.816 1034.27 291.803 1033.86 290.168L1038.2 290.544C1037.78 292.503 1037.59 294.93 1037.62 297.83L1037.73 310.777L1034.96 310.535L1030.91 299.073L1030.69 299.052L1030.72 302.846C1030.73 304.089 1030.82 305.396 1030.96 306.769C1031.1 308.151 1031.27 309.298 1031.48 310.234L1027.13 309.857Z" fill="#00BFE6"/>
<path d="M1040.27 311C1040.48 310.128 1040.65 309.009 1040.77 307.664C1040.89 306.318 1040.94 305.005 1040.93 303.735L1040.88 298.117C1040.87 296.842 1040.8 295.524 1040.66 294.141C1040.51 292.768 1040.33 291.622 1040.1 290.713L1047.95 291.391L1048.42 294.738C1047.89 294.437 1047.01 294.232 1045.81 294.13L1043.81 293.958L1043.85 299.011L1045.37 299.145C1046.49 299.242 1047.39 299.264 1048.07 299.194L1048.1 302.449C1047.33 302.282 1046.43 302.148 1045.4 302.062L1043.88 301.927L1043.93 308.39L1046.23 308.589C1047.29 308.681 1048.16 308.616 1048.84 308.379L1048.21 311.689L1040.28 311H1040.27Z" fill="#00BFE6"/>
<path d="M981.76 349.143L1054.93 355.542L1055.57 348.23L982.4 341.831L981.76 349.143Z" fill="#C4F5F5" stroke="#C4F5F5" stroke-width="2.15223" stroke-linecap="round" stroke-linejoin="round"/>
<path d="M1055.57 348.226L1054.93 355.545L981.758 349.141L982.398 341.828" stroke="#00BFE6" stroke-width="2.15223" stroke-linecap="round" stroke-linejoin="round"/>
<path d="M985.739 389.823L1018.67 407.441L1051.59 395.581L1051.58 346.204L1040.6 345.24L1040.6 357.773L996.7 353.931V341.404L985.723 340.44L985.739 389.823Z" fill="#C4F5F5" stroke="#C4F5F5" stroke-width="2.15223" stroke-linecap="round" stroke-linejoin="round"/>
<path d="M1054.91 355.529C1054.78 356.944 1055.83 358.191 1057.24 358.315C1058.66 358.439 1059.91 357.392 1060.03 355.977L1060.67 348.67C1060.79 347.255 1059.75 346.007 1058.33 345.884C1056.92 345.76 1055.67 346.807 1055.55 348.222L1054.91 355.529Z" fill="#C4F5F5" stroke="#C4F5F5" stroke-width="2.15223" stroke-linecap="round" stroke-linejoin="round"/>
<path d="M1060.03 355.986C1059.9 357.401 1058.66 358.445 1057.24 358.322C1055.83 358.198 1054.78 356.949 1054.91 355.54L1055.55 348.227" stroke="#00BFE6" stroke-width="2.15223" stroke-linecap="round" stroke-linejoin="round"/>
<path d="M982.386 341.832C982.51 340.416 981.463 339.169 980.049 339.045C978.635 338.922 977.388 339.969 977.264 341.384L976.624 348.69C976.501 350.106 977.547 351.353 978.961 351.477C980.375 351.6 981.622 350.553 981.746 349.138L982.386 341.832Z" fill="#C4F5F5" stroke="#C4F5F5" stroke-width="2.15223" stroke-linecap="round" stroke-linejoin="round"/>
<path d="M976.619 348.692C976.496 350.107 977.54 351.35 978.956 351.474C980.372 351.597 981.615 350.553 981.739 349.138L982.38 341.825" stroke="#00BFE6" stroke-width="2.15223" stroke-linecap="round" stroke-linejoin="round"/>
<path d="M1000.38 384.802C1000.87 382.951 1001.1 380.524 1001.1 377.543L1001.12 367.512L1000.62 367.464C999.551 367.362 998.663 367.421 997.969 367.625L998.453 364.332L1006.76 365.118L1007.2 368.497C1006.55 368.169 1005.67 367.943 1004.56 367.835L1004.08 367.792L1004.07 377.823C1004.07 380.766 1004.29 383.236 1004.74 385.216L1000.37 384.802H1000.38Z" fill="#00BFE6"/>
<path d="M1013.01 385.94C1012.15 385.649 1011.38 385.461 1010.73 385.401C1009.99 385.331 1009.19 385.482 1008.31 385.837C1008.5 384.966 1008.67 383.809 1008.81 382.361C1008.94 380.914 1009 379.563 1009 378.293L1009.01 372.675C1009.01 371.416 1008.96 370.108 1008.83 368.725C1008.7 367.342 1008.55 366.196 1008.34 365.271L1012.63 365.674C1012.2 367.627 1011.97 370.054 1011.96 372.955L1011.95 382.915L1014.18 383.125C1015.29 383.227 1016.11 383.125 1016.67 382.808L1016.64 386.257L1016.54 386.306C1016.28 386.381 1015.73 386.542 1015.06 386.478C1014.54 386.429 1013.86 386.252 1013 385.945L1013.01 385.94Z" fill="#00BFE6"/>
<path d="M1017.7 385.362V381.983C1018.16 382.548 1018.7 383.011 1019.32 383.366C1019.93 383.732 1020.48 383.942 1020.99 383.99C1021.6 384.049 1022.11 383.883 1022.53 383.511C1022.94 383.14 1023.14 382.607 1023.14 381.94C1023.14 380.864 1022.51 379.642 1021.69 378.647C1021.27 378.152 1020.82 377.603 1020.34 376.989C1019.35 375.779 1018.5 374.751 1017.94 373.223C1017.66 372.475 1017.52 371.71 1017.52 370.936C1017.52 369.391 1017.98 368.191 1018.89 367.357C1019.79 366.523 1020.94 366.162 1022.33 366.297C1023.59 366.415 1024.66 366.873 1025.52 367.648V371.027C1024.69 369.999 1023.76 369.445 1022.75 369.348C1022.15 369.294 1021.64 369.44 1021.25 369.816C1020.85 370.188 1020.64 370.677 1020.64 371.285C1020.64 372.997 1022.49 374.643 1024.05 376.731C1025.21 378.243 1026.28 380.154 1026.26 382.403C1026.26 383.947 1025.79 385.147 1024.84 385.992C1023.9 386.837 1022.72 387.192 1021.31 387.058C1019.94 386.928 1018.56 386.288 1017.69 385.357L1017.7 385.362Z" fill="#00BFE6"/>
<path d="M1026.59 387.277C1026.97 386.438 1027.35 385.356 1027.72 384.027C1028.08 382.719 1028.39 381.417 1028.62 380.136L1029.76 374.626C1030.3 371.634 1030.51 369.207 1030.4 367.34L1035.69 367.84C1035.63 368.739 1035.66 369.874 1035.79 371.257C1035.9 372.64 1036.07 373.959 1036.3 375.239L1037.41 380.96C1037.93 383.935 1038.61 386.448 1039.43 388.482L1035.1 388.073C1035.17 386.454 1035.04 384.543 1034.71 382.364L1034.57 381.53L1031.48 381.239L1031.33 382.073C1031.01 384.404 1030.88 386.276 1030.93 387.681L1026.6 387.272L1026.59 387.277ZM1031.89 378.877L1034.15 379.092L1033.62 376.38C1033.53 375.874 1033.37 374.475 1033.14 372.188L1032.91 372.167C1032.88 372.447 1032.83 372.882 1032.79 373.458C1032.75 374.05 1032.69 374.551 1032.65 374.986C1032.6 375.422 1032.53 375.837 1032.46 376.273L1031.89 378.877Z" fill="#00BFE6"/>
<path d="M999.25 236.244L1032.27 253.867L1065.1 242.002" stroke="#00BFE6" stroke-width="2.15223" stroke-linecap="round" stroke-linejoin="round"/>
<path d="M992.43 313.027L1025.36 330.645L1058.28 318.785" stroke="#00BFE6" stroke-width="2.15223" stroke-linecap="round" stroke-linejoin="round"/>
<path d="M985.711 389.82L1018.64 407.438L1051.56 395.578" stroke="#00BFE6" stroke-width="2.15223" stroke-linecap="round" stroke-linejoin="round"/>
<path d="M1054.87 157.642L1058.21 151.631" stroke="#00BFE6" stroke-width="2.15223" stroke-linecap="round" stroke-linejoin="round"/>
<path d="M1066.9 170.658L1072.91 166.983" stroke="#00BFE6" stroke-width="2.15223" stroke-linecap="round" stroke-linejoin="round"/>
<path d="M1077.94 335.216L1081.28 329.205" stroke="#C4F5F5" stroke-width="2.15223" stroke-linecap="round" stroke-linejoin="round"/>
<path d="M1089.97 348.227L1095.98 344.558" stroke="#C4F5F5" stroke-width="2.15223" stroke-linecap="round" stroke-linejoin="round"/>
<path d="M628.774 366.475L623.305 362.305" stroke="#C4F5F5" stroke-width="2.15223" stroke-linecap="round" stroke-linejoin="round"/>
<path d="M643.392 356.464L640.625 349.99" stroke="#C4F5F5" stroke-width="2.15223" stroke-linecap="round" stroke-linejoin="round"/>
<path d="M844.23 176.521C844.408 175.924 844.677 175.348 845.022 174.832C845.792 173.68 846.944 172.814 848.241 172.405" stroke="#00BFE6" stroke-width="2.15223" stroke-linecap="round" stroke-linejoin="round"/>
<path d="M847.7 237.398H856.491C859.899 237.398 862.661 234.772 862.661 231.532V226.194C862.661 225.22 861.831 224.435 860.809 224.435H843.387C842.364 224.435 841.535 225.22 841.535 226.194V231.532C841.535 234.772 844.297 237.398 847.705 237.398H847.7Z" fill="#FF5C4D"/>
<path d="M870.895 192.963C872.333 200.454 872.187 211.178 866.906 224.034C865.652 227.091 862.712 229.076 859.466 229.076H839.552C832.042 213.982 831.654 201.417 833.275 192.969C835.019 183.864 843.019 177.428 852.08 177.428C861.14 177.428 869.14 183.864 870.885 192.969L870.895 192.963Z" fill="#FF5C4D"/>
<path d="M870.894 198.843C869.149 190.384 861.149 184.405 852.089 184.405C843.028 184.405 835.028 190.384 833.284 198.843C832.428 202.986 832.137 208.201 833.154 214.26C833.661 217.284 837.375 224.678 839.663 229.031C840.745 231.087 842.953 232.389 845.375 232.389H858.824C861.235 232.389 863.443 231.098 864.525 229.047C866.797 224.753 870.474 217.494 870.985 214.529C872.057 208.357 871.766 203.051 870.899 198.848L870.894 198.843Z" fill="#FFBB99"/>
<path d="M845.377 232.392H858.825C861.237 232.392 863.445 231.1 864.527 229.05C866.799 224.756 870.476 217.491 870.992 214.526V208.666C870.992 208.666 865.916 218.734 864.161 222.232C862.669 225.213 859.504 227.113 856.037 227.113H848.381C844.909 227.113 841.749 225.213 840.257 222.232C839.062 219.848 832.516 208.666 832.516 208.666L833.162 214.262C833.668 217.281 837.382 224.68 839.676 229.034C840.758 231.089 842.965 232.392 845.388 232.392H845.377Z" fill="#FF5C4D"/>
<path d="M870.894 198.843C869.149 190.384 861.149 184.405 852.089 184.405C843.028 184.405 835.028 190.384 833.284 198.843C832.428 202.986 832.137 208.201 833.154 214.26C833.661 217.284 837.375 224.678 839.663 229.031C840.745 231.087 842.953 232.389 845.375 232.389H858.824C861.235 232.389 863.443 231.098 864.525 229.047C866.797 224.753 870.474 217.494 870.985 214.529C872.057 208.357 871.766 203.051 870.899 198.848L870.894 198.843Z" stroke="#4D1F1F" stroke-width="2.15223" stroke-linecap="round" stroke-linejoin="round"/>
<path d="M839.121 194.9C841.775 193.974 845.808 194.48 848.026 196.202L848.16 194.986L843.638 194.55" stroke="#4D1F1F" stroke-width="2.15223" stroke-linecap="round" stroke-linejoin="round"/>
<path d="M864.781 194.991C862.149 194.006 858.111 194.442 855.85 196.11L855.742 194.888L860.663 194.523" stroke="#4D1F1F" stroke-width="2.15223" stroke-linecap="round" stroke-linejoin="round"/>
<path d="M855.615 189.099L852.089 190.45L848.562 189.099C845.892 188.077 844.207 185.983 844.207 183.691V176.346H859.97V183.691C859.97 185.978 858.285 188.071 855.615 189.099Z" fill="#FFE88C"/>
<path d="M854.103 181.887C855.191 181.887 856.074 181.21 856.074 180.375C856.074 179.54 855.191 178.863 854.103 178.863C853.015 178.863 852.133 179.54 852.133 180.375C852.133 181.21 853.015 181.887 854.103 181.887Z" fill="#FF5C4D"/>
<path d="M859.97 176.344V183.689C859.97 185.976 858.285 188.069 855.615 189.097L852.089 190.448L848.562 189.097C845.892 188.075 844.207 185.981 844.207 183.689V176.344" stroke="#4D1F1F" stroke-width="2.15223" stroke-linecap="round" stroke-linejoin="round"/>
<path d="M825.092 180.37L821.27 176.522" stroke="#4D1F1F" stroke-width="2.15223" stroke-linecap="round" stroke-linejoin="round"/>
<path d="M850.967 202.862L844.496 206.748L848.738 210.993" stroke="#4D1F1F" stroke-width="2.15223" stroke-linecap="round" stroke-linejoin="round"/>
<path d="M847.251 200.103C846.185 199.011 844.85 198.403 843.515 198.397C842.18 198.392 840.839 198.995 839.773 200.076" stroke="#4D1F1F" stroke-width="2.15223" stroke-linecap="round" stroke-linejoin="round"/>
<path d="M863.685 199.963C862.581 198.908 861.225 198.354 859.889 198.397C858.554 198.44 857.235 199.091 856.207 200.216" stroke="#4D1F1F" stroke-width="2.15223" stroke-linecap="round" stroke-linejoin="round"/>
<path d="M843.508 200.047V201.505" stroke="#4D1F1F" stroke-width="3.22835" stroke-linecap="round" stroke-linejoin="round"/>
<path d="M859.91 200.047V201.505" stroke="#4D1F1F" stroke-width="3.22835" stroke-linecap="round" stroke-linejoin="round"/>
<path d="M826.828 205.144C830.478 204.842 833.445 201.904 835.022 198.605C836.599 195.307 837.105 191.615 837.951 188.053C838.796 184.496 840.115 180.853 842.861 178.437C842.861 178.437 835.566 177.393 829.708 190.442" fill="#4D1F1F"/>
<path d="M826.828 205.144C830.478 204.842 833.445 201.904 835.022 198.605C836.599 195.307 837.105 191.615 837.951 188.053C838.796 184.496 840.115 180.853 842.861 178.437C842.861 178.437 835.566 177.393 829.708 190.442" stroke="#4D1F1F" stroke-width="2.15223" stroke-linecap="round" stroke-linejoin="round"/>
<path d="M861.676 178.598C865.364 178.038 869.304 179.642 871.549 182.617C873.277 184.904 873.977 187.789 874.499 190.608C875.022 193.428 875.42 196.318 876.669 198.901C877.913 201.484 880.212 203.76 883.054 204.121" stroke="#00BFE6" stroke-width="2.15223" stroke-linecap="round" stroke-linejoin="round"/>
<path d="M853.422 215.276C856.033 216.158 859.069 215.679 861.282 214.038" stroke="#4D1F1F" stroke-width="2.15223" stroke-linecap="round" stroke-linejoin="round"/>
</g>
<defs>
<linearGradient id="paint0_linear_379_73431" x1="13.125" y1="584.824" x2="571.5" y2="584.173" gradientUnits="userSpaceOnUse">
<stop stop-color="#FBFCF9"/>
<stop offset="0.75809" stop-color="#E9F8F8"/>
<stop offset="0.963262" stop-color="#00BFE6"/>
</linearGradient>
<linearGradient id="paint1_linear_379_73431" x1="2" y1="239.094" x2="613.991" y2="238.946" gradientUnits="userSpaceOnUse">
<stop offset="0.506578" stop-color="#FBFCF9"/>
<stop offset="1" stop-color="#00BFE6"/>
</linearGradient>
<linearGradient id="paint2_linear_379_73431" x1="1015.92" y1="180.082" x2="1015.92" y2="527.634" gradientUnits="userSpaceOnUse">
<stop stop-color="#C4F5F5"/>
<stop offset="1" stop-color="#DAF8F7"/>
</linearGradient>
<linearGradient id="paint3_linear_379_73431" x1="1015.92" y1="180.082" x2="1015.92" y2="527.634" gradientUnits="userSpaceOnUse">
<stop offset="0.68" stop-color="#C4F5F5"/>
<stop offset="1" stop-color="#DAF8F7"/>
</linearGradient>
<clipPath id="clip0_379_73431">
<rect width="624" height="494.393" fill="white" transform="translate(472 107.805)"/>
</clipPath>
</defs>
</svg>
