<svg width="584" height="346" viewBox="0 0 584 346" fill="none" xmlns="http://www.w3.org/2000/svg">
<rect x="0.84375" y="1.73535" width="582.962" height="342" rx="24" fill="url(#paint0_linear_379_70459)" fill-opacity="0.2"/>
<path d="M5 308.09H578.093" stroke="#C4F5F5" stroke-width="1.84582" stroke-linecap="round" stroke-linejoin="round"/>
<path d="M76.3438 10.2344V250.191L124.836 231.733L173.329 250.191V10.2344" fill="#C4F5F5"/>
<path d="M76.3438 10.2344V250.191L124.836 231.733L173.329 250.191V10.2344" stroke="#C4F5F5" stroke-width="1.84582" stroke-linecap="round" stroke-linejoin="round"/>
<path d="M71.9375 1.00488V240.962L124.838 222.504L177.739 240.962V1.00488" fill="#FFE28D"/>
<path d="M164.523 1.00488V221.756L124.848 207.912L85.1719 221.756V1.00488" stroke="#FF5C4D" stroke-width="1.84582" stroke-linecap="round" stroke-linejoin="round"/>
<path d="M98.3828 141.67V177.705C98.3828 188.258 103.986 197.746 113.005 202.467L124.833 208.659L136.661 202.467C145.681 197.746 151.284 188.258 151.284 177.705V141.67H98.3828Z" fill="#FFE28D" stroke="#FF5C4D" stroke-width="1.84582" stroke-linecap="round" stroke-linejoin="round"/>
<path d="M135.423 162.431C138.345 162.431 140.713 159.952 140.713 156.894C140.713 153.836 138.345 151.356 135.423 151.356C132.501 151.356 130.133 153.836 130.133 156.894C130.133 159.952 132.501 162.431 135.423 162.431Z" fill="#FFE28D" stroke="#FF5C4D" stroke-width="1.84582" stroke-linecap="round" stroke-linejoin="round"/>
<path d="M71.9375 240.962L124.838 222.504L177.739 240.962V1.00488" stroke="#FF5C4D" stroke-width="1.84582" stroke-linecap="round" stroke-linejoin="round"/>
<path d="M418.359 10.2344V250.191L466.852 231.733L515.344 250.191V10.2344" fill="#C4F5F5"/>
<path d="M418.359 10.2344V250.191L466.852 231.733L515.344 250.191V10.2344" stroke="#C4F5F5" stroke-width="1.84582" stroke-linecap="round" stroke-linejoin="round"/>
<path d="M413.953 1.00488V240.962L466.854 222.504L519.755 240.962V1.00488" fill="#FFE28D"/>
<path d="M506.539 1.00488V221.756L466.863 207.912L427.188 221.756V1.00488" stroke="#FF5C4D" stroke-width="1.84582" stroke-linecap="round" stroke-linejoin="round"/>
<path d="M440.398 141.67V177.705C440.398 188.258 446.001 197.746 455.021 202.467L466.849 208.659L478.677 202.467C487.696 197.746 493.299 188.258 493.299 177.705V141.67H440.398Z" fill="#FFE28D" stroke="#FF5C4D" stroke-width="1.84582" stroke-linecap="round" stroke-linejoin="round"/>
<path d="M477.431 162.431C480.352 162.431 482.721 159.952 482.721 156.894C482.721 153.836 480.352 151.356 477.431 151.356C474.509 151.356 472.141 153.836 472.141 156.894C472.141 159.952 474.509 162.431 477.431 162.431Z" fill="#FFE28D" stroke="#FF5C4D" stroke-width="1.84582" stroke-linecap="round" stroke-linejoin="round"/>
<path d="M413.953 1.00488V240.962L466.854 222.504L519.755 240.962" stroke="#FF5C4D" stroke-width="1.84582" stroke-linecap="round" stroke-linejoin="round"/>
<path d="M330.234 60.8994C335.167 52.6809 336.048 41.9475 332.53 32.9675C329.013 23.9876 321.179 16.9965 312.15 14.7769C302.897 12.502 293.102 15.0769 284.554 19.4238C276.006 23.7707 268.366 29.8112 260.277 35.0302C253.104 39.6586 245.473 43.7148 239.35 49.7784C231.415 57.637 226.464 68.7211 225.799 80.1375C225.133 91.5539 228.752 103.183 235.713 111.996C229.581 120.109 225.556 131.465 225.084 141.797C224.613 152.129 227.297 162.595 232.658 171.284H297.695V67.8028L330.234 60.8994Z" fill="#FF5C4D" stroke="#FF5C4D" stroke-width="1.84582" stroke-linecap="round" stroke-linejoin="round"/>
<path d="M308.79 54.2438C312.96 48.6833 314.657 41.0877 312.951 34.2489C311.241 27.4102 306.052 21.5589 299.563 19.5977C293.33 17.715 286.585 19.3716 280.655 22.1311C274.726 24.8906 269.299 28.7207 263.383 31.4987C257.463 34.2766 250.735 35.9748 244.484 34.1474" stroke="#4D1F1F" stroke-width="1.84582" stroke-linecap="round" stroke-linejoin="round"/>
<path d="M267.971 55.0815C263.858 52.0728 258.008 52.8666 253.807 55.7414C249.605 58.6163 246.753 63.1801 244.329 67.7762C241.904 72.3723 239.748 77.2037 236.451 81.163C233.153 85.1223 228.414 88.1771 223.406 87.8634" stroke="#4D1F1F" stroke-width="1.84582" stroke-linecap="round" stroke-linejoin="round"/>
<path d="M241.913 139.477C239.815 149.596 241.644 160.551 246.902 169.328" stroke="#4D1F1F" stroke-width="1.84582" stroke-linecap="round" stroke-linejoin="round"/>
<path d="M397.414 196.42C394.147 181.007 381.513 169.729 366.454 168.793L354.82 168.013H236.877L225.244 168.793C210.189 169.729 197.55 181.003 194.283 196.42C192.396 205.321 188.861 213.761 183.796 221.182C175.446 233.415 162.507 256.058 159.219 282.735C167.101 269.491 187.027 273.414 193.23 286.639C192.974 285.55 193.181 284.387 193.82 283.464L200.354 280.88L203.365 272.592L221.033 248.274C224.556 258.329 232.839 267.493 232.839 267.493L238.927 307.617H352.796L358.884 267.493C358.884 267.493 367.168 258.324 370.69 248.283L388.359 272.592L391.37 280.88L397.881 283.464C398.547 284.424 398.745 285.642 398.441 286.768C404.564 273.455 424.543 269.459 432.474 282.675C429.172 256.022 416.247 233.406 407.902 221.182C402.836 213.761 399.301 205.321 397.414 196.42Z" fill="#00BFE6"/>
<path d="M360.16 207.628L353.896 203.064L371.014 242.948C371.014 261.6 358.89 277.982 358.89 277.982L350.603 290.995H241.138L232.85 277.982C232.85 277.982 220.727 261.6 220.727 242.948L237.844 203.064L231.58 207.628" fill="#00BFE6"/>
<path d="M232.842 277.982C232.842 277.982 220.719 261.6 220.719 242.948L237.837 203.064L231.572 207.628" stroke="#4D1F1F" stroke-width="1.84582" stroke-linecap="round" stroke-linejoin="round"/>
<path d="M325.046 279.82H254.961L340.308 269.695" stroke="#4D1F1F" stroke-width="1.84582" stroke-linecap="round" stroke-linejoin="round"/>
<path d="M360.171 207.628L353.906 203.064L371.024 242.948C371.024 261.6 358.901 277.982 358.901 277.982" stroke="#4D1F1F" stroke-width="1.84582" stroke-linecap="round" stroke-linejoin="round"/>
<path d="M159.221 282.738C157.515 296.554 158.397 311.454 163.845 326.549H238.907L238.943 307.615L236.703 292.867L223.275 286.836C218.197 284.556 212.298 285.784 208.441 289.928L201.502 297.38C199.805 299.203 196.864 298.478 196.124 296.056L193.408 287.214C193.333 287.03 193.28 286.836 193.232 286.642C187.034 273.412 167.103 269.494 159.221 282.738Z" fill="#FFBB99"/>
<path d="M158.722 286.179H158.717C157.734 299.256 158.982 312.975 163.884 326.556H234.665C237.028 326.556 238.946 324.549 238.946 322.075" stroke="#FF5C4D" stroke-width="1.84582" stroke-linecap="round" stroke-linejoin="round"/>
<path d="M224.219 317.295L238.943 317.696" stroke="#FF5C4D" stroke-width="1.84582" stroke-linecap="round" stroke-linejoin="round"/>
<path d="M224.219 307.691L238.943 308.051" stroke="#FF5C4D" stroke-width="1.84582" stroke-linecap="round" stroke-linejoin="round"/>
<path d="M224.547 297.465L238.116 300.146" stroke="#FF5C4D" stroke-width="1.84582" stroke-linecap="round" stroke-linejoin="round"/>
<path d="M221.056 248.277L203.387 272.596L200.377 280.884L193.865 283.468C193.111 284.552 192.953 285.974 193.451 287.21" stroke="#4D1F1F" stroke-width="1.84582" stroke-linecap="round" stroke-linejoin="round"/>
<path d="M432.519 282.738C434.225 296.554 433.343 311.454 427.894 326.549H352.832L352.797 307.615L355.036 292.867L368.464 286.836C373.543 284.556 379.441 285.784 383.299 289.928L390.238 297.38C391.935 299.203 394.875 298.478 395.616 296.056L398.331 287.214C398.406 287.03 398.459 286.836 398.508 286.642C404.706 273.412 424.636 269.494 432.519 282.738Z" fill="#FFBB99"/>
<path d="M433.021 286.179H433.026C434.009 299.256 432.761 312.975 427.859 326.556H357.078C354.715 326.556 352.797 324.549 352.797 322.075" stroke="#FF5C4D" stroke-width="1.84582" stroke-linecap="round" stroke-linejoin="round"/>
<path d="M367.521 317.295L352.797 317.696" stroke="#FF5C4D" stroke-width="1.84582" stroke-linecap="round" stroke-linejoin="round"/>
<path d="M367.521 307.691L352.797 308.051" stroke="#FF5C4D" stroke-width="1.84582" stroke-linecap="round" stroke-linejoin="round"/>
<path d="M367.19 297.465L353.625 300.146" stroke="#FF5C4D" stroke-width="1.84582" stroke-linecap="round" stroke-linejoin="round"/>
<path d="M370.703 248.277L388.372 272.596L391.383 280.884L397.894 283.468C398.648 284.552 398.807 285.974 398.309 287.21" stroke="#4D1F1F" stroke-width="1.84582" stroke-linecap="round" stroke-linejoin="round"/>
<path d="M352.814 307.611H238.945V326.545H352.814V307.611Z" fill="#4D1F1F" stroke="#4D1F1F" stroke-width="1.84582" stroke-linecap="round" stroke-linejoin="round"/>
<path d="M387.906 271.577C391.164 266.326 395.96 262.136 401.48 259.727C406.999 257.318 413.219 256.695 419.074 257.973" stroke="#4D1F1F" stroke-width="1.84582" stroke-linecap="round" stroke-linejoin="round"/>
<path d="M203.369 272.592C203.369 272.592 194.231 254.235 171.938 259.122" stroke="#4D1F1F" stroke-width="1.84582" stroke-linecap="round" stroke-linejoin="round"/>
<path d="M332.938 168.87H331.972C326.263 168.87 321.312 165.469 318.866 160.504C317.821 158.386 317.23 155.986 317.23 153.439C317.23 151.145 317.72 148.88 318.659 146.812L330.998 119.66H260.737L273.076 146.812C274.015 148.884 274.504 151.15 274.504 153.439C274.504 155.986 273.909 158.386 272.869 160.504C270.417 165.473 265.471 168.87 259.762 168.87H246.109C246.109 187.942 268.39 203.401 295.872 203.401C323.354 203.401 345.634 187.942 345.634 168.87H332.946H332.938Z" fill="#4D1F1F" stroke="#4D1F1F" stroke-width="1.84582" stroke-linecap="round" stroke-linejoin="round"/>
<path d="M260.734 119.656L269.11 138.091C271.531 143.417 276.662 146.808 282.296 146.808H309.434C315.068 146.808 320.199 143.417 322.62 138.091L330.996 119.656H260.734Z" fill="#00BFE6" stroke="#4D1F1F" stroke-width="1.84582" stroke-linecap="round" stroke-linejoin="round"/>
<path d="M254.492 87.4374V80.5386C254.492 56.626 273.012 37.2402 295.856 37.2402C318.701 37.2402 337.22 56.626 337.22 80.5386V87.3682L295.856 99.3891L254.492 87.442" fill="#C4F5F5"/>
<path d="M254.492 87.4374V80.5386C254.492 56.626 273.012 37.2402 295.856 37.2402C318.701 37.2402 337.22 56.626 337.22 80.5386V87.3682L295.856 99.3891L254.492 87.442" stroke="#00BFE6" stroke-width="1.84582" stroke-linecap="round" stroke-linejoin="round"/>
<path d="M269.633 72.8965H275.298C282.453 72.8965 289.511 74.6408 295.912 77.991C302.313 74.6408 309.371 72.8965 316.526 72.8965H322.138C326.436 72.8965 329.923 76.5466 329.923 81.0458V91.4793H261.844V81.0458C261.844 76.5466 265.331 72.8965 269.629 72.8965H269.633Z" fill="#FFBB99" stroke="#00BFE6" stroke-width="1.84582" stroke-linecap="round" stroke-linejoin="round"/>
<path d="M264.719 67.8019C278.156 67.8019 289.053 56.3994 289.053 42.3296V37.2351L295.869 32.1406L302.684 37.2351V42.3296C302.684 56.3947 313.577 67.8019 327.018 67.8019" fill="#C4F5F5"/>
<path d="M264.719 67.8019C278.156 67.8019 289.053 56.3994 289.053 42.3296V37.2351L295.869 32.1406L302.684 37.2351V42.3296C302.684 56.3947 313.577 67.8019 327.018 67.8019" stroke="#00BFE6" stroke-width="1.84582" stroke-linecap="round" stroke-linejoin="round"/>
<path d="M335.421 87.4922C330.219 89.3657 324.643 89.9333 319.154 89.1119L295.86 85.6279L272.566 89.1119C267.078 89.9333 261.501 89.3657 256.299 87.4922C254.214 86.74 252.062 88.4013 252.062 90.7132C252.062 103.408 256.987 117.962 264.953 126.264L287.493 137.496C292.787 140.135 298.933 140.135 304.227 137.496L326.768 126.264C334.733 117.958 339.662 103.408 339.658 90.7132C339.658 88.4059 337.506 86.74 335.421 87.4922Z" fill="#00BFE6" stroke="#00BFE6" stroke-width="1.84582" stroke-linecap="round" stroke-linejoin="round"/>
<path d="M282.332 102.923L295.857 99.3839L309.382 102.923C318.878 105.411 328.876 101.696 334.748 93.4958L338.557 88.1798C337.728 87.4138 336.534 87.0908 335.365 87.5107C330.177 89.3703 324.618 89.9333 319.147 89.1119L295.853 85.6279L272.559 89.1119C267.088 89.9287 261.529 89.3703 256.34 87.5107C255.172 87.0908 253.982 87.4138 253.148 88.1798L256.957 93.4958C262.829 101.696 272.828 105.411 282.323 102.923H282.332Z" fill="#C4F5F5" stroke="#00BFE6" stroke-width="1.84582" stroke-linecap="round" stroke-linejoin="round"/>
<path d="M295.859 94.2888V37.2344" stroke="#00BFE6" stroke-width="1.84582" stroke-linecap="round" stroke-linejoin="round"/>
<path d="M295.883 104.479V134.432" stroke="#4D1F1F" stroke-width="3.69164" stroke-linecap="round" stroke-linejoin="round"/>
<path d="M295.883 104.479V134.939" stroke="#4D1F1F" stroke-width="3.69164" stroke-linecap="round" stroke-linejoin="round"/>
<path d="M305.625 107.035V131.709" stroke="#4D1F1F" stroke-width="3.69164" stroke-linecap="round" stroke-linejoin="round"/>
<path d="M286.156 106.523V131.71" stroke="#4D1F1F" stroke-width="3.69164" stroke-linecap="round" stroke-linejoin="round"/>
<path d="M276.422 108.773V126.886" stroke="#4D1F1F" stroke-width="3.69164" stroke-linecap="round" stroke-linejoin="round"/>
<path d="M315.344 108.773V126.886" stroke="#4D1F1F" stroke-width="3.69164" stroke-linecap="round" stroke-linejoin="round"/>
<path d="M325.094 106.624V122.009" stroke="#4D1F1F" stroke-width="3.69164" stroke-linecap="round" stroke-linejoin="round"/>
<path d="M266.688 106.624V122.009" stroke="#4D1F1F" stroke-width="3.69164" stroke-linecap="round" stroke-linejoin="round"/>
<path d="M304.266 77.5715C306.712 75.112 310.085 73.6953 313.475 73.6953C316.865 73.6953 320.237 75.1212 322.68 77.5808" stroke="#FF5C4D" stroke-width="2.76873" stroke-linecap="round" stroke-linejoin="round"/>
<path d="M287.445 77.5715C284.999 75.112 281.626 73.6953 278.236 73.6953C274.846 73.6953 271.474 75.1212 269.031 77.5808" stroke="#FF5C4D" stroke-width="2.76873" stroke-linecap="round" stroke-linejoin="round"/>
<path d="M306.812 83.5922C308.589 81.8064 311.04 80.7727 313.504 80.7774C315.969 80.782 318.42 81.811 320.196 83.6015" stroke="#4D1F1F" stroke-width="1.84582" stroke-linecap="round" stroke-linejoin="round"/>
<path d="M271.539 83.5922C273.316 81.8064 275.767 80.7727 278.231 80.7774C280.695 80.782 283.146 81.811 284.923 83.6015" stroke="#4D1F1F" stroke-width="1.84582" stroke-linecap="round" stroke-linejoin="round"/>
<path d="M272.859 160.5C278.388 164.584 286.636 167.177 295.862 167.177C305.089 167.177 313.337 164.584 318.865 160.5" stroke="#00BFE6" stroke-width="1.84582" stroke-linecap="round" stroke-linejoin="round"/>
<path d="M332.931 168.871C327.817 178.363 313.155 185.22 295.856 185.22C278.557 185.22 263.895 178.363 258.781 168.871" stroke="#00BFE6" stroke-width="1.84582" stroke-linecap="round" stroke-linejoin="round"/>
<path d="M252.07 90.7148C252.07 103.409 256.995 117.964 264.961 126.265L287.501 137.497C292.795 140.137 298.941 140.137 304.235 137.497L326.775 126.265C334.741 117.959 339.67 103.409 339.665 90.7148" stroke="#4D1F1F" stroke-width="1.84582" stroke-linecap="round" stroke-linejoin="round"/>
<path d="M261.852 81.0458C261.852 76.5466 265.339 72.8965 269.637 72.8965H275.302C282.456 72.8965 289.514 74.6408 295.915 77.991" stroke="#4D1F1F" stroke-width="1.84582" stroke-linecap="round" stroke-linejoin="round"/>
<path d="M295.906 77.991C302.307 74.6408 309.365 72.8965 316.52 72.8965H322.132C326.43 72.8965 329.917 76.5466 329.917 81.0458" stroke="#4D1F1F" stroke-width="1.84582" stroke-linecap="round" stroke-linejoin="round"/>
<path d="M344.75 52.5433L349.012 48.3164" stroke="#FF5C4D" stroke-width="1.84582" stroke-linecap="round" stroke-linejoin="round"/>
<path d="M348.117 62.8752L356.639 61.2324" stroke="#FF5C4D" stroke-width="1.84582" stroke-linecap="round" stroke-linejoin="round"/>
<path d="M238.924 326.545L234.516 345.003H357.202L352.793 326.545H238.924Z" fill="#FF5C4D" stroke="#FF5C4D" stroke-width="1.84582" stroke-linecap="round" stroke-linejoin="round"/>
<defs>
<linearGradient id="paint0_linear_379_70459" x1="292.325" y1="1.73535" x2="292.325" y2="243.985" gradientUnits="userSpaceOnUse">
<stop stop-color="#FBFCF9"/>
<stop offset="1" stop-color="#FBFCF9" stop-opacity="0.2"/>
</linearGradient>
</defs>
</svg>
