<svg width="648" height="376" viewBox="0 0 648 376" fill="none" xmlns="http://www.w3.org/2000/svg">
<path d="M60.8125 229.6L70.612 288.451C71.5243 293.946 76.2738 297.975 81.8391 297.975H108.087C113.653 297.975 118.402 293.946 119.314 288.451L129.114 229.6H60.8125Z" fill="#FBFCF9" stroke="#FBFCF9" stroke-width="2.14667" stroke-linecap="round" stroke-linejoin="round"/>
<path d="M134.394 209.868L142.015 201.638C144.516 198.936 143.341 194.541 139.826 193.451L129.114 190.136L131.598 179.193C132.414 175.599 129.205 172.381 125.609 173.198L114.677 175.685L111.366 164.963C110.277 161.439 105.887 160.262 103.187 162.771L94.9656 170.399L86.7438 162.771C84.0444 160.268 79.6545 161.444 78.565 164.963L75.2538 175.685L64.3219 173.198C60.7316 172.381 57.517 175.594 58.3327 179.193L60.8175 190.136L50.1056 193.451C46.5851 194.541 45.4098 198.936 47.916 201.638L55.5367 209.868L47.916 218.098C45.4152 220.8 46.5904 225.194 50.1056 226.285L60.8175 229.599H129.108L139.82 226.285C143.341 225.194 144.516 220.8 142.01 218.098L134.389 209.868H134.394Z" fill="#FBFCF9" stroke="#FBFCF9" stroke-width="2.14667" stroke-linecap="round" stroke-linejoin="round"/>
<path d="M55.5469 209.868L64.8634 215.256C66.3339 216.105 68.1693 215.041 68.1693 213.344V206.392C68.1693 204.695 66.3339 203.631 64.8634 204.48L55.5469 209.868Z" fill="#FBFCF9" stroke="#FBFCF9" stroke-width="2.14667" stroke-linecap="round" stroke-linejoin="round"/>
<path d="M134.388 209.868L125.072 204.48C123.601 203.631 121.766 204.695 121.766 206.392V213.344C121.766 215.041 123.601 216.105 125.072 215.256L134.388 209.868Z" fill="#FBFCF9" stroke="#FBFCF9" stroke-width="2.14667" stroke-linecap="round" stroke-linejoin="round"/>
<path d="M114.685 175.686L105.368 181.074C103.898 181.923 103.898 184.044 105.368 184.893L111.379 188.369C112.85 189.218 114.685 188.154 114.685 186.457V175.686Z" fill="#FBFCF9" stroke="#FBFCF9" stroke-width="2.14667" stroke-linecap="round" stroke-linejoin="round"/>
<path d="M75.2578 175.686V186.457C75.2578 188.154 77.0932 189.218 78.5637 188.369L84.5743 184.893C86.0448 184.044 86.0448 181.923 84.5743 181.074L75.2578 175.686Z" fill="#FBFCF9" stroke="#FBFCF9" stroke-width="2.14667" stroke-linecap="round" stroke-linejoin="round"/>
<path d="M180.871 297.975H2V322.385H180.871V297.975Z" fill="#FBFCF9" stroke="#FBFCF9" stroke-width="2.14667" stroke-linecap="round" stroke-linejoin="round"/>
<path d="M645.292 214.423H589.162C577.65 214.423 567.25 221.316 562.752 231.926L542.016 280.87C537.518 291.48 527.123 298.373 515.606 298.373H411.611L395.312 322.38H550.758V322.166L645.286 322.38V214.418L645.292 214.423Z" fill="#FBFCF9" stroke="#FBFCF9" stroke-width="2.14667" stroke-linecap="round" stroke-linejoin="round"/>
<path d="M2 322.381H646" stroke="#FBFCF9" stroke-width="2.14667" stroke-linecap="round" stroke-linejoin="round"/>
<path d="M332.909 357.321C451.466 357.321 547.575 353.714 547.575 349.263C547.575 344.813 451.466 341.205 332.909 341.205C214.352 341.205 118.242 344.813 118.242 349.263C118.242 353.714 214.352 357.321 332.909 357.321Z" fill="#4D1F1F" stroke="#4D1F1F" stroke-width="2.14667" stroke-linecap="round" stroke-linejoin="round"/>
<path d="M183.883 328.478L131.359 221.558L542.494 113.252L452.216 341.146L183.883 328.478Z" fill="#FFE28D" stroke="#FFE28D" stroke-width="2.14667" stroke-linecap="round" stroke-linejoin="round"/>
<path d="M144.668 107.579C143.143 104.313 144.56 100.413 147.829 98.8869C151.097 97.3613 154.988 98.7795 156.512 102.051L179.873 152.194C181.397 155.46 179.98 159.36 176.712 160.886C173.444 162.412 169.553 160.993 168.029 157.722L144.668 107.579Z" fill="#00BFE6" stroke="#00BFE6" stroke-width="2.14667" stroke-linecap="round" stroke-linejoin="round"/>
<path d="M148.68 100.714C150.939 99.6615 153.633 100.639 154.69 102.906L178.051 153.049C179.103 155.311 178.127 158.008 175.862 159.066" stroke="#C4F5F5" stroke-width="2.14667" stroke-linecap="round" stroke-linejoin="round"/>
<path d="M176.704 160.886C173.441 162.411 169.545 160.993 168.021 157.722L144.66 107.579C143.136 104.312 144.552 100.412 147.821 98.8867" stroke="#4D1F1F" stroke-width="2.14667" stroke-linecap="round" stroke-linejoin="round"/>
<path d="M122.023 94.7462C116.989 83.9376 121.674 71.0446 132.472 66.0056C143.27 60.9666 156.15 65.6564 161.184 76.465L171.799 99.2587C176.833 110.067 172.148 122.96 161.35 127.999C150.552 133.038 137.672 128.348 132.638 117.54L122.023 94.7462ZM149.35 81.9928C147.359 77.722 142.266 75.8633 138 77.8564C133.733 79.8494 131.876 84.9475 133.867 89.2183L144.488 112.012C146.479 116.283 151.572 118.142 155.838 116.148C160.105 114.155 161.962 109.057 159.971 104.787L149.35 81.9928Z" fill="#00BFE6" stroke="#00BFE6" stroke-width="2.14667" stroke-linecap="round" stroke-linejoin="round"/>
<path d="M133.325 67.8257C143.12 63.254 154.803 67.5087 159.37 77.3128L169.985 100.106C174.552 109.91 170.302 121.605 160.507 126.177M137.146 76.0288C131.871 78.4892 129.585 84.7853 132.043 90.066L142.663 112.86C145.121 118.14 151.411 120.429 156.686 117.969" stroke="#C4F5F5" stroke-width="2.14667" stroke-linecap="round" stroke-linejoin="round"/>
<path d="M161.358 127.999C150.56 133.038 137.68 128.349 132.646 117.54L122.031 94.7464C116.997 83.9378 121.682 71.0449 132.48 66.0059" stroke="#4D1F1F" stroke-width="2.14667" stroke-linecap="round" stroke-linejoin="round"/>
<path d="M155.839 116.149C160.105 114.156 161.962 109.058 159.971 104.787L149.351 81.9935C147.359 77.7227 142.266 75.864 138 77.857" stroke="#4D1F1F" stroke-width="2.14667" stroke-linecap="round" stroke-linejoin="round"/>
<path d="M313.955 231.296C319.451 220.719 332.524 216.588 343.096 222.089C353.663 227.59 357.79 240.676 352.295 251.259L340.703 273.569C335.207 284.147 322.134 288.278 311.562 282.777C300.995 277.276 296.868 264.189 302.363 253.607L313.955 231.296ZM340.703 245.221C342.876 241.036 341.245 235.863 337.064 233.687C332.884 231.511 327.716 233.144 325.542 237.329L313.95 259.639C311.777 263.824 313.408 268.992 317.589 271.173C321.769 273.349 326.938 271.716 329.111 267.536L340.703 245.226V245.221Z" fill="#00BFE6" stroke="#4D1F1F" stroke-width="2.14667" stroke-linecap="round" stroke-linejoin="round"/>
<path d="M337.225 233.773C341.341 236.024 342.763 241.267 340.6 245.431L329.116 267.531C329.572 266.769 330.452 266.371 331.321 266.521L337.799 267.666C340.509 268.144 341.98 271.12 340.708 273.564L352.3 251.254C357.795 240.677 353.674 227.59 343.101 222.084C338.765 219.828 334.01 219.194 329.529 219.956L326.781 235.562C329.357 232.688 333.667 231.823 337.225 233.763V233.773Z" fill="#4D1F1F" stroke="#4D1F1F" stroke-width="2.14667" stroke-linecap="round" stroke-linejoin="round"/>
<path d="M355.935 51.7312C344.204 49.663 336.342 38.4192 338.408 26.6759C340.474 14.9326 351.706 7.06253 363.438 9.13078L388.178 13.4982C399.91 15.5665 407.772 26.8102 405.706 38.5535C403.64 50.2969 392.407 58.167 380.676 56.0987L355.935 51.7312ZM361.168 22.013C356.531 21.1964 352.093 24.3068 351.272 28.9483C350.451 33.5897 353.563 38.0325 358.2 38.8544L382.94 43.2219C387.577 44.0384 392.015 40.928 392.837 36.2865C393.652 31.6451 390.545 27.2024 385.908 26.3805L361.168 22.013Z" fill="#00BFE6" stroke="#00BFE6" stroke-width="2.14667" stroke-linecap="round" stroke-linejoin="round"/>
<path d="M340.383 27.0251C342.261 16.3723 352.442 9.23279 363.084 11.113L387.824 15.4805C398.466 17.3607 405.599 27.5516 403.72 38.2044M349.286 28.5991C348.277 34.3365 352.114 39.8267 357.846 40.8366L382.586 45.2041C388.318 46.2141 393.797 42.3731 394.812 36.6357" stroke="#C4F5F5" stroke-width="2.14667" stroke-linecap="round" stroke-linejoin="round"/>
<path d="M405.706 38.5534C403.64 50.2968 392.407 58.1668 380.676 56.0986L355.935 51.7311C344.204 49.6629 336.342 38.4191 338.408 26.6758" stroke="#4D1F1F" stroke-width="2.14667" stroke-linecap="round" stroke-linejoin="round"/>
<path d="M392.846 36.2865C393.662 31.6451 390.555 27.2024 385.918 26.3805L361.177 22.013C356.541 21.1964 352.102 24.3068 351.281 28.9483" stroke="#4D1F1F" stroke-width="2.14667" stroke-linecap="round" stroke-linejoin="round"/>
<path d="M378.566 37.6024C377.042 34.3362 378.459 30.436 381.727 28.9104C384.99 27.3847 388.886 28.8029 390.41 32.0745L413.771 82.2174C415.296 85.4836 413.879 89.3837 410.61 90.9094C407.342 92.4351 403.451 91.0168 401.927 87.7453L378.566 37.6024Z" fill="#00BFE6" stroke="#00BFE6" stroke-width="2.14667" stroke-linecap="round" stroke-linejoin="round"/>
<path d="M382.578 30.7379C384.837 29.6849 387.532 30.6626 388.589 32.9296L411.95 83.0725C413.002 85.3341 412.025 88.0309 409.76 89.0892" stroke="#C4F5F5" stroke-width="2.14667" stroke-linecap="round" stroke-linejoin="round"/>
<path d="M410.603 90.9092C407.34 92.4349 403.443 91.0166 401.919 87.745L378.558 37.6022C377.034 34.336 378.451 30.4358 381.719 28.9102" stroke="#4D1F1F" stroke-width="2.14667" stroke-linecap="round" stroke-linejoin="round"/>
<path d="M467.099 239.481C455.368 237.413 447.506 226.169 449.572 214.426C451.638 202.683 462.87 194.813 474.602 196.881L499.342 201.248C511.074 203.317 518.936 214.56 516.87 226.304C514.804 238.047 503.571 245.917 491.84 243.849L467.099 239.481ZM472.337 209.758C467.7 208.941 463.262 212.051 462.441 216.693C461.62 221.334 464.733 225.777 469.369 226.599L494.11 230.967C498.747 231.783 503.185 228.673 504.006 224.031C504.827 219.39 501.714 214.947 497.078 214.125L472.337 209.758Z" fill="#00BFE6" stroke="#00BFE6" stroke-width="2.14667" stroke-linecap="round" stroke-linejoin="round"/>
<path d="M516.878 226.303C514.811 238.047 503.579 245.917 491.848 243.849L467.107 239.481C455.376 237.413 447.513 226.169 449.58 214.426" stroke="#4D1F1F" stroke-width="2.14667" stroke-linecap="round" stroke-linejoin="round"/>
<path d="M504.01 224.031C504.826 219.389 501.719 214.947 497.082 214.125L472.341 209.757C467.705 208.941 463.266 212.051 462.445 216.692" stroke="#4D1F1F" stroke-width="2.14667" stroke-linecap="round" stroke-linejoin="round"/>
<path d="M485.681 234.154C486.991 231.607 489.803 230.21 492.626 230.705L469.372 226.6C464.735 225.784 461.622 221.336 462.444 216.694L449.58 214.422C447.513 226.165 455.376 237.409 467.107 239.477L490.361 243.581C486.025 242.819 483.674 238.064 485.686 234.148L485.681 234.154Z" fill="#4D1F1F" stroke="#4D1F1F" stroke-width="2.14667" stroke-linecap="round" stroke-linejoin="round"/>
<path d="M451.547 214.775C453.425 204.122 463.606 196.983 474.248 198.863L498.988 203.231C509.63 205.111 516.763 215.302 514.884 225.954" stroke="#C4F5F5" stroke-width="2.14667" stroke-linecap="round" stroke-linejoin="round"/>
<path d="M451.348 280.005L134.651 224.109C131.919 223.625 130.631 221.423 131.779 219.193L219.117 49.35C220.265 47.1152 223.41 45.697 226.147 46.1805L542.845 102.077C545.576 102.56 546.864 104.763 545.716 106.992L458.379 276.836C457.23 279.07 454.085 280.489 451.348 280.005Z" fill="#C4F5F5" stroke="#C4F5F5" stroke-width="2.14667" stroke-linecap="round" stroke-linejoin="round"/>
<path d="M447.708 271.7L131.01 215.804C128.278 215.321 126.99 213.118 128.139 210.889L215.476 41.0453C216.624 38.8106 219.769 37.3923 222.506 37.8758L539.204 93.7722C541.936 94.2557 543.224 96.4582 542.075 98.6876L454.738 268.531C453.59 270.766 450.445 272.184 447.708 271.7Z" fill="#C4F5F5" stroke="#C4F5F5" stroke-width="2.14667" stroke-linecap="round" stroke-linejoin="round"/>
<path d="M444.067 263.396L127.369 207.499C124.638 207.016 123.35 204.813 124.498 202.584L211.835 32.7406C212.984 30.5059 216.129 29.0876 218.866 29.5711L535.563 85.4675C538.295 85.951 539.583 88.1535 538.434 90.3829L451.097 260.226C449.949 262.461 446.804 263.879 444.067 263.396Z" fill="#C4F5F5" stroke="#C4F5F5" stroke-width="2.14667" stroke-linecap="round" stroke-linejoin="round"/>
<path d="M440.426 255.095L123.729 199.199C120.997 198.715 119.709 196.512 120.858 194.283L208.195 24.4399C209.343 22.2051 212.488 20.7868 215.225 21.2703L531.923 77.1666C534.654 77.6501 535.942 79.8527 534.794 82.0821L447.457 251.925C446.308 254.16 443.163 255.578 440.426 255.095Z" fill="#C4F5F5" stroke="#C4F5F5" stroke-width="2.14667" stroke-linecap="round" stroke-linejoin="round"/>
<path d="M440.426 255.095L123.729 199.199C120.997 198.715 119.709 196.512 120.858 194.283L208.195 24.4399C209.343 22.2051 212.488 20.7868 215.225 21.2703L531.923 77.1666C534.654 77.6501 535.942 79.8527 534.794 82.0821L447.457 251.925C446.308 254.16 443.163 255.578 440.426 255.095Z" fill="#C4F5F5" stroke="#C4F5F5" stroke-width="2.14667" stroke-linecap="round" stroke-linejoin="round"/>
<path d="M436.786 246.79L120.088 190.894C117.356 190.41 116.068 188.208 117.217 185.978L204.554 16.1352C205.702 13.9004 208.847 12.4822 211.584 12.9656L528.282 68.862C531.014 69.3455 532.302 71.5481 531.153 73.7775L443.816 243.621C442.668 245.856 439.523 247.274 436.786 246.79Z" fill="#FBFCF9" stroke="#C4F5F5" stroke-width="2.14667" stroke-linecap="round" stroke-linejoin="round"/>
<path d="M378.844 181.019L342.029 134.476C334.794 125.333 319.145 122.62 304.527 127.976L230.188 155.207" fill="#FBFCF9"/>
<path d="M378.844 181.019L342.029 134.476C334.794 125.333 319.145 122.62 304.527 127.976L230.188 155.207" stroke="#00BFE6" stroke-width="2.14667" stroke-linecap="round" stroke-linejoin="round"/>
<path d="M210.938 19.4609L301.457 134.359C308.643 143.529 324.271 146.285 338.9 140.966L522.687 74.487" fill="#FBFCF9"/>
<path d="M210.938 19.4609L301.457 134.359C308.643 143.529 324.271 146.285 338.9 140.966L522.687 74.487" stroke="#00BFE6" stroke-width="2.14667" stroke-linecap="round" stroke-linejoin="round"/>
<path d="M192.007 124.129L216.747 128.496C226.241 130.172 235.396 125.337 239.646 117.215L275.775 123.591C279.322 124.22 282.719 121.84 283.342 118.289C283.97 114.738 281.592 111.338 278.045 110.715L241.917 104.338C240.698 95.2484 233.743 87.5717 224.255 85.8956L199.515 81.5281C190.021 79.852 180.865 84.6869 176.615 92.8094L166.091 90.9507L159.828 103.124L174.345 105.686C175.563 114.776 182.518 122.453 192.007 124.129ZM194.915 96.038L191.486 95.431C193.166 94.4533 195.184 94.0397 197.245 94.405L221.985 98.7725C224.046 99.1378 225.801 100.218 227.046 101.711L223.616 101.104C220.069 100.475 216.672 102.855 216.049 106.406C215.427 109.957 217.799 113.358 221.346 113.981L224.775 114.588C223.096 115.566 221.078 115.979 219.017 115.614L194.277 111.246C192.216 110.881 190.461 109.801 189.216 108.308L192.645 108.915C196.193 109.543 199.59 107.164 200.212 103.613C200.84 100.062 198.463 96.6612 194.915 96.038Z" fill="#4D1F1F" stroke="#4D1F1F" stroke-width="2.14667" stroke-linecap="round" stroke-linejoin="round"/>
<path d="M479.441 146.262C478.223 137.172 471.268 129.495 461.78 127.819L437.039 123.452C427.546 121.776 418.39 126.611 414.14 134.733L378.011 128.357C374.464 127.728 371.067 130.108 370.444 133.659C369.816 137.21 372.194 140.61 375.741 141.233L411.87 147.61C413.088 156.7 420.043 164.376 429.531 166.052L454.272 170.42C463.765 172.096 472.921 167.261 477.171 159.139L486.423 160.772L492.686 148.599L479.447 146.262H479.441ZM458.871 155.91L462.3 156.517C460.62 157.495 458.603 157.908 456.542 157.543L431.801 153.176C429.741 152.81 427.986 151.73 426.741 150.237L430.17 150.844C433.717 151.473 437.115 149.093 437.737 145.542C438.365 141.991 435.987 138.59 432.44 137.967L429.011 137.36C430.691 136.382 432.708 135.969 434.769 136.334L459.51 140.702C461.57 141.067 463.325 142.147 464.57 143.64L461.141 143.033C457.594 142.405 454.197 144.784 453.574 148.335C452.946 151.886 455.324 155.287 458.871 155.91Z" fill="#4D1F1F" stroke="#4D1F1F" stroke-width="2.14667" stroke-linecap="round" stroke-linejoin="round"/>
<path d="M338.839 86.7451C342.043 88.389 345.988 87.1104 347.63 83.9033L369.639 40.8569L356.179 38.4824L336.006 77.9457C334.364 81.1528 335.641 85.1013 338.845 86.7451H338.839Z" fill="#4D1F1F" stroke="#4D1F1F" stroke-width="2.14667" stroke-linecap="round" stroke-linejoin="round"/>
<path d="M291.93 177.233C288.726 175.589 284.781 176.868 283.139 180.075L264.57 216.395L278.03 218.77L294.768 186.032C296.411 182.825 295.133 178.877 291.93 177.233Z" fill="#4D1F1F" stroke="#4D1F1F" stroke-width="2.14667" stroke-linecap="round" stroke-linejoin="round"/>
<path d="M261.805 146.301C264.128 151.909 268.111 156.964 273.681 161.085L292.91 175.326L322.368 169.675" stroke="#4D1F1F" stroke-width="2.14667" stroke-linecap="round" stroke-linejoin="round"/>
<path d="M542.081 98.6875L454.744 268.531C453.595 270.766 450.45 272.184 447.713 271.7L131.016 215.804" stroke="#00BFE6" stroke-width="2.14667" stroke-linecap="round" stroke-linejoin="round"/>
<path d="M538.432 90.3828L451.095 260.226C449.947 262.461 446.802 263.879 444.065 263.396L127.367 207.499" stroke="#00BFE6" stroke-width="2.14667" stroke-linecap="round" stroke-linejoin="round"/>
<path d="M534.792 82.0781L447.454 251.921C446.306 254.156 443.161 255.574 440.424 255.091L123.727 199.195" stroke="#00BFE6" stroke-width="2.14667" stroke-linecap="round" stroke-linejoin="round"/>
<path d="M545.714 106.988L458.376 276.832C457.228 279.066 454.083 280.485 451.346 280.001L134.648 224.105" stroke="#00BFE6" stroke-width="2.14667" stroke-linecap="round" stroke-linejoin="round"/>
<path d="M278.034 218.77L293.248 251.969L253.374 244.696L243.065 222.563C240.934 217.991 244.83 212.909 249.794 213.785L278.034 218.77Z" fill="#4D1F1F" stroke="#4D1F1F" stroke-width="2.14667" stroke-linecap="round" stroke-linejoin="round"/>
<path d="M236.906 240.27C231.872 229.461 236.557 216.568 247.355 211.529C258.153 206.49 271.033 211.18 276.066 221.989L286.682 244.782C291.716 255.591 287.031 268.484 276.233 273.523C265.435 278.562 252.555 273.872 247.521 263.063L236.906 240.27ZM264.228 227.516C262.237 223.246 257.144 221.387 252.877 223.38C248.611 225.373 246.754 230.471 248.745 234.742L259.365 257.535C261.356 261.806 266.449 263.665 270.716 261.672C274.982 259.679 276.839 254.581 274.848 250.31L264.228 227.516Z" fill="#00BFE6" stroke="#00BFE6" stroke-width="2.14667" stroke-linecap="round" stroke-linejoin="round"/>
<path d="M248.203 213.351C257.997 208.779 269.68 213.034 274.247 222.838L284.862 245.632C289.429 255.436 285.179 267.131 275.385 271.702M252.029 221.56C246.754 224.02 244.468 230.316 246.926 235.597L257.546 258.391C260.004 263.671 266.294 265.96 271.569 263.499" stroke="#C4F5F5" stroke-width="2.14667" stroke-linecap="round" stroke-linejoin="round"/>
<path d="M276.241 273.523C265.443 278.562 252.563 273.872 247.529 263.064L236.914 240.27C231.88 229.461 236.565 216.568 247.363 211.529" stroke="#4D1F1F" stroke-width="2.14667" stroke-linecap="round" stroke-linejoin="round"/>
<path d="M270.722 261.673C274.988 259.68 276.845 254.581 274.854 250.311L264.233 227.517C262.242 223.246 257.149 221.387 252.883 223.38" stroke="#4D1F1F" stroke-width="2.14667" stroke-linecap="round" stroke-linejoin="round"/>
<path d="M340.206 82.5941C338.563 85.8012 334.619 87.0797 331.415 85.4359C328.211 83.792 326.934 79.8436 328.576 76.6364L353.757 27.3854C355.399 24.1783 359.343 22.8997 362.547 24.5435C365.751 26.1874 367.028 30.1359 365.386 33.343L340.206 82.5941Z" fill="#00BFE6" stroke="#00BFE6" stroke-width="2.14667" stroke-linecap="round" stroke-linejoin="round"/>
<path d="M332.337 83.6412C330.115 82.5023 329.235 79.7733 330.372 77.5493L355.553 28.2981C356.691 26.0741 359.417 25.1931 361.639 26.3319" stroke="#C4F5F5" stroke-width="2.14667" stroke-linecap="round" stroke-linejoin="round"/>
<path d="M362.546 24.5391C365.75 26.1829 367.027 30.1314 365.385 33.3385L340.205 82.5896C338.563 85.7968 334.618 87.0753 331.414 85.4314" stroke="#4D1F1F" stroke-width="2.14667" stroke-linecap="round" stroke-linejoin="round"/>
<path d="M265.976 260.437C262.428 259.808 260.051 256.413 260.679 252.862C261.307 249.311 264.698 246.931 268.246 247.56L322.68 257.165C326.227 257.793 328.605 261.189 327.977 264.74C327.349 268.29 323.957 270.67 320.41 270.042L265.976 260.437Z" fill="#00BFE6" stroke="#00BFE6" stroke-width="2.14667" stroke-linecap="round" stroke-linejoin="round"/>
<path d="M262.648 253.212C263.083 250.751 265.434 249.107 267.886 249.537L322.32 259.142C324.778 259.577 326.421 261.93 325.991 264.385" stroke="#C4F5F5" stroke-width="2.14667" stroke-linecap="round" stroke-linejoin="round"/>
<path d="M327.969 264.739C327.341 268.29 323.949 270.67 320.402 270.041L265.968 260.436C262.42 259.807 260.043 256.412 260.671 252.861" stroke="#4D1F1F" stroke-width="2.14667" stroke-linecap="round" stroke-linejoin="round"/>
<path d="M486.422 160.773L501.223 193.511L521.498 153.978L510.62 129.1L490.034 153.752L486.422 160.773Z" fill="#4D1F1F" stroke="#4D1F1F" stroke-width="2.14667" stroke-linecap="round" stroke-linejoin="round"/>
<path d="M188.967 115.932C177.235 113.864 169.373 102.62 171.439 90.8771C173.505 79.1338 184.738 71.2637 196.469 73.3319L221.21 77.6994C232.941 79.7677 240.803 91.0114 238.737 102.755C236.671 114.498 225.438 122.368 213.707 120.3L188.967 115.932ZM194.204 86.2142C189.568 85.3977 185.129 88.508 184.308 93.1495C183.487 97.791 186.6 102.234 191.237 103.056L215.977 107.423C220.614 108.24 225.052 105.129 225.873 100.488C226.694 95.8463 223.582 91.4036 218.945 90.5817L194.204 86.2142Z" fill="#00BFE6" stroke="#00BFE6" stroke-width="2.14667" stroke-linecap="round" stroke-linejoin="round"/>
<path d="M173.414 91.2262C175.292 80.5734 185.473 73.434 196.115 75.3142L220.855 79.6817C231.497 81.5619 238.63 91.7527 236.751 102.405M182.323 92.8003C181.314 98.5377 185.151 104.022 190.883 105.038L215.623 109.405C221.355 110.415 226.839 106.574 227.848 100.837" stroke="#C4F5F5" stroke-width="2.14667" stroke-linecap="round" stroke-linejoin="round"/>
<path d="M238.745 102.755C236.679 114.498 225.446 122.368 213.715 120.3L188.974 115.932C177.243 113.864 169.381 102.62 171.447 90.877" stroke="#4D1F1F" stroke-width="2.14667" stroke-linecap="round" stroke-linejoin="round"/>
<path d="M225.877 100.488C226.693 95.8462 223.586 91.4036 218.949 90.5817L194.209 86.2142C189.572 85.3976 185.134 88.508 184.312 93.1494" stroke="#4D1F1F" stroke-width="2.14667" stroke-linecap="round" stroke-linejoin="round"/>
<path d="M272.746 115.395C276.293 116.024 279.69 113.644 280.313 110.093C280.94 106.542 278.563 103.142 275.016 102.518L220.582 92.9132C217.034 92.2847 213.637 94.6645 213.015 98.2154C212.387 101.766 214.764 105.167 218.312 105.79L272.746 115.395Z" fill="#00BFE6" stroke="#00BFE6" stroke-width="2.14667" stroke-linecap="round" stroke-linejoin="round"/>
<path d="M278.327 109.744C278.762 107.284 277.114 104.936 274.656 104.501L220.222 94.8958C217.764 94.4607 215.419 96.11 214.984 98.5704" stroke="#C4F5F5" stroke-width="2.14667" stroke-linecap="round" stroke-linejoin="round"/>
<path d="M213.015 98.2148C212.387 101.766 214.764 105.166 218.312 105.789L272.746 115.395C276.293 116.023 279.69 113.643 280.313 110.092" stroke="#4D1F1F" stroke-width="2.14667" stroke-linecap="round" stroke-linejoin="round"/>
<path d="M189.609 100.724C193.156 101.353 196.553 98.9729 197.176 95.422C197.798 91.8711 195.426 88.4706 191.879 87.8474L142.393 79.1124C138.845 78.4839 135.448 80.8637 134.826 84.4146C134.203 87.9656 136.575 91.3661 140.123 91.9893L189.609 100.724Z" fill="#00BFE6" stroke="#00BFE6" stroke-width="2.14667" stroke-linecap="round" stroke-linejoin="round"/>
<path d="M195.199 95.0732C195.634 92.6128 193.987 90.2652 191.529 89.83L142.043 81.095C139.585 80.6599 137.239 82.3091 136.805 84.7695" stroke="#C4F5F5" stroke-width="2.14667" stroke-linecap="round" stroke-linejoin="round"/>
<path d="M134.827 84.4141C134.199 87.965 136.577 91.3656 140.124 91.9887L189.61 100.724C193.157 101.352 196.555 98.9724 197.177 95.4214" stroke="#4D1F1F" stroke-width="2.14667" stroke-linecap="round" stroke-linejoin="round"/>
<path d="M290.815 194.23L271.586 179.989C256.924 169.127 253.237 151.85 261.958 134.89L289.054 82.2012L397.917 101.417L370.821 154.106C362.1 171.066 342.732 184.276 320.272 188.584L290.815 194.236V194.23Z" fill="#4D1F1F" stroke="#4D1F1F" stroke-width="2.14667" stroke-linecap="round" stroke-linejoin="round"/>
<path d="M387.003 76.5078L258.321 126.592C256.228 130.664 254.854 134.757 254.172 138.775L248.859 140.457L256.072 156.901C258.396 162.509 264.181 167.881 269.752 172.007L288.981 186.248L316.635 180.28C339.095 175.972 358.463 162.762 367.184 145.807L394.28 93.1129L387.003 76.5078Z" fill="#FF5C4D" stroke="#FF5C4D" stroke-width="2.14667" stroke-linecap="round" stroke-linejoin="round"/>
<path d="M279.893 169.32L260.664 155.079C246.002 144.216 242.315 126.94 251.036 109.98L278.133 57.291L386.995 76.5069L359.899 129.196C351.178 146.156 331.81 159.366 309.351 163.674L279.893 169.325V169.32Z" fill="#FFE28D" stroke="#FF5C4D" stroke-width="2.14667" stroke-linecap="round" stroke-linejoin="round"/>
<path d="M341.322 107.187C339.519 110.695 334.571 112.93 330.278 112.167C325.984 111.409 323.966 107.95 325.769 104.442C327.573 100.934 332.521 98.699 336.814 99.4619C341.107 100.219 343.125 103.679 341.322 107.187Z" fill="#FF5C4D" stroke="#FF5C4D" stroke-width="2.14667" stroke-linecap="round" stroke-linejoin="round"/>
<path d="M339.549 102.788C337.745 106.296 332.797 108.531 328.504 107.768C324.211 107.011 322.193 103.551 323.996 100.043C325.799 96.5354 330.747 94.3006 335.041 95.0634C339.334 95.8263 341.352 99.2805 339.549 102.788Z" fill="#FFE28D" stroke="#FF5C4D" stroke-width="2.14667" stroke-linecap="round" stroke-linejoin="round"/>
<path d="M325.619 103.766C325.211 102.944 325.27 101.977 325.791 100.968C326.977 98.6629 330.213 96.9277 333.326 96.9277C333.798 96.9277 334.26 96.9653 334.7 97.0459C336.256 97.3199 337.437 98.0612 337.941 99.0712" stroke="#FBFCF9" stroke-width="2.14667" stroke-linecap="round" stroke-linejoin="round"/>
<path d="M279.893 169.32L260.664 155.079C246.002 144.216 242.315 126.94 251.036 109.98L278.133 57.291L386.995 76.5069L359.899 129.196C351.178 146.156 331.81 159.366 309.351 163.674L279.893 169.325V169.32ZM287.143 72.7411L266.584 112.725C260.353 124.839 262.993 137.179 273.464 144.936L287.197 155.111L308.24 151.077C324.286 147.998 338.121 138.565 344.347 126.451L364.906 86.4667L287.143 72.7411Z" fill="#FFE28D" stroke="#FF5C4D" stroke-width="2.14667" stroke-linecap="round" stroke-linejoin="round"/>
<path d="M248.855 133.209C247.642 126.161 248.919 118.5 252.826 110.898L279.247 59.5254L383.966 78.0107M262.551 133.724C264.236 138.618 267.499 143.023 272.27 146.558L286.712 157.254L308.618 153.053C325.255 149.862 339.632 140.02 346.137 127.375L367.947 84.9621" stroke="#FBFCF9" stroke-width="2.14667" stroke-linecap="round" stroke-linejoin="round"/>
<path d="M268.36 117.126L288.92 77.1419L362.98 90.2122L364.907 86.4678L287.144 72.7422L266.584 112.727C262.323 121.01 262.216 129.401 265.919 136.358C264.212 130.395 264.969 123.728 268.36 117.121V117.126Z" fill="#FF5C4D" stroke="#FF5C4D" stroke-width="2.14667" stroke-linecap="round" stroke-linejoin="round"/>
<path d="M256.078 156.901C258.402 162.51 264.187 167.882 269.758 172.007L288.987 186.249L316.641 180.28C339.1 175.972 358.469 162.762 367.19 145.808L394.286 93.1133" stroke="#4D1F1F" stroke-width="2.14667" stroke-linecap="round" stroke-linejoin="round"/>
<path d="M425.896 157.749C414.165 155.681 406.303 144.437 408.369 132.693C410.435 120.95 421.667 113.08 433.399 115.148L458.139 119.516C469.871 121.584 477.733 132.828 475.667 144.571C473.601 156.315 462.368 164.185 450.637 162.116L425.896 157.749ZM431.129 128.031C426.492 127.214 422.054 130.324 421.233 134.966C420.417 139.607 423.524 144.05 428.161 144.872L452.901 149.239C457.538 150.056 461.976 146.946 462.797 142.304C463.613 137.663 460.506 133.22 455.869 132.398L431.129 128.031Z" fill="#00BFE6" stroke="#00BFE6" stroke-width="2.14667" stroke-linecap="round" stroke-linejoin="round"/>
<path d="M410.344 133.043C412.222 122.39 422.403 115.25 433.045 117.131L457.785 121.498C468.427 123.378 475.559 133.569 473.681 144.222M419.252 134.617C418.244 140.354 422.081 145.844 427.812 146.854L452.553 151.222C458.284 152.232 463.764 148.391 464.778 142.653" stroke="#C4F5F5" stroke-width="2.14667" stroke-linecap="round" stroke-linejoin="round"/>
<path d="M475.667 144.577C473.6 156.32 462.368 164.19 450.637 162.122L425.896 157.755C414.165 155.686 406.303 144.443 408.369 132.699" stroke="#4D1F1F" stroke-width="2.14667" stroke-linecap="round" stroke-linejoin="round"/>
<path d="M462.807 142.304C463.623 137.663 460.515 133.22 455.879 132.398L431.138 128.031C426.501 127.214 422.063 130.324 421.242 134.966" stroke="#4D1F1F" stroke-width="2.14667" stroke-linecap="round" stroke-linejoin="round"/>
<path d="M490.992 159.865C485.958 149.057 490.643 136.164 501.441 131.125C512.238 126.086 525.118 130.776 530.152 141.584L540.768 164.378C545.802 175.186 541.117 188.079 530.319 193.118C519.521 198.157 506.641 193.468 501.607 182.659L490.992 159.865ZM518.314 147.112C516.322 142.841 511.23 140.982 506.963 142.976C502.697 144.969 500.84 150.067 502.831 154.337L513.451 177.131C515.442 181.402 520.535 183.261 524.802 181.268C529.068 179.275 530.925 174.176 528.934 169.906L518.314 147.112Z" fill="#00BFE6" stroke="#00BFE6" stroke-width="2.14667" stroke-linecap="round" stroke-linejoin="round"/>
<path d="M502.289 132.947C512.083 128.375 523.766 132.63 528.333 142.434L538.949 165.228C543.516 175.032 539.265 186.727 529.471 191.298M506.115 141.155C500.84 143.616 498.554 149.912 501.011 155.192L511.632 177.986C514.09 183.267 520.38 185.555 525.655 183.095" stroke="#C4F5F5" stroke-width="2.14667" stroke-linecap="round" stroke-linejoin="round"/>
<path d="M530.319 193.119C519.521 198.158 506.641 193.468 501.607 182.659L490.992 159.866C485.958 149.057 490.643 136.164 501.441 131.125" stroke="#4D1F1F" stroke-width="2.14667" stroke-linecap="round" stroke-linejoin="round"/>
<path d="M524.808 181.268C529.074 179.275 530.931 174.177 528.94 169.906L518.319 147.113C516.328 142.842 511.235 140.983 506.969 142.976" stroke="#4D1F1F" stroke-width="2.14667" stroke-linecap="round" stroke-linejoin="round"/>
<path d="M372.093 132.935C368.545 132.306 366.168 128.911 366.796 125.36C367.424 121.809 370.815 119.429 374.363 120.058L428.797 129.663C432.344 130.292 434.722 133.687 434.094 137.238C433.466 140.789 430.074 143.168 426.527 142.54L372.093 132.935Z" fill="#00BFE6" stroke="#00BFE6" stroke-width="2.14667" stroke-linecap="round" stroke-linejoin="round"/>
<path d="M368.773 125.71C369.208 123.249 371.559 121.605 374.011 122.035L428.445 131.64C430.903 132.075 432.546 134.428 432.116 136.883" stroke="#C4F5F5" stroke-width="2.14667" stroke-linecap="round" stroke-linejoin="round"/>
<path d="M434.094 137.237C433.466 140.788 430.074 143.168 426.527 142.539L372.093 132.934C368.545 132.305 366.168 128.91 366.796 125.359" stroke="#4D1F1F" stroke-width="2.14667" stroke-linecap="round" stroke-linejoin="round"/>
<path d="M455.233 147.606C451.686 146.978 449.309 143.583 449.937 140.032C450.564 136.481 453.956 134.101 457.504 134.73L511.938 144.335C515.485 144.963 517.862 148.359 517.234 151.909C516.607 155.46 513.215 157.84 509.668 157.212L455.233 147.606Z" fill="#00BFE6" stroke="#00BFE6" stroke-width="2.14667" stroke-linecap="round" stroke-linejoin="round"/>
<path d="M451.906 140.381C452.341 137.921 454.692 136.277 457.144 136.707L511.578 146.312C514.036 146.747 515.678 149.1 515.249 151.555" stroke="#C4F5F5" stroke-width="2.14667" stroke-linecap="round" stroke-linejoin="round"/>
<path d="M517.234 151.909C516.607 155.46 513.215 157.84 509.668 157.211L455.233 147.606C451.686 146.977 449.309 143.582 449.937 140.031" stroke="#4D1F1F" stroke-width="2.14667" stroke-linecap="round" stroke-linejoin="round"/>
<path d="M501.687 225.475C500.034 228.677 496.084 229.939 492.886 228.285C489.687 226.63 488.426 222.676 490.079 219.475L515.447 170.315C517.1 167.113 521.05 165.851 524.248 167.505C527.447 169.16 528.708 173.114 527.055 176.316L501.687 225.475Z" fill="#00BFE6" stroke="#00BFE6" stroke-width="2.14667" stroke-linecap="round" stroke-linejoin="round"/>
<path d="M517.234 171.245C518.136 169.504 520.111 168.521 522.043 168.865C522.488 168.946 522.923 169.091 523.331 169.3C525.547 170.444 526.417 173.184 525.274 175.397" stroke="#C4F5F5" stroke-width="2.14667" stroke-linecap="round" stroke-linejoin="round"/>
<path d="M513.238 174.607L490.087 219.48C488.434 222.682 489.695 226.636 492.893 228.291C496.092 229.945 500.042 228.683 501.695 225.481L524.793 181.274" stroke="#4D1F1F" stroke-width="2.14667" stroke-linecap="round" stroke-linejoin="round"/>
<path d="M262.166 233.973C260.524 237.18 256.58 238.459 253.376 236.815C250.172 235.171 248.895 231.222 250.537 228.015L275.717 178.764C277.36 175.557 281.304 174.279 284.508 175.922C287.712 177.566 288.989 181.515 287.347 184.722L262.166 233.973Z" fill="#00BFE6" stroke="#00BFE6" stroke-width="2.14667" stroke-linecap="round" stroke-linejoin="round"/>
<path d="M254.298 235.026C252.076 233.887 251.196 231.158 252.333 228.934L277.514 179.683C278.651 177.459 281.378 176.578 283.6 177.717" stroke="#C4F5F5" stroke-width="2.14667" stroke-linecap="round" stroke-linejoin="round"/>
<path d="M284.507 175.922C287.711 177.566 288.988 181.514 287.346 184.721L262.166 233.972C260.523 237.18 256.579 238.458 253.375 236.814" stroke="#4D1F1F" stroke-width="2.14667" stroke-linecap="round" stroke-linejoin="round"/>
<path d="M180.891 322.381H459.651" stroke="#FF5C4D" stroke-width="2.14667" stroke-linecap="round" stroke-linejoin="round"/>
<path d="M448.072 361.587L368.055 374.233C362.532 375.109 353.575 375.109 348.053 374.233L188.025 348.941C182.502 348.066 182.502 346.653 188.025 345.777L268.042 333.131C273.564 332.256 282.521 332.256 288.043 333.131L448.072 358.31C453.594 359.186 453.594 360.712 448.072 361.582V361.587Z" fill="#4D1F1F" stroke="#4D1F1F" stroke-width="2.14667" stroke-linecap="round" stroke-linejoin="round"/>
<path d="M314.837 334.662L288.047 330.445C282.525 329.569 273.568 329.569 268.045 330.445L258.273 331.992L183.891 328.479V333.722C183.896 339.008 187.739 343.504 192.955 344.331L348.068 368.866C353.59 369.741 362.547 369.741 368.069 368.866L443.176 356.945C448.392 356.118 452.229 351.616 452.229 346.335V341.151L314.848 334.667L314.837 334.662Z" fill="#00BFE6" stroke="#4D1F1F" stroke-width="2.14667" stroke-linecap="round" stroke-linejoin="round"/>
<path d="M448.072 342.784L368.055 355.43C362.532 356.306 353.575 356.306 348.053 355.43L188.025 330.139C182.502 329.263 182.502 327.85 188.025 326.974L268.042 314.329C273.564 313.453 282.521 313.453 288.043 314.329L448.072 339.507C453.594 340.383 453.594 341.909 448.072 342.779V342.784Z" fill="#FF5C4D" stroke="#4D1F1F" stroke-width="2.14667" stroke-linecap="round" stroke-linejoin="round"/>
<path d="M240.031 323.553L258.38 320.652" stroke="#4D1F1F" stroke-width="2.14667" stroke-linecap="round" stroke-linejoin="round"/>
<path d="M301.945 316.516V348.141L348.05 355.426C353.573 356.301 362.53 356.301 368.052 355.426L387.812 352.304V330.026L301.945 316.516Z" fill="#FFE28D" stroke="#FFE28D" stroke-width="2.14667" stroke-linecap="round" stroke-linejoin="round"/>
<path d="M448.072 342.784L368.055 355.43C362.532 356.306 353.575 356.306 348.053 355.43L188.025 330.139C182.502 329.263 182.502 327.85 188.025 326.974L268.042 314.329C273.564 313.453 282.521 313.453 288.043 314.329L448.072 339.507C453.594 340.383 453.594 341.909 448.072 342.779V342.784Z" stroke="#4D1F1F" stroke-width="2.14667" stroke-linecap="round" stroke-linejoin="round"/>
<path d="M415.59 354.898L400.547 357.278" stroke="#4D1F1F" stroke-width="4.29333" stroke-linecap="round" stroke-linejoin="round"/>
<path d="M205.352 340.631C205.352 343.892 207.718 346.669 210.938 347.174L240.632 351.869C244.652 352.503 248.285 349.398 248.285 345.326C248.285 342.06 245.913 339.288 242.698 338.778L213.004 334.082C208.985 333.448 205.352 336.554 205.352 340.626V340.631Z" fill="#00BFE6" stroke="#4D1F1F" stroke-width="2.14667" stroke-linecap="round" stroke-linejoin="round"/>
<path d="M207.492 340.631C207.492 338.16 209.494 336.15 211.952 336.15C212.188 336.15 212.424 336.172 212.666 336.209L242.359 340.905C244.549 341.248 246.132 343.113 246.132 345.326" stroke="#FBFCF9" stroke-width="2.14667" stroke-linecap="round" stroke-linejoin="round"/>
<path d="M425.086 35.0391L437.284 26.9004" stroke="#4D1F1F" stroke-width="2.14667" stroke-linecap="round" stroke-linejoin="round"/>
<path d="M322.821 13.5192L316.43 1.88867" stroke="#4D1F1F" stroke-width="2.14667" stroke-linecap="round" stroke-linejoin="round"/>
<path d="M548.266 138.57L559.89 133.918" stroke="#4D1F1F" stroke-width="2.14667" stroke-linecap="round" stroke-linejoin="round"/>
<path d="M551.758 154.859L563.377 157.186" stroke="#4D1F1F" stroke-width="2.14667" stroke-linecap="round" stroke-linejoin="round"/>
<path d="M124.102 135.664L106.086 138.57" stroke="#4D1F1F" stroke-width="2.14667" stroke-linecap="round" stroke-linejoin="round"/>
<path d="M188.031 326.974L268.048 314.329C273.571 313.453 282.528 313.453 288.05 314.329L448.078 339.507" stroke="#FF5C4D" stroke-width="2.14667" stroke-linecap="round" stroke-linejoin="round"/>
</svg>
