<svg width="642" height="294" viewBox="0 0 642 294" fill="none" xmlns="http://www.w3.org/2000/svg">
<path d="M99.727 293C154.252 293 198.454 292.036 198.454 290.847C198.454 289.658 154.252 288.694 99.727 288.694C45.2016 288.694 1 289.658 1 290.847C1 292.036 45.2016 293 99.727 293Z" fill="#4D1F1F" stroke="#4D1F1F" stroke-width="1.68696" stroke-linecap="round" stroke-linejoin="round"/>
<path d="M185.8 135.707H65.2891V178.8H185.8V135.707Z" fill="#FFE88C"/>
<path d="M13.6484 264.986H65.2949V221.896H13.6484" fill="#FFE88C"/>
<path d="M13.6484 264.986H65.2949V221.896H13.6484" stroke="#4D1F1F" stroke-width="1.68696" stroke-linecap="round" stroke-linejoin="round"/>
<path d="M185.812 221.896H65.2969V264.986H185.812" fill="#FFE88C"/>
<path d="M185.812 221.896H65.2969V264.986H185.812" stroke="#FF5C4D" stroke-width="1.68696" stroke-linecap="round" stroke-linejoin="round"/>
<path d="M13.6484 221.896H65.2949V178.802H13.6484" fill="#FFE88C"/>
<path d="M13.6484 221.896H65.2949V178.802H13.6484" stroke="#FF5C4D" stroke-width="1.68696" stroke-linecap="round" stroke-linejoin="round"/>
<path d="M185.812 178.802H65.2969V221.896H185.812" fill="#FFE88C"/>
<path d="M185.812 178.802H65.2969V221.896H185.812" stroke="#FF5C4D" stroke-width="1.68696" stroke-linecap="round" stroke-linejoin="round"/>
<path d="M65.2949 135.705H13.6484V178.799H65.2949V135.705Z" fill="#FFE88C"/>
<path d="M13.6484 178.799H65.2949V135.705" stroke="#FF5C4D" stroke-width="1.68696" stroke-linecap="round" stroke-linejoin="round"/>
<path d="M185.815 264.983H134.164V290.842L142.773 273.603H177.206L185.815 290.842" fill="#4D1F1F"/>
<path d="M185.815 264.983H134.164V290.842L142.773 273.603H177.206L185.815 290.842" stroke="#4D1F1F" stroke-width="1.68696" stroke-linecap="round" stroke-linejoin="round"/>
<path d="M65.2949 264.983H13.6484V290.842L22.2576 273.603H56.69L65.2949 290.842L73.904 273.603H177.201L185.81 290.842V264.983H65.2949Z" fill="#C4F5F5" stroke="#C4F5F5" stroke-width="1.68696" stroke-linecap="round" stroke-linejoin="round"/>
<path d="M105.422 159.821L106.982 158.26C107.218 158.521 107.429 158.741 107.618 158.914C107.808 159.087 108.04 159.268 108.318 159.458C108.592 159.648 108.896 159.788 109.221 159.885C109.545 159.982 109.895 160.028 110.27 160.028C111.004 160.028 111.556 159.847 111.927 159.484C112.298 159.121 112.484 158.703 112.484 158.222C112.484 157.939 112.412 157.686 112.265 157.458C112.121 157.23 111.923 157.04 111.683 156.879C111.438 156.719 111.156 156.571 110.839 156.436C110.523 156.301 110.186 156.162 109.84 156.027C109.49 155.892 109.14 155.748 108.79 155.596C108.441 155.444 108.103 155.263 107.783 155.047C107.462 154.836 107.18 154.6 106.931 154.338C106.687 154.076 106.489 153.756 106.341 153.363C106.193 152.975 106.122 152.54 106.122 152.063C106.122 150.856 106.548 149.902 107.395 149.201C108.242 148.5 109.339 148.15 110.688 148.15C112.037 148.15 113.247 148.576 114.457 149.433L113.171 151.307C112.429 150.674 111.56 150.358 110.57 150.358C109.95 150.358 109.473 150.484 109.128 150.742C108.786 150.999 108.613 151.358 108.613 151.818C108.613 152.181 108.731 152.498 108.968 152.768C109.204 153.038 109.507 153.258 109.882 153.426C110.258 153.595 110.671 153.764 111.126 153.924C111.582 154.085 112.033 154.275 112.484 154.486C112.935 154.697 113.348 154.946 113.719 155.233C114.094 155.52 114.398 155.908 114.63 156.394C114.866 156.884 114.98 157.449 114.98 158.103C114.98 159.353 114.571 160.353 113.757 161.1C112.943 161.848 111.775 162.223 110.258 162.223C109.655 162.223 109.098 162.16 108.584 162.033C108.074 161.907 107.534 161.662 106.969 161.29C106.404 160.919 105.89 160.425 105.426 159.809L105.422 159.821Z" fill="#FF5C4D"/>
<path d="M115.93 157.665C115.93 156.394 116.398 155.318 117.329 154.431C118.261 153.545 119.391 153.102 120.723 153.102C121.6 153.102 122.41 153.304 123.148 153.709C123.885 154.115 124.467 154.668 124.889 155.364C125.31 156.065 125.525 156.829 125.525 157.66C125.525 158.492 125.315 159.248 124.889 159.948C124.467 160.649 123.885 161.206 123.148 161.616C122.41 162.025 121.6 162.228 120.723 162.228C119.846 162.228 119.045 162.025 118.308 161.616C117.57 161.206 116.988 160.649 116.566 159.948C116.14 159.248 115.93 158.484 115.93 157.66V157.665ZM118.223 157.665C118.223 158.315 118.468 158.876 118.961 159.353C119.454 159.826 120.04 160.066 120.723 160.066C121.406 160.066 122.009 159.83 122.498 159.353C122.987 158.88 123.232 158.315 123.232 157.665C123.232 157.015 122.987 156.462 122.498 155.985C122.009 155.512 121.419 155.271 120.723 155.271C120.028 155.271 119.454 155.508 118.961 155.985C118.468 156.457 118.223 157.019 118.223 157.665Z" fill="#FF5C4D"/>
<path d="M125.508 153.266H128.063L130.365 159.184L132.688 153.266H135.234L131.604 161.991H129.15L125.508 153.266Z" fill="#FF5C4D"/>
<path d="M135.227 157.711C135.227 157.094 135.337 156.508 135.556 155.951C135.775 155.393 136.083 154.899 136.479 154.482C136.876 154.059 137.369 153.726 137.959 153.477C138.549 153.228 139.194 153.105 139.894 153.105C140.763 153.105 141.543 153.317 142.243 153.734C142.943 154.152 143.486 154.71 143.87 155.398C144.254 156.09 144.448 156.841 144.448 157.66C144.448 157.918 144.431 158.158 144.393 158.378H137.5C137.635 158.926 137.925 159.361 138.368 159.691C138.811 160.02 139.359 160.18 140.017 160.18C140.451 160.18 140.864 160.1 141.26 159.94C141.657 159.779 141.981 159.539 142.234 159.218L143.832 160.442C143.423 160.999 142.884 161.438 142.205 161.759C141.53 162.075 140.805 162.236 140.029 162.236C139.135 162.236 138.322 162.037 137.588 161.645C136.85 161.252 136.273 160.708 135.851 160.011C135.43 159.319 135.219 158.551 135.219 157.715L135.227 157.711ZM137.588 156.715H142.095C142.028 156.271 141.783 155.9 141.362 155.604C140.94 155.309 140.447 155.157 139.886 155.157C139.325 155.157 138.874 155.3 138.465 155.583C138.056 155.866 137.765 156.246 137.592 156.719L137.588 156.715Z" fill="#FF5C4D"/>
<path d="M145.977 161.991V153.266H148.316V153.916C148.751 153.604 149.214 153.393 149.716 153.279C150.214 153.165 150.905 153.105 151.79 153.105V155.275C151.2 155.275 150.699 155.309 150.281 155.372C149.864 155.44 149.526 155.528 149.274 155.647C149.021 155.765 148.822 155.921 148.679 156.128C148.536 156.33 148.439 156.546 148.392 156.769C148.342 156.993 148.316 157.268 148.316 157.588V161.995H145.977V161.991Z" fill="#FF5C4D"/>
<path d="M153.262 151.398C152.975 151.124 152.836 150.786 152.836 150.385C152.836 149.984 152.979 149.646 153.262 149.376C153.548 149.106 153.898 148.967 154.32 148.967C154.742 148.967 155.083 149.102 155.361 149.372C155.64 149.642 155.779 149.98 155.779 150.385C155.779 150.79 155.64 151.132 155.361 151.402C155.083 151.673 154.737 151.812 154.32 151.812C153.903 151.812 153.544 151.673 153.262 151.398ZM153.144 161.989V153.264H155.484V161.989H153.144Z" fill="#FF5C4D"/>
<path d="M157.781 161.991V153.266H160.121V153.916C160.349 153.747 160.543 153.616 160.703 153.523C160.859 153.43 161.103 153.338 161.432 153.245C161.761 153.152 162.115 153.105 162.499 153.105C163.005 153.105 163.477 153.181 163.911 153.329C164.346 153.477 164.734 153.705 165.083 154C165.429 154.3 165.703 154.701 165.897 155.208C166.091 155.714 166.188 156.297 166.188 156.959V161.991H163.848V157.335C163.848 155.963 163.224 155.275 161.98 155.275C160.737 155.275 160.121 155.951 160.121 157.301V161.995H157.781V161.991Z" fill="#FF5C4D"/>
<path d="M168.231 161.704C167.944 161.43 167.805 161.092 167.805 160.691C167.805 160.29 167.948 159.953 168.231 159.682C168.517 159.412 168.867 159.273 169.289 159.273C169.71 159.273 170.052 159.408 170.33 159.678C170.608 159.948 170.747 160.286 170.747 160.691C170.747 161.097 170.608 161.438 170.33 161.709C170.052 161.979 169.706 162.118 169.289 162.118C168.871 162.118 168.513 161.979 168.231 161.704Z" fill="#FF5C4D"/>
<path d="M96.7053 159.296C97.3062 159.296 97.7934 158.825 97.7934 158.245C97.7934 157.664 97.3062 157.194 96.7053 157.194C96.1043 157.194 95.6172 157.664 95.6172 158.245C95.6172 158.825 96.1043 159.296 96.7053 159.296Z" fill="#FF5C4D"/>
<path d="M86.9105 152.993V157.471L87.9982 157.995L89.0859 157.471V155.095H99.9717V161.701C99.9717 163.702 98.8166 165.5 96.9615 166.399L94.5288 167.573L92.0962 166.399C90.3803 165.572 89.2714 163.976 89.1112 162.157L87.9982 162.693L86.9273 162.178C87.1002 164.787 88.6728 167.096 91.1223 168.278L94.5288 169.92L97.9354 168.278C100.532 167.024 102.147 164.504 102.147 161.701V152.993H86.9062H86.9105Z" fill="#FF5C4D"/>
<path d="M91.412 159.873C93.0857 159.067 94.3463 157.733 95.0335 156.142H92.584C92.0655 156.919 91.3361 157.56 90.4381 157.995L88.0054 159.168L85.5728 157.995C83.7177 157.1 82.5625 155.302 82.5625 153.297V146.691H93.4483V151.942H95.6238V144.593H80.3828V153.301C80.3828 156.104 81.9976 158.624 84.5946 159.878L88.0012 161.52L91.4078 159.878L91.412 159.873Z" fill="#FF5C4D"/>
<path d="M90.1818 150.894C90.7828 150.894 91.2699 150.424 91.2699 149.843C91.2699 149.263 90.7828 148.792 90.1818 148.792C89.5809 148.792 89.0938 149.263 89.0938 149.843C89.0938 150.424 89.5809 150.894 90.1818 150.894Z" fill="#FF5C4D"/>
<path d="M86.8261 203.516C88.5724 203.516 89.9881 202.098 89.9881 200.35C89.9881 198.601 88.5724 197.184 86.8261 197.184C85.0798 197.184 83.6641 198.601 83.6641 200.35C83.6641 202.098 85.0798 203.516 86.8261 203.516Z" fill="#00BFE6" stroke="#00BFE6" stroke-width="1.68696" stroke-linecap="round" stroke-linejoin="round"/>
<path d="M103.693 203.516C105.44 203.516 106.855 202.098 106.855 200.35C106.855 198.601 105.44 197.184 103.693 197.184C101.947 197.184 100.531 198.601 100.531 200.35C100.531 202.098 101.947 203.516 103.693 203.516Z" fill="#00BFE6" stroke="#00BFE6" stroke-width="1.68696" stroke-linecap="round" stroke-linejoin="round"/>
<path d="M120.56 203.516C122.307 203.516 123.722 202.098 123.722 200.35C123.722 198.601 122.307 197.184 120.56 197.184C118.814 197.184 117.398 198.601 117.398 200.35C117.398 202.098 118.814 203.516 120.56 203.516Z" fill="#00BFE6" stroke="#00BFE6" stroke-width="1.68696" stroke-linecap="round" stroke-linejoin="round"/>
<path d="M137.42 203.516C139.166 203.516 140.582 202.098 140.582 200.35C140.582 198.601 139.166 197.184 137.42 197.184C135.674 197.184 134.258 198.601 134.258 200.35C134.258 202.098 135.674 203.516 137.42 203.516Z" fill="#00BFE6" stroke="#00BFE6" stroke-width="1.68696" stroke-linecap="round" stroke-linejoin="round"/>
<path d="M439.806 1H325.758V264.988H439.806V1Z" fill="#C4F5F5" stroke="#C4F5F5" stroke-width="1.68696" stroke-linecap="round" stroke-linejoin="round"/>
<path d="M298.862 293C372.551 293 432.287 292.036 432.287 290.847C432.287 289.658 372.551 288.694 298.862 288.694C225.174 288.694 165.438 289.658 165.438 290.847C165.438 292.036 225.174 293 298.862 293Z" fill="#4D1F1F" stroke="#4D1F1F" stroke-width="1.68696" stroke-linecap="round" stroke-linejoin="round"/>
<path d="M507.573 293C581.262 293 640.998 292.036 640.998 290.847C640.998 289.658 581.262 288.694 507.573 288.694C433.885 288.694 374.148 289.658 374.148 290.847C374.148 292.036 433.885 293 507.573 293Z" fill="#4D1F1F" stroke="#4D1F1F" stroke-width="1.68696" stroke-linecap="round" stroke-linejoin="round"/>
<path d="M307.935 87.7753C316.367 87.3659 324.846 86.2684 332.789 83.4064C340.732 80.5444 348.156 75.8083 353.262 69.0798C359.742 60.5403 363.587 45.7367 354.29 37.6911C350.53 34.4366 345.297 33.031 340.373 33.7232C336.853 34.2213 333.514 35.7536 330.752 37.9866C328.147 40.093 326.106 43.0689 322.708 44.0018C318.058 45.2766 314.44 42.4695 310.57 40.4011C304.145 36.9651 296.24 36.7414 289.486 39.3501C283.377 41.7097 278.743 46.1757 276.762 52.4821C274.86 58.531 275.484 65.4538 278.929 70.84L307.931 87.7795L307.935 87.7753Z" fill="#4D1F1F" stroke="#4D1F1F" stroke-width="1.68696" stroke-linecap="round" stroke-linejoin="round"/>
<path d="M277.987 106.606C274.559 103.267 272.81 98.2858 273.391 93.5328C274.037 88.2521 277.877 83.9001 276.756 78.5097C276.258 76.1289 275.28 73.8791 274.728 71.511C273.244 65.137 275.162 58.0708 279.661 53.3262L290.521 103.558L277.991 106.606H277.987Z" fill="#4D1F1F" stroke="#4D1F1F" stroke-width="1.68696" stroke-linecap="round" stroke-linejoin="round"/>
<path d="M268.938 243.345H278.989V262.172C278.989 264.949 276.737 267.203 273.963 267.203C271.189 267.203 268.938 264.949 268.938 262.172V243.345Z" fill="#4D1F1F" stroke="#4D1F1F" stroke-width="1.68696" stroke-linecap="round" stroke-linejoin="round"/>
<path d="M326.551 224.203H317.449C308.401 224.203 300.509 222.629 292.384 218.644L247.323 284.798C244.743 288.584 240.464 290.847 235.89 290.847C226.64 290.847 219.991 281.936 222.617 273.055L236.016 227.749C241.564 208.986 252.239 192.152 266.835 179.142L326.922 171.954V177.044C326.922 180.252 329.519 182.857 332.724 182.857C339.048 182.857 347.724 182.857 352.4 182.857C360.49 182.857 367.991 187.091 372.228 194.085L372.426 194.414C377.907 203.469 376.372 215.119 368.733 222.435L344.925 245.237C343.407 246.689 341.008 246.664 339.52 245.178L327.719 233.363C325.291 230.932 324.81 227.166 326.547 224.199L334.448 210.717C337.34 205.782 341.413 201.65 346.303 198.695" fill="#00BFE6"/>
<path d="M247.323 284.793C244.743 288.579 240.464 290.842 235.89 290.842C226.64 290.842 219.991 281.931 222.617 273.05" stroke="#4D1F1F" stroke-width="1.68696" stroke-linecap="round" stroke-linejoin="round"/>
<path d="M235.891 290.847C240.465 290.847 244.749 288.58 247.325 284.798L292.386 218.644" stroke="#4D1F1F" stroke-width="1.68696" stroke-linecap="round" stroke-linejoin="round"/>
<path d="M344.31 245.715C344.095 245.85 343.872 245.964 343.64 246.052C343.062 246.276 342.443 246.356 341.836 246.289C340.984 246.2 340.162 245.828 339.512 245.178L327.712 233.363C325.283 230.932 324.803 227.167 326.54 224.199L304.591 261.658C302.951 264.457 302.58 267.817 303.562 270.906L307.673 283.802C309.009 287.994 312.901 290.839 317.294 290.839H329.268C331.717 290.839 333.703 288.851 333.703 286.398V285.74L327.126 279.328C325.878 278.112 325.292 276.369 325.545 274.646L326.94 265.208C327.248 263.123 328.243 261.198 329.765 259.737C331.527 258.049 333.876 257.103 336.317 257.103H347.725C349.77 257.103 351.431 255.444 351.431 253.393V238.986L344.913 245.229C344.723 245.411 344.521 245.571 344.306 245.706L344.31 245.715Z" fill="#4D1F1F" stroke="#4D1F1F" stroke-width="1.68696" stroke-linecap="round" stroke-linejoin="round"/>
<path d="M315.914 246.313L335.169 246.545C337.146 246.57 338.103 248.977 336.686 250.353L322.942 263.725C321.134 265.486 320.113 267.904 320.113 270.433V276.245" stroke="#FF5B4D" stroke-width="1.68696" stroke-linecap="round" stroke-linejoin="round"/>
<path d="M350.448 79.9097L357.337 81.0579H362.885L366.009 100.484L365.385 100.577C359.487 101.471 353.492 101.509 347.581 100.691L346.084 100.484L340.481 106.921C338.419 109.289 338.112 112.717 339.722 115.418L339.827 119.226C323.554 130.484 320.619 137.52 320.619 137.52C302.693 126.127 281.456 139.508 281.456 139.508C281.456 139.508 280.925 166.921 279.606 179.373C279.606 179.373 282.62 189.816 280.929 206.27C278.969 225.346 280.069 235.017 280.069 235.017H265.052C264.921 224.552 263.656 216.566 260.65 203.885C257.606 191.036 260.52 179.141 260.52 179.141C255.755 155.562 257.872 141.497 257.872 141.497L256.814 137.972C253.816 128.002 258.31 117.305 267.522 112.476L324.097 82.8181C332.449 79.4412 341.564 78.4365 350.448 79.9139V79.9097Z" fill="#FFBB99"/>
<path d="M280.649 165.156H280.594C280.349 170.112 280.05 174.899 279.688 178.567L279.78 179.124C313.294 193.945 327.645 180.281 327.645 180.281C327.4 175.903 327.308 170.572 327.712 166.95C305.886 181.754 280.653 165.156 280.653 165.156H280.649Z" fill="#4D1F1F"/>
<path d="M320.613 137.518C302.686 126.125 281.45 139.506 281.45 139.506C281.45 139.506 281.193 152.858 280.586 165.158H280.641C280.641 165.158 305.874 181.756 327.7 166.952C328.518 160.511 331.377 155.137 339.185 147.096C348.308 137.7 347.326 128.168 347.326 128.168L337.018 110.891C320.744 122.153 320.613 137.518 320.613 137.518Z" fill="#FF5C4D"/>
<path d="M309.086 51.1725C310.182 50.4549 311.455 49.9736 312.745 49.7499C315.326 49.3025 317.982 49.7584 320.511 50.4464C323.041 51.1345 325.507 52.0589 328.075 52.5739C332.953 53.5532 338.312 52.9369 342.372 50.0581C346.432 47.1792 348.856 41.8099 347.507 37.0146" stroke="#00BFE6" stroke-width="1.68696" stroke-linecap="round" stroke-linejoin="round"/>
<path d="M291.24 52.7314C289.916 50.1481 289.866 46.9484 291.11 44.3271C292.353 41.7057 294.862 39.7218 297.699 39.1182" stroke="#00BFE6" stroke-width="1.68696" stroke-linecap="round" stroke-linejoin="round"/>
<path d="M297.177 65.1294C288.585 65.1294 281.489 72.1028 280.414 81.1318C280.962 88.9241 283.829 96.919 285.874 101.761C287.059 104.568 289.643 106.362 292.485 106.362H301.874C304.715 106.362 307.3 104.568 308.484 101.761C310.529 96.9148 313.396 88.9241 313.944 81.1318C312.869 72.1028 305.774 65.1294 297.181 65.1294H297.177Z" fill="#FF5C4D"/>
<path d="M297.178 50.1729C286.238 50.1729 277.367 59.0542 277.367 70.0081C277.367 71.4855 277.426 72.9545 277.54 74.4066C278.801 64.6683 287.11 59.2441 297.178 59.2441C307.246 59.2441 315.556 64.6726 316.817 74.4066C316.926 72.9587 316.99 71.4898 316.99 70.0081C316.99 59.0542 308.119 50.1729 297.178 50.1729Z" fill="#FF5C4D"/>
<path d="M302.426 26.5254L302.109 20.582" stroke="#4D1F1F" stroke-width="1.68696" stroke-linecap="round" stroke-linejoin="round"/>
<path d="M316.305 30.0285L319.699 24.9336" stroke="#4D1F1F" stroke-width="1.68696" stroke-linecap="round" stroke-linejoin="round"/>
<path d="M281.453 139.504L284.872 129.762V134.401L281.453 139.504Z" stroke="#4D1F1F" stroke-width="1.68696" stroke-linecap="round" stroke-linejoin="round"/>
<path d="M297.094 160.248C302.355 162.692 309.042 161.632 313.292 157.681" stroke="#4D1F1F" stroke-width="1.68696" stroke-linecap="round" stroke-linejoin="round"/>
<path d="M258.422 165.723C258.865 169.758 259.501 174.241 260.42 179.138C260.42 179.138 269.957 174.271 279.675 179.37C279.675 179.37 279.907 176.656 280.156 173.245C280.32 170.708 280.463 167.948 280.594 165.128C273.945 161.308 264.957 161.523 258.422 165.719V165.723Z" fill="#FFE88C"/>
<path d="M291.102 150.731C291.102 150.731 308.859 142.766 326.921 149.621C326.921 149.621 328.312 134.066 342.204 123.041" stroke="#4D1F1F" stroke-width="1.68696" stroke-linecap="round" stroke-linejoin="round"/>
<path d="M320.613 137.516C320.613 137.516 318.825 132.277 316.312 128.436" stroke="#4D1F1F" stroke-width="1.68696" stroke-linecap="round" stroke-linejoin="round"/>
<path d="M280.594 165.132C273.945 161.312 264.957 161.527 258.422 165.723" stroke="#FF5C4D" stroke-width="1.68696" stroke-linecap="round" stroke-linejoin="round"/>
<path d="M260.414 179.14C260.414 179.14 269.951 174.273 279.669 179.372" stroke="#4D1F1F" stroke-width="1.68696" stroke-linecap="round" stroke-linejoin="round"/>
<path d="M317.898 63.9045C324.206 61.2789 332.06 62.9842 336.715 67.9863" stroke="#00BFE6" stroke-width="1.68696" stroke-linecap="round" stroke-linejoin="round"/>
<path d="M366.696 100.483C359.929 101.442 353.061 101.45 346.294 100.513L346.088 100.483L340.489 106.916C338.427 109.285 338.119 112.716 339.73 115.414" stroke="#4D1F1F" stroke-width="1.68696" stroke-linecap="round" stroke-linejoin="round"/>
<path d="M281.461 139.506C281.461 139.506 280.929 166.919 279.609 179.371C279.609 179.371 282.625 189.814 280.934 206.268C278.973 225.344 280.073 235.015 280.073 235.015" stroke="#4D1F1F" stroke-width="1.68696" stroke-linecap="round" stroke-linejoin="round"/>
<path d="M260.68 238.481L260.713 246.4C260.722 248.258 261.704 249.971 263.302 250.917L272.455 256.333C273.834 257.147 275.545 257.143 276.924 256.324L287.156 250.212C287.772 249.845 287.991 249.064 287.662 248.427C286.507 246.206 283.771 245.349 281.558 246.514L276.085 249.393" fill="#FFBB99"/>
<path d="M345.182 185.104C327.938 190.165 316.584 185.104 316.584 185.104C316.584 185.104 306.685 194.386 286.891 196.966" stroke="#4D1F1F" stroke-width="1.68696" stroke-linecap="round" stroke-linejoin="round"/>
<path d="M319.936 184.482L316.555 187.082L313.857 186.2C311.812 185.533 310.889 183.25 311.466 180.299L313.321 170.839L326.91 166.998L325.055 176.458C324.477 179.404 322.491 182.511 319.932 184.482H319.936Z" fill="#FFE88C"/>
<path d="M322.538 173.139C322.327 174.215 321.396 175.3 320.46 175.566C319.524 175.832 318.933 175.174 319.144 174.101C319.355 173.025 320.287 171.94 321.223 171.674C322.159 171.408 322.749 172.067 322.538 173.139Z" fill="#FF5C4D"/>
<path d="M326.914 167.004L325.059 176.464C324.481 179.41 322.496 182.517 319.936 184.488L316.555 187.088L313.857 186.206C311.812 185.539 310.889 183.255 311.466 180.305L313.321 170.845" stroke="#4D1F1F" stroke-width="1.68696" stroke-linecap="round" stroke-linejoin="round"/>
<ellipse cx="346.304" cy="198.694" rx="0.843485" ry="0.844234" fill="#4D1F1F"/>
<path d="M326.547 224.203L334.448 210.72C337.34 205.786 341.413 201.653 346.303 198.698" stroke="#4D1F1F" stroke-width="1.68696" stroke-linecap="round" stroke-linejoin="round"/>
<path d="M326.557 224.203H317.455C308.407 224.203 300.515 222.628 292.391 218.644" stroke="#4D1F1F" stroke-width="1.68696" stroke-linecap="round" stroke-linejoin="round"/>
<path d="M247.325 284.794C244.744 288.58 240.465 290.843 235.891 290.843H251.186C256.212 290.843 260.5 287.204 261.322 282.24L265.26 258.466L247.329 284.794H247.325Z" fill="#4D1F1F" stroke="#4D1F1F" stroke-width="1.68696" stroke-linecap="round" stroke-linejoin="round"/>
<path d="M260.68 238.481L260.713 246.4C260.722 248.258 261.704 249.971 263.302 250.917L272.455 256.333C273.834 257.147 275.545 257.143 276.924 256.324L287.156 250.212C287.772 249.845 287.991 249.064 287.662 248.427" stroke="#4D1F1F" stroke-width="1.68696" stroke-linecap="round" stroke-linejoin="round"/>
<path d="M273.964 250.214C281.589 250.214 287.771 244.024 287.771 236.389C287.771 228.754 281.589 222.565 273.964 222.565C266.338 222.565 260.156 228.754 260.156 236.389C260.156 244.024 266.338 250.214 273.964 250.214Z" fill="#FFE88C"/>
<path d="M287.771 236.392C287.771 244.028 281.591 250.216 273.964 250.216C266.337 250.216 260.156 244.028 260.156 236.392" stroke="#FF5C4D" stroke-width="1.68696" stroke-linecap="round" stroke-linejoin="round"/>
<path d="M271.852 237.141L272.825 250.171C273.534 250.23 274.255 250.235 274.984 250.18C275.713 250.125 276.426 250.015 277.117 249.851L276.143 236.82L271.852 237.141Z" fill="#FF5C4D" stroke="#FF5C4D" stroke-width="1.68696" stroke-linecap="round" stroke-linejoin="round"/>
<path d="M271.86 237.141L268.192 188.694C267.72 182.375 268.723 176.031 271.122 170.167L276.152 236.816L271.86 237.136V237.141Z" fill="#00BFE6" stroke="#00BFE6" stroke-width="1.68696" stroke-linecap="round" stroke-linejoin="round"/>
<path d="M271.86 237.141L268.192 188.694C267.72 182.375 268.723 176.031 271.122 170.167" stroke="#C4F5F5" stroke-width="1.68696" stroke-linecap="round" stroke-linejoin="round"/>
<path d="M271.125 170.167L276.155 236.819L271.863 237.14" stroke="#4D1F1F" stroke-width="1.68696" stroke-linecap="round" stroke-linejoin="round"/>
<path d="M366.003 100.485L362.879 81.0596H362.238V84.7784C362.238 93.6387 354.923 100.751 346.078 100.485H361.011H366.003Z" fill="#4D1F1F"/>
<path d="M357.364 47.6426L365.952 99.0902C368.717 115.646 376.213 130.534 385.523 137.938L397.732 147.651H403.344L401.075 144.033L406.7 137.942C413.538 130.538 416.068 115.654 413.302 99.0944L404.714 47.6468H357.359L357.364 47.6426Z" fill="#FF5C4D" stroke="#FF5B4D" stroke-width="1.68696" stroke-linecap="round" stroke-linejoin="round"/>
<path d="M403.353 147.651L391.143 137.938C381.834 130.534 374.334 115.646 371.572 99.0902L362.984 47.6426H410.339L418.927 99.0902C421.693 115.646 419.159 130.534 412.325 137.938L403.357 147.651H403.353Z" fill="#FFE88C" stroke="#FFE680" stroke-width="1.68696" stroke-linecap="round" stroke-linejoin="round"/>
<path d="M371.812 60.0542L378.331 99.0916C380.304 110.919 385.662 121.552 392.311 126.842L401.034 133.777L407.438 126.842C412.32 121.552 414.129 110.919 412.156 99.0916L405.638 60.0542H371.812Z" stroke="#FF5B4D" stroke-width="1.68696" stroke-linecap="round" stroke-linejoin="round"/>
<path d="M395.219 78.6626C394.645 75.2351 395.699 72.4575 397.567 72.4575C399.435 72.4575 401.412 75.2351 401.986 78.6626C402.559 82.0902 401.505 84.8678 399.637 84.8678C397.77 84.8678 395.792 82.0902 395.219 78.6626Z" fill="#FF5C4D" stroke="#FF5B4D" stroke-width="1.68696" stroke-linecap="round" stroke-linejoin="round"/>
<path d="M410.327 47.6421L418.915 99.0897C421.681 115.645 419.147 130.533 412.313 137.937L403.345 147.65L391.135 137.937C381.826 130.533 374.326 115.645 371.565 99.0897L362.977 47.6421" stroke="#FF5B4D" stroke-width="1.68696" stroke-linecap="round" stroke-linejoin="round"/>
<path d="M357.359 47.6421L365.947 99.0897C368.713 115.645 376.209 130.533 385.518 137.937L397.728 147.65H403.339L412.307 137.937" stroke="#4D1F1F" stroke-width="1.68696" stroke-linecap="round" stroke-linejoin="round"/>
<path d="M231.054 105.992C229.608 121.378 234.705 139.504 245.232 148.74" stroke="#4D1F1F" stroke-width="1.68696" stroke-linecap="round" stroke-linejoin="round"/>
<path d="M220.406 120.861C221.431 137.505 229.365 156.108 241.25 164.411" stroke="#4D1F1F" stroke-width="1.68696" stroke-linecap="round" stroke-linejoin="round"/>
<path d="M247.777 252.613C245.926 252.613 244.4 251.144 244.337 249.278C244.147 243.597 241.592 238.139 237.317 234.306C233.472 230.857 228.649 229.169 223.725 229.549C218.893 229.92 214.471 232.254 209.787 234.724C207.32 236.024 204.774 237.366 202.105 238.443C192.733 242.216 182.037 242.022 174.191 237.936C165.898 233.613 160.202 225.205 159.325 215.99C158.212 204.276 164.827 192.533 175.417 187.43C177.133 186.602 179.191 187.324 180.013 189.042C180.839 190.756 180.118 192.816 178.402 193.643C170.485 197.459 165.345 206.585 166.18 215.34C166.838 222.254 171.125 228.569 177.369 231.824C183.39 234.96 192.088 235.049 199.537 232.052C201.877 231.11 204.162 229.903 206.578 228.628C211.675 225.939 216.945 223.162 223.198 222.681C230.011 222.157 236.655 224.462 241.909 229.177C247.571 234.255 250.965 241.503 251.213 249.055C251.277 250.958 249.788 252.55 247.887 252.613C247.849 252.613 247.811 252.613 247.769 252.613H247.777Z" fill="#FF5C4D" stroke="#FF5C4D" stroke-width="1.68696" stroke-linecap="round" stroke-linejoin="round"/>
<path d="M251.222 249.048C251.285 250.952 249.797 252.543 247.895 252.607C247.857 252.607 247.819 252.607 247.777 252.607C245.926 252.607 244.4 251.138 244.337 249.272C244.147 243.59 241.592 238.132 237.317 234.299C233.472 230.851 228.649 229.162 223.725 229.542C218.893 229.914 214.471 232.248 209.787 234.717C207.32 236.017 204.774 237.36 202.105 238.436C192.733 242.21 182.037 242.016 174.191 237.93C165.898 233.607 160.202 225.199 159.325 215.984C158.212 204.27 164.827 192.527 175.417 187.423" stroke="#4D1F1F" stroke-width="1.68696" stroke-linecap="round" stroke-linejoin="round"/>
<path d="M214.462 157.299C215.174 158.535 214.754 160.118 213.516 160.834L200.843 168.16L198.26 163.682L210.934 156.356C212.168 155.642 213.749 156.064 214.464 157.303L214.462 157.299Z" fill="#C4F5F5" stroke="#C4F5F5" stroke-width="1.68696" stroke-linecap="round" stroke-linejoin="round"/>
<path d="M224.071 173.953C224.784 175.188 224.363 176.772 223.125 177.487L210.452 184.813L207.87 180.335L220.543 173.009C221.777 172.296 223.359 172.717 224.073 173.956L224.071 173.953Z" fill="#C4F5F5" stroke="#C4F5F5" stroke-width="1.68696" stroke-linecap="round" stroke-linejoin="round"/>
<path d="M210.453 184.812L223.127 177.488C224.362 176.775 224.783 175.192 224.071 173.955" stroke="#00BFE6" stroke-width="1.68696" stroke-linecap="round" stroke-linejoin="round"/>
<path d="M200.859 168.158L213.533 160.834C214.768 160.121 215.19 158.538 214.477 157.301" stroke="#00BFE6" stroke-width="1.68696" stroke-linecap="round" stroke-linejoin="round"/>
<path d="M214.044 191.042L209.74 183.579L206.51 177.981L202.206 170.518L198.976 164.921L194.672 157.458C193.483 155.398 190.852 154.689 188.79 155.879L179.911 161.012C178.499 161.827 177.668 163.372 177.765 165.001L178.052 169.771L178.647 179.683C178.811 182.393 180.236 184.862 182.496 186.36L182.922 186.639L182.951 187.146C183.116 189.856 184.541 192.325 186.8 193.823L195.077 199.294L199.061 201.928C200.422 202.827 202.172 202.882 203.584 202.063L212.463 196.93C214.521 195.74 215.229 193.106 214.04 191.042H214.044Z" fill="#FF5C4D" stroke="#FF5C4D" stroke-width="1.68696" stroke-linecap="round" stroke-linejoin="round"/>
<path d="M181.509 175.738C181.593 177.114 181.011 178.448 179.949 179.322L174.35 183.935C172.727 185.273 172.305 187.591 173.359 189.419L175.838 193.72L178.317 198.021C179.371 199.845 181.585 200.643 183.553 199.904L190.345 197.359C191.636 196.873 193.077 197.038 194.228 197.798" fill="#FF5C4D"/>
<path d="M181.509 175.738C181.593 177.114 181.011 178.448 179.949 179.322L174.35 183.935C172.727 185.273 172.305 187.591 173.359 189.419L175.838 193.72L178.317 198.021C179.371 199.845 181.585 200.643 183.553 199.904L190.345 197.359C191.636 196.873 193.077 197.038 194.228 197.798" stroke="#FF5C4D" stroke-width="1.68696" stroke-linecap="round" stroke-linejoin="round"/>
<path d="M178.923 171.261C179.007 172.637 178.425 173.971 177.363 174.845L171.764 179.459C170.141 180.797 169.719 183.114 170.773 184.942L173.252 189.243L175.731 193.545C176.785 195.368 178.999 196.166 180.967 195.427L186.701 193.275" fill="#FF5C4D"/>
<path d="M178.923 171.261C179.007 172.637 178.425 173.971 177.363 174.845L171.764 179.459C170.141 180.797 169.719 183.114 170.773 184.942L173.252 189.243L175.731 193.545C176.785 195.368 178.999 196.166 180.967 195.427L186.701 193.275" stroke="#FF5C4D" stroke-width="1.68696" stroke-linecap="round" stroke-linejoin="round"/>
<path d="M174.492 182.783L179.454 191.39" stroke="#4D1F1F" stroke-width="1.68696" stroke-linecap="round" stroke-linejoin="round"/>
<path d="M178.297 173.759L178.651 179.682C178.815 182.392 180.24 184.861 182.5 186.359L190.776 191.83L194.761 194.464C196.122 195.363 197.872 195.418 199.284 194.599L208.163 189.466" fill="#FF5C4D"/>
<path d="M178.297 173.759L178.651 179.682C178.815 182.392 180.24 184.861 182.5 186.359L190.776 191.83L194.761 194.464C196.122 195.363 197.872 195.418 199.284 194.599L208.163 189.466" stroke="#4D1F1F" stroke-width="1.68696" stroke-linecap="round" stroke-linejoin="round"/>
<path d="M170.773 184.939L175.837 193.719L178.316 198.021C179.37 199.844 181.583 200.642 183.552 199.903L190.344 197.358C191.634 196.873 193.076 197.037 194.227 197.797" stroke="#4D1F1F" stroke-width="1.68696" stroke-linecap="round" stroke-linejoin="round"/>
<path d="M191.758 197.085L195.088 199.289L199.073 201.923C200.434 202.822 202.184 202.877 203.596 202.058L212.475 196.925" stroke="#4D1F1F" stroke-width="1.68696" stroke-linecap="round" stroke-linejoin="round"/>
<path d="M227.984 209.18L235.894 210.43" stroke="#00BFE6" stroke-width="1.68696" stroke-linecap="round" stroke-linejoin="round"/>
<path d="M234.68 196.921L239.279 202.632" stroke="#00BFE6" stroke-width="1.68696" stroke-linecap="round" stroke-linejoin="round"/>
<path d="M296.112 252.539C295.504 252.539 294.885 252.378 294.328 252.036C292.701 251.049 292.186 248.93 293.173 247.3C302.423 232.041 319.203 221.56 336.957 219.947C348.285 218.917 359.474 221.298 369.96 223.826C370.967 224.071 371.979 224.316 372.991 224.561C382.14 226.79 391.596 229.09 400.931 229.255C412.209 229.462 421.977 226.266 428.423 220.289C429.819 218.997 431.999 219.082 433.289 220.475C434.579 221.872 434.499 224.054 433.103 225.346C425.346 232.535 413.878 236.372 400.813 236.144C390.711 235.971 380.875 233.573 371.364 231.256C370.36 231.011 369.353 230.766 368.349 230.525C358.42 228.132 347.868 225.874 337.576 226.811C321.956 228.229 307.195 237.452 299.054 250.876C298.405 251.944 297.271 252.534 296.107 252.534L296.112 252.539Z" fill="#FF5C4D" stroke="#FF5C4D" stroke-width="1.68696" stroke-linecap="round" stroke-linejoin="round"/>
<path d="M433.1 225.353C425.342 232.541 413.875 236.378 400.809 236.15C390.707 235.977 380.871 233.58 371.36 231.262C370.357 231.017 369.349 230.773 368.346 230.532C358.417 228.138 347.864 225.88 337.573 226.817C321.952 228.236 307.192 237.459 299.051 250.882C298.401 251.95 297.267 252.541 296.104 252.541C295.497 252.541 294.877 252.381 294.32 252.039C292.693 251.051 292.179 248.932 293.165 247.303" stroke="#4D1F1F" stroke-width="1.68696" stroke-linecap="round" stroke-linejoin="round"/>
<path d="M601.031 290.757L560.312 290.846V178.803L601.031 290.757Z" fill="#4D1F1F" stroke="#4D1F1F" stroke-width="1.68696" stroke-linecap="round" stroke-linejoin="round"/>
<path d="M388.172 264.99H439.818V221.9H388.172" fill="#00BFE6"/>
<path d="M388.172 264.99H439.818V221.9H388.172" stroke="#4D1F1F" stroke-width="1.68696" stroke-linecap="round" stroke-linejoin="round"/>
<path d="M560.336 221.9H439.82V264.99H560.336" fill="#00BFE6"/>
<path d="M560.336 221.9H439.82V264.99H560.336" stroke="#4D1F1F" stroke-width="1.68696" stroke-linecap="round" stroke-linejoin="round"/>
<path d="M460.339 246.679C462.122 246.679 463.568 245.231 463.568 243.445C463.568 241.66 462.122 240.212 460.339 240.212C458.555 240.212 457.109 241.66 457.109 243.445C457.109 245.231 458.555 246.679 460.339 246.679Z" fill="#FF5C4D" stroke="#FF5C4D" stroke-width="1.68696" stroke-linecap="round" stroke-linejoin="round"/>
<path d="M477.558 246.679C479.341 246.679 480.787 245.231 480.787 243.445C480.787 241.66 479.341 240.212 477.558 240.212C475.774 240.212 474.328 241.66 474.328 243.445C474.328 245.231 475.774 246.679 477.558 246.679Z" fill="#FF5C4D" stroke="#FF5C4D" stroke-width="1.68696" stroke-linecap="round" stroke-linejoin="round"/>
<path d="M494.761 246.679C496.544 246.679 497.99 245.231 497.99 243.445C497.99 241.66 496.544 240.212 494.761 240.212C492.977 240.212 491.531 241.66 491.531 243.445C491.531 245.231 492.977 246.679 494.761 246.679Z" fill="#FF5C4D" stroke="#FF5C4D" stroke-width="1.68696" stroke-linecap="round" stroke-linejoin="round"/>
<path d="M457.021 92.6191H405.375V135.713H457.021V92.6191Z" fill="#00BFE6"/>
<path d="M577.542 92.6191H457.031V135.713H577.542V92.6191Z" fill="#00BFE6"/>
<path d="M477.55 117.399C479.333 117.399 480.779 115.951 480.779 114.166C480.779 112.38 479.333 110.932 477.55 110.932C475.766 110.932 474.32 112.38 474.32 114.166C474.32 115.951 475.766 117.399 477.55 117.399Z" fill="#FF5C4D" stroke="#FF5C4D" stroke-width="1.68696" stroke-linecap="round" stroke-linejoin="round"/>
<path d="M494.761 117.399C496.544 117.399 497.99 115.951 497.99 114.166C497.99 112.38 496.544 110.932 494.761 110.932C492.977 110.932 491.531 112.38 491.531 114.166C491.531 115.951 492.977 117.399 494.761 117.399Z" fill="#FF5C4D" stroke="#FF5C4D" stroke-width="1.68696" stroke-linecap="round" stroke-linejoin="round"/>
<path d="M511.979 117.399C513.763 117.399 515.209 115.951 515.209 114.166C515.209 112.38 513.763 110.932 511.979 110.932C510.196 110.932 508.75 112.38 508.75 114.166C508.75 115.951 510.196 117.399 511.979 117.399Z" fill="#FF5C4D" stroke="#FF5C4D" stroke-width="1.68696" stroke-linecap="round" stroke-linejoin="round"/>
<path d="M457.031 92.6191V135.709" stroke="#4D1F1F" stroke-width="1.68696" stroke-linecap="round" stroke-linejoin="round"/>
<path d="M405.375 135.708H577.537" stroke="#4D1F1F" stroke-width="1.68696" stroke-linecap="round" stroke-linejoin="round"/>
<path d="M640.991 276.193L601.031 290.756L560.312 178.739L600.268 164.18" fill="#00BFE6"/>
<path d="M640.991 276.193L601.031 290.756L560.312 178.739L600.268 164.18" stroke="#4D1F1F" stroke-width="1.68696" stroke-linecap="round" stroke-linejoin="round"/>
<path d="M587.226 193.72C588.987 193.72 590.414 192.291 590.414 190.529C590.414 188.766 588.987 187.337 587.226 187.337C585.466 187.337 584.039 188.766 584.039 190.529C584.039 192.291 585.466 193.72 587.226 193.72Z" fill="#FF5C4D" stroke="#FF5C4D" stroke-width="1.68696" stroke-linecap="round" stroke-linejoin="round"/>
<path d="M593.047 209.723C594.807 209.723 596.234 208.294 596.234 206.532C596.234 204.769 594.807 203.34 593.047 203.34C591.286 203.34 589.859 204.769 589.859 206.532C589.859 208.294 591.286 209.723 593.047 209.723Z" fill="#FF5C4D" stroke="#FF5C4D" stroke-width="1.68696" stroke-linecap="round" stroke-linejoin="round"/>
<path d="M598.859 225.725C600.619 225.725 602.047 224.296 602.047 222.534C602.047 220.772 600.619 219.343 598.859 219.343C597.099 219.343 595.672 220.772 595.672 222.534C595.672 224.296 597.099 225.725 598.859 225.725Z" fill="#FF5C4D" stroke="#FF5C4D" stroke-width="1.68696" stroke-linecap="round" stroke-linejoin="round"/>
<path d="M388.156 221.898H439.803V178.804H388.156" fill="#00BFE6"/>
<path d="M388.156 221.898H439.803V178.804H388.156" stroke="#4D1F1F" stroke-width="1.68696" stroke-linecap="round" stroke-linejoin="round"/>
<path d="M560.32 178.804H439.805V221.898H560.32" fill="#00BFE6"/>
<path d="M560.32 178.804H439.805V221.898H560.32" stroke="#4D1F1F" stroke-width="1.68696" stroke-linecap="round" stroke-linejoin="round"/>
<path d="M560.324 221.897C524.277 196.118 475.855 196.118 439.812 221.897H560.324Z" fill="#4D1F1F" stroke="#4D1F1F" stroke-width="1.68696" stroke-linecap="round" stroke-linejoin="round"/>
<path d="M548.518 220.131L544.214 213.183L539.909 220.131L533.454 209.122L526.995 220.131L518.386 205.564L509.781 220.131L501.105 204.293L492.432 220.131L483.823 205.564L475.218 220.131L468.759 209.122L462.304 220.131L458 213.183L453.695 220.131" stroke="#FF5C4D" stroke-width="1.68696" stroke-linecap="round" stroke-linejoin="round"/>
<path d="M439.803 135.707H388.156V178.8H439.803V135.707Z" fill="#00BFE6"/>
<path d="M560.32 135.707H439.805V178.8H560.32" fill="#00BFE6"/>
<path d="M560.32 135.707H439.805V178.8H560.32" stroke="#4D1F1F" stroke-width="1.68696" stroke-linecap="round" stroke-linejoin="round"/>
<path d="M472.166 168.029C478.108 168.029 482.925 163.206 482.925 157.257C482.925 151.307 478.108 146.484 472.166 146.484C466.223 146.484 461.406 151.307 461.406 157.257C461.406 163.206 466.223 168.029 472.166 168.029Z" fill="#FF5C4D" stroke="#FF5C4D" stroke-width="1.68696" stroke-linecap="round" stroke-linejoin="round"/>
<path d="M528.041 168.029C533.983 168.029 538.8 163.206 538.8 157.257C538.8 151.307 533.983 146.484 528.041 146.484C522.098 146.484 517.281 151.307 517.281 157.257C517.281 163.206 522.098 168.029 528.041 168.029Z" fill="#FF5C4D" stroke="#FF5C4D" stroke-width="1.68696" stroke-linecap="round" stroke-linejoin="round"/>
<path d="M528.047 161.567C530.424 161.567 532.351 159.637 532.351 157.257C532.351 154.877 530.424 152.947 528.047 152.947C525.669 152.947 523.742 154.877 523.742 157.257C523.742 159.637 525.669 161.567 528.047 161.567Z" fill="#FFE88C" stroke="#FFE88C" stroke-width="1.68696" stroke-linecap="round" stroke-linejoin="round"/>
<path d="M472.156 161.567C474.534 161.567 476.461 159.637 476.461 157.257C476.461 154.877 474.534 152.947 472.156 152.947C469.779 152.947 467.852 154.877 467.852 157.257C467.852 159.637 469.779 161.567 472.156 161.567Z" fill="#FFE88C" stroke="#FFE88C" stroke-width="1.68696" stroke-linecap="round" stroke-linejoin="round"/>
<path d="M439.812 135.708C475.86 161.486 524.281 161.486 560.324 135.708H439.812Z" fill="#4D1F1F" stroke="#4D1F1F" stroke-width="1.68696" stroke-linecap="round" stroke-linejoin="round"/>
<path d="M461.406 168.031H482.925" stroke="#4D1F1F" stroke-width="1.68696" stroke-linecap="round" stroke-linejoin="round"/>
<path d="M517.281 168.031H538.8" stroke="#4D1F1F" stroke-width="1.68696" stroke-linecap="round" stroke-linejoin="round"/>
<path d="M388.156 178.801H439.803V135.708H405.37" stroke="#4D1F1F" stroke-width="1.68696" stroke-linecap="round" stroke-linejoin="round"/>
<path d="M560.323 264.985H508.672V290.844L517.281 273.605H551.713L560.323 290.844" fill="#4D1F1F"/>
<path d="M560.323 264.985H508.672V290.844L517.281 273.605H551.713L560.323 290.844" stroke="#4D1F1F" stroke-width="1.68696" stroke-linecap="round" stroke-linejoin="round"/>
<path d="M439.803 264.985H388.156V290.844L396.765 273.605H431.198L439.803 290.844L448.412 273.605H551.709L560.318 290.844V264.985H439.803Z" fill="#C4F5F5" stroke="#C4F5F5" stroke-width="1.68696" stroke-linecap="round" stroke-linejoin="round"/>
<path d="M600.268 164.181L560.312 178.803V164.181" fill="#00BFE6"/>
<path d="M600.268 164.181L560.312 178.803V164.181" stroke="#4D1F1F" stroke-width="1.68696" stroke-linecap="round" stroke-linejoin="round"/>
<path d="M600.275 132.352L590.418 139.439L596.772 143.449L586.75 150.532" stroke="#4D1F1F" stroke-width="1.68696" stroke-linecap="round" stroke-linejoin="round"/>
<path d="M534.149 60.2344L528.609 71.0406L536.089 71.7075L530.401 82.5855" stroke="#4D1F1F" stroke-width="1.68696" stroke-linecap="round" stroke-linejoin="round"/>
<path d="M560.318 290.848L551.709 273.609H448.412L439.803 290.848L431.198 273.609H396.765L388.156 290.848" stroke="#4D1F1F" stroke-width="1.68696" stroke-linecap="round" stroke-linejoin="round"/>
<path d="M439.812 290.847V264.988" stroke="#4D1F1F" stroke-width="1.68696" stroke-linecap="round" stroke-linejoin="round"/>
<path d="M315.782 194.096L310.242 204.902L317.721 205.569L312.034 216.452" stroke="#FBFCF9" stroke-width="1.68696" stroke-linecap="round" stroke-linejoin="round"/>
<path d="M247.328 214.708L250.06 222.535L253.909 219.145L256.608 227.077" stroke="#FBFCF9" stroke-width="1.68696" stroke-linecap="round" stroke-linejoin="round"/>
<path d="M570.742 78.1176L573.887 69.7217" stroke="#00BFE6" stroke-width="1.68696" stroke-linecap="round" stroke-linejoin="round"/>
<path d="M589.609 104.013L598.349 99.813" stroke="#00BFE6" stroke-width="1.68696" stroke-linecap="round" stroke-linejoin="round"/>
<path d="M340.547 162.408L345.193 157.68" stroke="#FBFCF9" stroke-width="1.68696" stroke-linecap="round" stroke-linejoin="round"/>
<path d="M345.195 171.947L351.456 168.979" stroke="#FBFCF9" stroke-width="1.68696" stroke-linecap="round" stroke-linejoin="round"/>
<path d="M13.6406 290.846L22.2498 273.607H56.6822L65.2871 290.846L73.8962 273.607H177.193L185.803 290.846" stroke="#4D1F1F" stroke-width="1.68696" stroke-linecap="round" stroke-linejoin="round"/>
<path d="M65.2969 264.988V290.847" stroke="#4D1F1F" stroke-width="1.68696" stroke-linecap="round" stroke-linejoin="round"/>
<path d="M297.183 59.2397C288.11 59.2397 280.462 63.2541 278.118 71.5867C277.641 73.2794 277.553 75.0607 277.823 76.7998C279.172 85.4659 283.995 93.9926 286.853 98.446C288.127 100.43 290.327 101.62 292.684 101.62H301.69C304.046 101.62 306.243 100.43 307.52 98.446C310.379 93.9926 315.202 85.4659 316.551 76.7998C316.821 75.0649 316.733 73.2794 316.256 71.5867C313.912 63.2499 306.264 59.2397 297.191 59.2397H297.183Z" fill="#FFBB99" stroke="#4D1F1F" stroke-width="1.68696" stroke-linecap="round" stroke-linejoin="round"/>
<path d="M295.165 77.8638L289.516 84.1406L294.398 86.8591" stroke="#4D1F1F" stroke-width="1.68696" stroke-linecap="round" stroke-linejoin="round"/>
<path d="M291.143 75.3267C290.236 74.4656 289.043 73.9126 287.799 73.7817C286.556 73.6509 285.274 73.9337 284.203 74.5795" stroke="#4D1F1F" stroke-width="1.68696" stroke-linecap="round" stroke-linejoin="round"/>
<path d="M307.529 74.5319C306.449 73.8988 305.163 73.6328 303.924 73.7806C302.684 73.9325 301.495 74.4982 300.602 75.3719" stroke="#4D1F1F" stroke-width="1.68696" stroke-linecap="round" stroke-linejoin="round"/>
<path d="M309.032 69.7601C306.026 69.3676 302.826 70.1105 300.381 71.7779L300.25 70.2245L305.748 69.7728" stroke="#4D1F1F" stroke-width="1.68696" stroke-linecap="round" stroke-linejoin="round"/>
<path d="M283.883 69.8498C286.509 69.014 289.676 69.7231 291.59 71.5846L291.923 70.1368L287.243 69.5458" stroke="#4D1F1F" stroke-width="1.68696" stroke-linecap="round" stroke-linejoin="round"/>
<path d="M294.391 88.7323C298.113 89.5005 301.967 89.3781 305.635 88.3819L305.981 88.2891L302.667 93.7724C301.575 95.579 298.973 95.6381 297.806 93.8737L294.391 88.7281V88.7323Z" fill="#4D1F1F" stroke="#4D1F1F" stroke-width="1.68696" stroke-linecap="round" stroke-linejoin="round"/>
<path d="M299.546 61.386L296.443 62.6819L293.34 61.386C290.992 60.4067 289.508 58.4016 289.508 56.2066V49.1699H303.379V56.2066C303.379 58.3974 301.895 60.4025 299.546 61.386Z" fill="#FFE88C"/>
<path d="M298.217 54.4802C299.174 54.4802 299.95 53.832 299.95 53.0323C299.95 52.2327 299.174 51.5845 298.217 51.5845C297.26 51.5845 296.484 52.2327 296.484 53.0323C296.484 53.832 297.26 54.4802 298.217 54.4802Z" fill="#FF5C4D"/>
<path d="M303.379 49.1758V56.2125C303.379 58.4033 301.895 60.4083 299.546 61.3918L296.443 62.6877L293.34 61.3918C290.992 60.4125 289.508 58.4075 289.508 56.2125V49.1758" stroke="#4D1F1F" stroke-width="1.68696" stroke-linecap="round" stroke-linejoin="round"/>
<path d="M314.07 70.3658L318.151 66.4106C319.492 65.1105 321.731 66.0602 321.731 67.9302V69.4329C321.731 74.0129 319.45 78.0863 315.689 80.3067C315.634 80.3404 315.58 80.37 315.521 80.4038L314.07 81.2396" fill="#FFBB99"/>
<path d="M287.406 76.4873V77.9225" stroke="#4D1F1F" stroke-width="2.53045" stroke-linecap="round" stroke-linejoin="round"/>
<path d="M304.141 76.4248V77.8642" stroke="#4D1F1F" stroke-width="2.53045" stroke-linecap="round" stroke-linejoin="round"/>
</svg>
