<svg width="221.886719" height="221.884766" viewBox="0 0 221.887 221.885" fill="none" xmlns="http://www.w3.org/2000/svg" xmlns:xlink="http://www.w3.org/1999/xlink">
	<desc>
			Created with Pixso.
	</desc>
	<defs/>
	<path id="Vector" d="M68.63 66.07L59.11 66.8L56.55 68.13L54.97 78.31L52.95 88.38L50.79 98.42L48.59 108.45L46.16 118.43L43.77 128.43L41.62 138.5L39.38 148.55L39.38 150.52L41.28 151.53L52.71 151.32L55.12 149.47L55.89 141.55L57.62 133.52L70.1 133.52L71.83 141.55L72.79 149.43L75.03 151.12L86.46 151.49L88.17 150.37L88.28 148.59L86.14 138.54L83.67 128.56L82.32 118.34L79.23 108.51L77.59 98.36L74.77 88.46L72.72 78.37L70.67 68.28L68.65 66.12L68.63 66.07ZM66.53 118.52L60.48 118.88L62.74 110.68L63.83 102.24L65.77 110.53L66.53 118.52Z" fill="#2D274F" fill-opacity="1.000000" fill-rule="nonzero"/>
	<path id="Vector" d="M108.97 66.96L100.52 66.12L92.07 66.48L89.7 68.7L89.55 78.72L90.05 88.75L90.28 98.77L90.41 108.8L89.64 118.82L90.02 128.87L89.57 138.91L89.7 148.96L92.09 151.06L100.05 151.11L108.01 151.47L117.27 150.08L125.23 145.22L129.94 136.68L130.85 126.96L131.16 117.57L130.75 108.19L131.5 98.81L131.33 89.43L130.09 80.44L125.5 72.67L117.76 68.37L109.03 66.96L108.97 66.96ZM105.21 81.55L108.73 82.11L113.92 83.44L115.22 89.45L115.07 99.11L115.56 108.77L115.8 118.46L115.92 128.14L113.7 134.17L108.73 136.1L105.96 135.93L105.83 125.17L105.53 114.31L105.58 103.45L105.94 92.57L105.19 81.58L105.21 81.55Z" fill="#2D274F" fill-opacity="1.000000" fill-rule="nonzero"/>
	<path id="Vector" d="M165.31 93.59L176.75 93.53L179.22 91.81L179.16 86.19L177.41 78.74L172.84 72.49L166.29 67.77L157.69 65.45L148.22 67.96L141.03 72.86L137.24 80.8L136.28 90.01L138.39 103.72L149.87 112.27L158.03 115.6L161.24 117.18L162.16 118.92L162.52 121.31L162.75 126.2L163.27 130.97L162.03 133.82L160.66 135.56L157.01 135.77L152.36 134.46L151.25 129.91L151.36 126.31L148.95 124.22L137.53 123.88L135.57 126.31L135.04 130.6L136.7 139.17L141.35 146.01L148.33 150.59L157.01 151.64L167.1 149.51L174.32 144.36L177.34 135.88L179.11 126.09L178.67 117.94L176.81 111.04L172.03 106.19L165.44 102.39L156.67 98.94L153.49 97.35L152.13 95.8L151.81 93.68L151.51 89.9L151.85 86.38L153.26 84.08L154.43 82.24L157.25 81.59L162.05 83.33L163.67 89.23L163.67 91.81L165.31 93.59Z" fill="#2D274F" fill-opacity="1.000000" fill-rule="nonzero"/>
	<path id="Vector" d="M125.51 82.3L118.71 88.89L112.24 95.89L105.48 102.56L102.55 113.23L99.76 123.92L97.82 134.85L94.49 145.77L105.88 145.11L116.93 145.5L127.98 145.77L139.04 145.52L150.11 145L161.16 145.82L171.87 137.47L174.39 126.8L176.6 116.04L179.89 105.57L182.53 100.76L188.49 94.73L194.4 88.61L191.2 81.4L180.77 81.22L170.34 81.16L159.92 80.95L149.47 81.18L139.04 80.67L128.58 81.14L125.51 82.3Z" fill="#B1E4FF" fill-opacity="1.000000" fill-rule="nonzero"/>
	<path id="Vector" d="M118.71 88.89L112.24 95.89L105.48 102.56L102.55 113.23L99.76 123.92L97.82 134.85L94.49 145.77L105.88 145.11L116.93 145.5L127.98 145.77L139.04 145.52L150.11 145L161.16 145.82L171.87 137.47L174.39 126.8L176.6 116.04L179.89 105.57L182.53 100.76L188.49 94.73L194.4 88.61L191.2 81.4L180.77 81.22L170.34 81.16L159.92 80.95L149.47 81.18L139.04 80.67L128.58 81.14L125.51 82.3L118.71 88.89Z" stroke="#2D274F" stroke-opacity="1.000000" stroke-width="1.500000"/>
	<path id="Vector" d="M107.97 91.98L108 102.57L107.89 113.3L107.74 124.03L108 134.77L108.02 145.33L117.89 145.76L127.98 145.71L138.07 145.76L148.14 145.5L150.7 134.77L153.03 123.99L155.95 113.34L158.34 102.57L160.84 91.94L150.34 92.07L139.72 92L129.09 91.64L118.47 92.07L107.97 91.98Z" fill="#2D274F" fill-opacity="1.000000" fill-rule="nonzero"/>
	<path id="Vector" d="M108 102.57L107.89 113.3L107.74 124.03L108 134.77L108.02 145.33L117.89 145.76L127.98 145.71L138.07 145.76L148.14 145.5L150.7 134.77L153.03 123.99L155.95 113.34L158.34 102.57L160.84 91.94L150.34 92.07L139.72 92L129.09 91.64L118.47 92.07L107.97 91.98L108 102.57Z" stroke="#2D274F" stroke-opacity="1.000000" stroke-width="1.500000" stroke-linejoin="round"/>
	<path id="Vector" d="M73.5 80.71L62.83 80.71L52.16 80.58L41.5 81.24L34.2 84.51L30.98 91.83L30.74 102.56L31.06 113.29L30.4 124.03L31.32 134.76L34.16 142.14L41.5 145.71L52.14 145.64L62.83 145.45L73.5 145.15L84.93 145.6L96.39 145.36L107.82 145.84L118.32 137.4L121.26 126.84L122.97 115.98L126.32 105.5L128.69 100.24L134.57 94.15L140.66 88.22L137.86 81.03L127.13 81.05L116.4 81.31L105.69 80.6L94.96 80.84L84.23 80.94L73.5 80.71Z" fill="#FBFBF8" fill-opacity="1.000000" fill-rule="nonzero"/>
	<path id="Vector" d="M62.83 80.71L52.16 80.58L41.5 81.24L34.2 84.51L30.98 91.83L30.74 102.56L31.06 113.29L30.4 124.03L31.32 134.76L34.16 142.14L41.5 145.71L52.14 145.64L62.83 145.45L73.5 145.15L84.93 145.6L96.39 145.36L107.82 145.84L118.32 137.4L121.26 126.84L122.97 115.98L126.32 105.5L128.69 100.24L134.57 94.15L140.66 88.22L137.86 81.03L127.13 81.05L116.4 81.31L105.69 80.6L94.96 80.84L84.23 80.94L73.5 80.71L62.83 80.71Z" stroke="#2D274F" stroke-opacity="1.000000" stroke-width="1.500000"/>
	<path id="Vector" d="M41.43 91.83L41.43 102.56L41.52 113.3L41.43 91.83Z" fill="#2D274F" fill-opacity="1.000000" fill-rule="nonzero"/>
	<path id="Vector" d="M41.43 91.83L41.43 102.56L41.52 113.3" stroke="#2D274F" stroke-opacity="1.000000" stroke-width="1.500000" stroke-linejoin="round" stroke-linecap="round"/>
	<path id="Vector" d="M47.81 91.83L47.85 102.56L47.94 113.3L47.81 91.83Z" fill="#2D274F" fill-opacity="1.000000" fill-rule="nonzero"/>
	<path id="Vector" d="M47.81 91.83L47.85 102.56L47.94 113.3" stroke="#2D274F" stroke-opacity="1.000000" stroke-width="1.500000" stroke-linejoin="round" stroke-linecap="round"/>
	<path id="Vector" d="M54.21 91.83L54.19 102.56L54.36 113.3L54.21 91.83Z" fill="#2D274F" fill-opacity="1.000000" fill-rule="nonzero"/>
	<path id="Vector" d="M54.21 91.83L54.19 102.56L54.36 113.3" stroke="#2D274F" stroke-opacity="1.000000" stroke-width="1.500000" stroke-linejoin="round" stroke-linecap="round"/>
	<path id="Vector" d="M62.81 81.08L62.76 76.8L57.5 71.5L52.12 76.8L52.16 81.08L62.81 81.08Z" fill="#FF5553" fill-opacity="1.000000" fill-rule="nonzero"/>
	<path id="Vector" d="M62.76 76.8L57.5 71.5L52.12 76.8L52.16 81.08L62.81 81.08L62.76 76.8Z" stroke="#2D274F" stroke-opacity="1.000000" stroke-width="1.500000" stroke-linejoin="round"/>
	<path id="Vector" d="M146.16 118.66L138.69 126.22L131.21 118.66L138.69 111.17L146.16 118.66Z" fill="#2D274F" fill-opacity="1.000000" fill-rule="nonzero"/>
	<path id="Vector" d="M138.69 126.22L131.21 118.66L138.69 111.17L146.16 118.66L138.69 126.22Z" stroke="#FF5553" stroke-opacity="1.000000" stroke-width="1.530000" stroke-linejoin="round"/>
	<circle id="Ellipse 16" cx="110.941406" cy="110.942383" r="104.149994" stroke="#FF5553" stroke-opacity="1.000000" stroke-width="13.584782"/>
	<line id="Line 188" x1="34.726562" y1="176.006836" x2="176.007812" y2="34.725586" stroke="#FF5553" stroke-opacity="1.000000" stroke-width="14.490434"/>
</svg>
