<svg width="520" height="352" viewBox="0 0 520 352" fill="none" xmlns="http://www.w3.org/2000/svg">
<path d="M136.683 134.705H43.2109V301.26H136.683V134.705Z" fill="#C4F5F5" stroke="#C4F5F5" stroke-width="2.41058" stroke-miterlimit="10"/>
<path d="M136.617 134.695V0.5" stroke="#C4F5F5" stroke-width="2.41058" stroke-miterlimit="10"/>
<path d="M43.2109 99.8076H441.849" stroke="#C4F5F5" stroke-width="2.41058" stroke-miterlimit="10"/>
<path d="M388.75 301.25V0.5" stroke="#C4F5F5" stroke-width="2.41058" stroke-miterlimit="10"/>
<path d="M295.519 122.982C303.323 113.751 307.424 101.467 306.737 89.3876C306.147 78.9779 301.744 66.1709 293.623 59.1439C290.791 56.6903 287.971 54.1683 285.143 51.6343C281.54 42.2502 274.13 34.3343 264.887 30.3683C259.32 27.9791 253.307 26.8528 247.286 26.8287L247.311 26.8086H237.333L237.353 26.8247C231.485 26.9051 225.636 28.0394 220.21 30.3683C210.968 34.3383 203.553 42.2542 199.954 51.6343C197.126 54.1683 194.307 56.6903 191.475 59.1439C183.353 66.1749 178.951 78.9819 178.36 89.3876C177.673 101.463 181.779 113.747 189.579 122.982C172.93 137.37 165.487 157.92 174.279 184.789H310.814C319.606 157.916 312.168 137.366 295.515 122.982H295.519Z" fill="#4D1F1F" stroke="#4D1F1F" stroke-width="2.41058" stroke-linecap="round" stroke-linejoin="round"/>
<path d="M226.945 34.9784C227.295 33.8039 227.817 32.6858 228.492 31.6722C229.994 29.4238 232.247 27.7184 234.782 26.918" stroke="#00BFE6" stroke-width="2.41058" stroke-linecap="round" stroke-linejoin="round"/>
<path d="M408.664 207.406L360.488 179.841C354.977 176.687 351.575 170.815 351.575 164.46V145.997C351.575 141.637 349.968 137.434 347.068 134.184L309.372 91.9978C308.737 91.2899 307.717 91.0767 306.853 91.4789C303.917 92.8425 303.029 96.5993 305.046 99.1334L302.158 95.4972C301.535 94.7129 300.463 94.4554 299.551 94.8657L299.531 94.8738C296.663 96.1689 295.707 99.7729 297.555 102.319L311.858 122.061C313.111 123.79 313.786 125.87 313.786 128.01V136.078C313.786 137.51 312.858 138.829 311.472 139.183C310.079 139.541 308.677 138.914 307.998 137.727L304.576 131.766C303.142 129.268 300.475 127.736 297.595 127.764C296.084 127.776 295.056 129.317 295.554 130.745L301.109 146.593C302.571 150.76 305.487 154.259 309.319 156.447L319.686 162.36C321.369 163.317 322.775 164.697 323.767 166.358L333.889 184.865C328.415 179.415 321.032 175.947 312.922 175.465V175.481L280.444 173.405C272.069 172.906 265.53 165.96 265.53 157.557V141.947H219.434V157.557C219.434 165.96 212.895 172.906 204.521 173.405L171.7 175.501C156.606 176.398 143.933 187.214 140.66 202L136.667 220.024C114.387 268.456 121.054 288.121 128.915 303.462L159.269 271.324L167.868 251.707L313.26 242.468V225.776C313.26 225.776 344.14 251.02 370.112 251.02H397.096C409.969 251.02 420.404 240.57 420.404 227.678C420.404 219.304 415.922 211.569 408.66 207.414L408.664 207.406Z" fill="#FFBB99"/>
<path d="M379.845 241.692C367.831 237.344 357.814 228.752 351.676 217.53L350.435 215.262C349.487 219.598 349.122 224.062 349.391 228.495C349.837 235.819 352.01 243.023 355.617 249.406C360.316 250.391 365.176 250.999 370.028 250.999H389.007C383.894 250.999 379.769 246.808 379.845 241.687V241.692Z" fill="#FFE88C"/>
<path d="M417.935 227.69C417.935 239.229 408.56 248.617 397.036 248.617H370.052C348.892 248.617 323.531 230.791 314.353 223.869C312.931 222.795 310.898 223.808 310.898 225.594V240.159" stroke="#FF5C4D" stroke-width="2.41058" stroke-linecap="round" stroke-linejoin="round"/>
<path d="M332.086 123.469L344.084 136.896C346.329 139.41 347.566 142.652 347.566 146.026V164.489C347.566 172.272 351.76 179.504 358.504 183.361L406.675 210.926C410.897 213.343 413.994 217.241 415.456 221.754" stroke="#FFE88C" stroke-width="2.41058" stroke-linecap="round" stroke-linejoin="round"/>
<path d="M336.871 139.497C333.333 136.726 330.814 132.837 329.155 128.658L328.187 136.199C327.967 137.933 326.492 139.228 324.749 139.228H322.56C321.496 139.228 320.632 138.363 320.632 137.297V134.691V135.753C320.632 137.671 319.078 139.224 317.166 139.224H315.623C314.559 139.224 313.695 138.359 313.695 137.293C313.695 141.774 317.322 145.41 321.801 145.41H330.963C334.224 145.41 336.871 142.759 336.871 139.493V139.497Z" fill="#FF5C4D"/>
<path d="M337.018 139.514L331.531 147.675" stroke="#FF5C4D" stroke-width="2.41058" stroke-linecap="round" stroke-linejoin="round"/>
<path d="M350.435 215.262C349.487 219.598 349.122 224.062 349.391 228.495C349.752 234.435 351.251 240.296 353.725 245.706" stroke="#FF5C4D" stroke-width="2.41058" stroke-linecap="round" stroke-linejoin="round"/>
<path d="M306.982 91.4531C304.046 92.8166 303.158 96.5734 305.175 99.1073L320.346 118.197" stroke="#4D1F1F" stroke-width="2.41058" stroke-linecap="round" stroke-linejoin="round"/>
<path d="M315.672 139.253H329.951" stroke="#4D1F1F" stroke-width="2.41058" stroke-linecap="round" stroke-linejoin="round"/>
<path d="M299.491 94.9316C296.631 96.2509 295.691 99.8588 297.539 102.413L311.818 122.118C313.071 123.847 313.746 125.927 313.746 128.066" stroke="#4D1F1F" stroke-width="2.41058" stroke-linecap="round" stroke-linejoin="round"/>
<path d="M379.743 241.695C379.667 246.816 383.792 251.007 388.905 251.007H389.198" stroke="#FF5C4D" stroke-width="2.41058" stroke-linecap="round" stroke-linejoin="round"/>
<path d="M294.516 128.021L301.031 146.604C302.493 150.771 305.409 154.271 309.241 156.459L319.608 162.372C321.291 163.329 322.697 164.709 323.689 166.37L351.681 217.554C357.818 228.776 367.836 237.368 379.85 241.716" stroke="#4D1F1F" stroke-width="2.41058" stroke-linecap="round" stroke-linejoin="round"/>
<path d="M316.189 139.281V128.006C316.189 125.344 315.362 122.798 313.803 120.642L299.5 100.901" stroke="#FF5C4D" stroke-width="2.41058" stroke-linecap="round" stroke-linejoin="round"/>
<path d="M380.593 239.396C369.122 235.245 359.578 227.055 353.718 216.344L325.706 165.119L325.682 165.079C325.264 164.383 324.778 163.715 324.224 163.088C323.794 162.601 323.34 162.147 322.87 161.74C322.207 161.169 321.484 160.658 320.725 160.224L310.358 154.311C309.876 154.038 309.402 153.728 308.904 153.37C306.265 151.459 304.301 148.825 303.229 145.756L297.758 130.145" stroke="#FF5C4D" stroke-width="2.41058" stroke-linecap="round" stroke-linejoin="round"/>
<path d="M307.008 97.7036L323.307 118.213" stroke="#FF5C4D" stroke-width="2.41058" stroke-linecap="round" stroke-linejoin="round"/>
<path d="M335.06 120.91C333.522 119.188 331.32 118.203 329.011 118.203H320.977C319.576 118.203 318.258 118.882 317.443 120.021L314.872 123.621C314.109 124.69 313.695 125.978 313.695 127.293V137.413C313.695 138.478 314.559 139.343 315.623 139.343H317.166C319.082 139.343 320.632 137.787 320.632 135.872V134.81V137.417C320.632 138.482 321.496 139.347 322.56 139.347H324.749C326.492 139.347 327.967 138.048 328.187 136.319L329.155 128.777C330.814 132.956 333.337 136.849 336.871 139.617" stroke="#4D1F1F" stroke-width="2.41058" stroke-linecap="round" stroke-linejoin="round"/>
<path d="M325.489 139.347H322.701C321.637 139.347 320.773 138.482 320.773 137.416V127.297C320.773 125.981 321.183 124.694 321.95 123.624L324.521 120.025C325.336 118.882 326.654 118.207 328.056 118.207" stroke="#4D1F1F" stroke-width="2.41058" stroke-linecap="round" stroke-linejoin="round"/>
<path d="M177.53 220.803L184.213 217.44L171.617 242.458L177.53 220.803Z" fill="#FF5C4D"/>
<path d="M313.227 242.447V225.755C313.227 225.755 344.103 250.999 370.079 250.999H397.062C409.936 250.999 420.371 240.549 420.371 227.658" stroke="#4D1F1F" stroke-width="2.41058" stroke-linecap="round" stroke-linejoin="round"/>
<path d="M266.406 170.546C269.8 174.48 274.713 177.078 280.26 177.408L313.682 179.54C317.434 179.89 321.053 180.976 324.343 182.718" stroke="#FFE88C" stroke-width="2.41058" stroke-linecap="round" stroke-linejoin="round"/>
<path d="M129.578 247.545C132.093 239.167 135.655 230.596 140.246 221.875L140.499 221.397L144.608 202.846C147.48 189.882 158.731 180.281 171.966 179.493L204.786 177.397C210.028 177.083 214.699 174.747 218.061 171.175" stroke="#FFE88C" stroke-width="2.41058" stroke-linecap="round" stroke-linejoin="round"/>
<path d="M234.007 163.987H251.182C257.838 163.987 263.232 158.586 263.232 151.921V140.94C263.232 138.941 261.613 137.32 259.617 137.32H225.576C223.58 137.32 221.961 138.941 221.961 140.94V151.921C221.961 158.586 227.355 163.987 234.011 163.987H234.007Z" fill="#FF5C4D"/>
<path d="M170.671 245.369C162.284 241.166 152.664 239.441 143.346 240.539C137.509 241.226 131.814 243.024 126.608 245.751C122.362 259.358 121.129 269.893 121.627 278.48C121.736 279.421 121.856 280.35 121.989 281.259C125.499 276.038 130.713 272.27 136.646 270.255C134.063 271.115 131.585 272.29 129.303 273.774C131.589 272.29 134.063 271.115 136.646 270.255C136.923 270.162 137.2 270.07 137.477 269.985C137.489 269.985 137.497 269.977 137.509 269.977C140.341 269.108 143.325 268.634 146.354 268.585C146.394 268.585 146.438 268.585 146.478 268.585C146.828 268.581 147.177 268.585 147.531 268.589C147.619 268.589 147.704 268.589 147.792 268.593C148.19 268.605 148.587 268.622 148.985 268.65C148.985 268.65 148.985 268.65 148.989 268.65C149.391 268.678 149.784 268.714 150.174 268.754C151.07 268.851 151.941 268.984 152.789 269.157C153.194 269.241 153.596 269.329 153.994 269.43C155.58 269.828 159.304 271.304 159.304 271.304L170.51 246.186L170.671 245.369Z" fill="#FFE88C"/>
<path d="M157.891 268.221L168.354 244.346" stroke="#FF5B4D" stroke-width="2.41058" stroke-linecap="round" stroke-linejoin="round"/>
<path d="M170.762 245.369C162.375 241.166 152.756 239.441 143.437 240.539C137.601 241.226 131.905 243.02 126.695 245.747" stroke="#FF5B4D" stroke-width="2.41058" stroke-linecap="round" stroke-linejoin="round"/>
<path d="M279.189 67.2543C281.992 81.9157 281.715 102.908 271.401 128.068C268.946 134.053 263.203 137.935 256.868 137.935H217.963C203.294 108.391 202.535 83.7941 205.7 67.2543C209.11 49.4354 224.743 36.8374 242.444 36.8374C260.146 36.8374 275.779 49.4354 279.189 67.2543Z" fill="#FF5C4D"/>
<path d="M279.185 80.1628C275.775 62.7664 260.142 50.4702 242.441 50.4702C224.739 50.4702 209.106 62.7704 205.696 80.1628C204.025 88.6901 203.455 99.4095 205.439 111.875C206.431 118.093 213.689 133.301 218.16 142.259C220.273 146.49 224.591 149.169 229.314 149.169H255.583C260.295 149.169 264.605 146.511 266.721 142.295C271.164 133.458 278.342 118.531 279.35 112.426C281.443 99.7272 280.876 88.8188 279.181 80.1668L279.185 80.1628Z" fill="#FFBB99"/>
<path d="M229.316 149.155H255.585C260.297 149.155 264.606 146.497 266.723 142.281C271.166 133.445 278.347 118.51 279.352 112.405V100.346C279.352 100.346 269.426 124.857 266.004 132.053C263.088 138.183 256.91 142.088 250.13 142.088H235.176C228.396 142.088 222.218 138.183 219.302 132.053C216.965 127.146 204.18 100.346 204.18 100.346L205.441 111.862C206.433 118.076 213.691 133.288 218.162 142.245C220.274 146.477 224.592 149.155 229.316 149.155Z" fill="#FF5C4D"/>
<path d="M279.185 80.1628C275.775 62.7664 260.142 50.4702 242.441 50.4702C224.739 50.4702 209.106 62.7704 205.696 80.1628C204.025 88.6901 203.455 99.4095 205.439 111.875C206.431 118.093 213.689 133.301 218.16 142.259C220.273 146.49 224.591 149.169 229.314 149.169H255.583C260.295 149.169 264.605 146.511 266.721 142.295C271.164 133.458 278.342 118.531 279.35 112.426C281.443 99.7272 280.876 88.8188 279.181 80.1668L279.185 80.1628Z" stroke="#4D1F1F" stroke-width="2.41058" stroke-linecap="round" stroke-linejoin="round"/>
<path d="M217.117 71.7256C222.656 69.4048 229.553 69.7829 234.835 72.699L234.815 70.5029L225.5 70.2294" stroke="#4D1F1F" stroke-width="2.41058" stroke-linecap="round" stroke-linejoin="round"/>
<path d="M267.857 71.6979C262.201 69.3851 255.164 69.7753 249.766 72.6994L249.79 70.6642L259.197 70.2137" stroke="#4D1F1F" stroke-width="2.41058" stroke-linecap="round" stroke-linejoin="round"/>
<path d="M300.819 209.394H293.609C276.598 209.394 260.106 215.255 246.903 225.994L242.638 229.465L238.372 225.994C225.169 215.255 208.677 209.394 191.666 209.394H184.456L167.297 242.292C167.297 265.244 179.455 275.219 179.455 275.219L185.557 301.259H299.726L305.828 275.219C305.828 275.219 317.986 264.154 317.986 242.292L300.827 209.394H300.819Z" fill="#FF5C4D"/>
<path d="M191.49 234.384C208.501 234.384 224.993 241.447 238.196 254.386L242.462 258.569L246.728 254.386C259.93 241.447 276.423 234.384 293.433 234.384H313.681L300.643 209.394H293.433C276.423 209.394 259.93 215.254 246.728 225.994L242.462 229.465L238.196 225.994C224.993 215.254 208.501 209.394 191.49 209.394H184.28L171.242 234.384H191.49Z" fill="#FF5C4D"/>
<path d="M240.227 105.01C240.227 105.01 243.155 128.363 252.152 128.363C260.33 128.363 261.973 108.546 262.206 104.93L240.227 105.01Z" fill="#4D1F1F" stroke="#4D1F1F" stroke-width="2.41058" stroke-linecap="round" stroke-linejoin="round"/>
<path d="M312.701 234.372H293.441C276.43 234.372 259.938 241.435 246.735 254.374L242.47 258.557L238.204 254.374C225.001 241.435 208.509 234.372 191.498 234.372H171.25" stroke="#4D1F1F" stroke-width="2.41058" stroke-linecap="round" stroke-linejoin="round"/>
<path d="M242.445 229.483V217.433" stroke="#4D1F1F" stroke-width="2.41058" stroke-linecap="round" stroke-linejoin="round"/>
<path d="M249.304 59.6033L242.416 62.2499L235.527 59.6033C230.309 57.6002 227.016 53.5016 227.016 49.0209V34.6416H257.816V49.0209C257.816 53.5016 254.522 57.6002 249.304 59.6033Z" fill="#FFE88C"/>
<path d="M246.493 45.5396C248.62 45.5396 250.345 44.216 250.345 42.5833C250.345 40.9505 248.62 39.627 246.493 39.627C244.365 39.627 242.641 40.9505 242.641 42.5833C242.641 44.216 244.365 45.5396 246.493 45.5396Z" fill="#FF5C4D"/>
<path d="M257.831 34.6426V49.0219C257.831 53.5026 254.537 57.6012 249.32 59.6042L242.431 62.2508L235.543 59.6042C230.325 57.6012 227.031 53.5026 227.031 49.0219V34.6426" stroke="#4D1F1F" stroke-width="2.41058" stroke-linecap="round" stroke-linejoin="round"/>
<path d="M305.594 275.217C305.594 275.217 317.753 264.804 317.753 242.292L300.594 209.394L307.277 212.757" stroke="#4D1F1F" stroke-width="2.41058" stroke-linecap="round" stroke-linejoin="round"/>
<path d="M179.44 275.217C179.44 275.217 167.281 264.804 167.281 242.292L184.44 209.394L177.757 212.757" stroke="#4D1F1F" stroke-width="2.41058" stroke-linecap="round" stroke-linejoin="round"/>
<path d="M253.867 115.12C251.224 115.57 248.935 116.97 247.039 118.708C246.167 119.504 245.372 120.369 244.625 121.274C246.445 125.24 248.927 128.369 252.22 128.369C256.828 128.369 259.358 122.086 260.732 115.949C258.639 114.975 255.896 114.774 253.863 115.12H253.867Z" fill="#FF5C4D" stroke="#4D1F1F" stroke-width="2.41058" stroke-linecap="round" stroke-linejoin="round"/>
<path d="M1.48438 301.253H488.234V301.253C504.901 301.253 518.412 314.765 518.412 331.432V345.405" stroke="#4D1F1F" stroke-width="2.41058" stroke-linecap="round" stroke-linejoin="round"/>
<path d="M159.249 271.31C161.936 272.525 164.507 274.069 167.138 275.799C167.528 276.052 169.211 277.259 171.167 278.663C175.505 281.784 181.345 281.804 185.707 278.715C189.318 276.157 193.572 273.144 196.741 270.9C199.729 268.784 203.449 267.984 207.04 268.684L229.593 273.076C231.907 273.527 233.574 275.554 233.574 277.915C233.574 280.404 231.348 282.307 228.894 281.913L214.691 279.648L230.164 282.114C232.128 282.428 233.574 284.121 233.574 286.112V287.174C233.574 289.579 231.489 291.457 229.103 291.2L214.691 289.668L229.959 291.292C232.015 291.51 233.578 293.247 233.578 295.319V296.425C233.578 298.746 231.634 300.592 229.316 300.471L214.691 299.691L229.746 300.495C231.895 300.612 233.574 302.386 233.574 304.542V305.266C233.574 307.502 231.762 309.316 229.529 309.316H138.495C134.446 309.316 130.739 307.051 128.891 303.443C128.891 303.443 126.401 298.597 125.172 294.635" fill="#FFBB99"/>
<path d="M210.836 299.478L229.803 300.488" stroke="#4D1F1F" stroke-width="2.41058" stroke-linecap="round" stroke-linejoin="round"/>
<path d="M210.836 289.206L230.016 291.249" stroke="#4D1F1F" stroke-width="2.41058" stroke-linecap="round" stroke-linejoin="round"/>
<path d="M210.836 279.021L229.558 281.921" stroke="#4D1F1F" stroke-width="2.41058" stroke-linecap="round" stroke-linejoin="round"/>
<path d="M233.237 306.931H138.508C138.074 306.931 137.641 306.895 137.211 306.827C134.391 306.372 132.021 304.462 130.804 301.875C129.326 298.734 126.37 291.703 124.992 283.229" stroke="#FF5B4D" stroke-width="2.41058" stroke-linecap="round" stroke-linejoin="round"/>
<path d="M228.893 277.046L206.34 272.654C205.749 272.537 205.147 272.481 204.544 272.481C202.592 272.481 200.72 273.076 199.126 274.206L188.092 282.022C185.284 284.009 181.983 285.062 178.54 285.062C175.058 285.062 171.72 283.988 168.888 281.953C165.683 279.648 165.101 279.25 164.996 279.182C163.185 277.987 161.622 277.038 160.188 276.258C155.919 273.933 151.332 273.141 146.479 273.346C141.627 273.547 136.839 275.184 132.875 277.991" stroke="#FFE88C" stroke-width="2.41058" stroke-linecap="round" stroke-linejoin="round"/>
<path d="M229.739 300.484C231.888 300.601 233.567 302.374 233.567 304.53V305.254C233.567 307.491 231.756 309.305 229.523 309.305H138.489C134.44 309.305 130.733 307.04 128.885 303.432L127.812 301.236" stroke="#4D1F1F" stroke-width="2.41058" stroke-linecap="round" stroke-linejoin="round"/>
<path d="M191.398 236.792C207.722 236.792 223.708 243.65 236.421 256.107L242.374 261.939L248.327 256.107C261.035 243.65 277.026 236.792 293.349 236.792" stroke="#FFE88C" stroke-width="2.41058" stroke-linecap="round" stroke-linejoin="round"/>
<path d="M295.702 282.608C290.396 285.612 284.351 287.302 278.258 287.487" stroke="#4D1F1F" stroke-width="2.41058" stroke-linecap="round" stroke-linejoin="round"/>
<path d="M191.312 123.282H228.961" stroke="#4D1F1F" stroke-width="4.01763" stroke-linecap="round" stroke-linejoin="round"/>
<path d="M200.454 81.6777C194.694 93.4708 191.312 107.806 191.312 123.267H206.013" stroke="#00BFE6" stroke-width="4.01763" stroke-linecap="round" stroke-linejoin="round"/>
<path d="M231.741 129.918C235.399 129.918 238.364 126.948 238.364 123.285C238.364 119.622 235.399 116.653 231.741 116.653C228.083 116.653 225.117 119.622 225.117 123.285C225.117 126.948 228.083 129.918 231.741 129.918Z" fill="#4D1F1F" stroke="#4D1F1F" stroke-width="2.41058" stroke-linecap="round" stroke-linejoin="round"/>
<path d="M302.826 21.4014L295.575 29.1039L301.653 32.2251L293.258 39.6902" stroke="#00BFE6" stroke-width="2.41058" stroke-linecap="round" stroke-linejoin="round"/>
<path d="M328.163 46.1484L315.984 48.5457L319.684 54.2049L308.594 57.2537" stroke="#00BFE6" stroke-width="2.41058" stroke-linecap="round" stroke-linejoin="round"/>
<path d="M160.221 167.112L155.328 161.236" stroke="#FFBB99" stroke-width="2.41058" stroke-linecap="round" stroke-linejoin="round"/>
<path d="M143.99 308.896H333.826C334.794 308.896 335.742 309.169 336.565 309.684L365.011 327.486C366.522 328.431 367.442 330.092 367.442 331.874C367.442 334.734 365.128 337.051 362.272 337.051H115.544C112.689 337.051 110.375 334.734 110.375 331.874C110.375 330.088 111.295 328.431 112.805 327.486L141.251 309.684C142.074 309.169 143.022 308.896 143.99 308.896Z" fill="#FBFCF9" stroke="#C4F5F5" stroke-width="2.41058" stroke-linecap="round" stroke-linejoin="round"/>
<path d="M362.827 327.572H114.99C112.267 327.572 110.054 329.941 110.423 332.644C110.439 332.76 110.459 332.881 110.484 332.998C110.986 335.427 113.207 337.112 115.685 337.112H362.136C364.61 337.112 366.835 335.427 367.337 332.998C367.362 332.881 367.382 332.76 367.398 332.644C367.767 329.941 365.554 327.572 362.831 327.572H362.827Z" fill="#C4F5F5" stroke="#C4F5F5" stroke-width="2.41058" stroke-linecap="round" stroke-linejoin="round"/>
<path d="M367.442 331.944C367.442 334.78 365.144 337.081 362.312 337.081H115.504C112.673 337.081 110.375 334.78 110.375 331.944" stroke="#4D1F1F" stroke-width="2.41058" stroke-linecap="round" stroke-linejoin="round"/>
<path d="M115.549 337.109L107.516 341.131H370.391L362.357 337.109H115.549Z" fill="#4D1F1F" stroke="#4D1F1F" stroke-width="2.41058" stroke-linecap="round" stroke-linejoin="round"/>
<path d="M91.1692 335.948C80.2198 341.209 62.1608 342.737 50.8298 339.371C39.4988 336 39.1895 329.006 50.1389 323.744C61.0884 318.483 79.7136 316.955 91.0447 320.322C102.376 323.692 102.119 330.687 91.1692 335.948Z" fill="#4D1F1F" stroke="#4D1F1F" stroke-width="2.41058" stroke-linecap="round" stroke-linejoin="round"/>
<path d="M98.7689 319.819C97.3109 316.722 90.6553 306.067 68.8247 308.436C43.2908 311.212 42.1902 326.082 42.1902 326.082C41.6439 329.271 44.5319 332.26 50.822 334.13C62.153 337.501 80.212 335.968 91.1614 330.707C98.2147 327.321 100.821 323.21 98.7609 319.815L98.7689 319.819Z" fill="#00BFE6" stroke="#00BFE6" stroke-width="2.41058" stroke-linecap="round" stroke-linejoin="round"/>
<path d="M43.0703 322.614C45.7735 317.478 51.3888 315.584 56.9238 315.358C62.4588 315.133 67.9696 317.144 72.4 320.471C76.8304 323.801 80.2767 328.632 82.6746 333.631" stroke="#4D1F1F" stroke-width="2.41058" stroke-linecap="round" stroke-linejoin="round"/>
<path d="M61.7719 315.845C61.7719 315.845 53.5859 321.287 53.5859 334.906" stroke="#4D1F1F" stroke-width="2.41058" stroke-linecap="round" stroke-linejoin="round"/>
<path d="M98.8078 319.793C100.868 323.188 98.2615 327.294 91.2083 330.685C80.2588 335.946 62.1999 337.475 50.8689 334.108C44.5788 332.238 41.6908 329.249 42.2371 326.06C42.2371 326.06 42.3696 324.294 43.2091 322.657" stroke="#4D1F1F" stroke-width="2.41058" stroke-linecap="round" stroke-linejoin="round"/>
<path d="M74.6196 288.139L74.25 278.232" stroke="#00BFE6" stroke-width="2.41058" stroke-linecap="round" stroke-linejoin="round"/>
<path d="M55.6614 292.667L49.7891 283.951" stroke="#00BFE6" stroke-width="2.41058" stroke-linecap="round" stroke-linejoin="round"/>
<path d="M189.713 42.5284L182.25 35.0029" stroke="#4D1F1F" stroke-width="2.41058" stroke-linecap="round" stroke-linejoin="round"/>
<path d="M418.906 350.499C435.544 350.499 449.031 348.248 449.031 345.471C449.031 342.694 435.544 340.443 418.906 340.443C402.269 340.443 388.781 342.694 388.781 345.471C388.781 348.248 402.269 350.499 418.906 350.499Z" fill="#4D1F1F" stroke="#4D1F1F" stroke-width="2.41058" stroke-linecap="round" stroke-linejoin="round"/>
<path d="M388.781 273.113V333.72C388.781 338.498 392.135 342.637 396.815 343.575C401.277 344.463 408.194 345.179 418.906 345.179C429.619 345.179 436.535 344.463 440.998 343.575C445.677 342.641 449.031 338.502 449.031 333.72V273.113H388.781Z" fill="#FBFCF9" stroke="#C4F5F5" stroke-width="2.41058" stroke-linecap="round" stroke-linejoin="round"/>
<path d="M418.906 278.105C435.544 278.105 449.031 275.854 449.031 273.077C449.031 270.3 435.544 268.049 418.906 268.049C402.269 268.049 388.781 270.3 388.781 273.077C388.781 275.854 402.269 278.105 418.906 278.105Z" fill="#4D1F1F" stroke="#C4F5F5" stroke-width="2.41058" stroke-linecap="round" stroke-linejoin="round"/>
<path d="M388.8 285.168V325.39C382.148 325.39 376.75 319.984 376.75 313.324V297.235C376.75 290.574 382.148 285.168 388.8 285.168Z" fill="#FBFCF9" stroke="#C4F5F5" stroke-width="2.41058" stroke-linecap="round" stroke-linejoin="round"/>
<path d="M388.783 293.203V317.336C386.565 317.336 384.766 315.534 384.766 313.314V297.225C384.766 295.005 386.565 293.203 388.783 293.203Z" fill="#C4F5F5" stroke="#C4F5F5" stroke-width="2.41058" stroke-linecap="round" stroke-linejoin="round"/>
<path d="M417.461 289.833C418.377 289.841 419.289 289.841 420.205 289.833" stroke="#FF5C4D" stroke-width="2.41058" stroke-linecap="round" stroke-linejoin="round"/>
<path d="M417.461 297.906C418.377 297.914 419.289 297.914 420.205 297.906" stroke="#FF5C4D" stroke-width="2.41058" stroke-linecap="round" stroke-linejoin="round"/>
<path d="M419.031 289.84V297.885" stroke="#FF5C4D" stroke-width="2.41058" stroke-linecap="round" stroke-linejoin="round"/>
<path d="M426.086 308.114C426.086 305.765 424.463 303.938 422.463 303.983C420.459 304.027 418.836 305.929 418.836 308.278C418.836 305.929 417.213 304.031 415.209 303.983C413.205 303.938 411.586 305.765 411.586 308.114C411.586 309.32 412.02 310.434 412.711 311.235C414.751 313.708 416.796 316.146 418.84 318.543C420.901 316.126 422.965 313.664 425.026 311.166C425.681 310.374 426.086 309.288 426.086 308.114Z" fill="#FF5C4D" stroke="#FF5C4D" stroke-width="2.41058" stroke-linecap="round" stroke-linejoin="round"/>
<path d="M394.688 321.533C396.84 321.859 399.001 322.141 401.162 322.378V323.987" stroke="#FF5C4D" stroke-width="2.41058" stroke-linecap="round" stroke-linejoin="round"/>
<path d="M394.688 329.524C396.84 329.85 399.001 330.132 401.162 330.369V328.759" stroke="#FF5C4D" stroke-width="2.41058" stroke-linecap="round" stroke-linejoin="round"/>
<path d="M395.914 321.709C395.914 324.392 395.914 327.071 395.914 329.753" stroke="#FF5C4D" stroke-width="2.41058" stroke-linecap="round" stroke-linejoin="round"/>
<path d="M396.086 325.758C396.994 325.887 397.902 326.007 398.81 326.124" stroke="#FF5C4D" stroke-width="2.41058" stroke-linecap="round" stroke-linejoin="round"/>
<path d="M405.93 330.867V322.823C407.07 324.79 408.211 326.748 409.352 328.691C410.493 326.881 411.637 325.059 412.778 323.225V331.269" stroke="#FF5C4D" stroke-width="2.41058" stroke-linecap="round" stroke-linejoin="round"/>
<path d="M404.648 330.783C405.56 330.863 406.472 330.935 407.384 331" stroke="#FF5C4D" stroke-width="2.41058" stroke-linecap="round" stroke-linejoin="round"/>
<path d="M411.461 331.224C412.373 331.264 413.289 331.3 414.205 331.324" stroke="#FF5C4D" stroke-width="2.41058" stroke-linecap="round" stroke-linejoin="round"/>
<path d="M417.57 331.399C418.486 331.407 419.398 331.403 420.314 331.399" stroke="#FF5C4D" stroke-width="2.41058" stroke-linecap="round" stroke-linejoin="round"/>
<path d="M423.844 331.32C424.76 331.292 425.672 331.256 426.588 331.212" stroke="#FF5C4D" stroke-width="2.41058" stroke-linecap="round" stroke-linejoin="round"/>
<path d="M418.68 331.399C419.824 328.72 420.965 326.025 422.11 323.322C423.251 325.981 424.395 328.628 425.536 331.262" stroke="#FF5C4D" stroke-width="2.41058" stroke-linecap="round" stroke-linejoin="round"/>
<path d="M420.031 328.173C421.405 328.161 422.775 328.137 424.145 328.089" stroke="#FF5C4D" stroke-width="2.41058" stroke-linecap="round" stroke-linejoin="round"/>
<path d="M430.023 323.006C430.935 322.942 431.847 322.874 432.759 322.793" stroke="#FF5C4D" stroke-width="2.41058" stroke-linecap="round" stroke-linejoin="round"/>
<path d="M430.023 331.08C430.935 331.015 431.847 330.947 432.759 330.867" stroke="#FF5C4D" stroke-width="2.41058" stroke-linecap="round" stroke-linejoin="round"/>
<path d="M431.594 322.891V330.935" stroke="#FF5C4D" stroke-width="2.41058" stroke-linecap="round" stroke-linejoin="round"/>
<path d="M436.016 322.44C436.928 322.344 437.836 322.235 438.743 322.123" stroke="#FF5C4D" stroke-width="2.41058" stroke-linecap="round" stroke-linejoin="round"/>
<path d="M436.016 330.441C438.293 330.196 440.562 329.902 442.832 329.56V327.951" stroke="#FF5C4D" stroke-width="2.41058" stroke-linecap="round" stroke-linejoin="round"/>
<path d="M437.25 322.267V330.311" stroke="#FF5C4D" stroke-width="2.41058" stroke-linecap="round" stroke-linejoin="round"/>
<path d="M426.937 260.314C434.211 257.305 439.81 250.535 441.417 242.821C443.019 235.106 440.581 226.659 435.115 220.991C436.199 226.872 442.22 231.099 448.189 231.063C454.162 231.027 459.729 227.319 463.006 222.323C466.284 217.327 467.505 211.209 467.557 205.228C467.666 191.874 462.01 178.572 452.318 169.401C442.63 160.226 429.045 155.319 415.742 156.179" stroke="#C4F5F5" stroke-width="2.41058" stroke-linecap="round" stroke-linejoin="round"/>
<path d="M232.187 79.3516C230.106 77.2159 227.5 76.0213 224.885 76.0132C222.266 76.0052 219.655 77.1797 217.57 79.3034" stroke="#4D1F1F" stroke-width="2.41058" stroke-linecap="round" stroke-linejoin="round"/>
<path d="M265.109 79.3516C263.028 77.2159 260.421 76.0213 257.807 76.0132C255.188 76.0052 252.577 77.1797 250.492 79.3034" stroke="#4D1F1F" stroke-width="2.41058" stroke-linecap="round" stroke-linejoin="round"/>
<path d="M240.315 81.5371L228.586 87.3411L235.96 98.1005" stroke="#4D1F1F" stroke-width="2.41058" stroke-linecap="round" stroke-linejoin="round"/>
<path d="M224.977 78.3711V81.2268" stroke="#4D1F1F" stroke-width="4.01763" stroke-linecap="round" stroke-linejoin="round"/>
<path d="M257.906 78.3711V81.2268" stroke="#4D1F1F" stroke-width="4.01763" stroke-linecap="round" stroke-linejoin="round"/>
<path d="M193.102 91.0697C200.227 90.4824 206.023 84.7307 209.112 78.2711C212.201 71.8115 213.181 64.5876 214.836 57.6212C216.491 50.6548 219.061 43.5275 224.432 38.7974C224.432 38.7974 210.176 36.7501 198.741 62.295" fill="#4D1F1F"/>
<path d="M193.102 91.0697C200.227 90.4824 206.023 84.7307 209.112 78.2711C212.201 71.8115 213.181 64.5876 214.836 57.6212C216.491 50.6548 219.061 43.5275 224.432 38.7974C224.432 38.7974 210.176 36.7501 198.741 62.295" stroke="#4D1F1F" stroke-width="2.41058" stroke-linecap="round" stroke-linejoin="round"/>
<path d="M223.738 39.0937C216.532 37.9916 208.836 41.1329 204.446 46.9611C201.072 51.4418 199.698 57.0889 198.678 62.6034C197.658 68.1218 196.879 73.781 194.445 78.8329C192.01 83.8847 187.528 88.3453 181.969 89.0533" stroke="#00BFE6" stroke-width="2.41058" stroke-linecap="round" stroke-linejoin="round"/>
<path d="M261.258 39.0937C268.464 37.9916 276.16 41.1329 280.55 46.9611C283.924 51.4418 285.298 57.0889 286.318 62.6034C287.338 68.1218 288.117 73.781 290.551 78.8329C292.985 83.8847 297.468 88.3453 303.027 89.0533" stroke="#00BFE6" stroke-width="2.41058" stroke-linecap="round" stroke-linejoin="round"/>
<path d="M284.524 117.734C282.231 117.734 280.367 115.872 280.367 113.571V80.2753C280.367 77.9786 282.227 76.1123 284.524 76.1123C292.558 76.1123 299.073 82.6363 299.073 90.6807V103.166C299.073 111.21 292.558 117.734 284.524 117.734Z" fill="#C4F5F5" stroke="#4D1F1F" stroke-width="2.41058" stroke-linecap="round" stroke-linejoin="round"/>
<path d="M288.312 112.094V81.6987" stroke="#4D1F1F" stroke-width="2.41058" stroke-linecap="round" stroke-linejoin="round"/>
<path d="M129.352 273.779C135.14 270.022 142.157 268.196 149.041 268.654C152.556 268.888 156.4 270.054 159.352 271.313L167.952 251.697" stroke="#4D1F1F" stroke-width="2.41058" stroke-linecap="round" stroke-linejoin="round"/>
</svg>
