<svg width="221.886719" height="221.884766" viewBox="0 0 221.887 221.885" fill="none" xmlns="http://www.w3.org/2000/svg" xmlns:xlink="http://www.w3.org/1999/xlink">
	<desc>
			Created with Pixso.
	</desc>
	<defs/>
	<path id="Vector" d="M69.18 65.46L59.66 66.19L57.09 67.51L55.51 77.63L53.49 87.65L51.33 97.65L49.13 107.63L46.69 117.56L44.3 127.52L42.15 137.53L39.91 147.53L39.91 149.5L41.81 150.5L53.25 150.29L55.66 148.45L56.43 140.57L58.16 132.58L70.66 132.58L72.38 140.57L73.34 148.41L75.58 150.09L87.03 150.46L88.74 149.35L88.85 147.57L86.71 137.58L84.23 127.64L82.89 117.47L79.79 107.69L78.15 97.59L75.33 87.74L73.28 77.7L71.23 67.66L69.2 65.5L69.18 65.46ZM67.09 117.65L61.02 118.01L63.29 109.85L64.37 101.45L66.32 109.7L67.09 117.65Z" fill="#2D274F" fill-opacity="1.000000" fill-rule="nonzero"/>
	<path id="Vector" d="M109.57 66.31L101.11 65.48L92.66 65.84L90.28 68.04L90.14 78.02L90.63 87.99L90.86 97.97L90.99 107.95L90.22 117.92L90.6 127.92L90.16 137.92L90.28 147.91L92.67 150.01L100.64 150.05L108.6 150.41L117.87 149.02L125.84 144.2L130.56 135.69L131.48 126.02L131.77 116.68L131.37 107.35L132.12 98.01L131.94 88.68L130.71 79.73L126.12 71.99L118.37 67.72L109.63 66.31L109.57 66.31ZM105.81 80.84L109.33 81.39L114.52 82.72L115.82 88.7L115.68 98.31L116.16 107.92L116.4 117.56L116.53 127.19L114.31 133.19L109.33 135.12L106.56 134.95L106.43 124.24L106.13 113.44L106.17 102.63L106.53 91.8L105.79 80.86L105.81 80.84Z" fill="#2D274F" fill-opacity="1.000000" fill-rule="nonzero"/>
	<path id="Vector" d="M165.95 92.84L177.4 92.77L179.87 91.06L179.81 85.47L178.06 78.05L173.49 71.84L166.93 67.14L158.33 64.83L148.85 67.33L141.65 72.2L137.85 80.11L136.89 89.27L139 102.92L150.49 111.42L158.67 114.73L161.87 116.31L162.79 118.04L163.16 120.42L163.39 125.29L163.9 130.03L162.66 132.87L161.3 134.6L157.64 134.81L152.99 133.51L151.88 128.98L151.99 125.39L149.57 123.32L138.15 122.98L136.19 125.39L135.65 129.67L137.32 138.19L141.97 145L148.96 149.55L157.64 150.6L167.75 148.48L174.96 143.36L178 134.92L179.77 125.18L179.32 117.06L177.46 110.2L172.68 105.38L166.08 101.6L157.3 98.16L154.12 96.58L152.76 95.04L152.43 92.92L152.14 89.16L152.48 85.66L153.89 83.37L155.06 81.54L157.88 80.9L162.68 82.63L164.31 88.5L164.31 91.06L165.95 92.84Z" fill="#2D274F" fill-opacity="1.000000" fill-rule="nonzero"/>
	<circle id="Ellipse 16" cx="110.941406" cy="110.942383" r="104.149994" stroke="#FF5553" stroke-opacity="1.000000" stroke-width="13.584782"/>
	<line id="Line 188" x1="34.726562" y1="176.006836" x2="176.007812" y2="34.725586" stroke="#FF5553" stroke-opacity="1.000000" stroke-width="14.490434"/>
</svg>
