<svg width="320.000000" height="320.000000" viewBox="0 0 320 320" fill="none" xmlns="http://www.w3.org/2000/svg" xmlns:xlink="http://www.w3.org/1999/xlink">
	<desc>
			Created with Pixso.
	</desc>
	<defs>
		<clipPath id="clip379_80208">
			<rect id="Background" rx="-1.896184" width="316.207581" height="316.207611" transform="translate(1.896184 1.896184)" fill="white" fill-opacity="0"/>
		</clipPath>
		<clipPath id="clip379_80210">
			<rect id="Outfit" rx="-1.896184" width="316.207611" height="316.207611" transform="translate(1.896184 1.896184)" fill="white" fill-opacity="0"/>
		</clipPath>
		<clipPath id="clip379_80211">
			<rect id="Hair" rx="-1.896184" width="316.207611" height="316.207611" transform="translate(1.896184 1.896184)" fill="white" fill-opacity="0"/>
		</clipPath>
		<clipPath id="clip379_80212">
			<rect id="Eye" rx="-1.896184" width="316.207611" height="316.207611" transform="translate(1.896184 1.896184)" fill="white" fill-opacity="0"/>
		</clipPath>
		<clipPath id="clip379_80214">
			<rect id="Mouth" rx="-1.896184" width="316.207611" height="316.207611" transform="translate(1.896184 1.896184)" fill="white" fill-opacity="0"/>
		</clipPath>
	</defs>
	<rect id="Background" rx="-1.896184" width="316.207581" height="316.207611" transform="translate(1.896184 1.896184)" fill="#FFFFFF" fill-opacity="0"/>
	<g clip-path="url(#clip379_80208)">
		<path id="Vector" d="M320 160C320 248.36 248.36 320 160 320C71.63 320 0 248.36 0 160C0 71.63 71.63 0 160 0C248.36 0 320 71.63 320 160Z" fill="#C4F5F5" fill-opacity="1.000000" fill-rule="evenodd"/>
	</g>
	<path id="Vector" d="M287.56 256.62C258.55 249.46 219.53 240.77 207.81 238.16C205.04 226.63 201.82 211.76 198.59 193.6C191.84 155.33 192.71 135.95 192.71 135.95C192.71 135.95 196.24 134.36 200.03 131.29C202.99 128.9 206.1 125.6 207.85 121.43C211.68 112.36 209.1 104.93 203.1 101.97C197.57 99.24 189.94 105.88 189.94 105.88C189.94 105.88 194.87 69.28 171.06 58.66C147.51 48.16 123.28 54.76 116.22 82.97C102.61 137.24 113.15 166.97 128.51 175.09C133.85 177.9 139.51 177.33 139.51 177.33L139.58 177.25L134.88 238.08C120.39 241.3 63.43 254.01 36.2 261.4C65.55 297.17 110.08 320 159.95 320C209.82 320 258.28 295.08 287.52 256.55L287.56 256.62Z" fill="#FFBB99" fill-opacity="1.000000" fill-rule="nonzero"/>
	<g opacity="0.200000">
		<path id="Vector" d="M139.59 177.33C139.59 177.33 153.69 177.82 169.39 159.35L169.39 173.91C169.39 173.91 157.11 190.79 137.96 198.37L139.59 177.33Z" fill="#4D1F1F" fill-opacity="1.000000" fill-rule="nonzero"/>
	</g>
	<path id="Vector" d="M119.97 132.69L120.05 132.69C120.05 132.69 120.01 132.69 119.97 132.69Z" fill="#4D1F1F" fill-opacity="1.000000" fill-rule="nonzero"/>
	<path id="Vector" d="M119.99 132.69L120.06 132.69C120.06 132.69 120.03 132.69 119.99 132.69Z" fill="#4D1F1F" fill-opacity="1.000000" fill-rule="nonzero"/>
	<path id="Vector" d="M191.32 116.57C191.13 116.57 190.94 116.57 190.75 116.46C189.96 116.15 189.54 115.21 189.88 114.41C191.85 109.44 196.48 108.3 196.67 108.27C197.5 108.08 198.34 108.61 198.57 109.44C198.75 110.28 198.23 111.11 197.39 111.34C197.24 111.34 194.17 112.17 192.8 115.59C192.57 116.19 191.97 116.57 191.32 116.57Z" fill="#4D1F1F" fill-opacity="1.000000" fill-rule="nonzero"/>
	<path id="Vector" d="M128.75 136.06C128.75 136.06 128.59 136.06 128.52 136.06C128.52 136.06 122.07 135.15 120.48 134.74C119.76 134.55 119.41 133.98 119.41 133.98C119.07 133.45 119 132.8 119.19 132.23L127 108.87C127.27 108.04 128.14 107.58 128.97 107.89C129.8 108.15 130.22 109.06 129.96 109.86L122.56 131.97L128.93 132.95C129.8 133.07 130.37 133.9 130.26 134.74C130.15 135.53 129.46 136.06 128.71 136.06L128.75 136.06Z" fill="#4D1F1F" fill-opacity="1.000000" fill-rule="nonzero"/>
	<g clip-path="url(#clip379_80210)">
		<path id="Vector" d="M213.5 239.37C211.34 239.03 209.17 238.69 207.05 238.38C192.64 249.34 164.46 271.26 156.08 271.26C151.87 271.26 130.59 249.57 127.1 239.79C105.94 244.53 59.91 254.96 36.2 261.37C65.55 297.13 109.15 319.77 159.98 320C210.82 320.22 258.46 295.28 287.56 256.59C262.23 250.33 229.23 242.9 213.46 239.37L213.5 239.37Z" fill="#FFFFFF" fill-opacity="1.000000" fill-rule="nonzero"/>
		<path id="Vector" d="M206.57 233.11L156.09 271.23L173.61 288.18C175.58 289.96 178.62 289.73 180.32 287.69L222.08 240.74L206.6 233.11L206.57 233.11Z" fill="#C5E2FF" fill-opacity="1.000000" fill-rule="nonzero"/>
		<path id="Vector" d="M135.08 234.55L156.09 271.23L129.92 283.17C126.96 285.41 122.71 283.48 122.49 279.8L118.39 241.3L135.08 234.55Z" fill="#C5E2FF" fill-opacity="1.000000" fill-rule="nonzero"/>
		<path id="Vector" d="M138.53 279.27C138.53 279.27 149.68 293.75 152.22 295.54C154.76 297.32 168.53 283.32 168.53 283.32L156.05 271.26L138.49 279.27L138.53 279.27Z" fill="#0056D3" fill-opacity="1.000000" fill-rule="nonzero"/>
		<path id="Vector" d="M137.81 318.4C145.09 319.43 152.48 320 160.03 320C160.07 320 160.14 320 160.18 320L158.97 287.68L147.63 287.99L137.81 318.44L137.81 318.4Z" fill="#0056D3" fill-opacity="1.000000" fill-rule="nonzero"/>
		<path id="Vector" d="M196.51 310.97C196.59 311.88 197.3 312.56 198.21 312.56C198.21 312.56 198.29 312.56 198.33 312.56L210.62 311.73C214.41 310.48 218.12 309.07 221.77 307.56L198.1 309.15C197.15 309.23 196.43 310.02 196.51 310.97Z" fill="#4D1F1F" fill-opacity="1.000000" fill-rule="nonzero"/>
	</g>
	<g clip-path="url(#clip379_80211)">
		<path id="Vector" d="M193.43 61.13C193.43 61.13 191.37 55 182.82 51.98C161.62 44.53 142.44 47.99 132.71 51.23C128.24 52.72 121.67 59.73 120.53 67.18C118.43 69.28 112.34 76.64 114.75 89.57C116.11 85.62 117.07 81.02 121.06 73.31C122.04 75.62 123.34 78.22 126.4 80.41C140.33 90.49 166.53 89.26 180.9 85.84C180.9 85.84 175.52 104.24 179.56 116.78C180.22 120.44 184.05 120.93 184.84 119.35C184.84 119.35 185.76 109.06 193.25 104.24C196.27 102.31 199.38 101.57 201.97 101.74L203.72 96C212.31 67.92 202.32 59.29 193.43 61.18L193.43 61.13Z" fill="#4D1F1F" fill-opacity="1.000000" fill-rule="nonzero"/>
	</g>
	<g clip-path="url(#clip379_80212)">
		<path id="Vector" d="M121.99 103.69C122.93 104.63 122.93 106.14 121.99 107.07C121.06 108.01 119.55 108.01 118.61 107.08C117.68 106.14 117.68 104.63 118.61 103.7C119.54 102.76 121.06 102.76 121.99 103.69Z" fill="#4D1F1F" fill-opacity="1.000000" fill-rule="evenodd"/>
		<path id="Vector" d="M143.96 106.84C144.89 107.78 144.89 109.29 143.96 110.22C143.03 111.16 141.52 111.16 140.58 110.22C139.65 109.29 139.65 107.78 140.58 106.84C141.51 105.91 143.03 105.91 143.96 106.84Z" fill="#4D1F1F" fill-opacity="1.000000" fill-rule="evenodd"/>
	</g>
	<g clip-path="url(#clip379_80214)">
		<path id="Vector" d="M132.19 144.64C132.19 144.64 138.23 144.64 146.38 141.6C146.49 141.56 146.64 141.53 146.68 141.68C147.21 143.2 147.93 147.18 144.07 149.11C139.25 151.54 133.86 149.49 132.61 144.71L132.19 144.64Z" fill="#DD2C52" fill-opacity="1.000000" fill-rule="nonzero"/>
		<path id="Vector" d="M146.01 144.94C146.01 144.94 142.41 147.48 134.93 147.18L133.38 145.28L147.03 142.09L146.01 144.94Z" fill="#FFFFFF" fill-opacity="1.000000" fill-rule="nonzero"/>
		<path id="Vector" d="M140.23 151.61C138.53 151.61 136.75 151.2 135.27 150.4C133.44 149.41 132.08 147.9 131.36 146.04C130.83 146.04 130.49 146.04 130.45 146.04C129.62 146.04 128.93 145.36 128.93 144.48C128.93 143.61 129.62 142.97 130.49 142.97C130.49 142.97 138.72 142.97 145.85 140.2L145.85 140.2C146.67 139.87 147.61 140.21 148.05 140.98L148.12 141.11C148.65 142.63 148.88 145.13 147.82 147.29C146.91 149.11 145.28 150.44 142.96 151.2C142.13 151.46 141.18 151.61 140.23 151.61ZM134.7 145.81C135.19 146.57 135.87 147.21 136.75 147.67C138.6 148.66 140.73 148.69 142.02 148.28C143.5 147.78 144.52 147.02 145.05 145.96C145.43 145.17 145.51 144.33 145.47 143.61C141.56 144.94 137.58 145.55 134.7 145.85L134.7 145.81Z" fill="#4D1F1F" fill-opacity="1.000000" fill-rule="nonzero"/>
	</g>
</svg>
