<svg width="542" height="281" viewBox="0 0 542 281" fill="none" xmlns="http://www.w3.org/2000/svg">
<path d="M31.7871 186.577C22.153 186.577 12.5189 185.303 2.95235 182.757C1.80347 182.45 1 181.411 1 180.223V82.5457C1 81.7322 1.37921 80.9599 2.02498 80.4651C2.67076 79.9702 3.51553 79.8016 4.30398 80.0115C22.5397 84.8663 41.0308 84.8663 59.2665 80.0115C60.6707 79.6366 62.1087 80.4726 62.4841 81.8709C62.8596 83.273 62.0261 84.7088 60.6219 85.0837C42.5889 89.886 24.3156 90.1597 6.25634 85.9122V178.191C23.8576 182.54 41.684 182.371 59.2702 177.689C60.6707 177.314 62.1124 178.146 62.4879 179.548C62.8633 180.95 62.0298 182.386 60.6256 182.761C51.0591 185.307 41.425 186.581 31.7909 186.581L31.7871 186.577Z" fill="#C4F5F5"/>
<path d="M62.4856 81.8633C62.861 83.2654 62.0275 84.7012 60.6234 85.0761C42.5904 89.8784 24.3171 90.1521 6.25781 85.9046" stroke="#00BFE6" stroke-width="1.50176" stroke-linecap="round" stroke-linejoin="round"/>
<path d="M62.4841 150.867V179.546C62.8596 180.948 62.0261 182.384 60.6219 182.758C51.0553 185.304 41.4212 186.579 31.7871 186.579C22.153 186.579 12.5189 185.304 2.95235 182.758C1.80347 182.451 1 181.413 1 180.224V82.5469" stroke="#00BFE6" stroke-width="1.50176" stroke-linecap="round" stroke-linejoin="round"/>
<path d="M4.3007 125.707L2.94531 145.981L17.5166 147.368V126.869L4.3007 125.707Z" fill="#C4F5F5"/>
<path d="M6.25781 146.294L17.5214 147.366V126.867" stroke="#00BFE6" stroke-width="1.50176" stroke-linecap="round" stroke-linejoin="round"/>
<path d="M129.172 25.0078V179.211" stroke="#00BFE6" stroke-width="4.50528" stroke-linecap="round" stroke-linejoin="round"/>
<path d="M175.707 187.17V93.9649C175.707 55.8799 154.895 25.0078 129.225 25.0078C103.554 25.0078 82.7422 55.8799 82.7422 93.9649V187.17" stroke="#00BFE6" stroke-width="4.50528" stroke-linecap="round" stroke-linejoin="round"/>
<path d="M129.213 217.7C168.612 217.7 200.551 215.182 200.551 212.076C200.551 208.971 168.612 206.453 129.213 206.453C89.8141 206.453 57.875 208.971 57.875 212.076C57.875 215.182 89.8141 217.7 129.213 217.7Z" fill="#4D1F1F" stroke="#4D1F1F" stroke-width="1.50176" stroke-linecap="round" stroke-linejoin="round"/>
<path d="M57.875 208.33C57.875 211.434 89.8156 213.954 129.213 213.954C168.61 213.954 200.551 211.434 200.551 208.33V189.586H57.875V208.33Z" fill="#C4F5F5" stroke="#00BFE6" stroke-width="1.50176" stroke-linecap="round" stroke-linejoin="round"/>
<path d="M57.875 182.09V189.588C57.875 192.692 89.8156 195.211 129.213 195.211C168.61 195.211 200.551 192.692 200.551 189.588V182.09H57.875Z" fill="#00BFE6"/>
<path d="M129.182 187.712C168.581 187.712 200.52 185.194 200.52 182.088C200.52 178.982 168.581 176.465 129.182 176.465C89.7829 176.465 57.8438 178.982 57.8438 182.088C57.8438 185.194 89.7829 187.712 129.182 187.712Z" fill="#00BFE6"/>
<path d="M199.41 182.133C199.41 185.188 167.987 187.666 129.224 187.666C90.4616 187.666 59.0391 185.188 59.0391 182.133" stroke="#4D1F1F" stroke-width="1.50176" stroke-linecap="round" stroke-linejoin="round"/>
<path d="M57.875 208.332C57.875 211.436 89.8156 213.955 129.213 213.955C168.61 213.955 200.551 211.436 200.551 208.332" stroke="#4D1F1F" stroke-width="1.50176" stroke-linecap="round" stroke-linejoin="round"/>
<path d="M129.177 183.21C159.244 183.21 183.619 182.707 183.619 182.086C183.619 181.464 159.244 180.961 129.177 180.961C99.109 180.961 74.7344 181.464 74.7344 182.086C74.7344 182.707 99.109 183.21 129.177 183.21Z" fill="#4D1F1F" stroke="#4D1F1F" stroke-width="1.50176" stroke-linecap="round" stroke-linejoin="round"/>
<path d="M109.79 170.059V173.41C109.79 174.988 108.739 176.376 107.215 176.803L98.2941 179.307C97.6821 179.48 97.2578 180.038 97.2578 180.675C97.2578 181.459 97.8961 182.096 98.6808 182.096H124.94C125.856 182.096 126.596 181.358 126.596 180.443C126.596 179.675 126.063 179.003 125.312 178.831L124.118 178.557C122.991 178.299 122.192 177.298 122.192 176.143V171.078L109.794 170.062L109.79 170.059Z" fill="#FF5C4D"/>
<path d="M123.456 160.607C121.001 162.553 118.97 164.979 117.483 167.734L115.906 170.651C115.298 171.775 114.119 172.48 112.839 172.48H112.167C110.24 172.48 108.682 170.924 108.682 169.001C108.682 165.507 106.719 162.309 103.602 160.724L90.6719 154.137" fill="#C4F5F5"/>
<path d="M123.456 160.607C121.001 162.553 118.97 164.979 117.483 167.734L115.906 170.651C115.298 171.775 114.119 172.48 112.839 172.48H112.167C110.24 172.48 108.682 170.924 108.682 169.001C108.682 165.507 106.719 162.309 103.602 160.724L90.6719 154.137" stroke="#C4F5F5" stroke-width="1.50176" stroke-linecap="round" stroke-linejoin="round"/>
<path d="M164.643 133.737L161.47 132.391L116.64 113.437C109.615 110.464 101.483 112.184 96.2679 117.748C96.2229 117.793 96.1816 117.842 96.1365 117.887C91.143 123.214 89.8138 131 92.7875 137.744L92.9264 138.059C96.7973 146.839 105.497 152.5 115.105 152.493L138.759 152.47C139.622 152.47 140.486 152.433 141.342 152.369C147.724 151.893 153.811 149.685 158.962 146.044C161.601 144.181 163.997 141.943 166.066 139.368C167.579 137.486 166.873 134.678 164.646 133.733L164.643 133.737Z" fill="#00BFE6" stroke="#00BFE6" stroke-width="1.50176" stroke-linecap="round" stroke-linejoin="round"/>
<path d="M79.5762 123.371C79.5762 123.371 75.2885 130.449 77.0907 141.786C80.8903 147.941 86.7136 152.912 94.0462 155.57L111.11 161.763C114.155 162.869 116.187 165.76 116.187 168.995C116.187 170.918 117.745 172.474 119.671 172.474H120.343C121.623 172.474 122.802 171.773 123.41 170.645L124.987 167.728C126.474 164.973 128.509 162.547 130.961 160.601L141.18 152.492H115.098C78.7427 152.492 79.5762 123.371 79.5762 123.371Z" fill="#FBFCF9" stroke="#C4F5F5" stroke-width="1.50176" stroke-linecap="round" stroke-linejoin="round"/>
<path d="M79.5828 123.369C77.439 118.844 75.9147 114.056 75.4003 109.164C75.0474 110.352 74.6644 111.533 74.2439 112.71L74.0825 113.157C70.5457 123.039 71.9799 133.491 77.0973 141.783C75.2952 130.447 79.5828 123.369 79.5828 123.369Z" fill="#00BFE6" stroke="#00BFE6" stroke-width="1.50176" stroke-linecap="round" stroke-linejoin="round"/>
<path d="M96.2728 117.745C101.488 112.185 109.621 110.465 116.645 113.434L161.476 132.388L122.292 115.751C114.059 112.253 107.39 106.281 103.001 98.9219C85.9739 101.955 80.83 117.325 79.5797 123.368C79.5797 123.368 78.7462 152.49 115.102 152.49H141.186L141.34 152.366C140.484 152.43 139.624 152.467 138.756 152.467L115.11 152.49C105.502 152.497 96.7985 146.836 92.9237 138.057L92.7848 137.742C89.8111 130.994 91.1402 123.207 96.1339 117.884C96.179 117.839 96.2202 117.79 96.2653 117.745H96.2728Z" fill="#00BFE6" stroke="#00BFE6" stroke-width="1.50176" stroke-linecap="round" stroke-linejoin="round"/>
<path d="M105.136 112.543C101.813 113.371 98.7197 115.137 96.268 117.75C96.2229 117.795 96.1816 117.844 96.1365 117.889C91.143 123.216 89.8138 131.003 92.7875 137.747L92.9264 138.062C96.7973 146.842 105.497 152.502 115.105 152.495L138.759 152.472C139.622 152.472 140.486 152.435 141.342 152.371C147.724 151.895 153.811 149.687 158.962 146.047C161.601 144.184 163.997 141.946 166.066 139.37C167.579 137.488 166.873 134.68 164.646 133.735L161.474 132.39" stroke="#4D1F1F" stroke-width="1.50176" stroke-linecap="round" stroke-linejoin="round"/>
<path d="M118.523 102.734L119.744 96.7812" stroke="#4D1F1F" stroke-width="1.50176" stroke-linecap="round" stroke-linejoin="round"/>
<path d="M138.516 112.56L141.902 108.23" stroke="#4D1F1F" stroke-width="1.50176" stroke-linecap="round" stroke-linejoin="round"/>
<path d="M161.465 132.388L122.283 115.751C114.049 112.253 107.381 106.281 102.992 98.9219" stroke="#C4F5F5" stroke-width="1.50176" stroke-linecap="round" stroke-linejoin="round"/>
<path d="M102.994 98.9264C99.2694 92.6845 97.1857 87.0199 97.1857 79.4434V77.8651C97.1857 77.8651 97.6324 68.2305 88.5202 68.2305C86.4327 68.2305 84.3715 68.8116 82.5618 69.8538H82.558C79.8285 71.4283 78.1464 74.3337 78.1464 77.479C78.1464 81.033 78.1427 85.929 78.1389 90.3939C78.1352 96.7333 77.2153 103.031 75.3906 109.168C75.905 114.061 77.4331 118.848 79.5732 123.373C80.8234 117.326 85.9671 101.959 102.994 98.9264Z" fill="#4D1F1F" stroke="#4D1F1F" stroke-width="1.50176" stroke-linecap="round" stroke-linejoin="round"/>
<path d="M74.5382 93.2488C73.945 82.3396 75.6684 77.8671 82.5617 73.8633C82.5617 73.8633 85.8994 79.7078 85.8994 87.1006L84.4314 85.916C81.7957 83.7866 77.846 84.8288 76.607 87.9816L74.542 93.2488H74.5382Z" fill="#4D1F1F" stroke="#4D1F1F" stroke-width="1.50176" stroke-linecap="round" stroke-linejoin="round"/>
<path d="M75.1797 83.6517V78.8419C75.1797 77.9946 76.092 77.3086 77.2184 77.3086C78.2659 77.3086 78.9455 78.1446 78.4649 78.8456L75.1797 83.6517Z" fill="#FF5C4D" stroke="#FF5C4D" stroke-width="1.50176" stroke-linecap="round" stroke-linejoin="round"/>
<path d="M74.5391 93.2446L75.917 89.7319C77.4939 85.7093 82.5325 84.3785 85.8965 87.0964C85.8852 84.9146 84.6049 82.6952 82.5888 81.8555" stroke="#00BFE6" stroke-width="1.50176" stroke-linecap="round" stroke-linejoin="round"/>
<path d="M90.6677 79.7678C92.3265 79.7678 93.6713 78.425 93.6713 76.7686C93.6713 75.1123 92.3265 73.7695 90.6677 73.7695C89.0088 73.7695 87.6641 75.1123 87.6641 76.7686C87.6641 78.425 89.0088 79.7678 90.6677 79.7678Z" stroke="#C4F5F5" stroke-width="1.50176" stroke-linecap="round" stroke-linejoin="round"/>
<path d="M180.887 136.976L161.465 132.391L164.637 133.736C166.864 134.681 167.57 137.485 166.057 139.371C163.988 141.943 161.593 144.185 158.953 146.048H168.553C173.461 146.048 178.203 144.271 181.897 141.047C183.343 139.783 182.757 137.418 180.887 136.976Z" fill="#4D1F1F" stroke="#4D1F1F" stroke-width="1.50176" stroke-linecap="round" stroke-linejoin="round"/>
<path d="M137.217 143.738C141.305 138.433 144.061 132.124 145.248 125.537L134.581 121.027C133.425 127.712 130.646 134.115 126.505 139.494C122.338 144.904 116.803 149.249 110.586 152.076C112.054 152.353 113.563 152.496 115.095 152.496L128.029 152.484C131.51 150.051 134.63 147.101 137.221 143.738H137.217Z" fill="#4D1F1F" stroke="#4D1F1F" stroke-width="1.50176" stroke-linecap="round" stroke-linejoin="round"/>
<path d="M116.173 173.414C116.173 174.992 115.122 176.379 113.598 176.807L104.677 179.311C104.065 179.484 103.641 180.042 103.641 180.679C103.641 181.463 104.279 182.1 105.064 182.1" stroke="#4D1F1F" stroke-width="1.50176" stroke-linecap="round" stroke-linejoin="round"/>
<path d="M97.2578 182.09H126.393" stroke="#4D1F1F" stroke-width="1.50176" stroke-linecap="round" stroke-linejoin="round"/>
<path d="M129.22 0C122.935 0 117.836 5.08727 117.836 11.3667C117.836 17.6461 122.931 22.7333 129.22 22.7333C135.508 22.7333 140.603 17.6461 140.603 11.3667C140.603 5.08727 135.508 0 129.22 0ZM129.22 17.05C126.077 17.05 123.528 14.5045 123.528 11.3667C123.528 8.22884 126.077 5.68333 129.22 5.68333C132.362 5.68333 134.912 8.22884 134.912 11.3667C134.912 14.5045 132.362 17.05 129.22 17.05Z" fill="#C4F5F5"/>
<path d="M117.844 11.3672C117.844 17.6428 122.939 22.7338 129.227 22.7338C135.516 22.7338 140.611 17.6466 140.611 11.3672" stroke="#00BFE6" stroke-width="1.50176" stroke-linecap="round" stroke-linejoin="round"/>
<path d="M123.531 11.3708C123.531 8.23301 126.081 5.6875 129.223 5.6875C132.366 5.6875 134.915 8.23301 134.915 11.3708" stroke="#00BFE6" stroke-width="1.50176" stroke-linecap="round" stroke-linejoin="round"/>
<path d="M198.284 190.186C197.026 190.186 196.008 189.166 196.008 187.914V93.9594C196.008 57.1903 166.05 27.2779 129.225 27.2779C92.3994 27.2779 62.4412 57.1903 62.4412 93.9594V187.914C62.4412 189.17 61.42 190.186 60.1659 190.186C58.9119 190.186 57.8906 189.166 57.8906 187.914V93.9594C57.8906 54.6823 89.8913 22.7305 129.229 22.7305C168.566 22.7305 200.567 54.6823 200.567 93.9594V187.914C200.567 189.17 199.545 190.186 198.291 190.186H198.284Z" fill="#C4F5F5"/>
<path d="M200.559 187.918C200.559 189.173 199.538 190.189 198.284 190.189C197.03 190.189 196.008 189.17 196.008 187.918V93.9628C196.008 57.1937 166.05 27.2812 129.225 27.2812C92.3994 27.2812 62.4412 57.1937 62.4412 93.9628V187.918C62.4412 189.173 61.42 190.189 60.1659 190.189C58.9119 190.189 57.8906 189.17 57.8906 187.918" stroke="#00BFE6" stroke-width="1.50176" stroke-linecap="round" stroke-linejoin="round"/>
<path d="M155.781 193.916C154.523 193.916 153.506 192.897 153.506 191.644V93.9633C153.506 75.8149 150.795 58.7912 145.876 46.0187C141.288 34.1085 135.217 27.278 129.221 27.278C123.225 27.278 117.151 34.1085 112.562 46.0187C107.644 58.7875 104.933 75.8149 104.933 93.9633V191.644C104.933 192.9 103.912 193.916 102.658 193.916C101.404 193.916 100.383 192.897 100.383 191.644V93.9633C100.383 75.2713 103.199 57.6665 108.312 44.388C113.693 30.4234 121.115 22.7344 129.218 22.7344C137.32 22.7344 144.746 30.4234 150.123 44.388C155.236 57.6665 158.052 75.2713 158.052 93.9633V191.644C158.052 192.9 157.031 193.916 155.777 193.916H155.781Z" fill="#C4F5F5"/>
<path d="M158.056 191.644C158.056 192.9 157.035 193.916 155.781 193.916C154.527 193.916 153.506 192.896 153.506 191.644V93.9626C153.506 75.8142 150.795 58.7905 145.876 46.0181C141.288 34.1078 135.217 27.2773 129.221 27.2773C123.225 27.2773 117.151 34.1078 112.562 46.0181C107.644 58.7868 104.933 75.8142 104.933 93.9626V191.644C104.933 192.9 103.912 193.916 102.658 193.916C101.404 193.916 100.383 192.896 100.383 191.644" stroke="#00BFE6" stroke-width="1.50176" stroke-linecap="round" stroke-linejoin="round"/>
<path d="M103.463 13.276L100.719 5.05469" stroke="#00BFE6" stroke-width="1.50176" stroke-linecap="round" stroke-linejoin="round"/>
<path d="M91.5594 19.3662L86.0703 12.3633" stroke="#00BFE6" stroke-width="1.50176" stroke-linecap="round" stroke-linejoin="round"/>
<path d="M81.0936 47.0238C76.9449 47.4062 75.2366 47.0388 75.0939 45.4868C74.9249 43.6723 76.4192 42.8588 78.0337 42.1878C79.5505 41.6292 80.7031 41.0556 80.5905 39.8635C80.4966 38.8288 79.727 38.4276 78.3265 38.5589C75.6796 38.8025 74.6283 40.9881 71.2042 41.303C67.3671 41.6554 65.9328 39.751 65.6625 36.7968C65.1707 31.4622 69.4921 28.9729 79.971 28.0095C90.3448 27.0535 94.2269 30.5625 94.6512 35.1736C95.0567 39.5748 93.4047 40.9281 89.9731 42.289C87.9569 43.1025 87.5514 43.8185 87.2623 44.6808C86.8869 45.708 86.3875 46.5365 81.0974 47.0238H81.0936ZM74.3805 55.4813C74.0088 51.4363 76.5657 49.3444 81.3752 48.902C86.1885 48.4597 89.1246 50.0454 89.4963 54.0905C89.8492 57.9331 87.221 59.2265 82.3664 59.6726C77.5118 60.1187 74.7259 59.2864 74.3768 55.4813H74.3805Z" fill="#FF5C4D"/>
<path d="M183.49 244.79L136.88 229.277L33.3047 244.79L75.2026 258.736C78.3002 259.767 81.5968 260.052 84.8257 259.568L183.49 244.79Z" fill="#4D1F1F" stroke="#4D1F1F" stroke-width="1.50176" stroke-linecap="round" stroke-linejoin="round"/>
<path d="M36.8453 240.796L75.2026 253.561C78.3002 254.592 81.5968 254.877 84.8257 254.393L179.078 240.279C181.613 239.9 183.49 237.726 183.49 235.165V212.319C183.49 210.093 182.063 208.117 179.949 207.412L141.592 194.647C138.494 193.616 135.198 193.331 131.969 193.815L37.7164 207.929C35.182 208.308 33.3047 210.482 33.3047 213.043V235.889C33.3047 238.116 34.7314 240.091 36.8453 240.796Z" fill="#FFBB99"/>
<path d="M179.593 211.246L84.822 225.439C81.5931 225.923 78.2965 225.638 75.1989 224.607L37.5625 212.082" stroke="#FF5C4D" stroke-width="1.50176" stroke-linecap="round" stroke-linejoin="round"/>
<path d="M33.3047 235.892C33.3047 238.118 34.7314 240.094 36.8453 240.799L75.2026 253.564C78.3002 254.595 81.5968 254.88 84.8257 254.396L179.078 240.281C181.613 239.903 183.49 237.728 183.49 235.168" stroke="#FF5C4D" stroke-width="1.50176" stroke-linecap="round" stroke-linejoin="round"/>
<path d="M79.8594 229.277V250.721" stroke="#FF5C4D" stroke-width="1.50176" stroke-linecap="round" stroke-linejoin="round"/>
<path d="M104.026 198L57.5859 204.954L77.4061 211.552L123.906 204.587L104.026 198Z" fill="#FBFCF9"/>
<path d="M77.4062 211.555L90.2655 215.837L134.659 209.186C135.2 209.104 135.263 208.354 134.745 208.185L123.906 204.594L77.4062 211.559V211.555Z" fill="#FF5C4D"/>
<path d="M57.5859 204.953L90.2662 215.829L134.56 209.197" stroke="#FF5C4D" stroke-width="1.50176" stroke-linecap="round" stroke-linejoin="round"/>
<path d="M442.366 206.943C463.102 206.943 479.912 205.265 479.912 203.194C479.912 201.124 463.102 199.445 442.366 199.445C421.63 199.445 404.82 201.124 404.82 203.194C404.82 205.265 421.63 206.943 442.366 206.943Z" fill="#4D1F1F" stroke="#4D1F1F" stroke-width="1.50176" stroke-linecap="round" stroke-linejoin="round"/>
<path d="M472.403 173.207H412.329L404.82 191.951V199.449C404.82 201.519 421.63 203.198 442.366 203.198C463.103 203.198 479.912 201.519 479.912 199.449V191.951L472.403 173.207Z" fill="#FFE88C"/>
<path d="M442.366 195.698C421.63 195.698 404.82 194.019 404.82 191.949V199.447C404.82 201.516 421.63 203.196 442.366 203.196C463.103 203.196 479.912 201.516 479.912 199.447V191.949C479.912 194.019 463.103 195.698 442.366 195.698Z" fill="#FFBB99"/>
<path d="M442.372 176.205C458.961 176.205 472.408 174.863 472.408 173.206C472.408 171.55 458.961 170.207 442.372 170.207C425.784 170.207 412.336 171.55 412.336 173.206C412.336 174.863 425.784 176.205 442.372 176.205Z" fill="#FF5C4D"/>
<path d="M412.336 173.205L413.575 172.834C415.069 172.388 416.09 171.012 416.09 169.456C416.09 167.9 415.065 166.524 413.575 166.078L412.336 165.707H472.408L471.169 166.078C469.675 166.524 468.654 167.9 468.654 169.456C468.654 171.012 469.679 172.388 471.169 172.834L472.408 173.205" fill="#FF5C4D"/>
<path d="M427.347 199.449V191.951L430.351 173.207C430.351 172.764 430.742 172.341 431.436 171.962C431.699 171.314 431.853 170.421 431.853 169.458C431.853 168.494 431.695 167.598 431.436 166.954C430.742 166.575 430.351 166.155 430.351 165.709V161.96C430.351 160.318 435.641 158.983 442.2 158.961C425.688 158.968 412.329 160.311 412.329 161.96V165.709C412.329 166.151 413.302 166.575 415.036 166.954C415.69 167.602 416.084 168.494 416.084 169.458C416.084 170.421 415.69 171.317 415.036 171.962C413.302 172.341 412.329 172.761 412.329 173.207L404.82 191.951V199.449C404.82 201.507 421.408 203.175 441.953 203.198C433.85 203.142 427.347 201.488 427.347 199.453V199.449Z" fill="#FF5C4D" stroke="#FF5C4D" stroke-width="1.50176" stroke-linecap="round" stroke-linejoin="round"/>
<path d="M412.336 165.706C412.336 167.363 425.785 168.705 442.372 168.705C458.96 168.705 472.408 167.363 472.408 165.706V161.957H412.336V165.706Z" fill="#FFBB99"/>
<path d="M442.372 164.959C458.961 164.959 472.408 163.616 472.408 161.96C472.408 160.304 458.961 158.961 442.372 158.961C425.784 158.961 412.336 160.304 412.336 161.96C412.336 163.616 425.784 164.959 442.372 164.959Z" fill="#FFE88C"/>
<path d="M479.912 191.949C479.912 194.019 463.103 195.698 442.366 195.698C421.63 195.698 404.82 194.019 404.82 191.949" stroke="#FFE88C" stroke-width="1.50176" stroke-linecap="round" stroke-linejoin="round"/>
<path d="M472.408 173.207C472.408 174.864 458.96 176.206 442.372 176.206C425.785 176.206 412.336 174.864 412.336 173.207" stroke="#FFE88C" stroke-width="1.50176" stroke-linecap="round" stroke-linejoin="round"/>
<path d="M472.403 173.207C472.403 172.764 471.43 172.341 469.696 171.962C469.042 171.314 468.648 170.421 468.648 169.458C468.648 168.494 469.042 167.598 469.696 166.954C471.43 166.575 472.403 166.155 472.403 165.709V161.96C472.403 160.303 458.954 158.961 442.366 158.961C425.778 158.961 412.329 160.303 412.329 161.96V165.709C412.329 166.151 413.302 166.575 415.037 166.954C415.69 167.602 416.084 168.494 416.084 169.458C416.084 170.421 415.69 171.317 415.037 171.962C413.302 172.341 412.329 172.761 412.329 173.207L404.82 191.951V199.449C404.82 201.518 421.63 203.198 442.366 203.198C463.103 203.198 479.912 201.518 479.912 199.449V191.951L472.403 173.207Z" stroke="#FFBB99" stroke-width="1.50176" stroke-linecap="round" stroke-linejoin="round"/>
<path d="M412.336 165.707C412.336 167.364 425.785 168.706 442.372 168.706C458.96 168.706 472.408 167.364 472.408 165.707" stroke="#FF5C4D" stroke-width="1.50176" stroke-linecap="round" stroke-linejoin="round"/>
<path d="M476.156 135.715C468.899 135.715 463.016 141.589 463.016 148.836C463.016 156.083 468.899 161.957 476.156 161.957C483.414 161.957 489.297 156.083 489.297 148.836C489.297 141.589 483.414 135.715 476.156 135.715ZM476.156 156.334C472.008 156.334 468.647 152.978 468.647 148.836C468.647 144.693 472.008 141.338 476.156 141.338C480.305 141.338 483.666 144.693 483.666 148.836C483.666 152.978 480.305 156.334 476.156 156.334Z" fill="#FFE88C" stroke="#FFBB99" stroke-width="1.50176" stroke-linecap="round" stroke-linejoin="round"/>
<path d="M442.372 161.957H412.336V163.082H442.372V161.957Z" stroke="#FF5C4D" stroke-width="1.50176" stroke-linecap="round" stroke-linejoin="round"/>
<path d="M412.329 161.957V165.706C412.329 166.148 413.302 166.572 415.037 166.951C415.69 167.599 416.084 168.491 416.084 169.455C416.084 171.011 415.059 172.386 413.569 172.833L412.329 173.204L404.82 191.948V199.446C404.82 201.515 421.63 203.195 442.366 203.195C463.103 203.195 479.912 201.515 479.912 199.446" stroke="#4D1F1F" stroke-width="1.50176" stroke-linecap="round" stroke-linejoin="round"/>
<path d="M447.621 64.4883H437.109C433.79 64.4883 431.102 67.1725 431.102 70.4865V160.389C431.102 161.483 431.89 162.428 432.971 162.604C434.503 162.855 437.293 163.084 442.365 163.084C447.438 163.084 450.227 162.855 451.759 162.604C452.84 162.428 453.629 161.483 453.629 160.389V70.4865C453.629 67.1725 450.94 64.4883 447.621 64.4883Z" fill="#FBFCF9" stroke="#C4F5F5" stroke-width="1.50176" stroke-linecap="round" stroke-linejoin="round"/>
<path d="M431.117 71.9844V160.387C431.117 161.482 431.906 162.426 432.987 162.603C434.519 162.854 437.308 163.082 442.381 163.082C447.453 163.082 450.243 162.854 451.775 162.603C452.856 162.426 453.644 161.482 453.644 160.387V159.187" stroke="#00BFE6" stroke-width="1.50176" stroke-linecap="round" stroke-linejoin="round"/>
<path d="M451.591 209.125L341.242 213.286C341.242 214.411 341.948 215.416 343.007 215.798L428.293 246.621L538.785 239.892L451.587 209.125H451.591Z" fill="#4D1F1F" stroke="#4D1F1F" stroke-width="1.50176" stroke-linecap="round" stroke-linejoin="round"/>
<path d="M345.489 212.742C344.069 212.817 342.65 212.997 341.242 213.29L345.489 212.742Z" fill="#FBFCF9" stroke="#4D1F1F" stroke-width="1.50176" stroke-linecap="round" stroke-linejoin="round"/>
<path d="M431.649 218.891C431.503 218.325 431.327 217.766 431.105 217.226C429.216 212.623 424.088 209.627 419.154 210.047L473.844 210.501C466.38 207.119 457.538 206.174 450.13 206.767L345.484 212.746C352.967 212.341 360.544 214.759 367.314 218.152C375.367 222.19 382.666 227.588 390.634 231.794C398.601 236.001 407.62 239.034 416.541 237.755C416.725 237.729 416.909 237.699 417.089 237.669C421.452 236.968 425.74 235.337 428.71 231.944C431.616 228.623 432.75 223.539 431.709 219.138C431.691 219.056 431.664 218.973 431.646 218.891H431.649Z" fill="#FBFCF9" stroke="#C4F5F5" stroke-width="1.50176" stroke-linecap="round" stroke-linejoin="round"/>
<path d="M540.006 210.699C538.001 205.803 532.327 202.729 527.12 203.64L419.163 210.043C424.096 209.623 429.225 212.619 431.114 217.222C431.335 217.758 431.512 218.317 431.658 218.887C431.681 218.969 431.703 219.052 431.722 219.134C432.762 223.535 431.628 228.623 428.722 231.94C425.752 235.337 421.461 236.964 417.102 237.665L524.109 231.382C524.555 231.341 524.998 231.288 525.445 231.224C529.996 230.572 534.52 228.949 537.618 225.414C540.956 221.601 541.958 215.453 540.009 210.695L540.006 210.699Z" fill="#FBFCF9" stroke="#C4F5F5" stroke-width="1.50176" stroke-linecap="round" stroke-linejoin="round"/>
<path d="M431.687 218.883C431.541 218.317 431.364 217.758 431.143 217.218C429.254 212.615 424.125 209.619 419.192 210.039C418.741 210.077 418.291 210.14 417.844 210.238C412.531 211.393 408.439 216.678 408.657 222.103L432.036 220.806C432.017 220.723 431.706 218.965 431.683 218.883H431.687Z" fill="#C4F5F5" stroke="#C4F5F5" stroke-width="1.50176" stroke-linecap="round" stroke-linejoin="round"/>
<path d="M537.636 225.411C534.539 228.95 530.014 230.573 525.464 231.222C525.017 231.285 524.574 231.334 524.127 231.379C524.127 231.379 416.752 237.722 416.572 237.748C407.651 239.027 398.632 235.994 390.665 231.788C382.698 227.581 375.399 222.183 367.345 218.145C360.575 214.753 352.999 212.335 345.516 212.74" stroke="#4D1F1F" stroke-width="1.50176" stroke-linecap="round" stroke-linejoin="round"/>
<path d="M419.186 210.039C424.12 209.619 429.248 212.615 431.137 217.218C431.358 217.754 431.535 218.313 431.681 218.883C431.704 218.965 431.726 219.048 431.745 219.13C432.785 223.531 431.651 228.619 428.745 231.936C425.775 235.333 421.484 236.96 417.125 237.661" stroke="#4D1F1F" stroke-width="1.50176" stroke-linecap="round" stroke-linejoin="round"/>
<path d="M419.192 210.035C418.741 210.073 418.291 210.136 417.844 210.234C412.531 211.389 408.439 216.674 408.657 222.099" stroke="#4D1F1F" stroke-width="1.50176" stroke-linecap="round" stroke-linejoin="round"/>
<path d="M453.286 79.4834C452.261 79.4834 451.428 78.6587 451.416 77.6352L451.367 71.9856H446.513C445.48 71.9856 444.643 72.8216 444.643 73.8526V73.8676C444.643 74.8985 443.806 75.7345 442.773 75.7345H442.758C441.726 75.7345 440.889 76.5705 440.889 77.6015V88.8631C440.889 89.8941 440.051 90.7301 439.019 90.7301H439.004C437.971 90.7301 437.134 89.8941 437.134 88.8631V73.8526C437.134 72.8216 436.297 71.9856 435.264 71.9856H433.38V81.3654C433.38 82.3963 432.542 83.2323 431.51 83.2323H431.495C430.462 83.2323 429.625 82.3963 429.625 81.3654V70.4861C429.625 66.3435 432.985 62.9883 437.134 62.9883H447.647C451.795 62.9883 455.156 66.3435 455.156 70.4861V77.6165C455.156 78.6474 454.319 79.4834 453.286 79.4834Z" fill="#FBFCF9" stroke="#C4F5F5" stroke-width="1.50176" stroke-linecap="round" stroke-linejoin="round"/>
<path d="M440.902 88.8658C440.902 89.8967 440.065 90.7327 439.033 90.7327H439.018C437.985 90.7327 437.148 89.8967 437.148 88.8658V73.8552C437.148 72.8243 436.311 71.9883 435.278 71.9883H433.393V81.368C433.393 82.399 432.556 83.235 431.524 83.235H431.141V85.7992" stroke="#00BFE6" stroke-width="1.50176" stroke-linecap="round" stroke-linejoin="round"/>
<path d="M453.296 79.4861C452.271 79.4861 451.437 78.6613 451.426 77.6379L451.377 71.9883H446.523C445.49 71.9883 444.653 72.8243 444.653 73.8552V73.8702C444.653 74.9012 443.816 75.7372 442.783 75.7372H442.768C441.736 75.7372 440.898 76.5732 440.898 77.6041" stroke="#00BFE6" stroke-width="1.50176" stroke-linecap="round" stroke-linejoin="round"/>
<path d="M448.339 49.4432C447.325 45.5781 444.321 42.3615 440.645 40.8282C440.3 40.6858 440.026 41.1319 440.304 41.3831C441.051 42.0579 441.625 42.9164 441.881 43.8873C442.47 46.1329 441.562 48.461 440.544 50.4366C439.673 52.1274 438.716 53.8219 438.393 55.6551C437.83 58.8454 439.437 62.2194 442.376 64.0301C447.156 61.2147 449.746 54.8041 448.339 49.4469V49.4432Z" fill="#FF5C4D" stroke="#FF5C4D" stroke-width="1.50176" stroke-linecap="round" stroke-linejoin="round"/>
<path d="M442.479 62.2176C442.479 62.2176 437.38 56.7854 443.65 51.3945C443.65 51.3945 448.775 56.8042 442.479 62.2176Z" fill="#FFE88C" stroke="#FFE88C" stroke-width="1.50176" stroke-linecap="round" stroke-linejoin="round"/>
<path d="M443.511 44.4023C445.145 45.8832 446.354 47.7801 446.89 49.8232C448.062 54.2769 446.109 59.5291 442.411 62.2171C442.411 62.2171 437.681 56.6612 443.65 51.394" stroke="#FFE88C" stroke-width="1.50176" stroke-linecap="round" stroke-linejoin="round"/>
<path d="M437.436 36.9134C437.234 36.812 437.031 36.7068 436.828 36.6055" stroke="#FF5C4D" stroke-width="1.50176" stroke-linecap="round" stroke-linejoin="round"/>
<path d="M451.242 56.9297C451.377 56.5585 451.512 56.1874 451.648 55.8125" stroke="#FF5C4D" stroke-width="1.50176" stroke-linecap="round" stroke-linejoin="round"/>
<path d="M442.373 64.0224C442.373 64.0224 441.788 59.6325 442.415 56.9258" stroke="#FF5C4D" stroke-width="1.50176" stroke-linecap="round" stroke-linejoin="round"/>
<path d="M342.283 230.918C336.152 228.879 332.014 223.147 332.014 216.691V197.508H241.903V216.691C241.903 223.147 237.765 228.875 231.634 230.918L222.36 234.003C220.576 234.596 219.375 236.26 219.375 238.138C219.375 240.545 221.327 242.495 223.738 242.495H350.175C352.586 242.495 354.538 240.545 354.538 238.138C354.538 236.264 353.336 234.599 351.553 234.003L342.279 230.918H342.283Z" fill="#00BFE6" stroke="#00BFE6" stroke-width="1.50176" stroke-linecap="round" stroke-linejoin="round"/>
<path d="M407.112 25.0664H166.815C158.521 25.0664 151.797 31.7801 151.797 40.062V182.52C151.797 190.802 158.521 197.515 166.815 197.515H407.112C415.406 197.515 422.13 190.802 422.13 182.52V40.062C422.13 31.7801 415.406 25.0664 407.112 25.0664Z" fill="#4D1F1F" stroke="#4D1F1F" stroke-width="1.50176" stroke-linecap="round" stroke-linejoin="round"/>
<path d="M407.118 32.5625H166.822C162.675 32.5625 159.312 35.9194 159.312 40.0603V182.518C159.312 186.659 162.675 190.016 166.822 190.016H407.118C411.265 190.016 414.627 186.659 414.627 182.518V40.0603C414.627 35.9194 411.265 32.5625 407.118 32.5625Z" fill="#FBFCF9" stroke="#4D1F1F" stroke-width="1.50176" stroke-linecap="round" stroke-linejoin="round"/>
<path d="M332.017 197.516H241.906V208.762H332.017V197.516Z" fill="#4D1F1F" stroke="#4D1F1F" stroke-width="1.50176" stroke-linecap="round" stroke-linejoin="round"/>
<path d="M166.822 32.5625C162.673 32.5625 159.312 35.9178 159.312 40.0603V182.518C159.312 186.661 162.673 190.016 166.822 190.016H241.914V32.5625H166.822Z" fill="#FFE88C"/>
<path d="M407.118 32.5625H166.822C162.675 32.5625 159.312 35.9194 159.312 40.0603V182.518C159.312 186.659 162.675 190.016 166.822 190.016H407.118C411.265 190.016 414.627 186.659 414.627 182.518V40.0603C414.627 35.9194 411.265 32.5625 407.118 32.5625Z" stroke="#4D1F1F" stroke-width="1.50176" stroke-linecap="round" stroke-linejoin="round"/>
<path d="M342.286 230.918C338.55 229.673 335.558 227.06 333.79 223.75H240.138C238.366 227.06 235.373 229.673 231.641 230.918L222.367 234.003H351.568L342.294 230.918H342.286Z" fill="#C4F5F5" stroke="#C4F5F5" stroke-width="1.50176" stroke-linecap="round" stroke-linejoin="round"/>
<path d="M243.414 197.516H330.522" stroke="#00BFE6" stroke-width="1.50176" stroke-linecap="round" stroke-linejoin="round"/>
<path d="M219.375 238.141C219.375 240.547 221.327 242.497 223.738 242.497H350.175C352.586 242.497 354.538 240.547 354.538 238.141" stroke="#4D1F1F" stroke-width="1.50176" stroke-linecap="round" stroke-linejoin="round"/>
<path d="M223.75 242.5L217.742 244.749H356.198L350.191 242.5H223.75Z" fill="#4D1F1F" stroke="#4D1F1F" stroke-width="1.50176" stroke-linecap="round" stroke-linejoin="round"/>
<path d="M188.906 176.535L189.815 175.612C189.954 175.77 190.078 175.897 190.187 175.999C190.295 176.1 190.431 176.209 190.592 176.321C190.753 176.433 190.926 176.516 191.118 176.572C191.305 176.628 191.512 176.658 191.726 176.658C192.154 176.658 192.477 176.55 192.691 176.336C192.905 176.122 193.014 175.875 193.014 175.59C193.014 175.425 192.972 175.275 192.886 175.14C192.803 175.005 192.687 174.893 192.548 174.799C192.405 174.705 192.244 174.619 192.056 174.537C191.869 174.454 191.677 174.375 191.474 174.297C191.272 174.218 191.069 174.132 190.862 174.042C190.66 173.952 190.461 173.843 190.277 173.719C190.089 173.592 189.924 173.453 189.781 173.299C189.638 173.146 189.526 172.954 189.439 172.722C189.353 172.49 189.312 172.235 189.312 171.954C189.312 171.238 189.56 170.675 190.051 170.259C190.543 169.847 191.181 169.637 191.966 169.637C192.751 169.637 193.453 169.892 194.159 170.398L193.412 171.507C192.98 171.133 192.477 170.945 191.899 170.945C191.538 170.945 191.26 171.02 191.061 171.174C190.862 171.327 190.761 171.537 190.761 171.811C190.761 172.029 190.829 172.216 190.967 172.373C191.103 172.535 191.279 172.662 191.497 172.763C191.715 172.865 191.955 172.962 192.218 173.059C192.481 173.157 192.743 173.266 193.006 173.393C193.269 173.521 193.509 173.667 193.723 173.836C193.941 174.004 194.118 174.233 194.253 174.522C194.388 174.81 194.459 175.148 194.459 175.534C194.459 176.272 194.223 176.865 193.75 177.307C193.277 177.749 192.597 177.97 191.715 177.97C191.365 177.97 191.039 177.933 190.742 177.858C190.446 177.783 190.13 177.637 189.804 177.416C189.477 177.194 189.177 176.906 188.906 176.538V176.535Z" fill="#FF5C4D"/>
<path d="M195.008 175.262C195.008 174.512 195.278 173.871 195.823 173.35C196.363 172.825 197.024 172.562 197.797 172.562C198.308 172.562 198.777 172.682 199.209 172.922C199.637 173.162 199.975 173.488 200.223 173.905C200.471 174.321 200.591 174.774 200.591 175.265C200.591 175.757 200.467 176.206 200.223 176.623C199.975 177.039 199.637 177.369 199.209 177.608C198.781 177.852 198.308 177.972 197.797 177.972C197.287 177.972 196.821 177.852 196.393 177.608C195.965 177.365 195.627 177.039 195.38 176.623C195.132 176.206 195.008 175.757 195.008 175.265V175.262ZM196.344 175.262C196.344 175.648 196.487 175.981 196.772 176.259C197.058 176.54 197.399 176.679 197.797 176.679C198.195 176.679 198.545 176.54 198.83 176.259C199.115 175.978 199.258 175.644 199.258 175.262C199.258 174.879 199.115 174.549 198.83 174.268C198.545 173.987 198.203 173.848 197.797 173.848C197.392 173.848 197.062 173.987 196.772 174.268C196.487 174.549 196.344 174.879 196.344 175.262Z" fill="#FF5C4D"/>
<path d="M200.586 172.656H202.073L203.413 176.161L204.765 172.656H206.244L204.13 177.822H202.703L200.586 172.656Z" fill="#FF5C4D"/>
<path d="M206.246 175.288C206.246 174.924 206.31 174.575 206.437 174.246C206.565 173.916 206.745 173.623 206.974 173.376C207.203 173.125 207.492 172.93 207.838 172.78C208.183 172.634 208.559 172.559 208.964 172.559C209.467 172.559 209.925 172.682 210.331 172.93C210.736 173.177 211.052 173.507 211.277 173.916C211.499 174.324 211.611 174.77 211.611 175.258C211.611 175.411 211.6 175.55 211.577 175.681H207.568C207.646 176.004 207.815 176.266 208.074 176.457C208.333 176.652 208.653 176.746 209.032 176.746C209.283 176.746 209.524 176.697 209.756 176.604C209.989 176.51 210.177 176.367 210.323 176.176L211.254 176.9C211.018 177.23 210.703 177.488 210.308 177.68C209.914 177.867 209.494 177.961 209.043 177.961C208.525 177.961 208.052 177.845 207.62 177.608C207.192 177.376 206.854 177.054 206.61 176.641C206.366 176.229 206.242 175.779 206.242 175.28L206.246 175.288ZM207.616 174.699H210.237C210.196 174.437 210.057 174.219 209.809 174.039C209.565 173.863 209.276 173.773 208.949 173.773C208.623 173.773 208.36 173.856 208.123 174.024C207.887 174.193 207.718 174.418 207.616 174.695V174.699Z" fill="#FF5C4D"/>
<path d="M212.508 177.822V172.656H213.871V173.038C214.122 172.855 214.393 172.727 214.685 172.66C214.975 172.592 215.376 172.559 215.894 172.559V173.844C215.553 173.844 215.26 173.863 215.016 173.904C214.772 173.942 214.577 173.998 214.43 174.066C214.284 174.133 214.167 174.231 214.085 174.351C214.002 174.471 213.946 174.598 213.916 174.729C213.886 174.86 213.871 175.025 213.871 175.213V177.822H212.508Z" fill="#FF5C4D"/>
<path d="M216.748 171.545C216.583 171.384 216.5 171.182 216.5 170.945C216.5 170.709 216.583 170.511 216.748 170.349C216.913 170.188 217.12 170.109 217.364 170.109C217.608 170.109 217.807 170.188 217.968 170.349C218.129 170.511 218.212 170.709 218.212 170.949C218.212 171.189 218.129 171.391 217.968 171.553C217.807 171.714 217.604 171.793 217.364 171.793C217.123 171.793 216.913 171.71 216.748 171.549V171.545ZM216.676 177.817V172.651H218.039V177.817H216.676Z" fill="#FF5C4D"/>
<path d="M219.352 177.822V172.656H220.714V173.038C220.846 172.937 220.962 172.862 221.052 172.806C221.142 172.75 221.285 172.697 221.477 172.641C221.668 172.585 221.875 172.559 222.1 172.559C222.396 172.559 222.671 172.604 222.922 172.69C223.174 172.78 223.403 172.911 223.602 173.087C223.804 173.263 223.962 173.503 224.075 173.803C224.187 174.103 224.244 174.448 224.244 174.842V177.822H222.881V175.063C222.881 174.249 222.52 173.844 221.796 173.844C221.071 173.844 220.714 174.246 220.714 175.044V177.822H219.352Z" fill="#FF5C4D"/>
<path d="M225.451 177.651C225.286 177.489 225.203 177.287 225.203 177.051C225.203 176.815 225.286 176.616 225.451 176.455C225.616 176.294 225.823 176.215 226.067 176.215C226.311 176.215 226.51 176.294 226.671 176.455C226.833 176.616 226.915 176.815 226.915 177.055C226.915 177.295 226.833 177.497 226.671 177.658C226.51 177.819 226.307 177.898 226.067 177.898C225.826 177.898 225.616 177.816 225.451 177.654V177.651Z" fill="#FF5C4D"/>
<path d="M183.83 176.225C184.18 176.225 184.464 175.946 184.464 175.603C184.464 175.259 184.18 174.98 183.83 174.98C183.479 174.98 183.195 175.259 183.195 175.603C183.195 175.946 183.479 176.225 183.83 176.225Z" fill="#FF5C4D"/>
<path d="M178.133 172.496V175.147L178.767 175.458L179.402 175.147V173.741H185.736V177.651C185.736 178.835 185.064 179.9 183.986 180.433L182.571 181.126L181.155 180.433C180.156 179.941 179.511 178.997 179.417 177.921L178.771 178.239L178.148 177.932C178.249 179.477 179.162 180.845 180.588 181.542L182.571 182.517L184.553 181.542C186.066 180.8 187.005 179.308 187.005 177.651V172.496H178.14H178.133Z" fill="#FF5C4D"/>
<path d="M180.749 176.57C181.721 176.093 182.453 175.302 182.855 174.361H181.428C181.128 174.819 180.704 175.201 180.182 175.46L178.766 176.153L177.351 175.46C176.27 174.931 175.601 173.863 175.601 172.678V168.768H181.935V171.876H183.2V167.523H174.336V172.678C174.336 174.339 175.275 175.827 176.788 176.57L178.77 177.544L180.752 176.57H180.749Z" fill="#FF5C4D"/>
<path d="M180.033 171.256C180.383 171.256 180.667 170.978 180.667 170.634C180.667 170.29 180.383 170.012 180.033 170.012C179.683 170.012 179.398 170.29 179.398 170.634C179.398 170.978 179.683 171.256 180.033 171.256Z" fill="#FF5C4D"/>
<path d="M403.349 43.8125H253.164V133.786H403.349V43.8125Z" fill="#FBFCF9" stroke="#C4F5F5" stroke-width="1.50176" stroke-linecap="round" stroke-linejoin="round"/>
<path d="M253.164 186.269V145.031H403.349V186.269" fill="#FBFCF9"/>
<path d="M253.164 186.269V145.031H403.349V186.269" stroke="#C4F5F5" stroke-width="1.50176" stroke-linecap="round" stroke-linejoin="round"/>
<path d="M271.951 73.8019C265.73 73.8019 260.688 68.7672 260.688 62.5553C260.688 56.3434 265.73 51.3086 271.951 51.3086C278.172 51.3086 283.215 56.3434 283.215 62.5553C283.215 68.7672 278.172 73.8019 271.951 73.8019Z" fill="#FF5C4D"/>
<path d="M276.97 62.5382C276.97 65.9947 275.419 68.7951 271.958 68.7951C268.496 68.7951 266.945 65.9947 266.945 62.5382C266.945 59.0817 268.496 56.2812 271.958 56.2812C275.419 56.2812 276.97 59.0817 276.97 62.5382Z" fill="#FFBB99"/>
<path d="M264.766 71.211C266.714 72.8268 269.218 73.7977 271.952 73.7977C274.685 73.7977 277.186 72.8268 279.138 71.211C277.291 69.7189 274.756 68.793 271.952 68.793C269.147 68.793 266.613 69.7189 264.766 71.211Z" fill="#00BFE6"/>
<path d="M260.68 81.3008H395.846" stroke="#C4F5F5" stroke-width="1.50176" stroke-linecap="round" stroke-linejoin="round"/>
<path d="M271.951 175.075C265.73 175.075 260.688 170.041 260.688 163.829C260.688 157.617 265.73 152.582 271.951 152.582C278.172 152.582 283.215 157.617 283.215 163.829C283.215 170.041 278.172 175.075 271.951 175.075Z" fill="#00BFE6"/>
<path d="M276.97 163.812C276.97 167.268 275.419 170.068 271.958 170.068C268.496 170.068 266.945 167.268 266.945 163.812C266.945 160.355 268.496 157.555 271.958 157.555C275.419 157.555 276.97 160.355 276.97 163.812Z" fill="#FFBB99"/>
<path d="M264.766 172.484C266.714 174.1 269.218 175.071 271.952 175.071C274.685 175.071 277.186 174.1 279.138 172.484C277.291 170.992 274.756 170.066 271.952 170.066C269.147 170.066 266.613 170.992 264.766 172.484Z" fill="#FF5C4D"/>
<path d="M260.68 182.57H395.846" stroke="#C4F5F5" stroke-width="1.50176" stroke-linecap="round" stroke-linejoin="round"/>
<path d="M185.586 81.3008H230.64" stroke="#FF5C4D" stroke-width="1.50176" stroke-linecap="round" stroke-linejoin="round"/>
<path d="M185.586 70.0547H230.64" stroke="#FF5C4D" stroke-width="1.50176" stroke-linecap="round" stroke-linejoin="round"/>
<path d="M185.586 58.8047H230.64" stroke="#FF5C4D" stroke-width="1.50176" stroke-linecap="round" stroke-linejoin="round"/>
<path d="M185.586 92.5469H230.64" stroke="#FF5C4D" stroke-width="1.50176" stroke-linecap="round" stroke-linejoin="round"/>
<path d="M170.562 58.8047H174.317" stroke="#FF5C4D" stroke-width="1.50176" stroke-linecap="round" stroke-linejoin="round"/>
<path d="M170.562 70.0547H174.317" stroke="#FF5C4D" stroke-width="1.50176" stroke-linecap="round" stroke-linejoin="round"/>
<path d="M170.562 81.3008H174.317" stroke="#FF5C4D" stroke-width="1.50176" stroke-linecap="round" stroke-linejoin="round"/>
<path d="M170.562 92.5469H174.317" stroke="#FF5C4D" stroke-width="1.50176" stroke-linecap="round" stroke-linejoin="round"/>
<path d="M403.334 133.782V122.535L392.07 133.782H403.334Z" fill="#C4F5F5" stroke="#C4F5F5" stroke-width="1.50176" stroke-linecap="round" stroke-linejoin="round"/>
<path d="M392.07 122.535H403.334L392.07 133.782V122.535Z" stroke="#C4F5F5" stroke-width="1.50176" stroke-linecap="round" stroke-linejoin="round"/>
<path d="M253.164 133.782H392.085L403.349 122.535" stroke="#00BFE6" stroke-width="1.50176" stroke-linecap="round" stroke-linejoin="round"/>
<path d="M523.471 224.012C523.437 224.004 523.407 224 523.374 223.993L520.242 223.295C518.527 222.913 517.306 221.391 517.306 219.637V216.96C517.306 214.89 515.624 213.211 513.552 213.211H498.534C496.461 213.211 494.779 214.89 494.779 216.96V219.64C494.779 221.395 493.563 222.913 491.847 223.299L488.952 223.948C488.851 223.967 488.749 223.985 488.652 224.008C485.667 224.581 483.516 227.191 483.516 230.223V252.889C483.516 255.401 485.183 257.602 487.601 258.299C490.814 259.221 496.424 260.132 506.043 260.132C515.662 260.132 521.267 259.221 524.485 258.299C526.903 257.605 528.57 255.405 528.57 252.889V230.223C528.57 227.202 526.434 224.604 523.468 224.012H523.471Z" fill="#C4F5F5" stroke="#00BFE6" stroke-width="1.50176" stroke-linecap="round" stroke-linejoin="round"/>
<path d="M525.571 230.383C525.571 228.587 516.83 227.133 506.047 227.133C495.264 227.133 486.523 228.587 486.523 230.383V252.517C486.523 253.731 487.252 254.841 488.386 255.291C490.601 256.168 495.444 257.124 506.047 257.124C516.65 257.124 521.497 256.164 523.708 255.291C524.842 254.841 525.571 253.731 525.571 252.517V230.383Z" fill="#4D1F1F" stroke="#4D1F1F" stroke-width="1.50176" stroke-linecap="round" stroke-linejoin="round"/>
<path d="M488.93 228.824C493.06 229.626 499.198 230.136 506.05 230.136C512.902 230.136 519.041 229.626 523.171 228.824" stroke="#00BFE6" stroke-width="1.50176" stroke-linecap="round" stroke-linejoin="round"/>
<path d="M506.056 117.668C504.194 117.668 502.688 119.183 502.703 121.042L503.428 214.704H508.684L509.409 121.042C509.424 119.183 507.918 117.668 506.056 117.668Z" fill="#FF5C4D" stroke="#FF5C4D" stroke-width="1.50176" stroke-linecap="round" stroke-linejoin="round"/>
<path d="M503.422 217.332V227.139C503.422 227.552 503.76 227.889 504.173 227.889H507.927C508.34 227.889 508.678 227.552 508.678 227.139V217.332H503.422Z" fill="#FF5C4D" stroke="#FF5C4D" stroke-width="1.50176" stroke-linecap="round" stroke-linejoin="round"/>
<path d="M502.703 121.043L503.428 214.705" stroke="#4D1F1F" stroke-width="1.50176" stroke-linecap="round" stroke-linejoin="round"/>
<path d="M503.422 217.328V227.135" stroke="#4D1F1F" stroke-width="1.50176" stroke-linecap="round" stroke-linejoin="round"/>
<path d="M514.329 216.418C512.272 216.789 509.321 217.021 506.047 217.021C502.484 217.021 499.303 216.744 497.242 216.316" stroke="#00BFE6" stroke-width="1.50176" stroke-linecap="round" stroke-linejoin="round"/>
<path d="M496.297 223.578C498.245 224.137 501.884 224.515 506.051 224.515C510.219 224.515 513.857 224.14 515.805 223.578" stroke="#00BFE6" stroke-width="1.50176" stroke-linecap="round" stroke-linejoin="round"/>
<path d="M189.153 250.008H384.811C387.142 250.008 389.44 250.551 391.528 251.59L423.337 267.47C424.91 268.254 425.901 269.858 425.901 271.616C425.901 274.177 423.825 276.25 421.261 276.25H152.703C150.139 276.25 148.062 274.177 148.062 271.616C148.062 269.862 149.057 268.257 150.627 267.47L182.436 251.59C184.52 250.548 186.822 250.008 189.153 250.008Z" fill="#00BFE6" stroke="#00BFE6" stroke-width="1.50176" stroke-linecap="round" stroke-linejoin="round"/>
<path d="M425.905 271.465C425.905 274.108 423.758 276.252 421.111 276.252H152.857C150.21 276.252 148.062 274.108 148.062 271.465" stroke="#4D1F1F" stroke-width="1.50176" stroke-linecap="round" stroke-linejoin="round"/>
<path d="M152.853 276.25L145.344 279.999H428.616L421.106 276.25H152.853Z" fill="#4D1F1F" stroke="#4D1F1F" stroke-width="1.50176" stroke-linecap="round" stroke-linejoin="round"/>
<path d="M157.883 267.355H416.051" stroke="#4D1F1F" stroke-width="1.50176" stroke-linecap="round" stroke-linejoin="round"/>
</svg>
