<svg width="300" height="192" viewBox="0 0 300 192" fill="none" xmlns="http://www.w3.org/2000/svg">
<g clip-path="url(#clip0_379_70728)">
<path d="M59.7886 196.183C60.833 196.181 61.4094 194.971 60.7708 194.15L60.3406 193.597L58.387 189.384C57.2803 187.002 58.1786 184.174 60.4596 182.848L62.2076 181.831L73.1553 176.607L53.4705 171.665C53.4705 171.665 51.2139 173.224 49.106 174.681C47.0307 176.116 46.2838 178.813 47.3283 181.099L51.9363 191.179C53.3325 194.233 56.4036 196.192 59.7859 196.181L59.7886 196.183Z" fill="#FFBB99"/>
<path d="M68.3468 201.189L65.7086 199.44C64.5857 198.694 63.59 197.773 62.7647 196.711L60.7679 194.146C60.8085 194.197 60.8436 194.25 60.8734 194.304C60.987 194.505 61.0357 194.72 61.033 194.932C61.033 194.948 61.033 194.967 61.033 194.983C61.033 194.996 61.0303 195.01 61.0276 195.023C60.9762 195.63 60.4864 196.177 59.7856 196.18C59.7802 196.18 59.7748 196.18 59.7694 196.18C59.7667 196.18 59.764 196.18 59.7612 196.18C59.6557 196.18 59.5502 196.172 59.4474 196.169C59.3473 196.166 59.2471 196.166 59.147 196.158C59.0388 196.15 58.9306 196.137 58.8223 196.123C58.7222 196.113 58.6249 196.104 58.5247 196.091C58.4165 196.075 58.3109 196.054 58.2027 196.032C58.108 196.013 58.0106 196 57.9159 195.981C57.8104 195.957 57.7048 195.927 57.5993 195.901C57.5046 195.876 57.4127 195.855 57.318 195.828C57.2151 195.799 57.1123 195.761 57.0122 195.726C56.9202 195.697 56.8282 195.667 56.7389 195.635C56.6361 195.597 56.5387 195.552 56.4386 195.511C56.352 195.474 56.2626 195.442 56.176 195.401C56.0786 195.356 55.984 195.305 55.8866 195.257C55.8027 195.214 55.7161 195.173 55.6322 195.13C55.5375 195.08 55.4482 195.02 55.3535 194.967C55.2724 194.919 55.1884 194.873 55.11 194.822C55.018 194.763 54.9314 194.699 54.8421 194.639C54.7636 194.586 54.6852 194.535 54.6094 194.479C54.5201 194.414 54.4362 194.342 54.3523 194.272C54.2793 194.213 54.2063 194.159 54.1359 194.1C54.0493 194.025 53.9681 193.945 53.8842 193.867C53.8193 193.808 53.7516 193.749 53.6894 193.687C53.6082 193.606 53.5298 193.518 53.4513 193.435C53.3918 193.37 53.3295 193.309 53.2727 193.244C53.1942 193.153 53.1212 193.059 53.0455 192.965C52.9941 192.901 52.9372 192.836 52.8858 192.769C52.81 192.667 52.7397 192.563 52.6666 192.458C52.6233 192.394 52.5746 192.332 52.5313 192.268C52.4556 192.15 52.3852 192.026 52.3148 191.905C52.2824 191.849 52.2445 191.793 52.2148 191.736C52.1146 191.554 52.0199 191.369 51.9333 191.178L47.3253 181.098C46.2809 178.812 47.0277 176.115 49.1031 174.68L45.526 177.162C43.3045 178.879 41.9922 181.522 41.9922 184.336V202.796C41.9922 203.145 42.2763 203.427 42.6281 203.427C42.9149 203.427 43.1665 203.236 43.2423 202.963L44.9361 196.845C45.1932 195.914 46.4676 195.777 46.9195 196.63L48.1208 198.887C49.6063 201.68 52.5286 203.427 55.7134 203.427H67.665C68.3441 203.427 68.8961 202.879 68.8961 202.206C68.8961 201.798 68.6904 201.417 68.3495 201.192L68.3468 201.189Z" fill="#4D1F1F" stroke="#4D1F1F" stroke-width="1.09924" stroke-linecap="round" stroke-linejoin="round"/>
<path d="M60.3398 193.599L58.3862 189.387C57.2795 187.004 58.1778 184.176 60.4588 182.851L62.2068 181.834" stroke="#4D1F1F" stroke-width="1.09924" stroke-linecap="round" stroke-linejoin="round"/>
<path d="M88.6831 196.183C89.7275 196.181 90.3039 194.971 89.6653 194.15L89.2351 193.597L87.2814 189.384C86.1748 187.002 87.0731 184.174 89.3541 182.848L91.1021 181.831L102.05 176.607L82.365 171.665C82.365 171.665 80.1084 173.224 78.0006 174.681C75.9252 176.116 75.1784 178.813 76.2228 181.099L80.8308 191.179C82.227 194.233 85.2981 196.192 88.6804 196.181L88.6831 196.183Z" fill="#FFBB99"/>
<path d="M97.2491 201.189L94.611 199.44C93.488 198.694 92.4923 197.773 91.6671 196.711L89.6701 194.146C89.7107 194.197 89.7459 194.25 89.7757 194.304C89.8894 194.505 89.938 194.72 89.9353 194.932C89.9353 194.948 89.9353 194.967 89.9353 194.983C89.9353 194.996 89.9326 195.01 89.9299 195.023C89.8785 195.63 89.3888 196.177 88.688 196.18C88.6826 196.18 88.6771 196.18 88.6717 196.18C88.669 196.18 88.6663 196.18 88.6636 196.18C88.5581 196.18 88.4526 196.172 88.3497 196.169C88.2496 196.166 88.1495 196.166 88.0494 196.158C87.9411 196.15 87.8329 196.137 87.7247 196.123C87.6246 196.113 87.5271 196.104 87.427 196.091C87.3188 196.075 87.2133 196.054 87.105 196.032C87.0103 196.013 86.9129 196 86.8182 195.981C86.7127 195.957 86.6072 195.927 86.5016 195.901C86.4069 195.876 86.3149 195.855 86.2202 195.828C86.1174 195.799 86.0146 195.761 85.9145 195.726C85.8225 195.697 85.7305 195.667 85.6412 195.635C85.5384 195.597 85.441 195.552 85.3408 195.511C85.2543 195.474 85.165 195.442 85.0784 195.401C84.981 195.356 84.8863 195.305 84.7888 195.257C84.705 195.214 84.6184 195.173 84.5345 195.13C84.4398 195.08 84.3505 195.02 84.2558 194.967C84.1746 194.919 84.0908 194.873 84.0123 194.822C83.9203 194.763 83.8337 194.699 83.7444 194.639C83.666 194.586 83.5875 194.535 83.5117 194.479C83.4224 194.414 83.3385 194.342 83.2547 194.272C83.1816 194.213 83.1085 194.159 83.0382 194.1C82.9516 194.025 82.8704 193.945 82.7866 193.867C82.7216 193.808 82.654 193.749 82.5918 193.687C82.5106 193.606 82.4321 193.518 82.3536 193.435C82.2941 193.37 82.2319 193.309 82.1751 193.244C82.0966 193.153 82.0235 193.059 81.9477 192.965C81.8963 192.901 81.8396 192.836 81.7881 192.769C81.7124 192.667 81.642 192.563 81.569 192.458C81.5257 192.394 81.477 192.332 81.4337 192.268C81.3579 192.15 81.2875 192.026 81.2172 191.905C81.1847 191.849 81.1469 191.793 81.1171 191.736C81.017 191.554 80.9223 191.369 80.8357 191.178L76.2277 181.098C75.1832 178.812 75.9301 176.115 78.0054 174.68L74.4283 177.162C72.2069 178.879 70.8945 181.522 70.8945 184.336V202.796C70.8945 203.145 71.1786 203.427 71.5304 203.427C71.8172 203.427 72.0688 203.236 72.1446 202.963L73.8384 196.845C74.0955 195.914 75.3699 195.777 75.8218 196.63L77.0232 198.887C78.5087 201.68 81.431 203.427 84.6157 203.427H96.5673C97.2464 203.427 97.7984 202.879 97.7984 202.206C97.7984 201.798 97.5928 201.417 97.2518 201.192L97.2491 201.189Z" fill="#4D1F1F" stroke="#4D1F1F" stroke-width="1.09924" stroke-linecap="round" stroke-linejoin="round"/>
<path d="M89.2383 193.599L87.2846 189.387C86.1779 187.004 87.0763 184.176 89.3573 182.851L91.1053 181.834" stroke="#4D1F1F" stroke-width="1.09924" stroke-linecap="round" stroke-linejoin="round"/>
<path d="M108.695 149.627L85.317 163.236C80.6738 165.938 79.1585 172.007 82.2053 176.407C83.5528 178.353 85.7553 179.925 89.3161 180.381C92.5063 180.789 95.7452 180.129 98.5782 178.618L139.176 156.941" fill="#FF5C4D"/>
<path d="M108.695 149.627L85.317 163.236C80.6738 165.938 79.1585 172.007 82.2053 176.407C83.5528 178.353 85.7553 179.925 89.3161 180.381C92.5063 180.789 95.7452 180.129 98.5782 178.618L139.176 156.941" stroke="#FF5C4D" stroke-width="1.09924" stroke-linecap="round" stroke-linejoin="round"/>
<path d="M68.5382 92.6729C66.912 97.0142 64.4578 101.001 61.3055 104.417L53.5371 112.837C46.1475 120.846 45.3601 132.871 51.6457 141.761C56.0156 147.943 63.1536 151.624 70.7677 151.624H82.5082L57.7663 165.292C52.8525 167.473 50.6743 173.341 53.2151 178.045C54.338 180.124 56.3538 181.927 59.8443 182.767C62.9696 183.518 66.2625 183.215 69.2443 182.021L83.8043 173.502L111.993 162.206V125.828" fill="#FF5C4D"/>
<path d="M53.2188 178.046C54.3417 180.125 56.3575 181.928 59.848 182.768C62.9732 183.519 66.2662 183.216 69.248 182.022L83.808 173.503L111.997 162.207" stroke="#4D1F1F" stroke-width="1.09924" stroke-linecap="round" stroke-linejoin="round"/>
<path d="M90.0431 120.96H84.6315C77.9021 120.853 66.9679 119.066 63.4693 107.491C62.755 105.127 63.1229 102.581 64.438 100.507C63.4882 101.878 62.4438 103.185 61.3074 104.416L58.1064 107.885C57.8412 109.428 57.9251 111.03 58.3905 112.57C62.6413 126.638 75.9349 128.811 84.1119 128.94H97.3758L96.9186 126.815H91.9534L90.0431 120.955V120.96Z" fill="#4D1F1F"/>
<path d="M125.301 79.3784C122.579 76.8831 119.492 75.5684 116.348 75.5684H95.9378H87.8528C82.82 75.5684 77.8764 76.8831 73.5201 79.3784L68.5414 92.6706C67.5781 95.2437 66.3199 97.6935 64.7992 99.9741C64.7857 99.9929 64.7749 100.012 64.7613 100.028C64.6531 100.189 64.5476 100.347 64.4366 100.505C63.1216 102.579 62.7537 105.123 63.468 107.49C66.9639 119.062 77.9008 120.852 84.6302 120.959H90.0418L91.952 126.819H128.789V107.68L125.301 79.3811V79.3784Z" fill="#00BFE6"/>
<path d="M105.317 119.762C105.317 119.762 94.7049 116.912 91.9531 126.824L91.9775 126.904C92.4645 128.433 93.4359 129.764 94.7455 130.703L112.149 132.281L117.382 123.717L105.312 119.764L105.317 119.762Z" fill="#FFBB99"/>
<path d="M89.7188 79.1426C92.1594 80.0092 94.3132 81.6486 95.7906 83.7602C96.9893 85.4774 97.7388 87.5005 97.9552 89.5773C98.1528 91.4716 98.5018 93.3444 98.8887 95.2091L102.509 112.69L104.287 114.407C104.947 115.043 105.318 115.918 105.318 116.83V119.757" stroke="#4D1F1F" stroke-width="1.09924" stroke-linecap="round" stroke-linejoin="round"/>
<path d="M92.2422 115.956C94.902 113.489 98.8741 112.38 102.505 112.686" stroke="#4D1F1F" stroke-width="1.09924" stroke-linecap="round" stroke-linejoin="round"/>
<path d="M118.357 88.3047C117.104 91.0307 116.549 94.0251 116.742 97.0168L117.702 111.82C117.702 111.82 115.194 119.759 106.484 119.759H105.32" stroke="#4D1F1F" stroke-width="1.09924" stroke-linecap="round" stroke-linejoin="round"/>
<path d="M118.867 51.3779C122.019 52.8832 123.911 56.5188 124.327 59.9639C124.744 63.4091 123.827 66.8891 122.476 70.0901C120.65 74.4153 116.183 81.7804 116.183 81.7804H108.046C105.406 81.7804 102.941 80.463 101.49 78.2763L99.4473 75.5744H95.9379L93.0859 63.7498L95.9379 51.3779H118.867Z" fill="#FFBB99"/>
<path d="M116.253 38.9757C113.323 38.0554 108.606 38.5464 105.857 39.9094L92.2361 47.0036C84.1484 51.2161 80.9772 61.09 85.1144 69.1635C82.7956 70.9854 81.1288 73.6685 80.3008 76.577C82.7522 75.9116 85.2903 75.5709 87.8527 75.5709H95.9377L98.1943 68.804C96.4139 67.7254 95.1205 65.5574 95.2287 63.6846C95.337 61.8118 96.2678 60.0007 97.737 58.8147L101.403 62.4182C106.298 48.5517 120.025 50.9773 123.072 55.756C123.072 55.756 129.344 43.0943 116.258 38.981L116.253 38.9757Z" fill="#FF5B4D"/>
<path d="M109.079 52.6235C108.424 50.6917 106.527 49.3743 104.536 48.8752C102.544 48.3761 100.447 48.572 98.4098 48.835C96.3723 49.1006 94.3132 49.4333 92.273 49.1999C90.2328 48.9664 88.1602 48.081 87.0156 46.3906" stroke="#4D1F1F" stroke-width="1.09924" stroke-linecap="round" stroke-linejoin="round"/>
<path d="M121.069 72.703L119.178 74.2324H114.922L121.069 72.703ZM121.069 72.703L117.674 67.1328" stroke="#4D1F1F" stroke-width="1.09924" stroke-linecap="round" stroke-linejoin="round"/>
<path d="M107.734 74.3234C107.734 74.3234 110.013 75.512 114.918 74.2295L111.652 80.1136C111.109 81.0929 109.639 80.9293 109.331 79.8534L107.734 74.3207V74.3234Z" fill="#4D1F1F" stroke="#4D1F1F" stroke-width="1.09924" stroke-linecap="round" stroke-linejoin="round"/>
<path d="M111.668 76.2061C111.141 75.7151 110.432 75.2026 109.65 74.776C108.362 74.6472 107.742 74.3252 107.742 74.3252L109.339 79.8578C109.65 80.9337 111.116 81.0974 111.66 80.1181L112.927 77.8374C112.602 77.2418 112.191 76.689 111.668 76.2061Z" fill="#FF5C4D" stroke="#4D1F1F" stroke-width="1.09924" stroke-linecap="round" stroke-linejoin="round"/>
<path d="M112.366 63.8076C112.212 64.2988 112.06 64.7901 111.906 65.2813" stroke="#4D1F1F" stroke-width="1.09924" stroke-linecap="round" stroke-linejoin="round"/>
<path d="M121.53 63.8076C121.376 64.2988 121.225 64.7901 121.07 65.2813" stroke="#4D1F1F" stroke-width="1.09924" stroke-linecap="round" stroke-linejoin="round"/>
<path d="M109.062 61.8071C110.816 60.8998 113.04 60.9535 114.747 61.944" stroke="#FF5C4D" stroke-width="1.09924" stroke-linecap="round" stroke-linejoin="round"/>
<path d="M119.656 61.8071C120.904 60.8998 122.481 60.9535 123.693 61.944" stroke="#FF5C4D" stroke-width="1.09924" stroke-linecap="round" stroke-linejoin="round"/>
<path d="M94.0625 42.8924C97.1011 43.5068 100.188 42.3262 103.027 41.092C105.865 39.8578 108.839 38.5189 111.926 38.8033C114.754 39.0662 117.4 40.7915 118.764 43.26C120.128 45.7285 120.166 48.8704 118.867 51.3738C122.019 52.879 123.91 56.5146 124.327 59.9598C124.744 63.4049 123.826 66.8849 122.476 70.0859C120.65 74.4111 116.183 81.7763 116.183 81.7763H108.046C105.405 81.7763 102.94 80.4589 101.49 78.2721L99.4471 75.5702" stroke="#4D1F1F" stroke-width="1.09924" stroke-linecap="round" stroke-linejoin="round"/>
<path d="M98.1957 68.8061L98.3147 68.3473C98.7829 66.5255 98.6909 64.607 98.0469 62.8389" stroke="#4D1F1F" stroke-width="1.09924" stroke-linecap="round" stroke-linejoin="round"/>
<path d="M95.2251 63.6826C95.1168 65.5554 96.4102 67.7234 98.1906 68.802L95.934 75.5689" stroke="#4D1F1F" stroke-width="1.09924" stroke-linecap="round" stroke-linejoin="round"/>
<path d="M101.49 78.2703L99.4469 75.5684H95.9375L100.499 81.6832C101.898 83.5748 103.736 84.7286 105.971 84.7286H107.819C110.019 84.7286 112.056 83.607 113.228 81.7744H108.046C105.405 81.7744 102.94 80.457 101.49 78.2703Z" fill="#4D1F1F" stroke="#4D1F1F" stroke-width="1.09924" stroke-linecap="round" stroke-linejoin="round"/>
<path d="M80.8555 98.834L81.2288 99.2338C82.9768 101.104 84.2918 103.328 85.0846 105.754L90.0444 120.954L91.9817 126.891C92.4688 128.421 93.4402 129.752 94.7498 130.691L112.154 132.268" stroke="#4D1F1F" stroke-width="1.09924" stroke-linecap="round" stroke-linejoin="round"/>
<path d="M119.816 152.357H150.122" stroke="#FBFCF9" stroke-width="1.09924" stroke-linecap="round" stroke-linejoin="round"/>
<path d="M82.5078 151.625L87.9167 149.223" stroke="#4D1F1F" stroke-width="1.09924" stroke-linecap="round" stroke-linejoin="round"/>
<path d="M51.6523 141.755C56.0222 147.937 63.1602 151.618 70.7744 151.618H82.5149" stroke="#4D1F1F" stroke-width="1.09924" stroke-linecap="round" stroke-linejoin="round"/>
<path d="M110.621 133.842C110.621 119.023 122.735 107.011 137.679 107.011C152.623 107.011 164.737 119.023 164.737 133.842V141.891H110.621V133.842Z" fill="#FF5C4D" stroke="#FF5C4D" stroke-width="1.09924" stroke-linecap="round" stroke-linejoin="round"/>
<path d="M164.737 141.894H110.621V203.605H164.737V141.894Z" fill="#FF5C4D" stroke="#FF5C4D" stroke-width="1.09924" stroke-linecap="round" stroke-linejoin="round"/>
<path d="M251.324 141.894H164.738V203.605H251.324V141.894Z" fill="#4D1F1F" stroke="#4D1F1F" stroke-width="1.09924" stroke-linecap="round" stroke-linejoin="round"/>
<path d="M224.266 107.011H137.68C152.624 107.011 164.738 119.023 164.738 133.842V141.891H251.324V133.842C251.324 119.023 239.21 107.011 224.266 107.011Z" fill="#FF5C4D" stroke="#FF5C4D" stroke-width="1.09924" stroke-linecap="round" stroke-linejoin="round"/>
<path d="M157 115.063C161.787 119.904 164.739 126.531 164.739 133.845V141.895H251.325V133.845C251.325 126.531 248.373 119.904 243.586 115.063H157Z" fill="#4D1F1F" stroke="#4D1F1F" stroke-width="1.09924" stroke-linecap="round" stroke-linejoin="round"/>
<path d="M172.852 107.011C187.796 107.011 199.91 119.023 199.91 133.842V203.603" stroke="#4D1F1F" stroke-width="1.09924" stroke-linecap="round" stroke-linejoin="round"/>
<path d="M191.797 107.011C206.741 107.011 218.855 119.023 218.855 133.842V203.603" stroke="#4D1F1F" stroke-width="1.09924" stroke-linecap="round" stroke-linejoin="round"/>
<path d="M191.992 114.871C196.89 119.728 199.918 126.435 199.918 133.844V203.605" stroke="#FF5C4D" stroke-width="1.09924" stroke-linecap="round" stroke-linejoin="round"/>
<path d="M210.93 114.871C215.827 119.728 218.855 126.435 218.855 133.844V203.605" stroke="#FF5C4D" stroke-width="1.09924" stroke-linecap="round" stroke-linejoin="round"/>
<path d="M137.68 107.011C152.624 107.011 164.738 119.023 164.738 133.842V141.891" stroke="#4D1F1F" stroke-width="1.09924" stroke-linecap="round" stroke-linejoin="round"/>
<path d="M216.149 107.011C231.093 107.011 243.207 119.023 243.207 133.842V203.603H235.089V133.842C235.089 119.023 222.975 107.011 208.031 107.011H216.149Z" fill="#FFE28D" stroke="#FF5C4D" stroke-width="1.09924" stroke-linecap="round" stroke-linejoin="round"/>
<path d="M219.27 108.089C232.114 109.634 242.096 120.512 242.096 133.659V202.347" stroke="#FBFCF9" stroke-width="1.09924" stroke-linecap="round" stroke-linejoin="round"/>
<path d="M243.207 137.868H235.09V145.918H243.207V137.868Z" stroke="#FF5C4D" stroke-width="1.09924" stroke-linecap="round" stroke-linejoin="round"/>
<path d="M153.891 106.827C168.835 106.827 180.949 118.84 180.949 133.658V203.42H172.832V133.658C172.832 118.84 160.718 106.827 145.773 106.827H153.891Z" fill="#FFE28D" stroke="#FF5C4D" stroke-width="1.09924" stroke-linecap="round" stroke-linejoin="round"/>
<path d="M157.039 108.089C169.884 109.634 179.865 120.512 179.865 133.659V202.347" stroke="#FBFCF9" stroke-width="1.09924" stroke-linecap="round" stroke-linejoin="round"/>
<path d="M180.969 137.868H172.852V145.918H180.969V137.868Z" stroke="#FF5C4D" stroke-width="1.09924" stroke-linecap="round" stroke-linejoin="round"/>
<path d="M164.738 141.894H251.324" stroke="#FF5C4D" stroke-width="1.09924" stroke-linecap="round" stroke-linejoin="round"/>
<path d="M110.621 203.603V133.842C110.621 119.023 122.735 107.011 137.679 107.011" stroke="#FFE28D" stroke-width="1.09924" stroke-linecap="round" stroke-linejoin="round"/>
<path d="M146.699 203.604V108.538" stroke="#4D1F1F" stroke-width="1.09924" stroke-linecap="round" stroke-linejoin="round"/>
<path d="M128.656 203.604V108.538" stroke="#4D1F1F" stroke-width="1.09924" stroke-linecap="round" stroke-linejoin="round"/>
<path d="M137.68 192.875L130.42 189.276C124.884 186.532 121.445 181.015 121.445 174.879V155.313H153.915V174.879C153.915 181.015 150.476 186.532 144.94 189.276L137.68 192.877V192.875Z" fill="#4D1F1F" stroke="#4D1F1F" stroke-width="1.09924" stroke-linecap="round" stroke-linejoin="round"/>
<path d="M137.676 190.191H134.97C129.434 187.446 121.441 178.329 121.441 172.192V152.627H153.911V172.192C153.911 178.329 150.472 183.845 144.936 186.59L137.676 190.191Z" fill="#FF5C4D" stroke="#FFE28D" stroke-width="1.09924" stroke-linecap="round" stroke-linejoin="round"/>
<path d="M134.969 190.192L127.71 186.594C122.173 183.849 118.734 178.333 118.734 172.196V152.631H151.204V172.196C151.204 178.333 147.765 183.849 142.229 186.594L134.969 190.195V190.192Z" fill="#FFE28D" stroke="#FF5C4D" stroke-width="1.09924" stroke-linecap="round" stroke-linejoin="round"/>
<path d="M139.608 165.849C140.889 165.849 141.927 164.819 141.927 163.548C141.927 162.278 140.889 161.248 139.608 161.248C138.327 161.248 137.289 162.278 137.289 163.548C137.289 164.819 138.327 165.849 139.608 165.849Z" fill="#FFE28D" stroke="#FF5C4D" stroke-width="1.09924" stroke-linecap="round" stroke-linejoin="round"/>
<path d="M134.969 190.195L127.71 186.597C122.173 183.852 118.734 178.335 118.734 172.199V152.634H151.204V172.199C151.204 178.335 147.765 183.852 142.229 186.597L134.969 190.198V190.195ZM123.372 157.23V172.196C123.372 176.581 125.829 180.52 129.782 182.481L134.969 185.051L140.156 182.481C144.109 180.52 146.566 176.578 146.566 172.196V157.23H123.375H123.372Z" fill="#FFE28D" stroke="#FF5C4D" stroke-width="1.09924" stroke-linecap="round" stroke-linejoin="round"/>
<path d="M110.621 141.894H164.737" stroke="#4D1F1F" stroke-width="1.09924" stroke-linecap="round" stroke-linejoin="round"/>
<path d="M161.664 87.1798L166.594 84.2432" stroke="#FF5B4D" stroke-width="1.09924" stroke-linecap="round" stroke-linejoin="round"/>
<path d="M163.633 96.6558L170.189 96.2344" stroke="#4D1F1F" stroke-width="1.09924" stroke-linecap="round" stroke-linejoin="round"/>
<path d="M64.9929 77.345L58.8398 76.9102" stroke="#00BFE6" stroke-width="1.09924" stroke-linecap="round" stroke-linejoin="round"/>
<path d="M66.0224 68.7845L61.4062 64.6426" stroke="#FF5B4D" stroke-width="1.09924" stroke-linecap="round" stroke-linejoin="round"/>
<path d="M197.785 -8.19162C177.172 -19.992 150.817 -12.9891 138.917 7.45102C128.372 25.5594 132.718 48.1407 148.182 61.2612L139.274 87.6524C138.446 90.1048 141.609 91.9159 143.338 89.9787L161.933 69.1334C181.122 75.852 203.015 68.2936 213.56 50.1852C225.46 29.7451 218.398 3.61146 197.785 -8.18893V-8.19162Z" fill="#FF5C4D" stroke="#FF5C4D" stroke-width="1.09924" stroke-linecap="round" stroke-linejoin="round"/>
<path d="M168.756 -13.2685C163.353 -12.324 158.363 -10.4163 153.934 -7.76003L167.893 70.7483C172.972 71.7437 178.318 71.843 183.722 70.8985C189.125 69.9541 194.115 68.0464 198.544 65.3901L184.585 -13.1182C179.506 -14.1137 174.16 -14.2129 168.756 -13.2685Z" fill="#FFE28D" stroke="#FFE28D" stroke-width="1.09924" stroke-linecap="round" stroke-linejoin="round"/>
<path d="M159.062 -6.23926L172.191 67.5924" stroke="#FF5C4D" stroke-width="1.09924" stroke-linecap="round" stroke-linejoin="round"/>
<path d="M180.285 -9.94727L193.414 63.8844" stroke="#FF5C4D" stroke-width="1.09924" stroke-linecap="round" stroke-linejoin="round"/>
<path d="M213.686 34.3209L209.53 10.9401C206.927 11.3963 204.443 9.67101 203.983 7.08984L142.68 17.8089C143.14 20.3901 141.4 22.8532 138.797 23.3093L142.953 46.6901C145.556 46.234 148.04 47.9592 148.5 50.5404L209.803 39.8213C209.343 37.2402 211.083 34.777 213.686 34.3209Z" fill="#FFE28D" stroke="#FFE28D" stroke-width="1.09924" stroke-linecap="round" stroke-linejoin="round"/>
<path d="M202.451 12.1831L145.866 22.0769C144.564 22.3047 143.694 23.5362 143.924 24.8277L147.249 43.5304C147.479 44.8219 148.721 45.6843 150.023 45.4566L206.608 35.5627C207.911 35.335 208.78 34.1034 208.551 32.8119L205.225 14.1093C204.996 12.8177 203.754 11.9554 202.451 12.1831Z" fill="#4D1F1F" stroke="#4D1F1F" stroke-width="1.09924" stroke-linecap="round" stroke-linejoin="round"/>
<path d="M156.474 20.2221L145.866 22.0769C144.564 22.3046 143.694 23.5362 143.924 24.8277L147.249 43.5304C147.479 44.8219 148.721 45.6843 150.023 45.4566L160.632 43.6017C161.934 43.374 162.804 42.1424 162.574 40.8509L159.248 22.1482C159.019 20.8567 157.777 19.9944 156.474 20.2221Z" fill="#FBFCF9" stroke="#4D1F1F" stroke-width="1.09924" stroke-linecap="round" stroke-linejoin="round"/>
<path d="M171.795 17.5434L161.186 19.3982C159.884 19.6259 159.014 20.8575 159.244 22.149L162.57 40.8517C162.799 42.1432 164.041 43.0056 165.344 42.7779L175.952 40.923C177.254 40.6953 178.124 39.4637 177.894 38.1722L174.569 19.4695C174.339 18.178 173.097 17.3157 171.795 17.5434Z" fill="#FBFCF9" stroke="#4D1F1F" stroke-width="1.09924" stroke-linecap="round" stroke-linejoin="round"/>
<path d="M187.131 14.8617L176.522 16.7166C175.22 16.9443 174.35 18.1759 174.58 19.4674L177.906 38.1701C178.135 39.4616 179.377 40.3239 180.68 40.0962L191.288 38.2414C192.59 38.0136 193.46 36.7821 193.23 35.4906L189.905 16.7879C189.675 15.4964 188.433 14.634 187.131 14.8617Z" fill="#FBFCF9" stroke="#4D1F1F" stroke-width="1.09924" stroke-linecap="round" stroke-linejoin="round"/>
<path d="M202.455 12.1781L191.847 14.033C190.544 14.2607 189.674 15.4923 189.904 16.7838L193.23 35.4865C193.459 36.778 194.701 37.6404 196.004 37.4126L206.612 35.5578C207.914 35.3301 208.784 34.0985 208.555 32.807L205.229 14.1043C204.999 12.8128 203.757 11.9504 202.455 12.1781Z" fill="#FBFCF9" stroke="#4D1F1F" stroke-width="1.09924" stroke-linecap="round" stroke-linejoin="round"/>
<path d="M157.781 14.2121L188.487 8.84082" stroke="#FF5C4D" stroke-width="1.09924" stroke-linecap="round" stroke-linejoin="round"/>
<path d="M194.635 43.4424L163.93 48.8137" stroke="#FF5C4D" stroke-width="1.09924" stroke-linecap="round" stroke-linejoin="round"/>
<path d="M153.872 36.3477L152.625 29.334" stroke="#4D1F1F" stroke-width="2.19847" stroke-linecap="round" stroke-linejoin="round"/>
<path d="M149.711 33.4611L156.784 32.2236" stroke="#4D1F1F" stroke-width="2.19847" stroke-linecap="round" stroke-linejoin="round"/>
<path d="M151.188 35.7599L155.306 29.9268" stroke="#4D1F1F" stroke-width="2.19847" stroke-linecap="round" stroke-linejoin="round"/>
<path d="M150.312 30.7969L156.195 34.8824" stroke="#4D1F1F" stroke-width="2.19847" stroke-linecap="round" stroke-linejoin="round"/>
<path d="M169.198 33.6668L167.953 26.6504" stroke="#4D1F1F" stroke-width="2.19847" stroke-linecap="round" stroke-linejoin="round"/>
<path d="M165.039 30.7795L172.112 29.542" stroke="#4D1F1F" stroke-width="2.19847" stroke-linecap="round" stroke-linejoin="round"/>
<path d="M166.516 33.079L170.634 27.2432" stroke="#4D1F1F" stroke-width="2.19847" stroke-linecap="round" stroke-linejoin="round"/>
<path d="M165.633 28.1152L171.515 32.2034" stroke="#4D1F1F" stroke-width="2.19847" stroke-linecap="round" stroke-linejoin="round"/>
<path d="M184.529 30.9883L183.281 23.9746" stroke="#4D1F1F" stroke-width="2.19847" stroke-linecap="round" stroke-linejoin="round"/>
<path d="M180.367 28.1017L187.44 26.8643" stroke="#4D1F1F" stroke-width="2.19847" stroke-linecap="round" stroke-linejoin="round"/>
<path d="M181.844 30.4005L185.962 24.5674" stroke="#4D1F1F" stroke-width="2.19847" stroke-linecap="round" stroke-linejoin="round"/>
<path d="M180.969 25.4375L186.851 29.523" stroke="#4D1F1F" stroke-width="2.19847" stroke-linecap="round" stroke-linejoin="round"/>
<path d="M199.849 28.2988L198.602 21.2852" stroke="#4D1F1F" stroke-width="2.19847" stroke-linecap="round" stroke-linejoin="round"/>
<path d="M195.691 25.4143L202.764 24.1768" stroke="#4D1F1F" stroke-width="2.19847" stroke-linecap="round" stroke-linejoin="round"/>
<path d="M197.168 27.711L201.286 21.8779" stroke="#4D1F1F" stroke-width="2.19847" stroke-linecap="round" stroke-linejoin="round"/>
<path d="M196.289 22.75L202.172 26.8355" stroke="#4D1F1F" stroke-width="2.19847" stroke-linecap="round" stroke-linejoin="round"/>
<path d="M133.15 27.7183C132.836 40.3424 138.185 52.776 148.181 61.2574L139.273 87.6486C138.445 90.101 141.608 91.9121 143.337 89.9749L161.932 69.1297C181.121 75.8482 203.014 68.2899 213.559 50.1814C217.966 42.6097 219.774 34.2571 219.252 26.1406" stroke="#4D1F1F" stroke-width="1.09924" stroke-linecap="round" stroke-linejoin="round"/>
</g>
<defs>
<clipPath id="clip0_379_70728">
<rect width="300" height="219.847" fill="white" transform="translate(0 -13.9238)"/>
</clipPath>
</defs>
</svg>
