<svg width="727" height="576" viewBox="0 0 727 576" fill="none" xmlns="http://www.w3.org/2000/svg">
<g clip-path="url(#clip0_379_72480)">
<path d="M816.413 382.284C815.529 364.404 802.451 349.476 784.838 346.235L780.881 345.508C777.952 344.968 775.75 342.542 775.487 339.583L774.37 326.862C772.996 311.189 760.301 298.92 744.583 298.073L733.161 297.459C730.295 297.308 727.93 299.659 728.062 302.525L728.47 311.139C728.683 315.609 725.478 319.515 721.049 320.185L720.824 320.217C711.014 321.703 703.813 330.204 703.964 340.128C703.995 342.135 702.157 343.664 700.175 343.332L693.709 342.26C690.366 341.708 687.65 339.276 686.727 336.016L685.505 331.677C684.3 327.408 681.258 323.891 677.213 322.073L643.292 306.85L622.97 338.831L613.913 330.931L602.366 334.712C594.588 337.263 588.742 343.74 587.011 351.739L584.402 363.802L570.459 364.974L566.488 350.41C564.506 343.144 559.112 337.295 552.031 334.73L546.775 332.825L543.406 315.026C541.337 304.061 530.824 296.55 519.86 298.631C509.956 300.512 503.026 309.396 503.54 319.383L503.709 322.75L488.925 329.358L488.706 326.85C487.332 311.176 474.637 298.907 458.919 298.061L447.497 297.446C444.631 297.296 442.266 299.647 442.398 302.512L442.805 311.126C443.019 315.596 439.814 319.502 435.385 320.173L435.16 320.204C428.015 321.289 422.257 326.091 419.711 332.455L416.5 332.379C410.183 332.235 404.77 327.822 403.366 321.665L400.656 309.822L392.22 313.264C389.115 314.53 386.349 316.392 384.034 318.687L357.628 306.838L333.517 344.78L300.851 301.941L261.104 332.825L257.736 315.026C255.666 304.061 245.154 296.543 234.19 298.631C224.286 300.512 217.355 309.396 217.869 319.383L218.039 341.332L206.216 345.727C205.726 345.909 204.66 346.392 204.177 346.586C202.402 347.288 200.382 346.36 199.837 344.504L194.756 327.339C194.261 325.665 192.624 324.599 190.892 324.825L162.698 328.449C160.923 328.674 159.6 330.185 159.6 331.972V343.207C159.6 345.457 157.536 347.125 155.335 346.68C154.563 346.523 153.786 346.41 152.995 346.329L138.017 344.843L134.373 328.072C132.146 317.822 122.38 311.026 111.987 312.493H111.975C102.403 313.841 94.3371 320.631 91.8156 329.959C91.5271 331.019 91.3139 332.097 91.1634 333.207C90.6303 337.157 91.132 341.182 92.4116 344.956L95.2404 353.3C97.3165 359.426 94.8954 366.178 89.3946 369.588L76.5929 377.532C67.2034 383.356 59.94 392.309 57.0422 402.967L56.5529 405.368C56.0637 407.75 53.9499 409.443 51.5163 409.399L44.0649 409.267C39.1161 409.18 35.1332 413.249 35.2649 418.195C36.6573 469.002 57.7259 487.221 67.404 492.926C70.1011 494.519 73.4191 494.625 76.2228 493.227L88.692 487.033C90.0907 486.337 91.7467 487.284 91.8596 488.839L96.2941 550.009C96.3756 551.144 97.3101 552.022 98.4454 552.041L124.852 552.511C126.056 552.53 127.047 551.564 127.047 550.354C127.047 548.467 126.094 546.699 124.513 545.665L118.36 541.627C117.657 541.17 117.281 540.354 117.388 539.521L122.468 498.882C122.794 496.268 126.614 496.343 126.834 498.97L131.042 549.27C131.136 550.392 132.065 551.257 133.188 551.282L157.932 551.721C159.142 551.74 160.146 550.781 160.165 549.564L160.202 547.552C160.227 546.085 159.663 544.674 158.628 543.633L154.388 539.364C153.936 538.913 153.71 538.279 153.761 537.646L156.207 507.152C156.426 504.45 160.384 504.468 160.585 507.171L163.784 551.201C163.865 552.335 164.8 553.213 165.935 553.232L193.345 553.483V553.721L256.852 554.849C257.065 554.849 257.278 554.824 257.479 554.774L280.906 548.517C281.702 548.304 282.317 547.683 282.524 546.887L285.873 533.853C286.457 531.584 289.681 531.571 290.276 533.834L293.682 546.718C293.939 547.702 294.824 548.392 295.84 548.411L322.378 548.881L344.13 549.27C345.353 549.288 346.376 548.342 346.445 547.119L348.232 514.236C348.37 511.722 351.883 511.258 352.667 513.647L364.609 549.915C364.847 550.649 365.443 551.207 366.19 551.401L376.708 554.185C376.884 554.229 377.066 554.26 377.248 554.26L401.703 554.693C402.958 554.718 403.999 553.715 404.018 552.461V552.379L410.484 552.492C411.657 552.511 412.673 551.608 412.717 550.429C412.786 548.53 411.852 546.743 410.271 545.702L403.836 541.483L403.823 541.452L407.769 522.794C408.528 519.201 410.773 516.161 413.796 514.393L416.713 549.257C416.807 550.379 417.735 551.244 418.858 551.27L426.723 551.407C427.131 551.884 427.727 552.197 428.411 552.21L450.106 552.599C450.495 552.975 451.016 553.213 451.599 553.226L479.009 553.476V553.715L542.516 554.843C542.729 554.843 542.942 554.818 543.143 554.768L566.57 548.511C567.366 548.298 567.981 547.677 568.188 546.881L571.537 533.847C572.121 531.577 575.345 531.565 575.941 533.828L579.346 546.712C579.604 547.696 580.488 548.386 581.504 548.404L608.042 548.875L629.794 549.263C631.017 549.282 632.04 548.335 632.109 547.113L633.896 514.23C634.034 511.716 637.547 511.252 638.331 513.641L650.273 549.909C650.512 550.643 651.107 551.201 651.854 551.395L662.372 554.178C662.548 554.222 662.73 554.254 662.912 554.254L687.367 554.686C688.622 554.711 689.663 553.708 689.682 552.454V551.972C689.694 551.696 689.651 551.42 689.556 551.157L688.434 548.053C688.289 547.658 688.258 547.226 688.346 546.812L693.42 522.788C694.587 517.271 699.241 513.032 704.879 512.763C711.246 512.449 716.722 517.013 717.637 523.226L720.328 541.496C720.466 542.436 720.008 543.358 719.18 543.815L713.021 547.226C712.312 547.621 711.861 548.361 711.848 549.176L711.836 549.89C711.81 551.144 712.814 552.185 714.069 552.204L742.532 552.712C743.755 552.73 744.777 551.784 744.846 550.561L746.766 515.672C746.835 514.449 747.857 513.503 749.08 513.521L755.353 513.634C756.469 513.653 757.41 514.481 757.566 515.59L760.834 538.706C760.953 539.533 760.602 540.361 759.925 540.862L749.406 548.574C748.917 548.937 748.535 549.451 748.428 550.053C748.164 551.52 749.319 552.793 750.742 552.743L784.23 551.602C785.441 551.558 786.406 550.58 786.431 549.37L787.046 514.988C787.065 513.778 788.037 512.794 789.248 512.757L820.521 511.747C821.795 511.703 822.786 510.631 822.723 509.359L816.419 382.271L816.413 382.284Z" fill="#C4F5F5" fill-opacity="0.6"/>
<path d="M436.969 558.741C644.813 558.741 813.305 556.329 813.305 553.355C813.305 550.381 644.813 547.97 436.969 547.97C229.124 547.97 60.6328 550.381 60.6328 553.355C60.6328 556.329 229.124 558.741 436.969 558.741Z" fill="#DAF8F7"/>
<path d="M474.416 132.441C479.07 126.943 481.516 119.632 481.108 112.448C480.757 106.254 478.129 98.6299 473.287 94.4483C471.6 92.9875 469.919 91.4891 468.231 89.9782C466.086 84.3921 461.664 79.6838 456.151 77.3202C452.833 75.8971 449.245 75.2262 445.651 75.2137L445.664 75.2012H439.712H439.724C436.224 75.2576 432.737 75.9347 429.5 77.3202C423.987 79.6838 419.571 84.3921 417.42 89.9782C415.733 91.4891 414.052 92.9875 412.364 94.4483C407.522 98.6299 404.894 106.254 404.543 112.448C404.135 119.639 406.581 126.949 411.235 132.441C401.306 141.005 396.866 153.236 402.116 169.23H483.536C488.779 153.236 484.345 141.005 474.416 132.441Z" fill="#4D1F1F" stroke="#4D1F1F" stroke-width="2.50749" stroke-linecap="round" stroke-linejoin="round"/>
<path d="M432.85 575.915C516.192 575.915 583.754 574.307 583.754 572.323C583.754 570.339 516.192 568.73 432.85 568.73C349.507 568.73 281.945 570.339 281.945 572.323C281.945 574.307 349.507 575.915 432.85 575.915Z" fill="#4D1F1F"/>
<path d="M477.958 256.26L485.447 270.786C493.112 285.657 497.992 301.801 499.848 318.427L507.871 390.287L525.765 517.7H501.787L478.184 443.245C474.985 433.151 472.834 422.756 471.761 412.224L469.472 389.704L446.045 319.969C445.01 316.885 440.638 316.885 439.603 319.969L416.176 389.704L413.887 412.224C412.815 422.756 410.663 433.151 407.464 443.245L383.862 517.7H359.883L377.778 390.287L385.8 318.427C387.656 301.801 392.536 285.657 400.201 270.786L407.69 256.26H477.965H477.958Z" fill="#00BFE6"/>
<path d="M499.848 318.426L442.82 259.763L385.793 318.426" stroke="#4D1F1F" stroke-width="2.50749" stroke-linecap="round" stroke-linejoin="round"/>
<path d="M525.765 517.697H501.787L478.184 443.241C474.985 433.147 472.834 422.753 471.761 412.22L469.472 389.7L446.045 319.966C445.01 316.881 440.638 316.881 439.603 319.966L416.176 389.7L413.887 412.22C412.815 422.753 410.663 433.147 407.464 443.241L383.862 517.697H359.883" stroke="#4D1F1F" stroke-width="2.50749" stroke-linecap="round" stroke-linejoin="round"/>
<path d="M505.778 192.829L503.401 182.128C501.45 173.344 493.911 166.924 484.929 166.391L463.967 165.144C458.98 164.849 455.092 160.724 455.092 155.733V146.461L442.811 149.658L430.529 146.461V155.733C430.529 160.724 426.641 164.849 421.654 165.144L402.844 166.391C393.862 166.924 386.323 173.35 384.372 182.128L382.534 192.829C382.534 192.829 367.123 211.067 364.025 234.107C357.269 234.22 346.381 236.991 340.654 239.706C337.926 241.004 335.26 242.64 332.331 243.116C329.402 243.593 326.027 242.583 324.534 239.687C323.305 237.298 323.612 234.226 322.502 231.762C321.511 229.556 319.322 228.252 317.158 228.227H313.094L319.893 256.583H369.105L370.736 254.953C383.318 242.414 393.448 227.637 400.617 211.387H484.998L503.677 235.662C504.128 236.283 504.222 237.091 503.927 237.794L502.755 240.602C502.046 242.289 499.907 242.809 498.508 241.631L494.005 237.838C492.217 236.333 489.79 235.819 487.544 236.477L478.638 239.085L476.787 244.427V257.655C476.787 259.066 477.929 260.207 479.34 260.207H521.571C534.285 226.553 505.784 192.829 505.784 192.829H505.778Z" fill="#FFBB99"/>
<path d="M485.557 248.985L476.77 249.706" stroke="#4D1F1F" stroke-width="2.50749" stroke-linecap="round" stroke-linejoin="round"/>
<path d="M485.557 242.91L476.77 244.352" stroke="#4D1F1F" stroke-width="2.50749" stroke-linecap="round" stroke-linejoin="round"/>
<path d="M485.557 236.835L476.77 238.991" stroke="#4D1F1F" stroke-width="2.50749" stroke-linecap="round" stroke-linejoin="round"/>
<path d="M476.782 240.479H408.848V256.265H476.782V240.479Z" fill="#4D1F1F"/>
<path d="M477.434 185.915H473.143C463.02 185.915 453.21 189.395 445.351 195.777L442.811 197.839L440.27 195.777C432.411 189.401 422.601 185.915 412.478 185.915H408.188L397.977 205.457C397.977 214.598 405.209 222.622 405.209 222.622L408.84 240.484H476.775L480.407 222.622C480.407 222.622 487.639 214.598 487.639 205.457L477.427 185.915H477.434Z" fill="#FF5C4D"/>
<path d="M412.49 200.755C422.614 200.755 432.424 204.949 440.283 212.636L442.823 215.118L445.363 212.636C453.223 204.949 463.032 200.755 473.156 200.755H485.205L477.446 185.909H473.156C463.032 185.909 453.223 189.389 445.363 195.771L442.823 197.834L440.283 195.771C432.424 189.395 422.614 185.909 412.49 185.909H408.2L400.441 200.755H412.49Z" fill="#FF5C4D"/>
<path d="M485.205 200.752H473.156C463.032 200.752 453.223 204.946 445.363 212.632L442.823 215.115L440.283 212.632C432.424 204.946 422.614 200.752 412.49 200.752H400.441" stroke="#4D1F1F" stroke-width="2.50749" stroke-linecap="round" stroke-linejoin="round"/>
<path d="M442.824 197.832V190.679" stroke="#4D1F1F" stroke-width="2.50749" stroke-linecap="round" stroke-linejoin="round"/>
<path d="M446.958 257.696L442.825 259.758L438.691 257.696C435.562 256.128 433.586 252.931 433.586 249.439V238.217H452.064V249.439C452.064 252.937 450.088 256.135 446.958 257.696Z" fill="#FFE88C"/>
<path d="M445.183 246.676C446.458 246.676 447.491 245.643 447.491 244.369C447.491 243.095 446.458 242.062 445.183 242.062C443.908 242.062 442.875 243.095 442.875 244.369C442.875 245.643 443.908 246.676 445.183 246.676Z" fill="#FF5C4D"/>
<path d="M452.068 238.213V249.435C452.068 252.933 450.092 256.131 446.962 257.692L442.829 259.755L438.695 257.692C435.566 256.125 433.59 252.927 433.59 249.435V238.213" stroke="#4D1F1F" stroke-width="2.50749" stroke-linecap="round" stroke-linejoin="round"/>
<path d="M444.578 68.5489V58.8125" stroke="#4D1F1F" stroke-width="2.50749" stroke-linecap="round" stroke-linejoin="round"/>
<path d="M484.273 89.8237L489.454 85.6738" stroke="#4D1F1F" stroke-width="2.50749" stroke-linecap="round" stroke-linejoin="round"/>
<path d="M511.33 212.188C505.371 212.677 499.626 215.36 495.398 219.579L503.697 230.996C504.148 231.617 504.242 232.425 503.947 233.127L502.831 235.798C504.838 231.215 509.273 228.112 514.316 228.03C518.179 227.968 521.93 229.786 524.665 232.538C524.119 225.617 522.426 219.009 520.262 213.072C517.37 212.263 514.334 211.943 511.336 212.188H511.33Z" fill="#FFE88C"/>
<path d="M520.248 213.072C517.356 212.263 514.32 211.943 511.322 212.188C505.363 212.677 499.618 215.36 495.391 219.579" stroke="#FF5B4D" stroke-width="2.50749" stroke-linecap="round" stroke-linejoin="round"/>
<path d="M502.818 235.078C504.825 230.495 509.259 227.392 514.302 227.31C518.166 227.247 521.917 229.066 524.651 231.818C525.235 239.266 524.495 247.084 521.572 254.82H477.904C476.493 254.82 475.352 253.679 475.352 252.269" stroke="#4D1F1F" stroke-width="2.50749" stroke-linecap="round" stroke-linejoin="round"/>
<path d="M405.209 222.617C405.209 222.617 397.977 214.592 397.977 205.451L408.188 185.909L404.45 188.147" stroke="#4D1F1F" stroke-width="2.50749" stroke-linecap="round" stroke-linejoin="round"/>
<path d="M503.682 231.719L487.273 209.13" stroke="#4D1F1F" stroke-width="2.50749" stroke-linecap="round" stroke-linejoin="round"/>
<path d="M480.413 222.617C480.413 222.617 487.645 214.592 487.645 205.451L477.434 185.909L481.172 188.147" stroke="#4D1F1F" stroke-width="2.50749" stroke-linecap="round" stroke-linejoin="round"/>
<path d="M382.02 219.813C377.93 217.706 373.314 216.647 368.716 216.71C366.621 221.982 364.871 227.863 364.031 234.101C363.805 234.101 363.56 234.12 363.328 234.126C367.838 234.496 372.254 235.95 376.08 238.358C378.087 239.624 379.918 241.154 381.543 242.878C382.459 241.731 383.356 240.571 384.234 239.399C384.29 239.323 384.347 239.248 384.403 239.167C385.206 238.088 385.996 236.997 386.774 235.894C386.855 235.775 386.937 235.662 387.018 235.543C388.693 233.142 390.299 230.697 391.823 228.195C389.251 224.697 385.883 221.788 382.026 219.8L382.02 219.813Z" fill="#FFE88C"/>
<path d="M391.819 228.214C389.248 224.716 385.88 221.807 382.022 219.819C377.933 217.713 373.316 216.647 368.719 216.71" stroke="#FF5C4D" stroke-width="2.50749" stroke-linecap="round" stroke-linejoin="round"/>
<path d="M364.027 234.201C368.292 234.659 372.457 236.082 376.083 238.37C378.09 239.637 379.921 241.166 381.546 242.891" stroke="#4D1F1F" stroke-width="2.50749" stroke-linecap="round" stroke-linejoin="round"/>
<path d="M485.451 270.788L482.948 200.759H461.391V268.826C461.391 290.731 467.826 310.423 482.528 320.222L501.464 332.843L499.858 318.436C498.002 301.809 493.122 285.665 485.457 270.794L485.451 270.788Z" fill="#4D1F1F" stroke="#4D1F1F" stroke-width="2.50749" stroke-linecap="round" stroke-linejoin="round"/>
<path d="M461.398 200.753L473.403 268.82C477.267 290.726 489.874 310.418 506.301 320.217L527.853 333.063H535.041L534.194 328.273L544.87 320.211C557.841 310.412 563.498 290.719 559.635 268.814L547.63 200.747H461.398V200.753Z" fill="#FF5C4D" stroke="#FF5B4D" stroke-width="2.50749" stroke-linecap="round" stroke-linejoin="round"/>
<path d="M535.041 333.062L513.489 320.216C497.062 310.417 484.455 290.725 480.591 268.82L468.586 200.753H554.817L566.822 268.82C570.686 290.725 565.028 310.417 552.057 320.216L535.041 333.062Z" fill="#FFE88C" stroke="#FFE680" stroke-width="2.50749" stroke-linecap="round" stroke-linejoin="round"/>
<path d="M483.797 217.172L492.91 268.819C495.67 284.468 504.677 298.53 516.413 305.533L531.805 314.711L543.96 305.533C553.225 298.536 557.27 284.468 554.51 268.819L545.397 217.172H483.803H483.797Z" stroke="#FF5B4D" stroke-width="2.50749" stroke-linecap="round" stroke-linejoin="round"/>
<path d="M525.108 241.798C524.305 237.266 526.419 233.592 529.818 233.592C533.218 233.592 536.624 237.266 537.427 241.798C538.229 246.331 536.116 250.005 532.716 250.005C529.317 250.005 525.911 246.331 525.108 241.798Z" fill="#FF5C4D" stroke="#FF5B4D" stroke-width="2.50749" stroke-linecap="round" stroke-linejoin="round"/>
<path d="M435.625 317.652H450.001" stroke="#4D1F1F" stroke-width="2.50749" stroke-linecap="round" stroke-linejoin="round"/>
<path d="M409.096 437.798H359.846V532.165C359.846 538.19 357.03 543.864 352.232 547.507L327.676 566.152C327.676 569.556 330.436 572.315 333.841 572.315H382.621V542.322C382.621 539.501 382.985 536.686 383.706 533.958L409.09 437.792L409.096 437.798Z" fill="#4D1F1F" stroke="#4D1F1F" stroke-width="2.50749" stroke-linecap="round" stroke-linejoin="round"/>
<path d="M535.023 333.061L552.04 320.215C565.011 310.416 570.669 290.724 566.805 268.819L554.8 200.752" stroke="#FF5B4D" stroke-width="2.50749" stroke-linecap="round" stroke-linejoin="round"/>
<path d="M476.555 437.798H525.805V532.165C525.805 538.19 528.621 543.864 533.419 547.507L557.975 566.152C557.975 569.556 555.215 572.315 551.809 572.315H503.03V542.322C503.03 539.501 502.666 536.686 501.945 533.958L476.561 437.792L476.555 437.798Z" fill="#4D1F1F" stroke="#4D1F1F" stroke-width="2.50749" stroke-linecap="round" stroke-linejoin="round"/>
<path d="M461.391 200.752L473.396 268.819C477.259 290.724 489.867 310.416 506.294 320.215L527.845 333.061H535.033L552.05 320.215" stroke="#4D1F1F" stroke-width="2.50749" stroke-linecap="round" stroke-linejoin="round"/>
<path d="M362.742 517.696L371.09 437.799L404.453 455.328" stroke="#FF5B4D" stroke-width="2.50749" stroke-linecap="round" stroke-linejoin="round"/>
<path d="M522.892 517.696L514.55 437.799L481.188 455.328" stroke="#FF5B4D" stroke-width="2.50749" stroke-linecap="round" stroke-linejoin="round"/>
<path d="M521.566 189.929L526.647 184.883" stroke="#FF5B4D" stroke-width="2.50749" stroke-linecap="round" stroke-linejoin="round"/>
<path d="M398.842 216.51C391.648 231.193 381.543 244.051 369.112 256.584H317.422" stroke="#4D1F1F" stroke-width="2.50749" stroke-linecap="round" stroke-linejoin="round"/>
<path d="M293.237 235.081L300.632 252.573C301.24 254.015 302.928 254.661 304.345 254.002L311.759 250.542C313.114 249.908 313.722 248.31 313.12 246.937L305.97 230.567C305.405 229.282 303.969 228.624 302.626 229.031L294.974 231.376C293.406 231.852 292.603 233.583 293.237 235.088V235.081Z" fill="#FFBB99"/>
<path d="M300.617 252.563C301.226 254.005 302.913 254.651 304.33 253.993L311.744 250.532C313.099 249.899 313.707 248.3 313.105 246.927L307.592 230.558" stroke="#4D1F1F" stroke-width="2.50749" stroke-linecap="round" stroke-linejoin="round"/>
<path d="M295.254 239.848L308.018 235.247" stroke="#4D1F1F" stroke-width="2.50749" stroke-linecap="round" stroke-linejoin="round"/>
<path d="M298.496 247.517L311.317 241.573" stroke="#4D1F1F" stroke-width="2.50749" stroke-linecap="round" stroke-linejoin="round"/>
<path d="M283.375 36.1115L330.373 573.061C330.511 574.628 333.679 575.638 337.448 575.306C341.218 574.973 344.166 573.437 344.028 571.864L297.03 34.9141L283.375 36.1053V36.1115Z" fill="#FF5C4D" stroke="#FF5C4D" stroke-width="2.50749" stroke-linecap="round" stroke-linejoin="round"/>
<path d="M301.53 86.3701L287.875 87.5676L294.599 164.374L307.739 157.359L301.53 86.3701Z" fill="#4D1F1F" stroke="#4D1F1F" stroke-width="2.50749" stroke-linecap="round" stroke-linejoin="round"/>
<path d="M311.979 205.79L298.324 206.981L305.061 283.913L318.201 276.885L311.979 205.79Z" fill="#4D1F1F" stroke="#4D1F1F" stroke-width="2.50749" stroke-linecap="round" stroke-linejoin="round"/>
<path d="M308.781 326.403L315.511 403.322L328.658 396.294L322.436 325.205L308.781 326.403Z" fill="#4D1F1F" stroke="#4D1F1F" stroke-width="2.50749" stroke-linecap="round" stroke-linejoin="round"/>
<path d="M297.03 34.9141L283.375 36.1053L330.373 573.055C330.511 574.622 333.679 575.631 337.448 575.299L427.436 574.666" stroke="#4D1F1F" stroke-width="2.50749" stroke-linecap="round" stroke-linejoin="round"/>
<path d="M288.955 35.5647C296.84 35.5647 303.231 29.1762 303.231 21.2955C303.231 13.4149 296.84 7.02637 288.955 7.02637C281.071 7.02637 274.68 13.4149 274.68 21.2955C274.68 29.1762 281.071 35.5647 288.955 35.5647Z" fill="#FFE88C" stroke="#FF5C4D" stroke-width="2.50749" stroke-linecap="round" stroke-linejoin="round"/>
<path d="M288.317 19.6105C291.469 19.6105 294.025 17.0562 294.025 13.9054C294.025 10.7545 291.469 8.2002 288.317 8.2002C285.165 8.2002 282.609 10.7545 282.609 13.9054C282.609 17.0562 285.165 19.6105 288.317 19.6105Z" fill="#FBFCF9"/>
<path d="M289.608 28.6876C284.622 29.1265 280.143 26.1109 278.494 21.6345C278.324 22.5624 278.268 23.5279 278.349 24.5122C278.87 30.4807 284.132 34.8943 290.104 34.374C296.075 33.8536 300.49 28.5936 299.97 22.6251C299.882 21.6408 299.656 20.7004 299.33 19.8164C298.483 24.5122 294.594 28.255 289.608 28.6876Z" fill="#FF5C4D"/>
<path d="M344.955 47.5908L231.172 57.541L232.167 68.9142L345.951 58.9639L344.955 47.5908Z" fill="#FF5C4D" stroke="#FF5C4D" stroke-width="2.50749" stroke-linecap="round" stroke-linejoin="round"/>
<path d="M231.281 58.6873L232.178 68.9189L345.963 58.9694L344.966 47.5967" stroke="#4D1F1F" stroke-width="2.50749" stroke-linecap="round" stroke-linejoin="round"/>
<path d="M231.184 57.5421L219.304 52.8525L203.234 65.7174L221.299 75.5979L232.175 68.9148L231.184 57.5421Z" fill="#FFE88C" stroke="#FF5C4D" stroke-width="2.50749" stroke-linecap="round" stroke-linejoin="round"/>
<path d="M233.385 63.0811L221.418 70.4351L210.529 65.081L203.234 65.7205L233.385 63.0811Z" fill="#FF5C4D" stroke="#FF5C4D" stroke-width="2.50749" stroke-linecap="round" stroke-linejoin="round"/>
<path d="M231.184 57.5449L232.175 68.9176L221.299 75.6008L203.234 65.7202" stroke="#4D1F1F" stroke-width="2.50749" stroke-linecap="round" stroke-linejoin="round"/>
<path d="M344.969 47.5943L355.851 40.9111L373.909 50.7917L357.839 63.6628L345.966 58.967L344.969 47.5943Z" fill="#FFE88C" stroke="#FF5C4D" stroke-width="2.50749" stroke-linecap="round" stroke-linejoin="round"/>
<path d="M343.75 53.4304L356.815 58.5902L366.612 51.4305L373.901 50.791L343.75 53.4304Z" fill="#FF5C4D" stroke="#FF5C4D" stroke-width="2.50749" stroke-linecap="round" stroke-linejoin="round"/>
<path d="M344.969 47.5967L345.966 58.9694L357.839 63.6652L373.909 50.7941" stroke="#4D1F1F" stroke-width="2.50749" stroke-linecap="round" stroke-linejoin="round"/>
<path d="M339.612 122.237L288.274 149.647L237.211 131.19L237.669 54.3648L254.736 52.8727L254.623 72.3706L322.89 66.3958L323.009 46.9042L340.076 45.4121L339.612 122.237Z" fill="#FBFCF9" stroke="#C4F5F5" stroke-width="2.50749" stroke-linecap="round" stroke-linejoin="round"/>
<path d="M256.521 114.443C254.689 111.986 253.604 107.691 253.642 102.162C253.673 96.9643 254.652 92.8265 256.602 89.7482C258.553 86.6887 261.074 85.0148 264.16 84.7452C265.847 84.5948 267.227 84.9709 268.287 85.8424L268.256 91.1714C267.177 89.9238 265.954 89.3595 264.624 89.4724C262.78 89.6354 261.306 90.7701 260.227 92.9017C259.124 95.0333 258.578 97.9486 258.553 101.685C258.528 105.917 259.155 109.133 260.14 110.832C261.131 112.556 262.366 113.321 263.771 113.202C263.991 113.183 264.279 113.114 264.637 112.989L264.7 102.287L264.098 102.337C263.1 102.425 262.228 102.632 261.494 102.989L261.99 98.1806L269.078 97.5599L268.971 114.983C267.585 116.65 265.76 117.591 263.489 117.791C260.736 118.029 258.34 116.901 256.514 114.437L256.521 114.443Z" fill="#00BFE6"/>
<path d="M271.699 116.631C272.408 113.503 272.784 109.597 272.816 104.939L272.866 96.049C272.891 91.3658 272.559 87.5289 271.894 84.5196L277.583 84.0243C280.938 83.7296 283.554 84.8895 285.404 87.4787C287.255 90.0931 288.164 93.9488 288.133 99.0583C288.101 104.187 287.142 108.256 285.26 111.215C283.378 114.199 280.744 115.842 277.388 116.136L271.699 116.631ZM277.307 111.641L277.865 111.591C279.464 111.453 280.782 110.375 281.791 108.362C282.801 106.35 283.334 103.39 283.353 99.4721C283.378 95.5098 282.82 92.4692 281.804 90.7639C280.794 89.0837 279.483 88.3502 277.953 88.4818L277.445 88.5257L277.307 111.635V111.641Z" fill="#00BFE6"/>
<path d="M289.906 115.04C290.245 113.598 290.527 111.786 290.741 109.617C290.954 107.448 291.054 105.36 291.067 103.341L291.117 94.451C291.129 92.4385 291.054 90.3634 290.866 88.2067C290.678 86.0751 290.421 84.3071 290.101 82.9216L296.498 82.3636C299.346 82.1128 301.56 82.9529 303.147 84.8463C304.734 86.7647 305.518 89.4731 305.499 92.9902C305.48 96.4133 304.928 99.1531 303.831 101.197C302.733 103.266 301.41 104.363 299.923 104.495C297.546 104.702 296.153 103.122 295.997 99.7549L295.576 99.7926L295.558 102.952C295.545 104.921 295.645 106.971 295.834 109.109C296.022 111.266 296.254 113.034 296.555 114.463L289.913 115.046L289.906 115.04ZM300.726 93.1407C300.738 91.147 300.35 89.5922 299.553 88.4324C298.763 87.2725 297.784 86.7522 296.655 86.8525C296.147 86.8964 295.765 87.1973 295.652 87.2099L295.602 95.2911C295.639 96.5889 295.877 97.7048 296.316 98.6327C296.73 99.5606 297.308 99.9994 298.041 99.9368C299.71 99.7926 300.701 97.4227 300.726 93.147V93.1407Z" fill="#00BFE6"/>
<path d="M316.718 110.369C316.172 108.645 315.984 106.469 315.865 104.357C315.683 101.259 315.369 98.5135 313.099 98.7141C312.609 98.758 312.296 98.827 312.139 98.9335L312.114 102.607C312.089 107.353 312.265 110.833 312.672 113.059L306.852 113.566C307.015 112.457 307.153 111.19 307.228 109.773C307.303 108.356 307.353 107.146 307.385 106.131C307.41 105.121 307.422 103.642 307.435 101.648L307.485 93.2973C307.523 87.2536 307.366 83.3039 307.046 81.4482L312.823 80.9403C318.537 80.4388 321.961 82.9152 321.93 88.3132C321.899 93.2409 319.264 95.9305 314.798 96.3255L314.686 96.338V96.6515L315.238 96.6013C317.395 96.4132 318.901 97.1969 319.534 98.4633C320.168 99.7486 320.469 101.404 320.55 103.009C320.626 105.372 320.701 107.447 322.037 107.335C322.57 107.291 323.04 106.933 323.423 106.294L323.435 111.466C322.921 112.381 322.005 112.889 320.694 113.002C318.581 113.184 317.232 112.093 316.712 110.375L316.718 110.369ZM312.17 94.5387L312.66 94.4948C315.438 94.2503 317.182 92.5074 317.201 89.3727C317.22 86.4825 315.47 85.2035 312.716 85.448L312.227 85.4919L312.17 94.5387Z" fill="#00BFE6"/>
<path d="M355.412 167.011L241.629 176.961L242.624 188.334L356.408 178.384L355.412 167.011Z" fill="#FF5C4D" stroke="#FF5C4D" stroke-width="2.50749" stroke-linecap="round" stroke-linejoin="round"/>
<path d="M241.629 176.965L242.626 188.338L356.405 178.388L355.408 167.016" stroke="#4D1F1F" stroke-width="2.50749" stroke-linecap="round" stroke-linejoin="round"/>
<path d="M350.238 241.638L299.037 269.035L247.837 250.591L247.824 173.809L264.891 172.317V191.802L333.165 185.828L333.158 166.349L350.225 164.856L350.238 241.638Z" fill="#FBFCF9" stroke="#C4F5F5" stroke-width="2.50749" stroke-linecap="round" stroke-linejoin="round"/>
<path d="M237.303 173.332L237.297 173.333C235.098 173.525 233.472 175.462 233.665 177.659L234.661 189.038C234.853 191.236 236.791 192.861 238.989 192.669L238.995 192.668C241.194 192.476 242.82 190.539 242.627 188.342L241.631 176.962C241.439 174.765 239.501 173.14 237.303 173.332Z" fill="#FFE88C" stroke="#FF5C4D" stroke-width="2.50749" stroke-linecap="round" stroke-linejoin="round"/>
<path d="M234.078 182.207C234.273 184.407 236.211 186.031 238.406 185.837C240.608 185.642 242.232 183.705 242.038 181.511L242.238 183.787C242.433 185.987 240.802 187.924 238.607 188.112C236.405 188.307 234.467 186.677 234.279 184.482L234.078 182.207Z" stroke="#FF5C4D" stroke-width="2.50749" stroke-linecap="round" stroke-linejoin="round"/>
<path d="M234.664 189.03C234.859 191.23 236.797 192.854 238.992 192.66C241.193 192.465 242.818 190.528 242.624 188.334L241.626 176.961" stroke="#4D1F1F" stroke-width="2.50749" stroke-linecap="round" stroke-linejoin="round"/>
<path d="M360.744 182.024L360.75 182.024C362.948 181.832 364.575 179.895 364.382 177.697L363.386 166.318C363.194 164.121 361.256 162.495 359.058 162.688L359.051 162.688C356.853 162.88 355.227 164.817 355.42 167.015L356.416 178.394C356.608 180.591 358.546 182.217 360.744 182.024Z" fill="#FFE88C" stroke="#FF5C4D" stroke-width="2.50749" stroke-linecap="round" stroke-linejoin="round"/>
<path d="M363.788 170.864C363.982 173.065 362.351 175.002 360.156 175.19C357.954 175.385 356.016 173.754 355.828 171.56L356.029 173.836C356.223 176.037 358.161 177.66 360.357 177.466C362.558 177.272 364.183 175.334 363.988 173.14L363.788 170.864Z" stroke="#FF5C4D" stroke-width="2.50749" stroke-linecap="round" stroke-linejoin="round"/>
<path d="M364.371 177.692C364.565 179.893 362.935 181.83 360.739 182.018C358.538 182.213 356.6 180.583 356.411 178.388L355.414 167.016" stroke="#4D1F1F" stroke-width="2.50749" stroke-linecap="round" stroke-linejoin="round"/>
<path d="M303.171 20.0537C303.861 27.903 298.047 34.8244 290.194 35.5141C282.341 36.2037 275.417 30.392 274.727 22.5427" stroke="#4D1F1F" stroke-width="2.50749" stroke-linecap="round" stroke-linejoin="round"/>
<path d="M259.139 238.204C259.741 235.47 260.055 232.053 260.049 227.978V220.204C260.049 216.11 259.735 212.75 259.133 210.123L264.107 209.69C267.042 209.433 269.338 210.449 270.969 212.712C272.599 215.001 273.421 218.373 273.421 222.837C273.421 227.32 272.606 230.881 270.975 233.47C269.344 236.078 267.048 237.514 264.113 237.771L259.139 238.204ZM264.019 233.84L264.508 233.796C265.907 233.671 267.055 232.73 267.933 230.969C268.805 229.207 269.256 226.624 269.256 223.195C269.256 219.728 268.748 217.069 267.857 215.584C266.961 214.117 265.819 213.471 264.477 213.59L264.031 213.628V233.834L264.019 233.84Z" fill="#00BFE6"/>
<path d="M275.055 236.803C275.657 234.07 275.97 230.653 275.97 226.578V218.804C275.97 214.71 275.657 211.35 275.055 208.723L280.342 208.259L282.776 214.629C283.303 215.857 283.629 217.255 283.804 218.829L284.074 218.804C284.174 217.876 284.52 216.415 285.122 214.422L287.549 207.632L292.837 207.168C292.567 208.447 292.354 210.033 292.178 211.945C292.002 213.857 291.927 215.669 291.927 217.412V225.186C291.927 226.929 292.009 228.722 292.184 230.59C292.36 232.452 292.573 234.001 292.843 235.255L287.066 235.763C287.336 234.465 287.549 232.879 287.725 230.985C287.9 229.092 287.976 227.28 287.976 225.537V218.353L287.743 218.371L284.482 229.174L283.453 229.261L280.185 219.03L279.935 219.055V226.24C279.935 230.233 280.229 233.594 280.813 236.308L275.061 236.81L275.055 236.803Z" fill="#00BFE6"/>
<path d="M294.047 235.148C294.555 233.888 295.057 232.302 295.546 230.377C296.029 228.472 296.437 226.597 296.75 224.766L298.268 216.861C298.989 212.591 299.259 209.174 299.102 206.623L306.196 206.002C306.121 207.262 306.159 208.823 306.334 210.71C306.491 212.597 306.723 214.378 307.037 216.096L308.536 223.738C309.238 227.732 310.148 231.036 311.258 233.644L305.444 234.152C305.538 231.888 305.368 229.28 304.917 226.346L304.722 225.23L300.583 225.594L300.388 226.785C299.962 230.095 299.786 232.716 299.868 234.647L294.053 235.155L294.047 235.148ZM301.122 222.208L304.151 221.945L303.43 218.328C303.311 217.651 303.098 215.751 302.784 212.648L302.47 212.673C302.433 213.068 302.376 213.682 302.314 214.491C302.257 215.318 302.176 216.033 302.119 216.641C302.063 217.256 301.962 217.851 301.868 218.466L301.109 222.215L301.122 222.208Z" fill="#00BFE6"/>
<path d="M320.798 230.773C320.309 229.269 320.139 227.363 320.02 225.513C319.844 222.805 319.55 220.404 317.568 220.579C317.141 220.617 316.865 220.679 316.733 220.767V223.977C316.733 228.128 316.909 231.168 317.279 233.112L312.186 233.557C312.324 232.585 312.437 231.482 312.493 230.24C312.55 228.999 312.594 227.939 312.612 227.055C312.631 226.171 312.631 224.88 312.631 223.137V215.833C312.631 210.548 312.474 207.094 312.18 205.476L317.235 205.031C322.234 204.592 325.245 206.761 325.245 211.476C325.245 215.783 322.949 218.14 319.042 218.479H318.947V218.761L319.43 218.717C321.318 218.554 322.636 219.237 323.2 220.347C323.765 221.476 324.034 222.918 324.116 224.322C324.197 226.391 324.273 228.203 325.439 228.102C325.903 228.065 326.311 227.751 326.644 227.193L326.681 231.714C326.236 232.516 325.439 232.961 324.291 233.062C322.447 233.225 321.262 232.272 320.791 230.761L320.798 230.773ZM316.733 216.93L317.16 216.893C319.587 216.68 321.105 215.156 321.105 212.416C321.105 209.89 319.568 208.774 317.16 208.981L316.733 209.018V216.93Z" fill="#00BFE6"/>
<path d="M330.24 228.749C328.823 226.467 328.102 222.924 328.102 218.166C328.102 213.307 328.973 209.376 330.454 206.956C331.909 204.536 333.816 203.194 336.074 203C337.315 202.894 338.288 203.119 339.009 203.702V208.831C338.25 207.94 337.397 207.52 336.425 207.608C333.722 207.846 332.36 211.232 332.36 217.752C332.36 224.253 333.778 227.382 336.619 227.131C337.692 227.037 338.62 226.567 339.417 225.714V230.454C338.388 231.288 337.203 231.764 335.823 231.883C333.508 232.084 331.664 231.031 330.24 228.749Z" fill="#00BFE6"/>
<path d="M365.873 286.428L252.09 296.378L253.085 307.751L366.869 297.801L365.873 286.428Z" fill="#FF5C4D" stroke="#FF5C4D" stroke-width="2.50749" stroke-linecap="round" stroke-linejoin="round"/>
<path d="M252.09 296.377L253.087 307.75L366.872 297.8L365.875 286.428" stroke="#4D1F1F" stroke-width="2.50749" stroke-linecap="round" stroke-linejoin="round"/>
<path d="M360.671 361.053L309.464 388.456L258.27 370.012L258.295 293.224L275.361 291.732L275.355 311.217L343.623 305.249L343.629 285.764L360.696 284.271L360.671 361.053Z" fill="#FBFCF9" stroke="#C4F5F5" stroke-width="2.50749" stroke-linecap="round" stroke-linejoin="round"/>
<path d="M247.752 292.749L247.746 292.75C245.548 292.942 243.922 294.879 244.114 297.076L245.11 308.455C245.302 310.653 247.24 312.278 249.438 312.086L249.445 312.085C251.643 311.893 253.269 309.956 253.077 307.759L252.081 296.379C251.888 294.182 249.95 292.557 247.752 292.749Z" fill="#FFE88C" stroke="#FF5C4D" stroke-width="2.50749" stroke-linecap="round" stroke-linejoin="round"/>
<path d="M244.516 301.626C244.71 303.826 246.648 305.45 248.843 305.256C251.045 305.061 252.67 303.124 252.475 300.93L252.676 303.205C252.87 305.406 251.239 307.343 249.044 307.531C246.843 307.726 244.904 306.096 244.716 303.901L244.516 301.626Z" stroke="#FF5C4D" stroke-width="2.50749" stroke-linecap="round" stroke-linejoin="round"/>
<path d="M245.117 308.445C245.312 310.645 247.25 312.269 249.445 312.075C251.647 311.88 253.271 309.943 253.077 307.749L252.079 296.376" stroke="#4D1F1F" stroke-width="2.50749" stroke-linecap="round" stroke-linejoin="round"/>
<path d="M371.189 301.434L371.196 301.433C373.394 301.241 375.02 299.304 374.828 297.107L373.832 285.727C373.639 283.53 371.701 281.905 369.503 282.097L369.497 282.097C367.299 282.29 365.673 284.227 365.865 286.424L366.861 297.803C367.053 300 368.991 301.626 371.189 301.434Z" fill="#FFE88C" stroke="#FF5C4D" stroke-width="2.50749" stroke-linecap="round" stroke-linejoin="round"/>
<path d="M374.237 290.284C374.431 292.485 372.801 294.422 370.605 294.61C368.404 294.804 366.466 293.174 366.277 290.98L366.478 293.256C366.673 295.456 368.611 297.08 370.806 296.886C373.007 296.692 374.632 294.754 374.438 292.56L374.237 290.284Z" stroke="#FF5C4D" stroke-width="2.50749" stroke-linecap="round" stroke-linejoin="round"/>
<path d="M374.832 297.105C375.026 299.305 373.395 301.242 371.2 301.43C368.999 301.625 367.06 299.995 366.872 297.8L365.875 286.428" stroke="#4D1F1F" stroke-width="2.50749" stroke-linecap="round" stroke-linejoin="round"/>
<path d="M275.289 357.129C275.979 354.001 276.337 350.101 276.337 345.443V336.553C276.337 331.876 275.985 328.033 275.295 325.023L280.984 324.528C284.34 324.234 286.962 325.393 288.831 327.983C290.694 330.597 291.628 334.453 291.628 339.556C291.628 344.684 290.694 348.747 288.825 351.712C286.956 354.697 284.334 356.333 280.978 356.628L275.289 357.123V357.129ZM280.865 352.139L281.417 352.089C283.017 351.951 284.327 350.872 285.331 348.86C286.328 346.847 286.843 343.894 286.843 339.976C286.843 336.014 286.266 332.973 285.243 331.274C284.221 329.594 282.91 328.86 281.373 328.992L280.865 329.036V352.139Z" fill="#00BFE6"/>
<path d="M304.224 351.777C303.603 349.909 303.333 347.532 303.227 345.219C303.051 341.808 302.763 338.812 300.718 338.993C299.94 339.062 299.407 339.332 299.075 339.783V343.457C299.075 345.495 299.162 347.57 299.357 349.677C299.558 351.808 299.802 353.576 300.135 354.955L293.492 355.538C294.182 352.41 294.54 348.51 294.54 343.852V334.962C294.54 330.285 294.188 326.442 293.505 323.433L300.147 322.85C299.432 325.909 299.081 329.37 299.075 333.219V335.232L300.028 335.15C301.025 335.063 301.853 334.567 302.606 333.445C303.358 332.329 303.81 330.185 303.81 327.295C303.81 325.658 303.565 324.091 303.057 322.593L308.013 322.16C308.389 323.401 308.59 324.975 308.59 326.875C308.59 331.439 306.407 336.153 301.809 336.555L301.634 336.567V336.925L302.813 336.824C305.058 336.63 306.589 337.52 307.235 338.968C307.881 340.41 308.144 342.266 308.213 344.053C308.301 346.711 308.37 349.056 309.926 348.918C310.434 348.874 310.904 348.517 311.324 347.877L311.368 353.131C310.854 354.028 309.944 354.529 308.659 354.642C306.369 354.843 304.858 353.633 304.237 351.758L304.224 351.777Z" fill="#00BFE6"/>
<path d="M313.641 353.774C314.331 350.645 314.688 346.746 314.688 342.087V333.197C314.688 328.52 314.337 324.677 313.647 321.668L320.295 321.085C319.605 324.213 319.248 328.113 319.248 332.796V341.686C319.248 346.344 319.599 350.181 320.289 353.191L313.641 353.774Z" fill="#00BFE6"/>
<path d="M323.35 352.921C324.04 349.793 324.397 345.893 324.397 341.235V332.345C324.397 327.668 324.046 323.825 323.363 320.816L329.409 320.289L332.181 327.568C332.784 328.972 333.16 330.571 333.361 332.37L333.674 332.345C333.787 331.286 334.189 329.612 334.879 327.336L337.657 319.574L343.704 319.048C343.39 320.509 343.145 322.32 342.945 324.509C342.744 326.697 342.656 328.765 342.65 330.759V339.649C342.65 341.643 342.738 343.693 342.932 345.825C343.133 347.956 343.377 349.724 343.685 351.153L337.086 351.73C337.4 350.251 337.645 348.439 337.845 346.27C338.046 344.1 338.134 342.038 338.134 340.044V331.831L337.87 331.856L334.132 344.201L332.953 344.301L329.221 332.609L328.932 332.634V340.847C328.932 345.411 329.258 349.254 329.923 352.357L323.344 352.934L323.35 352.921Z" fill="#00BFE6"/>
<path d="M339.612 122.238L288.274 149.648L237.211 131.191" stroke="#00BFE6" stroke-width="2.50749" stroke-linecap="round" stroke-linejoin="round"/>
<path d="M350.241 241.639L299.04 269.036L247.84 250.591" stroke="#00BFE6" stroke-width="2.50749" stroke-linecap="round" stroke-linejoin="round"/>
<path d="M360.671 361.052L309.464 388.455L258.27 370.011" stroke="#00BFE6" stroke-width="2.50749" stroke-linecap="round" stroke-linejoin="round"/>
<path d="M252.597 12.4721L246.375 5.85156" stroke="#FF5C4D" stroke-width="2.50749" stroke-linecap="round" stroke-linejoin="round"/>
<path d="M325.344 10.1137L331.955 1.58105" stroke="#FF5C4D" stroke-width="2.50749" stroke-linecap="round" stroke-linejoin="round"/>
<path d="M656.407 85.1016L621.194 487.397C621.094 488.576 618.717 489.328 615.894 489.077C613.072 488.833 610.864 487.679 610.964 486.5L646.177 84.2051L656.407 85.1016Z" fill="url(#paint0_linear_379_72480)" stroke="url(#paint1_linear_379_72480)" stroke-width="2.50749" stroke-linecap="round" stroke-linejoin="round"/>
<path d="M642.81 122.766L653.04 123.656L648.004 181.209L638.156 175.949L642.81 122.766Z" fill="#00BFE6" stroke="#00BFE6" stroke-width="2.50749" stroke-linecap="round" stroke-linejoin="round"/>
<path d="M634.981 212.233L645.211 213.124L640.168 270.765L630.32 265.498L634.981 212.233Z" fill="#00BFE6" stroke="#00BFE6" stroke-width="2.50749" stroke-linecap="round" stroke-linejoin="round"/>
<path d="M646.189 84.2051L656.419 85.1016L630.32 383.262" stroke="#00BFE6" stroke-width="2.50749" stroke-linecap="round" stroke-linejoin="round"/>
<path d="M652.233 84.697C658.139 84.697 662.928 79.9113 662.928 74.0077C662.928 68.1041 658.139 63.3184 652.233 63.3184C646.327 63.3184 641.539 68.1041 641.539 74.0077C641.539 79.9113 646.327 84.697 652.233 84.697Z" fill="#C4F5F5" stroke="#C4F5F5" stroke-width="2.50749" stroke-linecap="round" stroke-linejoin="round"/>
<path d="M652.703 72.739C655.066 72.739 656.981 70.8247 656.981 68.4632C656.981 66.1018 655.066 64.1875 652.703 64.1875C650.341 64.1875 648.426 66.1018 648.426 68.4632C648.426 70.8247 650.341 72.739 652.703 72.739Z" fill="#C4F5F5" stroke="#C4F5F5" stroke-width="0.626872" stroke-miterlimit="10"/>
<path d="M609.53 102.224L694.777 109.679L695.523 101.16L610.276 93.705L609.53 102.224Z" fill="#C4F5F5" stroke="#C4F5F5" stroke-width="2.50749" stroke-linecap="round" stroke-linejoin="round"/>
<path d="M695.441 102.019L694.77 109.686L609.523 102.232L610.27 93.7119" stroke="#00BFE6" stroke-width="2.50749" stroke-linecap="round" stroke-linejoin="round"/>
<path d="M695.504 101.167L704.404 97.6494L716.447 107.292L702.912 114.69L694.758 109.687L695.504 101.167Z" fill="#C4F5F5" stroke="#C4F5F5" stroke-width="2.50749" stroke-linecap="round" stroke-linejoin="round"/>
<path d="M695.504 101.167L694.758 109.687L702.912 114.69L716.447 107.292" stroke="#00BFE6" stroke-width="2.50749" stroke-linecap="round" stroke-linejoin="round"/>
<path d="M610.265 93.7134L602.111 88.7041L588.582 96.1083L600.625 105.744L609.519 102.233L610.265 93.7134Z" fill="#C4F5F5" stroke="#C4F5F5" stroke-width="2.50749" stroke-linecap="round" stroke-linejoin="round"/>
<path d="M610.265 93.7119L609.519 102.232L600.625 105.743L588.582 96.1068" stroke="#00BFE6" stroke-width="2.50749" stroke-linecap="round" stroke-linejoin="round"/>
<path d="M614.275 149.636L652.742 170.168L690.997 156.344L690.652 98.7844L677.869 97.6685L677.957 112.27L626.807 107.8L626.719 93.1921L613.93 92.0762L614.275 149.636Z" fill="#C4F5F5" stroke="#C4F5F5" stroke-width="2.50749" stroke-linecap="round" stroke-linejoin="round"/>
<path d="M635.536 142.937L635.568 139C636.101 139.658 636.722 140.191 637.449 140.599C638.152 141.025 638.798 141.257 639.388 141.314C640.096 141.376 640.692 141.182 641.181 140.743C641.658 140.304 641.896 139.684 641.903 138.906C641.915 137.652 641.181 136.235 640.228 135.082C639.739 134.511 639.225 133.872 638.673 133.163C637.537 131.759 636.546 130.574 635.9 128.8C635.587 127.928 635.424 127.044 635.43 126.135C635.442 124.336 635.976 122.932 637.048 121.954C638.102 120.976 639.444 120.543 641.062 120.687C642.53 120.813 643.778 121.333 644.769 122.23L644.738 126.167C643.784 124.982 642.706 124.342 641.526 124.242C640.836 124.179 640.241 124.361 639.783 124.8C639.306 125.239 639.068 125.809 639.062 126.518C639.049 128.511 641.194 130.411 643 132.831C644.336 134.58 645.572 136.8 645.534 139.414C645.522 141.213 644.97 142.611 643.866 143.608C642.762 144.599 641.389 145.025 639.752 144.887C638.146 144.749 636.546 144.016 635.543 142.937H635.536Z" fill="#00BFE6"/>
<path d="M647.061 145.188C647.325 144.173 647.538 142.869 647.701 141.301C647.864 139.734 647.945 138.204 647.952 136.725L648.002 130.179C648.015 128.694 647.958 127.158 647.82 125.546C647.682 123.954 647.488 122.612 647.243 121.553L652.104 121.973C654.268 122.161 655.949 123.064 657.153 124.669C658.357 126.292 658.947 128.386 658.928 130.976C658.909 133.496 658.489 135.439 657.649 136.8C656.808 138.179 655.811 138.819 654.675 138.718C652.869 138.562 651.815 137.214 651.696 134.718L651.376 134.693L651.358 137.019C651.345 138.468 651.42 139.991 651.558 141.59C651.696 143.201 651.872 144.536 652.104 145.627L647.055 145.188H647.061ZM655.303 130.468C655.315 129.001 655.021 127.803 654.418 126.844C653.816 125.885 653.076 125.377 652.217 125.302C651.828 125.27 651.539 125.44 651.458 125.433L651.414 131.383C651.439 132.342 651.621 133.201 651.953 133.935C652.267 134.668 652.706 135.07 653.264 135.12C654.531 135.226 655.284 133.615 655.309 130.462L655.303 130.468Z" fill="#00BFE6"/>
<path d="M660.172 146.324C660.711 144.111 661.006 141.284 661.031 137.854L661.081 131.309C661.107 127.867 660.862 124.989 660.354 122.688L669.474 123.478L669.969 127.416C669.21 127.039 668.201 126.782 666.934 126.676L664.569 126.469L664.519 133.259L665.397 133.334C666.795 133.453 667.843 133.478 668.539 133.409L668.508 137.183C667.78 137.008 666.651 136.857 665.115 136.726L664.487 136.669L664.475 138.481C664.45 141.547 664.701 144.305 665.221 146.757L660.172 146.318V146.324Z" fill="#00BFE6"/>
<path d="M601.695 191.704L686.941 199.159L687.687 190.64L602.44 183.186L601.695 191.704Z" fill="#C4F5F5" stroke="#C4F5F5" stroke-width="2.50749" stroke-linecap="round" stroke-linejoin="round"/>
<path d="M687.692 190.636L686.946 199.156L601.699 191.702L602.446 183.182" stroke="#00BFE6" stroke-width="2.50749" stroke-linecap="round" stroke-linejoin="round"/>
<path d="M606.324 239.093L644.685 259.619L683.047 245.801L683.053 188.273L670.27 187.157L670.264 201.752L619.12 197.276V182.68L606.33 181.564L606.324 239.093Z" fill="#C4F5F5" stroke="#C4F5F5" stroke-width="2.50749" stroke-linecap="round" stroke-linejoin="round"/>
<path d="M686.942 199.151C686.798 200.8 688.017 202.253 689.665 202.397C691.312 202.541 692.765 201.322 692.91 199.673L693.655 191.16C693.799 189.511 692.58 188.058 690.932 187.914C689.284 187.77 687.832 188.99 687.687 190.638L686.942 199.151Z" fill="#C4F5F5" stroke="#C4F5F5" stroke-width="2.50749" stroke-linecap="round" stroke-linejoin="round"/>
<path d="M692.91 199.677C692.766 201.326 691.311 202.542 689.667 202.398C688.018 202.254 686.801 200.799 686.945 199.157L687.692 190.637" stroke="#00BFE6" stroke-width="2.50749" stroke-linecap="round" stroke-linejoin="round"/>
<path d="M602.44 183.184C602.584 181.535 601.366 180.082 599.718 179.938C598.07 179.794 596.617 181.013 596.473 182.662L595.728 191.175C595.584 192.824 596.802 194.277 598.45 194.421C600.098 194.565 601.551 193.345 601.695 191.697L602.44 183.184Z" fill="#C4F5F5" stroke="#C4F5F5" stroke-width="2.50749" stroke-linecap="round" stroke-linejoin="round"/>
<path d="M595.715 191.176C595.57 192.824 596.787 194.273 598.437 194.417C600.087 194.561 601.535 193.345 601.68 191.696L602.426 183.176" stroke="#00BFE6" stroke-width="2.50749" stroke-linecap="round" stroke-linejoin="round"/>
<path d="M641.576 73.0742C641.062 78.9549 645.415 84.1397 651.298 84.6601C657.182 85.1742 662.369 80.8232 662.89 74.9425" stroke="#00BFE6" stroke-width="2.50749" stroke-linecap="round" stroke-linejoin="round"/>
<path d="M618.008 232.907C618.51 230.694 618.76 227.867 618.729 224.437L618.673 217.892C618.641 214.45 618.346 211.572 617.801 209.271L622.135 209.648C624.688 209.867 626.695 211.065 628.137 213.215C629.574 215.384 630.314 218.343 630.345 222.105C630.377 225.879 629.693 228.751 628.288 230.688C626.883 232.644 624.895 233.509 622.342 233.283L618.008 232.907ZM622.223 229.967L622.643 230.004C623.86 230.111 624.851 229.49 625.603 228.136C626.35 226.782 626.726 224.675 626.695 221.791C626.67 218.876 626.206 216.563 625.415 215.177C624.625 213.811 623.621 213.096 622.455 212.996L622.066 212.964L622.216 229.973L622.223 229.967Z" fill="#00BFE6"/>
<path d="M630.749 234.015C631.181 233.03 631.608 231.77 632.016 230.222C632.423 228.692 632.768 227.175 633.025 225.682L634.286 219.256C634.882 215.771 635.095 212.937 634.938 210.768L641.117 211.3C641.06 212.347 641.104 213.67 641.267 215.282C641.418 216.893 641.631 218.429 641.92 219.915L643.281 226.573C643.92 230.04 644.742 232.961 645.727 235.319L640.665 234.88C640.734 232.993 640.558 230.767 640.151 228.234L639.975 227.262L636.369 226.949L636.205 227.921C635.86 230.642 635.723 232.817 635.804 234.46L630.742 234.021L630.749 234.015ZM636.814 224.178L639.454 224.41L638.802 221.256C638.695 220.673 638.495 219.037 638.2 216.379L637.93 216.354C637.899 216.68 637.855 217.187 637.811 217.858C637.767 218.548 637.705 219.131 637.661 219.639C637.617 220.147 637.535 220.636 637.454 221.137L636.82 224.178H636.814Z" fill="#00BFE6"/>
<path d="M646.744 235.401C646.988 234.386 647.183 233.082 647.321 231.514C647.459 229.947 647.515 228.417 647.503 226.938L647.446 220.392C647.434 218.906 647.352 217.37 647.189 215.759C647.02 214.167 646.806 212.825 646.543 211.766L650.589 212.117L655.237 225.383L655.487 225.408L655.437 219.521C655.343 216.712 655.054 214.367 654.578 212.462L659.64 212.9C659.15 215.182 658.924 218.01 658.956 221.389L659.088 236.473L655.857 236.191L651.141 222.837L650.884 222.812L650.921 227.232C650.934 228.68 651.034 230.204 651.197 231.803C651.367 233.414 651.561 234.749 651.805 235.84L646.744 235.401Z" fill="#00BFE6"/>
<path d="M662.06 236.73C662.305 235.715 662.499 234.411 662.637 232.843C662.775 231.276 662.832 229.746 662.819 228.267L662.763 221.721C662.75 220.236 662.669 218.7 662.506 217.088C662.336 215.49 662.123 214.154 661.859 213.095L670.998 213.885L671.556 217.784C670.929 217.433 669.913 217.195 668.508 217.076L666.175 216.875L666.225 222.762L668 222.919C669.305 223.032 670.352 223.057 671.149 222.975L671.18 226.768C670.283 226.574 669.229 226.417 668.031 226.317L666.256 226.16L666.325 233.69L668.997 233.922C670.233 234.028 671.249 233.953 672.039 233.677L671.312 237.533L662.073 236.73H662.06Z" fill="#00BFE6"/>
<path d="M593.878 281.173L679.125 288.628L679.871 280.109L594.624 272.654L593.878 281.173Z" fill="#C4F5F5" stroke="#C4F5F5" stroke-width="2.50749" stroke-linecap="round" stroke-linejoin="round"/>
<path d="M679.875 280.105L679.129 288.631L593.883 281.171L594.629 272.65" stroke="#00BFE6" stroke-width="2.50749" stroke-linecap="round" stroke-linejoin="round"/>
<path d="M598.519 328.568L636.886 349.094L675.241 335.276L675.222 277.748L662.433 276.626L662.44 291.227L611.289 286.751V272.155L598.5 271.033L598.519 328.568Z" fill="#C4F5F5" stroke="#C4F5F5" stroke-width="2.50749" stroke-linecap="round" stroke-linejoin="round"/>
<path d="M679.118 288.618C678.974 290.267 680.193 291.72 681.841 291.864C683.488 292.008 684.941 290.788 685.086 289.14L685.831 280.627C685.975 278.978 684.756 277.525 683.108 277.381C681.461 277.237 680.008 278.456 679.864 280.105L679.118 288.618Z" fill="#C4F5F5" stroke="#C4F5F5" stroke-width="2.50749" stroke-linecap="round" stroke-linejoin="round"/>
<path d="M685.086 289.147C684.942 290.796 683.486 292.012 681.843 291.868C680.193 291.724 678.977 290.269 679.121 288.627L679.867 280.106" stroke="#00BFE6" stroke-width="2.50749" stroke-linecap="round" stroke-linejoin="round"/>
<path d="M594.616 272.658C594.76 271.009 593.542 269.555 591.894 269.411C590.246 269.267 588.793 270.487 588.649 272.136L587.904 280.648C587.759 282.297 588.978 283.751 590.626 283.895C592.274 284.039 593.727 282.819 593.871 281.17L594.616 272.658Z" fill="#C4F5F5" stroke="#C4F5F5" stroke-width="2.50749" stroke-linecap="round" stroke-linejoin="round"/>
<path d="M587.894 280.649C587.75 282.298 588.967 283.746 590.616 283.89C592.266 284.035 593.715 282.818 593.859 281.17L594.606 272.649" stroke="#00BFE6" stroke-width="2.50749" stroke-linecap="round" stroke-linejoin="round"/>
<path d="M615.576 322.718C616.14 320.561 616.41 317.734 616.416 314.261L616.435 302.574L615.858 302.518C614.61 302.399 613.575 302.468 612.766 302.706L613.33 298.869L623.008 299.784L623.523 303.722C622.764 303.339 621.735 303.076 620.449 302.951L619.891 302.9L619.872 314.587C619.872 318.016 620.129 320.894 620.65 323.201L615.563 322.718H615.576Z" fill="#00BFE6"/>
<path d="M630.288 324.043C629.291 323.704 628.394 323.485 627.635 323.416C626.776 323.334 625.841 323.51 624.812 323.924C625.032 322.908 625.239 321.56 625.396 319.874C625.552 318.187 625.622 316.613 625.622 315.134L625.634 308.589C625.634 307.122 625.571 305.598 625.421 303.987C625.27 302.376 625.089 301.04 624.85 299.962L629.849 300.432C629.341 302.708 629.078 305.535 629.071 308.915L629.052 320.519L631.655 320.764C632.941 320.883 633.901 320.764 634.56 320.394L634.522 324.413L634.403 324.469C634.095 324.557 633.456 324.745 632.678 324.67C632.07 324.613 631.279 324.406 630.282 324.049L630.288 324.043Z" fill="#00BFE6"/>
<path d="M635.748 323.371V319.434C636.293 320.093 636.921 320.632 637.642 321.046C638.351 321.472 638.99 321.716 639.586 321.773C640.295 321.842 640.891 321.647 641.38 321.215C641.857 320.782 642.089 320.162 642.095 319.384C642.095 318.13 641.355 316.707 640.395 315.547C639.906 314.97 639.386 314.331 638.827 313.616C637.68 312.206 636.688 311.008 636.03 309.228C635.71 308.356 635.541 307.466 635.547 306.563C635.547 304.764 636.074 303.366 637.14 302.394C638.187 301.422 639.523 301.002 641.148 301.159C642.616 301.297 643.864 301.83 644.861 302.733V306.67C643.895 305.472 642.81 304.827 641.631 304.714C640.941 304.651 640.345 304.82 639.887 305.259C639.417 305.692 639.179 306.262 639.172 306.971C639.172 308.964 641.33 310.883 643.149 313.315C644.497 315.077 645.746 317.303 645.72 319.923C645.72 321.723 645.175 323.121 644.071 324.105C642.973 325.089 641.599 325.503 639.962 325.346C638.357 325.196 636.751 324.45 635.741 323.365L635.748 323.371Z" fill="#00BFE6"/>
<path d="M646.109 325.601C646.548 324.623 646.994 323.363 647.42 321.814C647.847 320.291 648.204 318.774 648.474 317.282L649.804 310.862C650.437 307.376 650.676 304.549 650.544 302.373L656.71 302.956C656.641 304.003 656.672 305.326 656.822 306.937C656.954 308.548 657.155 310.084 657.425 311.577L658.717 318.241C659.319 321.708 660.109 324.636 661.069 327.006L656.02 326.529C656.108 324.642 655.957 322.416 655.574 319.877L655.405 318.905L651.805 318.567L651.635 319.539C651.259 322.253 651.102 324.435 651.165 326.071L646.116 325.595L646.109 325.601ZM652.281 315.815L654.916 316.065L654.295 312.906C654.195 312.316 654.012 310.686 653.743 308.022L653.473 307.997C653.442 308.323 653.385 308.831 653.335 309.501C653.285 310.191 653.216 310.774 653.166 311.282C653.115 311.79 653.028 312.272 652.946 312.78L652.281 315.815Z" fill="#00BFE6"/>
<path d="M614.266 149.638L652.733 170.17L690.988 156.346" stroke="#00BFE6" stroke-width="2.50749" stroke-linecap="round" stroke-linejoin="round"/>
<path d="M606.316 239.094L644.678 259.62L683.039 245.802" stroke="#00BFE6" stroke-width="2.50749" stroke-linecap="round" stroke-linejoin="round"/>
<path d="M598.492 328.563L636.86 349.09L675.214 335.272" stroke="#00BFE6" stroke-width="2.50749" stroke-linecap="round" stroke-linejoin="round"/>
<path d="M679.066 58.0664L682.961 51.0635" stroke="#00BFE6" stroke-width="2.50749" stroke-linecap="round" stroke-linejoin="round"/>
<path d="M693.078 73.2317L700.078 68.9502" stroke="#00BFE6" stroke-width="2.50749" stroke-linecap="round" stroke-linejoin="round"/>
<path d="M705.953 264.946L709.842 257.943" stroke="#C4F5F5" stroke-width="2.50749" stroke-linecap="round" stroke-linejoin="round"/>
<path d="M719.965 280.105L726.965 275.83" stroke="#C4F5F5" stroke-width="2.50749" stroke-linecap="round" stroke-linejoin="round"/>
<path d="M182.646 301.372L176.273 296.514" stroke="#C4F5F5" stroke-width="2.50749" stroke-linecap="round" stroke-linejoin="round"/>
<path d="M199.677 289.706L196.453 282.164" stroke="#C4F5F5" stroke-width="2.50749" stroke-linecap="round" stroke-linejoin="round"/>
<path d="M433.664 80.0592C433.871 79.3634 434.185 78.6927 434.586 78.0909C435.483 76.7494 436.825 75.7401 438.337 75.2637" stroke="#00BFE6" stroke-width="2.50749" stroke-linecap="round" stroke-linejoin="round"/>
<path d="M437.705 150.984H447.948C451.918 150.984 455.136 147.924 455.136 144.15V137.931C455.136 136.796 454.17 135.881 452.978 135.881H432.681C431.489 135.881 430.523 136.796 430.523 137.931V144.15C430.523 147.924 433.741 150.984 437.712 150.984H437.705Z" fill="#FF5C4D"/>
<path d="M464.734 99.217C466.408 107.944 466.239 120.439 460.086 135.417C458.625 138.978 455.2 141.291 451.418 141.291H428.217C419.467 123.705 419.015 109.066 420.903 99.2232C422.935 88.6154 432.256 81.1172 442.812 81.1172C453.368 81.1172 462.689 88.6154 464.721 99.2232L464.734 99.217Z" fill="#FF5C4D"/>
<path d="M464.738 106.065C462.705 96.2095 453.385 89.2441 442.829 89.2441C432.272 89.2441 422.952 96.2095 420.92 106.065C419.922 110.892 419.584 116.967 420.769 124.027C421.359 127.55 425.686 136.164 428.352 141.236C429.613 143.631 432.185 145.148 435.007 145.148H450.675C453.485 145.148 456.057 143.644 457.318 141.255C459.964 136.252 464.248 127.795 464.844 124.34C466.092 117.149 465.754 110.968 464.744 106.071L464.738 106.065Z" fill="#FFBB99"/>
<path d="M435.008 145.15H450.676C453.486 145.15 456.058 143.645 457.318 141.256C459.965 136.253 464.249 127.79 464.851 124.335V117.508C464.851 117.508 458.937 129.238 456.892 133.313C455.154 136.786 451.466 138.999 447.427 138.999H438.508C434.462 138.999 430.78 136.786 429.043 133.313C427.651 130.536 420.023 117.508 420.023 117.508L420.776 124.028C421.366 127.545 425.694 136.166 428.366 141.238C429.626 143.632 432.198 145.15 435.021 145.15H435.008Z" fill="#FF5C4D"/>
<path d="M464.738 106.065C462.705 96.2095 453.385 89.2441 442.829 89.2441C432.272 89.2441 422.952 96.2095 420.92 106.065C419.922 110.892 419.584 116.967 420.769 124.027C421.359 127.55 425.686 136.164 428.352 141.236C429.613 143.631 432.185 145.148 435.007 145.148H450.675C453.485 145.148 456.057 143.644 457.318 141.255C459.964 136.252 464.248 127.795 464.844 124.34C466.092 117.149 465.754 110.968 464.744 106.071L464.738 106.065Z" stroke="#4D1F1F" stroke-width="2.50749" stroke-linecap="round" stroke-linejoin="round"/>
<path d="M427.711 101.47C430.803 100.392 435.501 100.981 438.085 102.987L438.242 101.57L432.973 101.063" stroke="#4D1F1F" stroke-width="2.50749" stroke-linecap="round" stroke-linejoin="round"/>
<path d="M457.617 101.578C454.55 100.43 449.846 100.938 447.211 102.881L447.086 101.458L452.819 101.032" stroke="#4D1F1F" stroke-width="2.50749" stroke-linecap="round" stroke-linejoin="round"/>
<path d="M446.939 94.7061L442.831 96.2798L438.723 94.7061C435.612 93.515 433.648 91.0762 433.648 88.4054V79.8477H452.013V88.4054C452.013 91.0699 450.05 93.5087 446.939 94.7061Z" fill="#FFE88C"/>
<path d="M445.175 86.3033C446.442 86.3033 447.47 85.5146 447.47 84.5418C447.47 83.5689 446.442 82.7803 445.175 82.7803C443.907 82.7803 442.879 83.5689 442.879 84.5418C442.879 85.5146 443.907 86.3033 445.175 86.3033Z" fill="#FF5C4D"/>
<path d="M452.013 79.8486V88.4064C452.013 91.0709 450.05 93.5097 446.939 94.7071L442.831 96.2807L438.723 94.7071C435.612 93.5159 433.648 91.0771 433.648 88.4064V79.8486" stroke="#4D1F1F" stroke-width="2.50749" stroke-linecap="round" stroke-linejoin="round"/>
<path d="M411.371 84.5407L406.918 80.0586" stroke="#4D1F1F" stroke-width="2.50749" stroke-linecap="round" stroke-linejoin="round"/>
<path d="M441.52 110.747L433.98 115.274L438.923 120.22" stroke="#4D1F1F" stroke-width="2.50749" stroke-linecap="round" stroke-linejoin="round"/>
<path d="M437.197 107.536C435.955 106.264 434.399 105.555 432.844 105.549C431.288 105.543 429.726 106.245 428.484 107.505" stroke="#4D1F1F" stroke-width="2.50749" stroke-linecap="round" stroke-linejoin="round"/>
<path d="M456.345 107.372C455.059 106.143 453.479 105.497 451.923 105.548C450.368 105.598 448.831 106.356 447.633 107.666" stroke="#4D1F1F" stroke-width="2.50749" stroke-linecap="round" stroke-linejoin="round"/>
<path d="M432.836 107.473V109.171" stroke="#4D1F1F" stroke-width="3.76123" stroke-linecap="round" stroke-linejoin="round"/>
<path d="M451.945 107.473V109.171" stroke="#4D1F1F" stroke-width="3.76123" stroke-linecap="round" stroke-linejoin="round"/>
<path d="M413.395 113.405C417.647 113.054 421.103 109.631 422.941 105.787C424.779 101.944 425.368 97.6435 426.353 93.4932C427.338 89.3491 428.875 85.1047 432.073 82.2897C432.073 82.2897 423.574 81.0735 416.75 96.2768" fill="#4D1F1F"/>
<path d="M413.395 113.405C417.647 113.054 421.103 109.631 422.941 105.787C424.779 101.944 425.368 97.6435 426.353 93.4932C427.338 89.3491 428.875 85.1047 432.073 82.2897C432.073 82.2897 423.574 81.0735 416.75 96.2768" stroke="#4D1F1F" stroke-width="2.50749" stroke-linecap="round" stroke-linejoin="round"/>
<path d="M454 82.4801C458.297 81.8281 462.888 83.6964 465.503 87.1634C467.517 89.8279 468.332 93.1883 468.94 96.4735C469.549 99.7586 470.013 103.125 471.468 106.135C472.917 109.144 475.595 111.796 478.907 112.216" stroke="#00BFE6" stroke-width="2.50749" stroke-linecap="round" stroke-linejoin="round"/>
<path d="M444.367 125.208C447.409 126.236 450.947 125.679 453.525 123.767" stroke="#4D1F1F" stroke-width="2.50749" stroke-linecap="round" stroke-linejoin="round"/>
</g>
<defs>
<linearGradient id="paint0_linear_379_72480" x1="633.684" y1="84.2051" x2="633.684" y2="489.125" gradientUnits="userSpaceOnUse">
<stop stop-color="#C4F5F5"/>
<stop offset="1" stop-color="#DAF8F7"/>
</linearGradient>
<linearGradient id="paint1_linear_379_72480" x1="633.684" y1="84.2051" x2="633.684" y2="489.125" gradientUnits="userSpaceOnUse">
<stop offset="0.68" stop-color="#C4F5F5"/>
<stop offset="1" stop-color="#DAF8F7"/>
</linearGradient>
<clipPath id="clip0_379_72480">
<rect width="727" height="576" fill="white"/>
</clipPath>
</defs>
</svg>
