<svg width="506" height="326" viewBox="0 0 506 326" fill="none" xmlns="http://www.w3.org/2000/svg">
<path d="M34.5838 117.068C32.8017 113.263 34.4583 108.719 38.2798 106.942C42.095 105.165 46.6506 106.817 48.4327 110.628L75.7478 169.04C77.5299 172.845 75.8733 177.389 72.0518 179.166C68.2366 180.943 63.681 179.291 61.8989 175.48L34.5838 117.068Z" fill="#00BFE6" stroke="#00BFE6" stroke-width="2.5" stroke-linecap="round" stroke-linejoin="round"/>
<path d="M39.2734 109.071C41.9152 107.845 45.0653 108.984 46.3015 111.625L73.6165 170.037C74.8464 172.672 73.7044 175.813 71.0563 177.046" stroke="#C4F5F5" stroke-width="2.5" stroke-linecap="round" stroke-linejoin="round"/>
<path d="M72.0518 179.165C68.2366 180.943 63.681 179.29 61.8989 175.479L34.5838 117.067C32.8017 113.262 34.4583 108.719 38.2798 106.941" stroke="#4D1F1F" stroke-width="2.5" stroke-linecap="round" stroke-linejoin="round"/>
<path d="M8.09992 102.117C2.21397 89.5258 7.69203 74.5065 20.3173 68.6365C32.9426 62.7665 48.0026 68.2296 53.8886 80.8207L66.3006 107.374C72.1865 119.965 66.7084 134.984 54.0831 140.854C41.4578 146.724 26.3978 141.261 20.5118 128.67L8.09992 102.117ZM40.0459 87.2541C37.7179 82.279 31.763 80.1136 26.7743 82.4353C21.7857 84.757 19.6145 90.6958 21.9425 95.671L34.3608 122.224C36.6888 127.199 42.6438 129.364 47.6324 127.043C52.6211 124.721 54.7922 118.782 52.4642 113.807L40.0459 87.2541Z" fill="#00BFE6" stroke="#00BFE6" stroke-width="2.5" stroke-linecap="round" stroke-linejoin="round"/>
<path d="M21.3191 70.7567C32.7709 65.4311 46.4316 70.3872 51.7716 81.8081L64.1836 108.361C69.5236 119.782 64.5538 133.405 53.1019 138.731M25.7868 80.3127C19.6185 83.1788 16.9454 90.5132 19.8193 96.6648L32.2376 123.217C35.1115 129.369 42.4658 132.035 48.6341 129.169" stroke="#C4F5F5" stroke-width="2.5" stroke-linecap="round" stroke-linejoin="round"/>
<path d="M54.0831 140.853C41.4578 146.723 26.3978 141.26 20.5118 128.669L8.09992 102.116C2.21397 89.525 7.69203 74.5058 20.3173 68.6357" stroke="#4D1F1F" stroke-width="2.5" stroke-linecap="round" stroke-linejoin="round"/>
<path d="M47.6315 127.044C52.6202 124.722 54.7913 118.783 52.4633 113.808L40.045 87.2551C37.717 82.2799 31.7621 80.1145 26.7734 82.4363" stroke="#4D1F1F" stroke-width="2.5" stroke-linecap="round" stroke-linejoin="round"/>
<path d="M232.526 261.191C238.952 248.869 254.237 244.057 266.599 250.465C278.955 256.873 283.78 272.118 277.354 284.446L263.801 310.436C257.375 322.758 242.089 327.57 229.727 321.162C217.366 314.754 212.546 299.509 218.972 287.181L232.526 261.191ZM263.794 277.412C266.336 272.537 264.428 266.511 259.54 263.976C254.652 261.442 248.609 263.344 246.067 268.219L232.513 294.208C229.972 299.083 231.88 305.104 236.768 307.645C241.656 310.179 247.699 308.277 250.24 303.408L263.794 277.418V277.412Z" fill="#00BFE6" stroke="#4D1F1F" stroke-width="2.5" stroke-linecap="round" stroke-linejoin="round"/>
<path d="M259.727 264.075C264.54 266.697 266.203 272.805 263.674 277.655L250.245 303.401C250.779 302.512 251.808 302.049 252.824 302.224L260.398 303.557C263.567 304.114 265.286 307.581 263.799 310.429L277.353 284.439C283.779 272.117 278.96 256.873 266.598 250.458C261.528 247.83 255.968 247.091 250.728 247.98L247.516 266.159C250.528 262.811 255.567 261.804 259.727 264.063V264.075Z" fill="#4D1F1F" stroke="#4D1F1F" stroke-width="2.5" stroke-linecap="round" stroke-linejoin="round"/>
<path d="M281.606 52.0107C267.889 49.6013 258.696 36.5032 261.112 22.8232C263.528 9.14317 276.661 -0.0249228 290.379 2.38441L319.306 7.47211C333.024 9.88145 342.216 22.9796 339.8 36.6596C337.385 50.3396 324.251 59.5077 310.534 57.0984L281.606 52.0107ZM287.731 17.3911C282.309 16.4399 277.12 20.0634 276.159 25.4703C275.206 30.8773 278.839 36.0526 284.26 37.0101L313.188 42.0978C318.61 43.049 323.799 39.4258 324.759 34.0189C325.713 28.6119 322.08 23.4363 316.658 22.4788L287.731 17.3911Z" fill="#00BFE6" stroke="#00BFE6" stroke-width="2.5" stroke-linecap="round" stroke-linejoin="round"/>
<path d="M263.422 23.2292C265.618 10.8195 277.522 2.50254 289.965 4.69284L318.893 9.78054C331.336 11.9708 339.676 23.8425 337.479 36.2521M273.838 25.0629C272.659 31.7464 277.145 38.142 283.847 39.3185L312.775 44.4062C319.477 45.5827 325.883 41.1084 327.069 34.4248" stroke="#C4F5F5" stroke-width="2.5" stroke-linecap="round" stroke-linejoin="round"/>
<path d="M339.8 36.6596C337.385 50.3397 324.251 59.5077 310.534 57.0984L281.606 52.0107C267.889 49.6014 258.696 36.5033 261.112 22.8232" stroke="#4D1F1F" stroke-width="2.5" stroke-linecap="round" stroke-linejoin="round"/>
<path d="M324.756 34.0135C325.71 28.6065 322.077 23.4312 316.655 22.4737L287.727 17.386C282.306 16.4348 277.116 20.058 276.156 25.4649" stroke="#4D1F1F" stroke-width="2.5" stroke-linecap="round" stroke-linejoin="round"/>
<path d="M308.06 35.5531C306.278 31.7483 307.935 27.2048 311.756 25.4275C315.571 23.6503 320.127 25.3025 321.909 29.1136L349.224 87.5261C351.006 91.331 349.35 95.8741 345.528 97.6514C341.707 99.4287 337.158 97.7765 335.375 93.9654L308.06 35.5531Z" fill="#00BFE6" stroke="#00BFE6" stroke-width="2.5" stroke-linecap="round" stroke-linejoin="round"/>
<path d="M312.742 27.5567C315.384 26.3301 318.534 27.4691 319.77 30.11L347.085 88.5223C348.315 91.1569 347.173 94.2982 344.525 95.5311" stroke="#C4F5F5" stroke-width="2.5" stroke-linecap="round" stroke-linejoin="round"/>
<path d="M345.528 97.6506C341.713 99.4279 337.158 97.7757 335.375 93.9646L308.06 35.5523C306.278 31.7475 307.935 27.204 311.756 25.4268" stroke="#4D1F1F" stroke-width="2.5" stroke-linecap="round" stroke-linejoin="round"/>
<path d="M411.598 270.717C397.881 268.307 388.688 255.209 391.104 241.529C393.52 227.849 406.654 218.681 420.371 221.09L449.299 226.178C463.016 228.588 472.209 241.686 469.793 255.366C467.377 269.046 454.243 278.214 440.526 275.804L411.598 270.717ZM417.717 236.097C412.295 235.146 407.105 238.769 406.145 244.176C405.185 249.583 408.825 254.759 414.246 255.716L443.174 260.804C448.596 261.755 453.785 258.132 454.745 252.725C455.705 247.318 452.066 242.142 446.644 241.185L417.717 236.097Z" fill="#00BFE6" stroke="#00BFE6" stroke-width="2.5" stroke-linecap="round" stroke-linejoin="round"/>
<path d="M469.793 255.372C467.377 269.052 454.243 278.22 440.526 275.81L411.598 270.723C397.881 268.313 388.688 255.215 391.104 241.535" stroke="#4D1F1F" stroke-width="2.5" stroke-linecap="round" stroke-linejoin="round"/>
<path d="M454.748 252.724C455.702 247.317 452.069 242.141 446.647 241.184L417.72 236.096C412.298 235.145 407.109 238.768 406.148 244.175" stroke="#4D1F1F" stroke-width="2.5" stroke-linecap="round" stroke-linejoin="round"/>
<path d="M433.316 264.515C434.847 261.549 438.135 259.922 441.436 260.497L414.246 255.716C408.825 254.765 405.185 249.583 406.145 244.176L391.104 241.529C388.688 255.209 397.881 268.307 411.598 270.717L438.788 275.498C433.718 274.609 430.969 269.071 433.322 264.509L433.316 264.515Z" fill="#4D1F1F" stroke="#4D1F1F" stroke-width="2.5" stroke-linecap="round" stroke-linejoin="round"/>
<path d="M393.422 241.935C395.618 229.526 407.522 221.209 419.965 223.399L448.893 228.487C461.336 230.677 469.676 242.549 467.479 254.958" stroke="#C4F5F5" stroke-width="2.5" stroke-linecap="round" stroke-linejoin="round"/>
<path d="M393.172 317.935L22.8717 252.82C19.6777 252.257 18.1717 249.691 19.5146 247.094L121.634 49.2408C122.977 46.6375 126.654 44.9854 129.854 45.5486L500.155 110.663C503.349 111.226 504.855 113.792 503.512 116.389L401.392 314.243C400.05 316.846 396.372 318.498 393.172 317.935Z" fill="#C4F5F5" stroke="#C4F5F5" stroke-width="2.5" stroke-linecap="round" stroke-linejoin="round"/>
<path d="M388.914 308.258L18.6139 243.144C15.42 242.58 13.9139 240.014 15.2568 237.417L117.376 39.564C118.719 36.9607 122.396 35.3086 125.596 35.8719L495.897 100.986C499.091 101.55 500.597 104.115 499.254 106.712L397.135 304.566C395.792 307.169 392.114 308.821 388.914 308.258Z" fill="#C4F5F5" stroke="#C4F5F5" stroke-width="2.5" stroke-linecap="round" stroke-linejoin="round"/>
<path d="M384.656 298.585L14.3561 233.471C11.1621 232.908 9.65611 230.342 10.999 227.744L113.118 29.8912C114.461 27.2878 118.138 25.6358 121.339 26.199L491.639 91.3136C494.833 91.8768 496.339 94.4425 494.996 97.0396L392.877 294.893C391.534 297.497 387.857 299.149 384.656 298.585Z" fill="#C4F5F5" stroke="#C4F5F5" stroke-width="2.5" stroke-linecap="round" stroke-linejoin="round"/>
<path d="M380.407 288.915L10.1061 223.801C6.91209 223.238 5.40611 220.672 6.74896 218.075L108.868 20.2213C110.211 17.6179 113.888 15.9659 117.089 16.5291L487.389 81.6436C490.583 82.2069 492.089 84.7729 490.746 87.37L388.627 285.223C387.284 287.827 383.607 289.479 380.407 288.915Z" fill="#C4F5F5" stroke="#C4F5F5" stroke-width="2.5" stroke-linecap="round" stroke-linejoin="round"/>
<path d="M380.407 288.915L10.1061 223.801C6.91209 223.238 5.40611 220.672 6.74896 218.075L108.868 20.2213C110.211 17.6179 113.888 15.9659 117.089 16.5291L487.389 81.6436C490.583 82.2069 492.089 84.7729 490.746 87.37L388.627 285.223C387.284 287.827 383.607 289.479 380.407 288.915Z" fill="#C4F5F5" stroke="#C4F5F5" stroke-width="2.5" stroke-linecap="round" stroke-linejoin="round"/>
<path d="M376.149 279.241L5.84825 214.126C2.65428 213.563 1.14829 210.997 2.49114 208.4L104.611 10.5465C105.953 7.94312 109.63 6.29107 112.831 6.85429L483.131 71.9688C486.325 72.5321 487.831 75.0978 486.488 77.6949L384.369 275.548C383.026 278.152 379.349 279.804 376.149 279.241Z" fill="#FBFCF9" stroke="#C4F5F5" stroke-width="2.5" stroke-linecap="round" stroke-linejoin="round"/>
<path d="M308.404 202.624L265.357 148.404C256.898 137.753 238.6 134.593 221.507 140.832L134.586 172.554" fill="#FBFCF9"/>
<path d="M308.404 202.624L265.357 148.404C256.898 137.753 238.6 134.593 221.507 140.832L134.586 172.554" stroke="#00BFE6" stroke-width="2.5" stroke-linecap="round" stroke-linejoin="round"/>
<path d="M112.078 14.4199L217.919 148.266C226.321 158.949 244.594 162.159 261.699 155.964L476.593 78.5209" fill="#FBFCF9"/>
<path d="M112.078 14.4199L217.919 148.266C226.321 158.949 244.594 162.159 261.699 155.964L476.593 78.5209" stroke="#00BFE6" stroke-width="2.5" stroke-linecap="round" stroke-linejoin="round"/>
<path d="M89.9374 136.349L118.865 141.437C129.966 143.39 140.671 137.758 145.641 128.295L187.884 135.723C192.032 136.456 196.004 133.684 196.732 129.547C197.46 125.41 194.686 121.449 190.538 120.723L148.295 113.295C146.87 102.706 138.738 93.7635 127.644 91.811L98.7161 86.7233C87.6156 84.7708 76.9105 90.403 71.9407 99.8651L59.6355 97.6999L52.3125 111.881L69.2864 114.866C70.7108 125.454 78.8432 134.397 89.9374 136.349ZM93.3322 103.626L89.3224 102.919C91.2865 101.78 93.6459 101.298 96.0555 101.724L124.983 106.812C127.393 107.237 129.445 108.495 130.901 110.235L126.891 109.527C122.743 108.795 118.771 111.568 118.043 115.704C117.315 119.841 120.089 123.802 124.237 124.528L128.246 125.235C126.282 126.374 123.923 126.856 121.513 126.431L92.5855 121.343C90.1759 120.917 88.1239 119.659 86.6681 117.92L90.6779 118.627C94.8256 119.359 98.7977 116.586 99.5256 112.45C100.26 108.313 97.48 104.352 93.3322 103.626Z" fill="#4D1F1F" stroke="#4D1F1F" stroke-width="2.5" stroke-linecap="round" stroke-linejoin="round"/>
<path d="M426.016 162.135C424.592 151.546 416.459 142.603 405.365 140.651L376.437 135.563C365.337 133.611 354.632 139.243 349.662 148.705L307.419 141.277C303.271 140.544 299.299 143.317 298.571 147.453C297.837 151.59 300.616 155.551 304.764 156.277L347.007 163.706C348.432 174.294 356.564 183.237 367.659 185.189L396.586 190.277C407.687 192.23 418.392 186.597 423.362 177.135L434.18 179.038L441.503 164.857L426.022 162.135H426.016ZM401.958 173.374L405.967 174.081C404.003 175.22 401.644 175.702 399.234 175.276L370.307 170.189C367.897 169.763 365.845 168.505 364.389 166.766L368.399 167.473C372.547 168.205 376.519 165.433 377.247 161.296C377.981 157.16 375.201 153.198 371.053 152.472L367.044 151.765C369.008 150.626 371.367 150.144 373.777 150.57L402.704 155.658C405.114 156.083 407.166 157.341 408.622 159.081L404.612 158.374C400.464 157.642 396.492 160.414 395.764 164.55C395.03 168.687 397.81 172.648 401.958 173.374Z" fill="#4D1F1F" stroke="#4D1F1F" stroke-width="2.5" stroke-linecap="round" stroke-linejoin="round"/>
<path d="M261.62 92.801C265.366 94.716 269.978 93.2265 271.898 89.4905L297.632 39.3451L281.894 36.5791L258.307 82.5505C256.387 86.2865 257.88 90.8861 261.626 92.801H261.62Z" fill="#4D1F1F" stroke="#4D1F1F" stroke-width="2.5" stroke-linecap="round" stroke-linejoin="round"/>
<path d="M206.779 198.211C203.033 196.296 198.421 197.785 196.501 201.521L174.789 243.832L190.527 246.598L210.098 208.462C212.019 204.725 210.525 200.126 206.779 198.211Z" fill="#4D1F1F" stroke="#4D1F1F" stroke-width="2.5" stroke-linecap="round" stroke-linejoin="round"/>
<path d="M171.547 162.178C174.264 168.711 178.92 174.6 185.433 179.4L207.917 195.99L242.36 189.407" stroke="#4D1F1F" stroke-width="2.5" stroke-linecap="round" stroke-linejoin="round"/>
<path d="M499.257 106.712L397.138 304.565C395.795 307.169 392.118 308.821 388.917 308.258L18.6172 243.143" stroke="#00BFE6" stroke-width="2.5" stroke-linecap="round" stroke-linejoin="round"/>
<path d="M495.007 97.0381L392.888 294.892C391.545 297.495 387.868 299.147 384.667 298.584L14.3672 233.469" stroke="#00BFE6" stroke-width="2.5" stroke-linecap="round" stroke-linejoin="round"/>
<path d="M490.749 87.3633L388.63 285.217C387.287 287.82 383.61 289.472 380.41 288.909L10.1094 223.794" stroke="#00BFE6" stroke-width="2.5" stroke-linecap="round" stroke-linejoin="round"/>
<path d="M503.507 116.383L401.388 314.236C400.045 316.839 396.368 318.492 393.168 317.929L22.8672 252.814" stroke="#00BFE6" stroke-width="2.5" stroke-linecap="round" stroke-linejoin="round"/>
<path d="M190.522 246.598L208.312 285.272L161.688 276.799L149.634 251.016C147.143 245.691 151.699 239.77 157.503 240.79L190.522 246.598Z" fill="#4D1F1F" stroke="#4D1F1F" stroke-width="2.5" stroke-linecap="round" stroke-linejoin="round"/>
<path d="M142.428 271.641C136.542 259.05 142.02 244.031 154.645 238.161C167.271 232.291 182.331 237.754 188.217 250.345L200.629 276.898C206.515 289.489 201.037 304.508 188.411 310.378C175.786 316.248 160.726 310.785 154.84 298.194L142.428 271.641ZM174.38 256.785C172.052 251.81 166.097 249.644 161.109 251.966C156.12 254.288 153.949 260.227 156.277 265.202L168.695 291.754C171.023 296.729 176.978 298.895 181.967 296.573C186.955 294.251 189.127 288.313 186.799 283.338L174.38 256.785Z" fill="#00BFE6" stroke="#00BFE6" stroke-width="2.5" stroke-linecap="round" stroke-linejoin="round"/>
<path d="M155.639 240.283C167.091 234.957 180.752 239.914 186.092 251.335L198.504 277.888C203.844 289.308 198.874 302.932 187.422 308.258M160.107 249.839C153.939 252.705 151.266 260.04 154.14 266.191L166.558 292.744C169.432 298.896 176.786 301.562 182.954 298.696" stroke="#C4F5F5" stroke-width="2.5" stroke-linecap="round" stroke-linejoin="round"/>
<path d="M188.411 310.38C175.786 316.25 160.726 310.786 154.84 298.195L142.428 271.643C136.542 259.051 142.02 244.032 154.645 238.162" stroke="#4D1F1F" stroke-width="2.5" stroke-linecap="round" stroke-linejoin="round"/>
<path d="M181.96 296.574C186.948 294.252 189.119 288.313 186.791 283.338L174.373 256.785C172.045 251.81 166.09 249.645 161.102 251.967" stroke="#4D1F1F" stroke-width="2.5" stroke-linecap="round" stroke-linejoin="round"/>
<path d="M263.225 87.9628C261.305 91.6988 256.693 93.1882 252.947 91.2733C249.2 89.3583 247.707 84.7588 249.627 81.0227L279.069 23.6491C280.99 19.9131 285.602 18.4236 289.348 20.3386C293.094 22.2536 294.587 26.8531 292.667 30.5892L263.225 87.9628Z" fill="#00BFE6" stroke="#00BFE6" stroke-width="2.5" stroke-linecap="round" stroke-linejoin="round"/>
<path d="M254.019 89.1825C251.421 87.8558 250.392 84.6765 251.722 82.0857L281.165 24.7124C282.495 22.1216 285.683 21.0952 288.28 22.4219" stroke="#C4F5F5" stroke-width="2.5" stroke-linecap="round" stroke-linejoin="round"/>
<path d="M289.347 20.332C293.093 22.247 294.586 26.8466 292.666 30.5826L263.224 87.9562C261.304 91.6922 256.691 93.1817 252.945 91.2667" stroke="#4D1F1F" stroke-width="2.5" stroke-linecap="round" stroke-linejoin="round"/>
<path d="M176.42 295.127C172.273 294.394 169.493 290.439 170.227 286.303C170.961 282.166 174.927 279.394 179.075 280.126L242.722 291.316C246.87 292.048 249.65 296.003 248.915 300.14C248.181 304.276 244.215 307.048 240.068 306.316L176.42 295.127Z" fill="#00BFE6" stroke="#00BFE6" stroke-width="2.5" stroke-linecap="round" stroke-linejoin="round"/>
<path d="M172.547 286.71C173.055 283.843 175.804 281.929 178.671 282.429L242.319 293.618C245.193 294.125 247.113 296.866 246.611 299.726" stroke="#C4F5F5" stroke-width="2.5" stroke-linecap="round" stroke-linejoin="round"/>
<path d="M248.915 300.146C248.181 304.283 244.215 307.055 240.068 306.323L176.42 295.133C172.273 294.401 169.493 290.446 170.227 286.31" stroke="#4D1F1F" stroke-width="2.5" stroke-linecap="round" stroke-linejoin="round"/>
<path d="M434.18 179.036L451.486 217.173L475.193 171.12L462.467 142.139L438.403 170.857L434.18 179.036Z" fill="#4D1F1F" stroke="#4D1F1F" stroke-width="2.5" stroke-linecap="round" stroke-linejoin="round"/>
<path d="M86.3874 126.801C72.6703 124.392 63.4774 111.294 65.8933 97.6139C68.3091 83.9339 81.4427 74.7661 95.1599 77.1754L124.088 82.2631C137.805 84.6725 146.998 97.7706 144.582 111.451C142.166 125.131 129.032 134.298 115.315 131.889L86.3874 126.801ZM92.5056 92.1822C87.084 91.2309 81.8945 94.8541 80.9344 100.261C79.9806 105.668 83.6139 110.843 89.0355 111.801L117.963 116.889C123.385 117.84 128.574 114.217 129.534 108.81C130.488 103.403 126.855 98.2273 121.433 97.2698L92.5056 92.1822Z" fill="#00BFE6" stroke="#00BFE6" stroke-width="2.5" stroke-linecap="round" stroke-linejoin="round"/>
<path d="M68.2031 98.0199C70.3994 85.6102 82.3031 77.2936 94.7464 79.4839L123.674 84.5716C136.117 86.7619 144.457 98.6332 142.261 111.043M78.6197 99.8536C77.44 106.537 81.9266 112.927 88.6283 114.11L117.556 119.197C124.258 120.374 130.671 115.899 131.851 109.216" stroke="#C4F5F5" stroke-width="2.5" stroke-linecap="round" stroke-linejoin="round"/>
<path d="M144.582 111.451C142.166 125.131 129.032 134.299 115.315 131.889L86.3874 126.802C72.6703 124.392 63.4774 111.294 65.8933 97.6143" stroke="#4D1F1F" stroke-width="2.5" stroke-linecap="round" stroke-linejoin="round"/>
<path d="M129.537 108.805C130.491 103.398 126.858 98.2222 121.436 97.2647L92.5086 92.177C87.087 91.2258 81.8976 94.8493 80.9375 100.256" stroke="#4D1F1F" stroke-width="2.5" stroke-linecap="round" stroke-linejoin="round"/>
<path d="M184.341 126.176C188.489 126.908 192.461 124.136 193.189 120C193.923 115.863 191.143 111.902 186.996 111.176L123.348 99.9864C119.2 99.2542 115.228 102.027 114.5 106.163C113.766 110.3 116.546 114.261 120.694 114.987L184.341 126.176Z" fill="#00BFE6" stroke="#00BFE6" stroke-width="2.5" stroke-linecap="round" stroke-linejoin="round"/>
<path d="M190.869 119.592C191.377 116.726 189.45 113.991 186.576 113.485L122.929 102.295C120.055 101.788 117.313 103.71 116.805 106.576" stroke="#C4F5F5" stroke-width="2.5" stroke-linecap="round" stroke-linejoin="round"/>
<path d="M114.5 106.162C113.766 110.299 116.546 114.26 120.694 114.986L184.341 126.175C188.489 126.907 192.461 124.135 193.189 119.999" stroke="#4D1F1F" stroke-width="2.5" stroke-linecap="round" stroke-linejoin="round"/>
<path d="M87.1416 109.085C91.2893 109.817 95.2614 107.045 95.9893 102.909C96.7235 98.772 93.9436 94.8109 89.7959 94.085L31.9341 83.9093C27.7863 83.1771 23.8143 85.9495 23.0864 90.086C22.3522 94.2226 25.132 98.184 29.2798 98.9099L87.1416 109.085Z" fill="#00BFE6" stroke="#00BFE6" stroke-width="2.5" stroke-linecap="round" stroke-linejoin="round"/>
<path d="M93.669 102.495C94.1772 99.6292 92.2508 96.8943 89.3769 96.3874L31.515 86.212C28.6411 85.7051 25.8989 87.6262 25.3906 90.4924" stroke="#C4F5F5" stroke-width="2.5" stroke-linecap="round" stroke-linejoin="round"/>
<path d="M23.0864 90.085C22.3522 94.2215 25.132 98.1829 29.2798 98.9088L87.1416 109.084C91.2893 109.816 95.2614 107.044 95.9893 102.907" stroke="#4D1F1F" stroke-width="2.5" stroke-linecap="round" stroke-linejoin="round"/>
<path d="M205.464 218.011L182.981 201.421C165.838 188.767 161.527 168.641 171.724 148.885L203.406 87.5059L330.694 109.891L299.012 171.269C288.815 191.026 266.169 206.415 239.908 211.434L205.464 218.017V218.011Z" fill="#4D1F1F" stroke="#4D1F1F" stroke-width="2.5" stroke-linecap="round" stroke-linejoin="round"/>
<path d="M317.923 80.8662L167.461 139.21C165.014 143.953 163.408 148.722 162.611 153.403L156.398 155.362L164.832 174.517C167.549 181.051 174.314 187.309 180.827 192.115L203.31 208.705L235.645 201.752C261.906 196.733 284.553 181.345 294.75 161.595L326.432 100.21L317.923 80.8662Z" fill="#FF5C4D" stroke="#FF5C4D" stroke-width="2.5" stroke-linecap="round" stroke-linejoin="round"/>
<path d="M192.691 188.991L170.208 172.401C153.064 159.747 148.753 139.622 158.95 119.865L190.633 58.4863L317.921 80.8713L286.239 142.25C276.042 162.007 253.395 177.395 227.134 182.414L192.691 188.997V188.991Z" fill="#FFE28D" stroke="#FF5C4D" stroke-width="2.5" stroke-linecap="round" stroke-linejoin="round"/>
<path d="M264.519 116.613C262.411 120.699 256.625 123.303 251.605 122.414C246.585 121.532 244.226 117.501 246.334 113.415C248.443 109.328 254.228 106.725 259.248 107.613C264.268 108.502 266.628 112.526 264.519 116.613Z" fill="#FF5C4D" stroke="#FF5C4D" stroke-width="2.5" stroke-linecap="round" stroke-linejoin="round"/>
<path d="M262.449 111.485C260.341 115.572 254.555 118.175 249.535 117.287C244.515 116.404 242.156 112.374 244.264 108.288C246.372 104.201 252.158 101.598 257.178 102.486C262.198 103.369 264.557 107.399 262.449 111.485Z" fill="#FFE28D" stroke="#FF5C4D" stroke-width="2.5" stroke-linecap="round" stroke-linejoin="round"/>
<path d="M246.149 112.626C245.672 111.668 245.741 110.542 246.35 109.365C247.736 106.681 251.52 104.659 255.16 104.659C255.712 104.659 256.252 104.703 256.766 104.797C258.586 105.116 259.966 105.979 260.556 107.156" stroke="#FBFCF9" stroke-width="2.5" stroke-linecap="round" stroke-linejoin="round"/>
<path d="M192.691 188.991L170.208 172.401C153.064 159.747 148.753 139.622 158.95 119.865L190.633 58.4863L317.921 80.8713L286.239 142.25C276.042 162.007 253.395 177.395 227.134 182.414L192.691 188.997V188.991ZM201.175 76.4845L177.135 123.063C169.85 137.175 172.937 151.55 185.18 160.586L201.237 172.439L225.842 167.739C244.604 164.153 260.781 153.164 268.06 139.052L292.099 92.4737L201.175 76.4845Z" fill="#FFE28D" stroke="#FF5C4D" stroke-width="2.5" stroke-linecap="round" stroke-linejoin="round"/>
<path d="M156.391 146.926C154.973 138.715 156.466 129.791 161.034 120.936L191.926 61.0908L314.37 82.6248M172.411 147.527C174.381 153.228 178.196 158.359 183.775 162.477L200.661 174.937L226.275 170.043C245.728 166.326 262.539 154.861 270.144 140.129L295.646 90.7226" stroke="#FBFCF9" stroke-width="2.5" stroke-linecap="round" stroke-linejoin="round"/>
<path d="M179.216 128.19L203.256 81.6116L289.851 96.8374L292.104 92.4754L201.179 76.4863L177.139 123.065C172.157 132.714 172.031 142.49 176.361 150.594C174.366 143.647 175.251 135.881 179.216 128.184V128.19Z" fill="#FF5C4D" stroke="#FF5C4D" stroke-width="2.5" stroke-linecap="round" stroke-linejoin="round"/>
<path d="M164.836 174.523C167.553 181.057 174.317 187.315 180.831 192.121L203.314 208.711L235.649 201.758C261.91 196.739 284.557 181.351 294.754 161.601L326.436 100.216" stroke="#4D1F1F" stroke-width="2.5" stroke-linecap="round" stroke-linejoin="round"/>
<path d="M363.403 175.512C349.686 173.103 340.493 160.005 342.909 146.325C345.325 132.645 358.458 123.477 372.175 125.886L401.103 130.974C414.82 133.383 424.013 146.482 421.597 160.162C419.181 173.842 406.048 183.01 392.331 180.6L363.403 175.512ZM369.527 140.893C364.106 139.942 358.916 143.565 357.956 148.972C357.003 154.379 360.636 159.555 366.057 160.512L394.985 165.6C400.407 166.551 405.596 162.927 406.556 157.521C407.51 152.114 403.877 146.938 398.455 145.981L369.527 140.893Z" fill="#00BFE6" stroke="#00BFE6" stroke-width="2.5" stroke-linecap="round" stroke-linejoin="round"/>
<path d="M345.227 146.731C347.423 134.321 359.327 126.004 371.77 128.195L400.698 133.282C413.141 135.473 421.48 147.344 419.284 159.754M355.637 148.565C354.457 155.248 358.944 161.644 365.645 162.82L394.573 167.908C401.275 169.085 407.682 164.61 408.868 157.927" stroke="#C4F5F5" stroke-width="2.5" stroke-linecap="round" stroke-linejoin="round"/>
<path d="M421.605 160.162C419.189 173.842 406.056 183.01 392.339 180.6L363.411 175.512C349.694 173.103 340.501 160.005 342.917 146.325" stroke="#4D1F1F" stroke-width="2.5" stroke-linecap="round" stroke-linejoin="round"/>
<path d="M406.553 157.521C407.507 152.114 403.874 146.939 398.452 145.982L369.524 140.894C364.103 139.943 358.913 143.566 357.953 148.973" stroke="#4D1F1F" stroke-width="2.5" stroke-linecap="round" stroke-linejoin="round"/>
<path d="M439.506 177.98C433.62 165.389 439.098 150.37 451.724 144.5C464.349 138.63 479.409 144.093 485.295 156.684L497.707 183.237C503.593 195.828 498.115 210.847 485.489 216.717C472.864 222.588 457.804 217.124 451.918 204.533L439.506 177.98ZM471.458 163.124C469.13 158.149 463.175 155.983 458.187 158.305C453.198 160.627 451.027 166.566 453.355 171.541L465.773 198.093C468.101 203.069 474.056 205.234 479.045 202.912C484.034 200.591 486.205 194.652 483.877 189.677L471.458 163.124Z" fill="#00BFE6" stroke="#00BFE6" stroke-width="2.5" stroke-linecap="round" stroke-linejoin="round"/>
<path d="M452.718 146.62C464.169 141.294 477.83 146.251 483.17 157.672L495.582 184.224C500.922 195.645 495.952 209.269 484.5 214.595M457.185 156.176C451.017 159.042 448.344 166.376 451.218 172.528L463.636 199.081C466.51 205.233 473.864 207.898 480.033 205.032" stroke="#C4F5F5" stroke-width="2.5" stroke-linecap="round" stroke-linejoin="round"/>
<path d="M485.497 216.717C472.872 222.587 457.812 217.123 451.926 204.532L439.514 177.979C433.628 165.388 439.106 150.369 451.731 144.499" stroke="#4D1F1F" stroke-width="2.5" stroke-linecap="round" stroke-linejoin="round"/>
<path d="M479.038 202.913C484.026 200.591 486.198 194.652 483.87 189.677L471.451 163.124C469.123 158.149 463.168 155.984 458.18 158.305" stroke="#4D1F1F" stroke-width="2.5" stroke-linecap="round" stroke-linejoin="round"/>
<path d="M300.499 146.606C296.351 145.874 293.571 141.919 294.305 137.782C295.039 133.645 299.005 130.873 303.153 131.606L366.8 142.795C370.948 143.527 373.728 147.482 372.994 151.619C372.26 155.755 368.294 158.527 364.146 157.795L300.499 146.606Z" fill="#00BFE6" stroke="#00BFE6" stroke-width="2.5" stroke-linecap="round" stroke-linejoin="round"/>
<path d="M296.609 138.189C297.118 135.323 299.866 133.408 302.734 133.909L366.381 145.098C369.255 145.605 371.175 148.346 370.673 151.206" stroke="#C4F5F5" stroke-width="2.5" stroke-linecap="round" stroke-linejoin="round"/>
<path d="M372.994 151.62C372.26 155.756 368.294 158.529 364.146 157.796L300.499 146.607C296.351 145.875 293.571 141.92 294.305 137.783" stroke="#4D1F1F" stroke-width="2.5" stroke-linecap="round" stroke-linejoin="round"/>
<path d="M397.694 163.698C393.546 162.965 390.766 159.01 391.5 154.874C392.235 150.737 396.2 147.965 400.348 148.697L463.996 159.887C468.143 160.619 470.923 164.574 470.189 168.711C469.455 172.847 465.489 175.619 461.341 174.887L397.694 163.698Z" fill="#00BFE6" stroke="#00BFE6" stroke-width="2.5" stroke-linecap="round" stroke-linejoin="round"/>
<path d="M393.812 155.281C394.321 152.415 397.069 150.5 399.937 151L463.584 162.19C466.458 162.697 468.378 165.438 467.876 168.298" stroke="#C4F5F5" stroke-width="2.5" stroke-linecap="round" stroke-linejoin="round"/>
<path d="M470.189 168.71C469.455 172.846 465.489 175.618 461.341 174.886L397.694 163.697C393.546 162.965 390.766 159.01 391.5 154.873" stroke="#4D1F1F" stroke-width="2.5" stroke-linecap="round" stroke-linejoin="round"/>
<path d="M452.032 254.407C450.1 258.136 445.481 259.607 441.741 257.68C438.002 255.752 436.527 251.146 438.46 247.417L468.121 190.149C470.054 186.419 474.673 184.949 478.413 186.876C482.152 188.804 483.627 193.41 481.694 197.139L452.032 254.407Z" fill="#00BFE6" stroke="#00BFE6" stroke-width="2.5" stroke-linecap="round" stroke-linejoin="round"/>
<path d="M470.203 191.227C471.257 189.199 473.567 188.054 475.826 188.454C476.346 188.548 476.855 188.717 477.332 188.961C479.923 190.294 480.94 193.486 479.603 196.064" stroke="#C4F5F5" stroke-width="2.5" stroke-linecap="round" stroke-linejoin="round"/>
<path d="M465.53 195.149L438.46 247.422C436.527 251.152 438.002 255.758 441.741 257.686C445.481 259.613 450.1 258.142 452.032 254.413L479.04 202.915" stroke="#4D1F1F" stroke-width="2.5" stroke-linecap="round" stroke-linejoin="round"/>
<path d="M171.975 264.309C170.055 268.045 165.443 269.535 161.696 267.62C157.95 265.705 156.457 261.105 158.377 257.369L187.819 199.996C189.739 196.26 194.352 194.77 198.098 196.685C201.844 198.6 203.337 203.2 201.417 206.936L171.975 264.309Z" fill="#00BFE6" stroke="#00BFE6" stroke-width="2.5" stroke-linecap="round" stroke-linejoin="round"/>
<path d="M162.769 265.535C160.171 264.208 159.142 261.029 160.472 258.439L189.915 201.065C191.245 198.474 194.433 197.448 197.03 198.774" stroke="#C4F5F5" stroke-width="2.5" stroke-linecap="round" stroke-linejoin="round"/>
<path d="M198.097 196.687C201.843 198.601 203.336 203.201 201.416 206.937L171.974 264.311C170.054 268.047 165.441 269.536 161.695 267.621" stroke="#4D1F1F" stroke-width="2.5" stroke-linecap="round" stroke-linejoin="round"/>
</svg>
