<svg width="244" height="80" viewBox="0 0 244 80" fill="none" xmlns="http://www.w3.org/2000/svg">
<path fill-rule="evenodd" clip-rule="evenodd" d="M46.6232 51.0923C37.4398 50.393 34.4569 45.4024 33.6242 41.9498C33.6242 41.9498 35.4198 42.4313 37.7654 42.7495C37.7721 42.7505 38.3997 42.837 38.4123 42.6714C38.437 42.3525 33.1251 40.8033 30.5514 36.4322C28.5431 33.0211 28.4202 29.7504 28.4202 29.7504C33.8093 30.7812 37.1212 32.0728 54.076 31.6541C59.3262 31.6541 61.6685 32.7302 61.6685 39.1054C61.6685 43.5572 59.7035 51.0059 46.6232 51.0923ZM70.1155 38.8673C70.1155 38.033 69.2232 37.4979 68.1198 37.1544L68.1417 37.1322C68.1417 37.1322 68.0758 37.1268 67.9713 37.1099C67.7938 37.0583 67.612 37.0111 67.4282 36.9686C67.1799 36.8778 66.9138 36.7388 66.7144 36.5253C66.4837 36.2786 66.3445 35.9647 66.2606 35.6963C65.5607 31.0719 62.9144 26.8411 54.076 26.8411H38.7246C38.2049 26.8238 36.7942 26.7433 33.4517 26.3809C30.2101 26.0294 27.3098 25.0172 27.2828 25.0079L24.4375 24L24.0842 26.9947C24.0412 27.3585 23.119 35.8057 28.5827 40.0926L28.578 40.1422C28.3679 42.41 29.2436 47.3574 33.9901 51.359C44.2789 60.0336 58.2628 54.5885 61.84 50.7728C64.0788 48.3842 65.6846 45.5634 66.2396 42.1779C66.3208 41.8963 66.464 41.5488 66.7144 41.2808C66.8229 41.1647 66.9514 41.0716 67.0856 40.9951C67.4449 40.9037 67.8031 40.7976 68.1411 40.6739C69.2345 40.2745 70.1155 39.6959 70.1155 38.8673ZM56.6603 34.5424C55.4693 34.5424 54.6676 35.2747 54.6676 36.6247C54.6676 37.883 55.4693 38.5926 56.6603 38.5926C57.8293 38.5926 58.677 37.8375 58.677 36.6018C58.677 35.2517 57.9665 34.5424 56.6603 34.5424Z" fill="#3291F0"/>
<path fill-rule="evenodd" clip-rule="evenodd" d="M86.6895 47.7228C86.3298 47.9149 85.6655 48.0522 84.6966 48.0522C83.7277 48.0522 83.0634 47.9149 82.6758 47.7228V34.6268C83.4234 34.215 84.6135 33.9953 85.9419 33.9953L86.164 36.2467H86.3852C87.0217 34.9012 88.3781 33.7208 90.8696 33.7208C92.5025 33.7208 94.1357 34.1876 94.883 36.1093H95.1046C95.6858 34.8189 97.0417 33.7208 99.5059 33.7208C101.582 33.7208 104.017 34.4621 104.017 38.9922V47.7228C103.658 47.9149 102.993 48.0522 102.024 48.0522C101.055 48.0522 100.391 47.9149 100.004 47.7228V39.7061C100.004 38.2783 99.5332 37.3724 97.9557 37.3724C96.5714 37.3724 95.7686 38.086 95.2982 38.9372C95.3258 39.1843 95.3537 39.7608 95.3537 40.3373V47.7228C94.9939 47.9149 94.3569 48.0522 93.388 48.0522C92.4197 48.0522 91.7827 47.9149 91.3951 47.7228V39.7061C91.3951 38.2783 90.9245 37.3724 89.347 37.3724C87.9354 37.3724 87.1602 38.086 86.6895 38.9372V47.7228ZM113.982 45.2242C115.892 45.2242 116.75 43.632 116.75 40.9138C116.75 38.498 115.754 36.9878 113.982 36.9878C112.128 36.9878 111.214 38.498 111.214 40.9138C111.214 43.632 112.156 45.2242 113.982 45.2242ZM120.875 40.8865C120.875 45.8284 118.245 48.4916 113.982 48.4916C109.526 48.4916 107.09 45.9658 107.09 40.8865C107.09 36.384 109.886 33.7208 113.982 33.7208C118.162 33.7208 120.875 36.2192 120.875 40.8865ZM127.988 47.7228C127.628 47.9149 126.964 48.0522 125.995 48.0522C125.026 48.0522 124.362 47.9149 123.974 47.7228V34.6268C124.722 34.215 125.912 33.9953 127.241 33.9953L127.463 36.2467H127.684C128.348 34.8189 129.76 33.7208 132.279 33.7208C134.382 33.7208 136.874 34.4621 136.874 38.9922V47.7228C136.514 47.9149 135.85 48.0522 134.881 48.0522C133.912 48.0522 133.248 47.9149 132.86 47.7228V39.7061C132.86 38.2783 132.362 37.3724 130.729 37.3724C129.289 37.3724 128.486 38.086 127.988 38.9372V47.7228ZM148.97 39.5138C149.191 38.086 148.665 36.6858 146.672 36.6858C144.956 36.6858 143.904 37.7842 143.793 39.5138H148.97ZM143.904 42.3967C144.07 44.3184 145.454 45.2517 148.195 45.2517C149.966 45.2517 151.516 44.8675 152.513 44.4281C152.596 45.4714 152.153 46.8165 151.516 47.5304C150.603 48.0523 149.053 48.4914 147.143 48.4914C142.299 48.4914 139.724 45.7185 139.724 41.271C139.724 36.6858 142.492 33.7208 146.838 33.7208C150.879 33.7208 152.734 36.1917 152.734 39.8159C152.734 40.6945 152.568 41.6828 152.319 42.3967H143.904ZM176.044 44.9773C176.432 45.087 177.069 45.1694 177.678 45.1694C180.279 45.1694 181.359 43.6046 181.359 40.914C181.359 38.4155 180.363 37.2077 178.591 37.2077C177.318 37.2077 176.57 37.784 176.044 38.4705V44.9773ZM176.017 35.9173C176.515 34.7916 177.761 33.7209 179.864 33.7209C182.715 33.7209 185.483 35.4779 185.483 40.5569C185.483 45.7733 182.577 48.4915 177.566 48.4915C175.601 48.4915 173.553 48.0797 172.086 47.4482V28.2572C173.027 27.7356 174.328 27.4612 176.1 27.4612V31.8813C176.1 33.0894 175.989 34.7916 175.795 35.9173H176.017ZM188.528 34.4895C188.915 34.2974 189.58 34.16 190.549 34.16C191.517 34.16 192.182 34.2974 192.542 34.4895V47.7228C192.182 47.9149 191.517 48.0523 190.549 48.0523C189.58 48.0523 188.915 47.9149 188.528 47.7228V34.4895ZM203.752 33.7208C204.278 33.7208 204.72 33.8032 205.053 33.9679C205.44 34.6542 205.634 35.4231 205.634 36.4664C205.634 37.2624 205.523 37.7565 205.385 38.141C204.859 37.8389 204.333 37.6745 203.475 37.6745C202.063 37.6745 201.011 38.6352 200.486 40.0629V47.7228C200.126 47.9149 199.461 48.0523 198.493 48.0523C197.524 48.0523 196.859 47.9149 196.472 47.7228V34.6268C197.219 34.215 198.381 33.9953 199.71 33.9953L199.987 36.5211H200.209C200.596 35.0113 201.482 33.7208 203.752 33.7208ZM166.738 34.0503C165.769 34.0503 165.104 34.1877 164.745 34.3798V43.1653C164.219 44.0437 163.416 44.7849 161.921 44.7849C160.26 44.7849 159.734 43.8516 159.734 42.3967V34.3798C159.347 34.1877 158.683 34.0503 157.714 34.0503C156.745 34.0503 156.081 34.1877 155.721 34.3798V43.1103C155.721 47.6405 158.24 48.3817 160.399 48.3817C162.946 48.3817 164.01 47.5999 164.619 46.2271H164.803C164.809 48.9968 164.815 48.8671 164.793 49.3124C164.703 51.1391 163.277 51.9741 160.686 51.9741C158.986 51.9741 157.499 51.6056 156.543 51.1841C156.463 52.1847 156.888 53.4755 157.499 54.1605C158.375 54.6609 159.862 55.0827 161.695 55.0827C165.757 55.0827 168.748 52.8866 168.748 49.4833C168.748 48.6217 168.752 43.08 168.753 40.0297L168.755 40.0277V38.0307V38.0234V34.3798C168.368 34.1877 167.706 34.0503 166.738 34.0503ZM216.194 38.4705C215.668 37.784 214.92 37.2075 213.647 37.2075C211.875 37.2075 210.879 38.4155 210.879 40.914C210.879 43.6046 211.959 45.1694 214.56 45.1694C215.169 45.1694 215.806 45.0871 216.194 44.9774V38.4705ZM216.443 35.9174C216.249 34.7917 216.138 33.0894 216.138 31.8814V27.4609C217.91 27.4609 219.04 27.733 220.004 28.2546V47.4245C218.514 48.056 216.636 48.4915 214.671 48.4915C209.661 48.4915 206.755 45.7733 206.755 40.5569C206.755 35.4779 209.522 33.721 212.374 33.721C214.477 33.721 215.723 34.7917 216.221 35.9174H216.443Z" fill="#3291F0"/>
</svg>
