<svg width="206" height="80" viewBox="0 0 206 80" fill="none" xmlns="http://www.w3.org/2000/svg">
<g clip-path="url(#clip0_379_79377)">
<path d="M167.73 42.6447H158.804V63.4794H163.238V46.7767H164.102L167.676 63.4794H172.735L176.396 46.7767H177.294V63.4794H181.758V42.6447H172.759L170.197 55.608L167.73 42.6447ZM77.4981 42.6447H62.1083V63.4794H77.4981V59.4078H66.5423V54.8595H76.9905V50.8315H66.5423V46.7163H77.4948L77.4981 42.6447ZM38.378 42.6447H24V63.4794H28.4341V55.2724H37.6922V51.2444H28.4341V46.7163H38.378V42.6447ZM36.6198 31.0173C36.6198 32.7694 35.339 33.424 32.8682 33.424H28.4341V28.7247H32.9892C35.3995 28.7247 36.6198 29.4967 36.6198 31.0139V31.0173ZM36.1021 22.874C36.1021 24.3006 34.9423 25.0156 32.6497 25.0156H28.4341V20.7325H32.4681C35.0566 20.7325 36.0988 21.2964 36.0988 22.8707L36.1021 22.874ZM38.4217 26.6469C39.782 25.6731 40.5822 24.0988 40.5665 22.4276C40.5799 18.7118 37.7527 16.671 33.3758 16.671H24V37.4822H33.8834C36.0551 37.4822 37.783 36.9182 39.0907 35.8038C40.4045 34.7148 41.1403 33.0805 41.0842 31.3764C41.0842 29.443 40.19 27.8687 38.4351 26.6201L38.4217 26.6469ZM44.7451 37.4822H55.1058V33.4542H52.0971V20.6989H55.1025V16.671H44.7451V20.6989H47.7202V33.4542H44.7451V37.4822ZM44.7451 37.4822H55.1058V33.4542H52.0971V20.6989H55.1025V16.671H44.7451V20.6989H47.7202V33.4542H44.7451V37.4822ZM54.0906 49.2875C54.0906 51.1605 52.9308 51.9929 50.3927 51.9929H46.3251V46.7163H50.4028C52.756 46.7163 54.1007 47.6092 54.1007 49.3009L54.0906 49.2875ZM58.5045 49.123C58.5045 47.0721 57.7616 45.4978 56.2723 44.3666C54.7831 43.2354 52.8199 42.6413 50.349 42.6413H41.8876V63.476H46.3251V56.0478H48.648C50.9407 56.0478 52.2484 56.8198 52.756 57.8603C53.0887 58.5827 53.338 59.3406 53.4989 60.1194L54.3024 63.476H59.0088L57.849 59.1359C57.2809 57.001 56.6085 55.8094 54.7461 54.6514C56.9957 53.7288 58.4735 51.5511 58.4978 49.123H58.5045ZM68.6501 20.7325H74.634V16.671H58.2625V20.7325H64.2463V37.4822H68.6501V20.7325ZM81.6868 22.4108C81.6868 21.1924 82.8769 20.3599 84.7527 20.3599C86.7159 20.3599 88.4741 21.1622 90.0507 22.7666L93.0258 19.645C90.8979 17.4363 88.2354 16.3353 84.988 16.3353C83.0299 16.2816 81.111 16.8895 79.542 18.0606C78.0632 19.1084 77.2126 20.8297 77.2796 22.6391C77.2796 26.0864 79.7807 28.1977 83.8585 28.8791L86.4201 29.3255C88.3564 29.6813 89.338 30.4265 89.338 31.5241C89.338 32.8332 87.9698 33.7831 85.7074 33.7831C83.324 33.7899 81.3574 32.7829 79.8043 30.7689L76.7787 33.8301C78.9102 36.4001 82.0936 37.8666 85.4351 37.8178C87.9362 37.8178 89.9297 37.2237 91.4492 36.0657C92.9237 34.999 93.7805 33.278 93.7419 31.4603C93.7419 27.8654 91.3887 25.6936 86.7159 24.9518L84.6619 24.6161C82.6684 24.2603 81.6868 23.5152 81.6868 22.4175V22.4108ZM81.7641 63.4693H107.347V59.4078H86.1915V54.8595H106.832V50.8315H86.1915V46.7163H107.34V42.6447H81.7574L81.7641 63.4693ZM126.196 52.9227C126.196 57.2327 123.607 59.401 118.397 59.401H116.612V46.7163H118.366C123.574 46.7163 126.196 48.7974 126.196 52.9294V52.9227ZM130.69 52.9294C130.69 49.3345 129.231 46.4813 126.939 44.9339C124.646 43.3865 122.027 42.6447 119.052 42.6447H112.184V63.4794H119.059C121.883 63.5126 124.649 62.6718 126.976 61.0726C129.238 59.438 130.697 56.5848 130.697 52.9294H130.69ZM139.955 48.3812C141.115 47.1023 142.645 46.478 144.541 46.478C146.232 46.4351 147.856 47.1432 148.975 48.4114C150.137 49.6731 150.767 51.3331 150.736 53.0469C150.792 54.7694 150.191 56.4489 149.055 57.7462C147.953 59.0251 146.437 59.6494 144.561 59.6494C142.624 59.6494 141.108 59.0251 139.975 57.7462C138.839 56.4489 138.239 54.7694 138.295 53.0469C138.245 51.3356 138.845 49.6688 139.975 48.3812H139.955ZM144.44 42.3191C141.586 42.2486 138.829 43.356 136.819 45.3803C134.765 47.3943 133.723 49.9588 133.723 53.0469C133.723 56.135 134.765 58.723 136.819 60.7672C138.842 62.7677 141.594 63.8586 144.44 63.7882C147.303 63.8582 150.072 62.7686 152.118 60.7672C154.202 58.7163 155.244 56.1619 155.244 53.0469C155.244 49.9319 154.202 47.401 152.118 45.3803C150.085 43.355 147.311 42.2488 144.44 42.3191ZM159.366 27.0766C159.422 28.799 158.821 30.4785 157.685 31.7759C156.582 33.0548 155.066 33.6791 153.19 33.6791C151.254 33.6791 149.738 33.0548 148.605 31.7759C147.469 30.4785 146.868 28.799 146.924 27.0766C146.874 25.3652 147.475 23.6984 148.605 22.4108C149.765 21.132 151.294 20.5076 153.19 20.5076C154.882 20.4647 156.506 21.1728 157.624 22.441C158.779 23.7059 159.402 25.3655 159.366 27.0766ZM160.734 34.7968C162.818 32.7459 163.86 30.1915 163.86 27.0766C163.86 23.9616 162.818 21.4307 160.734 19.41C158.703 17.3788 155.926 16.2676 153.052 16.3353C150.198 16.2649 147.441 17.3723 145.431 19.3966C143.381 21.4173 142.332 23.975 142.332 27.0766C142.332 30.1781 143.374 32.7527 145.428 34.7968C147.451 36.7973 150.203 37.8882 153.049 37.8178C155.912 37.8879 158.682 36.7982 160.727 34.7968H160.734ZM181.748 20.7325V16.671H167.37V37.4822H171.804V29.2953H181.062V25.2673H171.807V20.7325H181.748Z" fill="black"/>
</g>
<defs>
<clipPath id="clip0_379_79377">
<rect width="158" height="48" fill="white" transform="translate(24 16)"/>
</clipPath>
</defs>
</svg>
