<svg width="58" height="64" viewBox="0 0 58 64" fill="none" xmlns="http://www.w3.org/2000/svg">
<path d="M26.4761 15.9772C28.2276 15.9772 29.6474 14.6477 29.6474 13.0076C29.6474 11.3676 28.2276 10.0381 26.4761 10.0381C24.7246 10.0381 23.3047 11.3676 23.3047 13.0076C23.3047 14.6477 24.7246 15.9772 26.4761 15.9772Z" fill="#4D1F1F"/>
<path d="M44.1089 37.2408C45.8604 37.2408 47.2803 35.9113 47.2803 34.2713C47.2803 32.6313 45.8604 31.3018 44.1089 31.3018C42.3574 31.3018 40.9375 32.6313 40.9375 34.2713C40.9375 35.9113 42.3574 37.2408 44.1089 37.2408Z" fill="#4D1F1F"/>
<path d="M20.1761 42.7371L17.3834 41.8229C6.98768 38.4213 0 29.2079 0 18.8976V0H40.3522V18.8976C40.3522 29.2079 33.3645 38.4213 22.9688 41.8229L20.1761 42.7371ZM5.07065 4.74795V18.8976C5.07065 27.1913 10.6916 34.6041 19.0578 37.3409L20.1761 37.7066L21.2944 37.3409C29.6607 34.6041 35.2816 27.1913 35.2816 18.8976V4.74795H5.07065Z" fill="#4D1F1F"/>
<path d="M37.8245 64.0003L35.0318 63.0861C24.6361 59.6845 17.6484 50.4711 17.6484 40.1608V21.2632H58.0006V40.1608C58.0006 50.4711 51.013 59.6845 40.6172 63.0861L37.8245 64.0003ZM22.7191 26.0167V40.1663C22.7191 48.46 28.34 55.8728 36.7063 58.6097L37.8245 58.9753L38.9428 58.6097C47.3091 55.8728 52.93 48.46 52.93 40.1663V26.0167H22.7191Z" fill="#4D1F1F"/>
</svg>
