<svg width="32" height="32" viewBox="0 0 32 32" fill="none" xmlns="http://www.w3.org/2000/svg">
<circle cx="16" cy="16" r="15.25" stroke="#4D1F1F" stroke-width="1.5"/>
<path fill-rule="evenodd" clip-rule="evenodd" d="M26 16C26 21.5228 21.5228 26 16 26C10.4772 26 6 21.5228 6 16C6 10.4772 10.4772 6 16 6C21.5228 6 26 10.4772 26 16ZM13.0708 23.4468C12.1025 22.027 11.1983 19.9342 11.0285 17H8.06189C8.42928 19.9462 10.3987 22.3948 13.0708 23.4468ZM8.06189 15H11.0285C11.1983 12.0658 12.1025 9.97305 13.0708 8.55325C10.3987 9.60518 8.42928 12.0538 8.06189 15ZM23.9381 17C23.5707 19.9462 21.6013 22.3948 18.9292 23.4468C19.8975 22.027 20.8017 19.9342 20.9715 17H23.9381ZM23.9381 15C23.5707 12.0538 21.6013 9.60518 18.9292 8.55324C19.8975 9.97305 20.8017 12.0658 20.9715 15H23.9381ZM14.815 22.4517C14.0291 21.3467 13.2038 19.6016 13.0323 17H18.9677C18.7962 19.6016 17.9709 21.3467 17.185 22.4517C16.749 23.0649 16.3176 23.4913 16 23.7618C15.6824 23.4913 15.251 23.0649 14.815 22.4517ZM13.0323 15H18.9677C18.7962 12.3984 17.9709 10.6533 17.185 9.54827C16.749 8.93515 16.3176 8.50865 16 8.23817C15.6824 8.50865 15.251 8.93515 14.815 9.54827C14.0291 10.6533 13.2038 12.3984 13.0323 15Z" fill="#4D1F1F"/>
</svg>
