<svg width="32" height="32" viewBox="0 0 32 32" fill="none" xmlns="http://www.w3.org/2000/svg">
<circle cx="16" cy="16" r="15.25" stroke="#4D1F1F" stroke-width="1.5"/>
<path fill-rule="evenodd" clip-rule="evenodd" d="M6.13281 10.9912C6.13281 9.33436 7.47596 7.99121 9.13281 7.99121H23.1328C24.7897 7.99121 26.1328 9.33436 26.1328 10.9912V20.9912C26.1328 22.6481 24.7897 23.9912 23.1328 23.9912H9.13281C7.47596 23.9912 6.13281 22.6481 6.13281 20.9912V10.9912ZM22.4662 9.99121H9.79951L15.5328 14.2912C15.8884 14.5579 16.3773 14.5579 16.7328 14.2912L22.4662 9.99121ZM8.13281 11.2412V20.9912C8.13281 21.5435 8.58053 21.9912 9.13281 21.9912H23.1328C23.6851 21.9912 24.1328 21.5435 24.1328 20.9912V11.2412L17.9328 15.8912C16.8662 16.6912 15.3995 16.6912 14.3328 15.8912L8.13281 11.2412Z" fill="#4D1F1F"/>
</svg>
