<svg width="195" height="52" viewBox="0 0 195 52" fill="none" xmlns="http://www.w3.org/2000/svg">
<path d="M66.4765 23.1989C61.9149 21.3758 60.9951 20.174 60.9951 17.8873C60.9951 15.3665 62.6349 14.0071 65.5985 14.0071C65.8912 14.0071 66.156 14.0161 66.3975 14.0296C67.2336 14.1691 68.3299 14.5562 69.4123 15.5466C69.4726 15.6141 69.5377 15.6816 69.6027 15.7491C70.6897 16.924 71.2425 17.8423 72.2412 19.8994H73.3235L72.5199 13.674C71.1589 13.1698 69.4448 12.4541 66.0816 12.4541C60.3959 12.4541 56.6379 15.7491 56.6379 20.2505C56.6379 24.1667 58.5982 26.4579 63.9634 28.5871C68.7248 30.4866 70.1648 31.8821 70.1648 34.3668C70.1648 35.1771 70.0068 35.9288 69.691 36.5635C69.0128 37.8059 67.7678 38.5081 65.5521 38.5081C63.1551 38.5081 61.2181 37.1487 60.5584 36.622C60.3726 36.406 60.1915 36.1764 60.015 35.9243C58.9744 34.4479 58.4542 33.0749 57.4972 31.0988H56.3359L56.5728 38.3281C58.1754 39.0258 61.2413 40.3402 64.7624 40.3402C71.3261 40.3402 74.889 36.3835 74.889 31.5355C74.889 27.8893 72.5292 25.6387 66.4858 23.1989H66.4765Z" fill="#4D1F1F"/>
<path d="M86.9921 19.5488C81.7755 19.5488 76.6797 22.9204 76.6797 30.0055C76.6797 37.0907 81.3435 40.3452 86.9921 40.3452C92.2877 40.3452 97.3463 36.8612 97.3463 29.776C97.3463 22.6908 92.6453 19.5488 86.9921 19.5488ZM87.15 38.9633C83.8705 38.9633 82.3283 36.8206 82.3283 29.3889C82.3283 23.0329 83.9495 20.9263 86.876 20.9263C90.0394 20.9263 91.6977 22.8799 91.6977 30.2351C91.6977 37.0502 89.9976 38.9678 87.1547 38.9678L87.15 38.9633Z" fill="#4D1F1F"/>
<path d="M117.586 21.0014V20.1191H110.632V21.0014L111.701 21.267C112.49 21.4606 112.848 21.8792 112.848 22.6084C112.848 23.0675 112.69 23.7563 112.332 24.7151L108.774 34.33H108.579L104.942 24.7151C104.626 23.8328 104.431 23.1846 104.431 22.6849C104.431 21.8792 104.705 21.4966 105.578 21.267L106.647 21.0014V20.1191H95.9766V21.0014L96.8081 21.231C97.8765 21.5776 98.2295 22.1088 99.061 24.0669L105.541 39.8442H108.31L114.437 24.4855C115.305 22.2258 115.663 21.5371 116.69 21.231L117.6 21.0014H117.586Z" fill="#4D1F1F"/>
<path d="M125.923 19.5488C120.744 19.5488 115.922 23.4155 115.922 29.848C115.922 36.2805 119.243 40.3047 125.923 40.3047C129.834 40.3047 132.844 38.0405 134.108 36.8161L134.001 35.4072C132.501 36.0959 130.94 37.2663 127.934 37.4328C123.912 37.6579 121.334 35.4432 121.255 29.1233H134.456C134.377 22.1911 131.177 19.5488 125.918 19.5488H125.923ZM121.259 27.7819C121.459 22.9159 123.275 20.8857 125.686 20.8857C125.802 20.8857 125.909 20.8947 126.021 20.9037C126.926 21.0928 127.944 21.8715 128.431 22.7178C128.826 23.7666 128.966 25.2971 128.966 27.3992L121.259 27.7819Z" fill="#4D1F1F"/>
<path d="M160.687 36.5497V23.8738C160.687 21.9967 160.808 20.5023 160.845 19.8136L160.488 19.584L152.781 20.4618V21.1145L154.166 21.9202C155.192 22.5324 155.392 22.6494 155.392 24.2564V36.5497C155.392 38.1207 155.192 38.3503 154.128 38.6564L152.865 38.9624V39.8447H163.219V38.9624L161.956 38.6564C160.887 38.3908 160.692 38.1972 160.692 36.5497H160.687Z" fill="#4D1F1F"/>
<path d="M157.89 17.2479C159.549 17.2479 160.896 16.0236 160.896 14.4526C160.896 12.8816 159.553 11.6572 157.89 11.6572C156.227 11.6572 154.848 12.8816 154.848 14.4526C154.848 16.0236 156.19 17.2479 157.89 17.2479Z" fill="#4D1F1F"/>
<path d="M184.722 36.5497V24.6751C184.722 21.227 183.101 19.584 179.506 19.584C176.779 19.584 174.089 20.8084 172.078 22.1858H171.878L171.957 19.8136L171.6 19.584L164.172 20.4618V21.1145L165.556 21.9202C166.583 22.5324 166.782 22.6494 166.782 24.2564V36.5497C166.782 38.1207 166.583 38.3503 165.519 38.6564L164.255 38.9624V39.8447H174.489V38.9624L173.263 38.6564C172.236 38.3863 172.078 38.2737 172.078 36.5497V23.6802C172.231 23.6082 173.634 22.9735 175.005 22.744C175.474 22.6809 175.952 22.6449 176.426 22.6449C178.521 22.6449 179.431 23.4507 179.431 25.8994V36.5452C179.431 38.2692 179.274 38.3818 178.247 38.6519L177.021 38.9579V39.8402H187.259V38.9579L185.995 38.6519C184.964 38.3863 184.732 38.1522 184.732 36.5452L184.722 36.5497Z" fill="#4D1F1F"/>
<path d="M192.036 34.4424C190.415 34.4424 189.109 35.6668 189.109 37.2783C189.109 38.8898 190.415 40.0736 192.036 40.0736C193.657 40.0736 195 38.8087 195 37.2783C195 35.6713 193.615 34.4424 192.036 34.4424Z" fill="#4D1F1F"/>
<path d="M148.68 19.5693C146.548 19.5693 144.444 21.0773 143.176 22.3782H142.976L143.055 19.8484L142.697 19.5828L135.27 20.4606V21.1133L136.654 21.9191C137.68 22.5312 137.88 22.6483 137.88 24.2553V36.5486C137.88 38.1195 137.68 38.3491 136.617 38.6552L135.353 38.9613V39.8436H145.944V38.9613L144.365 38.6552C143.375 38.4616 143.18 38.2726 143.18 36.5486V24.0392C143.403 23.8096 143.728 23.508 144.082 23.247C144.444 23.0489 144.978 22.7878 145.652 22.5583C145.758 24.0347 147.054 25.1601 148.685 25.1601C150.315 25.1601 151.69 23.9357 151.69 22.3647C151.69 20.7937 150.348 19.5693 148.685 19.5693H148.68Z" fill="#4D1F1F"/>
<path d="M20.7828 12.9798C22.1579 12.9798 23.2727 11.8996 23.2727 10.567C23.2727 9.23452 22.1579 8.1543 20.7828 8.1543C19.4077 8.1543 18.293 9.23452 18.293 10.567C18.293 11.8996 19.4077 12.9798 20.7828 12.9798Z" fill="#4D1F1F"/>
<path d="M34.6266 30.2561C36.0017 30.2561 37.1164 29.1759 37.1164 27.8434C37.1164 26.5109 36.0017 25.4307 34.6266 25.4307C33.2515 25.4307 32.1367 26.5109 32.1367 27.8434C32.1367 29.1759 33.2515 30.2561 34.6266 30.2561Z" fill="#4D1F1F"/>
<path d="M15.8402 34.7237L13.6477 33.981C5.48602 31.2171 0 23.7313 0 15.3542V0H31.6805V15.3542C31.6805 23.7313 26.1945 31.2171 18.0328 33.981L15.8402 34.7237ZM3.98096 3.85769V15.3542C3.98096 22.0928 8.39393 28.1157 14.9623 30.3393L15.8402 30.6364L16.7182 30.3393C23.2865 28.1157 27.6995 22.0928 27.6995 15.3542V3.85769H3.98096Z" fill="#4D1F1F"/>
<path d="M29.6957 52.0001L27.5032 51.2573C19.3415 48.4935 13.8555 41.0077 13.8555 32.6306V17.2764H45.5359V32.6306C45.5359 41.0077 40.0499 48.4935 31.8883 51.2573L29.6957 52.0001ZM17.8364 21.1386V32.6351C17.8364 39.3737 22.2494 45.3965 28.8178 47.6202L29.6957 47.9173L30.5737 47.6202C37.142 45.3965 41.555 39.3737 41.555 32.6351V21.1386H17.8364Z" fill="#4D1F1F"/>
</svg>
